<?xml version="1.0" encoding="UTF-8" ?>
<!DOCTYPE svg PUBLIC "-//W3C//DTD SVG 1.1//EN" "http://www.w3.org/Graphics/SVG/1.1/DTD/svg11.dtd">
<svg width="800pt" height="600pt" viewBox="0 0 800 600" version="1.1" xmlns="http://www.w3.org/2000/svg">
<g id="#55d4d9ff">
<path fill="#55d4d9" opacity="1.00" d=" M 692.48 107.25 C 706.05 100.25 722.98 100.26 736.54 107.27 C 749.45 113.82 759.23 126.42 761.95 140.69 C 752.99 137.96 744.93 132.98 736.33 129.35 C 733.42 127.92 730.12 128.20 726.99 128.19 C 716.00 128.35 705.00 128.10 694.01 128.28 C 692.34 128.10 690.69 129.16 690.81 130.99 C 690.54 140.98 690.85 151.00 690.68 161.00 C 690.88 163.21 689.98 166.54 692.91 167.20 C 700.23 169.73 707.36 172.73 714.57 175.55 C 716.50 176.38 718.62 176.60 720.72 176.49 C 722.50 177.38 724.27 178.29 726.04 179.24 C 732.31 182.80 739.48 184.31 745.80 187.78 C 735.93 195.94 722.87 200.22 710.07 198.91 C 694.99 197.72 680.83 188.81 673.05 175.86 C 664.99 162.87 663.74 145.99 669.66 131.92 C 674.01 121.33 682.27 112.42 692.48 107.25 Z" />
<path fill="#55d4d9" opacity="1.00" d=" M 524.44 160.40 C 538.46 150.58 557.79 149.20 573.10 156.80 C 590.07 164.82 601.16 183.34 600.42 202.07 C 593.67 200.17 587.57 196.31 580.61 195.19 C 578.95 194.01 577.19 192.67 575.06 192.71 C 569.77 192.45 564.47 192.68 559.18 192.69 C 551.98 188.10 543.55 185.13 534.99 184.96 C 527.80 186.01 521.24 189.47 514.95 192.93 C 513.17 193.93 511.17 194.41 509.21 194.89 C 509.18 199.33 509.20 203.77 509.22 208.22 L 508.54 208.20 C 508.31 203.38 508.48 198.56 508.43 193.74 C 506.80 193.74 505.18 193.75 503.57 193.76 C 505.82 180.46 513.15 167.96 524.44 160.40 Z" />
<path fill="#55d4d9" opacity="1.00" d=" M 504.63 208.79 L 505.48 208.88 C 517.46 215.85 530.39 220.93 542.68 227.29 C 553.31 232.81 564.55 237.14 574.87 243.27 C 563.06 249.71 548.52 250.81 535.85 246.35 C 521.03 241.26 508.91 228.49 505.11 213.23 C 504.94 211.75 504.78 210.27 504.63 208.79 Z" />
</g>
<g id="#ff795aff">
<path fill="#ff795a" opacity="1.00" d=" M 256.98 115.20 C 269.91 112.58 283.84 115.60 294.56 123.29 C 304.84 130.57 312.07 141.95 314.27 154.36 C 312.92 154.57 311.57 154.77 310.25 155.04 L 309.70 155.15 C 304.92 155.04 301.16 151.81 296.96 149.99 C 291.92 147.77 286.61 145.25 280.95 145.85 C 273.34 146.70 265.95 149.41 259.57 153.65 C 254.11 153.51 248.65 153.60 243.19 153.55 C 243.16 156.79 243.16 160.04 243.19 163.28 C 242.15 163.68 241.10 164.08 240.06 164.48 C 241.69 171.32 243.26 178.17 244.83 185.03 C 246.46 184.73 248.10 184.43 249.74 184.13 C 251.43 187.48 252.98 190.91 254.76 194.22 C 263.62 199.34 273.40 202.91 281.66 209.07 C 270.03 212.78 257.06 212.20 245.98 207.00 C 231.60 200.47 220.82 186.54 218.37 170.91 C 216.41 159.62 218.69 147.66 224.63 137.87 C 231.58 126.21 243.62 117.71 256.98 115.20 Z" />
<path fill="#ff795a" opacity="1.00" d=" M 690.81 130.99 C 690.69 129.16 692.34 128.10 694.01 128.28 C 705.00 128.10 716.00 128.35 726.99 128.19 C 730.12 128.20 733.42 127.92 736.33 129.35 C 736.31 133.98 736.30 138.61 736.34 143.24 C 731.61 143.14 726.88 143.23 722.16 143.45 C 721.81 146.04 720.96 148.98 722.71 151.28 C 726.94 151.90 731.26 151.64 735.51 151.20 C 733.56 150.94 731.55 150.83 729.61 150.68 C 730.04 149.24 730.54 147.81 731.02 146.38 C 729.95 146.47 728.88 146.55 727.88 146.94 C 728.26 147.45 729.00 148.46 729.37 148.96 C 728.82 149.54 728.27 150.12 727.71 150.68 C 726.02 150.68 724.34 150.67 722.67 150.66 C 722.56 148.59 722.46 146.53 722.38 144.46 C 726.99 143.68 731.67 143.65 736.34 143.80 C 736.34 146.21 736.34 148.61 736.33 151.02 C 736.27 154.53 736.35 158.04 736.54 161.55 C 736.22 163.50 735.83 165.46 735.07 167.30 C 734.27 167.31 732.67 167.33 731.87 167.34 C 728.12 167.31 724.38 167.33 720.64 167.35 C 717.73 167.27 714.82 167.39 711.92 167.47 C 710.89 167.44 709.87 167.40 708.87 167.37 C 706.80 167.29 704.73 167.33 702.68 167.34 C 699.42 167.30 696.16 167.41 692.91 167.20 C 689.98 166.54 690.88 163.21 690.68 161.00 C 690.85 151.00 690.54 140.98 690.81 130.99 M 693.30 130.51 C 693.21 141.94 693.28 153.36 693.27 164.78 C 706.78 164.70 720.30 164.65 733.82 164.81 C 733.78 160.91 733.78 157.00 733.82 153.10 L 732.85 153.01 C 732.81 156.59 732.79 160.17 732.78 163.75 C 719.93 163.74 707.09 163.75 694.24 163.74 C 694.23 153.14 694.34 142.53 694.18 131.93 C 707.05 131.48 719.96 131.71 732.84 131.82 C 732.94 135.37 732.22 139.09 733.53 142.50 C 733.97 138.52 733.79 134.51 733.72 130.52 C 720.25 130.66 706.77 130.68 693.30 130.51 Z" />
<path fill="#ff795a" opacity="1.00" d=" M 689.00 238.74 C 702.91 234.50 718.68 237.01 730.57 245.39 C 741.18 252.71 748.50 264.37 750.79 277.03 C 740.43 272.71 730.77 266.87 720.49 262.39 C 710.74 261.06 700.83 262.05 691.02 261.85 C 687.84 265.77 684.32 269.40 681.27 273.42 C 679.44 275.79 680.48 278.94 681.31 281.50 C 682.52 280.91 683.72 280.28 685.01 279.84 C 685.28 280.12 685.81 280.68 686.08 280.96 C 685.08 288.25 685.65 295.61 685.44 302.93 C 685.19 295.59 685.49 288.24 685.32 280.90 C 683.91 281.62 683.51 283.33 683.62 284.80 C 683.51 291.18 683.70 297.56 683.58 303.94 C 681.64 304.04 681.04 305.27 681.46 307.08 C 697.56 313.29 713.74 319.32 729.70 325.88 C 719.77 332.30 707.58 335.14 695.86 333.36 C 680.57 331.27 666.67 321.29 659.71 307.54 C 653.11 294.90 652.55 279.32 658.22 266.24 C 663.73 253.12 675.33 242.73 689.00 238.74 Z" />
<path fill="#ff795a" opacity="1.00" d=" M 190.32 327.27 C 196.75 327.26 203.19 327.43 209.61 327.09 C 210.22 327.49 210.81 327.92 211.39 328.37 C 211.91 331.69 211.63 335.08 211.64 338.43 C 214.53 338.44 217.42 338.44 220.31 338.44 C 220.33 334.85 220.36 331.25 220.38 327.66 C 220.61 327.58 221.07 327.40 221.30 327.32 C 227.46 327.18 233.62 327.36 239.78 327.28 C 239.79 331.09 239.79 334.89 239.79 338.70 C 237.88 338.70 235.97 338.71 234.07 338.72 C 233.61 348.69 234.16 358.68 233.89 368.65 C 229.36 368.60 224.83 368.55 220.30 368.69 C 220.38 359.37 220.36 350.05 220.32 340.73 C 217.44 340.72 214.55 340.72 211.67 340.73 C 211.61 350.04 211.59 359.36 211.69 368.68 C 206.64 368.51 201.59 368.74 196.55 368.47 C 196.63 358.52 196.77 348.57 196.49 338.63 C 194.42 338.66 192.36 338.70 190.30 338.73 C 190.31 334.91 190.32 331.09 190.32 327.27 Z" />
<path fill="#ff795a" opacity="1.00" d=" M 599.13 348.19 C 602.97 347.26 606.77 346.14 610.69 345.60 C 611.98 352.11 613.62 358.54 615.37 364.94 C 608.93 366.85 602.44 368.56 595.92 370.12 C 594.32 363.66 592.69 357.20 591.01 350.76 C 593.59 349.56 596.37 348.88 599.13 348.19 Z" />
</g>
<g id="#2c2c2cff">
<path fill="#2c2c2c" opacity="1.00" d=" M 326.21 140.06 C 325.72 133.16 332.30 127.35 339.05 127.97 C 384.03 127.94 429.02 127.94 474.01 127.98 C 480.70 127.42 487.06 133.18 486.75 139.97 C 486.81 193.99 486.68 248.02 486.65 302.04 C 486.06 322.31 487.25 342.65 486.31 362.97 C 486.94 370.65 486.43 378.37 486.79 386.07 C 487.14 392.12 482.02 397.82 475.97 398.17 C 469.33 398.47 462.67 398.20 456.02 398.27 C 451.76 386.43 447.47 374.59 443.20 362.75 C 452.77 362.73 462.34 362.76 471.91 362.74 C 471.89 293.36 471.86 223.98 471.92 154.60 C 428.23 154.60 384.54 154.54 340.86 154.63 C 341.02 223.99 340.71 293.35 340.94 362.72 C 365.81 362.78 390.68 362.72 415.55 362.75 C 419.56 374.56 423.48 386.39 427.49 398.19 C 419.65 398.38 411.81 398.26 403.97 398.26 L 403.71 398.26 C 383.42 398.37 363.12 398.27 342.83 398.32 C 341.04 381.32 334.59 365.18 327.11 349.94 C 326.02 347.79 326.21 345.31 326.18 342.98 C 326.27 337.01 326.21 331.03 326.19 325.06 C 325.95 319.80 328.69 315.08 329.26 309.94 C 330.91 297.71 330.63 284.76 325.72 273.25 C 326.50 268.88 326.15 264.44 326.20 260.02 C 326.21 220.04 326.19 180.05 326.21 140.06 M 397.16 137.29 C 393.27 138.68 394.02 145.01 398.05 145.57 C 404.36 145.91 410.71 145.74 417.03 145.67 C 420.12 145.75 422.53 141.91 420.82 139.24 C 419.17 136.01 414.97 136.98 412.02 136.80 C 407.07 137.09 402.01 136.25 397.16 137.29 M 403.19 372.28 C 397.35 374.30 395.53 382.67 400.18 386.83 C 404.62 391.59 413.51 389.25 415.04 382.92 C 417.31 376.26 409.58 369.26 403.19 372.28 Z" />
</g>
<g id="#ffbe94ff">
<path fill="#ffbe94" opacity="1.00" d=" M 693.30 130.51 C 706.77 130.68 720.25 130.66 733.72 130.52 C 733.79 134.51 733.97 138.52 733.53 142.50 C 732.22 139.09 732.94 135.37 732.84 131.82 C 719.96 131.71 707.05 131.48 694.18 131.93 C 694.34 142.53 694.23 153.14 694.24 163.74 C 707.09 163.75 719.93 163.74 732.78 163.75 C 732.79 160.17 732.81 156.59 732.85 153.01 L 733.82 153.10 C 733.78 157.00 733.78 160.91 733.82 164.81 C 720.30 164.65 706.78 164.70 693.27 164.78 C 693.28 153.36 693.21 141.94 693.30 130.51 Z" />
<path fill="#ffbe94" opacity="1.00" d=" M 282.69 154.51 C 286.91 157.43 292.15 157.64 296.94 159.02 C 300.99 160.16 305.04 161.28 309.15 162.21 C 309.20 164.45 309.24 166.70 309.23 168.94 C 301.81 168.54 294.42 169.31 287.02 169.53 C 285.96 169.14 284.92 168.71 283.90 168.25 C 283.01 167.80 282.12 167.38 281.22 166.98 L 280.44 166.92 C 276.90 166.82 273.40 166.25 270.06 165.09 C 269.88 164.59 269.51 163.57 269.33 163.07 C 269.70 161.72 270.17 160.41 270.65 159.10 C 274.66 158.65 278.64 159.62 282.64 159.70 C 282.66 157.97 282.67 156.24 282.69 154.51 M 270.95 160.97 C 268.84 163.48 274.13 166.34 274.24 163.01 C 275.22 160.51 272.71 160.01 270.95 160.97 Z" />
</g>
<g id="#45c4c4ff">
<path fill="#45c4c4" opacity="1.00" d=" M 736.33 129.35 C 744.93 132.98 752.99 137.96 761.95 140.69 C 765.92 157.71 759.37 176.70 745.80 187.78 C 739.48 184.31 732.31 182.80 726.04 179.24 C 727.08 177.20 728.13 175.16 729.18 173.13 C 730.31 173.38 731.46 173.63 732.62 173.88 C 733.36 171.66 734.17 169.46 735.07 167.30 C 735.83 165.46 736.22 163.50 736.54 161.55 C 737.45 158.33 738.52 155.16 739.43 151.94 C 738.39 151.63 737.35 151.32 736.33 151.02 C 736.34 148.61 736.34 146.21 736.34 143.80 L 736.34 143.24 C 736.30 138.61 736.31 133.98 736.33 129.35 Z" />
<path fill="#45c4c4" opacity="1.00" d=" M 508.43 193.74 C 508.48 198.56 508.31 203.38 508.54 208.20 L 509.22 208.22 C 517.20 207.65 525.18 209.04 533.12 208.35 C 533.20 211.53 532.99 214.73 533.43 217.90 C 533.98 220.86 537.14 222.54 539.98 222.35 C 550.64 222.44 561.30 222.29 571.96 222.41 C 574.53 222.32 577.59 222.63 579.55 220.59 C 581.90 218.39 581.31 214.88 581.44 211.99 C 581.24 206.39 581.99 200.69 580.61 195.19 C 587.57 196.31 593.67 200.17 600.42 202.07 C 600.21 219.10 589.92 235.29 575.03 243.37 L 574.87 243.27 C 564.55 237.14 553.31 232.81 542.68 227.29 C 530.39 220.93 517.46 215.85 505.48 208.88 C 506.16 208.64 507.51 208.17 508.19 207.93 C 508.59 203.21 508.21 198.47 508.43 193.74 Z" />
</g>
<g id="#ffd2abff">
<path fill="#ffd2ab" opacity="1.00" d=" M 722.16 143.45 C 726.88 143.23 731.61 143.14 736.34 143.24 L 736.34 143.80 C 731.67 143.65 726.99 143.68 722.38 144.46 C 722.46 146.53 722.56 148.59 722.67 150.66 C 724.34 150.67 726.02 150.68 727.71 150.68 C 728.27 150.12 728.82 149.54 729.37 148.96 C 729.00 148.46 728.26 147.45 727.88 146.94 C 728.88 146.55 729.95 146.47 731.02 146.38 C 730.54 147.81 730.04 149.24 729.61 150.68 C 731.55 150.83 733.56 150.94 735.51 151.20 C 731.26 151.64 726.94 151.90 722.71 151.28 C 720.96 148.98 721.81 146.04 722.16 143.45 Z" />
<path fill="#ffd2ab" opacity="1.00" d=" M 114.08 219.96 C 114.88 210.86 115.35 201.73 116.50 192.66 C 128.85 192.65 141.20 192.82 153.55 192.54 C 155.32 196.93 154.91 201.75 155.35 206.37 C 155.73 215.88 156.62 225.37 156.90 234.89 C 142.40 235.22 127.89 234.64 113.39 235.10 C 112.85 230.04 113.75 225.00 114.08 219.96 M 121.42 202.43 C 120.94 204.00 122.54 204.98 123.44 205.98 C 125.50 208.97 128.16 212.09 132.03 212.44 C 137.32 213.36 142.63 210.53 145.17 205.88 C 146.38 204.77 148.39 203.06 146.63 201.45 C 145.14 199.17 142.44 200.96 141.58 202.83 C 141.88 203.36 142.47 204.43 142.77 204.96 C 140.35 211.90 128.66 212.56 126.11 205.37 C 126.25 203.98 127.21 202.16 125.80 201.11 C 124.51 199.62 121.75 200.51 121.42 202.43 Z" />
<path fill="#ffd2ab" opacity="1.00" d=" M 219.25 318.14 C 221.12 316.42 224.63 316.89 225.55 319.42 C 226.39 322.73 223.47 325.31 221.30 327.32 C 221.07 327.40 220.61 327.58 220.38 327.66 C 220.36 331.25 220.33 334.85 220.31 338.44 C 217.42 338.44 214.53 338.44 211.64 338.43 C 211.63 335.08 211.91 331.69 211.39 328.37 C 210.81 327.92 210.22 327.49 209.61 327.09 C 207.58 325.76 205.86 323.52 205.86 321.00 C 206.42 318.81 208.81 317.46 210.99 318.04 C 213.47 318.36 214.44 320.93 215.69 322.74 C 216.80 321.15 217.83 319.47 219.25 318.14 M 207.34 321.32 C 207.75 324.96 211.58 327.01 214.97 326.96 C 214.32 324.56 214.18 321.63 212.01 320.04 C 210.53 318.84 207.77 319.25 207.34 321.32 M 216.83 327.15 C 220.26 326.11 225.47 323.44 223.83 319.09 C 219.23 317.21 216.62 323.46 216.83 327.15 Z" />
<path fill="#ffd2ab" opacity="1.00" d=" M 83.33 335.85 C 88.84 341.09 93.68 347.00 98.98 352.46 C 97.73 353.63 96.48 354.81 95.24 355.99 C 90.18 350.35 84.84 344.97 79.95 339.18 C 81.08 338.07 82.20 336.96 83.33 335.85 Z" />
<path fill="#ffd2ab" opacity="1.00" d=" M 211.67 340.73 C 214.55 340.72 217.44 340.72 220.32 340.73 C 220.36 350.05 220.38 359.37 220.30 368.69 C 217.43 368.83 214.55 368.83 211.69 368.68 C 211.59 359.36 211.61 350.04 211.67 340.73 Z" />
</g>
<g id="#f4b490ff">
<path fill="#f4b490" opacity="1.00" d=" M 259.57 153.65 C 265.95 149.41 273.34 146.70 280.95 145.85 C 286.61 145.25 291.92 147.77 296.96 149.99 C 301.16 151.81 304.92 155.04 309.70 155.15 C 309.06 157.44 309.13 159.84 309.15 162.21 C 305.04 161.28 300.99 160.16 296.94 159.02 C 292.15 157.64 286.91 157.43 282.69 154.51 C 275.08 153.14 267.26 154.25 259.57 153.65 Z" />
<path fill="#f4b490" opacity="1.00" d=" M 514.95 192.93 C 521.24 189.47 527.80 186.01 534.99 184.96 C 543.55 185.13 551.98 188.10 559.18 192.69 C 551.60 193.04 544.00 192.71 536.42 193.22 C 536.34 195.08 536.27 196.94 536.20 198.80 C 540.09 198.71 544.04 198.14 547.90 198.85 C 550.78 199.92 549.65 204.36 546.95 205.00 C 542.37 206.28 537.24 205.50 533.12 208.35 C 525.18 209.04 517.20 207.65 509.22 208.22 C 509.20 203.77 509.18 199.33 509.21 194.89 C 511.17 194.41 513.17 193.93 514.95 192.93 M 544.57 199.70 C 544.71 201.13 544.86 202.56 545.01 204.00 C 546.07 203.68 547.13 203.36 548.20 203.04 C 548.16 202.26 548.09 200.71 548.06 199.93 C 547.18 199.87 545.44 199.76 544.57 199.70 Z" />
</g>
<g id="#ffffffff">
<path fill="#ffffff" opacity="1.00" d=" M 736.33 151.02 C 737.35 151.32 738.39 151.63 739.43 151.94 C 738.52 155.16 737.45 158.33 736.54 161.55 C 736.35 158.04 736.27 154.53 736.33 151.02 Z" />
<path fill="#ffffff" opacity="1.00" d=" M 249.44 155.44 C 258.70 155.61 267.98 155.34 277.24 155.56 C 272.50 156.97 267.66 158.14 262.74 158.74 C 257.07 160.69 251.13 161.64 245.31 163.01 C 245.28 161.89 245.26 160.77 245.24 159.65 C 245.90 159.58 247.23 159.45 247.90 159.39 C 249.82 159.16 249.15 156.76 249.44 155.44 Z" />
<path fill="#ffffff" opacity="1.00" d=" M 309.70 155.15 L 310.25 155.04 L 310.75 155.03 C 310.33 159.57 310.52 164.13 310.34 168.68 C 311.52 168.70 312.69 168.63 313.87 168.50 L 311.83 167.34 C 312.50 166.88 313.84 165.97 314.51 165.52 C 314.44 166.91 314.37 168.30 314.32 169.69 C 312.61 169.76 310.91 169.82 309.22 169.88 L 309.23 168.94 C 309.24 166.70 309.20 164.45 309.15 162.21 C 309.13 159.84 309.06 157.44 309.70 155.15 Z" />
<path fill="#ffffff" opacity="1.00" d=" M 246.76 164.74 C 254.73 162.89 262.74 161.21 270.65 159.10 C 270.17 160.41 269.70 161.72 269.33 163.07 C 266.90 164.39 264.42 165.64 261.92 166.82 C 261.51 165.85 261.10 164.88 260.69 163.91 C 259.75 165.53 258.82 167.17 257.94 168.83 C 253.77 170.89 249.30 172.35 245.39 174.91 C 246.07 176.67 247.20 178.49 246.27 180.41 C 245.12 177.04 244.44 173.55 243.66 170.09 C 246.12 169.24 247.73 167.45 246.76 164.74 Z" />
<path fill="#ffffff" opacity="1.00" d=" M 252.11 173.96 C 258.09 170.99 264.02 167.93 270.06 165.09 C 273.40 166.25 276.90 166.82 280.44 166.92 C 279.48 167.90 278.57 168.91 277.66 169.92 C 276.51 170.00 275.36 170.07 274.22 170.15 C 273.44 170.80 272.66 171.44 271.89 172.09 C 272.26 172.88 272.63 173.68 273.00 174.48 C 274.99 173.88 276.99 173.32 279.01 172.80 C 280.05 171.78 281.09 170.76 282.13 169.74 C 281.82 168.82 281.52 167.90 281.22 166.98 C 282.12 167.38 283.01 167.80 283.90 168.25 C 284.57 169.43 285.19 170.65 285.82 171.87 C 284.36 173.55 283.92 175.61 284.66 177.71 C 276.38 181.71 268.16 185.83 259.93 189.92 C 258.99 188.98 258.04 188.05 257.10 187.12 C 256.41 187.51 255.05 188.29 254.37 188.68 C 252.93 185.71 251.49 182.74 250.06 179.77 C 252.53 178.58 253.04 176.39 252.11 173.96 M 264.92 170.47 C 264.42 171.69 263.91 172.92 263.41 174.15 C 264.62 176.01 266.54 177.11 268.49 178.08 C 268.79 177.83 269.40 177.33 269.70 177.08 L 269.66 178.79 C 270.36 178.08 271.04 177.36 271.72 176.63 C 270.52 176.11 269.32 175.60 268.12 175.10 C 267.73 174.55 266.96 173.43 266.58 172.87 C 266.93 172.41 267.64 171.50 268.00 171.04 C 266.96 170.85 265.94 170.66 264.92 170.47 M 258.31 180.27 C 256.48 180.22 254.64 180.36 253.10 181.42 C 253.56 182.27 254.03 183.12 254.50 183.97 C 255.29 183.19 256.08 182.41 256.88 181.63 C 258.12 181.69 259.35 181.75 260.59 181.82 C 261.85 180.33 263.08 178.69 262.15 176.67 C 260.85 177.85 259.59 179.07 258.31 180.27 M 269.17 178.99 C 268.51 179.94 267.87 180.91 267.20 181.85 C 268.38 181.73 269.57 181.65 270.76 181.60 C 271.08 180.84 271.71 179.33 272.03 178.57 C 271.31 178.67 269.88 178.89 269.17 178.99 Z" />
<path fill="#ffffff" opacity="1.00" d=" M 702.68 167.34 C 704.73 167.33 706.80 167.29 708.87 167.37 C 714.37 169.65 719.49 172.73 724.91 175.20 C 725.37 174.16 725.85 173.11 726.34 172.07 C 721.50 170.63 716.68 169.12 711.92 167.47 C 714.82 167.39 717.73 167.27 720.64 167.35 C 723.96 168.24 727.24 169.30 730.58 170.16 C 730.98 169.21 731.42 168.27 731.87 167.34 C 732.67 167.33 734.27 167.31 735.07 167.30 C 734.17 169.46 733.36 171.66 732.62 173.88 C 731.46 173.63 730.31 173.38 729.18 173.13 C 728.13 175.16 727.08 177.20 726.04 179.24 C 724.27 178.29 722.50 177.38 720.72 176.49 C 714.70 173.44 708.75 170.27 702.68 167.34 Z" />
<path fill="#ffffff" opacity="1.00" d=" M 536.42 193.22 C 544.00 192.71 551.60 193.04 559.18 192.69 C 564.47 192.68 569.77 192.45 575.06 192.71 C 577.19 192.67 578.95 194.01 580.61 195.19 C 581.99 200.69 581.24 206.39 581.44 211.99 C 581.31 214.88 581.90 218.39 579.55 220.59 C 577.59 222.63 574.53 222.32 571.96 222.41 C 561.30 222.29 550.64 222.44 539.98 222.35 C 537.14 222.54 533.98 220.86 533.43 217.90 C 532.99 214.73 533.20 211.53 533.12 208.35 C 537.24 205.50 542.37 206.28 546.95 205.00 C 549.65 204.36 550.78 199.92 547.90 198.85 C 544.04 198.14 540.09 198.71 536.20 198.80 C 536.27 196.94 536.34 195.08 536.42 193.22 M 567.97 199.19 C 571.88 199.29 575.80 199.29 579.72 199.18 C 578.32 196.80 576.04 194.25 572.97 194.88 C 570.51 195.13 569.07 197.23 567.97 199.19 M 550.72 196.66 C 550.73 198.57 550.74 200.47 550.76 202.38 C 553.92 202.40 557.08 202.40 560.25 202.39 C 560.24 200.47 560.24 198.56 560.24 196.65 C 557.06 196.65 553.89 196.65 550.72 196.66 M 568.40 203.30 C 569.91 204.80 571.70 206.56 574.04 206.34 C 576.19 206.35 577.70 204.68 579.08 203.26 C 575.52 203.12 571.95 203.13 568.40 203.30 M 543.50 216.89 C 543.29 220.04 546.72 218.97 548.71 218.72 C 549.52 215.90 545.06 217.45 543.50 216.89 M 550.59 216.95 C 550.35 219.99 555.88 219.88 556.26 217.17 C 554.37 217.06 552.47 216.99 550.59 216.95 M 558.69 216.90 C 558.70 217.45 558.73 218.54 558.75 219.09 C 560.33 218.71 562.49 219.50 563.67 218.10 C 563.02 216.06 560.24 217.39 558.69 216.90 M 565.43 216.92 C 565.32 220.10 568.82 219.01 570.82 218.62 C 570.72 215.91 567.09 217.36 565.43 216.92 Z" />
<path fill="#ffffff" opacity="1.00" d=" M 142.77 204.96 C 143.55 203.89 143.60 201.74 145.42 201.93 C 145.41 203.25 145.32 204.57 145.17 205.88 C 142.63 210.53 137.32 213.36 132.03 212.44 C 128.16 212.09 125.50 208.97 123.44 205.98 C 123.28 204.38 123.37 202.77 123.73 201.21 C 124.55 202.57 125.34 203.96 126.11 205.37 C 128.66 212.56 140.35 211.90 142.77 204.96 Z" />
<path fill="#ffffff" opacity="1.00" d=" M 429.78 214.64 C 433.21 213.36 436.43 211.17 440.13 210.83 L 440.54 212.07 C 438.57 214.42 435.05 214.82 432.36 216.18 C 430.50 231.07 428.61 245.96 427.06 260.89 C 428.70 262.30 430.70 263.68 431.10 265.98 C 432.25 270.21 428.27 274.64 424.00 274.37 C 421.35 274.43 419.43 272.42 417.76 270.67 C 412.57 270.55 407.37 270.56 402.18 270.66 C 400.51 272.40 398.62 274.42 396.00 274.37 C 391.32 274.76 387.13 269.47 389.11 265.06 C 390.57 260.72 396.56 259.24 400.04 262.10 C 401.81 263.33 402.21 265.58 402.94 267.47 C 407.62 267.48 412.29 267.49 416.97 267.46 C 417.64 265.50 418.16 263.24 420.00 262.02 C 421.60 261.06 423.45 260.64 425.17 259.91 C 423.80 259.41 422.39 259.19 420.95 259.25 C 409.64 259.36 398.33 259.27 387.03 259.28 C 385.45 259.61 384.63 258.07 384.16 256.88 C 380.62 248.45 376.89 240.09 373.19 231.73 C 372.79 230.64 372.10 229.56 372.26 228.35 C 372.86 226.87 374.62 226.62 376.03 226.69 C 393.51 226.70 411.00 226.71 428.48 226.70 C 429.02 222.69 429.53 218.68 429.78 214.64 M 375.97 229.89 C 377.65 233.66 379.36 237.41 381.02 241.19 C 394.70 241.29 408.37 241.16 422.05 241.26 C 423.57 241.15 425.21 241.48 426.66 240.90 C 427.31 237.26 427.28 233.54 427.39 229.85 C 410.25 229.93 393.11 229.86 375.97 229.89 M 382.31 244.95 C 384.04 248.76 385.69 252.62 387.63 256.33 C 399.97 256.22 412.31 256.19 424.64 256.35 C 425.54 252.58 425.67 248.70 426.16 244.87 C 411.54 244.92 396.92 244.77 382.31 244.95 M 393.37 264.47 C 391.09 265.98 391.47 269.73 393.96 270.81 C 396.41 272.42 399.99 269.77 399.46 266.97 C 399.18 264.27 395.48 262.54 393.37 264.47 M 423.07 271.03 C 425.88 272.23 427.80 269.28 428.56 267.02 C 427.34 265.27 425.53 262.73 423.04 263.90 C 419.64 264.83 419.67 270.12 423.07 271.03 Z" />
<path fill="#ffffff" opacity="1.00" d=" M 704.11 274.32 C 705.67 274.32 707.25 274.32 708.83 274.32 C 708.85 276.23 708.88 278.15 708.91 280.07 C 708.45 280.35 707.53 280.92 707.06 281.21 C 706.24 281.23 704.59 281.27 703.76 281.30 C 703.87 278.97 703.98 276.64 704.11 274.32 Z" />
<path fill="#ffffff" opacity="1.00" d=" M 713.46 274.41 C 715.03 274.35 716.59 274.29 718.17 274.23 C 718.27 276.56 718.38 278.90 718.48 281.23 C 716.78 281.01 715.10 280.79 713.42 280.55 C 713.42 278.50 713.45 276.46 713.46 274.41 Z" />
<path fill="#ffffff" opacity="1.00" d=" M 723.09 274.42 C 724.55 274.33 726.03 274.25 727.51 274.17 C 727.72 277.08 728.64 281.52 724.51 281.82 C 724.05 281.28 723.11 280.20 722.65 279.66 C 722.76 277.90 722.92 276.16 723.09 274.42 Z" />
<path fill="#ffffff" opacity="1.00" d=" M 694.52 274.36 C 696.14 274.36 697.77 274.36 699.41 274.37 C 699.40 276.67 699.40 278.97 699.40 281.27 C 697.76 281.26 696.14 281.26 694.52 281.27 C 694.51 278.97 694.51 276.66 694.52 274.36 Z" />
<path fill="#ffffff" opacity="1.00" d=" M 96.66 336.03 C 96.11 333.61 98.60 332.45 100.17 331.29 C 99.32 333.18 99.21 335.24 99.50 337.28 C 100.48 335.40 101.24 333.41 102.36 331.62 C 103.44 333.37 105.42 335.65 103.63 337.67 C 101.87 340.65 97.01 339.35 96.66 336.03 Z" />
<path fill="#ffffff" opacity="1.00" d=" M 78.08 338.17 C 79.92 336.41 81.92 334.81 84.03 333.38 C 90.12 338.12 94.85 344.37 100.11 349.98 C 101.45 351.27 101.18 353.63 99.72 354.74 C 91.34 362.67 82.73 370.36 74.34 378.29 C 72.84 379.53 71.22 381.51 69.02 380.67 C 63.46 375.73 58.70 369.85 53.70 364.34 C 52.51 362.82 53.44 360.82 54.78 359.78 C 62.49 352.52 70.39 345.46 78.08 338.17 M 83.33 335.85 C 82.20 336.96 81.08 338.07 79.95 339.18 C 84.84 344.97 90.18 350.35 95.24 355.99 C 96.48 354.81 97.73 353.63 98.98 352.46 C 93.68 347.00 88.84 341.09 83.33 335.85 M 55.68 361.66 C 57.65 365.40 60.93 368.15 63.68 371.29 C 66.06 373.80 68.13 376.77 71.30 378.36 C 71.08 375.84 69.04 374.23 67.46 372.51 C 64.65 369.66 62.09 366.59 59.38 363.67 C 58.45 362.53 57.14 361.85 55.68 361.66 Z" />
</g>
<g id="#00b7a4ff">
<path fill="#00b7a4" opacity="1.00" d=" M 243.19 153.55 C 248.65 153.60 254.11 153.51 259.57 153.65 C 267.26 154.25 275.08 153.14 282.69 154.51 C 282.67 156.24 282.66 157.97 282.64 159.70 C 278.64 159.62 274.66 158.65 270.65 159.10 C 262.74 161.21 254.73 162.89 246.76 164.74 C 247.73 167.45 246.12 169.24 243.66 170.09 C 244.44 173.55 245.12 177.04 246.27 180.41 C 247.20 178.49 246.07 176.67 245.39 174.91 C 249.30 172.35 253.77 170.89 257.94 168.83 C 258.82 167.17 259.75 165.53 260.69 163.91 C 261.10 164.88 261.51 165.85 261.92 166.82 C 264.42 165.64 266.90 164.39 269.33 163.07 C 269.51 163.57 269.88 164.59 270.06 165.09 C 264.02 167.93 258.09 170.99 252.11 173.96 C 253.04 176.39 252.53 178.58 250.06 179.77 C 251.49 182.74 252.93 185.71 254.37 188.68 C 255.05 188.29 256.41 187.51 257.10 187.12 C 258.04 188.05 258.99 188.98 259.93 189.92 C 268.16 185.83 276.38 181.71 284.66 177.71 C 283.92 175.61 284.36 173.55 285.82 171.87 C 285.19 170.65 284.57 169.43 283.90 168.25 C 284.92 168.71 285.96 169.14 287.02 169.53 C 288.21 171.90 289.37 174.29 290.52 176.69 C 278.56 182.46 266.77 188.57 254.76 194.22 C 252.98 190.91 251.43 187.48 249.74 184.13 C 248.10 184.43 246.46 184.73 244.83 185.03 C 243.26 178.17 241.69 171.32 240.06 164.48 C 241.10 164.08 242.15 163.68 243.19 163.28 C 243.16 160.04 243.16 156.79 243.19 153.55 M 249.44 155.44 C 249.15 156.76 249.82 159.16 247.90 159.39 C 247.23 159.45 245.90 159.58 245.24 159.65 C 245.26 160.77 245.28 161.89 245.31 163.01 C 251.13 161.64 257.07 160.69 262.74 158.74 C 267.66 158.14 272.50 156.97 277.24 155.56 C 267.98 155.34 258.70 155.61 249.44 155.44 Z" />
<path fill="#00b7a4" opacity="1.00" d=" M 708.87 167.37 C 709.87 167.40 710.89 167.44 711.92 167.47 C 716.68 169.12 721.50 170.63 726.34 172.07 C 725.85 173.11 725.37 174.16 724.91 175.20 C 719.49 172.73 714.37 169.65 708.87 167.37 Z" />
<path fill="#00b7a4" opacity="1.00" d=" M 720.64 167.35 C 724.38 167.33 728.12 167.31 731.87 167.34 C 731.42 168.27 730.98 169.21 730.58 170.16 C 727.24 169.30 723.96 168.24 720.64 167.35 Z" />
<path fill="#00b7a4" opacity="1.00" d=" M 269.17 178.99 C 269.88 178.89 271.31 178.67 272.03 178.57 C 271.71 179.33 271.08 180.84 270.76 181.60 C 269.57 181.65 268.38 181.73 267.20 181.85 C 267.87 180.91 268.51 179.94 269.17 178.99 Z" />
</g>
<g id="#64514ebe">
<path fill="#64514e" opacity="0.75" d=" M 310.25 155.04 C 311.57 154.77 312.92 154.57 314.27 154.36 L 314.81 154.27 C 314.62 160.17 315.42 166.19 314.24 172.01 L 314.25 171.40 C 314.27 170.97 314.30 170.11 314.32 169.69 C 314.37 168.30 314.44 166.91 314.51 165.52 C 314.75 161.86 314.36 158.20 313.94 154.56 C 313.14 154.68 311.54 154.92 310.75 155.03 L 310.25 155.04 Z" />
</g>
<g id="#2c3e48ff">
<path fill="#2c3e48" opacity="1.00" d=" M 310.75 155.03 C 311.54 154.92 313.14 154.68 313.94 154.56 C 314.36 158.20 314.75 161.86 314.51 165.52 C 313.84 165.97 312.50 166.88 311.83 167.34 L 313.87 168.50 C 312.69 168.63 311.52 168.70 310.34 168.68 C 310.52 164.13 310.33 159.57 310.75 155.03 Z" />
<path fill="#2c3e48" opacity="1.00" d=" M 503.57 193.76 C 505.18 193.75 506.80 193.74 508.43 193.74 C 508.21 198.47 508.59 203.21 508.19 207.93 C 507.51 208.17 506.16 208.64 505.48 208.88 L 504.63 208.79 C 504.78 210.27 504.94 211.75 505.11 213.23 C 502.09 207.15 503.44 200.27 503.57 193.76 M 504.16 205.45 C 503.43 206.71 505.23 209.11 506.51 207.68 C 508.06 206.21 505.53 203.96 504.16 205.45 Z" />
<path fill="#2c3e48" opacity="1.00" d=" M 567.97 199.19 C 569.07 197.23 570.51 195.13 572.97 194.88 C 576.04 194.25 578.32 196.80 579.72 199.18 C 575.80 199.29 571.88 199.29 567.97 199.19 Z" />
<path fill="#2c3e48" opacity="1.00" d=" M 121.42 202.43 C 121.75 200.51 124.51 199.62 125.80 201.11 C 127.21 202.16 126.25 203.98 126.11 205.37 C 125.34 203.96 124.55 202.57 123.73 201.21 C 123.37 202.77 123.28 204.38 123.44 205.98 C 122.54 204.98 120.94 204.00 121.42 202.43 Z" />
</g>
<g id="#ffe1cfff">
<path fill="#ffe1cf" opacity="1.00" d=" M 270.95 160.97 C 272.71 160.01 275.22 160.51 274.24 163.01 C 274.13 166.34 268.84 163.48 270.95 160.97 Z" />
</g>
<g id="#ffd282ff">
<path fill="#ffd282" opacity="1.00" d=" M 93.17 187.08 C 101.02 174.35 115.03 165.64 129.96 164.41 C 143.83 163.09 158.15 168.12 168.09 177.89 C 174.73 184.25 179.44 192.58 181.57 201.52 C 177.17 199.55 172.70 197.77 168.39 195.62 C 163.33 193.26 158.53 190.20 153.04 188.91 C 141.09 188.00 129.08 189.05 117.12 188.36 C 118.69 189.09 120.25 189.83 121.80 190.60 C 120.03 191.28 118.27 191.98 116.50 192.66 C 115.35 201.73 114.88 210.86 114.08 219.96 C 113.75 225.00 112.85 230.04 113.39 235.10 C 125.59 241.50 138.04 247.44 150.33 253.67 C 151.99 254.57 153.49 255.72 154.99 256.86 C 144.09 261.81 131.41 262.86 119.95 259.20 C 105.84 254.92 94.06 243.78 88.94 229.96 C 83.61 216.04 85.18 199.68 93.17 187.08 Z" />
<path fill="#ffd282" opacity="1.00" d=" M 681.27 273.42 C 684.32 269.40 687.84 265.77 691.02 261.85 C 700.83 262.05 710.74 261.06 720.49 262.39 C 722.62 266.44 725.21 270.22 727.51 274.17 C 726.03 274.25 724.55 274.33 723.09 274.42 C 722.92 276.16 722.76 277.90 722.65 279.66 C 722.60 280.17 722.52 281.20 722.47 281.71 C 721.13 281.56 719.80 281.40 718.48 281.23 C 718.38 278.90 718.27 276.56 718.17 274.23 C 716.59 274.29 715.03 274.35 713.46 274.41 C 713.45 276.46 713.42 278.50 713.42 280.55 C 712.64 281.00 711.86 281.45 711.10 281.91 C 710.55 281.57 709.46 280.90 708.92 280.56 L 708.91 280.07 C 708.88 278.15 708.85 276.23 708.83 274.32 C 707.25 274.32 705.67 274.32 704.11 274.32 C 703.98 276.64 703.87 278.97 703.76 281.30 C 702.30 281.30 700.85 281.30 699.40 281.27 C 699.40 278.97 699.40 276.67 699.41 274.37 C 697.77 274.36 696.14 274.36 694.52 274.36 C 694.51 276.66 694.51 278.97 694.52 281.27 C 692.96 281.28 691.40 281.28 689.85 281.21 C 689.89 278.91 689.92 276.62 689.96 274.33 C 688.34 274.32 686.73 274.32 685.13 274.32 C 685.07 276.16 685.01 278.00 685.01 279.84 C 683.72 280.28 682.52 280.91 681.31 281.50 C 680.48 278.94 679.44 275.79 681.27 273.42 Z" />
<path fill="#ffd282" opacity="1.00" d=" M 577.13 310.11 C 589.89 306.66 604.02 308.85 615.18 315.92 C 626.18 322.76 634.35 334.23 636.84 346.97 C 636.92 348.73 636.93 350.50 636.96 352.27 C 628.10 350.44 619.52 347.53 610.69 345.60 C 606.77 346.14 602.97 347.26 599.13 348.19 C 598.29 344.84 597.33 341.52 596.21 338.26 C 595.51 338.44 594.11 338.81 593.41 339.00 C 592.19 339.31 590.98 339.63 589.77 339.96 C 588.54 340.28 587.32 340.61 586.11 340.94 C 585.46 338.34 585.18 335.57 583.83 333.22 C 581.83 330.53 578.35 332.09 575.74 332.74 C 569.56 334.79 563.06 335.90 557.14 338.67 C 557.57 339.37 558.44 340.76 558.88 341.46 C 566.23 339.37 573.55 337.17 580.93 335.16 C 583.98 346.90 586.76 358.70 589.83 370.43 C 586.36 371.20 582.40 372.96 581.93 376.98 C 580.91 381.47 584.75 384.88 588.65 386.09 C 596.76 390.94 605.66 394.28 613.66 399.30 C 603.18 405.15 590.57 407.28 578.83 404.51 C 563.33 401.18 549.93 389.65 544.25 374.86 C 539.03 361.71 539.98 346.26 546.81 333.86 C 553.09 322.24 564.31 313.38 577.13 310.11 Z" />
</g>
<g id="#97e2daff">
<path fill="#97e2da" opacity="1.00" d=" M 280.44 166.92 L 281.22 166.98 C 281.52 167.90 281.82 168.82 282.13 169.74 C 281.09 170.76 280.05 171.78 279.01 172.80 C 276.99 173.32 274.99 173.88 273.00 174.48 C 272.63 173.68 272.26 172.88 271.89 172.09 C 272.66 171.44 273.44 170.80 274.22 170.15 C 275.36 170.07 276.51 170.00 277.66 169.92 C 278.57 168.91 279.48 167.90 280.44 166.92 Z" />
</g>
<g id="#43c6c7ff">
<path fill="#43c6c7" opacity="1.00" d=" M 692.91 167.20 C 696.16 167.41 699.42 167.30 702.68 167.34 C 708.75 170.27 714.70 173.44 720.72 176.49 C 718.62 176.60 716.50 176.38 714.57 175.55 C 707.36 172.73 700.23 169.73 692.91 167.20 Z" />
</g>
<g id="#ec6c53ff">
<path fill="#ec6c53" opacity="1.00" d=" M 287.02 169.53 C 294.42 169.31 301.81 168.54 309.23 168.94 L 309.22 169.88 C 310.91 169.82 312.61 169.76 314.32 169.69 C 314.30 170.11 314.27 170.97 314.25 171.40 C 311.58 188.71 298.32 203.79 281.66 209.07 C 273.40 202.91 263.62 199.34 254.76 194.22 C 266.77 188.57 278.56 182.46 290.52 176.69 C 289.37 174.29 288.21 171.90 287.02 169.53 Z" />
<path fill="#ec6c53" opacity="1.00" d=" M 720.49 262.39 C 730.77 266.87 740.43 272.71 750.79 277.03 C 754.23 295.61 745.64 315.69 729.70 325.88 C 713.74 319.32 697.56 313.29 681.46 307.08 C 696.55 307.25 711.65 307.15 726.75 307.14 C 726.76 306.41 726.79 304.97 726.81 304.24 C 726.27 304.24 725.20 304.24 724.67 304.23 C 724.53 296.76 724.88 289.28 724.51 281.82 C 728.64 281.52 727.72 277.08 727.51 274.17 C 725.21 270.22 722.62 266.44 720.49 262.39 Z" />
</g>
<g id="#31c5b5ff">
<path fill="#31c5b5" opacity="1.00" d=" M 264.92 170.47 C 265.94 170.66 266.96 170.85 268.00 171.04 C 267.64 171.50 266.93 172.41 266.58 172.87 C 266.96 173.43 267.73 174.55 268.12 175.10 C 269.32 175.60 270.52 176.11 271.72 176.63 C 271.04 177.36 270.36 178.08 269.66 178.79 L 269.70 177.08 C 269.40 177.33 268.79 177.83 268.49 178.08 C 266.54 177.11 264.62 176.01 263.41 174.15 C 263.91 172.92 264.42 171.69 264.92 170.47 Z" />
<path fill="#31c5b5" opacity="1.00" d=" M 258.31 180.27 C 259.59 179.07 260.85 177.85 262.15 176.67 C 263.08 178.69 261.85 180.33 260.59 181.82 C 259.35 181.75 258.12 181.69 256.88 181.63 C 256.08 182.41 255.29 183.19 254.50 183.97 C 254.03 183.12 253.56 182.27 253.10 181.42 C 254.64 180.36 256.48 180.22 258.31 180.27 Z" />
</g>
<g id="#376ebaff">
<path fill="#376eba" opacity="1.00" d=" M 361.35 187.32 C 362.76 186.56 364.43 186.89 365.97 186.79 C 393.66 186.87 421.36 186.76 449.05 186.84 C 451.33 186.66 453.62 188.62 453.42 190.99 C 453.47 225.34 453.48 259.69 453.42 294.03 C 453.64 296.39 451.38 298.51 449.05 298.27 C 420.67 298.30 392.29 298.29 363.91 298.28 C 361.48 298.58 358.96 296.63 359.20 294.07 C 359.10 260.05 359.19 226.02 359.16 191.99 C 359.05 190.20 359.52 188.10 361.35 187.32 M 429.78 214.64 C 429.53 218.68 429.02 222.69 428.48 226.70 C 411.00 226.71 393.51 226.70 376.03 226.69 C 374.62 226.62 372.86 226.87 372.26 228.35 C 372.10 229.56 372.79 230.64 373.19 231.73 C 376.89 240.09 380.62 248.45 384.16 256.88 C 384.63 258.07 385.45 259.61 387.03 259.28 C 398.33 259.27 409.64 259.36 420.95 259.25 C 422.39 259.19 423.80 259.41 425.17 259.91 C 423.45 260.64 421.60 261.06 420.00 262.02 C 418.16 263.24 417.64 265.50 416.97 267.46 C 412.29 267.49 407.62 267.48 402.94 267.47 C 402.21 265.58 401.81 263.33 400.04 262.10 C 396.56 259.24 390.57 260.72 389.11 265.06 C 387.13 269.47 391.32 274.76 396.00 274.37 C 398.62 274.42 400.51 272.40 402.18 270.66 C 407.37 270.56 412.57 270.55 417.76 270.67 C 419.43 272.42 421.35 274.43 424.00 274.37 C 428.27 274.64 432.25 270.21 431.10 265.98 C 430.70 263.68 428.70 262.30 427.06 260.89 C 428.61 245.96 430.50 231.07 432.36 216.18 C 435.05 214.82 438.57 214.42 440.54 212.07 L 440.13 210.83 C 436.43 211.17 433.21 213.36 429.78 214.64 Z" />
<path fill="#376eba" opacity="1.00" d=" M 375.97 229.89 C 393.11 229.86 410.25 229.93 427.39 229.85 C 427.28 233.54 427.31 237.26 426.66 240.90 C 425.21 241.48 423.57 241.15 422.05 241.26 C 408.37 241.16 394.70 241.29 381.02 241.19 C 379.36 237.41 377.65 233.66 375.97 229.89 Z" />
<path fill="#376eba" opacity="1.00" d=" M 382.31 244.95 C 396.92 244.77 411.54 244.92 426.16 244.87 C 425.67 248.70 425.54 252.58 424.64 256.35 C 412.31 256.19 399.97 256.22 387.63 256.33 C 385.69 252.62 384.04 248.76 382.31 244.95 Z" />
<path fill="#376eba" opacity="1.00" d=" M 393.37 264.47 C 395.48 262.54 399.18 264.27 399.46 266.97 C 399.99 269.77 396.41 272.42 393.96 270.81 C 391.47 269.73 391.09 265.98 393.37 264.47 Z" />
<path fill="#376eba" opacity="1.00" d=" M 423.07 271.03 C 419.67 270.12 419.64 264.83 423.04 263.90 C 425.53 262.73 427.34 265.27 428.56 267.02 C 427.80 269.28 425.88 272.23 423.07 271.03 Z" />
<path fill="#376eba" opacity="1.00" d=" M 359.20 315.01 C 358.90 312.30 361.45 310.28 364.03 310.62 C 392.37 310.62 420.72 310.57 449.06 310.65 C 451.45 310.41 453.67 312.59 453.41 315.00 C 453.53 321.68 453.46 328.37 453.45 335.05 C 453.70 337.21 452.39 339.74 450.01 339.85 C 444.66 340.32 439.27 339.96 433.91 339.99 C 432.19 338.70 430.38 337.53 428.58 336.38 C 427.88 334.52 427.21 332.56 425.85 331.07 C 424.25 330.05 422.36 329.65 420.62 328.96 C 420.68 328.50 420.80 327.59 420.86 327.14 C 422.55 323.90 424.56 320.83 425.86 317.40 C 422.56 318.87 421.35 322.42 419.69 325.32 C 417.72 322.68 416.88 318.35 413.10 317.84 C 415.11 321.80 418.20 325.30 418.95 329.81 C 417.15 331.00 414.76 331.68 413.75 333.74 C 412.71 335.75 413.63 338.02 414.01 340.09 C 397.31 339.94 380.61 340.17 363.92 339.98 C 361.54 340.22 359.09 338.48 359.23 335.95 C 359.07 328.97 359.12 321.98 359.20 315.01 M 386.77 318.15 C 386.77 323.15 386.77 328.16 386.77 333.17 C 390.31 332.97 395.74 334.37 397.27 330.01 C 398.01 328.00 396.34 326.68 395.17 325.37 C 396.35 323.82 397.51 321.73 396.26 319.85 C 393.89 317.14 389.90 318.29 386.77 318.15 M 400.14 318.39 C 399.99 322.14 399.79 325.97 400.51 329.67 C 402.10 334.45 409.91 334.36 411.44 329.57 C 412.15 325.83 411.67 321.97 411.81 318.19 C 411.30 318.16 410.28 318.11 409.77 318.09 C 409.61 321.83 410.18 325.67 409.43 329.36 C 408.34 332.40 403.76 332.52 402.55 329.53 C 401.69 325.73 402.31 321.76 402.12 317.89 C 401.62 318.01 400.63 318.26 400.14 318.39 Z" />
</g>
<g id="#ff7659ff">
<path fill="#ff7659" opacity="1.00" d=" M 117.12 188.36 C 129.08 189.05 141.09 188.00 153.04 188.91 C 153.14 190.12 153.34 191.34 153.55 192.54 C 141.20 192.82 128.85 192.65 116.50 192.66 C 118.27 191.98 120.03 191.28 121.80 190.60 C 120.25 189.83 118.69 189.09 117.12 188.36 Z" />
</g>
<g id="#e8bb77ff">
<path fill="#e8bb77" opacity="1.00" d=" M 153.04 188.91 C 158.53 190.20 163.33 193.26 168.39 195.62 C 172.70 197.77 177.17 199.55 181.57 201.52 C 187.38 223.19 175.48 247.78 154.99 256.86 C 153.49 255.72 151.99 254.57 150.33 253.67 C 138.04 247.44 125.59 241.50 113.39 235.10 C 127.89 234.64 142.40 235.22 156.90 234.89 C 156.62 225.37 155.73 215.88 155.35 206.37 C 154.91 201.75 155.32 196.93 153.55 192.54 C 153.34 191.34 153.14 190.12 153.04 188.91 Z" />
<path fill="#e8bb77" opacity="1.00" d=" M 117.15 324.62 C 122.07 327.56 126.18 332.07 131.82 333.68 L 132.02 333.74 C 137.00 346.80 135.99 362.07 129.22 374.32 C 122.41 386.81 109.91 396.16 95.86 398.69 C 88.10 393.13 78.96 389.96 70.70 385.25 C 81.68 375.73 92.04 365.52 102.90 355.87 C 107.92 351.94 106.02 344.74 107.24 339.21 C 112.52 336.05 115.92 330.58 117.15 324.62 Z" />
<path fill="#e8bb77" opacity="1.00" d=" M 610.69 345.60 C 619.52 347.53 628.10 350.44 636.96 352.27 C 636.93 350.50 636.92 348.73 636.84 346.97 C 641.75 367.04 631.67 389.34 613.66 399.30 C 605.66 394.28 596.76 390.94 588.65 386.09 C 591.34 385.37 594.47 384.44 595.71 381.66 C 597.17 379.23 596.06 376.41 595.63 373.87 C 602.33 372.22 608.98 370.36 615.68 368.70 C 617.49 368.12 619.69 367.86 620.71 366.02 C 619.92 363.44 617.23 364.51 615.37 364.94 C 613.62 358.54 611.98 352.11 610.69 345.60 Z" />
</g>
<g id="#ff9b28ff">
<path fill="#ff9b28" opacity="1.00" d=" M 550.72 196.66 C 553.89 196.65 557.06 196.65 560.24 196.65 C 560.24 198.56 560.24 200.47 560.25 202.39 C 557.08 202.40 553.92 202.40 550.76 202.38 C 550.74 200.47 550.73 198.57 550.72 196.66 Z" />
</g>
<g id="#283c47ff">
<path fill="#283c47" opacity="1.00" d=" M 141.58 202.83 C 142.44 200.96 145.14 199.17 146.63 201.45 C 148.39 203.06 146.38 204.77 145.17 205.88 C 145.32 204.57 145.41 203.25 145.42 201.93 C 143.60 201.74 143.55 203.89 142.77 204.96 C 142.47 204.43 141.88 203.36 141.58 202.83 Z" />
<path fill="#283c47" opacity="1.00" d=" M 103.91 328.49 C 107.94 326.35 112.34 323.02 117.15 324.62 C 115.92 330.58 112.52 336.05 107.24 339.21 C 107.28 338.81 107.37 338.00 107.41 337.60 C 111.31 334.37 114.31 330.15 115.50 325.18 C 112.87 325.92 110.24 326.73 107.80 327.97 C 105.91 329.07 104.10 330.30 102.36 331.62 C 101.24 333.41 100.48 335.40 99.50 337.28 C 99.21 335.24 99.32 333.18 100.17 331.29 C 101.42 330.36 102.66 329.42 103.91 328.49 Z" />
<path fill="#283c47" opacity="1.00" d=" M 575.74 332.74 C 578.35 332.09 581.83 330.53 583.83 333.22 C 585.18 335.57 585.46 338.34 586.11 340.94 C 586.89 344.65 587.85 348.32 588.88 351.98 C 590.60 358.16 591.97 364.44 593.68 370.63 C 594.24 370.51 595.36 370.25 595.92 370.12 C 602.44 368.56 608.93 366.85 615.37 364.94 C 617.23 364.51 619.92 363.44 620.71 366.02 C 619.69 367.86 617.49 368.12 615.68 368.70 C 608.98 370.36 602.33 372.22 595.63 373.87 C 596.06 376.41 597.17 379.23 595.71 381.66 C 594.47 384.44 591.34 385.37 588.65 386.09 C 584.75 384.88 580.91 381.47 581.93 376.98 C 582.40 372.96 586.36 371.20 589.83 370.43 C 586.76 358.70 583.98 346.90 580.93 335.16 C 573.55 337.17 566.23 339.37 558.88 341.46 C 558.44 340.76 557.57 339.37 557.14 338.67 C 563.06 335.90 569.56 334.79 575.74 332.74 M 587.21 375.15 C 585.65 376.08 584.85 378.30 585.88 379.90 C 587.04 382.68 591.69 382.52 592.61 379.63 C 594.07 376.54 589.96 373.04 587.21 375.15 Z" />
</g>
<g id="#fedfcdff">
<path fill="#fedfcd" opacity="1.00" d=" M 544.57 199.70 C 545.44 199.76 547.18 199.87 548.06 199.93 C 548.09 200.71 548.16 202.26 548.20 203.04 C 547.13 203.36 546.07 203.68 545.01 204.00 C 544.86 202.56 544.71 201.13 544.57 199.70 Z" />
</g>
<g id="#223540ff">
<path fill="#223540" opacity="1.00" d=" M 568.40 203.30 C 571.95 203.13 575.52 203.12 579.08 203.26 C 577.70 204.68 576.19 206.35 574.04 206.34 C 571.70 206.56 569.91 204.80 568.40 203.30 Z" />
</g>
<g id="#fffdffff">
<path fill="#fffdff" opacity="1.00" d=" M 504.16 205.45 C 505.53 203.96 508.06 206.21 506.51 207.68 C 505.23 209.11 503.43 206.71 504.16 205.45 Z" />
<path fill="#fffdff" opacity="1.00" d=" M 685.13 274.32 C 686.73 274.32 688.34 274.32 689.96 274.33 C 689.92 276.62 689.89 278.91 689.85 281.21 C 688.59 281.13 687.33 281.05 686.08 280.96 C 685.81 280.68 685.28 280.12 685.01 279.84 C 685.01 278.00 685.07 276.16 685.13 274.32 Z" />
<path fill="#fffdff" opacity="1.00" d=" M 386.77 318.15 C 389.90 318.29 393.89 317.14 396.26 319.85 C 397.51 321.73 396.35 323.82 395.17 325.37 C 396.34 326.68 398.01 328.00 397.27 330.01 C 395.74 334.37 390.31 332.97 386.77 333.17 C 386.77 328.16 386.77 323.15 386.77 318.15 M 388.83 319.45 C 388.84 321.31 388.86 323.17 388.88 325.03 C 391.01 324.84 395.02 325.24 394.76 321.98 C 394.84 319.07 390.80 319.65 388.83 319.45 M 388.93 326.24 C 388.91 328.12 388.90 330.01 388.89 331.90 C 391.26 331.72 394.90 332.20 395.42 329.01 C 395.02 325.73 391.26 326.40 388.93 326.24 Z" />
<path fill="#fffdff" opacity="1.00" d=" M 400.14 318.39 C 400.63 318.26 401.62 318.01 402.12 317.89 C 402.31 321.76 401.69 325.73 402.55 329.53 C 403.76 332.52 408.34 332.40 409.43 329.36 C 410.18 325.67 409.61 321.83 409.77 318.09 C 410.28 318.11 411.30 318.16 411.81 318.19 C 411.67 321.97 412.15 325.83 411.44 329.57 C 409.91 334.36 402.10 334.45 400.51 329.67 C 399.79 325.97 399.99 322.14 400.14 318.39 Z" />
<path fill="#fffdff" opacity="1.00" d=" M 413.10 317.84 C 416.88 318.35 417.72 322.68 419.69 325.32 C 421.35 322.42 422.56 318.87 425.86 317.40 C 424.56 320.83 422.55 323.90 420.86 327.14 C 420.42 327.92 419.96 328.70 419.49 329.47 L 418.95 329.81 C 418.20 325.30 415.11 321.80 413.10 317.84 Z" />
</g>
<g id="#ffc683ff">
<path fill="#ffc683" opacity="1.00" d=" M 543.50 216.89 C 545.06 217.45 549.52 215.90 548.71 218.72 C 546.72 218.97 543.29 220.04 543.50 216.89 Z" />
</g>
<g id="#ffc582ff">
<path fill="#ffc582" opacity="1.00" d=" M 550.59 216.95 C 552.47 216.99 554.37 217.06 556.26 217.17 C 555.88 219.88 550.35 219.99 550.59 216.95 Z" />
</g>
<g id="#ffbe74ff">
<path fill="#ffbe74" opacity="1.00" d=" M 558.69 216.90 C 560.24 217.39 563.02 216.06 563.67 218.10 C 562.49 219.50 560.33 218.71 558.75 219.09 C 558.73 218.54 558.70 217.45 558.69 216.90 Z" />
</g>
<g id="#ffc786ff">
<path fill="#ffc786" opacity="1.00" d=" M 565.43 216.92 C 567.09 217.36 570.72 215.91 570.82 218.62 C 568.82 219.01 565.32 220.10 565.43 216.92 Z" />
</g>
<g id="#e0ae89ff">
<path fill="#e0ae89" opacity="1.00" d=" M 486.77 241.30 C 490.80 240.49 496.04 240.84 498.18 244.94 C 500.29 248.76 499.16 253.33 497.02 256.86 C 494.39 261.50 490.72 265.44 486.81 269.02 C 486.70 259.78 486.77 250.54 486.77 241.30 Z" />
<path fill="#e0ae89" opacity="1.00" d=" M 486.80 282.21 C 488.63 282.86 490.70 283.34 491.94 285.00 C 498.28 292.33 505.34 298.98 511.99 306.03 C 508.86 310.09 504.28 313.38 498.97 313.39 C 494.80 313.77 490.97 311.87 486.95 311.20 C 486.53 301.55 486.83 291.87 486.80 282.21 Z" />
<path fill="#e0ae89" opacity="1.00" d=" M 486.77 359.32 C 486.73 345.28 486.79 331.23 486.73 317.19 C 491.69 321.96 497.46 325.77 502.68 330.24 C 502.92 336.55 503.23 342.86 503.90 349.13 C 503.44 347.19 502.92 345.26 502.43 343.34 C 500.91 343.58 499.38 343.82 497.88 344.06 C 497.79 349.28 497.07 354.60 498.09 359.76 C 500.00 362.41 503.14 363.71 505.74 365.55 C 506.64 368.87 502.23 369.25 500.05 368.50 C 494.89 366.76 490.54 363.11 486.77 359.32 Z" />
<path fill="#e0ae89" opacity="1.00" d=" M 486.67 363.51 C 486.98 362.66 487.34 361.83 487.74 361.03 C 490.23 363.61 492.88 366.07 495.89 368.05 C 495.79 371.67 495.60 375.28 495.30 378.89 C 493.67 378.67 492.06 378.45 490.45 378.23 C 489.96 381.67 489.07 385.30 490.36 388.68 C 491.03 390.93 493.12 392.21 494.83 393.63 C 494.56 394.93 494.38 396.23 494.21 397.55 C 490.38 399.07 487.70 395.30 487.04 392.01 C 486.86 382.51 486.69 373.01 486.67 363.51 Z" />
<path fill="#e0ae89" opacity="1.00" d=" M 342.83 398.32 C 363.12 398.27 383.42 398.37 403.71 398.26 C 394.67 411.50 384.92 424.30 374.01 436.06 C 367.68 442.73 360.98 449.28 352.83 453.73 C 349.19 468.53 345.63 483.37 341.20 497.96 C 332.14 497.95 323.08 497.96 314.03 497.95 C 322.38 481.22 329.48 463.82 334.76 445.87 C 339.27 430.43 342.77 414.47 342.83 398.32 Z" />
<path fill="#e0ae89" opacity="1.00" d=" M 411.08 436.96 C 416.46 433.87 423.00 432.69 429.06 434.25 C 434.01 435.31 438.20 438.32 442.26 441.18 C 445.60 446.79 447.29 453.15 449.81 459.13 C 454.47 472.15 460.51 484.67 464.51 497.92 C 461.34 497.97 458.17 497.96 455.00 497.95 C 448.25 484.50 438.46 472.90 429.32 461.03 C 430.10 459.15 431.53 457.33 431.44 455.22 C 429.66 451.38 426.26 448.60 423.23 445.76 C 419.41 442.55 415.79 438.85 411.08 436.96 Z" />
</g>
<g id="#e6bb9bff">
<path fill="#e6bb9b" opacity="1.00" d=" M 286.34 357.09 C 298.08 325.96 307.19 293.26 307.75 259.79 C 307.94 267.21 307.71 274.65 306.77 282.02 C 306.38 284.92 306.39 287.86 306.60 290.77 C 308.45 288.43 310.29 285.92 310.81 282.90 C 312.25 275.45 312.40 267.68 310.64 260.26 C 317.50 261.75 322.76 267.09 325.72 273.25 C 330.63 284.76 330.91 297.71 329.26 309.94 C 328.69 315.08 325.95 319.80 326.19 325.06 C 326.21 331.03 326.27 337.01 326.18 342.98 C 326.21 345.31 326.02 347.79 327.11 349.94 C 334.59 365.18 341.04 381.32 342.83 398.32 C 342.77 414.47 339.27 430.43 334.76 445.87 C 329.48 463.82 322.38 481.22 314.03 497.95 C 292.41 497.95 270.79 497.97 249.17 497.95 C 260.17 480.29 270.66 462.25 279.20 443.25 C 282.31 435.79 285.70 428.19 286.25 420.02 C 285.11 408.02 283.51 396.04 283.20 383.97 C 282.58 374.96 282.15 365.39 286.34 357.09 Z" />
<path fill="#e6bb9b" opacity="1.00" d=" M 428.58 336.38 C 430.38 337.53 432.19 338.70 433.91 339.99 C 435.44 341.63 436.38 343.68 437.11 345.78 C 439.09 351.45 441.16 357.10 443.20 362.75 C 447.47 374.59 451.76 386.43 456.02 398.27 C 458.74 405.79 461.46 413.31 464.21 420.82 C 464.03 416.85 463.67 412.00 467.26 409.33 C 478.11 407.83 490.48 412.00 495.76 422.17 C 495.58 419.36 494.23 415.88 496.44 413.53 C 502.99 412.17 510.07 412.73 516.15 415.62 C 520.86 417.85 524.27 422.13 526.02 426.97 C 526.94 425.32 527.91 423.41 529.97 423.01 C 536.51 421.26 543.58 424.02 548.06 428.92 C 554.45 435.62 558.03 444.41 560.98 453.04 C 565.65 467.60 568.18 482.76 569.65 497.95 C 534.60 497.94 499.55 498.00 464.51 497.92 C 460.51 484.67 454.47 472.15 449.81 459.13 C 447.29 453.15 445.60 446.79 442.26 441.18 C 436.78 427.07 432.49 412.49 427.49 398.19 C 423.48 386.39 419.56 374.56 415.55 362.75 C 413.28 356.74 412.16 349.89 414.74 343.78 C 416.39 348.07 417.55 352.53 419.13 356.85 C 421.77 364.13 435.54 359.53 432.87 351.99 C 431.64 346.74 429.74 341.66 428.58 336.38 M 464.19 421.83 C 464.61 424.27 465.12 426.75 466.27 428.98 L 467.11 428.83 C 467.78 426.16 465.79 423.76 464.19 421.83 Z" />
</g>
<g id="#d2d2d3ff">
<path fill="#d2d2d3" opacity="1.00" d=" M 307.75 259.79 C 308.71 259.95 309.67 260.10 310.64 260.26 C 312.40 267.68 312.25 275.45 310.81 282.90 C 310.29 285.92 308.45 288.43 306.60 290.77 C 306.39 287.86 306.38 284.92 306.77 282.02 C 307.71 274.65 307.94 267.21 307.75 259.79 Z" />
</g>
<g id="#cdecebff">
<path fill="#cdeceb" opacity="1.00" d=" M 707.06 281.21 C 707.53 280.92 708.45 280.35 708.91 280.07 L 708.92 280.56 C 708.95 288.01 708.93 295.45 708.93 302.89 C 701.10 302.91 693.27 302.86 685.44 302.93 C 685.65 295.61 685.08 288.25 686.08 280.96 C 687.33 281.05 688.59 281.13 689.85 281.21 C 691.40 281.28 692.96 281.28 694.52 281.27 C 696.14 281.26 697.76 281.26 699.40 281.27 C 700.85 281.30 702.30 281.30 703.76 281.30 C 704.59 281.27 706.24 281.23 707.06 281.21 Z" />
<path fill="#cdeceb" opacity="1.00" d=" M 713.42 280.55 C 715.10 280.79 716.78 281.01 718.48 281.23 C 719.80 281.40 721.13 281.56 722.47 281.71 C 722.10 288.76 722.43 295.83 722.31 302.89 C 718.56 302.89 714.82 302.90 711.08 302.90 C 711.08 295.90 711.06 288.90 711.10 281.91 C 711.86 281.45 712.64 281.00 713.42 280.55 Z" />
</g>
<g id="#0096a1ff">
<path fill="#0096a1" opacity="1.00" d=" M 722.47 281.71 C 722.52 281.20 722.60 280.17 722.65 279.66 C 723.11 280.20 724.05 281.28 724.51 281.82 C 724.88 289.28 724.53 296.76 724.67 304.23 C 710.97 304.12 697.27 304.67 683.58 303.94 C 683.70 297.56 683.51 291.18 683.62 284.80 C 683.51 283.33 683.91 281.62 685.32 280.90 C 685.49 288.24 685.19 295.59 685.44 302.93 C 693.27 302.86 701.10 302.91 708.93 302.89 C 708.93 295.45 708.95 288.01 708.92 280.56 C 709.46 280.90 710.55 281.57 711.10 281.91 C 711.06 288.90 711.08 295.90 711.08 302.90 C 714.82 302.90 718.56 302.89 722.31 302.89 C 722.43 295.83 722.10 288.76 722.47 281.71 Z" />
</g>
<g id="#eeedecff">
<path fill="#eeedec" opacity="1.00" d=" M 208.47 296.74 C 221.90 294.69 236.14 298.58 246.55 307.34 C 258.19 316.84 265.02 332.00 264.20 347.02 C 263.83 359.48 258.19 371.63 249.10 380.13 C 241.08 387.98 230.07 392.44 218.96 393.29 C 207.19 394.09 195.18 390.46 185.90 383.17 C 174.49 374.45 167.40 360.38 167.16 346.01 C 166.76 333.09 171.81 320.11 180.90 310.91 C 188.20 303.33 198.06 298.29 208.47 296.74 M 219.25 318.14 C 217.83 319.47 216.80 321.15 215.69 322.74 C 214.44 320.93 213.47 318.36 210.99 318.04 C 208.81 317.46 206.42 318.81 205.86 321.00 C 205.86 323.52 207.58 325.76 209.61 327.09 C 203.19 327.43 196.75 327.26 190.32 327.27 C 190.32 331.09 190.31 334.91 190.30 338.73 C 192.36 338.70 194.42 338.66 196.49 338.63 C 196.77 348.57 196.63 358.52 196.55 368.47 C 201.59 368.74 206.64 368.51 211.69 368.68 C 214.55 368.83 217.43 368.83 220.30 368.69 C 224.83 368.55 229.36 368.60 233.89 368.65 C 234.16 358.68 233.61 348.69 234.07 338.72 C 235.97 338.71 237.88 338.70 239.79 338.70 C 239.79 334.89 239.79 331.09 239.78 327.28 C 233.62 327.36 227.46 327.18 221.30 327.32 C 223.47 325.31 226.39 322.73 225.55 319.42 C 224.63 316.89 221.12 316.42 219.25 318.14 Z" />
<path fill="#eeedec" opacity="1.00" d=" M 207.34 321.32 C 207.77 319.25 210.53 318.84 212.01 320.04 C 214.18 321.63 214.32 324.56 214.97 326.96 C 211.58 327.01 207.75 324.96 207.34 321.32 Z" />
<path fill="#eeedec" opacity="1.00" d=" M 216.83 327.15 C 216.62 323.46 219.23 317.21 223.83 319.09 C 225.47 323.44 220.26 326.11 216.83 327.15 Z" />
</g>
<g id="#ffd280ff">
<path fill="#ffd280" opacity="1.00" d=" M 52.40 316.42 C 62.12 306.65 76.19 301.44 89.93 302.48 C 108.37 303.59 125.56 316.27 131.82 333.68 C 126.18 332.07 122.07 327.56 117.15 324.62 C 112.34 323.02 107.94 326.35 103.91 328.49 C 97.63 328.59 91.31 328.41 85.10 329.39 C 83.64 329.53 82.54 330.56 81.49 331.47 C 71.81 340.47 62.09 349.41 52.37 358.36 C 51.02 359.77 48.48 361.58 49.82 363.79 C 52.83 368.14 56.91 371.62 60.36 375.62 C 63.66 378.96 66.28 383.24 70.70 385.25 C 78.96 389.96 88.10 393.13 95.86 398.69 C 83.89 400.97 71.09 398.70 60.78 392.15 C 47.12 383.71 38.12 368.10 38.04 351.99 C 37.60 338.82 42.98 325.62 52.40 316.42 Z" />
<path fill="#ffd280" opacity="1.00" d=" M 107.80 327.97 C 110.24 326.73 112.87 325.92 115.50 325.18 C 114.31 330.15 111.31 334.37 107.41 337.60 C 107.60 334.39 107.70 331.18 107.80 327.97 Z" />
</g>
<g id="#00b9a4ff">
<path fill="#00b9a4" opacity="1.00" d=" M 681.46 307.08 C 681.04 305.27 681.64 304.04 683.58 303.94 C 697.27 304.67 710.97 304.12 724.67 304.23 C 725.20 304.24 726.27 304.24 726.81 304.24 C 726.79 304.97 726.76 306.41 726.75 307.14 C 711.65 307.15 696.55 307.25 681.46 307.08 Z" />
</g>
<g id="#366dbaff">
<path fill="#366dba" opacity="1.00" d=" M 388.83 319.45 C 390.80 319.65 394.84 319.07 394.76 321.98 C 395.02 325.24 391.01 324.84 388.88 325.03 C 388.86 323.17 388.84 321.31 388.83 319.45 Z" />
</g>
<g id="#326ab8ff">
<path fill="#326ab8" opacity="1.00" d=" M 388.93 326.24 C 391.26 326.40 395.02 325.73 395.42 329.01 C 394.90 332.20 391.26 331.72 388.89 331.90 C 388.90 330.01 388.91 328.12 388.93 326.24 Z" />
</g>
<g id="#d2d2d2ff">
<path fill="#d2d2d2" opacity="1.00" d=" M 419.49 329.47 C 419.96 328.70 420.42 327.92 420.86 327.14 C 420.80 327.59 420.68 328.50 420.62 328.96 C 422.36 329.65 424.25 330.05 425.85 331.07 C 427.21 332.56 427.88 334.52 428.58 336.38 C 429.74 341.66 431.64 346.74 432.87 351.99 C 435.54 359.53 421.77 364.13 419.13 356.85 C 417.55 352.53 416.39 348.07 414.74 343.78 C 414.51 342.54 414.28 341.31 414.01 340.09 C 413.63 338.02 412.71 335.75 413.75 333.74 C 414.76 331.68 417.15 331.00 418.95 329.81 L 419.49 329.47 Z" />
<path fill="#d2d2d2" opacity="1.00" d=" M 497.88 344.06 C 499.38 343.82 500.91 343.58 502.43 343.34 C 502.92 345.26 503.44 347.19 503.90 349.13 C 504.90 354.54 505.59 360.05 505.74 365.55 C 503.14 363.71 500.00 362.41 498.09 359.76 C 497.07 354.60 497.79 349.28 497.88 344.06 Z" />
<path fill="#d2d2d2" opacity="1.00" d=" M 490.45 378.23 C 492.06 378.45 493.67 378.67 495.30 378.89 C 494.97 383.80 496.10 388.79 494.83 393.63 C 493.12 392.21 491.03 390.93 490.36 388.68 C 489.07 385.30 489.96 381.67 490.45 378.23 Z" />
<path fill="#d2d2d2" opacity="1.00" d=" M 409.75 436.68 L 411.08 436.96 C 415.79 438.85 419.41 442.55 423.23 445.76 C 426.26 448.60 429.66 451.38 431.44 455.22 C 431.53 457.33 430.10 459.15 429.32 461.03 C 423.73 454.17 418.07 447.35 412.26 440.66 C 411.20 439.49 410.31 438.16 409.75 436.68 Z" />
</g>
<g id="#00b4b4ff">
<path fill="#00b4b4" opacity="1.00" d=" M 102.36 331.62 C 104.10 330.30 105.91 329.07 107.80 327.97 C 107.70 331.18 107.60 334.39 107.41 337.60 C 107.37 338.00 107.28 338.81 107.24 339.21 C 106.02 344.74 107.92 351.94 102.90 355.87 C 92.04 365.52 81.68 375.73 70.70 385.25 C 66.28 383.24 63.66 378.96 60.36 375.62 C 56.91 371.62 52.83 368.14 49.82 363.79 C 48.48 361.58 51.02 359.77 52.37 358.36 C 62.09 349.41 71.81 340.47 81.49 331.47 C 82.54 330.56 83.64 329.53 85.10 329.39 C 91.31 328.41 97.63 328.59 103.91 328.49 C 102.66 329.42 101.42 330.36 100.17 331.29 C 98.60 332.45 96.11 333.61 96.66 336.03 C 97.01 339.35 101.87 340.65 103.63 337.67 C 105.42 335.65 103.44 333.37 102.36 331.62 M 78.08 338.17 C 70.39 345.46 62.49 352.52 54.78 359.78 C 53.44 360.82 52.51 362.82 53.70 364.34 C 58.70 369.85 63.46 375.73 69.02 380.67 C 71.22 381.51 72.84 379.53 74.34 378.29 C 82.73 370.36 91.34 362.67 99.72 354.74 C 101.18 353.63 101.45 351.27 100.11 349.98 C 94.85 344.37 90.12 338.12 84.03 333.38 C 81.92 334.81 79.92 336.41 78.08 338.17 Z" />
</g>
<g id="#ffc5a7ff">
<path fill="#ffc5a7" opacity="1.00" d=" M 593.41 339.00 C 594.11 338.81 595.51 338.44 596.21 338.26 C 597.33 341.52 598.29 344.84 599.13 348.19 C 596.37 348.88 593.59 349.56 591.01 350.76 C 590.48 351.07 589.41 351.68 588.88 351.98 C 587.85 348.32 586.89 344.65 586.11 340.94 C 587.32 340.61 588.54 340.28 589.77 339.96 C 590.11 341.26 590.45 342.56 590.79 343.87 C 592.03 343.63 593.27 343.38 594.52 343.15 C 594.15 341.76 593.77 340.37 593.41 339.00 Z" />
<path fill="#ffc5a7" opacity="1.00" d=" M 587.21 375.15 C 589.96 373.04 594.07 376.54 592.61 379.63 C 591.69 382.52 587.04 382.68 585.88 379.90 C 584.85 378.30 585.65 376.08 587.21 375.15 Z" />
</g>
<g id="#203645ff">
<path fill="#203645" opacity="1.00" d=" M 589.77 339.96 C 590.98 339.63 592.19 339.31 593.41 339.00 C 593.77 340.37 594.15 341.76 594.52 343.15 C 593.27 343.38 592.03 343.63 590.79 343.87 C 590.45 342.56 590.11 341.26 589.77 339.96 Z" />
</g>
<g id="#ffda85ff">
<path fill="#ffda85" opacity="1.00" d=" M 588.88 351.98 C 589.41 351.68 590.48 351.07 591.01 350.76 C 592.69 357.20 594.32 363.66 595.92 370.12 C 595.36 370.25 594.24 370.51 593.68 370.63 C 591.97 364.44 590.60 358.16 588.88 351.98 Z" />
</g>
<g id="#ffd9b7ff">
<path fill="#ffd9b7" opacity="1.00" d=" M 55.68 361.66 C 57.14 361.85 58.45 362.53 59.38 363.67 C 62.09 366.59 64.65 369.66 67.46 372.51 C 69.04 374.23 71.08 375.84 71.30 378.36 C 68.13 376.77 66.06 373.80 63.68 371.29 C 60.93 368.15 57.65 365.40 55.68 361.66 Z" />
</g>
<g id="#c39f84d9">
<path fill="#c39f84" opacity="0.85" d=" M 464.19 421.83 C 465.79 423.76 467.78 426.16 467.11 428.83 L 466.27 428.98 C 465.12 426.75 464.61 424.27 464.19 421.83 Z" />
</g>
</svg>
