<?xml version="1.0" encoding="UTF-8" ?>
<!DOCTYPE svg PUBLIC "-//W3C//DTD SVG 1.1//EN" "http://www.w3.org/Graphics/SVG/1.1/DTD/svg11.dtd">
<svg width="837pt" height="623pt" viewBox="0 0 837 623" version="1.1" xmlns="http://www.w3.org/2000/svg">
<g id="#000000ff">
<path fill="#000000" opacity="1.00" d=" M 368.27 20.27 C 374.83 14.19 385.43 13.24 392.97 18.06 C 397.43 20.69 400.39 25.16 402.21 29.91 C 406.71 29.13 411.62 29.72 415.25 32.70 C 419.47 35.80 421.33 41.09 421.28 46.19 C 427.17 47.54 432.68 50.86 435.99 56.00 C 439.86 61.83 440.97 69.54 438.57 76.14 C 442.86 78.13 448.10 77.08 452.63 78.67 C 452.75 79.20 452.98 80.28 453.09 80.82 C 448.80 80.19 444.35 80.06 440.20 78.80 L 439.34 77.54 C 438.96 77.74 438.20 78.14 437.82 78.34 C 436.45 85.15 430.09 89.92 423.52 91.22 C 415.79 78.89 399.17 73.36 385.58 78.54 C 379.11 80.88 373.42 85.33 369.70 91.14 C 364.46 91.36 359.19 91.56 353.96 91.05 C 347.89 90.38 342.38 87.28 337.98 83.16 C 334.08 83.96 330.23 84.99 326.27 85.36 C 326.48 84.86 326.91 83.88 327.13 83.39 C 330.03 82.26 333.15 81.87 336.17 81.18 C 332.87 76.42 330.44 70.92 330.30 65.06 C 329.59 54.04 336.25 43.00 346.36 38.55 C 350.92 36.34 356.08 35.97 361.07 36.30 C 361.35 30.29 363.62 24.24 368.27 20.27 Z" />
<path fill="#000000" opacity="1.00" d=" M 285.50 65.55 C 290.17 58.74 300.13 56.72 307.24 60.75 C 313.01 63.82 316.51 70.56 315.80 77.05 C 315.63 80.55 313.68 83.57 312.08 86.57 C 311.59 86.04 311.10 85.51 310.63 84.98 C 311.86 83.49 312.82 81.82 313.68 80.09 C 312.18 79.98 310.69 79.89 309.20 79.80 C 308.97 82.01 308.74 84.22 308.50 86.43 C 309.24 86.96 309.97 87.51 310.70 88.07 C 305.05 92.06 297.25 93.76 291.01 90.08 C 282.28 85.73 279.50 73.21 285.50 65.55 M 295.28 60.12 C 295.68 62.69 296.43 65.18 297.20 67.65 C 298.88 66.96 300.57 66.24 302.24 65.51 C 300.40 63.17 298.24 60.94 295.28 60.12 M 299.86 60.01 C 301.00 61.48 302.17 62.91 303.35 64.34 C 304.36 63.58 305.36 62.82 306.37 62.06 C 304.24 61.24 302.07 60.54 299.86 60.01 M 290.29 69.46 C 292.12 69.11 293.96 68.74 295.79 68.37 C 295.09 66.01 294.39 63.64 293.74 61.26 C 289.89 62.03 290.89 66.57 290.29 69.46 M 304.57 65.64 C 305.68 67.63 306.74 69.66 307.76 71.71 C 309.62 71.09 311.49 70.47 313.35 69.83 C 311.96 67.30 310.40 64.76 307.97 63.11 C 306.77 63.86 305.68 64.77 304.57 65.64 M 285.04 69.45 C 286.27 69.52 287.51 69.58 288.75 69.64 C 288.89 67.73 289.01 65.81 289.13 63.89 C 287.50 65.54 286.14 67.41 285.04 69.45 M 297.92 69.31 C 298.50 71.02 299.08 72.73 299.68 74.44 C 301.86 73.69 304.04 72.93 306.21 72.14 C 305.24 70.29 304.25 68.46 303.22 66.65 C 301.45 67.54 299.69 68.43 297.92 69.31 M 290.42 71.04 C 290.79 73.03 291.18 75.02 291.59 77.01 C 293.75 76.30 295.91 75.60 298.07 74.88 C 297.55 73.34 297.08 71.78 296.44 70.28 C 294.45 69.88 292.40 70.82 290.42 71.04 M 284.28 71.08 C 283.98 73.80 283.91 76.54 284.11 79.28 C 286.07 78.77 288.02 78.23 289.98 77.70 C 289.58 75.51 289.18 73.32 288.81 71.13 C 287.30 71.11 285.79 71.09 284.28 71.08 M 308.18 73.21 C 308.48 74.90 308.75 76.60 309.04 78.30 C 310.75 78.34 312.47 78.38 314.19 78.42 C 314.19 76.12 314.14 73.82 314.06 71.52 C 312.09 72.07 310.14 72.64 308.18 73.21 M 300.12 75.86 C 300.48 77.08 300.83 78.30 301.18 79.53 C 303.25 79.12 305.32 78.72 307.39 78.33 C 307.17 76.85 306.95 75.37 306.73 73.89 C 304.51 74.47 302.31 75.14 300.12 75.86 M 292.12 78.62 C 292.89 80.02 293.67 81.43 294.45 82.83 C 296.23 81.87 298.02 80.93 299.81 79.99 C 299.35 78.79 298.89 77.59 298.44 76.39 C 296.33 77.13 294.22 77.87 292.12 78.62 M 284.78 80.89 C 285.98 83.11 287.46 85.17 289.13 87.08 C 290.42 86.01 291.72 84.94 293.03 83.88 C 292.24 82.28 291.45 80.67 290.68 79.06 C 288.71 79.66 286.74 80.27 284.78 80.89 M 301.81 81.04 C 302.72 84.04 303.68 87.04 304.88 89.94 C 307.64 87.35 307.10 83.31 307.50 79.89 C 305.59 80.26 303.70 80.64 301.81 81.04 M 295.25 84.09 C 297.53 86.48 299.36 90.30 303.11 90.36 C 302.26 87.52 301.32 84.70 300.44 81.87 C 298.69 82.57 296.96 83.32 295.25 84.09 M 291.31 88.46 C 293.63 89.77 296.29 90.23 298.87 90.80 C 297.28 88.94 295.74 87.02 293.97 85.32 C 292.92 86.12 290.74 86.81 291.31 88.46 Z" />
<path fill="#000000" opacity="1.00" d=" M 565.98 108.27 C 570.85 97.45 575.91 86.72 580.96 75.98 C 585.92 84.90 590.87 93.82 595.72 102.80 C 585.78 104.46 575.90 106.49 565.98 108.27 Z" />
<path fill="#000000" opacity="1.00" d=" M 582.42 76.85 C 597.04 83.33 611.46 90.24 626.02 96.84 C 628.17 97.76 630.32 98.74 632.26 100.10 C 621.21 102.58 610.06 104.62 598.98 106.99 C 593.43 96.96 587.83 86.96 582.42 76.85 Z" />
<path fill="#000000" opacity="1.00" d=" M 390.13 80.25 C 391.67 80.01 393.22 79.78 394.77 79.56 C 394.84 83.47 394.85 87.39 394.92 91.30 C 391.87 91.32 388.72 90.97 385.79 91.99 C 385.55 92.17 385.08 92.53 384.84 92.71 C 384.43 92.27 384.20 91.73 384.17 91.09 C 386.51 87.68 387.68 83.61 390.13 80.25 Z" />
<path fill="#000000" opacity="1.00" d=" M 397.78 79.45 C 399.21 79.85 401.16 79.48 402.04 81.00 C 404.46 84.02 406.21 87.50 407.73 91.04 C 404.44 91.29 401.13 91.36 397.83 91.35 C 397.85 87.38 397.79 83.42 397.78 79.45 Z" />
<path fill="#000000" opacity="1.00" d=" M 374.40 89.73 C 377.51 86.35 381.18 83.38 385.56 81.86 C 384.04 84.80 382.66 87.81 381.65 90.97 C 381.05 90.97 379.86 90.96 379.26 90.96 C 377.54 91.13 376.00 90.15 374.40 89.73 Z" />
<path fill="#000000" opacity="1.00" d=" M 405.91 80.96 C 410.28 82.70 414.34 85.20 417.66 88.56 C 415.48 89.47 413.28 90.32 411.07 91.13 C 409.64 87.60 407.79 84.27 405.91 80.96 Z" />
<path fill="#000000" opacity="1.00" d=" M 410.20 98.98 C 411.02 100.81 410.96 102.85 411.13 104.82 C 409.15 104.61 407.14 104.53 405.24 103.92 C 405.17 101.25 408.67 102.75 410.20 102.52 C 410.20 101.34 410.20 100.16 410.20 98.98 Z" />
<path fill="#000000" opacity="1.00" d=" M 527.10 101.01 C 531.82 101.53 535.89 104.45 540.14 106.39 C 539.82 106.77 539.18 107.54 538.85 107.92 C 534.86 106.58 531.07 104.64 527.32 102.73 C 527.27 102.30 527.15 101.44 527.10 101.01 Z" />
<path fill="#000000" opacity="1.00" d=" M 604.25 106.61 C 614.28 104.65 624.29 102.56 634.31 100.54 C 629.45 111.37 624.19 122.03 619.40 132.90 C 614.18 124.24 609.31 115.36 604.25 106.61 Z" />
<path fill="#000000" opacity="1.00" d=" M 382.92 103.03 C 386.81 101.86 390.99 102.53 395.01 102.23 C 395.01 102.80 395.01 103.94 395.01 104.50 C 391.04 104.65 387.08 104.89 383.12 104.84 C 383.07 104.39 382.97 103.48 382.92 103.03 Z" />
<path fill="#000000" opacity="1.00" d=" M 413.83 102.15 C 415.53 102.42 417.25 102.64 418.92 103.08 C 419.38 105.39 416.61 104.47 415.33 104.89 C 415.10 105.29 414.65 106.10 414.43 106.51 L 414.32 106.69 C 414.07 105.18 413.96 103.66 413.83 102.15 Z" />
<path fill="#000000" opacity="1.00" d=" M 368.24 105.23 C 369.52 103.13 373.51 102.80 374.97 105.00 C 373.05 105.80 370.98 106.27 368.90 106.11 C 368.73 105.89 368.40 105.45 368.24 105.23 Z" />
<path fill="#000000" opacity="1.00" d=" M 360.75 106.83 C 360.88 104.65 363.11 104.72 364.71 104.28 C 364.60 107.17 364.77 110.06 364.77 112.96 C 364.17 111.03 364.07 109.01 364.08 107.00 C 363.24 106.96 361.58 106.87 360.75 106.83 Z" />
<path fill="#000000" opacity="1.00" d=" M 429.01 106.36 C 429.01 105.35 429.01 104.34 429.02 103.33 C 432.88 104.00 436.88 103.93 440.66 105.04 C 440.79 105.51 441.05 106.47 441.19 106.94 C 437.12 106.91 433.07 105.65 429.01 106.36 Z" />
<path fill="#000000" opacity="1.00" d=" M 567.57 108.78 C 577.08 106.91 586.62 105.14 596.16 103.43 C 596.92 104.85 597.68 106.28 598.43 107.71 C 600.16 107.45 601.89 107.18 603.64 106.95 C 608.30 115.39 613.19 123.70 617.94 132.09 C 601.14 124.34 584.29 116.70 567.57 108.78 Z" />
<path fill="#000000" opacity="1.00" d=" M 338.74 109.04 C 343.31 107.94 347.91 106.81 352.64 106.61 C 352.39 107.10 351.89 108.07 351.64 108.56 C 347.69 109.58 343.66 110.53 339.59 110.80 C 339.38 110.36 338.95 109.48 338.74 109.04 Z" />
<path fill="#000000" opacity="1.00" d=" M 538.32 120.36 C 541.91 115.62 546.48 111.38 552.06 109.14 C 560.31 115.48 568.01 122.62 575.90 129.44 C 563.40 135.02 557.05 147.93 551.76 159.77 C 546.51 171.41 540.25 184.26 527.88 189.68 C 519.55 183.40 511.95 176.09 503.90 169.42 C 509.15 166.81 513.85 163.11 517.38 158.41 C 526.20 146.79 529.63 132.07 538.32 120.36 M 549.14 112.19 C 546.50 114.39 550.91 116.59 552.58 114.49 C 553.75 112.43 550.64 111.46 549.14 112.19 M 546.01 115.52 C 530.61 129.18 529.00 152.21 513.69 165.97 C 515.22 168.70 514.33 171.54 512.29 173.67 C 516.23 176.84 519.99 180.23 523.86 183.48 C 527.11 182.17 530.64 182.13 533.97 183.20 C 549.21 169.47 550.84 146.55 566.14 132.88 C 564.84 130.13 565.34 127.25 567.57 125.16 C 563.64 121.93 559.86 118.52 555.92 115.30 C 552.72 116.61 549.26 116.74 546.01 115.52 M 565.99 128.95 C 567.01 131.67 569.95 130.62 571.38 128.98 C 569.86 127.63 567.08 126.26 565.99 128.95 M 509.05 168.10 C 506.07 170.36 512.11 172.88 512.78 169.81 C 513.28 167.80 510.41 167.52 509.05 168.10 M 526.36 185.67 C 528.00 187.40 530.51 186.26 531.23 184.24 C 529.69 183.01 525.44 182.69 526.36 185.67 Z" />
<path fill="#000000" opacity="1.00" d=" M 328.36 111.49 C 329.87 110.94 330.59 111.46 330.49 113.03 C 326.37 114.41 322.16 115.94 317.82 116.36 L 317.26 114.94 C 320.74 113.18 324.61 112.44 328.36 111.49 Z" />
<path fill="#000000" opacity="1.00" d=" M 296.65 121.88 C 300.74 119.96 305.03 118.14 309.58 117.68 C 309.33 118.15 308.83 119.10 308.58 119.58 C 304.92 121.25 301.07 122.65 297.19 123.72 L 296.33 122.97 L 296.65 121.88 Z" />
<path fill="#000000" opacity="1.00" d=" M 517.83 128.98 C 518.11 127.41 518.34 125.84 518.65 124.28 C 518.73 124.91 518.88 126.16 518.96 126.79 C 521.49 128.59 525.84 128.79 526.48 132.39 C 523.42 131.72 520.61 130.36 517.83 128.98 Z" />
<path fill="#000000" opacity="1.00" d=" M 125.23 125.35 C 127.13 123.76 130.16 124.91 131.15 127.01 C 131.31 128.68 130.87 130.35 130.62 132.00 C 128.42 143.50 126.51 155.05 124.29 166.53 C 123.91 170.27 117.86 168.40 118.74 165.11 C 120.38 153.72 122.35 142.37 124.05 130.98 C 124.39 129.09 124.52 127.14 125.23 125.35 Z" />
<path fill="#000000" opacity="1.00" d=" M 283.96 126.94 C 285.41 126.52 288.19 124.35 288.68 127.04 C 284.55 129.25 280.30 132.04 275.52 132.27 C 277.05 129.00 281.11 128.59 283.96 126.94 Z" />
<path fill="#000000" opacity="1.00" d=" M 136.16 128.20 C 137.61 127.12 139.92 127.81 141.07 129.07 C 142.34 130.27 141.47 132.10 141.31 133.57 C 138.57 145.53 136.19 157.58 133.35 169.51 C 132.94 171.61 129.90 171.70 128.69 170.29 C 127.24 169.05 128.12 167.10 128.26 165.53 C 130.45 154.38 132.65 143.23 134.80 132.08 C 135.18 130.78 135.14 129.21 136.16 128.20 Z" />
<path fill="#000000" opacity="1.00" d=" M 146.43 131.47 C 147.98 130.19 150.61 130.70 151.76 132.26 C 152.91 133.66 151.92 135.44 151.67 136.96 C 148.58 148.58 145.75 160.27 142.61 171.87 C 142.28 173.93 139.39 174.50 138.02 173.11 C 136.05 171.53 137.52 168.88 137.80 166.85 C 140.85 155.11 142.93 143.05 146.43 131.47 Z" />
<path fill="#000000" opacity="1.00" d=" M 157.22 134.37 C 159.43 132.84 163.75 134.75 162.69 137.71 C 159.16 150.07 155.48 162.41 151.71 174.70 C 150.84 178.01 145.07 176.29 146.25 173.01 C 149.23 161.24 152.68 149.57 155.74 137.81 C 156.17 136.65 156.26 135.24 157.22 134.37 Z" />
<path fill="#000000" opacity="1.00" d=" M 261.93 135.27 C 262.40 135.63 263.34 136.37 263.82 136.74 C 265.42 135.97 267.11 134.86 268.87 135.89 C 267.83 137.07 266.78 138.24 265.78 139.45 C 265.64 139.39 265.37 139.27 265.23 139.22 C 264.27 138.22 263.39 137.15 262.54 136.06 C 262.39 135.86 262.08 135.46 261.93 135.27 Z" />
<path fill="#000000" opacity="1.00" d=" M 585.74 135.00 C 587.15 135.06 588.62 135.30 589.72 136.28 C 592.43 138.36 595.40 140.20 597.67 142.78 L 597.00 144.11 C 594.84 143.47 593.23 141.82 591.45 140.55 C 589.38 138.88 586.81 137.58 585.74 135.00 Z" />
<path fill="#000000" opacity="1.00" d=" M 209.36 139.18 C 210.92 137.99 212.50 136.81 214.10 135.65 C 214.61 136.26 215.13 136.85 215.68 137.44 C 214.27 138.42 212.87 139.40 211.47 140.40 C 210.78 139.96 210.08 139.56 209.36 139.18 Z" />
<path fill="#000000" opacity="1.00" d=" M 168.20 137.25 C 170.43 135.97 174.55 138.11 173.19 140.96 C 169.21 152.94 165.17 164.91 161.07 176.86 C 160.65 179.24 157.33 179.98 155.90 178.08 C 154.75 177.14 155.45 175.66 155.69 174.49 C 159.27 163.00 162.91 151.52 166.46 140.02 C 166.89 139.05 167.05 137.66 168.20 137.25 Z" />
<path fill="#000000" opacity="1.00" d=" M 532.93 138.95 C 533.80 138.47 534.67 137.99 535.55 137.50 C 537.48 137.61 539.43 137.65 541.38 137.63 C 543.41 139.04 545.38 140.53 547.45 141.88 C 549.80 145.67 549.67 150.15 549.57 154.44 L 548.44 154.38 C 548.38 155.94 548.81 158.10 547.10 158.99 C 545.47 159.79 543.79 160.49 542.20 161.33 C 539.70 161.72 537.46 160.95 535.57 159.34 C 535.21 159.45 534.48 159.67 534.12 159.78 C 532.84 157.82 531.43 155.79 531.42 153.35 L 530.41 153.38 C 531.07 150.11 529.37 146.04 531.31 143.24 C 531.63 141.73 532.24 140.32 532.93 138.95 M 534.02 144.14 C 534.29 146.53 533.35 149.75 535.77 151.30 C 537.75 153.07 539.98 150.19 542.05 150.80 C 542.43 151.32 543.19 152.35 543.57 152.87 C 542.89 152.52 541.53 151.81 540.85 151.46 C 540.48 152.18 539.74 153.63 539.37 154.35 C 540.23 154.95 541.11 155.54 541.99 156.14 C 543.30 155.63 544.62 155.13 545.95 154.64 C 545.43 151.94 545.94 148.40 543.23 146.75 C 540.76 144.69 537.52 149.82 535.58 146.35 C 536.19 146.48 537.42 146.73 538.03 146.86 C 538.54 145.88 539.07 144.90 539.60 143.92 C 538.99 143.60 537.79 142.96 537.18 142.64 C 536.13 143.15 535.07 143.65 534.02 144.14 Z" />
<path fill="#000000" opacity="1.00" d=" M 178.38 140.55 C 180.52 138.85 185.06 140.92 183.74 143.90 C 179.40 155.64 174.88 167.33 170.47 179.04 C 170.08 181.22 167.62 182.51 165.67 181.35 C 163.92 180.56 164.39 178.44 164.94 177.04 C 168.83 165.93 172.83 154.86 176.68 143.74 C 177.17 142.65 177.40 141.32 178.38 140.55 Z" />
<path fill="#000000" opacity="1.00" d=" M 189.36 143.41 C 191.51 142.19 195.73 144.08 194.23 146.94 C 189.37 158.80 184.36 170.61 179.32 182.40 C 178.53 185.66 172.44 184.56 173.70 181.13 C 177.85 169.91 182.52 158.89 186.77 147.71 C 187.50 146.23 187.79 144.26 189.36 143.41 Z" />
<path fill="#000000" opacity="1.00" d=" M 199.51 146.69 C 201.65 145.07 206.32 146.91 204.79 149.96 C 199.37 161.78 193.94 173.62 188.32 185.34 C 187.31 188.20 181.72 187.17 182.79 183.98 C 187.29 172.91 192.40 162.08 197.04 151.05 C 197.80 149.59 198.22 147.78 199.51 146.69 Z" />
<path fill="#000000" opacity="1.00" d=" M 237.53 153.12 C 241.03 150.37 244.82 148.00 248.76 145.93 C 248.81 146.45 248.91 147.49 248.96 148.01 C 245.56 150.54 242.06 153.06 238.21 154.87 C 238.04 154.43 237.70 153.55 237.53 153.12 Z" />
<path fill="#000000" opacity="1.00" d=" M 559.35 151.85 C 559.75 151.07 560.17 150.29 560.61 149.52 C 562.12 150.88 564.39 151.75 564.98 153.88 C 563.02 155.24 561.14 152.51 559.35 151.85 Z" />
<path fill="#000000" opacity="1.00" d=" M 604.17 149.14 L 605.25 148.89 C 608.10 150.53 610.36 152.99 612.82 155.15 C 612.33 155.45 611.35 156.06 610.86 156.37 C 608.80 153.96 604.42 152.52 604.17 149.14 Z" />
<path fill="#000000" opacity="1.00" d=" M 223.93 162.89 C 226.18 161.28 228.25 158.94 231.24 158.96 C 230.64 160.35 229.74 161.57 228.48 162.43 C 225.66 164.51 223.09 167.07 219.75 168.32 C 219.52 165.59 222.21 164.41 223.93 162.89 Z" />
<path fill="#000000" opacity="1.00" d=" M 571.86 158.80 L 572.93 158.61 C 576.42 160.81 579.80 163.30 582.73 166.22 C 582.60 166.61 582.35 167.40 582.22 167.79 C 578.18 165.93 574.87 162.76 571.49 159.92 L 571.86 158.80 Z" />
<path fill="#000000" opacity="1.00" d=" M 159.36 184.19 C 161.14 184.62 162.92 185.05 164.67 185.60 C 160.98 187.08 159.55 191.86 155.37 192.38 C 156.59 190.08 158.10 187.93 160.08 186.22 C 159.83 185.55 159.59 184.87 159.36 184.19 Z" />
<path fill="#000000" opacity="1.00" d=" M 195.39 188.52 C 195.78 188.41 196.56 188.19 196.96 188.08 L 197.42 189.18 C 194.86 192.57 191.82 195.58 188.75 198.50 C 188.36 198.28 187.58 197.84 187.19 197.63 C 189.32 194.13 192.44 191.32 195.39 188.52 Z" />
<path fill="#000000" opacity="1.00" d=" M 149.40 199.20 L 150.18 198.34 C 150.53 198.70 151.23 199.43 151.58 199.80 C 149.50 202.97 147.21 206.01 144.91 209.03 C 144.20 210.56 141.36 209.88 142.88 208.15 C 144.83 205.02 147.04 202.04 149.40 199.20 Z" />
<path fill="#000000" opacity="1.00" d=" M 172.80 215.30 C 174.59 211.06 177.91 207.68 181.02 204.37 L 182.07 204.82 L 182.38 205.86 C 180.06 208.98 177.68 212.11 174.94 214.88 C 174.41 214.98 173.34 215.19 172.80 215.30 Z" />
<path fill="#000000" opacity="1.00" d=" M 146.93 221.73 C 162.84 222.63 178.06 215.65 193.98 216.80 C 199.21 217.10 204.24 218.79 208.86 221.19 C 207.94 231.60 206.93 241.99 205.97 252.39 C 201.31 249.98 196.26 248.24 190.99 247.96 C 174.73 246.80 159.16 254.17 142.89 252.78 C 137.79 252.43 132.86 250.78 128.43 248.28 C 129.54 237.95 130.34 227.59 131.41 217.25 C 136.22 219.76 141.49 221.46 146.93 221.73 M 139.74 223.21 C 138.46 225.91 135.78 227.03 132.89 226.46 C 132.33 231.43 132.01 236.42 131.38 241.38 C 131.72 242.12 135.86 243.94 133.85 244.02 C 133.22 244.14 131.96 244.38 131.33 244.49 C 130.04 247.38 134.28 249.70 135.29 246.25 C 137.10 245.37 136.66 248.66 137.44 249.62 C 157.57 254.02 177.20 242.07 197.31 246.49 C 198.94 244.01 201.46 242.41 204.52 243.18 C 204.94 238.15 205.45 233.12 205.92 228.09 C 204.62 227.05 203.32 225.99 202.05 224.93 C 203.35 224.84 204.65 224.74 205.96 224.62 C 205.91 222.96 205.65 221.17 203.91 220.44 C 202.58 221.17 201.87 222.58 200.88 223.67 C 200.72 222.78 200.39 220.99 200.22 220.10 C 179.92 215.55 160.09 227.49 139.74 223.21 M 133.29 221.33 C 133.06 223.14 134.55 225.46 136.58 224.59 C 138.36 222.64 135.11 219.09 133.29 221.33 M 201.10 243.79 C 199.09 244.76 199.97 248.09 202.08 248.14 C 205.42 248.49 203.48 243.69 201.10 243.79 Z" />
<path fill="#000000" opacity="1.00" d=" M 157.41 240.01 C 155.70 230.74 165.49 221.98 174.46 223.59 C 177.71 223.99 177.74 227.61 179.31 229.76 C 179.40 231.93 179.46 234.14 178.87 236.26 C 177.68 237.96 176.51 239.68 175.36 241.40 C 173.11 242.89 170.79 244.26 168.35 245.41 C 166.45 245.39 164.55 245.42 162.65 245.49 C 161.66 244.42 160.66 243.37 159.65 242.33 C 157.85 243.82 157.44 241.11 157.41 240.01 M 169.21 226.91 C 167.46 228.69 164.35 230.04 164.74 233.00 C 164.76 235.09 167.35 235.60 168.71 236.68 C 168.69 237.38 168.65 238.79 168.63 239.50 C 168.08 238.65 167.62 237.75 167.26 236.81 C 166.45 236.95 164.82 237.23 164.01 237.38 C 163.78 240.11 165.92 241.52 167.89 242.88 C 169.75 240.83 172.95 239.18 172.72 235.99 C 172.83 233.06 168.61 233.14 167.92 230.43 C 168.30 230.40 169.08 230.32 169.46 230.28 L 169.42 231.96 C 170.39 231.76 172.32 231.37 173.29 231.17 C 173.14 228.76 171.13 227.78 169.21 226.91 Z" />
<path fill="#000000" opacity="1.00" d=" M 675.81 236.03 C 676.28 236.06 677.22 236.13 677.69 236.17 C 679.89 240.10 683.01 243.95 683.35 248.58 C 680.85 247.74 680.11 245.10 678.91 243.06 C 677.80 240.76 676.14 238.63 675.81 236.03 Z" />
<path fill="#000000" opacity="1.00" d=" M 124.43 237.35 L 125.04 236.45 C 127.71 236.12 125.73 239.23 125.35 240.40 C 123.89 243.18 122.55 246.05 120.78 248.66 C 120.39 248.67 119.62 248.70 119.23 248.72 C 119.53 244.51 122.62 241.06 124.43 237.35 Z" />
<path fill="#000000" opacity="1.00" d=" M 648.95 246.41 C 649.59 245.95 650.25 245.49 650.91 245.04 C 652.02 247.21 653.89 249.20 653.90 251.76 C 650.94 252.32 650.51 248.15 648.95 246.41 Z" />
<path fill="#000000" opacity="1.00" d=" M 685.86 256.09 C 689.23 255.56 689.43 259.82 690.82 261.94 C 688.14 261.79 685.46 261.88 682.80 262.13 C 682.63 261.91 682.31 261.48 682.14 261.27 C 682.58 261.23 683.46 261.16 683.90 261.13 C 685.20 261.31 686.55 260.92 687.58 260.09 C 686.95 258.77 686.38 257.44 685.86 256.09 Z" />
<path fill="#000000" opacity="1.00" d=" M 130.50 290.70 C 131.73 287.07 132.99 283.41 134.90 280.08 C 135.31 280.27 136.13 280.66 136.54 280.86 C 135.30 285.12 133.44 289.17 131.85 293.30 C 130.59 292.84 129.76 292.03 130.50 290.70 Z" />
<path fill="#000000" opacity="1.00" d=" M 100.45 288.76 C 101.93 288.12 103.42 287.47 104.91 286.83 C 104.29 288.23 103.66 289.64 103.02 291.04 C 102.17 290.27 101.31 289.51 100.45 288.76 Z" />
<path fill="#000000" opacity="1.00" d=" M 98.49 298.89 C 98.94 299.16 99.83 299.70 100.27 299.96 C 99.45 304.07 98.32 308.12 97.01 312.09 C 96.50 312.11 95.49 312.14 94.98 312.15 C 95.62 307.61 97.14 303.26 98.49 298.89 Z" />
<path fill="#000000" opacity="1.00" d=" M 594.56 299.09 C 597.93 299.38 601.29 299.76 604.65 300.14 L 604.48 301.43 C 603.82 309.60 601.83 317.83 602.99 326.03 C 604.42 334.29 609.67 341.86 617.02 345.95 C 624.18 350.10 633.19 350.95 640.97 348.12 C 650.57 344.86 658.06 336.10 659.70 326.09 C 660.63 319.62 661.05 313.08 661.88 306.59 L 662.58 306.19 C 665.71 306.20 668.82 306.68 671.88 307.36 C 670.88 314.26 670.57 321.24 669.47 328.12 C 667.05 342.47 655.62 354.66 641.60 358.37 C 626.97 362.54 610.23 357.05 600.90 345.05 C 597.29 340.36 594.63 334.90 593.39 329.11 C 591.29 319.14 594.11 309.08 594.56 299.09 Z" />
<path fill="#000000" opacity="1.00" d=" M 127.26 301.17 C 129.45 300.75 128.56 302.95 128.30 304.21 C 127.28 307.50 126.51 310.89 125.13 314.06 C 122.22 315.01 123.90 311.13 124.14 309.88 C 125.17 306.99 125.50 303.71 127.26 301.17 Z" />
<path fill="#000000" opacity="1.00" d=" M 93.12 321.12 L 94.24 321.06 C 94.79 325.44 92.97 330.02 92.12 334.35 C 91.63 334.27 90.66 334.12 90.17 334.04 C 90.89 329.72 91.14 325.01 93.12 321.12 Z" />
<path fill="#000000" opacity="1.00" d=" M 120.28 324.88 C 120.46 323.88 121.48 321.05 122.81 323.03 C 122.05 327.44 121.72 332.24 119.50 336.19 L 118.88 336.19 C 117.68 332.45 119.73 328.60 120.28 324.88 Z" />
<path fill="#000000" opacity="1.00" d=" M 28.20 353.38 C 30.78 353.00 33.41 353.21 36.01 353.18 C 112.02 353.19 188.02 353.17 264.03 353.19 C 266.61 352.98 269.12 354.31 270.48 356.50 C 272.48 359.22 272.34 362.75 272.33 365.97 C 272.27 418.98 272.37 471.99 272.28 525.00 C 272.41 529.52 269.02 534.75 264.00 534.24 C 185.99 534.24 107.99 534.26 29.98 534.23 C 24.70 534.47 21.81 528.61 22.13 523.99 C 22.14 470.32 22.11 416.65 22.15 362.97 C 22.08 359.04 24.07 354.42 28.20 353.38 Z" />
</g>
<g id="#fadbc5ff">
<path fill="#fadbc5" opacity="1.00" d=" M 472.96 39.09 C 471.99 34.08 478.58 30.16 482.48 33.47 C 491.13 40.50 494.26 51.81 496.49 62.27 C 503.27 54.00 511.09 45.30 521.97 42.88 C 526.94 41.47 531.10 47.98 528.09 52.02 C 522.78 59.43 513.69 62.69 505.27 65.10 C 504.75 65.18 503.73 65.35 503.22 65.43 C 501.54 71.60 500.11 77.82 498.77 84.07 C 494.16 82.48 489.39 81.50 484.58 80.79 L 484.75 80.41 C 486.38 74.36 487.65 68.23 489.16 62.15 C 488.78 61.85 488.00 61.26 487.62 60.97 C 481.03 55.14 474.48 48.06 472.96 39.09 M 480.77 40.70 C 478.75 41.55 478.51 44.09 479.25 45.90 C 481.57 52.72 487.62 57.16 493.07 61.42 C 491.76 54.73 490.48 47.51 485.66 42.34 C 484.50 40.99 482.55 39.65 480.77 40.70 M 499.97 63.05 C 507.16 61.61 515.39 60.27 520.26 54.21 C 522.30 52.00 519.89 47.98 516.97 48.79 C 509.42 50.67 504.53 57.24 499.97 63.05 Z" />
<path fill="#fadbc5" opacity="1.00" d=" M 483.98 83.76 C 488.72 84.49 493.42 85.48 498.06 86.70 C 494.22 102.25 490.69 117.88 486.83 133.43 C 486.44 133.37 485.66 133.25 485.27 133.19 C 481.88 132.42 478.47 131.73 475.12 130.79 C 474.56 130.62 473.44 130.28 472.89 130.11 C 476.67 114.68 480.35 99.22 483.98 83.76 Z" />
</g>
<g id="#0662d2ff">
<path fill="#0662d2" opacity="1.00" d=" M 238.92 72.14 C 262.31 64.55 285.66 56.86 309.05 49.27 C 311.42 48.29 314.49 49.55 315.11 52.14 C 319.74 65.78 324.09 79.52 328.69 93.17 C 329.94 95.77 328.90 99.32 325.89 100.02 C 304.77 107.01 283.58 113.82 262.45 120.78 C 262.41 119.24 262.37 117.69 262.34 116.15 C 264.60 115.10 267.98 115.06 268.62 112.09 C 266.33 112.63 264.08 113.30 261.84 114.00 C 260.91 111.25 259.96 108.52 259.02 105.79 C 262.03 104.81 265.04 103.81 268.03 102.78 C 267.01 99.17 265.83 95.60 264.57 92.07 C 259.64 93.30 254.97 95.47 249.98 96.46 C 246.63 95.53 243.55 93.75 240.11 93.11 C 238.60 88.07 236.69 83.16 235.25 78.10 C 234.18 75.42 236.30 72.67 238.92 72.14 M 285.50 65.55 C 279.50 73.21 282.28 85.73 291.01 90.08 C 297.25 93.76 305.05 92.06 310.70 88.07 C 309.97 87.51 309.24 86.96 308.50 86.43 C 308.74 84.22 308.97 82.01 309.20 79.80 C 310.69 79.89 312.18 79.98 313.68 80.09 C 312.82 81.82 311.86 83.49 310.63 84.98 C 311.10 85.51 311.59 86.04 312.08 86.57 C 313.68 83.57 315.63 80.55 315.80 77.05 C 316.51 70.56 313.01 63.82 307.24 60.75 C 300.13 56.72 290.17 58.74 285.50 65.55 M 309.23 98.64 C 309.32 99.14 309.51 100.14 309.61 100.64 C 314.07 98.98 318.75 97.89 323.12 96.00 C 323.16 95.50 323.24 94.52 323.28 94.03 C 318.59 95.56 313.87 96.98 309.23 98.64 M 290.76 104.84 L 290.92 106.31 C 295.68 105.50 300.28 103.73 304.77 101.97 C 304.84 101.50 304.97 100.54 305.04 100.07 C 300.26 101.57 295.38 102.87 290.76 104.84 M 271.87 110.87 L 273.10 112.18 C 277.73 111.26 282.35 109.73 286.67 107.78 C 286.65 107.41 286.63 106.68 286.62 106.31 C 281.55 107.23 276.77 109.32 271.87 110.87 Z" />
<path fill="#0662d2" opacity="1.00" d=" M 295.28 60.12 C 298.24 60.94 300.40 63.17 302.24 65.51 C 300.57 66.24 298.88 66.96 297.20 67.65 C 296.43 65.18 295.68 62.69 295.28 60.12 Z" />
<path fill="#0662d2" opacity="1.00" d=" M 299.86 60.01 C 302.07 60.54 304.24 61.24 306.37 62.06 C 305.36 62.82 304.36 63.58 303.35 64.34 C 302.17 62.91 301.00 61.48 299.86 60.01 Z" />
<path fill="#0662d2" opacity="1.00" d=" M 290.29 69.46 C 290.89 66.57 289.89 62.03 293.74 61.26 C 294.39 63.64 295.09 66.01 295.79 68.37 C 293.96 68.74 292.12 69.11 290.29 69.46 Z" />
<path fill="#0662d2" opacity="1.00" d=" M 304.57 65.64 C 305.68 64.77 306.77 63.86 307.97 63.11 C 310.40 64.76 311.96 67.30 313.35 69.83 C 311.49 70.47 309.62 71.09 307.76 71.71 C 306.74 69.66 305.68 67.63 304.57 65.64 Z" />
<path fill="#0662d2" opacity="1.00" d=" M 285.04 69.45 C 286.14 67.41 287.50 65.54 289.13 63.89 C 289.01 65.81 288.89 67.73 288.75 69.64 C 287.51 69.58 286.27 69.52 285.04 69.45 Z" />
<path fill="#0662d2" opacity="1.00" d=" M 297.92 69.31 C 299.69 68.43 301.45 67.54 303.22 66.65 C 304.25 68.46 305.24 70.29 306.21 72.14 C 304.04 72.93 301.86 73.69 299.68 74.44 C 299.08 72.73 298.50 71.02 297.92 69.31 Z" />
<path fill="#0662d2" opacity="1.00" d=" M 290.42 71.04 C 292.40 70.82 294.45 69.88 296.44 70.28 C 297.08 71.78 297.55 73.34 298.07 74.88 C 295.91 75.60 293.75 76.30 291.59 77.01 C 291.18 75.02 290.79 73.03 290.42 71.04 Z" />
<path fill="#0662d2" opacity="1.00" d=" M 284.28 71.08 C 285.79 71.09 287.30 71.11 288.81 71.13 C 289.18 73.32 289.58 75.51 289.98 77.70 C 288.02 78.23 286.07 78.77 284.11 79.28 C 283.91 76.54 283.98 73.80 284.28 71.08 Z" />
<path fill="#0662d2" opacity="1.00" d=" M 308.18 73.21 C 310.14 72.64 312.09 72.07 314.06 71.52 C 314.14 73.82 314.19 76.12 314.19 78.42 C 312.47 78.38 310.75 78.34 309.04 78.30 C 308.75 76.60 308.48 74.90 308.18 73.21 Z" />
<path fill="#0662d2" opacity="1.00" d=" M 300.12 75.86 C 302.31 75.14 304.51 74.47 306.73 73.89 C 306.95 75.37 307.17 76.85 307.39 78.33 C 305.32 78.72 303.25 79.12 301.18 79.53 C 300.83 78.30 300.48 77.08 300.12 75.86 Z" />
<path fill="#0662d2" opacity="1.00" d=" M 292.12 78.62 C 294.22 77.87 296.33 77.13 298.44 76.39 C 298.89 77.59 299.35 78.79 299.81 79.99 C 298.02 80.93 296.23 81.87 294.45 82.83 C 293.67 81.43 292.89 80.02 292.12 78.62 Z" />
<path fill="#0662d2" opacity="1.00" d=" M 284.78 80.89 C 286.74 80.27 288.71 79.66 290.68 79.06 C 291.45 80.67 292.24 82.28 293.03 83.88 C 291.72 84.94 290.42 86.01 289.13 87.08 C 287.46 85.17 285.98 83.11 284.78 80.89 Z" />
<path fill="#0662d2" opacity="1.00" d=" M 301.81 81.04 C 303.70 80.64 305.59 80.26 307.50 79.89 C 307.10 83.31 307.64 87.35 304.88 89.94 C 303.68 87.04 302.72 84.04 301.81 81.04 Z" />
<path fill="#0662d2" opacity="1.00" d=" M 295.25 84.09 C 296.96 83.32 298.69 82.57 300.44 81.87 C 301.32 84.70 302.26 87.52 303.11 90.36 C 299.36 90.30 297.53 86.48 295.25 84.09 Z" />
<path fill="#0662d2" opacity="1.00" d=" M 291.31 88.46 C 290.74 86.81 292.92 86.12 293.97 85.32 C 295.74 87.02 297.28 88.94 298.87 90.80 C 296.29 90.23 293.63 89.77 291.31 88.46 Z" />
<path fill="#0662d2" opacity="1.00" d=" M 555.44 248.09 C 597.50 252.03 639.51 256.88 681.54 260.85 L 682.14 261.27 C 682.31 261.48 682.63 261.91 682.80 262.13 C 685.46 261.88 688.14 261.79 690.82 261.94 C 706.57 263.49 722.30 265.24 738.06 266.75 L 737.99 266.79 C 729.44 271.59 721.04 276.66 712.37 281.25 C 710.47 284.54 711.09 288.51 710.87 292.14 C 710.17 292.03 708.78 291.83 708.08 291.72 C 706.28 290.44 704.05 290.40 702.07 291.23 C 701.29 291.11 699.74 290.87 698.96 290.75 C 696.90 289.33 694.39 289.37 692.17 290.30 C 691.39 290.14 689.85 289.82 689.08 289.66 C 687.24 288.45 685.02 288.44 683.05 289.30 C 681.73 289.09 680.41 288.89 679.11 288.69 C 677.28 287.43 675.04 287.41 673.05 288.26 C 672.27 288.13 670.71 287.88 669.92 287.75 C 667.87 286.33 665.37 286.38 663.15 287.32 C 662.39 287.16 660.87 286.83 660.11 286.67 C 658.26 285.49 656.04 285.45 654.05 286.26 C 652.71 286.05 651.39 285.85 650.08 285.65 C 648.22 284.45 646.00 284.43 644.01 285.27 C 643.25 285.14 641.75 284.89 640.99 284.76 C 638.92 283.38 636.42 283.38 634.16 284.22 C 633.38 284.09 631.81 283.84 631.03 283.72 C 629.22 282.49 627.01 282.43 625.04 283.27 C 623.71 283.06 622.39 282.86 621.08 282.65 C 619.24 281.45 617.02 281.43 615.05 282.29 C 614.28 282.16 612.75 281.90 611.98 281.77 C 609.91 280.34 607.39 280.41 605.14 281.27 C 604.34 281.14 602.76 280.86 601.97 280.73 C 599.88 279.38 597.38 279.40 595.12 280.23 C 594.36 280.09 592.84 279.80 592.09 279.66 C 590.25 278.45 588.03 278.43 586.05 279.28 C 585.28 279.15 583.74 278.89 582.96 278.76 C 580.92 277.32 578.40 277.38 576.16 278.25 C 575.36 278.12 573.77 277.85 572.98 277.71 C 570.88 276.37 568.38 276.41 566.12 277.26 C 565.61 277.19 564.60 277.06 564.09 276.99 C 564.50 273.26 564.94 269.53 565.02 265.78 C 562.76 259.91 559.49 254.51 556.39 249.07 C 556.05 249.76 555.73 250.45 555.42 251.16 C 555.42 250.39 555.44 248.86 555.44 248.09 Z" />
<path fill="#0662d2" opacity="1.00" d=" M 596.00 289.81 C 599.97 287.09 606.18 289.11 607.40 293.86 C 607.96 296.61 607.55 300.36 604.48 301.43 L 604.65 300.14 C 601.29 299.76 597.93 299.38 594.56 299.09 L 592.96 298.96 C 592.27 295.66 592.80 291.63 596.00 289.81 Z" />
<path fill="#0662d2" opacity="1.00" d=" M 659.45 302.56 C 659.26 296.26 668.17 293.32 672.32 297.58 C 675.10 300.14 674.81 304.54 673.09 307.62 L 671.88 307.36 C 668.82 306.68 665.71 306.20 662.58 306.19 L 661.88 306.59 C 659.79 308.31 659.24 304.05 659.45 302.56 Z" />
</g>
<g id="#16afdbff">
<path fill="#16afdb" opacity="1.00" d=" M 451.26 72.78 C 452.58 66.26 454.36 59.84 455.77 53.34 C 466.38 55.91 477.05 58.25 487.62 60.97 C 488.00 61.26 488.78 61.85 489.16 62.15 C 487.65 68.23 486.38 74.36 484.75 80.41 C 475.16 78.74 465.81 75.99 456.29 74.00 C 454.61 73.58 452.93 73.17 451.26 72.78 Z" />
<path fill="#16afdb" opacity="1.00" d=" M 503.22 65.43 C 503.73 65.35 504.75 65.18 505.27 65.10 C 515.82 67.45 526.31 70.15 536.86 72.52 C 535.43 79.01 533.77 85.45 532.28 91.93 C 530.44 91.49 528.59 91.06 526.77 90.60 C 517.78 88.49 508.79 86.38 499.80 84.29 C 499.42 84.76 498.67 85.69 498.29 86.15 C 498.41 85.63 498.65 84.59 498.77 84.07 C 500.11 77.82 501.54 71.60 503.22 65.43 Z" />
<path fill="#16afdb" opacity="1.00" d=" M 444.63 123.51 C 448.27 107.91 452.02 92.34 455.78 76.77 C 464.94 78.85 474.11 80.89 483.19 83.28 C 483.66 82.46 484.12 81.63 484.58 80.79 C 484.38 81.78 484.18 82.77 483.98 83.76 C 480.35 99.22 476.67 114.68 472.89 130.11 C 473.44 130.28 474.56 130.62 475.12 130.79 C 464.98 128.26 454.81 125.88 444.63 123.51 Z" />
<path fill="#16afdb" opacity="1.00" d=" M 498.06 86.70 C 507.57 88.56 516.80 91.85 526.45 92.91 C 523.84 103.29 521.88 113.86 518.70 124.08 L 518.65 124.28 C 518.34 125.84 518.11 127.41 517.83 128.98 C 517.02 132.73 516.07 136.45 515.20 140.18 C 505.22 137.88 495.27 135.42 485.27 133.19 C 485.66 133.25 486.44 133.37 486.83 133.43 C 490.69 117.88 494.22 102.25 498.06 86.70 Z" />
</g>
<g id="#65cae7ff">
<path fill="#65cae7" opacity="1.00" d=" M 456.29 74.00 C 465.81 75.99 475.16 78.74 484.75 80.41 L 484.58 80.79 C 484.12 81.63 483.66 82.46 483.19 83.28 C 474.11 80.89 464.94 78.85 455.78 76.77 C 455.91 76.07 456.16 74.69 456.29 74.00 Z" />
<path fill="#65cae7" opacity="1.00" d=" M 498.29 86.15 C 498.67 85.69 499.42 84.76 499.80 84.29 C 508.79 86.38 517.78 88.49 526.77 90.60 C 526.69 91.17 526.53 92.33 526.45 92.91 C 516.80 91.85 507.57 88.56 498.06 86.70 L 498.29 86.15 Z" />
</g>
<g id="#fbdfd8ff">
<path fill="#fbdfd8" opacity="1.00" d=" M 564.80 108.79 C 570.08 97.41 575.40 86.06 580.66 74.68 C 598.90 83.19 617.24 91.48 635.45 100.04 C 630.15 111.39 624.84 122.74 619.62 134.13 C 601.36 125.65 583.04 117.30 564.80 108.79 M 565.98 108.27 C 575.90 106.49 585.78 104.46 595.72 102.80 C 590.87 93.82 585.92 84.90 580.96 75.98 C 575.91 86.72 570.85 97.45 565.98 108.27 M 582.42 76.85 C 587.83 86.96 593.43 96.96 598.98 106.99 C 610.06 104.62 621.21 102.58 632.26 100.10 C 630.32 98.74 628.17 97.76 626.02 96.84 C 611.46 90.24 597.04 83.33 582.42 76.85 M 604.25 106.61 C 609.31 115.36 614.18 124.24 619.40 132.90 C 624.19 122.03 629.45 111.37 634.31 100.54 C 624.29 102.56 614.28 104.65 604.25 106.61 M 567.57 108.78 C 584.29 116.70 601.14 124.34 617.94 132.09 C 613.19 123.70 608.30 115.39 603.64 106.95 C 601.89 107.18 600.16 107.45 598.43 107.71 C 597.68 106.28 596.92 104.85 596.16 103.43 C 586.62 105.14 577.08 106.91 567.57 108.78 Z" />
<path fill="#fbdfd8" opacity="1.00" d=" M 385.58 78.54 C 399.17 73.36 415.79 78.89 423.52 91.22 C 432.30 104.20 429.42 123.39 417.10 133.12 C 405.69 142.95 387.37 142.94 375.96 133.10 C 369.93 128.06 365.81 120.76 364.77 112.96 C 364.77 110.06 364.60 107.17 364.71 104.28 C 365.42 99.62 367.05 95.05 369.70 91.14 C 373.42 85.33 379.11 80.88 385.58 78.54 M 390.13 80.25 C 387.68 83.61 386.51 87.68 384.17 91.09 C 384.20 91.73 384.43 92.27 384.84 92.71 C 388.09 93.67 391.54 93.61 394.90 93.82 C 394.90 93.19 394.91 91.93 394.92 91.30 C 394.85 87.39 394.84 83.47 394.77 79.56 C 393.22 79.78 391.67 80.01 390.13 80.25 M 397.78 79.45 C 397.79 83.42 397.85 87.38 397.83 91.35 C 397.89 91.94 398.01 93.13 398.07 93.72 C 401.39 92.90 405.78 93.78 408.26 91.01 L 407.73 91.04 C 406.21 87.50 404.46 84.02 402.04 81.00 C 401.16 79.48 399.21 79.85 397.78 79.45 M 374.40 89.73 C 376.00 90.15 377.54 91.13 379.26 90.96 C 379.60 92.48 380.43 92.71 381.75 91.64 L 381.65 90.97 C 382.66 87.81 384.04 84.80 385.56 81.86 C 381.18 83.38 377.51 86.35 374.40 89.73 M 405.91 80.96 C 407.79 84.27 409.64 87.60 411.07 91.13 C 413.28 90.32 415.48 89.47 417.66 88.56 C 414.34 85.20 410.28 82.70 405.91 80.96 M 412.07 93.97 C 412.79 96.67 413.42 99.39 413.83 102.15 C 413.96 103.66 414.07 105.18 414.32 106.69 L 414.43 106.51 L 414.15 107.01 C 418.00 106.82 421.86 106.90 425.72 106.80 C 425.18 101.08 423.16 95.56 419.74 90.94 C 417.19 91.98 414.64 93.01 412.07 93.97 M 372.48 92.14 C 369.65 96.78 367.57 102.00 367.16 107.44 C 371.12 107.26 375.08 107.32 379.04 107.24 C 379.15 103.08 379.60 98.93 380.49 94.86 C 377.78 94.07 375.12 93.12 372.48 92.14 M 397.99 96.79 C 397.87 100.22 398.04 103.65 398.03 107.07 C 402.41 107.04 406.80 107.01 411.19 106.94 C 411.17 106.41 411.14 105.35 411.13 104.82 C 410.96 102.85 411.02 100.81 410.20 98.98 C 409.94 97.58 409.54 96.22 409.17 94.85 C 405.50 95.81 401.73 96.22 397.99 96.79 M 383.39 95.58 C 382.97 98.03 382.16 100.56 382.92 103.03 C 382.97 103.48 383.07 104.39 383.12 104.84 C 382.73 105.16 381.97 105.81 381.59 106.13 C 385.61 108.37 390.62 106.64 395.09 107.11 C 395.07 106.46 395.03 105.16 395.01 104.50 C 395.01 103.94 395.01 102.80 395.01 102.23 C 394.99 100.42 394.97 98.61 394.94 96.80 C 391.06 96.72 387.20 96.33 383.39 95.58 M 367.41 110.35 C 367.90 115.24 369.39 120.02 371.99 124.21 C 374.87 122.80 377.82 121.54 380.85 120.47 C 380.04 117.11 379.47 113.70 379.16 110.27 C 375.24 110.25 371.33 110.30 367.41 110.35 M 382.15 110.21 C 382.45 113.37 383.01 116.50 383.72 119.60 C 387.41 118.61 391.20 118.13 394.98 117.60 C 395.26 115.10 395.10 112.57 395.08 110.06 C 390.77 110.13 386.45 110.13 382.15 110.21 M 398.05 110.07 C 398.09 112.57 398.12 115.07 398.12 117.57 C 402.10 117.63 406.07 118.00 409.97 118.81 C 410.67 115.90 411.03 112.91 411.27 109.93 C 406.86 109.98 402.45 109.98 398.05 110.07 M 414.25 109.87 C 414.06 113.14 413.59 116.37 412.98 119.58 C 416.05 120.47 419.06 121.58 421.99 122.87 C 424.07 118.80 425.40 114.38 425.75 109.81 C 421.92 109.79 418.08 109.90 414.25 109.87 M 398.16 120.55 C 398.19 126.23 398.29 131.91 398.33 137.59 C 399.52 137.41 400.73 137.24 401.93 137.05 C 404.91 132.21 407.51 127.12 409.26 121.70 C 405.60 120.98 401.88 120.62 398.16 120.55 M 384.56 122.48 C 386.43 127.66 388.87 132.61 391.84 137.24 C 392.71 137.33 394.45 137.50 395.32 137.58 C 395.29 131.94 395.25 126.29 395.18 120.64 C 391.59 120.95 388.05 121.60 384.56 122.48 M 412.19 122.43 C 410.65 127.17 408.51 131.68 406.14 136.06 C 411.74 133.87 416.75 130.25 420.31 125.38 C 417.65 124.27 414.95 123.27 412.19 122.43 M 373.80 126.64 C 377.36 131.10 382.25 134.36 387.64 136.19 C 385.26 132.12 383.25 127.83 381.74 123.36 C 379.05 124.35 376.40 125.44 373.80 126.64 Z" />
<path fill="#fbdfd8" opacity="1.00" d=" M 249.98 96.46 C 254.97 95.47 259.64 93.30 264.57 92.07 C 265.83 95.60 267.01 99.17 268.03 102.78 C 265.04 103.81 262.03 104.81 259.02 105.79 C 259.96 108.52 260.91 111.25 261.84 114.00 C 264.08 113.30 266.33 112.63 268.62 112.09 C 267.98 115.06 264.60 115.10 262.34 116.15 C 262.37 117.69 262.41 119.24 262.45 120.78 C 262.46 121.68 262.48 122.58 262.50 123.48 L 261.61 123.42 C 261.58 124.81 261.55 126.19 261.51 127.57 L 260.78 127.40 C 260.38 129.21 259.74 130.96 259.25 132.74 C 258.99 132.56 258.45 132.18 258.18 131.99 C 255.60 136.03 252.23 139.50 248.28 142.21 C 238.02 148.05 223.89 145.96 215.68 137.44 C 215.13 136.85 214.61 136.26 214.10 135.65 C 205.86 125.97 206.35 110.34 215.17 101.20 C 221.35 94.34 231.12 91.53 240.11 93.11 C 243.55 93.75 246.63 95.53 249.98 96.46 M 228.44 100.51 C 220.63 102.95 214.84 110.76 215.00 118.98 C 214.79 127.79 221.39 136.19 230.02 138.02 C 236.60 139.75 243.97 137.55 248.67 132.68 C 254.00 127.42 255.60 118.98 252.90 112.06 C 249.45 102.55 238.00 97.03 228.44 100.51 Z" />
<path fill="#fbdfd8" opacity="1.00" d=" M 309.23 98.64 C 313.87 96.98 318.59 95.56 323.28 94.03 C 323.24 94.52 323.16 95.50 323.12 96.00 C 318.75 97.89 314.07 98.98 309.61 100.64 C 309.51 100.14 309.32 99.14 309.23 98.64 Z" />
<path fill="#fbdfd8" opacity="1.00" d=" M 290.76 104.84 C 295.38 102.87 300.26 101.57 305.04 100.07 C 304.97 100.54 304.84 101.50 304.77 101.97 C 300.28 103.73 295.68 105.50 290.92 106.31 L 290.76 104.84 Z" />
<path fill="#fbdfd8" opacity="1.00" d=" M 271.87 110.87 C 276.77 109.32 281.55 107.23 286.62 106.31 C 286.63 106.68 286.65 107.41 286.67 107.78 C 282.35 109.73 277.73 111.26 273.10 112.18 L 271.87 110.87 Z" />
<path fill="#fbdfd8" opacity="1.00" d=" M 252.21 146.20 C 255.60 142.77 258.96 139.29 262.54 136.06 C 263.39 137.15 264.27 138.22 265.23 139.22 C 265.37 139.27 265.64 139.39 265.78 139.45 L 266.66 139.78 C 272.81 146.16 279.14 152.37 285.43 158.61 C 285.43 159.05 285.44 159.92 285.44 160.36 C 282.61 162.98 280.18 166.05 276.99 168.25 C 279.47 165.44 282.47 163.10 284.74 160.11 C 285.15 158.44 283.44 157.53 282.60 156.40 C 277.11 151.01 271.68 145.57 266.27 140.09 C 263.10 143.62 259.72 146.94 256.34 150.26 C 254.91 148.96 253.54 147.60 252.21 146.20 Z" />
<path fill="#fbdfd8" opacity="1.00" d=" M 768.56 337.93 C 769.34 335.22 772.15 333.37 774.96 333.80 C 789.97 335.61 804.97 337.53 819.97 339.46 C 823.12 339.81 825.52 343.02 824.96 346.16 C 824.59 349.40 821.16 351.68 818.01 351.05 C 804.95 349.53 791.93 347.68 778.87 346.26 C 778.58 346.64 778.00 347.40 777.71 347.78 C 755.84 411.15 734.02 474.53 712.14 537.89 C 711.31 540.85 708.33 542.53 705.68 543.60 C 697.79 544.04 689.85 543.52 681.95 543.82 C 681.43 544.07 680.38 544.57 679.85 544.82 C 684.40 548.06 688.81 552.02 690.52 557.53 C 693.60 565.99 690.77 576.18 683.76 581.82 C 676.96 587.68 666.55 588.67 658.73 584.30 C 650.22 579.83 645.44 569.48 647.59 560.10 C 648.87 553.57 653.58 548.49 658.94 544.90 C 658.47 544.63 657.54 544.09 657.07 543.82 C 625.07 543.74 593.05 543.65 561.06 543.86 C 560.76 544.14 560.16 544.69 559.86 544.96 C 565.68 548.95 570.76 554.78 571.37 562.10 C 572.98 572.96 565.20 584.01 554.54 586.40 C 545.72 588.63 535.74 584.88 530.76 577.23 C 525.41 569.67 525.70 558.70 531.45 551.43 C 533.25 548.88 535.96 547.25 538.20 545.14 L 538.09 543.94 C 531.77 543.38 525.39 544.13 519.07 543.56 C 515.17 542.78 513.20 537.60 515.67 534.44 C 517.68 531.33 521.76 531.99 524.94 531.92 C 583.83 531.89 642.73 532.05 701.62 531.84 C 705.20 521.48 708.98 511.18 712.26 500.72 C 646.49 493.84 580.61 487.84 514.81 481.20 C 512.01 481.05 509.80 478.64 509.50 475.93 C 502.88 439.91 496.23 403.90 489.65 367.88 C 488.71 364.46 491.41 360.63 495.00 360.57 C 509.46 360.39 523.93 360.57 538.40 360.49 C 597.61 360.52 656.83 360.50 716.05 360.50 C 720.16 360.50 724.28 360.49 728.40 360.50 C 738.96 360.52 749.52 360.45 760.08 360.56 L 760.79 360.21 C 763.54 352.84 765.87 345.32 768.56 337.93 M 503.42 372.52 L 502.81 372.84 C 503.61 378.95 504.77 385.03 506.08 391.05 L 507.05 391.49 L 507.84 391.04 C 509.80 385.10 511.70 379.09 513.13 373.00 C 510.30 371.58 506.55 372.40 503.42 372.52 M 521.10 372.36 C 517.12 385.16 513.22 398.00 509.70 410.93 C 512.13 424.85 514.65 438.79 517.39 452.66 C 517.78 452.76 518.56 452.96 518.95 453.06 C 524.25 436.22 529.31 419.26 534.03 402.25 C 537.03 393.63 539.28 384.76 542.04 376.06 C 542.18 374.94 543.03 373.70 542.37 372.63 C 540.69 372.15 538.92 372.32 537.21 372.27 C 531.84 372.37 526.47 372.24 521.10 372.36 M 550.73 372.53 C 549.15 376.19 548.37 380.12 547.14 383.91 C 541.49 403.22 535.51 422.44 530.06 441.80 C 527.14 451.10 524.22 460.42 521.81 469.87 C 523.52 470.14 525.24 470.37 526.98 470.57 C 532.32 470.97 537.64 471.69 543.00 472.00 C 552.93 438.90 562.87 405.80 572.50 372.62 C 565.27 372.11 557.96 372.14 550.73 372.53 M 580.26 372.35 C 573.87 393.16 567.82 414.08 561.57 434.94 C 558.01 447.58 553.70 460.03 550.62 472.80 C 557.67 473.54 564.71 474.34 571.79 474.83 C 578.39 452.93 584.84 430.98 591.37 409.06 C 594.79 396.84 598.99 384.82 601.92 372.47 C 594.70 372.15 587.48 372.33 580.26 372.35 M 609.73 372.42 C 599.63 406.65 589.18 440.80 579.37 475.11 C 586.04 477.11 593.39 476.60 600.32 477.76 C 607.09 456.63 613.02 435.24 619.48 414.01 C 623.39 400.27 627.92 386.68 631.48 372.86 C 630.11 372.12 628.49 372.36 627.01 372.28 C 621.25 372.35 615.49 372.20 609.73 372.42 M 639.41 372.38 C 628.78 407.61 618.32 442.90 607.94 478.21 C 614.97 479.40 622.12 479.73 629.21 480.52 C 639.78 445.74 649.91 410.84 660.38 376.04 C 660.55 374.88 661.34 373.54 660.63 372.47 C 653.57 372.10 646.48 372.35 639.41 372.38 M 668.41 374.05 C 657.90 409.75 646.99 445.35 636.78 481.13 C 643.83 482.12 650.95 482.69 658.05 483.25 C 668.95 446.36 680.11 409.54 690.84 372.61 C 684.90 372.00 678.92 372.44 672.97 372.28 C 671.30 372.42 668.66 371.66 668.41 374.05 M 698.50 372.39 C 691.02 397.30 683.67 422.25 676.25 447.18 C 672.76 459.49 668.61 471.62 665.57 484.05 C 672.65 484.75 679.71 485.62 686.82 486.01 C 693.80 462.61 700.74 439.19 707.71 415.78 C 709.59 409.09 711.91 402.49 713.25 395.67 C 716.29 388.23 718.19 380.36 720.37 372.63 C 713.09 372.15 705.79 372.27 698.50 372.39 M 728.15 372.38 C 727.64 373.86 727.12 375.33 726.87 376.87 C 719.89 399.56 713.14 422.38 706.53 445.14 C 702.88 456.68 699.64 468.34 696.08 479.91 C 695.35 482.18 694.79 484.51 694.40 486.87 C 697.26 487.18 700.13 487.45 702.99 487.76 C 704.45 487.91 705.89 488.09 707.37 488.11 C 709.22 488.21 711.87 489.34 712.43 486.67 C 713.52 481.74 715.71 477.13 716.92 472.24 C 728.03 439.11 739.05 405.93 749.81 372.68 C 742.63 371.90 735.36 372.43 728.15 372.38 M 544.33 550.50 C 537.20 552.80 532.56 560.89 534.45 568.20 C 536.16 576.41 545.48 581.93 553.49 579.31 C 561.47 577.18 566.53 567.83 563.62 560.02 C 561.20 552.27 551.98 547.66 544.33 550.50 M 664.40 550.56 C 657.00 552.96 652.44 561.64 654.90 569.08 C 656.94 576.60 665.41 581.50 672.96 579.51 C 681.26 577.74 686.77 568.19 683.85 560.15 C 681.49 552.26 672.10 547.62 664.40 550.56 Z" />
<path fill="#fbdfd8" opacity="1.00" d=" M 545.47 552.53 C 551.78 550.45 559.24 554.15 561.36 560.46 C 563.81 566.80 560.20 574.61 553.77 576.81 C 547.29 579.45 539.21 575.68 537.07 569.03 C 534.52 562.44 538.67 554.37 545.47 552.53 Z" />
<path fill="#fbdfd8" opacity="1.00" d=" M 665.51 552.58 C 672.34 550.18 680.53 554.77 681.96 561.88 C 683.78 568.70 678.83 576.23 671.90 577.39 C 665.12 578.92 657.78 573.89 656.75 567.03 C 655.55 560.90 659.52 554.33 665.51 552.58 Z" />
</g>
<g id="#fde6dbff">
<path fill="#fde6db" opacity="1.00" d=" M 484.58 80.79 C 489.39 81.50 494.16 82.48 498.77 84.07 C 498.65 84.59 498.41 85.63 498.29 86.15 L 498.06 86.70 C 493.42 85.48 488.72 84.49 483.98 83.76 C 484.18 82.77 484.38 81.78 484.58 80.79 Z" />
<path fill="#fde6db" opacity="1.00" d=" M 107.61 551.25 C 133.67 550.74 159.76 551.04 185.83 551.08 C 185.91 560.03 186.27 569.01 185.64 577.95 L 185.17 578.40 C 161.45 578.48 137.72 578.43 114.00 578.40 C 111.80 578.23 109.26 578.70 107.41 577.21 C 107.86 568.57 107.50 559.90 107.61 551.25 Z" />
</g>
<g id="#685a5794">
<path fill="#685a57" opacity="0.58" d=" M 379.26 90.96 C 379.86 90.96 381.05 90.97 381.65 90.97 L 381.75 91.64 C 380.43 92.71 379.60 92.48 379.26 90.96 Z" />
</g>
<g id="#421b1fff">
<path fill="#421b1f" opacity="1.00" d=" M 228.44 100.51 C 238.00 97.03 249.45 102.55 252.90 112.06 C 255.60 118.98 254.00 127.42 248.67 132.68 C 243.97 137.55 236.60 139.75 230.02 138.02 C 221.39 136.19 214.79 127.79 215.00 118.98 C 214.84 110.76 220.63 102.95 228.44 100.51 Z" />
</g>
<g id="#d6fefeff">
<path fill="#d6fefe" opacity="1.00" d=" M 160.10 102.17 C 162.50 98.12 168.59 102.90 165.25 106.19 C 160.74 111.57 156.33 117.04 151.87 122.47 C 150.19 124.62 148.09 126.40 145.88 127.99 C 144.94 126.93 143.94 125.91 143.14 124.74 C 142.81 123.06 144.14 121.69 144.96 120.37 C 150.03 114.32 155.06 108.24 160.10 102.17 Z" />
<path fill="#d6fefe" opacity="1.00" d=" M 181.73 109.93 C 181.75 106.68 187.00 105.92 187.93 109.04 C 189.31 117.24 190.07 125.55 191.15 133.80 C 191.25 135.31 191.35 136.82 191.43 138.34 C 189.95 138.81 188.48 139.33 186.95 139.58 C 184.69 138.05 184.82 135.07 184.20 132.71 C 183.55 132.25 182.90 131.78 182.27 131.29 C 182.78 131.45 183.80 131.78 184.31 131.94 C 183.49 124.60 182.32 117.29 181.73 109.93 Z" />
<path fill="#d6fefe" opacity="1.00" d=" M 105.67 278.66 C 113.12 275.61 120.24 271.74 127.95 269.33 L 128.98 268.99 C 130.56 270.64 131.54 272.70 132.45 274.77 C 123.38 279.02 114.03 282.68 104.91 286.83 C 103.42 287.47 101.93 288.12 100.45 288.76 C 83.59 296.07 66.73 303.34 49.91 310.73 C 48.87 308.34 47.29 305.67 48.83 303.12 L 49.29 302.94 C 68.19 295.10 86.81 286.59 105.67 278.66 Z" />
</g>
<g id="#7239c0ff">
<path fill="#7239c0" opacity="1.00" d=" M 537.63 115.63 C 541.60 110.92 546.88 107.38 552.73 105.44 C 562.26 113.92 572.13 122.03 581.68 130.49 C 572.35 133.59 565.23 141.05 560.61 149.52 C 560.17 150.29 559.75 151.07 559.35 151.85 C 553.11 163.53 549.20 176.99 539.22 186.23 C 535.80 189.47 531.60 191.73 527.23 193.38 C 517.56 185.00 507.86 176.65 498.09 168.39 C 503.32 166.28 508.33 163.42 512.10 159.17 C 523.73 146.59 526.48 128.53 537.63 115.63 M 538.32 120.36 C 529.63 132.07 526.20 146.79 517.38 158.41 C 513.85 163.11 509.15 166.81 503.90 169.42 C 511.95 176.09 519.55 183.40 527.88 189.68 C 540.25 184.26 546.51 171.41 551.76 159.77 C 557.05 147.93 563.40 135.02 575.90 129.44 C 568.01 122.62 560.31 115.48 552.06 109.14 C 546.48 111.38 541.91 115.62 538.32 120.36 Z" />
<path fill="#7239c0" opacity="1.00" d=" M 549.14 112.19 C 550.64 111.46 553.75 112.43 552.58 114.49 C 550.91 116.59 546.50 114.39 549.14 112.19 Z" />
<path fill="#7239c0" opacity="1.00" d=" M 546.01 115.52 C 549.26 116.74 552.72 116.61 555.92 115.30 C 559.86 118.52 563.64 121.93 567.57 125.16 C 565.34 127.25 564.84 130.13 566.14 132.88 C 550.84 146.55 549.21 169.47 533.97 183.20 C 530.64 182.13 527.11 182.17 523.86 183.48 C 519.99 180.23 516.23 176.84 512.29 173.67 C 514.33 171.54 515.22 168.70 513.69 165.97 C 529.00 152.21 530.61 129.18 546.01 115.52 M 532.93 138.95 C 532.24 140.32 531.63 141.73 531.31 143.24 C 529.37 146.04 531.07 150.11 530.41 153.38 L 531.42 153.35 C 531.43 155.79 532.84 157.82 534.12 159.78 C 534.48 159.67 535.21 159.45 535.57 159.34 C 537.46 160.95 539.70 161.72 542.20 161.33 C 543.79 160.49 545.47 159.79 547.10 158.99 C 548.81 158.10 548.38 155.94 548.44 154.38 L 549.57 154.44 C 549.67 150.15 549.80 145.67 547.45 141.88 C 545.38 140.53 543.41 139.04 541.38 137.63 C 539.43 137.65 537.48 137.61 535.55 137.50 C 534.67 137.99 533.80 138.47 532.93 138.95 Z" />
<path fill="#7239c0" opacity="1.00" d=" M 565.99 128.95 C 567.08 126.26 569.86 127.63 571.38 128.98 C 569.95 130.62 567.01 131.67 565.99 128.95 Z" />
<path fill="#7239c0" opacity="1.00" d=" M 534.02 144.14 C 535.07 143.65 536.13 143.15 537.18 142.64 C 537.79 142.96 538.99 143.60 539.60 143.92 C 539.07 144.90 538.54 145.88 538.03 146.86 C 537.42 146.73 536.19 146.48 535.58 146.35 C 537.52 149.82 540.76 144.69 543.23 146.75 C 545.94 148.40 545.43 151.94 545.95 154.64 C 544.62 155.13 543.30 155.63 541.99 156.14 C 541.11 155.54 540.23 154.95 539.37 154.35 C 539.74 153.63 540.48 152.18 540.85 151.46 C 541.53 151.81 542.89 152.52 543.57 152.87 C 543.19 152.35 542.43 151.32 542.05 150.80 C 539.98 150.19 537.75 153.07 535.77 151.30 C 533.35 149.75 534.29 146.53 534.02 144.14 Z" />
<path fill="#7239c0" opacity="1.00" d=" M 526.36 185.67 C 525.44 182.69 529.69 183.01 531.23 184.24 C 530.51 186.26 528.00 187.40 526.36 185.67 Z" />
<path fill="#7239c0" opacity="1.00" d=" M 128.92 211.91 C 141.74 221.29 158.37 218.29 172.80 215.30 C 173.34 215.19 174.41 214.98 174.94 214.88 C 187.32 212.44 201.45 211.62 212.06 219.69 C 210.71 232.35 209.62 245.05 208.42 257.73 C 200.78 252.30 191.11 250.49 181.91 251.55 C 168.93 252.71 156.27 257.21 143.12 256.32 C 136.75 255.94 130.62 253.62 125.34 250.09 C 126.57 237.36 127.75 224.64 128.92 211.91 M 146.93 221.73 C 141.49 221.46 136.22 219.76 131.41 217.25 C 130.34 227.59 129.54 237.95 128.43 248.28 C 132.86 250.78 137.79 252.43 142.89 252.78 C 159.16 254.17 174.73 246.80 190.99 247.96 C 196.26 248.24 201.31 249.98 205.97 252.39 C 206.93 241.99 207.94 231.60 208.86 221.19 C 204.24 218.79 199.21 217.10 193.98 216.80 C 178.06 215.65 162.84 222.63 146.93 221.73 Z" />
<path fill="#7239c0" opacity="1.00" d=" M 139.74 223.21 C 160.09 227.49 179.92 215.55 200.22 220.10 C 200.39 220.99 200.72 222.78 200.88 223.67 C 201.87 222.58 202.58 221.17 203.91 220.44 C 205.65 221.17 205.91 222.96 205.96 224.62 C 204.65 224.74 203.35 224.84 202.05 224.93 C 203.32 225.99 204.62 227.05 205.92 228.09 C 205.45 233.12 204.94 238.15 204.52 243.18 C 201.46 242.41 198.94 244.01 197.31 246.49 C 177.20 242.07 157.57 254.02 137.44 249.62 C 136.66 248.66 137.10 245.37 135.29 246.25 C 134.28 249.70 130.04 247.38 131.33 244.49 C 131.96 244.38 133.22 244.14 133.85 244.02 C 135.86 243.94 131.72 242.12 131.38 241.38 C 132.01 236.42 132.33 231.43 132.89 226.46 C 135.78 227.03 138.46 225.91 139.74 223.21 M 157.41 240.01 C 157.44 241.11 157.85 243.82 159.65 242.33 C 160.66 243.37 161.66 244.42 162.65 245.49 C 164.55 245.42 166.45 245.39 168.35 245.41 C 170.79 244.26 173.11 242.89 175.36 241.40 C 176.51 239.68 177.68 237.96 178.87 236.26 C 179.46 234.14 179.40 231.93 179.31 229.76 C 177.74 227.61 177.71 223.99 174.46 223.59 C 165.49 221.98 155.70 230.74 157.41 240.01 Z" />
<path fill="#7239c0" opacity="1.00" d=" M 133.29 221.33 C 135.11 219.09 138.36 222.64 136.58 224.59 C 134.55 225.46 133.06 223.14 133.29 221.33 Z" />
<path fill="#7239c0" opacity="1.00" d=" M 169.21 226.91 C 171.13 227.78 173.14 228.76 173.29 231.17 C 172.32 231.37 170.39 231.76 169.42 231.96 L 169.46 230.28 C 169.08 230.32 168.30 230.40 167.92 230.43 C 168.61 233.14 172.83 233.06 172.72 235.99 C 172.95 239.18 169.75 240.83 167.89 242.88 C 165.92 241.52 163.78 240.11 164.01 237.38 C 164.82 237.23 166.45 236.95 167.26 236.81 C 167.62 237.75 168.08 238.65 168.63 239.50 C 168.65 238.79 168.69 237.38 168.71 236.68 C 167.35 235.60 164.76 235.09 164.74 233.00 C 164.35 230.04 167.46 228.69 169.21 226.91 Z" />
</g>
<g id="#12e3dbff">
<path fill="#12e3db" opacity="1.00" d=" M 118.64 120.40 C 119.22 116.54 123.56 114.46 127.13 115.36 C 133.14 116.76 138.99 118.81 144.96 120.37 C 144.14 121.69 142.81 123.06 143.14 124.74 C 143.94 125.91 144.94 126.93 145.88 127.99 C 148.09 126.40 150.19 124.62 151.87 122.47 C 161.95 125.24 171.95 128.31 182.02 131.11 L 182.27 131.29 C 182.90 131.78 183.55 132.25 184.20 132.71 C 184.82 135.07 184.69 138.05 186.95 139.58 C 188.48 139.33 189.95 138.81 191.43 138.34 C 191.35 136.82 191.25 135.31 191.15 133.80 C 197.21 135.59 203.36 137.17 209.36 139.18 C 210.08 139.56 210.78 139.96 211.47 140.40 C 213.73 142.25 214.68 145.61 213.25 148.25 C 206.99 160.95 200.57 173.58 194.29 186.27 C 192.68 190.08 188.19 192.58 184.13 191.38 C 177.59 189.65 171.07 187.80 164.67 185.60 C 162.92 185.05 161.14 184.62 159.36 184.19 C 146.17 180.62 133.10 176.58 119.94 172.88 C 115.55 171.99 112.36 167.47 113.19 163.02 C 114.94 148.81 116.79 134.60 118.64 120.40 M 125.23 125.35 C 124.52 127.14 124.39 129.09 124.05 130.98 C 122.35 142.37 120.38 153.72 118.74 165.11 C 117.86 168.40 123.91 170.27 124.29 166.53 C 126.51 155.05 128.42 143.50 130.62 132.00 C 130.87 130.35 131.31 128.68 131.15 127.01 C 130.16 124.91 127.13 123.76 125.23 125.35 M 136.16 128.20 C 135.14 129.21 135.18 130.78 134.80 132.08 C 132.65 143.23 130.45 154.38 128.26 165.53 C 128.12 167.10 127.24 169.05 128.69 170.29 C 129.90 171.70 132.94 171.61 133.35 169.51 C 136.19 157.58 138.57 145.53 141.31 133.57 C 141.47 132.10 142.34 130.27 141.07 129.07 C 139.92 127.81 137.61 127.12 136.16 128.20 M 146.43 131.47 C 142.93 143.05 140.85 155.11 137.80 166.85 C 137.52 168.88 136.05 171.53 138.02 173.11 C 139.39 174.50 142.28 173.93 142.61 171.87 C 145.75 160.27 148.58 148.58 151.67 136.96 C 151.92 135.44 152.91 133.66 151.76 132.26 C 150.61 130.70 147.98 130.19 146.43 131.47 M 157.22 134.37 C 156.26 135.24 156.17 136.65 155.74 137.81 C 152.68 149.57 149.23 161.24 146.25 173.01 C 145.07 176.29 150.84 178.01 151.71 174.70 C 155.48 162.41 159.16 150.07 162.69 137.71 C 163.75 134.75 159.43 132.84 157.22 134.37 M 168.20 137.25 C 167.05 137.66 166.89 139.05 166.46 140.02 C 162.91 151.52 159.27 163.00 155.69 174.49 C 155.45 175.66 154.75 177.14 155.90 178.08 C 157.33 179.98 160.65 179.24 161.07 176.86 C 165.17 164.91 169.21 152.94 173.19 140.96 C 174.55 138.11 170.43 135.97 168.20 137.25 M 178.38 140.55 C 177.40 141.32 177.17 142.65 176.68 143.74 C 172.83 154.86 168.83 165.93 164.94 177.04 C 164.39 178.44 163.92 180.56 165.67 181.35 C 167.62 182.51 170.08 181.22 170.47 179.04 C 174.88 167.33 179.40 155.64 183.74 143.90 C 185.06 140.92 180.52 138.85 178.38 140.55 M 189.36 143.41 C 187.79 144.26 187.50 146.23 186.77 147.71 C 182.52 158.89 177.85 169.91 173.70 181.13 C 172.44 184.56 178.53 185.66 179.32 182.40 C 184.36 170.61 189.37 158.80 194.23 146.94 C 195.73 144.08 191.51 142.19 189.36 143.41 M 199.51 146.69 C 198.22 147.78 197.80 149.59 197.04 151.05 C 192.40 162.08 187.29 172.91 182.79 183.98 C 181.72 187.17 187.31 188.20 188.32 185.34 C 193.94 173.62 199.37 161.78 204.79 149.96 C 206.32 146.91 201.65 145.07 199.51 146.69 Z" />
<path fill="#12e3db" opacity="1.00" d=" M 82.63 209.33 C 85.60 208.09 88.54 206.76 91.44 205.36 C 98.30 211.10 105.21 216.78 112.04 222.55 C 107.91 224.04 103.83 225.66 99.79 227.39 C 94.20 221.24 87.80 215.85 82.63 209.33 Z" />
<path fill="#12e3db" opacity="1.00" d=" M 62.85 217.91 C 65.84 216.71 68.78 215.39 71.71 214.07 C 76.51 220.49 81.83 226.52 86.22 233.23 L 86.42 233.53 C 82.84 234.91 79.32 236.43 75.84 238.02 L 75.15 238.32 C 70.97 231.56 66.91 224.74 62.85 217.91 Z" />
<path fill="#12e3db" opacity="1.00" d=" M 43.79 226.17 C 46.65 225.00 49.51 223.82 52.31 222.52 C 55.40 229.72 58.80 236.78 61.97 243.95 C 61.69 244.08 61.12 244.32 60.84 244.44 C 57.49 245.88 54.15 247.33 50.82 248.81 L 50.36 249.02 C 48.25 241.38 45.38 233.95 43.79 226.17 Z" />
<path fill="#12e3db" opacity="1.00" d=" M 23.55 235.14 C 26.60 233.68 29.69 232.29 32.79 230.91 C 34.33 238.87 36.05 246.81 36.99 254.87 C 33.14 256.64 29.18 258.16 25.12 259.39 C 24.85 251.29 24.15 243.22 23.55 235.14 Z" />
</g>
<g id="#ac3823ff">
<path fill="#ac3823" opacity="1.00" d=" M 248.28 142.21 C 252.23 139.50 255.60 136.03 258.18 131.99 C 258.45 132.18 258.99 132.56 259.25 132.74 C 260.30 133.41 261.20 134.25 261.93 135.27 C 262.08 135.46 262.39 135.86 262.54 136.06 C 258.96 139.29 255.60 142.77 252.21 146.20 C 250.95 144.81 249.63 143.50 248.28 142.21 Z" />
<path fill="#ac3823" opacity="1.00" d=" M 256.34 150.26 C 259.72 146.94 263.10 143.62 266.27 140.09 C 271.68 145.57 277.11 151.01 282.60 156.40 C 283.44 157.53 285.15 158.44 284.74 160.11 C 282.47 163.10 279.47 165.44 276.99 168.25 C 276.29 168.19 274.89 168.08 274.19 168.02 C 268.23 162.11 262.37 156.10 256.34 150.26 Z" />
</g>
<g id="#013794ff">
<path fill="#013794" opacity="1.00" d=" M 612.82 155.15 C 617.91 152.03 623.02 148.95 628.08 145.79 C 633.04 148.93 637.97 152.11 642.96 155.20 C 648.24 151.87 653.45 148.44 658.79 145.21 C 672.77 154.03 687.05 162.38 700.92 171.37 C 695.63 174.88 690.31 178.36 685.08 181.97 C 691.28 185.83 697.49 189.69 703.74 193.48 C 697.56 197.98 691.21 202.24 684.98 206.66 C 676.74 211.81 669.26 218.17 660.85 223.00 C 654.30 220.19 649.17 214.85 642.91 211.44 C 645.90 207.45 650.72 205.58 654.62 202.66 C 664.42 195.58 674.72 189.21 684.41 181.96 C 672.84 173.94 660.62 166.91 648.89 159.12 C 646.83 157.70 644.65 156.42 642.28 155.60 C 633.51 161.02 624.90 166.71 616.19 172.24 C 611.19 175.73 605.71 178.51 600.98 182.40 C 614.76 191.40 627.87 201.40 641.66 210.41 C 641.60 210.79 641.49 211.54 641.43 211.92 C 636.73 215.01 632.18 218.31 627.50 221.40 C 625.89 222.56 624.24 220.86 622.83 220.17 C 615.61 215.03 608.27 210.04 601.12 204.81 C 595.54 200.74 589.83 196.87 584.19 192.90 C 589.83 189.19 595.69 185.79 601.15 181.80 C 600.02 181.66 598.89 181.62 597.77 181.69 C 594.06 178.13 589.86 175.12 586.08 171.66 C 594.34 166.55 602.62 161.49 610.86 156.37 C 611.35 156.06 612.33 155.45 612.82 155.15 Z" />
</g>
<g id="#1c56adff">
<path fill="#1c56ad" opacity="1.00" d=" M 616.19 172.24 C 624.90 166.71 633.51 161.02 642.28 155.60 C 642.23 168.73 642.21 181.86 642.23 194.99 C 642.29 200.13 642.51 205.31 641.66 210.41 C 627.87 201.40 614.76 191.40 600.98 182.40 C 605.71 178.51 611.19 175.73 616.19 172.24 Z" />
<path fill="#1c56ad" opacity="1.00" d=" M 660.85 223.00 C 669.26 218.17 676.74 211.81 684.98 206.66 C 685.01 211.70 684.99 216.74 685.00 221.78 C 673.58 229.44 662.29 237.31 650.91 245.04 C 650.25 245.49 649.59 245.95 648.95 246.41 C 647.00 247.76 645.02 249.06 643.02 250.33 C 642.54 237.38 642.72 224.40 642.91 211.44 C 649.17 214.85 654.30 220.19 660.85 223.00 Z" />
</g>
<g id="#074aa8ff">
<path fill="#074aa8" opacity="1.00" d=" M 642.28 155.60 C 644.65 156.42 646.83 157.70 648.89 159.12 C 660.62 166.91 672.84 173.94 684.41 181.96 C 674.72 189.21 664.42 195.58 654.62 202.66 C 650.72 205.58 645.90 207.45 642.91 211.44 C 642.72 224.40 642.54 237.38 643.02 250.33 L 643.06 251.19 C 628.86 241.82 615.09 231.80 601.10 222.11 C 601.13 216.34 601.11 210.57 601.12 204.81 C 608.27 210.04 615.61 215.03 622.83 220.17 C 624.24 220.86 625.89 222.56 627.50 221.40 C 632.18 218.31 636.73 215.01 641.43 211.92 C 641.49 211.54 641.60 210.79 641.66 210.41 C 642.51 205.31 642.29 200.13 642.23 194.99 C 642.21 181.86 642.23 168.73 642.28 155.60 Z" />
</g>
<g id="#6935b1ff">
<path fill="#6935b1" opacity="1.00" d=" M 509.05 168.10 C 510.41 167.52 513.28 167.80 512.78 169.81 C 512.11 172.88 506.07 170.36 509.05 168.10 Z" />
</g>
<g id="#000000ed">
<path fill="#000000" opacity="0.93" d=" M 211.38 173.36 C 211.82 173.21 212.70 172.89 213.14 172.73 L 213.62 174.09 C 210.77 177.27 207.55 180.14 204.14 182.70 L 202.90 182.07 C 204.42 178.34 208.45 176.06 211.38 173.36 Z" />
</g>
<g id="#3deae3ff">
<path fill="#3deae3" opacity="1.00" d=" M 22.51 232.27 C 45.18 222.57 67.66 212.38 90.45 202.99 C 90.70 203.58 91.19 204.77 91.44 205.36 C 88.54 206.76 85.60 208.09 82.63 209.33 C 78.96 210.84 75.33 212.44 71.71 214.07 C 68.78 215.39 65.84 216.71 62.85 217.91 C 59.28 219.30 55.77 220.86 52.31 222.52 C 49.51 223.82 46.65 225.00 43.79 226.17 C 40.09 227.67 36.43 229.27 32.79 230.91 C 29.69 232.29 26.60 233.68 23.55 235.14 C 23.19 234.18 22.85 233.23 22.51 232.27 Z" />
<path fill="#3deae3" opacity="1.00" d=" M 99.79 227.39 C 103.83 225.66 107.91 224.04 112.04 222.55 C 112.38 223.26 113.06 224.67 113.40 225.38 C 112.05 230.60 105.89 232.60 101.08 231.43 C 100.75 230.19 100.40 228.96 100.02 227.74 L 99.79 227.39 Z" />
<path fill="#3deae3" opacity="1.00" d=" M 75.84 238.02 C 79.32 236.43 82.84 234.91 86.42 233.53 C 87.17 234.69 87.91 235.85 88.67 237.02 C 86.26 241.28 81.33 243.15 76.60 242.35 C 76.35 240.90 76.09 239.46 75.84 238.02 Z" />
<path fill="#3deae3" opacity="1.00" d=" M 50.82 248.81 C 54.15 247.33 57.49 245.88 60.84 244.44 C 61.51 244.96 62.83 246.02 63.49 246.54 C 63.48 252.16 56.26 253.82 51.73 253.08 C 51.43 251.66 51.12 250.23 50.82 248.81 Z" />
<path fill="#3deae3" opacity="1.00" d=" M 25.12 259.39 C 29.18 258.16 33.14 256.64 36.99 254.87 L 37.81 254.51 C 37.94 256.29 38.09 258.08 38.15 259.88 C 35.76 263.63 31.04 264.19 26.99 264.19 C 26.26 262.63 25.68 261.01 25.12 259.39 Z" />
</g>
<g id="#18bed6ff">
<path fill="#18bed6" opacity="1.00" d=" M 71.71 214.07 C 75.33 212.44 78.96 210.84 82.63 209.33 C 87.80 215.85 94.20 221.24 99.79 227.39 L 100.02 227.74 C 95.38 229.46 90.86 231.49 86.22 233.23 C 81.83 226.52 76.51 220.49 71.71 214.07 Z" />
<path fill="#18bed6" opacity="1.00" d=" M 52.31 222.52 C 55.77 220.86 59.28 219.30 62.85 217.91 C 66.91 224.74 70.97 231.56 75.15 238.32 C 70.78 240.24 66.36 242.06 61.97 243.95 C 58.80 236.78 55.40 229.72 52.31 222.52 Z" />
<path fill="#18bed6" opacity="1.00" d=" M 32.79 230.91 C 36.43 229.27 40.09 227.67 43.79 226.17 C 45.38 233.95 48.25 241.38 50.36 249.02 C 46.19 250.90 41.99 252.67 37.81 254.51 L 36.99 254.87 C 36.05 246.81 34.33 238.87 32.79 230.91 Z" />
</g>
<g id="#5b7978d8">
<path fill="#5b7978" opacity="0.85" d=" M 113.40 225.38 C 114.20 228.57 111.86 231.18 108.99 232.15 C 107.93 232.54 106.86 232.90 105.77 233.23 C 104.28 233.01 102.80 232.73 101.33 232.37 L 101.08 231.43 C 105.89 232.60 112.05 230.60 113.40 225.38 Z" />
</g>
<g id="#3ec8deff">
<path fill="#3ec8de" opacity="1.00" d=" M 86.22 233.23 C 90.86 231.49 95.38 229.46 100.02 227.74 C 100.40 228.96 100.75 230.19 101.08 231.43 L 101.33 232.37 L 101.27 232.50 C 97.97 235.91 93.45 237.86 88.67 237.02 C 87.91 235.85 87.17 234.69 86.42 233.53 L 86.22 233.23 Z" />
<path fill="#3ec8de" opacity="1.00" d=" M 75.15 238.32 L 75.84 238.02 C 76.09 239.46 76.35 240.90 76.60 242.35 C 73.78 246.22 67.97 250.05 63.49 246.54 C 62.83 246.02 61.51 244.96 60.84 244.44 C 61.12 244.32 61.69 244.08 61.97 243.95 C 66.36 242.06 70.78 240.24 75.15 238.32 Z" />
<path fill="#3ec8de" opacity="1.00" d=" M 50.36 249.02 L 50.82 248.81 C 51.12 250.23 51.43 251.66 51.73 253.08 C 49.09 257.31 44.15 259.44 39.26 258.46 C 38.99 258.81 38.43 259.52 38.15 259.88 C 38.09 258.08 37.94 256.29 37.81 254.51 C 41.99 252.67 46.19 250.90 50.36 249.02 Z" />
</g>
<g id="#412619ff">
<path fill="#412619" opacity="1.00" d=" M 101.33 232.37 C 102.80 232.73 104.28 233.01 105.77 233.23 C 110.66 244.98 115.80 256.63 121.05 268.22 C 111.77 272.24 102.49 276.23 93.23 280.30 C 87.41 268.41 82.72 256.00 76.91 244.10 L 77.06 243.96 C 79.13 243.74 81.25 243.81 83.29 243.33 C 85.95 242.62 87.71 240.35 89.50 238.42 C 94.08 238.78 99.97 237.68 101.27 232.50 L 101.33 232.37 Z" />
<path fill="#412619" opacity="1.00" d=" M 64.56 248.89 C 68.10 249.48 71.87 249.09 74.64 246.60 C 78.17 253.21 80.90 260.21 83.96 267.04 C 84.22 268.23 85.37 269.53 84.70 270.74 C 82.73 272.30 80.30 273.10 78.04 274.12 C 68.36 278.30 58.64 282.35 49.06 286.75 C 45.29 278.57 42.10 270.12 37.97 262.11 C 38.62 261.44 39.25 260.74 39.88 260.05 C 44.79 260.57 49.57 258.64 52.38 254.53 C 57.15 255.03 62.35 253.51 64.56 248.89 Z" />
</g>
<g id="#191817ff">
<path fill="#191817" opacity="1.00" d=" M 105.77 233.23 C 106.86 232.90 107.93 232.54 108.99 232.15 C 114.17 243.66 119.06 255.31 124.27 266.81 C 123.19 267.28 122.12 267.75 121.05 268.22 C 115.80 256.63 110.66 244.98 105.77 233.23 Z" />
<path fill="#191817" opacity="1.00" d=" M 74.64 246.60 C 75.39 245.77 76.15 244.93 76.91 244.10 C 82.72 256.00 87.41 268.41 93.23 280.30 C 78.69 286.61 64.06 292.76 49.64 299.34 C 44.66 287.78 39.58 276.27 34.52 264.74 C 35.72 263.93 36.87 263.04 37.97 262.11 C 42.10 270.12 45.29 278.57 49.06 286.75 C 58.64 282.35 68.36 278.30 78.04 274.12 C 80.30 273.10 82.73 272.30 84.70 270.74 C 85.37 269.53 84.22 268.23 83.96 267.04 C 80.90 260.21 78.17 253.21 74.64 246.60 Z" />
</g>
<g id="#747a75fc">
<path fill="#747a75" opacity="1.00" d=" M 88.67 237.02 C 93.45 237.86 97.97 235.91 101.27 232.50 C 99.97 237.68 94.08 238.78 89.50 238.42 C 87.71 240.35 85.95 242.62 83.29 243.33 C 81.25 243.81 79.13 243.74 77.06 243.96 L 76.91 244.10 C 76.15 244.93 75.39 245.77 74.64 246.60 C 71.87 249.09 68.10 249.48 64.56 248.89 C 62.35 253.51 57.15 255.03 52.38 254.53 C 49.57 258.64 44.79 260.57 39.88 260.05 C 39.25 260.74 38.62 261.44 37.97 262.11 C 36.87 263.04 35.72 263.93 34.52 264.74 C 32.02 265.16 29.33 265.30 26.99 264.19 C 31.04 264.19 35.76 263.63 38.15 259.88 C 38.43 259.52 38.99 258.81 39.26 258.46 C 44.15 259.44 49.09 257.31 51.73 253.08 C 56.26 253.82 63.48 252.16 63.49 246.54 C 67.97 250.05 73.78 246.22 76.60 242.35 C 81.33 243.15 86.26 241.28 88.67 237.02 Z" />
</g>
<g id="#6130a4ff">
<path fill="#6130a4" opacity="1.00" d=" M 201.10 243.79 C 203.48 243.69 205.42 248.49 202.08 248.14 C 199.97 248.09 199.09 244.76 201.10 243.79 Z" />
</g>
<g id="#0141d4ff">
<path fill="#0141d4" opacity="1.00" d=" M 555.42 251.16 C 555.73 250.45 556.05 249.76 556.39 249.07 C 559.49 254.51 562.76 259.91 565.02 265.78 C 561.05 267.97 557.04 270.05 553.01 272.10 C 554.06 265.15 554.38 258.10 555.42 251.16 Z" />
<path fill="#0141d4" opacity="1.00" d=" M 547.30 275.19 C 549.26 275.40 551.23 275.62 553.21 275.79 C 556.83 276.17 560.47 276.50 564.09 276.99 C 564.60 277.06 565.61 277.19 566.12 277.26 C 568.25 278.41 570.69 278.54 572.98 277.71 C 573.77 277.85 575.36 278.12 576.16 278.25 C 578.28 279.36 580.69 279.53 582.96 278.76 C 583.74 278.89 585.28 279.15 586.05 279.28 C 587.89 280.42 590.10 280.52 592.09 279.66 C 592.84 279.80 594.36 280.09 595.12 280.23 C 597.24 281.41 599.68 281.55 601.97 280.73 C 602.76 280.86 604.34 281.14 605.14 281.27 C 607.27 282.38 609.69 282.54 611.98 281.77 C 612.75 281.90 614.28 282.16 615.05 282.29 C 616.89 283.43 619.10 283.53 621.08 282.65 C 622.39 282.86 623.71 283.06 625.04 283.27 C 626.84 284.46 629.04 284.55 631.03 283.72 C 631.81 283.84 633.38 284.09 634.16 284.22 C 636.27 285.39 638.70 285.55 640.99 284.76 C 641.75 284.89 643.25 285.14 644.01 285.27 C 645.85 286.42 648.08 286.51 650.08 285.65 C 651.39 285.85 652.71 286.05 654.05 286.26 C 655.88 287.44 658.11 287.54 660.11 286.67 C 660.87 286.83 662.39 287.16 663.15 287.32 C 665.26 288.41 667.66 288.52 669.92 287.75 C 670.71 287.88 672.27 288.13 673.05 288.26 C 674.90 289.38 677.10 289.51 679.11 288.69 C 680.41 288.89 681.73 289.09 683.05 289.30 C 684.89 290.44 687.10 290.52 689.08 289.66 C 689.85 289.82 691.39 290.14 692.17 290.30 C 694.29 291.39 696.69 291.52 698.96 290.75 C 699.74 290.87 701.29 291.11 702.07 291.23 C 703.88 292.38 706.08 292.53 708.08 291.72 C 708.78 291.83 710.17 292.03 710.87 292.14 C 714.73 292.75 718.63 292.95 722.54 293.06 C 722.98 297.10 722.20 301.12 721.80 305.12 C 719.93 323.58 717.94 342.04 716.05 360.50 C 656.83 360.50 597.61 360.52 538.40 360.49 C 541.46 332.06 544.34 303.62 547.30 275.19 M 596.00 289.81 C 592.80 291.63 592.27 295.66 592.96 298.96 L 594.56 299.09 C 594.11 309.08 591.29 319.14 593.39 329.11 C 594.63 334.90 597.29 340.36 600.90 345.05 C 610.23 357.05 626.97 362.54 641.60 358.37 C 655.62 354.66 667.05 342.47 669.47 328.12 C 670.57 321.24 670.88 314.26 671.88 307.36 L 673.09 307.62 C 674.81 304.54 675.10 300.14 672.32 297.58 C 668.17 293.32 659.26 296.26 659.45 302.56 C 659.24 304.05 659.79 308.31 661.88 306.59 C 661.05 313.08 660.63 319.62 659.70 326.09 C 658.06 336.10 650.57 344.86 640.97 348.12 C 633.19 350.95 624.18 350.10 617.02 345.95 C 609.67 341.86 604.42 334.29 602.99 326.03 C 601.83 317.83 603.82 309.60 604.48 301.43 C 607.55 300.36 607.96 296.61 607.40 293.86 C 606.18 289.11 599.97 287.09 596.00 289.81 Z" />
<path fill="#0141d4" opacity="1.00" d=" M 537.21 372.27 C 538.92 372.32 540.69 372.15 542.37 372.63 C 543.03 373.70 542.18 374.94 542.04 376.06 C 539.28 384.76 537.03 393.63 534.03 402.25 C 535.19 392.27 536.15 382.26 537.21 372.27 Z" />
<path fill="#0141d4" opacity="1.00" d=" M 550.73 372.53 C 557.96 372.14 565.27 372.11 572.50 372.62 C 562.87 405.80 552.93 438.90 543.00 472.00 C 537.64 471.69 532.32 470.97 526.98 470.57 C 528.03 460.98 528.90 451.38 530.06 441.80 C 535.51 422.44 541.49 403.22 547.14 383.91 C 548.37 380.12 549.15 376.19 550.73 372.53 Z" />
<path fill="#0141d4" opacity="1.00" d=" M 580.26 372.35 C 587.48 372.33 594.70 372.15 601.92 372.47 C 598.99 384.82 594.79 396.84 591.37 409.06 C 584.84 430.98 578.39 452.93 571.79 474.83 C 564.71 474.34 557.67 473.54 550.62 472.80 C 553.70 460.03 558.01 447.58 561.57 434.94 C 567.82 414.08 573.87 393.16 580.26 372.35 Z" />
<path fill="#0141d4" opacity="1.00" d=" M 609.73 372.42 C 615.49 372.20 621.25 372.35 627.01 372.28 C 628.49 372.36 630.11 372.12 631.48 372.86 C 627.92 386.68 623.39 400.27 619.48 414.01 C 613.02 435.24 607.09 456.63 600.32 477.76 C 593.39 476.60 586.04 477.11 579.37 475.11 C 589.18 440.80 599.63 406.65 609.73 372.42 Z" />
<path fill="#0141d4" opacity="1.00" d=" M 639.41 372.38 C 646.48 372.35 653.57 372.10 660.63 372.47 C 661.34 373.54 660.55 374.88 660.38 376.04 C 649.91 410.84 639.78 445.74 629.21 480.52 C 622.12 479.73 614.97 479.40 607.94 478.21 C 618.32 442.90 628.78 407.61 639.41 372.38 Z" />
<path fill="#0141d4" opacity="1.00" d=" M 668.41 374.05 C 668.66 371.66 671.30 372.42 672.97 372.28 C 678.92 372.44 684.90 372.00 690.84 372.61 C 680.11 409.54 668.95 446.36 658.05 483.25 C 650.95 482.69 643.83 482.12 636.78 481.13 C 646.99 445.35 657.90 409.75 668.41 374.05 Z" />
<path fill="#0141d4" opacity="1.00" d=" M 698.50 372.39 C 705.79 372.27 713.09 372.15 720.37 372.63 C 718.53 372.67 716.70 372.71 714.87 372.75 C 714.25 380.38 712.47 387.98 713.25 395.67 C 711.91 402.49 709.59 409.09 707.71 415.78 C 700.74 439.19 693.80 462.61 686.82 486.01 C 679.71 485.62 672.65 484.75 665.57 484.05 C 668.61 471.62 672.76 459.49 676.25 447.18 C 683.67 422.25 691.02 397.30 698.50 372.39 Z" />
<path fill="#0141d4" opacity="1.00" d=" M 706.53 445.14 C 706.62 447.66 706.75 450.18 706.54 452.70 C 705.29 464.38 703.83 476.04 702.99 487.76 C 700.13 487.45 697.26 487.18 694.40 486.87 C 694.79 484.51 695.35 482.18 696.08 479.91 C 699.64 468.34 702.88 456.68 706.53 445.14 Z" />
</g>
<g id="#000000eb">
<path fill="#000000" opacity="0.92" d=" M 144.25 260.14 C 146.57 258.84 145.24 262.82 144.65 263.64 C 143.13 266.58 142.08 269.81 140.03 272.43 L 138.61 272.17 C 138.89 268.93 140.87 266.17 142.11 263.25 C 142.79 262.22 143.02 260.67 144.25 260.14 Z" />
</g>
<g id="#3a80deff">
<path fill="#3a80de" opacity="1.00" d=" M 553.01 272.10 C 557.04 270.05 561.05 267.97 565.02 265.78 C 564.94 269.53 564.50 273.26 564.09 276.99 C 560.47 276.50 556.83 276.17 553.21 275.79 C 551.42 275.55 549.63 275.24 547.87 274.96 C 549.55 273.97 551.27 273.01 553.01 272.10 Z" />
<path fill="#3a80de" opacity="1.00" d=" M 710.87 292.14 C 711.09 288.51 710.47 284.54 712.37 281.25 C 715.65 285.28 719.16 289.11 722.54 293.06 C 718.63 292.95 714.73 292.75 710.87 292.14 Z" />
</g>
<g id="#c1f8f8ff">
<path fill="#c1f8f8" opacity="1.00" d=" M 121.05 268.22 C 122.12 267.75 123.19 267.28 124.27 266.81 C 125.52 267.62 126.73 268.48 127.95 269.33 C 120.24 271.74 113.12 275.61 105.67 278.66 C 86.81 286.59 68.19 295.10 49.29 302.94 C 49.22 301.73 48.98 300.44 49.64 299.34 C 64.06 292.76 78.69 286.61 93.23 280.30 C 102.49 276.23 111.77 272.24 121.05 268.22 Z" />
</g>
<g id="#4e78e4ff">
<path fill="#4e78e4" opacity="1.00" d=" M 712.37 281.25 C 721.04 276.66 729.44 271.59 737.99 266.79 C 737.28 280.94 735.11 294.97 733.77 309.07 C 731.94 326.21 730.27 343.36 728.40 360.50 C 724.28 360.49 720.16 360.50 716.05 360.50 C 717.94 342.04 719.93 323.58 721.80 305.12 C 722.20 301.12 722.98 297.10 722.54 293.06 C 719.16 289.11 715.65 285.28 712.37 281.25 Z" />
<path fill="#4e78e4" opacity="1.00" d=" M 714.87 372.75 C 716.70 372.71 718.53 372.67 720.37 372.63 C 718.19 380.36 716.29 388.23 713.25 395.67 C 712.47 387.98 714.25 380.38 714.87 372.75 Z" />
<path fill="#4e78e4" opacity="1.00" d=" M 706.53 445.14 C 713.14 422.38 719.89 399.56 726.87 376.87 C 723.31 408.63 720.17 440.44 716.92 472.24 C 715.71 477.13 713.52 481.74 712.43 486.67 C 710.73 487.15 709.06 487.66 707.37 488.11 C 705.89 488.09 704.45 487.91 702.99 487.76 C 703.83 476.04 705.29 464.38 706.54 452.70 C 706.75 450.18 706.62 447.66 706.53 445.14 Z" />
</g>
<g id="#013eb0d5">
<path fill="#013eb0" opacity="0.84" d=" M 566.12 277.26 C 568.38 276.41 570.88 276.37 572.98 277.71 C 570.69 278.54 568.25 278.41 566.12 277.26 Z" />
<path fill="#013eb0" opacity="0.84" d=" M 576.16 278.25 C 578.40 277.38 580.92 277.32 582.96 278.76 C 580.69 279.53 578.28 279.36 576.16 278.25 Z" />
<path fill="#013eb0" opacity="0.84" d=" M 595.12 280.23 C 597.38 279.40 599.88 279.38 601.97 280.73 C 599.68 281.55 597.24 281.41 595.12 280.23 Z" />
<path fill="#013eb0" opacity="0.84" d=" M 605.14 281.27 C 607.39 280.41 609.91 280.34 611.98 281.77 C 609.69 282.54 607.27 282.38 605.14 281.27 Z" />
<path fill="#013eb0" opacity="0.84" d=" M 634.16 284.22 C 636.42 283.38 638.92 283.38 640.99 284.76 C 638.70 285.55 636.27 285.39 634.16 284.22 Z" />
<path fill="#013eb0" opacity="0.84" d=" M 692.17 290.30 C 694.39 289.37 696.90 289.33 698.96 290.75 C 696.69 291.52 694.29 291.39 692.17 290.30 Z" />
</g>
<g id="#013baed2">
<path fill="#013bae" opacity="0.82" d=" M 586.05 279.28 C 588.03 278.43 590.25 278.45 592.09 279.66 C 590.10 280.52 587.89 280.42 586.05 279.28 Z" />
<path fill="#013bae" opacity="0.82" d=" M 615.05 282.29 C 617.02 281.43 619.24 281.45 621.08 282.65 C 619.10 283.53 616.89 283.43 615.05 282.29 Z" />
<path fill="#013bae" opacity="0.82" d=" M 644.01 285.27 C 646.00 284.43 648.22 284.45 650.08 285.65 C 648.08 286.51 645.85 286.42 644.01 285.27 Z" />
<path fill="#013bae" opacity="0.82" d=" M 654.05 286.26 C 656.04 285.45 658.26 285.49 660.11 286.67 C 658.11 287.54 655.88 287.44 654.05 286.26 Z" />
<path fill="#013bae" opacity="0.82" d=" M 683.05 289.30 C 685.02 288.44 687.24 288.45 689.08 289.66 C 687.10 290.52 684.89 290.44 683.05 289.30 Z" />
</g>
<g id="#013eaed2">
<path fill="#013eae" opacity="0.82" d=" M 625.04 283.27 C 627.01 282.43 629.22 282.49 631.03 283.72 C 629.04 284.55 626.84 284.46 625.04 283.27 Z" />
</g>
<g id="#023db0db">
<path fill="#023db0" opacity="0.86" d=" M 663.15 287.32 C 665.37 286.38 667.87 286.33 669.92 287.75 C 667.66 288.52 665.26 288.41 663.15 287.32 Z" />
</g>
<g id="#013bb1d5">
<path fill="#013bb1" opacity="0.84" d=" M 673.05 288.26 C 675.04 287.41 677.28 287.43 679.11 288.69 C 677.10 289.51 674.90 289.38 673.05 288.26 Z" />
<path fill="#013bb1" opacity="0.84" d=" M 702.07 291.23 C 704.05 290.40 706.28 290.44 708.08 291.72 C 706.08 292.53 703.88 292.38 702.07 291.23 Z" />
</g>
<g id="#fddfd4ff">
<path fill="#fddfd4" opacity="1.00" d=" M 5.03 346.99 C 5.00 342.02 8.36 335.92 13.97 336.19 C 48.94 336.19 83.91 336.19 118.88 336.19 L 119.50 336.19 C 173.36 336.20 227.23 336.16 281.10 336.21 C 286.78 336.46 289.72 342.91 289.49 347.95 C 289.50 411.95 289.53 475.96 289.48 539.96 C 289.55 544.91 286.61 551.11 280.99 551.27 C 249.60 551.40 218.21 551.22 186.82 551.35 C 186.84 560.31 186.87 569.26 186.80 578.22 C 196.53 578.14 206.26 578.21 215.99 578.18 C 216.00 581.12 216.00 584.06 216.00 587.00 C 170.14 586.97 124.28 587.06 78.43 586.95 C 78.46 584.03 78.46 581.11 78.45 578.19 C 88.63 578.36 98.84 577.79 109.00 578.56 C 134.53 578.51 160.05 578.59 185.58 578.56 L 185.64 577.95 C 186.27 569.01 185.91 560.03 185.83 551.08 C 159.76 551.04 133.67 550.74 107.61 551.25 C 76.43 551.38 45.26 551.29 14.08 551.30 C 10.55 551.52 7.53 548.93 6.22 545.82 C 4.75 542.76 4.99 539.28 4.99 535.98 C 5.04 472.98 4.95 409.99 5.03 346.99 M 28.20 353.38 C 24.07 354.42 22.08 359.04 22.15 362.97 C 22.11 416.65 22.14 470.32 22.13 523.99 C 21.81 528.61 24.70 534.47 29.98 534.23 C 107.99 534.26 185.99 534.24 264.00 534.24 C 269.02 534.75 272.41 529.52 272.28 525.00 C 272.37 471.99 272.27 418.98 272.33 365.97 C 272.34 362.75 272.48 359.22 270.48 356.50 C 269.12 354.31 266.61 352.98 264.03 353.19 C 188.02 353.17 112.02 353.19 36.01 353.18 C 33.41 353.21 30.78 353.00 28.20 353.38 Z" />
</g>
</svg>
