<?xml version="1.0" encoding="UTF-8" ?>
<!DOCTYPE svg PUBLIC "-//W3C//DTD SVG 1.1//EN" "http://www.w3.org/Graphics/SVG/1.1/DTD/svg11.dtd">
<svg width="512pt" height="512pt" viewBox="0 0 512 512" version="1.1" xmlns="http://www.w3.org/2000/svg">
<g id="#73f2c3ff">
<path fill="#73f2c3" opacity="1.00" d=" M 164.50 49.45 C 176.36 37.04 188.08 24.50 200.00 12.14 C 210.51 22.93 220.69 34.06 231.20 44.86 C 233.59 47.14 235.40 50.53 238.91 51.19 C 263.52 57.27 286.51 69.56 305.49 86.34 C 332.19 109.84 350.76 142.45 357.15 177.45 C 364.03 185.14 371.25 192.50 378.32 199.99 C 372.22 200.02 366.11 199.98 360.01 200.01 C 361.03 234.62 350.83 269.56 330.79 297.86 C 330.19 298.89 329.16 299.79 329.01 301.02 C 336.66 309.29 344.88 317.03 352.60 325.24 C 356.19 322.82 359.75 320.10 364.08 319.15 C 371.46 317.36 379.90 319.06 385.30 324.62 C 417.79 357.13 450.31 389.62 482.80 422.13 C 490.07 429.36 491.74 441.67 486.27 450.41 C 484.48 453.47 481.74 455.78 479.29 458.28 C 469.80 467.78 460.29 477.26 450.82 486.77 C 447.89 489.86 444.60 492.75 440.59 494.31 C 432.24 497.92 422.10 495.62 415.72 489.28 C 383.39 456.95 351.04 424.63 318.73 392.28 C 309.89 383.51 309.65 367.60 319.17 359.23 C 311.37 351.01 303.17 343.19 295.24 335.11 C 287.85 340.39 280.00 344.97 271.99 349.24 C 272.02 371.49 272.00 393.75 272.00 416.00 C 266.66 416.01 261.33 416.02 256.00 416.00 C 256.00 396.01 255.98 376.03 256.01 356.05 C 220.34 369.75 179.70 369.65 143.99 356.14 C 144.03 376.10 143.98 396.06 144.02 416.02 C 138.68 415.99 133.34 416.00 128.00 416.00 C 128.01 393.73 127.97 371.46 128.02 349.19 C 100.58 335.07 77.16 313.19 61.70 286.45 C 46.40 260.46 39.13 230.09 39.99 200.01 C 33.88 199.99 27.78 200.02 21.67 199.99 C 28.71 192.48 35.94 185.14 42.80 177.46 C 48.42 146.90 63.26 118.17 84.71 95.71 C 104.62 74.90 130.21 59.46 158.05 51.97 C 160.24 51.29 162.79 51.17 164.50 49.45 M 58.47 184.00 C 86.98 184.00 115.49 183.99 144.00 184.00 C 144.01 223.80 143.99 263.59 144.01 303.38 C 159.54 312.23 177.13 317.64 195.03 318.24 C 216.23 319.34 237.63 313.97 255.98 303.34 C 256.01 263.56 256.00 223.77 255.98 183.98 C 284.49 184.02 312.99 183.98 341.50 184.00 C 294.50 134.47 247.08 85.34 200.00 35.89 C 152.90 85.33 105.51 134.50 58.47 184.00 M 66.52 152.76 C 90.88 126.92 115.44 101.26 139.82 75.44 C 106.69 90.66 80.10 118.98 66.52 152.76 M 260.29 75.53 C 284.67 101.51 309.47 127.10 333.73 153.19 C 320.32 119.19 293.40 90.94 260.29 75.53 M 56.02 200.01 C 55.33 219.86 58.44 239.91 65.76 258.41 C 75.49 283.52 92.55 305.65 114.08 321.77 C 137.32 339.23 165.98 349.47 195.06 350.26 C 213.11 351.02 231.29 348.23 248.32 342.18 C 265.88 336.00 281.96 326.02 295.97 313.84 C 307.73 324.87 318.84 336.66 330.38 347.95 C 334.05 344.17 337.86 340.52 341.51 336.71 C 330.15 325.23 318.67 313.87 307.27 302.42 C 315.90 292.70 323.38 281.93 329.16 270.27 C 340.07 248.63 344.87 224.17 343.99 200.00 C 338.66 200.02 333.33 199.99 328.00 200.00 C 328.59 219.81 325.14 239.83 317.00 257.96 C 305.54 283.91 285.16 305.77 260.18 319.18 C 241.78 329.01 220.94 334.48 200.05 334.23 C 173.08 334.54 146.23 325.48 124.53 309.53 C 104.86 295.06 89.30 274.96 80.57 252.12 C 74.11 235.59 71.46 217.70 72.00 200.00 C 66.67 199.99 61.34 200.02 56.02 200.01 M 88.14 200.02 C 87.20 216.55 89.97 233.28 96.27 248.59 C 103.06 265.44 114.27 280.26 127.95 292.12 C 128.06 261.42 127.96 230.71 128.00 200.00 C 114.71 200.02 101.43 199.98 88.14 200.02 M 272.00 200.00 C 272.02 230.70 271.98 261.40 272.02 292.11 C 279.99 285.04 287.40 277.25 293.22 268.29 C 306.65 248.37 313.27 223.99 311.84 200.02 C 298.56 199.98 285.28 200.02 272.00 200.00 M 363.26 337.21 C 353.86 347.13 343.94 356.56 334.37 366.33 C 332.85 367.92 331.27 369.48 329.39 370.65 C 327.30 373.69 327.45 378.10 330.24 380.67 C 362.25 412.70 394.28 444.71 426.30 476.73 C 429.35 480.25 435.40 479.85 438.22 476.23 C 449.21 465.19 460.26 454.20 471.26 443.17 C 474.45 440.23 474.38 434.86 471.21 431.94 C 439.22 399.87 407.17 367.86 375.13 335.83 C 371.92 332.35 365.47 332.88 363.26 337.21 Z" />
<path fill="#73f2c3" opacity="1.00" d=" M 127.98 431.98 C 133.32 432.00 138.66 432.00 144.01 432.00 C 143.99 442.67 144.02 453.33 144.00 464.00 C 138.67 464.01 133.33 464.02 128.00 464.00 C 127.98 453.32 128.02 442.65 127.98 431.98 Z" />
<path fill="#73f2c3" opacity="1.00" d=" M 256.00 432.00 C 261.33 432.01 266.66 431.98 272.00 431.99 C 272.01 442.66 272.00 453.33 272.00 464.00 C 266.66 464.00 261.32 463.99 255.99 464.01 C 256.02 453.34 255.98 442.67 256.00 432.00 Z" />
<path fill="#73f2c3" opacity="1.00" d=" M 128.00 480.00 C 133.33 480.01 138.67 479.97 144.00 479.99 C 144.00 485.33 143.99 490.67 144.02 496.02 C 138.68 495.99 133.33 496.00 127.99 496.00 C 127.98 490.66 128.01 485.33 128.00 480.00 Z" />
<path fill="#73f2c3" opacity="1.00" d=" M 256.00 480.00 C 261.33 479.97 266.66 480.01 272.00 480.00 C 272.02 485.33 272.01 490.66 272.00 496.00 C 266.66 496.01 261.33 496.01 256.00 496.00 C 256.01 490.66 255.97 485.33 256.00 480.00 Z" />
</g>
</svg>
