<?xml version="1.0" encoding="UTF-8" ?>
<!DOCTYPE svg PUBLIC "-//W3C//DTD SVG 1.1//EN" "http://www.w3.org/Graphics/SVG/1.1/DTD/svg11.dtd">
<svg width="512pt" height="512pt" viewBox="0 0 512 512" version="1.1" xmlns="http://www.w3.org/2000/svg">
<g id="#e14ecaff">
<path fill="#e14eca" opacity="1.00" d=" M 23.50 22.41 C 27.89 18.27 33.92 16.06 39.91 15.98 C 165.65 16.02 291.38 15.98 417.11 16.00 C 429.22 16.21 439.73 26.76 440.00 38.85 C 440.00 108.57 440.01 178.28 440.00 248.00 C 434.66 248.01 429.33 248.02 424.00 248.00 C 423.99 216.00 423.99 184.00 424.00 152.00 C 293.33 152.00 162.67 152.01 32.00 152.00 C 32.00 253.33 32.01 354.67 32.00 456.00 C 109.34 455.99 186.67 456.01 264.01 455.99 C 263.99 461.32 264.00 466.66 264.00 472.00 C 181.33 472.01 98.67 472.01 16.00 472.00 C 15.98 327.98 16.02 183.97 15.98 39.95 C 16.04 33.43 18.68 26.87 23.50 22.41 M 32.00 39.88 C 32.02 55.91 31.99 71.95 32.01 87.99 C 162.67 88.01 293.34 87.99 424.00 88.00 C 423.99 71.96 424.01 55.91 423.99 39.87 C 424.34 35.60 420.36 31.58 416.08 31.99 C 292.36 32.02 168.65 32.00 44.93 32.01 C 42.58 32.02 40.21 31.88 37.87 32.13 C 34.43 32.90 31.68 36.30 32.00 39.88 M 32.00 104.00 C 32.00 114.67 32.01 125.33 32.00 136.00 C 130.67 135.99 229.33 136.00 328.00 136.00 C 328.00 125.33 327.99 114.67 328.00 104.00 C 229.33 104.01 130.67 104.00 32.00 104.00 M 344.00 104.00 C 344.02 114.66 343.98 125.33 344.01 135.99 C 370.67 136.00 397.33 136.01 424.00 135.99 C 424.00 125.32 423.99 114.66 424.00 104.00 C 397.33 104.01 370.67 104.00 344.00 104.00 Z" />
<path fill="#e14eca" opacity="1.00" d=" M 312.45 48.55 C 320.75 45.43 330.18 54.30 327.66 62.77 C 326.12 69.45 318.17 74.07 311.75 71.16 C 305.53 68.95 301.99 61.02 305.09 55.04 C 306.49 51.98 309.23 49.54 312.45 48.55 Z" />
<path fill="#e14eca" opacity="1.00" d=" M 352.39 48.56 C 360.70 45.40 370.16 54.25 367.67 62.74 C 366.18 69.18 358.74 73.81 352.40 71.40 C 345.83 69.48 341.87 61.26 345.08 55.06 C 346.47 52.01 349.19 49.57 352.39 48.56 Z" />
<path fill="#e14eca" opacity="1.00" d=" M 392.45 48.56 C 400.71 45.43 410.11 54.24 407.68 62.68 C 406.22 69.14 398.76 73.82 392.40 71.39 C 385.83 69.48 381.86 61.24 385.10 55.04 C 386.50 51.99 389.23 49.55 392.45 48.56 Z" />
<path fill="#e14eca" opacity="1.00" d=" M 48.00 168.00 C 168.00 167.99 288.00 167.99 408.00 168.00 C 408.02 173.33 407.99 178.67 408.00 184.00 C 288.00 184.00 168.00 184.01 48.00 184.00 C 48.01 178.66 47.97 173.33 48.00 168.00 Z" />
<path fill="#e14eca" opacity="1.00" d=" M 48.00 200.00 C 168.00 199.99 288.00 199.99 408.00 200.00 C 407.98 205.33 408.03 210.67 408.00 216.00 C 288.00 216.01 168.00 216.01 48.00 216.00 C 47.97 210.66 48.01 205.33 48.00 200.00 Z" />
<path fill="#e14eca" opacity="1.00" d=" M 48.00 248.00 C 125.33 247.99 202.67 247.99 280.00 248.00 C 279.98 253.33 280.03 258.67 280.00 264.00 C 202.67 264.01 125.33 264.01 48.00 264.00 C 48.01 258.66 47.96 253.33 48.00 248.00 Z" />
<path fill="#e14eca" opacity="1.00" d=" M 376.04 344.00 C 394.73 317.43 413.22 290.71 431.99 264.20 C 450.76 290.70 469.27 317.40 487.94 343.99 C 477.29 344.03 466.65 343.98 456.02 344.00 C 455.98 394.67 456.02 445.33 456.00 496.00 C 440.00 496.01 424.00 496.01 408.00 496.00 C 408.00 445.33 407.99 394.67 408.00 344.00 C 397.35 344.01 386.70 344.00 376.04 344.00 M 406.38 327.97 C 412.25 328.00 418.12 327.99 424.00 328.00 C 424.01 378.67 424.00 429.33 424.00 480.00 C 429.33 480.00 434.66 480.01 440.00 479.98 C 440.00 429.32 439.99 378.66 440.00 328.00 C 445.86 328.00 451.73 328.00 457.59 327.97 C 449.10 315.92 440.51 303.94 431.99 291.92 C 423.47 303.95 414.88 315.92 406.38 327.97 Z" />
<path fill="#e14eca" opacity="1.00" d=" M 48.00 280.00 C 162.67 279.99 277.33 279.99 392.00 280.00 C 392.02 285.33 392.01 290.66 392.00 296.00 C 277.33 296.01 162.66 296.01 48.00 296.00 C 47.97 290.66 48.01 285.33 48.00 280.00 Z" />
<path fill="#e14eca" opacity="1.00" d=" M 47.99 311.98 C 151.99 312.01 255.99 311.98 360.00 312.00 C 360.02 317.33 360.01 322.66 360.00 328.00 C 256.00 328.01 152.00 328.00 48.00 328.00 C 48.00 322.66 48.01 317.32 47.99 311.98 Z" />
<path fill="#e14eca" opacity="1.00" d=" M 48.00 360.00 C 125.34 359.98 202.68 360.01 280.01 359.99 C 279.99 365.32 280.00 370.66 280.00 376.00 C 202.66 376.01 125.33 376.01 48.00 376.00 C 47.97 370.66 48.01 365.33 48.00 360.00 Z" />
<path fill="#e14eca" opacity="1.00" d=" M 344.00 360.00 C 360.00 359.99 376.00 359.99 392.00 360.00 C 392.01 405.33 392.01 450.66 392.00 496.00 C 375.99 496.02 359.99 495.98 343.99 496.01 C 344.01 450.68 343.98 405.34 344.00 360.00 M 360.00 376.00 C 360.01 410.67 360.00 445.33 360.01 479.99 C 365.34 480.00 370.67 480.00 376.00 480.00 C 375.99 445.33 375.99 410.67 376.00 376.00 C 370.67 375.98 365.33 376.03 360.00 376.00 Z" />
<path fill="#e14eca" opacity="1.00" d=" M 47.99 391.98 C 119.99 392.02 192.00 391.98 264.00 392.00 C 264.02 397.33 263.99 402.66 264.00 408.00 C 192.00 408.01 120.00 408.00 48.00 408.00 C 48.00 402.66 48.01 397.32 47.99 391.98 Z" />
<path fill="#e14eca" opacity="1.00" d=" M 280.00 392.00 C 296.01 391.98 312.01 392.02 328.01 391.99 C 327.99 426.66 328.02 461.33 328.00 496.00 C 312.00 496.01 296.00 496.00 280.00 496.00 C 279.99 461.34 279.99 426.67 280.00 392.00 M 296.00 408.00 C 296.01 432.00 296.00 456.00 296.00 480.00 C 301.33 479.97 306.66 480.01 312.00 480.00 C 311.99 456.00 312.01 432.01 311.99 408.01 C 306.66 408.00 301.33 408.00 296.00 408.00 Z" />
<path fill="#e14eca" opacity="1.00" d=" M 48.00 424.00 C 120.00 423.99 192.00 423.99 264.00 424.00 C 263.98 429.33 264.03 434.66 264.00 440.00 C 192.00 440.01 120.00 440.01 48.00 440.00 C 47.98 434.67 47.99 429.33 48.00 424.00 Z" />
</g>
</svg>
