<?xml version="1.0" encoding="UTF-8" ?>
<!DOCTYPE svg PUBLIC "-//W3C//DTD SVG 1.1//EN" "http://www.w3.org/Graphics/SVG/1.1/DTD/svg11.dtd">
<svg width="512pt" height="512pt" viewBox="0 0 512 512" version="1.1" xmlns="http://www.w3.org/2000/svg">
<g id="#ed8870ff">
<path fill="#ed8870" opacity="1.00" d=" M 47.38 59.69 C 51.88 58.95 56.45 59.09 60.99 59.10 C 193.36 59.11 325.73 59.09 458.09 59.11 C 468.77 59.08 479.53 63.35 486.62 71.46 C 493.07 78.65 496.36 88.42 496.02 98.04 C 495.98 204.39 496.01 310.75 496.00 417.10 C 495.55 428.01 490.26 438.78 481.42 445.30 C 474.81 450.48 466.38 452.80 458.06 452.89 C 324.36 452.92 190.66 452.88 56.96 452.91 C 49.90 453.03 42.63 452.15 36.28 448.86 C 24.30 443.08 16.42 430.29 16.00 417.08 C 16.00 312.73 16.00 208.37 16.00 104.02 C 16.08 98.70 15.56 93.30 16.96 88.10 C 19.82 73.51 32.62 61.53 47.38 59.69 M 47.38 82.51 C 42.07 84.66 38.32 90.12 38.24 95.86 C 38.26 104.55 38.14 113.24 38.30 121.93 C 183.44 122.00 328.59 121.98 473.73 121.94 C 473.85 113.95 473.69 105.96 473.80 97.96 C 473.91 95.49 473.40 93.07 472.84 90.68 C 471.14 87.42 468.72 84.35 465.30 82.81 C 461.45 81.04 457.12 81.48 453.01 81.42 C 321.35 81.45 189.69 81.42 58.04 81.44 C 54.47 81.41 50.77 81.19 47.38 82.51 M 38.24 137.99 C 38.23 230.70 38.22 323.42 38.24 416.14 C 38.27 423.81 45.09 430.70 52.84 430.41 C 188.23 430.46 323.62 430.54 459.01 430.55 C 465.05 430.73 470.36 426.67 472.84 421.34 C 473.89 417.65 473.88 413.80 473.77 410.00 C 473.77 319.33 473.75 228.66 473.78 137.99 C 328.60 137.95 183.42 137.95 38.24 137.99 Z" />
<path fill="#ed8870" opacity="1.00" d=" M 64.52 94.13 C 69.46 91.92 75.81 95.58 76.05 101.04 C 76.75 107.04 69.45 112.02 64.18 108.86 C 58.11 106.22 58.48 96.62 64.52 94.13 Z" />
<path fill="#ed8870" opacity="1.00" d=" M 92.61 94.39 C 97.20 91.95 103.77 94.78 104.37 100.15 C 105.91 106.33 98.65 111.99 93.03 109.08 C 86.92 106.67 86.61 97.10 92.61 94.39 Z" />
<path fill="#ed8870" opacity="1.00" d=" M 121.53 94.15 C 126.38 91.94 132.65 95.43 133.03 100.79 C 134.00 106.87 126.55 112.06 121.21 108.86 C 115.15 106.22 115.52 96.68 121.53 94.15 Z" />
<path fill="#ed8870" opacity="1.00" d=" M 59.96 168.92 C 59.74 164.60 63.73 160.86 67.98 160.99 C 151.36 160.99 234.73 161.01 318.11 160.98 C 322.46 160.70 326.62 164.53 326.43 168.94 C 326.59 174.70 326.41 180.47 326.47 186.23 C 321.18 186.39 315.91 186.94 310.64 187.41 C 310.64 183.94 310.64 180.47 310.65 177.00 C 232.43 177.00 154.21 177.01 76.00 177.00 C 76.02 181.30 76.01 185.60 76.00 189.90 C 128.68 189.88 181.36 189.90 234.05 189.89 C 255.38 190.01 276.72 189.65 298.04 190.07 C 286.85 193.83 276.09 198.93 266.52 205.90 C 200.35 205.79 134.17 205.93 68.01 205.83 C 63.85 205.80 59.83 202.30 59.95 198.01 C 59.96 188.32 59.91 178.62 59.96 168.92 Z" />
<path fill="#ed8870" opacity="1.00" d=" M 310.91 203.79 C 330.75 200.14 351.93 204.08 369.03 214.81 C 387.99 226.47 401.82 246.11 406.27 267.94 C 411.14 290.02 405.97 313.79 393.22 332.36 C 408.04 347.04 422.73 361.85 437.50 376.58 C 440.48 379.64 444.12 382.51 445.24 386.84 C 448.17 394.97 441.48 404.56 432.96 405.13 C 428.61 405.58 424.15 403.94 421.14 400.79 C 407.17 386.79 393.19 372.81 379.20 358.84 C 376.99 356.92 375.30 354.17 372.67 352.88 C 365.01 357.64 356.97 361.96 348.19 364.26 C 328.48 369.86 306.64 367.88 288.37 358.54 C 273.59 351.15 261.25 339.08 253.25 324.64 C 246.14 311.66 242.69 296.73 243.11 281.96 C 243.96 263.17 251.01 244.58 263.65 230.57 C 275.74 216.61 292.70 206.93 310.91 203.79 M 312.36 219.70 C 285.92 224.72 264.01 247.36 259.98 274.00 C 256.98 291.14 261.24 309.38 271.36 323.53 C 280.00 335.79 292.96 344.89 307.39 348.96 C 322.49 353.21 339.11 352.05 353.35 345.43 C 369.22 338.22 381.98 324.48 387.97 308.11 C 393.91 292.23 393.42 274.06 386.65 258.52 C 380.99 245.21 370.68 234.01 358.14 226.86 C 344.38 219.12 327.83 216.56 312.36 219.70 Z" />
<path fill="#ed8870" opacity="1.00" d=" M 60.10 241.65 C 61.10 238.30 64.36 235.50 67.98 235.85 C 107.87 235.92 147.76 235.66 187.65 235.98 C 191.31 237.77 193.92 242.24 192.29 246.24 C 191.24 249.75 187.52 251.82 183.97 251.57 C 145.31 251.57 106.65 251.60 67.98 251.55 C 62.95 251.80 58.80 246.49 60.10 241.65 Z" />
<path fill="#ed8870" opacity="1.00" d=" M 315.90 252.59 C 337.72 248.92 361.10 256.73 376.14 272.99 C 379.12 276.88 377.48 283.31 372.80 285.01 C 369.54 286.43 365.75 285.24 363.40 282.73 C 359.49 278.83 354.99 275.59 350.05 273.14 C 351.03 279.55 349.51 286.37 345.40 291.46 C 341.32 296.89 334.76 300.14 328.06 300.74 C 317.56 301.39 307.13 294.26 304.15 284.12 C 302.75 280.64 302.87 276.86 303.03 273.19 C 298.24 275.82 293.75 279.00 289.82 282.80 C 287.35 285.50 282.93 285.89 279.94 283.85 C 275.77 281.43 274.95 274.82 278.68 271.63 C 288.61 261.53 301.90 254.76 315.90 252.59 M 315.27 267.90 C 314.23 269.02 312.92 270.03 312.54 271.60 C 311.46 275.20 315.68 279.10 319.15 277.42 C 322.53 276.45 323.55 271.39 320.83 269.20 C 319.51 267.41 317.16 268.09 315.27 267.90 Z" />
<path fill="#ed8870" opacity="1.00" d=" M 62.05 271.59 C 60.22 267.68 63.68 262.70 67.94 262.95 C 121.77 262.93 175.60 262.93 229.44 262.95 C 228.68 267.16 228.00 271.37 227.45 275.61 C 174.61 275.63 121.77 275.61 68.93 275.62 C 66.10 275.81 63.01 274.40 62.05 271.59 Z" />
<path fill="#ed8870" opacity="1.00" d=" M 65.40 289.06 C 68.17 288.15 71.14 288.62 73.99 288.53 C 115.03 288.57 156.07 288.50 197.10 288.56 C 199.63 288.38 202.09 289.76 203.25 292.01 C 205.71 295.70 202.19 301.17 197.95 301.13 C 154.94 301.15 111.93 301.13 68.92 301.14 C 66.76 301.35 64.58 300.74 63.21 298.99 C 60.15 296.15 61.62 290.52 65.40 289.06 Z" />
<path fill="#ed8870" opacity="1.00" d=" M 297.52 299.58 C 300.19 298.18 303.10 299.42 305.58 300.59 C 317.85 306.08 332.24 306.52 344.83 301.80 C 348.09 300.39 352.33 300.31 354.85 303.17 C 358.66 306.67 357.45 313.75 352.69 315.80 C 337.14 322.39 319.18 322.69 303.35 316.85 C 299.91 315.44 295.84 314.49 293.64 311.22 C 290.93 307.22 293.00 301.20 297.52 299.58 Z" />
<path fill="#ed8870" opacity="1.00" d=" M 59.98 350.16 C 59.28 345.55 63.46 341.19 68.05 341.31 C 101.39 341.23 134.75 341.28 168.09 341.29 C 171.63 341.13 175.25 343.25 176.29 346.72 C 178.15 351.35 174.26 357.34 169.16 357.06 C 134.55 357.09 99.95 357.13 65.34 357.04 C 62.72 355.61 60.15 353.35 59.98 350.16 Z" />
<path fill="#ed8870" opacity="1.00" d=" M 65.41 369.06 C 68.17 368.15 71.14 368.61 74.00 368.52 C 132.03 368.55 190.06 368.51 248.09 368.54 C 252.01 368.04 255.79 371.85 255.07 375.78 C 254.70 379.08 251.35 381.55 248.08 381.14 C 187.99 381.12 127.91 381.18 67.82 381.11 C 65.31 381.40 63.39 379.45 62.07 377.58 C 60.72 374.42 62.16 370.36 65.41 369.06 Z" />
<path fill="#ed8870" opacity="1.00" d=" M 66.25 394.28 C 68.45 393.74 70.74 394.06 72.99 393.99 C 119.66 394.00 166.33 394.00 213.00 393.99 C 216.16 393.78 218.91 396.28 219.94 399.13 C 220.75 402.57 217.91 405.94 214.69 406.77 C 212.14 407.13 209.56 406.93 207.00 406.97 C 160.97 406.96 114.94 406.96 68.91 406.97 C 65.77 407.10 62.40 405.15 61.75 401.91 C 60.81 398.65 63.10 395.20 66.25 394.28 Z" />
</g>
</svg>
