<?xml version="1.0" encoding="UTF-8" ?>
<!DOCTYPE svg PUBLIC "-//W3C//DTD SVG 1.1//EN" "http://www.w3.org/Graphics/SVG/1.1/DTD/svg11.dtd">
<svg width="512pt" height="512pt" viewBox="0 0 512 512" version="1.1" xmlns="http://www.w3.org/2000/svg">
<g id="#ea5b94ff">
<path fill="#ea5b94" opacity="1.00" d=" M 147.67 51.19 C 151.28 28.57 175.42 11.24 198.02 15.98 C 214.22 19.08 228.30 31.88 232.45 47.91 C 235.18 58.60 232.55 70.12 226.30 79.09 C 252.21 107.64 278.28 136.05 304.21 164.59 C 312.55 161.02 321.98 159.67 330.85 161.93 C 339.10 163.84 346.63 168.31 352.61 174.25 C 353.70 173.81 354.81 173.39 355.84 172.80 C 375.23 161.20 394.70 149.75 414.10 138.18 C 410.75 130.28 410.26 121.28 412.90 113.10 C 419.15 92.76 441.75 78.63 462.79 83.30 C 477.30 86.44 490.02 97.16 495.18 111.14 C 498.73 120.38 498.18 131.05 493.88 139.95 C 487.70 153.27 474.53 163.06 460.00 165.13 C 446.94 167.07 433.41 161.99 424.11 152.79 C 423.31 151.79 422.39 151.67 421.35 152.42 C 401.51 164.13 381.78 176.05 361.87 187.63 C 365.01 195.98 365.89 205.30 362.90 213.82 C 357.64 229.67 342.67 241.74 326.11 243.72 C 303.41 246.45 280.13 227.87 278.56 204.89 C 277.56 193.20 282.98 181.86 291.08 173.69 C 268.20 148.95 245.67 123.88 222.85 99.08 C 220.18 96.23 217.90 92.92 214.71 90.62 C 207.36 95.32 198.86 98.64 190.01 98.26 C 181.39 98.54 173.26 95.04 166.00 90.72 C 141.21 115.38 116.43 140.04 91.56 164.61 C 98.25 173.25 102.34 184.49 100.24 195.46 C 96.57 217.70 73.18 234.51 50.91 230.62 C 36.40 228.07 23.47 217.92 17.56 204.43 C 14.59 197.71 13.77 190.09 15.05 182.86 C 19.35 160.53 43.57 143.74 65.99 148.94 C 70.76 149.82 75.18 151.90 79.44 154.13 C 104.41 129.15 129.70 104.48 154.79 79.60 C 149.17 71.39 145.87 61.15 147.67 51.19 M 184.47 31.66 C 179.93 32.41 175.55 34.26 171.96 37.17 C 161.61 45.48 160.27 62.21 168.26 72.58 C 177.03 83.76 194.44 85.14 206.24 78.22 C 219.52 70.45 221.42 49.83 210.82 39.08 C 204.17 32.13 193.70 29.96 184.47 31.66 M 449.49 98.71 C 442.30 99.58 435.44 103.40 431.35 109.45 C 425.53 118.24 425.69 130.60 431.80 139.19 C 440.59 151.09 459.02 152.68 471.03 144.94 C 483.41 136.86 485.18 117.43 475.26 106.76 C 468.94 99.66 458.62 97.34 449.49 98.71 M 50.55 164.67 C 46.31 165.58 42.23 167.38 38.90 170.19 C 29.53 177.95 27.85 192.67 33.82 202.98 C 38.41 211.04 47.96 215.36 57.04 215.07 C 65.00 215.48 73.34 212.66 78.73 206.65 C 87.25 196.87 86.88 180.61 77.68 171.40 C 70.59 164.60 59.95 162.72 50.55 164.67 M 314.41 177.47 C 310.65 178.32 307.02 179.85 303.93 182.17 C 291.45 191.24 291.11 212.25 303.07 221.91 C 313.62 230.28 330.14 230.13 340.54 221.57 C 351.98 211.79 351.59 191.54 339.56 182.40 C 332.50 176.86 322.98 176.01 314.41 177.47 Z" />
<path fill="#ea5b94" opacity="1.00" d=" M 147.10 176.91 C 175.69 176.88 204.28 176.87 232.86 176.91 C 232.90 278.24 232.81 379.57 232.91 480.90 C 248.06 480.86 263.22 480.94 278.38 480.87 C 278.51 417.40 278.36 353.93 278.46 290.46 C 306.97 290.39 335.48 290.44 363.99 290.44 C 364.02 353.92 364.00 417.41 364.00 480.90 C 380.00 480.89 396.00 480.88 412.00 480.90 C 412.00 392.30 411.99 303.70 412.00 215.10 C 440.50 215.12 469.00 215.06 497.50 215.13 C 497.64 303.71 497.46 392.28 497.59 480.86 C 502.39 480.90 507.19 480.90 512.00 480.90 L 512.00 496.87 C 464.66 497.19 417.33 496.91 369.99 496.84 C 354.38 498.20 338.67 497.27 323.01 497.56 C 306.01 497.27 288.96 498.20 272.01 496.84 C 257.33 497.14 242.62 496.23 227.99 497.55 C 202.31 497.52 176.63 497.59 150.95 497.52 C 138.69 496.28 126.35 497.09 114.04 496.87 C 76.03 497.08 38.01 497.08 0.00 496.87 L 0.00 480.90 C 4.80 480.90 9.60 480.90 14.40 480.89 C 14.51 433.64 14.34 386.38 14.48 339.13 C 42.99 339.07 71.50 339.11 100.01 339.11 C 100.00 386.36 100.00 433.62 100.01 480.88 C 115.70 480.93 131.38 480.86 147.06 480.90 C 147.16 379.57 147.07 278.24 147.10 176.91 M 163.11 192.96 C 163.10 288.93 163.08 384.90 163.12 480.88 C 181.03 480.90 198.95 480.91 216.87 480.87 C 216.92 384.90 216.86 288.93 216.90 192.96 C 198.97 192.81 181.04 192.80 163.11 192.96 M 428.01 231.12 C 427.99 314.33 428.01 397.54 428.01 480.75 C 445.87 480.63 463.75 480.93 481.61 480.61 C 481.78 397.48 481.65 314.35 481.68 231.23 C 463.79 230.95 445.90 231.16 428.01 231.12 M 295.20 306.38 C 295.00 306.57 294.58 306.95 294.38 307.14 C 294.19 365.05 294.31 422.96 294.32 480.87 C 312.21 480.92 330.10 480.86 347.99 480.90 C 347.99 422.70 348.00 364.49 347.98 306.29 C 330.39 306.36 312.79 306.16 295.20 306.38 M 30.31 355.22 C 30.31 397.03 30.22 438.84 30.35 480.65 C 48.23 480.86 66.11 480.67 83.99 480.75 C 83.99 438.87 84.00 397.00 83.98 355.12 C 66.09 355.15 48.19 354.96 30.31 355.22 Z" />
</g>
</svg>
