<?xml version="1.0" encoding="UTF-8" ?>
<!DOCTYPE svg PUBLIC "-//W3C//DTD SVG 1.1//EN" "http://www.w3.org/Graphics/SVG/1.1/DTD/svg11.dtd">
<svg width="1080pt" height="1084pt" viewBox="0 0 1080 1084" version="1.1" xmlns="http://www.w3.org/2000/svg">
<g id="#fefefeff">
<path fill="#fefefe" opacity="1.00" d=" M 457.13 152.17 C 460.10 151.32 463.15 150.81 466.15 150.07 C 467.10 154.15 468.31 158.18 468.84 162.35 C 473.61 161.98 478.10 163.61 482.80 163.88 C 484.56 160.43 486.50 156.92 488.99 153.97 C 492.38 155.78 495.49 158.09 498.85 159.97 C 496.88 163.73 494.44 167.22 492.24 170.84 C 495.41 173.90 498.05 177.52 499.88 181.54 C 502.24 181.07 504.60 180.59 506.94 180.02 C 508.73 179.53 510.55 179.13 512.41 179.01 C 513.00 182.89 514.12 186.67 514.99 190.50 C 512.70 191.02 510.40 191.50 508.11 191.99 C 506.38 192.42 504.66 192.87 502.94 193.32 C 502.50 196.17 502.38 199.06 501.86 201.91 C 501.47 203.39 500.99 204.84 500.48 206.28 C 503.87 208.74 507.55 210.78 511.09 213.02 C 509.72 216.80 506.59 219.53 504.98 223.20 C 501.01 221.46 497.84 217.88 493.53 217.09 C 490.64 220.04 487.30 222.65 483.40 224.11 C 483.86 228.38 485.46 232.43 486.01 236.69 C 482.20 237.55 478.36 238.34 474.64 239.55 C 474.01 237.40 473.47 235.22 472.99 233.03 C 472.56 230.95 472.18 228.85 471.32 226.89 C 468.20 226.71 464.97 227.14 461.99 225.97 C 460.72 225.83 458.92 224.47 457.97 225.90 C 456.02 229.26 453.89 232.52 451.56 235.63 C 448.48 233.38 445.19 231.44 441.92 229.49 C 443.53 225.50 446.54 222.27 448.23 218.32 C 446.52 216.82 444.97 215.14 443.75 213.22 C 442.64 211.49 441.17 209.93 440.84 207.83 C 437.78 208.33 434.81 209.23 431.77 209.79 C 431.00 209.96 429.48 210.30 428.71 210.47 C 427.06 206.92 426.54 202.72 426.03 198.80 C 430.04 198.12 433.92 196.85 437.92 196.16 C 437.85 193.01 438.11 189.86 439.01 186.84 C 439.40 185.47 439.67 184.07 439.96 182.68 C 436.70 180.89 433.66 178.75 430.37 177.03 C 430.15 172.85 434.12 169.74 435.92 166.18 C 439.54 168.39 443.09 170.72 446.81 172.77 C 447.67 171.74 448.56 170.74 449.43 169.73 C 451.88 168.18 454.26 166.50 456.92 165.32 C 456.80 160.96 455.33 156.81 454.37 152.60 C 455.06 152.49 456.44 152.28 457.13 152.17 M 466.40 174.55 C 456.90 176.25 449.52 185.36 449.75 194.99 C 449.77 204.23 456.84 212.94 465.93 214.72 C 472.95 216.34 480.71 213.80 485.50 208.44 C 490.13 203.52 491.73 196.32 490.26 189.80 C 487.96 179.42 476.80 172.27 466.40 174.55 Z" />
<path fill="#fefefe" opacity="1.00" d=" M 762.29 167.95 C 771.09 172.48 779.36 178.01 788.16 182.53 C 787.48 184.39 785.40 184.92 783.90 185.92 C 776.59 189.82 769.72 194.51 762.26 198.14 C 762.12 194.00 762.32 189.85 762.17 185.71 C 761.79 185.31 761.03 184.50 760.65 184.10 C 760.62 183.53 760.57 182.38 760.55 181.81 C 760.94 181.63 761.72 181.27 762.12 181.09 C 762.36 176.71 762.07 172.33 762.29 167.95 Z" />
<path fill="#fefefe" opacity="1.00" d=" M 679.55 174.63 C 684.23 168.90 693.84 168.79 698.71 174.32 C 701.53 177.36 703.00 181.87 702.05 185.94 C 700.67 191.10 696.37 195.05 691.19 196.21 C 689.76 196.21 688.34 196.20 686.93 196.19 C 682.57 194.90 678.94 192.00 676.91 187.91 C 676.06 183.38 675.98 178.07 679.55 174.63 Z" />
<path fill="#fefefe" opacity="1.00" d=" M 545.43 179.61 C 549.34 178.48 553.30 177.37 557.39 177.06 C 557.89 179.40 558.42 181.74 559.03 184.06 C 559.72 185.86 558.93 189.73 561.89 189.23 C 568.63 188.24 575.44 188.98 582.13 190.00 C 583.28 185.96 584.70 182.00 585.84 177.95 C 589.67 178.48 593.21 180.12 597.00 180.86 C 596.49 185.23 594.92 189.38 593.41 193.47 C 594.34 193.91 595.28 194.35 596.22 194.78 C 602.05 197.39 607.29 201.09 612.20 205.13 C 615.39 202.18 618.44 199.09 621.80 196.32 C 624.17 199.47 627.15 202.07 629.84 204.93 C 626.76 207.99 623.64 211.01 620.44 213.94 C 624.20 219.26 627.60 224.90 629.80 231.06 C 630.10 231.60 630.70 232.67 631.00 233.21 C 635.08 232.06 639.26 231.31 643.41 230.43 C 643.49 231.10 643.67 232.44 643.76 233.10 C 644.76 236.06 645.37 239.13 645.95 242.20 C 641.66 242.79 637.51 244.04 633.31 245.02 C 634.23 252.19 634.18 259.45 632.48 266.52 C 634.64 268.04 637.38 268.25 639.84 269.08 C 641.51 269.61 643.17 270.14 644.85 270.67 C 643.71 274.42 642.97 278.29 641.65 281.98 C 637.31 281.19 633.23 279.44 628.95 278.43 C 626.43 285.26 622.11 291.43 617.36 296.94 C 620.34 300.18 623.20 303.55 626.42 306.57 C 623.56 309.32 620.28 311.62 617.71 314.66 C 614.45 311.74 611.82 308.22 608.64 305.23 C 602.81 309.82 596.09 313.05 589.22 315.74 C 589.42 316.53 589.82 318.10 590.02 318.89 C 590.67 322.06 591.84 325.16 591.80 328.43 C 589.48 328.91 587.17 329.42 584.87 329.96 C 583.37 330.39 581.83 330.53 580.29 330.63 C 579.56 326.56 578.69 322.50 577.49 318.54 C 570.26 318.44 562.85 319.48 555.77 317.62 C 554.49 321.64 552.92 325.59 552.20 329.77 C 548.25 329.06 544.25 327.96 540.65 326.21 C 540.99 324.74 541.43 323.31 541.82 321.86 C 542.66 319.29 543.41 316.70 544.08 314.08 C 537.42 311.15 531.20 307.33 525.71 302.56 C 522.43 305.19 519.46 308.15 516.56 311.18 C 513.32 308.65 510.19 305.63 508.23 302.00 C 511.58 299.45 514.75 296.63 517.51 293.43 C 516.71 292.55 515.93 291.66 515.17 290.77 C 512.02 285.67 509.27 280.32 507.24 274.67 C 506.66 274.68 505.49 274.70 504.90 274.71 C 503.37 275.40 501.69 275.62 500.08 276.02 C 498.27 276.45 496.45 276.87 494.65 277.31 C 493.62 273.42 492.56 269.51 492.01 265.51 C 494.30 265.01 496.60 264.53 498.89 264.04 C 500.54 263.25 503.98 263.60 503.85 261.06 C 503.63 254.19 504.26 247.38 504.87 240.55 C 500.87 239.31 496.79 238.33 492.83 236.98 C 494.03 233.16 495.16 229.31 496.34 225.49 C 500.54 226.73 504.65 228.37 509.01 228.97 C 511.50 222.34 515.61 216.49 519.96 210.97 C 517.96 207.40 514.58 204.61 511.83 201.54 C 513.47 198.98 516.05 197.25 518.05 195.00 C 518.81 194.39 519.41 193.16 520.57 193.35 C 523.36 196.53 526.40 199.48 529.31 202.56 C 534.52 197.88 541.08 195.02 547.47 192.34 C 548.47 187.99 546.39 183.78 545.43 179.61 M 558.47 207.67 C 541.66 211.31 527.60 224.90 523.25 241.51 C 519.58 254.83 522.12 269.71 530.10 281.00 C 540.00 295.46 558.56 303.64 575.90 300.58 C 585.87 299.23 595.24 294.34 602.34 287.25 C 612.71 276.93 617.93 261.61 615.71 247.13 C 613.86 232.58 604.60 219.27 591.72 212.33 C 581.71 206.77 569.62 204.99 558.47 207.67 Z" />
<path fill="#fefefe" opacity="1.00" d=" M 301.61 333.63 C 307.61 328.11 317.72 330.73 321.22 337.81 C 323.50 343.13 321.93 349.74 317.19 353.16 C 313.39 356.26 307.98 356.19 303.67 354.29 C 296.29 350.24 294.91 338.93 301.61 333.63 Z" />
<path fill="#fefefe" opacity="1.00" d=" M 870.16 437.96 C 870.52 438.12 871.24 438.45 871.60 438.61 C 873.88 442.31 875.91 446.16 878.17 449.89 C 880.73 454.49 883.45 459.00 886.02 463.60 C 881.69 464.03 877.34 463.60 873.01 463.90 C 872.81 464.28 872.40 465.05 872.20 465.43 C 871.61 465.43 870.45 465.43 869.87 465.43 C 869.30 464.23 868.38 463.69 867.13 463.80 C 863.33 463.76 859.54 463.88 855.76 463.71 C 860.20 454.94 865.74 446.75 870.16 437.96 Z" />
<path fill="#fefefe" opacity="1.00" d=" M 244.70 443.24 C 253.22 448.56 262.14 453.24 270.71 458.48 C 262.25 463.90 253.37 468.66 244.69 473.71 C 244.36 469.44 244.83 465.14 244.43 460.88 C 241.93 460.06 242.13 457.26 244.33 456.31 C 244.78 451.96 244.42 447.59 244.70 443.24 Z" />
<path fill="#fefefe" opacity="1.00" d=" M 166.04 446.90 C 168.55 445.53 171.46 445.87 174.22 445.80 C 179.16 447.11 182.70 451.02 184.42 455.73 C 185.46 461.98 182.01 468.67 175.94 470.83 C 168.45 474.07 159.13 468.06 158.58 460.05 C 158.55 458.62 158.55 457.20 158.59 455.78 C 159.94 452.08 162.28 448.49 166.04 446.90 Z" />
<path fill="#fefefe" opacity="1.00" d=" M 502.21 514.20 C 508.57 514.11 514.93 514.15 521.29 514.16 C 527.57 514.16 533.85 514.14 540.13 514.16 C 554.82 514.15 569.51 514.14 584.20 514.16 C 591.19 514.16 598.17 514.14 605.16 514.15 C 619.83 514.14 634.50 514.14 649.17 514.15 C 655.46 514.15 661.76 514.14 668.06 514.15 C 682.75 514.15 697.44 514.15 712.13 514.15 C 717.65 514.15 723.18 514.12 728.71 514.18 C 728.74 517.66 728.73 521.13 728.69 524.62 C 656.36 524.70 584.03 524.41 511.70 524.76 C 508.69 521.11 505.56 517.55 502.21 514.20 Z" />
<path fill="#fefefe" opacity="1.00" d=" M 858.65 541.32 C 855.95 534.17 860.65 525.70 868.03 523.95 C 869.98 523.51 871.98 523.45 873.95 523.92 C 876.72 524.95 879.31 526.47 881.33 528.68 C 883.48 532.14 884.56 536.33 883.41 540.34 C 882.14 544.69 878.46 547.93 874.29 549.43 C 871.56 549.55 868.83 549.58 866.15 549.12 C 863.00 547.23 860.06 544.81 858.65 541.32 Z" />
<path fill="#fefefe" opacity="1.00" d=" M 313.38 568.54 C 325.60 565.15 340.19 570.40 346.06 581.98 C 348.14 586.12 349.28 590.93 348.35 595.54 C 346.72 599.26 340.86 599.77 338.99 596.01 C 337.80 592.65 338.30 588.79 336.25 585.73 C 331.05 576.96 318.14 575.61 310.10 581.08 C 304.96 584.76 303.26 591.96 305.34 597.78 C 307.01 602.08 310.77 605.09 314.44 607.67 C 320.91 611.93 327.74 615.61 334.38 619.59 C 341.53 623.91 347.42 630.81 349.28 639.09 C 351.24 646.89 350.24 655.76 345.01 662.12 C 334.55 674.78 313.14 676.17 301.21 664.84 C 295.98 659.80 292.50 652.44 293.47 645.09 C 294.45 640.83 300.97 640.19 302.87 644.06 C 304.05 647.38 303.53 651.25 305.70 654.25 C 311.77 663.84 326.46 664.63 334.94 657.89 C 339.89 653.88 340.45 646.81 339.22 640.98 C 338.18 636.08 334.64 632.16 330.61 629.41 C 321.42 623.16 310.84 618.92 302.58 611.36 C 296.92 606.25 293.52 598.61 294.22 590.94 C 294.20 580.09 303.04 570.78 313.38 568.54 Z" />
<path fill="#fefefe" opacity="1.00" d=" M 370.74 569.74 C 372.42 568.05 374.93 568.49 377.08 568.40 C 390.22 568.62 403.39 568.18 416.52 568.61 C 421.63 569.26 421.88 577.35 416.99 578.51 C 404.44 579.12 391.83 578.21 379.28 578.95 C 379.34 589.55 379.31 600.15 379.30 610.76 C 389.18 610.86 399.06 610.74 408.94 610.79 C 411.31 610.88 414.27 611.00 415.58 613.36 C 417.95 616.65 414.93 621.51 410.98 621.20 C 400.42 621.42 389.85 621.15 379.29 621.31 C 379.30 634.54 379.36 647.77 379.27 661.00 C 391.83 661.62 404.44 660.84 417.00 661.38 C 421.06 661.86 422.24 667.85 419.27 670.30 C 417.94 671.78 415.83 671.55 414.05 671.65 C 401.04 671.60 388.02 671.65 375.00 671.62 C 372.56 671.92 369.88 670.50 369.31 668.01 C 368.66 664.73 368.91 661.37 368.88 658.06 C 368.90 631.02 368.89 603.98 368.89 576.95 C 369.14 574.53 368.59 571.44 370.74 569.74 Z" />
<path fill="#fefefe" opacity="1.00" d=" M 456.45 568.65 C 468.25 565.08 481.76 570.27 488.39 580.60 C 491.64 585.40 493.25 591.20 493.21 596.99 C 493.20 612.31 493.20 627.63 493.21 642.95 C 493.30 649.98 490.88 657.03 486.28 662.37 C 479.25 670.76 467.21 674.53 456.68 671.48 C 444.89 668.37 435.84 657.18 435.53 644.95 C 435.45 628.64 435.52 612.33 435.50 596.03 C 435.49 583.60 444.50 571.94 456.45 568.65 M 460.26 578.36 C 454.51 579.61 449.50 583.78 447.27 589.22 C 445.79 592.60 445.72 596.35 445.74 599.98 C 445.84 614.66 445.68 629.34 445.82 644.01 C 445.79 652.10 451.77 659.60 459.58 661.56 C 470.18 664.88 482.36 656.12 482.72 645.04 C 482.86 628.69 482.77 612.33 482.76 595.98 C 482.95 584.80 471.11 575.43 460.26 578.36 Z" />
<path fill="#fefefe" opacity="1.00" d=" M 646.93 895.81 C 655.47 890.85 664.06 885.98 672.58 880.98 C 672.66 885.38 672.61 889.78 672.62 894.18 C 675.22 894.31 674.97 897.98 672.68 898.55 C 672.46 902.74 672.69 906.95 672.64 911.16 C 665.11 907.23 657.91 902.72 650.49 898.60 C 649.19 897.81 647.68 897.21 646.93 895.81 Z" />
<path fill="#fefefe" opacity="1.00" d=" M 739.69 884.69 C 742.71 883.69 745.99 882.39 749.13 883.75 C 756.27 885.44 761.09 894.07 757.92 900.90 C 755.40 908.39 745.39 911.63 738.90 907.15 C 730.63 902.50 731.28 888.94 739.69 884.69 Z" />
</g>
<g id="#e5b52dff">
<path fill="#e5b52d" opacity="1.00" d=" M 306.42 162.41 C 316.87 156.10 328.82 151.51 341.21 152.10 C 366.05 151.11 391.28 166.98 398.97 191.02 C 399.96 194.21 400.09 197.62 401.32 200.74 C 406.25 202.92 411.62 204.51 415.82 208.11 C 418.62 210.66 421.40 213.29 423.76 216.26 C 427.60 221.94 430.26 228.38 431.85 235.03 C 434.56 249.18 431.08 264.51 421.76 275.64 C 396.50 275.56 371.24 275.65 345.98 275.59 C 344.24 275.58 342.54 275.94 340.86 276.32 C 341.54 277.59 342.24 278.86 342.94 280.13 C 339.33 274.50 334.87 269.14 328.65 266.32 C 323.57 263.73 317.75 263.35 312.16 263.68 C 307.71 250.69 298.77 238.90 286.31 232.74 C 273.30 226.08 256.89 226.72 244.43 234.37 C 233.36 240.92 225.57 251.96 221.41 263.98 C 216.72 260.81 211.71 257.80 206.00 256.96 C 198.48 255.51 190.62 257.27 184.05 261.07 C 184.71 260.17 186.65 259.50 185.91 258.10 C 183.90 252.27 181.20 246.19 182.50 239.87 C 183.19 232.67 186.99 226.13 191.99 221.04 C 200.01 213.75 211.18 209.68 222.04 211.10 C 228.21 211.59 233.67 214.69 239.31 216.94 C 238.55 207.39 241.45 197.25 248.48 190.51 C 255.15 184.88 264.73 181.55 273.21 184.97 C 277.23 185.94 279.96 189.37 283.69 190.84 C 285.63 188.42 286.39 185.34 287.87 182.66 C 292.21 174.47 298.72 167.52 306.42 162.41 Z" />
<path fill="#e5b52d" opacity="1.00" d=" M 381.73 313.93 C 383.94 314.86 386.12 315.85 388.25 316.95 C 385.97 316.17 383.80 315.15 381.73 313.93 Z" />
<path fill="#e5b52d" opacity="1.00" d=" M 918.02 320.86 C 919.34 318.80 921.97 319.57 924.03 319.40 C 938.72 319.58 953.43 319.22 968.13 319.63 C 965.32 323.94 962.01 327.91 958.79 331.92 C 961.35 327.81 964.57 324.17 967.32 320.20 C 953.90 319.62 940.46 320.08 927.04 319.83 C 924.01 319.85 920.81 319.45 918.02 320.86 Z" />
<path fill="#e5b52d" opacity="1.00" d=" M 959.87 349.91 C 961.16 350.26 961.85 351.13 961.93 352.50 C 960.48 352.24 959.79 351.38 959.87 349.91 Z" />
<path fill="#e5b52d" opacity="1.00" d=" M 300.65 427.28 C 309.03 429.24 317.34 431.94 326.01 432.29 C 335.44 432.45 344.91 432.51 354.27 431.16 C 346.67 433.16 338.78 432.52 331.02 432.64 C 320.66 433.01 310.41 430.52 300.65 427.28 Z" />
<path fill="#e5b52d" opacity="1.00" d=" M 667.92 459.64 C 682.66 459.61 697.40 459.54 712.14 459.68 C 712.14 477.83 712.16 495.99 712.13 514.15 C 697.44 514.15 682.75 514.15 668.06 514.15 C 667.71 495.99 667.97 477.81 667.92 459.64 Z" />
<path fill="#e5b52d" opacity="1.00" d=" M 184.26 533.81 C 185.45 533.42 186.55 532.09 187.87 532.59 C 193.88 534.29 199.55 537.29 204.45 541.16 C 214.74 548.77 221.71 560.52 223.98 573.07 C 225.63 583.11 224.54 593.84 220.03 603.08 C 217.81 609.00 213.39 613.60 209.48 618.42 C 207.65 620.36 205.36 621.77 203.29 623.45 C 203.36 627.20 204.82 630.69 205.85 634.25 C 206.31 635.44 206.74 636.64 207.20 637.85 C 207.85 640.28 208.47 642.72 209.02 645.18 C 209.72 645.15 210.42 645.13 211.12 645.11 C 215.28 643.39 220.55 641.00 224.39 644.65 C 225.88 646.91 226.40 649.54 225.25 652.08 C 224.01 653.49 221.42 654.68 222.41 656.96 C 223.98 663.10 226.33 669.00 227.87 675.15 C 228.31 676.37 228.70 677.59 229.13 678.83 C 231.06 686.36 233.87 693.65 235.79 701.18 C 236.84 704.49 238.15 707.73 238.89 711.14 C 240.30 715.39 241.67 719.66 242.88 723.98 C 244.22 728.61 245.69 733.19 247.17 737.78 C 248.08 741.60 249.46 745.29 250.47 749.09 C 251.77 753.93 254.69 758.83 253.14 763.97 C 252.40 766.23 251.38 768.38 250.35 770.53 C 246.14 775.93 239.59 778.45 233.18 780.16 C 229.10 780.98 225.21 783.05 220.95 782.65 C 215.05 782.04 209.39 778.88 206.21 773.82 C 204.09 769.77 203.30 765.21 201.79 760.94 C 196.90 744.65 191.96 728.37 186.83 712.16 C 185.92 708.77 184.92 705.41 183.75 702.11 C 182.67 697.74 181.15 693.50 179.78 689.22 C 178.89 684.75 177.26 680.47 175.86 676.15 C 175.23 674.03 174.86 671.82 173.90 669.83 C 170.72 670.19 167.88 668.79 166.40 665.95 C 165.95 663.43 166.29 660.87 167.72 658.72 C 170.82 657.15 174.22 656.42 177.49 655.32 C 179.31 653.28 177.28 650.31 176.75 648.07 C 175.52 643.18 173.72 638.47 172.33 633.63 C 161.58 632.97 150.84 629.53 142.30 622.85 C 134.34 616.50 127.74 608.30 124.44 598.58 C 120.30 587.48 120.73 575.02 124.88 563.99 C 125.29 563.05 125.69 562.12 126.09 561.19 C 127.03 559.16 128.17 557.23 129.20 555.25 C 130.63 552.72 132.48 550.48 134.50 548.41 C 139.70 547.74 140.05 554.27 141.20 557.83 C 143.64 564.91 145.52 572.16 147.81 579.29 C 149.77 583.94 149.58 590.86 154.98 593.01 C 156.11 593.20 157.30 593.54 158.45 593.18 C 163.74 591.52 169.02 589.76 174.41 588.40 C 176.93 587.49 179.46 586.61 182.09 586.06 C 183.32 585.65 184.55 585.24 185.78 584.82 C 188.74 584.02 191.70 583.06 194.27 581.32 C 194.56 580.81 195.13 579.79 195.42 579.27 C 195.41 577.14 195.38 575.01 195.28 572.89 C 193.39 568.45 192.45 563.68 190.83 559.15 C 189.96 554.70 187.91 550.60 186.90 546.18 C 185.82 542.08 183.77 538.18 184.26 533.81 Z" />
<path fill="#e5b52d" opacity="1.00" d=" M 251.20 557.82 C 255.05 548.91 260.03 540.48 265.82 532.70 C 260.46 540.79 255.64 549.20 251.20 557.82 Z" />
<path fill="#e5b52d" opacity="1.00" d=" M 889.10 582.54 C 893.30 581.82 897.42 580.70 901.54 579.60 C 902.18 582.88 902.89 586.16 903.69 589.41 C 909.22 589.54 914.87 590.08 920.11 591.99 C 921.66 592.48 923.30 592.56 924.94 592.60 C 926.52 589.78 928.41 587.14 929.86 584.25 C 933.39 586.62 936.97 588.91 940.64 591.05 C 938.91 593.63 937.50 596.41 935.53 598.81 C 935.73 599.69 935.57 600.82 936.40 601.46 C 939.11 604.16 941.91 606.82 943.86 610.18 C 945.15 612.07 945.87 614.52 947.52 616.12 C 950.89 616.51 954.09 615.04 957.32 614.28 C 957.56 614.90 958.04 616.14 958.28 616.76 C 958.63 620.28 960.02 623.60 960.32 627.14 C 956.95 627.11 953.87 628.57 950.57 628.92 C 950.47 631.95 950.91 635.06 950.01 638.01 C 949.64 642.20 947.73 646.04 947.28 650.20 C 950.12 651.74 952.84 653.49 955.68 655.03 C 953.77 658.20 951.79 661.35 950.08 664.65 C 947.86 665.28 945.94 664.02 944.33 662.65 C 941.85 660.84 938.12 660.22 936.89 663.75 C 934.12 666.06 931.31 668.32 928.24 670.20 C 926.67 670.98 925.12 671.78 923.58 672.61 C 923.96 674.76 924.39 676.92 924.94 679.05 C 925.35 680.33 925.45 681.66 925.56 683.01 C 921.32 683.77 917.15 684.85 912.91 685.56 C 912.59 682.58 912.16 679.58 911.32 676.71 C 910.28 675.34 908.42 676.02 907.01 675.82 C 903.56 675.80 900.17 675.05 896.83 674.27 C 894.55 673.48 892.23 672.82 889.83 672.60 C 888.24 675.38 886.52 678.08 885.00 680.90 C 881.21 678.95 877.70 676.51 874.15 674.17 C 876.09 671.06 878.95 668.09 878.96 664.22 C 878.03 663.57 877.15 662.95 876.26 662.31 C 872.93 658.25 869.63 654.06 867.69 649.14 C 864.05 649.25 860.57 650.38 856.99 650.82 C 856.67 649.16 856.38 647.54 856.05 645.90 C 855.32 643.54 854.74 641.13 854.39 638.69 C 857.63 637.87 860.87 637.04 864.13 636.30 C 863.97 631.17 864.44 625.96 866.16 621.09 C 866.64 619.11 867.04 617.11 867.33 615.10 C 864.65 614.02 862.43 612.08 859.72 611.09 C 859.63 610.72 859.45 609.98 859.36 609.61 C 861.61 606.25 863.76 602.82 865.91 599.39 C 868.73 601.44 871.60 604.28 875.27 604.39 C 879.71 599.66 884.96 595.82 890.90 593.17 C 890.71 589.56 889.75 586.07 889.10 582.54 M 901.32 608.49 C 892.39 610.61 885.22 618.05 883.07 626.92 C 881.30 634.88 883.28 643.93 889.15 649.78 C 895.42 656.66 905.87 659.44 914.73 656.59 C 926.65 653.26 934.42 639.97 931.90 627.93 C 929.64 614.31 914.62 604.88 901.32 608.49 Z" />
<path fill="#e5b52d" opacity="1.00" d=" M 736.70 630.16 C 746.22 628.37 755.52 624.95 765.29 624.82 C 766.94 631.88 768.78 638.89 770.33 645.98 C 785.00 644.99 799.70 647.80 813.34 653.15 C 817.14 646.50 821.51 640.20 825.20 633.49 C 825.37 633.85 825.70 634.57 825.87 634.93 C 834.19 639.09 841.47 645.16 850.02 648.84 C 847.94 651.24 846.19 653.88 844.62 656.63 C 842.29 660.65 839.13 664.32 838.04 668.94 C 846.94 676.96 854.80 686.32 859.99 697.16 C 860.84 698.92 861.60 700.70 862.34 702.52 C 870.16 702.50 877.46 699.06 885.20 698.28 C 885.53 701.21 886.15 704.11 886.95 706.95 C 888.71 713.24 889.73 719.71 891.62 725.98 C 884.27 727.65 876.90 729.31 869.64 731.31 C 869.63 737.53 870.14 743.82 869.04 749.98 C 868.52 753.36 867.70 756.69 867.22 760.08 C 865.99 765.00 862.95 769.62 863.57 774.86 C 869.95 777.88 875.56 782.27 881.63 785.87 C 876.50 793.68 871.63 801.66 866.91 809.72 C 861.98 807.78 857.83 804.41 853.32 801.72 C 851.31 800.62 849.44 798.79 846.99 799.07 C 842.78 802.49 839.46 806.92 834.97 810.03 C 828.24 815.87 820.16 819.69 812.27 823.67 C 814.15 830.83 815.69 838.08 817.45 845.28 C 810.63 847.32 803.59 848.51 796.72 850.41 C 794.19 851.12 791.58 851.53 788.95 851.55 C 788.03 844.42 785.56 837.60 784.52 830.50 C 771.35 831.01 757.92 829.53 745.62 824.59 C 744.20 824.08 742.75 823.27 741.20 823.57 C 737.40 829.80 733.47 835.96 729.69 842.21 C 721.40 837.47 713.41 832.22 705.32 827.14 C 708.98 821.45 712.43 815.63 716.11 809.96 C 717.73 807.59 714.94 805.94 713.49 804.55 C 703.68 796.02 697.21 784.58 691.49 773.10 C 684.30 775.17 676.91 776.40 669.69 778.34 C 667.68 769.06 665.32 759.86 663.17 750.62 C 670.36 748.43 677.76 746.95 685.10 745.37 C 685.25 736.52 684.59 727.56 686.91 718.91 C 687.92 713.12 690.86 707.88 691.63 702.04 C 689.56 700.86 687.54 699.62 685.55 698.34 C 685.06 700.55 684.60 702.80 683.82 704.95 C 685.55 698.52 684.35 691.87 683.25 685.46 C 682.67 682.99 679.95 682.03 677.99 680.91 C 681.42 675.86 684.30 670.47 687.82 665.48 C 694.47 668.86 700.37 673.56 707.08 676.80 C 708.82 675.64 710.16 674.01 711.62 672.52 C 718.88 664.83 727.82 658.87 737.36 654.37 C 738.63 653.65 740.12 653.13 741.09 651.98 C 740.36 644.57 737.25 637.61 736.70 630.16 M 770.28 685.44 C 753.22 687.61 737.64 698.59 729.91 713.95 C 723.18 726.76 722.14 742.38 727.00 756.01 C 731.47 768.85 741.11 779.72 753.30 785.73 C 763.02 790.74 774.30 792.39 785.09 790.82 C 799.41 788.97 812.50 780.56 820.84 768.87 C 829.02 757.48 832.38 742.71 829.84 728.92 C 827.49 715.35 819.60 702.74 808.26 694.88 C 797.46 687.00 783.50 683.62 770.28 685.44 Z" />
<path fill="#e5b52d" opacity="1.00" d=" M 240.83 656.81 C 242.11 660.62 243.08 664.53 243.85 668.48 C 242.53 664.68 241.63 660.75 240.83 656.81 Z" />
<path fill="#e5b52d" opacity="1.00" d=" M 244.98 671.63 C 249.62 684.48 255.69 696.75 262.89 708.35 C 255.17 697.10 249.06 684.66 244.98 671.63 Z" />
<path fill="#e5b52d" opacity="1.00" d=" M 515.21 716.04 C 515.20 714.46 515.84 712.24 517.86 712.54 C 518.08 714.26 516.46 715.25 515.21 716.04 Z" />
<path fill="#e5b52d" opacity="1.00" d=" M 510.67 722.02 C 512.02 720.05 513.44 718.12 515.01 716.32 C 513.69 718.31 512.26 720.23 510.67 722.02 Z" />
<path fill="#e5b52d" opacity="1.00" d=" M 289.67 738.75 C 296.46 744.65 303.85 749.80 311.29 754.87 C 303.51 750.33 296.07 745.10 289.67 738.75 Z" />
<path fill="#e5b52d" opacity="1.00" d=" M 318.61 759.08 C 321.23 760.15 323.77 761.40 326.17 762.92 C 323.58 761.78 321.04 760.52 318.61 759.08 Z" />
<path fill="#e5b52d" opacity="1.00" d=" M 457.71 762.83 C 460.15 761.41 462.64 760.05 465.29 759.06 C 462.84 760.47 460.32 761.76 457.71 762.83 Z" />
<path fill="#e5b52d" opacity="1.00" d=" M 602.08 762.47 C 612.89 758.05 625.70 758.05 636.36 762.89 C 625.39 758.71 613.18 758.79 602.08 762.47 Z" />
<path fill="#e5b52d" opacity="1.00" d=" M 517.14 774.21 C 522.45 766.23 531.99 762.07 541.27 761.08 C 545.28 760.73 549.32 760.85 553.34 761.16 C 555.96 761.34 558.54 761.91 561.00 762.82 C 550.87 760.62 539.94 760.12 530.24 764.30 C 525.03 766.30 520.78 770.07 517.14 774.21 Z" />
<path fill="#e5b52d" opacity="1.00" d=" M 569.98 767.35 C 572.37 768.77 574.68 770.60 575.94 773.15 C 574.06 771.10 572.03 769.21 569.98 767.35 Z" />
<path fill="#e5b52d" opacity="1.00" d=" M 587.22 775.46 C 588.77 772.69 590.33 769.77 593.10 768.03 C 590.81 770.45 588.97 773.23 587.27 776.09 C 587.06 776.10 586.62 776.12 586.40 776.13 C 583.44 776.13 580.48 776.15 577.53 776.35 C 577.46 776.21 577.32 775.94 577.24 775.81 C 577.00 775.29 576.50 774.27 576.25 773.76 C 576.62 774.19 577.36 775.07 577.73 775.51 C 580.89 775.50 584.06 775.51 587.22 775.46 Z" />
<path fill="#e5b52d" opacity="1.00" d=" M 359.76 774.13 C 365.14 774.83 370.47 775.84 375.88 776.32 C 376.00 782.99 375.93 789.67 375.94 796.35 C 369.98 796.13 364.02 796.09 358.06 796.18 L 358.02 796.78 C 357.90 809.33 357.96 821.88 358.05 834.43 L 357.74 834.43 C 357.79 825.63 357.74 816.83 357.78 808.04 C 357.85 803.97 357.01 799.91 357.85 795.88 C 363.74 795.90 369.63 795.94 375.53 795.82 C 375.57 789.41 375.72 783.00 375.50 776.59 C 370.18 776.30 364.91 775.45 359.76 774.13 Z" />
<path fill="#e5b52d" opacity="1.00" d=" M 516.38 794.54 C 512.99 788.48 513.11 780.48 516.85 774.60 C 515.16 778.78 513.55 783.32 514.48 787.90 C 515.75 796.70 523.44 803.04 531.40 805.91 C 530.18 805.68 528.96 805.47 527.75 805.27 C 523.58 802.15 518.94 799.26 516.38 794.54 Z" />
<path fill="#e5b52d" opacity="1.00" d=" M 650.09 776.18 C 654.80 786.63 647.53 798.65 637.68 802.89 C 641.85 800.00 646.33 797.04 648.68 792.36 C 651.59 787.49 651.27 781.52 650.09 776.18 Z" />
<path fill="#e5b52d" opacity="1.00" d=" M 623.61 806.95 C 628.26 806.00 632.89 804.85 637.31 803.07 C 633.33 805.86 628.28 806.34 623.61 806.95 Z" />
<path fill="#e5b52d" opacity="1.00" d=" M 563.14 805.30 C 564.23 804.90 565.32 804.51 566.41 804.11 C 564.02 805.50 561.40 806.51 558.65 806.89 C 560.14 806.36 561.64 805.82 563.14 805.30 Z" />
</g>
<g id="#fed03eff">
<path fill="#fed03e" opacity="1.00" d=" M 466.40 174.55 C 476.80 172.27 487.96 179.42 490.26 189.80 C 491.73 196.32 490.13 203.52 485.50 208.44 C 480.71 213.80 472.95 216.34 465.93 214.72 C 456.84 212.94 449.77 204.23 449.75 194.99 C 449.52 185.36 456.90 176.25 466.40 174.55 M 465.39 183.65 C 461.06 185.60 457.98 190.27 458.31 195.07 C 458.30 201.18 463.79 206.87 469.98 206.69 C 477.56 207.32 484.07 199.26 482.08 191.96 C 480.69 184.76 471.98 180.48 465.39 183.65 Z" />
<path fill="#fed03e" opacity="1.00" d=" M 237.73 345.65 C 238.33 344.66 239.21 344.14 240.35 344.06 L 240.37 344.92 C 239.71 345.10 238.39 345.46 237.73 345.65 Z" />
<path fill="#fed03e" opacity="1.00" d=" M 956.02 344.98 C 957.72 345.71 958.89 347.17 959.41 348.95 C 957.18 348.89 955.96 347.05 956.02 344.98 Z" />
<path fill="#fed03e" opacity="1.00" d=" M 281.03 514.60 C 281.42 513.15 282.53 512.13 283.89 511.58 C 283.94 513.22 282.77 514.70 281.03 514.60 Z" />
<path fill="#fed03e" opacity="1.00" d=" M 791.89 624.24 C 794.32 623.14 796.69 621.91 799.02 620.60 C 796.88 622.24 794.52 623.59 791.89 624.24 Z" />
</g>
<g id="#fdd13eff">
<path fill="#fdd13e" opacity="1.00" d=" M 706.35 181.34 C 709.52 181.34 712.69 181.24 715.87 181.14 C 715.89 182.35 715.90 183.57 715.90 184.78 C 712.73 185.35 709.51 185.30 706.32 185.39 C 706.28 184.04 706.31 182.69 706.35 181.34 M 707.21 183.83 C 709.58 185.47 712.65 184.30 715.32 184.62 C 715.17 184.03 714.88 182.85 714.73 182.25 C 713.22 181.69 711.59 181.51 710.01 181.56 C 708.42 181.63 705.43 181.56 707.21 183.83 Z" />
<path fill="#fdd13e" opacity="1.00" d=" M 567.30 250.40 C 569.76 249.31 572.94 251.17 572.73 253.96 C 572.88 257.13 568.42 258.86 566.32 256.63 C 564.37 254.98 564.84 251.29 567.30 250.40 Z" />
<path fill="#fdd13e" opacity="1.00" d=" M 504.07 729.44 C 505.84 727.06 507.86 724.88 510.00 722.83 C 508.18 725.17 506.17 727.35 504.07 729.44 Z" />
</g>
<g id="#b3a77db5">
<path fill="#b3a77d" opacity="0.71" d=" M 742.32 181.28 C 745.61 180.98 748.96 180.86 752.24 181.42 C 752.14 182.36 751.94 184.24 751.84 185.18 C 748.89 185.21 745.91 185.58 742.99 185.09 C 741.77 184.38 742.62 182.47 742.32 181.28 M 742.73 182.08 C 743.33 186.43 748.74 183.95 751.61 184.01 C 751.59 183.53 751.54 182.55 751.52 182.07 C 748.59 181.82 745.65 181.93 742.73 182.08 Z" />
</g>
<g id="#fdfcf5ff">
<path fill="#fdfcf5" opacity="1.00" d=" M 707.21 183.83 C 705.43 181.56 708.42 181.63 710.01 181.56 C 711.59 181.51 713.22 181.69 714.73 182.25 C 714.88 182.85 715.17 184.03 715.32 184.62 C 712.65 184.30 709.58 185.47 707.21 183.83 Z" />
</g>
<g id="#fefdf8ff">
<path fill="#fefdf8" opacity="1.00" d=" M 724.57 181.41 C 727.66 181.39 730.76 181.33 733.87 181.47 C 733.84 182.28 733.80 183.89 733.77 184.70 C 730.64 184.43 727.45 185.62 724.41 184.63 C 724.45 183.83 724.53 182.22 724.57 181.41 Z" />
</g>
<g id="#fcfcf5ff">
<path fill="#fcfcf5" opacity="1.00" d=" M 742.73 182.08 C 745.65 181.93 748.59 181.82 751.52 182.07 C 751.54 182.55 751.59 183.53 751.61 184.01 C 748.74 183.95 743.33 186.43 742.73 182.08 Z" />
</g>
<g id="#eb4b4bff">
<path fill="#eb4b4b" opacity="1.00" d=" M 465.39 183.65 C 471.98 180.48 480.69 184.76 482.08 191.96 C 484.07 199.26 477.56 207.32 469.98 206.69 C 463.79 206.87 458.30 201.18 458.31 195.07 C 457.98 190.27 461.06 185.60 465.39 183.65 M 467.57 197.38 C 469.88 200.16 474.99 197.47 474.02 194.01 C 473.89 191.83 471.57 191.28 470.00 190.43 C 467.27 191.44 465.10 194.95 467.57 197.38 Z" />
<path fill="#eb4b4b" opacity="1.00" d=" M 562.41 223.62 C 575.61 220.57 590.27 227.36 596.30 239.52 C 600.53 247.66 600.93 257.74 597.18 266.13 C 593.67 274.30 586.44 280.82 577.90 283.34 C 568.23 286.43 557.10 284.30 549.32 277.76 C 538.33 269.13 534.91 252.64 541.22 240.25 C 545.21 231.81 553.31 225.58 562.41 223.62 M 567.30 250.40 C 564.84 251.29 564.37 254.98 566.32 256.63 C 568.42 258.86 572.88 257.13 572.73 253.96 C 572.94 251.17 569.76 249.31 567.30 250.40 Z" />
<path fill="#eb4b4b" opacity="1.00" d=" M 744.58 245.53 C 762.76 239.99 782.55 240.80 800.58 246.55 C 832.36 256.63 857.82 284.18 865.16 316.73 C 865.72 321.76 866.30 326.79 867.24 331.77 C 863.81 331.59 860.38 331.56 856.95 331.58 C 854.67 298.97 831.90 269.12 801.30 257.84 C 782.96 250.86 762.20 250.46 743.60 256.71 C 724.98 262.82 708.69 275.61 698.12 292.09 C 689.53 305.41 684.66 321.14 684.42 337.00 C 683.95 355.80 690.01 374.66 701.18 389.78 C 710.71 402.83 724.00 413.09 739.01 419.06 C 755.46 425.61 773.94 426.94 791.14 422.72 C 808.99 418.42 825.36 408.23 837.08 394.10 C 848.29 380.83 855.32 364.09 856.86 346.78 C 860.26 346.80 863.66 346.81 867.07 346.60 C 866.45 351.14 865.89 355.69 865.31 360.23 C 862.45 372.10 857.63 383.54 850.60 393.55 C 839.45 410.00 822.93 422.38 804.55 429.69 C 804.56 487.45 804.53 545.21 804.56 602.97 C 804.49 606.35 804.87 609.80 804.08 613.12 C 804.50 551.90 804.07 490.66 804.29 429.43 C 797.46 431.93 790.36 433.66 783.15 434.62 C 761.37 437.50 738.65 432.57 720.01 420.94 C 701.00 409.23 686.33 390.75 679.18 369.61 C 677.92 365.91 676.90 362.14 676.13 358.32 C 675.59 355.60 675.14 352.86 674.74 350.13 C 674.85 345.38 675.17 340.61 674.51 335.88 C 674.41 332.82 674.47 329.74 674.74 326.69 C 679.03 288.90 707.85 255.39 744.58 245.53 Z" />
<path fill="#eb4b4b" opacity="1.00" d=" M 758.95 277.96 C 771.74 275.81 785.24 277.41 796.92 283.19 C 813.27 291.02 825.79 306.37 830.08 324.00 C 826.21 325.12 822.33 326.21 818.44 327.26 C 814.96 314.11 806.32 302.33 794.39 295.67 C 782.90 289.05 768.69 287.49 755.99 291.19 C 741.26 295.41 728.85 306.84 723.39 321.14 C 720.03 329.30 719.62 338.35 720.68 347.02 C 723.11 362.26 733.09 376.04 746.78 383.15 C 761.18 390.85 779.46 390.70 793.73 382.75 C 805.42 376.43 814.13 365.25 817.94 352.57 C 821.09 353.36 824.21 354.22 827.30 355.23 C 828.03 355.60 828.78 355.96 829.53 356.33 C 825.81 368.75 818.30 380.05 807.99 387.96 C 795.94 397.45 780.26 402.18 764.98 400.86 C 753.04 400.02 741.43 395.46 731.98 388.13 C 719.60 378.68 711.03 364.36 708.64 348.96 C 706.01 333.11 709.84 316.25 719.25 303.20 C 728.48 290.01 743.08 280.72 758.95 277.96 Z" />
<path fill="#eb4b4b" opacity="1.00" d=" M 759.20 320.25 C 765.69 316.60 774.05 316.79 780.44 320.56 C 785.87 323.51 789.23 329.09 790.82 334.91 C 784.57 336.73 778.25 338.32 772.02 340.22 C 778.13 341.94 784.28 343.53 790.41 345.21 C 788.48 349.93 785.66 354.50 781.20 357.21 C 774.69 361.49 765.77 361.77 759.01 357.90 C 752.28 354.23 747.86 346.69 748.06 339.01 C 747.94 331.34 752.40 323.81 759.20 320.25 Z" />
<path fill="#eb4b4b" opacity="1.00" d=" M 477.25 434.44 C 491.94 434.48 506.64 434.37 521.34 434.50 C 521.30 440.95 521.32 447.41 521.32 453.86 C 521.31 473.96 521.36 494.06 521.29 514.16 C 514.93 514.15 508.57 514.11 502.21 514.20 C 494.62 506.46 486.21 499.56 477.19 493.55 C 477.35 473.85 477.22 454.14 477.25 434.44 Z" />
<path fill="#eb4b4b" opacity="1.00" d=" M 763.00 699.20 C 766.52 698.34 770.05 697.47 773.65 696.91 C 774.20 699.48 774.78 702.05 775.42 704.62 C 780.66 704.45 785.80 705.53 790.82 706.95 C 792.29 704.85 793.25 702.09 795.27 700.55 C 798.44 701.79 801.24 704.21 804.24 705.96 C 802.93 708.33 801.58 710.68 800.20 713.02 C 803.97 716.38 806.74 720.61 809.08 725.05 C 811.78 725.23 814.44 724.04 817.13 723.67 C 818.05 727.18 818.88 730.72 819.58 734.29 C 816.99 734.97 814.39 735.60 811.78 736.19 C 811.81 741.35 811.12 746.50 809.24 751.33 C 811.42 752.80 813.67 754.19 815.97 755.49 C 814.51 758.83 812.38 761.81 810.53 764.95 C 808.06 763.68 805.65 762.31 803.24 760.96 C 799.83 764.80 795.43 767.42 791.06 770.00 C 791.46 772.67 792.06 775.32 792.48 778.00 C 788.96 778.75 785.46 779.58 781.90 780.08 C 781.32 777.50 780.66 774.94 779.96 772.40 C 774.67 772.75 769.55 771.41 764.48 770.14 C 763.28 772.51 761.89 774.78 760.21 776.85 C 757.23 774.86 754.17 773.01 751.13 771.12 C 752.46 768.80 754.08 766.63 755.03 764.11 C 751.62 760.29 748.40 756.28 746.19 751.63 C 743.66 752.23 741.14 752.88 738.65 753.58 C 737.37 750.10 736.65 746.47 736.03 742.83 C 738.58 742.14 741.14 741.48 743.72 740.86 C 743.46 735.79 744.76 730.92 745.87 726.04 C 744.39 723.80 741.43 722.89 739.35 721.21 C 741.29 718.13 743.20 715.04 745.18 711.99 C 747.44 713.34 749.58 714.92 752.04 715.94 C 755.95 712.62 759.87 709.24 764.62 707.14 C 763.99 704.50 763.42 701.86 763.00 699.20 M 774.34 719.46 C 765.23 720.99 757.92 729.63 758.36 738.95 C 758.24 749.58 768.37 758.94 778.99 757.78 C 790.78 757.63 800.00 744.64 796.47 733.44 C 794.08 724.01 783.90 717.53 774.34 719.46 Z" />
</g>
<g id="#fdd03eff">
<path fill="#fdd03e" opacity="1.00" d=" M 467.57 197.38 C 465.10 194.95 467.27 191.44 470.00 190.43 C 471.57 191.28 473.89 191.83 474.02 194.01 C 474.99 197.47 469.88 200.16 467.57 197.38 Z" />
<path fill="#fdd03e" opacity="1.00" d=" M 270.28 320.20 C 272.11 320.14 273.94 320.09 275.77 320.05 C 269.63 323.40 263.85 327.37 257.78 330.85 C 262.55 327.55 267.45 324.42 272.56 321.68 C 271.99 321.31 270.85 320.57 270.28 320.20 Z" />
<path fill="#fdd03e" opacity="1.00" d=" M 955.65 344.47 C 953.43 342.39 952.04 338.93 954.74 336.61 C 952.84 339.17 953.82 342.20 955.65 344.47 Z" />
<path fill="#fdd03e" opacity="1.00" d=" M 379.08 423.31 C 380.85 422.45 382.63 421.60 384.42 420.76 C 384.85 436.56 384.84 452.38 384.50 468.19 C 376.78 468.53 369.15 469.73 361.51 470.74 C 368.99 468.81 376.74 468.68 384.34 467.56 C 384.50 456.03 384.34 444.50 384.43 432.97 C 384.48 429.68 384.36 426.39 383.81 423.15 C 383.20 422.98 381.97 422.64 381.35 422.47 L 379.08 423.31 Z" />
<path fill="#fdd03e" opacity="1.00" d=" M 237.02 621.01 C 236.73 611.40 237.98 601.86 239.86 592.46 C 239.56 596.02 238.99 599.55 238.47 603.08 C 236.01 620.88 237.36 638.97 240.77 656.54 C 237.88 644.95 236.69 632.95 237.02 621.01 Z" />
<path fill="#fdd03e" opacity="1.00" d=" M 311.61 755.06 C 313.89 756.18 316.11 757.44 318.22 758.87 C 315.94 757.72 313.75 756.45 311.61 755.06 Z" />
<path fill="#fdd03e" opacity="1.00" d=" M 450.59 765.95 C 452.74 764.81 454.99 763.84 457.29 763.02 C 455.11 764.12 452.87 765.08 450.59 765.95 Z" />
<path fill="#fdd03e" opacity="1.00" d=" M 407.81 776.48 C 422.35 774.92 436.57 771.21 450.25 766.09 C 439.63 770.75 428.27 773.55 416.87 775.56 C 414.06 776.20 410.90 775.80 408.32 777.13 C 407.91 783.42 408.22 789.75 408.20 796.05 L 407.82 796.07 C 407.85 789.54 407.86 783.01 407.81 776.48 Z" />
<path fill="#fdd03e" opacity="1.00" d=" M 344.70 770.20 C 349.59 771.41 354.49 772.58 359.32 774.03 C 354.37 773.07 349.45 771.91 344.70 770.20 Z" />
<path fill="#fdd03e" opacity="1.00" d=" M 588.02 792.58 C 591.31 798.10 596.67 802.04 602.57 804.41 C 605.80 805.48 609.14 806.19 612.46 806.94 C 607.39 806.46 602.30 805.09 597.91 802.47 C 596.89 801.85 595.74 801.56 594.63 801.25 C 592.64 798.18 589.16 796.19 588.02 792.58 Z" />
</g>
<g id="#fed13eff">
<path fill="#fed13e" opacity="1.00" d=" M 558.47 207.67 C 569.62 204.99 581.71 206.77 591.72 212.33 C 604.60 219.27 613.86 232.58 615.71 247.13 C 617.93 261.61 612.71 276.93 602.34 287.25 C 595.24 294.34 585.87 299.23 575.90 300.58 C 558.56 303.64 540.00 295.46 530.10 281.00 C 522.12 269.71 519.58 254.83 523.25 241.51 C 527.60 224.90 541.66 211.31 558.47 207.67 M 562.41 223.62 C 553.31 225.58 545.21 231.81 541.22 240.25 C 534.91 252.64 538.33 269.13 549.32 277.76 C 557.10 284.30 568.23 286.43 577.90 283.34 C 586.44 280.82 593.67 274.30 597.18 266.13 C 600.93 257.74 600.53 247.66 596.30 239.52 C 590.27 227.36 575.61 220.57 562.41 223.62 Z" />
<path fill="#fed13e" opacity="1.00" d=" M 546.54 624.42 C 552.22 624.38 557.91 624.38 563.60 624.41 C 563.57 642.76 563.67 661.10 563.55 679.45 C 554.33 679.35 545.10 679.51 535.88 679.37 C 542.68 661.88 546.39 643.19 546.54 624.42 Z" />
<path fill="#fed13e" opacity="1.00" d=" M 770.28 685.44 C 783.50 683.62 797.46 687.00 808.26 694.88 C 819.60 702.74 827.49 715.35 829.84 728.92 C 832.38 742.71 829.02 757.48 820.84 768.87 C 812.50 780.56 799.41 788.97 785.09 790.82 C 774.30 792.39 763.02 790.74 753.30 785.73 C 741.11 779.72 731.47 768.85 727.00 756.01 C 722.14 742.38 723.18 726.76 729.91 713.95 C 737.64 698.59 753.22 687.61 770.28 685.44 M 763.00 699.20 C 763.42 701.86 763.99 704.50 764.62 707.14 C 759.87 709.24 755.95 712.62 752.04 715.94 C 749.58 714.92 747.44 713.34 745.18 711.99 C 743.20 715.04 741.29 718.13 739.35 721.21 C 741.43 722.89 744.39 723.80 745.87 726.04 C 744.76 730.92 743.46 735.79 743.72 740.86 C 741.14 741.48 738.58 742.14 736.03 742.83 C 736.65 746.47 737.37 750.10 738.65 753.58 C 741.14 752.88 743.66 752.23 746.19 751.63 C 748.40 756.28 751.62 760.29 755.03 764.11 C 754.08 766.63 752.46 768.80 751.13 771.12 C 754.17 773.01 757.23 774.86 760.21 776.85 C 761.89 774.78 763.28 772.51 764.48 770.14 C 769.55 771.41 774.67 772.75 779.96 772.40 C 780.66 774.94 781.32 777.50 781.90 780.08 C 785.46 779.58 788.96 778.75 792.48 778.00 C 792.06 775.32 791.46 772.67 791.06 770.00 C 795.43 767.42 799.83 764.80 803.24 760.96 C 805.65 762.31 808.06 763.68 810.53 764.95 C 812.38 761.81 814.51 758.83 815.97 755.49 C 813.67 754.19 811.42 752.80 809.24 751.33 C 811.12 746.50 811.81 741.35 811.78 736.19 C 814.39 735.60 816.99 734.97 819.58 734.29 C 818.88 730.72 818.05 727.18 817.13 723.67 C 814.44 724.04 811.78 725.23 809.08 725.05 C 806.74 720.61 803.97 716.38 800.20 713.02 C 801.58 710.68 802.93 708.33 804.24 705.96 C 801.24 704.21 798.44 701.79 795.27 700.55 C 793.25 702.09 792.29 704.85 790.82 706.95 C 785.80 705.53 780.66 704.45 775.42 704.62 C 774.78 702.05 774.20 699.48 773.65 696.91 C 770.05 697.47 766.52 698.34 763.00 699.20 Z" />
<path fill="#fed13e" opacity="1.00" d=" M 774.34 719.46 C 783.90 717.53 794.08 724.01 796.47 733.44 C 800.00 744.64 790.78 757.63 778.99 757.78 C 768.37 758.94 758.24 749.58 758.36 738.95 C 757.92 729.63 765.23 720.99 774.34 719.46 Z" />
<path fill="#fed13e" opacity="1.00" d=" M 603.32 774.78 C 611.52 770.72 621.34 770.31 630.03 772.99 C 634.79 774.67 640.28 777.53 641.34 782.96 C 640.66 787.97 635.93 790.96 631.67 792.80 C 622.28 796.56 611.06 796.42 602.11 791.52 C 601.70 791.27 600.90 790.78 600.50 790.53 C 605.83 789.30 611.79 788.73 616.18 785.16 C 618.00 783.66 616.41 781.08 614.59 780.47 C 610.16 778.20 605.13 777.45 600.23 776.93 C 601.24 776.18 602.26 775.45 603.32 774.78 Z" />
<path fill="#fed13e" opacity="1.00" d=" M 530.73 776.69 C 540.31 771.47 552.40 771.30 562.22 775.99 C 562.99 776.42 563.73 776.89 564.49 777.37 C 559.32 778.43 553.66 779.08 549.34 782.38 C 547.89 783.32 547.99 785.61 549.49 786.48 C 554.22 789.61 560.09 790.30 565.61 790.89 C 564.45 791.66 563.32 792.48 562.14 793.21 C 552.45 797.96 540.38 798.12 530.75 793.13 C 527.51 791.22 523.50 788.25 524.25 783.96 C 524.96 780.61 528.00 778.41 530.73 776.69 Z" />
</g>
<g id="#ffffffff">
<path fill="#ffffff" opacity="1.00" d=" M 244.43 234.37 C 256.89 226.72 273.30 226.08 286.31 232.74 C 298.77 238.90 307.71 250.69 312.16 263.68 C 317.75 263.35 323.57 263.73 328.65 266.32 C 334.87 269.14 339.33 274.50 342.94 280.13 L 343.18 280.53 C 346.37 288.08 348.20 296.27 346.75 304.47 C 322.12 301.00 297.30 308.37 275.77 320.05 C 273.94 320.09 272.11 320.14 270.28 320.20 C 256.26 320.18 242.20 320.42 228.23 319.95 C 209.48 320.60 190.68 320.00 171.92 320.25 C 165.57 310.20 163.88 297.69 166.40 286.16 C 168.76 275.95 174.99 266.51 184.05 261.07 C 190.62 257.27 198.48 255.51 206.00 256.96 C 211.71 257.80 216.72 260.81 221.41 263.98 C 225.57 251.96 233.36 240.92 244.43 234.37 Z" />
<path fill="#ffffff" opacity="1.00" d=" M 743.60 256.71 C 762.20 250.46 782.96 250.86 801.30 257.84 C 831.90 269.12 854.67 298.97 856.95 331.58 C 851.18 331.59 845.42 331.59 839.66 331.58 C 839.66 328.18 839.66 324.78 839.65 321.39 C 836.47 322.29 833.27 323.13 830.08 324.00 C 825.79 306.37 813.27 291.02 796.92 283.19 C 785.24 277.41 771.74 275.81 758.95 277.96 C 743.08 280.72 728.48 290.01 719.25 303.20 C 709.84 316.25 706.01 333.11 708.64 348.96 C 711.03 364.36 719.60 378.68 731.98 388.13 C 741.43 395.46 753.04 400.02 764.98 400.86 C 780.26 402.18 795.94 397.45 807.99 387.96 C 818.30 380.05 825.81 368.75 829.53 356.33 C 828.78 355.96 828.03 355.60 827.30 355.23 C 831.50 356.03 835.61 357.28 839.72 358.45 C 839.74 354.56 839.75 350.66 839.73 346.78 C 845.44 346.78 851.15 346.76 856.86 346.78 C 855.32 364.09 848.29 380.83 837.08 394.10 C 825.36 408.23 808.99 418.42 791.14 422.72 C 773.94 426.94 755.46 425.61 739.01 419.06 C 724.00 413.09 710.71 402.83 701.18 389.78 C 690.01 374.66 683.95 355.80 684.42 337.00 C 684.66 321.14 689.53 305.41 698.12 292.09 C 708.69 275.61 724.98 262.82 743.60 256.71 Z" />
<path fill="#ffffff" opacity="1.00" d=" M 755.99 291.19 C 768.69 287.49 782.90 289.05 794.39 295.67 C 806.32 302.33 814.96 314.11 818.44 327.26 C 809.24 329.84 800.02 332.31 790.82 334.91 C 789.23 329.09 785.87 323.51 780.44 320.56 C 774.05 316.79 765.69 316.60 759.20 320.25 C 752.40 323.81 747.94 331.34 748.06 339.01 C 747.86 346.69 752.28 354.23 759.01 357.90 C 765.77 361.77 774.69 361.49 781.20 357.21 C 785.66 354.50 788.48 349.93 790.41 345.21 C 799.59 347.64 808.76 350.11 817.94 352.57 C 814.13 365.25 805.42 376.43 793.73 382.75 C 779.46 390.70 761.18 390.85 746.78 383.15 C 733.09 376.04 723.11 362.26 720.68 347.02 C 719.62 338.35 720.03 329.30 723.39 321.14 C 728.85 306.84 741.26 295.41 755.99 291.19 Z" />
<path fill="#ffffff" opacity="1.00" d=" M 377.79 322.69 C 377.67 322.37 377.43 321.73 377.31 321.42 C 402.32 332.39 424.09 349.53 443.96 368.01 C 423.43 386.99 401.00 404.60 375.13 415.71 C 384.81 406.68 392.17 394.99 394.96 381.97 C 397.71 369.73 396.77 356.68 392.19 344.99 C 389.11 336.56 383.69 329.32 377.79 322.69 Z" />
<path fill="#ffffff" opacity="1.00" d=" M 225.74 367.99 C 243.72 351.03 263.48 335.54 285.68 324.48 C 285.63 324.81 285.53 325.47 285.47 325.80 C 283.11 329.32 280.27 332.51 278.23 336.24 C 269.13 351.73 267.29 371.11 272.94 388.12 C 275.86 397.28 281.36 405.27 287.59 412.48 C 264.56 401.44 244.29 385.38 225.74 367.99 Z" />
<path fill="#ffffff" opacity="1.00" d=" M 446.09 358.33 C 522.77 358.28 599.45 358.31 676.13 358.32 C 676.90 362.14 677.92 365.91 679.18 369.61 C 646.01 379.40 614.08 393.34 584.23 410.80 C 584.24 408.25 584.22 405.71 584.20 403.16 C 579.81 403.19 575.41 403.26 571.03 403.01 C 565.01 402.61 558.99 403.54 552.97 403.09 C 548.69 402.76 544.41 402.93 540.14 403.23 C 540.12 415.36 540.15 427.48 540.12 439.61 C 533.60 444.01 527.42 448.90 521.32 453.86 C 521.32 447.41 521.30 440.95 521.34 434.50 C 506.64 434.37 491.94 434.48 477.25 434.44 C 477.22 454.14 477.35 473.85 477.19 493.55 C 455.97 479.40 431.17 470.92 405.82 468.45 C 405.82 448.59 405.83 428.72 405.81 408.85 C 417.46 401.40 428.44 392.92 438.90 383.88 C 444.46 378.86 450.82 374.43 454.67 367.83 C 452.04 364.46 449.32 361.14 446.09 358.33 Z" />
</g>
<g id="#7e77598f">
<path fill="#7e7759" opacity="0.56" d=" M 343.18 280.53 C 347.39 287.47 348.55 296.12 347.60 304.09 C 351.01 304.16 354.38 304.73 357.60 305.84 C 353.96 305.56 350.34 305.11 346.75 304.47 C 348.20 296.27 346.37 288.08 343.18 280.53 Z" />
</g>
<g id="#3a5c78ff">
<path fill="#3a5c78" opacity="1.00" d=" M 275.77 320.05 C 297.30 308.37 322.12 301.00 346.75 304.47 C 350.34 305.11 353.96 305.56 357.60 305.84 L 357.95 305.92 C 358.71 307.23 359.80 307.55 361.20 306.87 C 361.47 306.92 362.00 307.02 362.26 307.06 C 365.25 308.43 368.38 309.42 371.65 309.85 C 375.07 311.05 378.48 312.30 381.73 313.93 C 383.80 315.15 385.97 316.17 388.25 316.95 C 393.25 319.32 398.08 322.03 402.78 324.96 C 403.16 327.06 405.13 328.64 407.28 327.74 C 408.30 328.50 409.37 329.22 410.44 329.94 C 410.77 331.41 411.69 332.05 413.22 331.87 L 413.58 332.10 C 416.49 334.38 419.18 337.48 422.94 338.27 C 482.28 338.07 541.64 338.23 600.99 338.18 C 625.31 338.03 649.64 338.49 673.95 337.95 C 673.92 338.22 673.87 338.75 673.84 339.01 C 668.60 338.32 663.32 338.61 658.06 338.59 C 601.71 338.61 545.36 338.58 489.01 338.59 C 466.95 338.73 444.88 338.33 422.83 338.78 C 430.55 345.33 438.58 351.51 446.09 358.33 C 449.32 361.14 452.04 364.46 454.67 367.83 C 450.82 374.43 444.46 378.86 438.90 383.88 C 428.44 392.92 417.46 401.40 405.81 408.85 C 398.87 413.14 391.80 417.27 384.42 420.76 C 382.63 421.60 380.85 422.45 379.08 423.31 L 378.71 423.48 C 378.61 423.53 378.41 423.62 378.32 423.66 C 370.65 427.13 362.56 429.71 354.27 431.16 C 344.91 432.51 335.44 432.45 326.01 432.29 C 317.34 431.94 309.03 429.24 300.65 427.28 C 289.21 423.64 278.56 417.98 268.18 412.05 C 268.12 409.76 265.70 408.48 263.67 409.29 C 262.61 408.49 261.51 407.75 260.43 407.00 C 260.11 405.52 259.19 404.86 257.68 405.02 C 253.29 402.35 249.30 399.10 245.11 396.16 C 245.45 393.82 243.12 392.23 240.99 392.93 C 232.85 385.73 223.86 379.39 216.79 371.07 C 215.66 369.89 215.13 368.29 215.28 366.68 C 215.29 366.64 215.33 366.57 215.35 366.53 C 216.98 364.75 218.53 362.92 220.16 361.15 C 225.77 356.76 231.14 352.07 236.29 347.16 C 236.65 346.78 237.37 346.02 237.73 345.65 C 238.39 345.46 239.71 345.10 240.37 344.92 L 240.35 344.06 C 245.67 339.06 251.74 334.92 257.78 330.85 C 263.85 327.37 269.63 323.40 275.77 320.05 M 321.07 312.96 C 308.73 314.66 297.06 319.16 285.73 324.15 L 285.68 324.48 C 263.48 335.54 243.72 351.03 225.74 367.99 C 244.29 385.38 264.56 401.44 287.59 412.48 L 287.78 412.74 C 290.27 413.96 292.85 415.00 295.46 415.96 C 290.52 399.69 292.15 381.45 300.57 366.61 C 300.68 370.36 301.23 374.12 302.30 377.72 C 306.67 392.55 322.76 402.65 338.02 399.92 C 353.02 397.92 365.27 384.11 365.38 368.97 C 366.27 352.78 353.02 337.35 336.81 335.98 C 340.97 336.15 344.90 334.43 349.04 334.27 C 364.14 332.34 379.57 336.66 392.19 344.99 C 396.77 356.68 397.71 369.73 394.96 381.97 C 392.17 394.99 384.81 406.68 375.13 415.71 C 401.00 404.60 423.43 386.99 443.96 368.01 C 424.09 349.53 402.32 332.39 377.31 321.42 L 377.21 321.14 C 373.50 319.84 369.84 318.38 366.12 317.14 C 351.69 312.18 336.15 311.14 321.07 312.96 Z" />
<path fill="#3a5c78" opacity="1.00" d=" M 605.13 419.81 C 619.81 419.77 634.49 419.78 649.18 419.81 C 649.20 451.26 649.21 482.70 649.17 514.15 C 634.50 514.14 619.83 514.14 605.16 514.15 C 605.11 482.70 605.16 451.26 605.13 419.81 Z" />
</g>
<g id="#726f4cb7">
<path fill="#726f4c" opacity="0.72" d=" M 357.95 305.92 C 359.23 305.56 360.31 305.87 361.20 306.87 C 359.80 307.55 358.71 307.23 357.95 305.92 Z" />
</g>
<g id="#585a4591">
<path fill="#585a45" opacity="0.57" d=" M 362.26 307.06 C 365.55 307.36 368.69 308.41 371.65 309.85 C 368.38 309.42 365.25 308.43 362.26 307.06 Z" />
</g>
<g id="#8fddcfff">
<path fill="#8fddcf" opacity="1.00" d=" M 321.07 312.96 C 336.15 311.14 351.69 312.18 366.12 317.14 C 369.84 318.38 373.50 319.84 377.21 321.14 L 377.31 321.42 C 377.43 321.73 377.67 322.37 377.79 322.69 C 383.69 329.32 389.11 336.56 392.19 344.99 C 379.57 336.66 364.14 332.34 349.04 334.27 C 344.90 334.43 340.97 336.15 336.81 335.98 C 331.54 335.29 326.25 336.20 321.22 337.81 C 317.72 330.73 307.61 328.11 301.61 333.63 C 294.91 338.93 296.29 350.24 303.67 354.29 C 302.14 358.26 301.26 362.42 300.57 366.61 C 292.15 381.45 290.52 399.69 295.46 415.96 C 292.85 415.00 290.27 413.96 287.78 412.74 L 287.59 412.48 C 281.36 405.27 275.86 397.28 272.94 388.12 C 267.29 371.11 269.13 351.73 278.23 336.24 C 280.27 332.51 283.11 329.32 285.47 325.80 C 285.53 325.47 285.63 324.81 285.68 324.48 L 285.73 324.15 C 297.06 319.16 308.73 314.66 321.07 312.96 Z" />
<path fill="#8fddcf" opacity="1.00" d=" M 584.23 410.80 C 614.08 393.34 646.01 379.40 679.18 369.61 C 686.33 390.75 701.00 409.23 720.01 420.94 C 738.65 432.57 761.37 437.50 783.15 434.62 C 783.19 490.29 783.26 545.96 783.11 601.62 C 703.83 601.33 624.54 601.56 545.25 601.51 C 541.24 573.52 529.68 546.63 511.70 524.76 C 584.03 524.41 656.36 524.70 728.69 524.62 C 728.73 521.13 728.74 517.66 728.71 514.18 C 723.18 514.12 717.65 514.15 712.13 514.15 C 712.16 495.99 712.14 477.83 712.14 459.68 C 697.40 459.54 682.66 459.61 667.92 459.64 C 667.97 477.81 667.71 495.99 668.06 514.15 C 661.76 514.14 655.46 514.15 649.17 514.15 C 649.21 482.70 649.20 451.26 649.18 419.81 C 634.49 419.78 619.81 419.77 605.13 419.81 C 605.16 451.26 605.11 482.70 605.16 514.15 C 598.17 514.14 591.19 514.16 584.20 514.16 C 584.27 479.71 584.20 445.26 584.23 410.80 Z" />
<path fill="#8fddcf" opacity="1.00" d=" M 521.32 453.86 C 527.42 448.90 533.60 444.01 540.12 439.61 C 540.14 464.46 540.12 489.31 540.13 514.16 C 533.85 514.14 527.57 514.16 521.29 514.16 C 521.36 494.06 521.31 473.96 521.32 453.86 Z" />
<path fill="#8fddcf" opacity="1.00" d=" M 374.59 493.92 C 410.16 489.00 447.55 499.70 474.99 522.89 C 503.90 546.70 521.50 583.57 521.71 621.03 C 522.31 655.69 508.19 690.27 483.50 714.59 C 458.41 739.88 422.53 753.92 386.94 752.37 C 348.19 751.19 310.71 731.31 287.72 700.14 C 266.19 671.64 257.63 634.03 264.19 598.96 C 269.86 567.52 287.80 538.58 313.25 519.30 C 331.04 505.72 352.39 496.85 374.59 493.92 M 313.38 568.54 C 303.04 570.78 294.20 580.09 294.22 590.94 C 293.52 598.61 296.92 606.25 302.58 611.36 C 310.84 618.92 321.42 623.16 330.61 629.41 C 334.64 632.16 338.18 636.08 339.22 640.98 C 340.45 646.81 339.89 653.88 334.94 657.89 C 326.46 664.63 311.77 663.84 305.70 654.25 C 303.53 651.25 304.05 647.38 302.87 644.06 C 300.97 640.19 294.45 640.83 293.47 645.09 C 292.50 652.44 295.98 659.80 301.21 664.84 C 313.14 676.17 334.55 674.78 345.01 662.12 C 350.24 655.76 351.24 646.89 349.28 639.09 C 347.42 630.81 341.53 623.91 334.38 619.59 C 327.74 615.61 320.91 611.93 314.44 607.67 C 310.77 605.09 307.01 602.08 305.34 597.78 C 303.26 591.96 304.96 584.76 310.10 581.08 C 318.14 575.61 331.05 576.96 336.25 585.73 C 338.30 588.79 337.80 592.65 338.99 596.01 C 340.86 599.77 346.72 599.26 348.35 595.54 C 349.28 590.93 348.14 586.12 346.06 581.98 C 340.19 570.40 325.60 565.15 313.38 568.54 M 370.74 569.74 C 368.59 571.44 369.14 574.53 368.89 576.95 C 368.89 603.98 368.90 631.02 368.88 658.06 C 368.91 661.37 368.66 664.73 369.31 668.01 C 369.88 670.50 372.56 671.92 375.00 671.62 C 388.02 671.65 401.04 671.60 414.05 671.65 C 415.83 671.55 417.94 671.78 419.27 670.30 C 422.24 667.85 421.06 661.86 417.00 661.38 C 404.44 660.84 391.83 661.62 379.27 661.00 C 379.36 647.77 379.30 634.54 379.29 621.31 C 389.85 621.15 400.42 621.42 410.98 621.20 C 414.93 621.51 417.95 616.65 415.58 613.36 C 414.27 611.00 411.31 610.88 408.94 610.79 C 399.06 610.74 389.18 610.86 379.30 610.76 C 379.31 600.15 379.34 589.55 379.28 578.95 C 391.83 578.21 404.44 579.12 416.99 578.51 C 421.88 577.35 421.63 569.26 416.52 568.61 C 403.39 568.18 390.22 568.62 377.08 568.40 C 374.93 568.49 372.42 568.05 370.74 569.74 M 456.45 568.65 C 444.50 571.94 435.49 583.60 435.50 596.03 C 435.52 612.33 435.45 628.64 435.53 644.95 C 435.84 657.18 444.89 668.37 456.68 671.48 C 467.21 674.53 479.25 670.76 486.28 662.37 C 490.88 657.03 493.30 649.98 493.21 642.95 C 493.20 627.63 493.20 612.31 493.21 596.99 C 493.25 591.20 491.64 585.40 488.39 580.60 C 481.76 570.27 468.25 565.08 456.45 568.65 Z" />
<path fill="#8fddcf" opacity="1.00" d=" M 460.26 578.36 C 471.11 575.43 482.95 584.80 482.76 595.98 C 482.77 612.33 482.86 628.69 482.72 645.04 C 482.36 656.12 470.18 664.88 459.58 661.56 C 451.77 659.60 445.79 652.10 445.82 644.01 C 445.68 629.34 445.84 614.66 445.74 599.98 C 445.72 596.35 445.79 592.60 447.27 589.22 C 449.50 583.78 454.51 579.61 460.26 578.36 Z" />
</g>
<g id="#78642faf">
<path fill="#78642f" opacity="0.69" d=" M 865.16 316.73 C 866.74 321.31 867.26 326.14 867.66 330.94 C 880.44 330.99 893.23 330.92 906.01 331.00 C 907.87 331.03 909.75 330.79 911.52 330.14 C 911.24 330.53 910.70 331.29 910.43 331.68 C 904.99 332.27 899.52 331.86 894.07 331.96 C 885.13 331.87 876.18 332.17 867.24 331.77 C 866.30 326.79 865.72 321.76 865.16 316.73 Z" />
</g>
<g id="#18333aff">
<path fill="#18333a" opacity="1.00" d=" M 918.02 320.86 C 920.81 319.45 924.01 319.85 927.04 319.83 C 940.46 320.08 953.90 319.62 967.32 320.20 C 964.57 324.17 961.35 327.81 958.79 331.92 C 958.62 332.18 958.27 332.69 958.10 332.95 C 956.10 332.33 954.63 334.36 955.06 336.20 L 954.74 336.61 C 952.04 338.93 953.43 342.39 955.65 344.47 L 956.02 344.98 C 955.96 347.05 957.18 348.89 959.41 348.95 C 959.53 349.19 959.76 349.67 959.87 349.91 C 959.79 351.38 960.48 352.24 961.93 352.50 L 961.96 352.54 C 963.58 355.04 965.25 357.52 966.99 359.94 C 951.35 359.93 935.68 360.24 920.05 359.81 C 916.87 357.18 914.97 353.15 911.69 350.51 C 911.54 350.29 911.24 349.83 911.09 349.60 C 910.55 348.52 910.03 347.44 909.53 346.36 C 895.38 346.44 881.21 346.01 867.07 346.60 C 863.66 346.81 860.26 346.80 856.86 346.78 C 851.15 346.76 845.44 346.78 839.73 346.78 C 839.75 350.66 839.74 354.56 839.72 358.45 C 835.61 357.28 831.50 356.03 827.30 355.23 C 824.21 354.22 821.09 353.36 817.94 352.57 C 808.76 350.11 799.59 347.64 790.41 345.21 C 784.28 343.53 778.13 341.94 772.02 340.22 C 778.25 338.32 784.57 336.73 790.82 334.91 C 800.02 332.31 809.24 329.84 818.44 327.26 C 822.33 326.21 826.21 325.12 830.08 324.00 C 833.27 323.13 836.47 322.29 839.65 321.39 C 839.66 324.78 839.66 328.18 839.66 331.58 C 845.42 331.59 851.18 331.59 856.95 331.58 C 860.38 331.56 863.81 331.59 867.24 331.77 C 876.18 332.17 885.13 331.87 894.07 331.96 C 899.52 331.86 904.99 332.27 910.43 331.68 C 910.70 331.29 911.24 330.53 911.52 330.14 C 911.67 329.92 911.98 329.49 912.13 329.27 C 913.86 327.16 915.57 325.01 916.85 322.59 C 917.14 322.16 917.73 321.29 918.02 320.86 Z" />
<path fill="#18333a" opacity="1.00" d=" M 422.83 338.78 C 444.88 338.33 466.95 338.73 489.01 338.59 C 545.36 338.58 601.71 338.61 658.06 338.59 C 663.32 338.61 668.60 338.32 673.84 339.01 C 674.00 342.72 674.00 346.47 674.74 350.13 C 675.14 352.86 675.59 355.60 676.13 358.32 C 599.45 358.31 522.77 358.28 446.09 358.33 C 438.58 351.51 430.55 345.33 422.83 338.78 Z" />
<path fill="#18333a" opacity="1.00" d=" M 384.42 420.76 C 391.80 417.27 398.87 413.14 405.81 408.85 C 405.83 428.72 405.82 448.59 405.82 468.45 C 431.17 470.92 455.97 479.40 477.19 493.55 C 486.21 499.56 494.62 506.46 502.21 514.20 C 505.56 517.55 508.69 521.11 511.70 524.76 C 529.68 546.63 541.24 573.52 545.25 601.51 C 624.54 601.56 703.83 601.33 783.11 601.62 C 783.26 545.96 783.19 490.29 783.15 434.62 C 790.36 433.66 797.46 431.93 804.29 429.43 C 804.07 490.66 804.50 551.90 804.08 613.12 C 803.60 614.40 802.97 615.62 802.38 616.85 C 800.73 617.09 799.62 618.46 799.73 620.12 C 799.55 620.24 799.20 620.48 799.02 620.60 C 796.69 621.91 794.32 623.14 791.89 624.24 L 791.52 624.33 C 736.15 624.46 680.77 624.36 625.40 624.40 C 625.43 642.75 625.35 661.10 625.44 679.44 C 639.32 679.39 653.19 679.43 667.07 679.42 C 670.76 679.37 674.44 679.87 677.99 680.91 C 679.95 682.03 682.67 682.99 683.25 685.46 C 684.35 691.87 685.55 698.52 683.82 704.95 C 683.71 705.26 683.49 705.87 683.38 706.18 C 681.94 705.80 680.37 706.77 680.08 708.23 L 679.42 708.24 C 659.64 707.71 639.83 708.15 620.04 708.00 C 587.05 708.07 554.06 707.87 521.07 708.11 C 520.80 708.39 520.26 708.95 519.99 709.23 L 519.72 709.51 C 518.47 709.99 517.86 710.86 517.87 712.12 L 517.86 712.54 C 515.84 712.24 515.20 714.46 515.21 716.04 L 515.01 716.32 C 513.44 718.12 512.02 720.05 510.67 722.02 C 510.50 722.22 510.17 722.63 510.00 722.83 C 507.86 724.88 505.84 727.06 504.07 729.44 C 503.90 729.66 503.56 730.09 503.38 730.30 C 501.34 729.46 499.86 731.48 500.14 733.37 C 499.96 733.53 499.60 733.86 499.41 734.02 C 494.94 738.21 490.09 741.94 485.47 745.95 C 485.19 746.18 484.62 746.62 484.34 746.85 C 482.34 748.05 480.39 749.35 478.61 750.86 L 478.39 751.02 C 475.69 752.51 473.08 754.14 470.60 755.96 L 470.37 756.10 C 468.88 755.89 466.71 756.49 466.94 758.39 C 466.53 758.56 465.70 758.89 465.29 759.06 C 462.64 760.05 460.15 761.41 457.71 762.83 L 457.29 763.02 C 454.99 763.84 452.74 764.81 450.59 765.95 L 450.25 766.09 C 436.57 771.21 422.35 774.92 407.81 776.48 C 407.86 783.01 407.85 789.54 407.82 796.07 C 397.20 796.57 386.57 796.02 375.94 796.35 C 375.93 789.67 376.00 782.99 375.88 776.32 C 370.47 775.84 365.14 774.83 359.76 774.13 L 359.32 774.03 C 354.49 772.58 349.59 771.41 344.70 770.20 L 344.43 770.12 C 340.99 768.25 337.32 766.88 333.47 766.17 L 333.34 766.11 C 331.27 764.53 328.90 763.45 326.34 763.01 L 326.17 762.92 C 323.77 761.40 321.23 760.15 318.61 759.08 L 318.22 758.87 C 316.11 757.44 313.89 756.18 311.61 755.06 L 311.29 754.87 C 303.85 749.80 296.46 744.65 289.67 738.75 C 289.56 738.67 289.35 738.50 289.24 738.42 C 284.68 734.87 280.65 730.69 276.88 726.32 C 272.19 720.49 267.49 714.68 263.08 708.63 L 262.89 708.35 C 255.69 696.75 249.62 684.48 244.98 671.63 L 244.84 671.21 C 244.62 670.63 244.18 669.48 243.97 668.90 L 243.85 668.48 C 243.08 664.53 242.11 660.62 240.83 656.81 L 240.77 656.54 C 237.36 638.97 236.01 620.88 238.47 603.08 C 238.99 599.55 239.56 596.02 239.86 592.46 L 239.92 592.08 C 241.03 591.27 241.37 590.22 240.93 588.93 L 240.96 588.38 C 242.51 583.51 244.19 578.66 244.90 573.57 L 244.92 573.52 C 246.47 571.04 247.55 568.30 247.84 565.38 L 247.88 565.27 C 249.11 563.18 250.55 561.15 250.84 558.70 L 251.20 557.82 C 255.64 549.20 260.46 540.79 265.82 532.70 L 265.99 532.46 C 270.80 526.44 275.72 520.52 280.86 514.77 L 281.03 514.60 C 282.77 514.70 283.94 513.22 283.89 511.58 C 284.08 511.40 284.46 511.04 284.66 510.86 C 286.93 509.03 289.14 507.13 291.14 505.00 C 291.31 504.84 291.65 504.53 291.83 504.37 C 295.29 502.26 298.68 499.95 301.37 496.88 L 301.45 496.83 C 306.48 494.63 310.71 491.04 315.57 488.52 C 322.23 484.44 329.64 481.85 336.39 477.96 L 336.42 477.95 C 341.46 477.17 346.11 474.97 351.06 473.84 C 354.54 473.03 357.96 471.99 361.32 470.78 L 361.51 470.74 C 369.15 469.73 376.78 468.53 384.50 468.19 C 384.84 452.38 384.85 436.56 384.42 420.76 M 374.59 493.92 C 352.39 496.85 331.04 505.72 313.25 519.30 C 287.80 538.58 269.86 567.52 264.19 598.96 C 257.63 634.03 266.19 671.64 287.72 700.14 C 310.71 731.31 348.19 751.19 386.94 752.37 C 422.53 753.92 458.41 739.88 483.50 714.59 C 508.19 690.27 522.31 655.69 521.71 621.03 C 521.50 583.57 503.90 546.70 474.99 522.89 C 447.55 499.70 410.16 489.00 374.59 493.92 M 573.43 610.62 C 569.78 612.28 570.86 618.68 575.06 618.52 C 588.90 618.56 602.76 618.72 616.60 618.44 C 621.16 617.83 620.61 610.12 615.93 610.34 C 603.62 610.14 591.30 610.36 578.99 610.24 C 577.13 610.29 575.22 610.11 573.43 610.62 M 546.54 624.42 C 546.39 643.19 542.68 661.88 535.88 679.37 C 545.10 679.51 554.33 679.35 563.55 679.45 C 563.67 661.10 563.57 642.76 563.60 624.41 C 557.91 624.38 552.22 624.38 546.54 624.42 Z" />
</g>
<g id="#dea06fff">
<path fill="#dea06f" opacity="1.00" d=" M 912.13 329.27 C 913.53 326.92 915.20 324.76 916.85 322.59 C 915.57 325.01 913.86 327.16 912.13 329.27 Z" />
<path fill="#dea06f" opacity="1.00" d=" M 220.16 361.15 C 225.24 356.16 230.71 351.57 236.29 347.16 C 231.14 352.07 225.77 356.76 220.16 361.15 Z" />
<path fill="#dea06f" opacity="1.00" d=" M 265.99 532.46 C 270.37 526.13 275.28 520.09 280.86 514.77 C 275.72 520.52 270.80 526.44 265.99 532.46 Z" />
<path fill="#dea06f" opacity="1.00" d=" M 500.14 733.37 C 499.86 731.48 501.34 729.46 503.38 730.30 C 502.58 731.59 501.47 732.64 500.14 733.37 Z" />
<path fill="#dea06f" opacity="1.00" d=" M 485.47 745.95 C 490.09 741.94 494.94 738.21 499.41 734.02 C 496.93 736.29 494.93 739.04 492.50 741.35 C 490.03 742.68 487.65 744.18 485.47 745.95 Z" />
<path fill="#dea06f" opacity="1.00" d=" M 478.61 750.86 C 480.39 749.35 482.34 748.05 484.34 746.85 C 482.54 748.34 480.58 749.62 478.61 750.86 Z" />
<path fill="#dea06f" opacity="1.00" d=" M 470.60 755.96 C 473.08 754.14 475.69 752.51 478.39 751.02 C 475.94 752.89 473.30 754.50 470.60 755.96 Z" />
<path fill="#dea06f" opacity="1.00" d=" M 636.72 763.07 C 639.93 764.41 642.92 766.33 645.27 768.92 C 642.50 766.85 639.65 764.90 636.72 763.07 Z" />
<path fill="#dea06f" opacity="1.00" d=" M 646.12 769.81 C 647.97 771.55 649.12 773.85 650.09 776.18 C 648.72 774.07 647.42 771.94 646.12 769.81 Z" />
<path fill="#dea06f" opacity="1.00" d=" M 577.80 791.69 C 580.98 791.82 584.17 791.74 587.35 791.50 L 587.74 792.13 C 584.49 791.95 581.25 791.95 578.01 792.10 C 576.09 797.43 571.60 801.33 566.71 803.92 C 567.40 803.38 568.09 802.85 568.79 802.32 C 572.64 799.72 575.88 796.27 577.67 791.93 L 577.80 791.69 Z" />
<path fill="#dea06f" opacity="1.00" d=" M 470.95 957.91 C 477.78 954.53 485.40 951.98 490.27 945.76 C 490.23 946.59 490.15 948.27 490.11 949.11 C 487.68 957.04 482.33 963.69 476.61 969.55 C 467.41 979.06 457.29 987.63 447.85 996.91 C 445.93 998.99 442.82 1000.67 442.85 1003.88 C 442.67 1015.65 442.83 1027.43 442.79 1039.20 C 445.95 1039.22 449.14 1039.06 452.28 1039.55 C 431.51 1039.41 410.71 1039.37 389.92 1039.40 C 389.89 1031.60 389.89 1023.80 389.85 1016.00 C 389.73 1009.54 392.59 1003.58 393.46 997.27 C 395.02 989.44 394.52 981.44 394.83 973.52 C 398.56 977.47 402.43 981.94 408.09 982.92 C 415.74 984.93 422.71 980.37 429.33 977.28 C 443.22 970.85 457.05 964.30 470.95 957.91 Z" />
</g>
<g id="#5a625ab2">
<path fill="#5a625a" opacity="0.70" d=" M 402.78 324.96 C 404.53 325.41 406.07 326.39 407.28 327.74 C 405.13 328.64 403.16 327.06 402.78 324.96 Z" />
</g>
<g id="#6f5c2385">
<path fill="#6f5c23" opacity="0.52" d=" M 673.89 337.29 C 673.86 333.74 674.07 330.18 674.74 326.69 C 674.47 329.74 674.41 332.82 674.51 335.88 C 675.17 340.61 674.85 345.38 674.74 350.13 C 674.00 346.47 674.00 342.72 673.84 339.01 C 673.87 338.75 673.92 338.22 673.95 337.95 C 649.64 338.49 625.31 338.03 600.99 338.18 C 541.64 338.23 482.28 338.07 422.94 338.27 C 419.18 337.48 416.49 334.38 413.58 332.10 C 417.48 333.72 420.42 338.04 425.05 337.34 C 433.03 336.83 441.03 337.06 449.03 337.02 C 506.01 337.02 562.99 337.02 619.97 337.02 C 637.95 337.18 655.93 336.68 673.89 337.29 Z" />
</g>
<g id="#606250af">
<path fill="#606250" opacity="0.69" d=" M 410.44 329.94 C 411.78 329.98 412.71 330.62 413.22 331.87 C 411.69 332.05 410.77 331.41 410.44 329.94 Z" />
</g>
<g id="#434c31c3">
<path fill="#434c31" opacity="0.76" d=" M 955.06 336.20 C 954.63 334.36 956.10 332.33 958.10 332.95 C 957.42 334.31 956.42 335.50 955.06 336.20 Z" />
</g>
<g id="#332d2dff">
<path fill="#332d2d" opacity="1.00" d=" M 321.22 337.81 C 326.25 336.20 331.54 335.29 336.81 335.98 C 353.02 337.35 366.27 352.78 365.38 368.97 C 365.27 384.11 353.02 397.92 338.02 399.92 C 322.76 402.65 306.67 392.55 302.30 377.72 C 301.23 374.12 300.68 370.36 300.57 366.61 C 301.26 362.42 302.14 358.26 303.67 354.29 C 307.98 356.19 313.39 356.26 317.19 353.16 C 321.93 349.74 323.50 343.13 321.22 337.81 Z" />
</g>
<g id="#56513bd2">
<path fill="#56513b" opacity="0.82" d=" M 867.07 346.60 C 881.21 346.01 895.38 346.44 909.53 346.36 C 910.03 347.44 910.55 348.52 911.09 349.60 C 909.85 348.64 908.82 346.90 907.06 347.06 C 893.91 346.92 880.76 347.04 867.61 347.00 C 867.00 351.44 866.53 355.91 865.31 360.23 C 865.89 355.69 866.45 351.14 867.07 346.60 Z" />
</g>
<g id="#4a462389">
<path fill="#4a4623" opacity="0.54" d=" M 911.69 350.51 C 914.97 353.15 916.87 357.18 920.05 359.81 C 935.68 360.24 951.35 359.93 966.99 359.94 C 965.25 357.52 963.58 355.04 961.96 352.54 C 964.68 354.86 966.76 357.77 968.48 360.88 C 953.99 361.31 939.50 360.89 925.01 361.10 C 923.09 360.99 921.03 361.28 919.25 360.51 C 916.30 357.54 913.94 354.02 911.69 350.51 Z" />
</g>
<g id="#6c642b87">
<path fill="#6c642b" opacity="0.53" d=" M 215.27 366.62 L 215.35 366.53 C 215.33 366.57 215.29 366.64 215.28 366.68 L 215.27 366.62 Z" />
</g>
<g id="#585e4fb5">
<path fill="#585e4f" opacity="0.71" d=" M 240.99 392.93 C 243.12 392.23 245.45 393.82 245.11 396.16 C 243.56 395.32 242.18 394.21 240.99 392.93 Z" />
</g>
<g id="#f0c419ff">
<path fill="#f0c419" opacity="1.00" d=" M 540.14 403.23 C 544.41 402.93 548.69 402.76 552.97 403.09 C 558.99 403.54 565.01 402.61 571.03 403.01 C 575.41 403.26 579.81 403.19 584.20 403.16 C 584.22 405.71 584.24 408.25 584.23 410.80 C 584.20 445.26 584.27 479.71 584.20 514.16 C 569.51 514.14 554.82 514.15 540.13 514.16 C 540.12 489.31 540.14 464.46 540.12 439.61 C 540.15 427.48 540.12 415.36 540.14 403.23 Z" />
</g>
<g id="#5c5e48a6">
<path fill="#5c5e48" opacity="0.65" d=" M 257.68 405.02 C 259.19 404.86 260.11 405.52 260.43 407.00 C 259.07 406.94 258.16 406.28 257.68 405.02 Z" />
</g>
<g id="#575c4ca3">
<path fill="#575c4c" opacity="0.64" d=" M 263.67 409.29 C 265.70 408.48 268.12 409.76 268.18 412.05 C 266.48 411.47 264.95 410.54 263.67 409.29 Z" />
</g>
<g id="#7a6f3faf">
<path fill="#7a6f3f" opacity="0.69" d=" M 378.32 423.66 C 378.41 423.62 378.61 423.53 378.71 423.48 L 378.53 423.57 L 378.32 423.66 Z" />
</g>
<g id="#574e3157">
<path fill="#574e31" opacity="0.34" d=" M 188.24 456.48 C 191.61 456.39 194.97 456.43 198.34 456.64 C 198.27 458.04 198.21 459.46 198.13 460.87 C 194.68 461.11 191.12 461.46 187.83 460.15 C 187.96 458.92 188.10 457.70 188.24 456.48 M 189.11 457.10 C 189.10 457.86 189.09 459.36 189.08 460.12 C 191.96 460.25 194.84 460.17 197.73 460.00 C 197.70 459.26 197.64 457.79 197.61 457.05 C 194.77 457.08 191.94 457.08 189.11 457.10 Z" />
</g>
<g id="#4840244a">
<path fill="#484024" opacity="0.29" d=" M 206.50 456.59 C 209.67 456.25 213.17 455.70 216.18 457.04 C 212.97 457.11 209.76 457.06 206.55 457.18 C 206.67 457.82 206.91 459.10 207.03 459.74 C 210.07 460.30 213.18 460.08 216.25 460.31 C 213.02 461.53 209.50 460.88 206.14 460.81 C 206.20 459.43 205.49 457.75 206.50 456.59 Z" />
</g>
<g id="#4f452650">
<path fill="#4f4526" opacity="0.31" d=" M 224.25 456.47 C 227.54 456.55 231.07 455.63 234.19 457.00 C 230.97 457.11 227.75 457.07 224.54 457.20 C 224.62 457.77 224.80 458.91 224.89 459.48 C 227.72 460.92 231.19 459.77 234.28 460.41 C 231.58 461.34 228.64 460.93 225.84 460.90 C 223.43 460.77 224.44 458.02 224.25 456.47 Z" />
</g>
<g id="#fefefaff">
<path fill="#fefefa" opacity="1.00" d=" M 189.11 457.10 C 191.94 457.08 194.77 457.08 197.61 457.05 C 197.64 457.79 197.70 459.26 197.73 460.00 C 194.84 460.17 191.96 460.25 189.08 460.12 C 189.09 459.36 189.10 457.86 189.11 457.10 Z" />
</g>
<g id="#fefefcff">
<path fill="#fefefc" opacity="1.00" d=" M 206.55 457.18 C 209.76 457.06 212.97 457.11 216.18 457.04 C 216.20 457.86 216.23 459.49 216.25 460.31 C 213.18 460.08 210.07 460.30 207.03 459.74 C 206.91 459.10 206.67 457.82 206.55 457.18 Z" />
<path fill="#fefefc" opacity="1.00" d=" M 869.17 474.19 C 870.34 474.15 871.53 474.12 872.72 474.11 C 872.66 477.20 872.85 480.31 872.49 483.40 C 871.72 483.45 870.18 483.55 869.42 483.60 C 869.29 480.46 869.29 477.32 869.17 474.19 Z" />
</g>
<g id="#fefefbff">
<path fill="#fefefb" opacity="1.00" d=" M 224.54 457.20 C 227.75 457.07 230.97 457.11 234.19 457.00 C 234.21 457.85 234.25 459.56 234.28 460.41 C 231.19 459.77 227.72 460.92 224.89 459.48 C 224.80 458.91 224.62 457.77 224.54 457.20 Z" />
<path fill="#fefefb" opacity="1.00" d=" M 869.33 492.23 C 870.45 492.19 871.58 492.16 872.72 492.13 C 872.70 495.28 872.70 498.42 872.64 501.57 C 871.84 501.55 870.25 501.52 869.45 501.50 C 869.13 498.42 869.24 495.32 869.33 492.23 Z" />
</g>
<g id="#4a4d34aa">
<path fill="#4a4d34" opacity="0.67" d=" M 336.42 477.95 C 344.31 474.43 352.74 471.87 361.32 470.78 C 357.96 471.99 354.54 473.03 351.06 473.84 C 346.11 474.97 341.46 477.17 336.42 477.95 Z" />
</g>
<g id="#46492ea9">
<path fill="#46492e" opacity="0.66" d=" M 321.37 484.34 C 326.24 481.92 331.09 479.33 336.39 477.96 C 329.64 481.85 322.23 484.44 315.57 488.52 C 310.71 491.04 306.48 494.63 301.45 496.83 C 307.45 491.73 314.40 487.93 321.37 484.34 Z" />
</g>
<g id="#3b3e2890">
<path fill="#3b3e28" opacity="0.56" d=" M 291.83 504.37 C 294.59 501.38 297.78 498.80 301.37 496.88 C 298.68 499.95 295.29 502.26 291.83 504.37 Z" />
</g>
<g id="#edc298ff">
<path fill="#edc298" opacity="1.00" d=" M 284.66 510.86 C 286.65 508.73 288.86 506.82 291.14 505.00 C 289.14 507.13 286.93 509.03 284.66 510.86 Z" />
<path fill="#edc298" opacity="1.00" d=" M 263.08 708.63 C 267.49 714.68 272.19 720.49 276.88 726.32 C 271.79 720.83 267.05 714.98 263.08 708.63 Z" />
<path fill="#edc298" opacity="1.00" d=" M 460.20 798.49 C 464.57 796.49 468.97 793.85 473.97 794.26 C 485.05 793.76 494.34 805.25 492.22 815.97 C 491.17 822.23 486.79 827.70 480.97 830.20 C 478.50 831.63 475.16 832.02 473.69 834.73 C 477.65 835.42 481.77 836.30 485.01 838.85 C 490.93 843.11 493.66 851.14 491.90 858.17 C 490.71 863.87 486.47 868.66 481.21 871.02 C 478.32 872.50 474.92 873.30 472.78 875.93 C 476.04 876.46 479.46 876.73 482.44 878.32 C 487.40 880.97 491.09 885.92 492.12 891.46 C 493.90 899.80 489.03 908.89 481.18 912.19 C 478.64 913.75 474.82 913.93 473.70 917.09 C 481.60 917.09 489.15 922.49 491.49 930.06 C 493.32 934.97 491.87 940.13 491.22 945.11 C 490.85 946.43 490.50 947.78 490.11 949.11 C 490.15 948.27 490.23 946.59 490.27 945.76 C 485.40 951.98 477.78 954.53 470.95 957.91 C 457.05 964.30 443.22 970.85 429.33 977.28 C 422.71 980.37 415.74 984.93 408.09 982.92 C 402.43 981.94 398.56 977.47 394.83 973.52 C 394.52 981.44 395.02 989.44 393.46 997.27 C 392.59 1003.58 389.73 1009.54 389.85 1016.00 C 389.89 1023.80 389.89 1031.60 389.92 1039.40 C 368.12 1039.53 346.32 1039.14 324.53 1039.68 C 324.35 1054.09 324.62 1068.50 324.39 1082.90 C 323.84 1068.37 324.29 1053.80 324.17 1039.25 C 327.04 1039.25 329.91 1039.23 332.78 1039.22 C 332.78 1030.71 332.81 1022.20 332.76 1013.70 C 324.71 1013.88 316.75 1010.60 311.00 1005.00 C 304.87 999.03 301.40 990.50 301.48 981.97 C 301.55 939.30 301.45 896.64 301.53 853.97 C 301.73 843.63 310.81 834.59 321.14 834.41 C 333.34 834.35 345.54 834.36 357.74 834.43 L 358.05 834.43 C 367.03 834.51 376.02 834.43 385.00 834.45 C 388.09 834.38 391.09 835.20 394.03 836.11 C 395.92 831.95 398.39 827.78 402.58 825.60 C 410.35 821.55 418.47 818.20 426.32 814.30 C 437.64 809.10 448.92 803.79 460.20 798.49 M 401.85 831.80 C 399.60 833.07 398.99 835.67 398.17 837.92 C 404.43 841.10 411.01 843.59 417.33 846.64 C 419.49 847.68 421.77 848.43 424.09 849.06 C 421.77 841.02 417.07 833.94 413.94 826.21 C 409.86 827.94 405.60 829.39 401.85 831.80 M 421.87 854.34 C 418.42 862.63 414.80 870.86 411.04 879.02 C 410.64 880.23 409.70 881.49 410.20 882.83 C 413.21 884.69 416.62 885.78 419.81 887.29 C 423.13 888.82 427.34 889.83 430.62 887.64 C 434.06 885.85 435.17 881.94 436.71 878.69 C 438.31 874.97 440.80 871.19 440.05 866.95 C 439.63 863.43 436.88 860.70 433.74 859.37 C 429.81 857.62 425.95 855.71 421.87 854.34 M 357.10 875.61 C 361.67 881.79 366.57 887.75 370.26 894.54 C 382.12 915.67 389.68 939.15 393.25 963.09 C 394.18 957.49 397.01 951.93 402.01 948.95 C 406.22 946.49 410.83 944.83 415.11 942.51 C 411.68 942.45 408.12 942.48 404.96 941.00 C 398.48 938.42 393.84 931.89 393.49 924.94 C 392.93 917.88 396.81 910.65 403.12 907.37 C 407.36 905.15 411.76 903.26 416.14 901.33 C 411.45 901.44 406.48 901.23 402.42 898.58 C 396.16 894.96 392.87 887.53 393.45 880.44 C 389.59 878.79 385.86 876.80 381.89 875.42 C 377.97 874.80 373.97 875.27 370.02 875.15 C 365.71 875.27 361.35 874.73 357.10 875.61 M 399.90 883.16 C 400.88 887.51 402.79 891.86 405.80 895.18 C 410.33 899.07 416.22 895.76 420.67 893.52 C 420.70 893.24 420.74 892.67 420.77 892.39 C 413.76 889.44 406.82 886.31 399.90 883.16 M 403.08 913.11 C 399.52 914.78 397.39 919.28 398.84 923.03 C 400.24 926.79 402.02 930.42 403.96 933.94 C 405.82 937.73 410.83 939.19 414.60 937.52 C 418.10 936.04 421.43 934.19 424.89 932.61 C 421.97 924.17 417.50 916.37 413.92 908.20 C 410.28 909.76 406.61 911.30 403.08 913.11 M 403.00 954.09 C 399.41 955.81 397.28 960.38 398.90 964.15 C 400.21 967.68 401.96 971.03 403.63 974.40 C 405.12 977.85 409.29 979.94 412.93 978.86 C 417.22 977.58 421.23 975.51 425.03 973.18 C 422.56 966.53 418.90 960.42 416.18 953.88 C 415.48 952.32 414.95 950.63 413.79 949.36 C 410.02 950.49 406.50 952.33 403.00 954.09 Z" />
</g>
<g id="#fdfefbff">
<path fill="#fdfefb" opacity="1.00" d=" M 869.31 510.27 C 870.42 510.24 871.55 510.21 872.69 510.19 C 872.69 513.31 872.70 516.44 872.71 519.56 C 871.59 519.56 870.48 519.56 869.38 519.57 C 869.27 516.47 869.29 513.37 869.31 510.27 Z" />
</g>
<g id="#4c4b2a8c">
<path fill="#4c4b2a" opacity="0.55" d=" M 247.88 565.27 C 248.43 562.90 249.23 560.57 250.84 558.70 C 250.55 561.15 249.11 563.18 247.88 565.27 Z" />
</g>
<g id="#504f2fa0">
<path fill="#504f2f" opacity="0.63" d=" M 244.92 573.52 C 245.46 570.66 246.42 567.91 247.84 565.38 C 247.55 568.30 246.47 571.04 244.92 573.52 Z" />
</g>
<g id="#4a4b2d9d">
<path fill="#4a4b2d" opacity="0.62" d=" M 240.96 588.38 C 241.12 583.20 242.83 578.26 244.90 573.57 C 244.19 578.66 242.51 583.51 240.96 588.38 Z" />
</g>
<g id="#656236b9">
<path fill="#656236" opacity="0.73" d=" M 239.92 592.08 C 239.35 590.62 239.69 589.57 240.93 588.93 C 241.37 590.22 241.03 591.27 239.92 592.08 Z" />
</g>
<g id="#ffd13eff">
<path fill="#ffd13e" opacity="1.00" d=" M 901.32 608.49 C 914.62 604.88 929.64 614.31 931.90 627.93 C 934.42 639.97 926.65 653.26 914.73 656.59 C 905.87 659.44 895.42 656.66 889.15 649.78 C 883.28 643.93 881.30 634.88 883.07 626.92 C 885.22 618.05 892.39 610.61 901.32 608.49 Z" />
<path fill="#ffd13e" opacity="1.00" d=" M 625.40 624.40 C 680.77 624.36 736.15 624.46 791.52 624.33 C 782.85 625.45 774.02 624.51 765.29 624.82 C 755.52 624.95 746.22 628.37 736.70 630.16 C 737.25 637.61 740.36 644.57 741.09 651.98 C 740.12 653.13 738.63 653.65 737.36 654.37 C 727.82 658.87 718.88 664.83 711.62 672.52 C 710.16 674.01 708.82 675.64 707.08 676.80 C 700.37 673.56 694.47 668.86 687.82 665.48 C 684.30 670.47 681.42 675.86 677.99 680.91 C 674.44 679.87 670.76 679.37 667.07 679.42 C 653.19 679.43 639.32 679.39 625.44 679.44 C 625.35 661.10 625.43 642.75 625.40 624.40 Z" />
</g>
<g id="#ca2727ff">
<path fill="#ca2727" opacity="1.00" d=" M 573.43 610.62 C 575.22 610.11 577.13 610.29 578.99 610.24 C 591.30 610.36 603.62 610.14 615.93 610.34 C 620.61 610.12 621.16 617.83 616.60 618.44 C 602.76 618.72 588.90 618.56 575.06 618.52 C 570.86 618.68 569.78 612.28 573.43 610.62 Z" />
</g>
<g id="#4544227c">
<path fill="#454422" opacity="0.49" d=" M 799.73 620.12 C 799.62 618.46 800.73 617.09 802.38 616.85 C 802.18 618.38 801.17 619.61 799.73 620.12 Z" />
</g>
<g id="#666334b6">
<path fill="#666334" opacity="0.71" d=" M 243.97 668.90 C 244.18 669.48 244.62 670.63 244.84 671.21 C 244.62 670.63 244.18 669.48 243.97 668.90 Z" />
</g>
<g id="#443f1e6b">
<path fill="#443f1e" opacity="0.42" d=" M 680.08 708.23 C 680.37 706.77 681.94 705.80 683.38 706.18 C 683.05 707.62 681.47 708.41 680.08 708.23 Z" />
</g>
<g id="#a58d31cc">
<path fill="#a58d31" opacity="0.80" d=" M 519.99 709.23 C 520.26 708.95 520.80 708.39 521.07 708.11 C 554.06 707.87 587.05 708.07 620.04 708.00 C 639.83 708.15 659.64 707.71 679.42 708.24 C 673.72 709.58 667.84 708.86 662.05 709.02 C 614.69 709.16 567.33 708.74 519.99 709.23 Z" />
</g>
<g id="#4e5132be">
<path fill="#4e5132" opacity="0.75" d=" M 517.87 712.12 C 517.86 710.86 518.47 709.99 519.72 709.51 C 519.95 711.10 519.34 711.97 517.87 712.12 Z" />
</g>
<g id="#60634ec5">
<path fill="#60634e" opacity="0.77" d=" M 289.24 738.42 C 289.35 738.50 289.56 738.67 289.67 738.75 C 289.56 738.67 289.35 738.50 289.24 738.42 Z" />
</g>
<g id="#4f533cac">
<path fill="#4f533c" opacity="0.67" d=" M 466.94 758.39 C 466.71 756.49 468.88 755.89 470.37 756.10 C 469.59 757.31 468.36 758.13 466.94 758.39 Z" />
</g>
<g id="#4e49275f">
<path fill="#4e4927" opacity="0.37" d=" M 541.27 761.08 C 542.79 759.64 545.09 760.33 546.99 760.10 C 549.11 760.25 551.68 759.40 553.34 761.16 C 549.32 760.85 545.28 760.73 541.27 761.08 Z" />
</g>
<g id="#0b404eff">
<path fill="#0b404e" opacity="1.00" d=" M 602.08 762.47 C 613.18 758.79 625.39 758.71 636.36 762.89 L 636.72 763.07 C 639.65 764.90 642.50 766.85 645.27 768.92 C 645.48 769.14 645.90 769.59 646.12 769.81 C 647.42 771.94 648.72 774.07 650.09 776.18 C 651.27 781.52 651.59 787.49 648.68 792.36 C 646.33 797.04 641.85 800.00 637.68 802.89 L 637.31 803.07 C 632.89 804.85 628.26 806.00 623.61 806.95 L 623.27 806.99 C 619.99 806.96 616.72 806.97 613.45 807.04 C 613.20 807.01 612.71 806.97 612.46 806.94 C 609.14 806.19 605.80 805.48 602.57 804.41 C 602.76 800.10 603.27 795.75 602.11 791.52 C 611.06 796.42 622.28 796.56 631.67 792.80 C 635.93 790.96 640.66 787.97 641.34 782.96 C 640.28 777.53 634.79 774.67 630.03 772.99 C 621.34 770.31 611.52 770.72 603.32 774.78 C 603.13 770.65 602.86 766.53 602.08 762.47 Z" />
<path fill="#0b404e" opacity="1.00" d=" M 530.24 764.30 C 539.94 760.12 550.87 760.62 561.00 762.82 L 562.24 763.04 L 562.35 764.00 C 562.89 767.98 563.15 772.04 562.22 775.99 C 552.40 771.30 540.31 771.47 530.73 776.69 C 528.00 778.41 524.96 780.61 524.25 783.96 C 523.50 788.25 527.51 791.22 530.75 793.13 C 540.38 798.12 552.45 797.96 562.14 793.21 C 562.86 797.20 563.03 801.25 563.14 805.30 C 561.64 805.82 560.14 806.36 558.65 806.89 L 558.37 806.95 C 550.56 808.43 542.46 808.47 534.66 806.95 L 533.87 806.77 C 533.37 806.56 532.38 806.16 531.89 805.96 L 531.40 805.91 C 523.44 803.04 515.75 796.70 514.48 787.90 C 513.55 783.32 515.16 778.78 516.85 774.60 L 517.14 774.21 C 520.78 770.07 525.03 766.30 530.24 764.30 Z" />
</g>
<g id="#4b4b279c">
<path fill="#4b4b27" opacity="0.61" d=" M 326.34 763.01 C 328.90 763.45 331.27 764.53 333.34 766.11 C 330.84 765.47 328.47 764.46 326.34 763.01 Z" />
</g>
<g id="#144e63ff">
<path fill="#144e63" opacity="1.00" d=" M 597.35 764.58 C 598.93 763.88 600.50 763.18 602.08 762.47 C 602.86 766.53 603.13 770.65 603.32 774.78 C 602.26 775.45 601.24 776.18 600.23 776.93 C 595.61 776.80 590.98 776.71 586.40 776.13 C 586.62 776.12 587.06 776.10 587.27 776.09 C 590.75 775.94 594.23 775.90 597.71 775.77 C 597.82 772.21 598.14 768.66 598.31 765.11 C 598.12 765.01 597.75 764.80 597.56 764.70 L 597.35 764.58 Z" />
</g>
<g id="#175368ff">
<path fill="#175368" opacity="1.00" d=" M 562.35 764.00 L 562.25 763.15 C 564.45 764.14 566.65 765.17 568.85 766.20 L 568.85 766.35 C 568.60 769.56 568.83 772.76 569.13 775.96 C 571.83 775.97 574.53 775.87 577.24 775.81 C 577.32 775.94 577.46 776.21 577.53 776.35 C 573.19 776.77 568.84 777.03 564.49 777.37 C 563.73 776.89 562.99 776.42 562.22 775.99 C 563.15 772.04 562.89 767.98 562.35 764.00 Z" />
</g>
<g id="#1f5f7bff">
<path fill="#1f5f7b" opacity="1.00" d=" M 593.10 768.03 C 594.40 766.70 595.80 765.39 597.56 764.70 C 597.75 764.80 598.12 765.01 598.31 765.11 C 598.14 768.66 597.82 772.21 597.71 775.77 C 594.23 775.90 590.75 775.94 587.27 776.09 C 588.97 773.23 590.81 770.45 593.10 768.03 Z" />
</g>
<g id="#4a482593">
<path fill="#4a4825" opacity="0.58" d=" M 333.47 766.17 C 337.32 766.88 340.99 768.25 344.43 770.12 C 340.58 769.41 336.87 768.10 333.47 766.17 Z" />
</g>
<g id="#226381ff">
<path fill="#226381" opacity="1.00" d=" M 568.85 766.35 L 569.98 767.35 C 572.03 769.21 574.06 771.10 575.94 773.15 L 576.25 773.76 C 576.50 774.27 577.00 775.29 577.24 775.81 C 574.53 775.87 571.83 775.97 569.13 775.96 C 568.83 772.76 568.60 769.56 568.85 766.35 Z" />
</g>
<g id="#07414fff">
<path fill="#07414f" opacity="1.00" d=" M 564.49 777.37 C 568.84 777.03 573.19 776.77 577.53 776.35 C 580.48 776.15 583.44 776.13 586.40 776.13 C 590.98 776.71 595.61 776.80 600.23 776.93 C 605.13 777.45 610.16 778.20 614.59 780.47 C 616.41 781.08 618.00 783.66 616.18 785.16 C 611.79 788.73 605.83 789.30 600.50 790.53 C 596.11 790.84 591.72 791.00 587.35 791.50 C 584.17 791.74 580.98 791.82 577.80 791.69 C 573.74 791.34 569.68 791.08 565.61 790.89 C 560.09 790.30 554.22 789.61 549.49 786.48 C 547.99 785.61 547.89 783.32 549.34 782.38 C 553.66 779.08 559.32 778.43 564.49 777.37 Z" />
</g>
<g id="#1a5871ff">
<path fill="#1a5871" opacity="1.00" d=" M 587.35 791.50 C 591.72 791.00 596.11 790.84 600.50 790.53 C 600.90 790.78 601.70 791.27 602.11 791.52 C 603.27 795.75 602.76 800.10 602.57 804.41 C 596.67 802.04 591.31 798.10 588.02 792.58 L 587.74 792.13 L 587.35 791.50 Z" />
</g>
<g id="#165165ff">
<path fill="#165165" opacity="1.00" d=" M 565.61 790.89 C 569.68 791.08 573.74 791.34 577.80 791.69 L 577.67 791.93 C 574.81 791.90 571.96 791.90 569.11 792.06 C 568.78 795.46 568.56 798.89 568.79 802.32 C 568.09 802.85 567.40 803.38 566.71 803.92 L 566.41 804.11 C 565.32 804.51 564.23 804.90 563.14 805.30 C 563.03 801.25 562.86 797.20 562.14 793.21 C 563.32 792.48 564.45 791.66 565.61 790.89 Z" />
</g>
<g id="#226181ff">
<path fill="#226181" opacity="1.00" d=" M 569.11 792.06 C 571.96 791.90 574.81 791.90 577.67 791.93 C 575.88 796.27 572.64 799.72 568.79 802.32 C 568.56 798.89 568.78 795.46 569.11 792.06 Z" />
</g>
<g id="#d7542dff">
<path fill="#d7542d" opacity="1.00" d=" M 358.06 796.18 C 364.02 796.09 369.98 796.13 375.94 796.35 C 369.97 796.76 363.99 796.61 358.02 796.78 L 358.06 796.18 Z" />
</g>
<g id="#ca2728ff">
<path fill="#ca2728" opacity="1.00" d=" M 375.94 796.35 C 386.57 796.02 397.20 796.57 407.82 796.07 L 408.20 796.05 C 414.20 795.77 420.21 795.83 426.22 796.06 C 426.27 802.14 426.19 808.22 426.32 814.30 C 418.47 818.20 410.35 821.55 402.58 825.60 C 398.39 827.78 395.92 831.95 394.03 836.11 C 391.09 835.20 388.09 834.38 385.00 834.45 C 376.02 834.43 367.03 834.51 358.05 834.43 C 357.96 821.88 357.90 809.33 358.02 796.78 C 363.99 796.61 369.97 796.76 375.94 796.35 Z" />
<path fill="#ca2728" opacity="1.00" d=" M 357.10 875.61 C 361.35 874.73 365.71 875.27 370.02 875.15 C 373.97 875.27 377.97 874.80 381.89 875.42 C 385.86 876.80 389.59 878.79 393.45 880.44 C 392.87 887.53 396.16 894.96 402.42 898.58 C 406.48 901.23 411.45 901.44 416.14 901.33 C 411.76 903.26 407.36 905.15 403.12 907.37 C 396.81 910.65 392.93 917.88 393.49 924.94 C 393.84 931.89 398.48 938.42 404.96 941.00 C 408.12 942.48 411.68 942.45 415.11 942.51 C 410.83 944.83 406.22 946.49 402.01 948.95 C 397.01 951.93 394.18 957.49 393.25 963.09 C 389.68 939.15 382.12 915.67 370.26 894.54 C 366.57 887.75 361.67 881.79 357.10 875.61 Z" />
<path fill="#ca2728" opacity="1.00" d=" M 324.53 1039.68 C 346.32 1039.14 368.12 1039.53 389.92 1039.40 C 410.71 1039.37 431.51 1039.41 452.28 1039.55 C 452.29 1050.05 452.27 1060.54 452.28 1071.04 C 452.24 1075.28 452.63 1079.58 451.63 1083.75 C 449.82 1082.96 447.87 1082.63 445.92 1082.72 C 405.41 1082.92 364.90 1082.56 324.39 1082.90 C 324.62 1068.50 324.35 1054.09 324.53 1039.68 Z" />
</g>
<g id="#616941ca">
<path fill="#616941" opacity="0.79" d=" M 531.89 805.96 C 532.38 806.16 533.37 806.56 533.87 806.77 L 533.07 807.26 L 532.06 806.84 L 531.89 805.96 Z" />
</g>
<g id="#51543491">
<path fill="#515434" opacity="0.57" d=" M 534.66 806.95 C 542.46 808.47 550.56 808.43 558.37 806.95 L 558.33 807.84 C 550.55 809.55 542.38 809.56 534.61 807.84 L 534.66 806.95 Z" />
</g>
<g id="#4a442958">
<path fill="#4a4429" opacity="0.35" d=" M 613.45 807.04 C 616.72 806.97 619.99 806.96 623.27 806.99 C 620.23 808.40 616.47 808.59 613.45 807.04 Z" />
</g>
<g id="#f8deb3ff">
<path fill="#f8deb3" opacity="1.00" d=" M 401.85 831.80 C 405.60 829.39 409.86 827.94 413.94 826.21 C 417.07 833.94 421.77 841.02 424.09 849.06 C 421.77 848.43 419.49 847.68 417.33 846.64 C 411.01 843.59 404.43 841.10 398.17 837.92 C 398.99 835.67 399.60 833.07 401.85 831.80 Z" />
</g>
<g id="#f9deb2ff">
<path fill="#f9deb2" opacity="1.00" d=" M 421.87 854.34 C 425.95 855.71 429.81 857.62 433.74 859.37 C 436.88 860.70 439.63 863.43 440.05 866.95 C 440.80 871.19 438.31 874.97 436.71 878.69 C 435.17 881.94 434.06 885.85 430.62 887.64 C 427.34 889.83 423.13 888.82 419.81 887.29 C 416.62 885.78 413.21 884.69 410.20 882.83 C 409.70 881.49 410.64 880.23 411.04 879.02 C 414.80 870.86 418.42 862.63 421.87 854.34 Z" />
<path fill="#f9deb2" opacity="1.00" d=" M 403.00 954.09 C 406.50 952.33 410.02 950.49 413.79 949.36 C 414.95 950.63 415.48 952.32 416.18 953.88 C 418.90 960.42 422.56 966.53 425.03 973.18 C 421.23 975.51 417.22 977.58 412.93 978.86 C 409.29 979.94 405.12 977.85 403.63 974.40 C 401.96 971.03 400.21 967.68 398.90 964.15 C 397.28 960.38 399.41 955.81 403.00 954.09 Z" />
</g>
<g id="#f8deb2ff">
<path fill="#f8deb2" opacity="1.00" d=" M 399.90 883.16 C 406.82 886.31 413.76 889.44 420.77 892.39 C 420.74 892.67 420.70 893.24 420.67 893.52 C 416.22 895.76 410.33 899.07 405.80 895.18 C 402.79 891.86 400.88 887.51 399.90 883.16 Z" />
</g>
<g id="#fffffdff">
<path fill="#fffffd" opacity="1.00" d=" M 683.19 894.74 C 686.28 894.62 689.38 894.64 692.49 894.64 C 692.46 895.46 692.40 897.10 692.37 897.92 C 689.34 897.93 686.31 897.94 683.29 897.88 C 683.27 897.09 683.21 895.52 683.19 894.74 Z" />
<path fill="#fffffd" opacity="1.00" d=" M 701.20 894.67 C 704.31 894.63 707.42 894.64 710.54 894.69 C 710.51 895.50 710.45 897.12 710.41 897.93 C 707.36 897.92 704.31 897.94 701.27 897.87 C 701.25 897.07 701.22 895.47 701.20 894.67 Z" />
</g>
<g id="#fefefdff">
<path fill="#fefefd" opacity="1.00" d=" M 719.16 894.73 C 722.27 894.63 725.39 894.64 728.52 894.65 C 728.50 895.47 728.48 897.11 728.47 897.93 C 725.36 897.93 722.26 897.96 719.16 897.82 C 719.16 897.05 719.16 895.50 719.16 894.73 Z" />
</g>
<g id="#f9deb3ff">
<path fill="#f9deb3" opacity="1.00" d=" M 403.08 913.11 C 406.61 911.30 410.28 909.76 413.92 908.20 C 417.50 916.37 421.97 924.17 424.89 932.61 C 421.43 934.19 418.10 936.04 414.60 937.52 C 410.83 939.19 405.82 937.73 403.96 933.94 C 402.02 930.42 400.24 926.79 398.84 923.03 C 397.39 919.28 399.52 914.78 403.08 913.11 Z" />
</g>
<g id="#f7c43cfe">
<path fill="#f7c43c" opacity="1.00" d=" M 324.39 1082.90 C 364.90 1082.56 405.41 1082.92 445.92 1082.72 C 447.87 1082.63 449.82 1082.96 451.63 1083.75 L 452.34 1084.00 L 325.07 1084.00 L 324.39 1082.90 Z" />
</g>
</svg>
