<?xml version="1.0" encoding="UTF-8" ?>
<!DOCTYPE svg PUBLIC "-//W3C//DTD SVG 1.1//EN" "http://www.w3.org/Graphics/SVG/1.1/DTD/svg11.dtd">
<svg width="512pt" height="512pt" viewBox="0 0 512 512" version="1.1" xmlns="http://www.w3.org/2000/svg">
<g id="#ff9c00ff">
<path fill="#ff9c00" opacity="1.00" d=" M 113.46 27.40 C 115.47 25.97 118.26 26.26 120.06 27.91 C 130.34 36.62 140.69 45.27 151.02 53.94 C 153.34 55.95 156.42 57.76 157.02 61.03 C 156.97 64.94 152.13 67.84 148.91 65.31 C 136.99 55.51 125.29 45.46 113.49 35.53 C 110.78 33.69 110.80 29.26 113.46 27.40 Z" />
<path fill="#ff9c00" opacity="1.00" d=" M 390.32 29.23 C 392.10 27.64 394.43 25.70 396.99 26.71 C 400.90 27.56 401.80 33.38 398.51 35.54 C 387.02 45.32 375.55 55.12 364.02 64.85 C 362.23 66.80 359.53 66.44 357.18 66.17 C 355.40 64.36 354.70 62.03 354.79 59.53 C 366.24 48.99 378.60 39.48 390.32 29.23 Z" />
<path fill="#ff9c00" opacity="1.00" d=" M 203.56 57.61 C 222.75 45.96 245.84 40.89 268.15 43.38 C 290.30 45.95 311.36 56.19 327.33 71.70 C 343.54 87.45 354.42 108.69 357.36 131.13 C 362.41 165.83 347.91 202.55 320.45 224.38 C 314.96 228.54 309.43 233.00 305.90 239.04 C 302.55 244.31 300.93 250.43 299.92 256.53 C 303.54 256.53 309.13 256.23 309.57 261.09 C 309.84 273.73 309.59 286.39 309.69 299.04 C 309.93 301.76 308.72 305.15 305.60 305.43 C 300.48 305.86 295.34 305.48 290.21 305.64 C 290.33 309.73 289.88 313.99 287.48 317.44 C 284.50 322.30 278.68 325.25 273.01 325.06 C 261.69 325.04 250.37 325.04 239.06 325.06 C 232.36 325.35 225.66 321.17 223.17 314.91 C 221.74 312.02 221.86 308.76 221.79 305.63 C 216.68 305.47 211.55 305.87 206.45 305.44 C 203.81 305.22 202.26 302.59 202.35 300.13 C 202.26 288.08 202.37 276.02 202.30 263.97 C 202.29 261.66 202.25 258.78 204.42 257.33 C 206.74 256.02 209.54 256.54 212.08 256.28 C 210.96 249.72 209.12 243.14 205.28 237.62 C 200.56 230.13 192.70 225.66 186.41 219.68 C 170.75 204.93 159.88 185.15 155.97 163.98 C 152.45 145.80 154.21 126.71 160.68 109.38 C 168.57 87.93 184.02 69.43 203.56 57.61 M 190.78 79.79 C 174.21 96.40 164.08 119.56 163.98 143.09 C 162.98 171.74 176.76 200.37 199.51 217.74 C 205.31 222.13 210.79 227.15 214.56 233.44 C 219.05 240.40 221.29 248.54 222.24 256.70 C 244.75 256.69 267.25 256.66 289.76 256.72 C 290.85 245.88 294.85 235.19 302.19 227.03 C 307.26 221.09 314.06 217.04 319.66 211.66 C 337.81 194.29 348.68 169.25 348.03 144.05 C 348.19 130.56 344.84 117.11 339.04 104.97 C 324.65 74.25 291.98 53.02 257.99 52.93 C 233.13 52.00 208.31 62.25 190.78 79.79 M 212.31 266.90 C 212.29 269.93 212.29 272.96 212.29 276.00 C 241.39 276.00 270.48 276.00 299.58 276.00 C 299.57 272.96 299.58 269.92 299.57 266.88 C 270.48 266.83 241.40 266.79 212.31 266.90 M 212.34 286.18 C 212.29 289.27 212.28 292.36 212.33 295.45 C 241.39 295.55 270.46 295.54 299.53 295.46 C 299.59 292.36 299.59 289.26 299.53 286.17 C 270.47 286.14 241.40 286.11 212.34 286.18 M 231.87 305.63 C 231.30 309.69 233.32 314.62 237.94 314.90 C 250.01 314.99 262.09 315.01 274.16 314.89 C 278.73 314.54 280.70 309.64 280.13 305.61 C 264.04 305.62 247.95 305.58 231.87 305.63 Z" />
<path fill="#ff9c00" opacity="1.00" d=" M 242.18 81.90 C 246.74 81.11 251.38 81.49 255.99 81.41 C 260.60 81.48 265.25 81.12 269.82 81.90 C 270.63 83.23 272.02 84.37 272.10 86.02 C 272.37 90.52 272.13 95.03 272.19 99.53 C 274.56 100.44 276.91 101.38 279.28 102.28 C 282.34 99.29 285.16 96.05 288.38 93.22 C 290.62 91.24 294.14 91.63 296.16 93.74 C 301.09 98.54 305.94 103.44 310.78 108.34 C 313.11 110.50 313.20 114.57 310.81 116.72 C 307.94 119.70 304.95 122.56 302.02 125.48 C 303.14 127.74 304.18 130.04 305.22 132.34 C 309.51 132.37 313.81 132.17 318.10 132.41 C 320.92 132.48 323.49 135.03 323.22 137.92 C 323.21 145.90 323.40 153.89 323.08 161.87 C 321.57 163.11 320.15 164.94 318.02 164.96 C 313.65 165.10 309.27 164.95 304.90 165.00 C 304.00 167.30 303.08 169.60 302.05 171.85 C 305.29 175.04 308.78 178.00 311.78 181.42 C 313.46 183.52 313.36 186.52 311.40 188.41 C 305.89 194.10 300.28 199.70 294.57 205.19 C 292.44 205.11 289.93 205.58 288.34 203.81 C 285.22 200.92 282.32 197.81 279.31 194.81 C 277.08 195.77 274.78 196.59 272.65 197.75 C 271.73 202.68 273.10 207.84 271.92 212.75 C 270.63 215.27 267.69 216.33 264.99 216.02 C 258.61 215.97 252.23 216.03 245.86 216.00 C 242.74 216.15 239.61 213.33 239.94 210.11 C 239.86 206.01 239.95 201.90 239.93 197.79 C 237.54 196.87 235.19 195.86 232.85 194.81 C 229.40 198.26 225.98 201.74 222.47 205.12 C 220.83 205.15 219.20 205.15 217.58 205.12 C 211.58 199.35 205.83 193.33 199.85 187.54 C 199.52 185.52 199.03 183.23 200.48 181.50 C 203.39 178.05 206.81 175.09 209.94 171.85 C 208.84 169.59 207.84 167.29 206.83 165.00 C 202.53 164.95 198.23 165.10 193.94 164.96 C 191.83 164.92 190.41 163.10 188.92 161.87 C 188.61 153.89 188.77 145.89 188.79 137.90 C 188.52 135.03 191.07 132.49 193.88 132.41 C 198.26 132.16 202.66 132.38 207.05 132.32 C 207.95 130.01 208.91 127.72 209.97 125.48 C 206.88 122.38 203.66 119.40 200.66 116.21 C 198.53 113.98 198.98 110.25 201.20 108.27 C 206.05 103.40 210.87 98.52 215.78 93.72 C 217.78 91.55 221.36 91.29 223.57 93.29 C 226.82 96.10 229.66 99.36 232.76 102.34 C 235.14 101.51 237.47 100.54 239.80 99.56 C 239.87 95.06 239.63 90.54 239.90 86.04 C 239.96 84.38 241.36 83.23 242.18 81.90 M 250.08 91.49 C 249.95 95.86 250.30 100.24 249.91 104.59 C 248.83 108.51 244.18 108.64 241.07 110.06 C 237.28 111.23 233.50 115.19 229.39 112.86 C 226.12 110.06 223.29 106.80 220.19 103.82 C 217.19 106.74 214.20 109.66 211.21 112.59 C 214.08 115.78 217.53 118.47 220.10 121.92 C 222.32 125.09 219.37 128.32 218.18 131.25 C 216.20 134.70 216.39 139.58 212.77 141.91 C 208.28 143.02 203.56 142.22 198.98 142.45 C 198.96 146.56 198.96 150.66 198.98 154.76 C 203.61 154.77 208.25 154.65 212.87 154.92 C 217.17 159.26 217.33 165.95 221.10 170.72 C 221.00 172.51 221.49 174.60 220.07 176.01 C 217.44 179.14 214.31 181.81 211.55 184.81 C 214.34 187.71 217.20 190.55 220.07 193.37 C 223.06 190.57 225.72 187.42 228.85 184.78 C 230.93 183.10 233.86 183.87 235.97 185.09 C 239.12 186.83 242.53 187.99 245.92 189.16 C 248.36 189.88 250.04 192.33 249.98 194.86 C 250.08 198.49 249.97 202.12 249.99 205.76 C 254.00 205.74 258.00 205.76 262.01 205.76 C 262.09 201.59 261.75 197.39 262.18 193.23 C 262.92 189.93 266.28 188.68 269.18 187.91 C 273.73 186.76 277.53 182.91 282.50 183.83 C 285.69 186.84 288.58 190.16 291.91 193.01 C 295.38 191.09 297.87 187.30 300.90 184.61 C 298.14 181.85 295.28 179.19 292.65 176.30 C 291.54 174.93 290.44 173.01 291.34 171.25 C 292.60 168.01 294.55 165.07 295.48 161.69 C 296.29 159.15 297.12 155.90 300.05 155.07 C 304.34 154.56 308.68 154.94 313.00 154.85 C 313.00 150.74 313.00 146.63 312.99 142.51 C 308.59 142.33 304.12 142.95 299.77 142.15 C 295.57 140.72 295.89 135.39 294.00 132.09 C 292.84 128.92 289.44 125.38 291.77 121.98 C 294.43 118.54 297.87 115.78 300.80 112.58 C 298.01 109.62 295.15 106.73 292.32 103.81 C 289.11 106.79 286.36 110.31 282.80 112.89 C 278.89 114.79 275.38 111.31 271.85 110.11 C 268.77 108.64 264.28 108.59 262.84 104.98 C 261.86 100.56 262.63 95.97 262.35 91.49 C 258.26 91.43 254.17 91.43 250.08 91.49 Z" />
<path fill="#ff9c00" opacity="1.00" d=" M 83.17 81.79 C 84.98 81.81 86.85 81.74 88.57 82.43 C 102.25 87.33 115.90 92.34 129.60 97.18 C 131.00 97.69 132.45 98.35 133.29 99.66 C 135.37 102.41 133.37 107.15 129.88 107.41 C 128.30 107.82 126.82 106.87 125.37 106.43 C 111.76 101.38 98.06 96.59 84.43 91.61 C 82.70 91.06 80.99 89.91 80.71 87.97 C 79.79 85.51 81.73 83.50 83.17 81.79 Z" />
<path fill="#ff9c00" opacity="1.00" d=" M 424.44 82.15 C 426.99 81.14 430.34 82.02 431.38 84.75 C 433.17 87.52 430.75 91.06 427.94 91.91 C 414.41 96.81 400.85 101.61 387.34 106.57 C 385.49 107.39 383.45 107.36 381.48 107.22 C 380.59 106.30 379.71 105.39 378.82 104.48 C 378.62 101.96 378.71 98.58 381.62 97.66 C 395.85 92.37 410.17 87.33 424.44 82.15 Z" />
<path fill="#ff9c00" opacity="1.00" d=" M 250.41 123.53 C 265.12 119.69 281.18 131.94 281.47 147.10 C 282.62 160.47 271.39 172.99 258.16 173.99 C 247.97 174.93 237.56 168.99 233.14 159.77 C 230.40 154.73 230.00 148.73 230.99 143.16 C 233.01 133.61 240.88 125.67 250.41 123.53 M 252.36 133.48 C 246.48 134.85 241.70 139.92 240.85 145.92 C 239.17 154.22 245.55 162.82 253.92 163.80 C 263.47 165.87 272.74 156.49 271.30 147.00 C 270.80 137.96 261.07 131.04 252.36 133.48 Z" />
<path fill="#ff9c00" opacity="1.00" d=" M 69.81 150.89 C 69.29 147.80 70.27 143.71 74.08 143.62 C 84.72 143.34 95.39 143.59 106.04 143.51 C 111.64 143.62 117.27 143.17 122.85 143.93 C 123.61 145.27 124.88 146.47 125.03 148.08 C 125.31 150.03 123.74 151.50 122.85 153.07 C 107.27 153.85 91.63 153.20 76.03 153.42 C 73.58 153.76 71.52 152.49 69.81 150.89 Z" />
<path fill="#ff9c00" opacity="1.00" d=" M 389.15 143.93 C 394.08 143.23 399.08 143.58 404.04 143.51 C 415.33 143.59 426.64 143.36 437.93 143.62 C 441.72 143.72 442.69 147.79 442.19 150.87 C 440.50 152.46 438.47 153.75 436.05 153.41 C 420.42 153.20 404.75 153.84 389.14 153.06 C 388.26 151.50 386.69 150.04 386.97 148.09 C 387.10 146.48 388.39 145.28 389.15 143.93 Z" />
<path fill="#ff9c00" opacity="1.00" d=" M 123.53 191.58 C 125.89 190.85 128.60 189.17 130.92 190.97 C 133.51 192.21 133.23 195.35 133.19 197.76 C 131.59 199.14 129.82 200.29 127.77 200.87 C 113.80 205.76 99.99 211.13 85.94 215.75 C 80.70 216.60 78.30 208.40 83.18 206.27 C 96.53 201.12 110.11 196.55 123.53 191.58 Z" />
<path fill="#ff9c00" opacity="1.00" d=" M 379.96 191.85 C 381.36 190.45 383.53 189.61 385.43 190.54 C 399.50 195.54 413.55 200.62 427.59 205.71 C 430.21 206.43 432.22 209.21 431.34 211.95 C 430.84 214.96 427.11 216.66 424.44 215.32 C 412.44 211.08 400.49 206.69 388.50 202.40 C 385.15 201.11 381.47 200.35 378.81 197.76 C 378.93 195.78 378.37 193.41 379.96 191.85 Z" />
<path fill="#ff9c00" opacity="1.00" d=" M 148.96 231.76 C 151.47 229.23 156.48 230.41 157.24 233.99 C 158.01 236.24 156.83 238.55 154.99 239.85 C 145.15 248.08 135.32 256.31 125.49 264.55 C 122.40 266.95 119.65 270.69 115.27 270.20 C 114.06 269.08 112.90 267.90 111.79 266.69 C 111.90 264.62 112.16 262.37 113.98 261.06 C 125.57 251.21 137.39 241.63 148.96 231.76 Z" />
<path fill="#ff9c00" opacity="1.00" d=" M 355.05 236.83 C 354.45 232.89 359.71 229.09 363.01 231.92 C 371.48 238.73 379.71 245.84 388.12 252.73 C 392.14 256.26 396.55 259.37 400.21 263.31 C 400.01 265.18 400.10 267.26 398.79 268.78 C 396.79 270.68 393.30 270.79 391.33 268.80 C 380.58 259.82 369.87 250.79 359.10 241.83 C 357.47 240.42 355.61 239.02 355.05 236.83 Z" />
<path fill="#ff9c00" opacity="1.00" d=" M 113.37 362.48 C 134.32 337.21 165.13 321.39 197.05 315.13 C 199.73 314.24 202.48 315.97 203.41 318.50 C 220.68 356.42 237.96 394.34 255.27 432.25 C 255.75 434.12 256.99 432.24 257.16 431.37 C 274.27 393.73 291.47 356.12 308.59 318.49 C 309.46 316.37 311.59 314.49 314.02 315.00 C 335.70 318.92 356.48 327.65 374.55 340.25 C 389.92 351.23 403.19 365.55 411.52 382.61 C 417.97 395.72 421.40 410.38 421.05 425.00 C 420.99 432.71 421.15 440.41 420.99 448.12 C 421.10 450.20 419.27 451.76 417.51 452.51 C 366.44 473.68 311.23 484.49 255.99 485.01 C 200.76 484.48 145.53 473.70 94.48 452.49 C 93.11 451.85 92.06 450.75 90.94 449.78 C 90.94 439.52 90.88 429.27 90.97 419.01 C 91.80 398.33 100.29 378.38 113.37 362.48 M 146.90 346.04 C 150.14 356.66 153.11 367.38 156.33 378.01 C 166.92 377.59 177.49 376.74 188.09 376.70 C 191.35 376.50 194.00 380.48 192.49 383.37 C 188.51 392.67 184.29 401.87 180.22 411.14 C 202.20 419.72 224.18 428.29 246.20 436.77 C 229.33 399.78 212.46 362.80 195.62 325.80 C 178.31 329.46 161.73 336.41 146.90 346.04 M 316.37 325.80 C 299.54 362.80 282.66 399.78 265.80 436.77 C 287.82 428.29 309.80 419.72 331.77 411.14 C 327.70 401.90 323.54 392.71 319.53 383.45 C 317.89 380.48 320.51 376.36 323.90 376.51 C 334.42 376.85 344.93 377.20 355.44 377.88 C 358.62 367.22 361.65 356.51 364.89 345.87 C 350.09 336.35 333.60 329.44 316.37 325.80 M 101.47 414.98 C 100.57 424.68 101.30 434.45 101.16 444.18 C 133.86 457.61 168.33 466.78 203.40 471.28 C 273.38 480.62 345.64 470.96 410.99 444.33 C 410.97 435.56 411.08 426.79 410.95 418.02 C 409.36 391.81 394.09 368.03 373.70 352.18 C 370.51 362.83 367.38 373.49 364.09 384.11 C 363.64 386.45 361.51 388.25 359.08 388.04 C 350.11 388.10 341.19 386.88 332.22 386.98 C 336.03 395.40 339.95 403.77 343.65 412.24 C 344.96 415.01 342.51 417.96 339.92 418.80 C 313.09 429.32 286.25 439.79 259.43 450.32 C 257.86 450.90 256.12 451.51 254.48 450.84 C 228.49 440.71 202.53 430.50 176.54 420.37 C 174.41 419.50 172.16 418.84 170.22 417.56 C 168.28 415.75 168.36 412.72 169.52 410.51 C 172.93 402.67 176.31 394.82 179.71 386.98 C 172.14 386.99 164.60 387.64 157.05 388.02 C 154.42 387.92 151.41 388.66 149.19 386.83 C 148.08 385.47 147.68 383.73 147.16 382.11 C 144.30 372.14 141.32 362.20 138.47 352.23 C 118.78 367.34 104.02 389.96 101.47 414.98 Z" />
<path fill="#ff9c00" opacity="1.00" d=" M 312.78 444.28 C 314.23 442.96 315.56 440.90 317.77 441.03 C 331.79 440.98 345.82 440.95 359.84 441.04 C 363.68 441.30 365.55 446.35 363.24 449.26 C 361.85 451.30 359.15 451.11 356.99 451.12 C 343.68 451.02 330.37 451.24 317.07 451.02 C 313.66 450.82 312.69 447.11 312.78 444.28 Z" />
</g>
</svg>
