<?xml version="1.0" encoding="UTF-8" ?>
<!DOCTYPE svg PUBLIC "-//W3C//DTD SVG 1.1//EN" "http://www.w3.org/Graphics/SVG/1.1/DTD/svg11.dtd">
<svg width="500pt" height="487pt" viewBox="0 0 500 487" version="1.1" xmlns="http://www.w3.org/2000/svg">
<g id="#fefefeff">
<path fill="#fefefe" opacity="1.00" d=" M 165.34 0.00 L 166.72 0.00 C 166.59 0.17 166.32 0.50 166.18 0.66 C 192.24 15.30 217.97 30.51 243.89 45.39 C 327.07 93.44 410.24 141.51 493.42 189.57 C 497.52 191.72 499.68 196.47 499.52 200.98 C 499.50 213.89 499.51 226.79 499.50 239.69 C 493.83 236.55 488.27 233.20 482.62 230.02 C 463.39 218.90 444.17 207.75 424.92 196.66 C 425.50 190.34 425.60 182.42 419.43 178.69 C 380.37 155.90 340.77 134.05 301.65 111.37 C 299.58 110.22 296.65 108.21 294.64 110.58 C 292.50 113.31 293.20 117.13 292.77 120.37 C 289.82 118.61 286.85 116.88 283.83 115.25 C 282.36 108.89 279.65 102.74 275.37 97.77 C 270.47 91.84 262.09 86.33 254.30 90.11 C 252.52 91.65 251.02 93.49 249.83 95.52 C 247.36 94.09 244.90 92.63 242.42 91.20 C 236.12 87.65 229.91 83.92 223.57 80.42 C 203.50 68.64 183.24 57.17 163.19 45.35 C 163.25 31.87 163.08 18.40 163.17 4.92 C 163.09 3.02 164.40 1.53 165.34 0.00 M 188.44 34.50 C 185.43 37.03 187.63 41.77 189.93 44.07 C 191.30 45.95 195.14 46.98 195.83 43.98 C 196.56 39.81 193.16 33.74 188.44 34.50 M 202.22 42.21 C 198.80 44.48 201.10 49.36 203.33 51.71 C 204.70 53.60 208.41 54.97 209.41 51.99 C 210.18 47.77 206.92 41.97 202.22 42.21 M 215.28 50.37 C 212.80 52.90 214.67 57.04 216.65 59.34 C 218.03 61.18 221.64 62.96 222.82 59.98 C 224.10 55.83 220.09 49.03 215.28 50.37 Z" />
<path fill="#fefefe" opacity="1.00" d=" M 115.41 37.44 C 117.18 36.67 118.96 37.80 120.48 38.61 C 130.23 44.24 140.06 49.73 149.76 55.46 C 154.24 58.04 158.79 60.50 163.18 63.25 C 165.13 64.48 167.13 65.64 169.24 66.61 C 173.93 69.31 176.86 74.62 176.70 80.03 C 176.72 88.24 176.66 96.47 176.70 104.69 C 176.66 119.47 176.77 134.26 176.66 149.04 C 176.83 151.48 174.94 154.51 172.16 153.83 C 168.92 152.74 166.18 150.59 163.17 149.01 C 148.50 140.66 133.98 132.03 119.27 123.74 C 115.04 121.03 112.94 115.87 112.83 110.99 C 112.61 100.52 113.06 90.05 112.66 79.58 C 112.80 67.72 112.89 55.86 112.83 44.00 C 112.83 41.65 113.03 38.64 115.41 37.44 M 125.69 69.84 C 123.18 76.82 125.34 84.43 128.32 90.91 C 132.25 98.48 138.06 105.43 146.11 108.77 L 147.04 108.35 L 146.25 108.90 C 149.18 109.45 152.45 109.89 155.11 108.19 C 159.21 105.72 160.41 100.48 160.27 96.02 C 159.70 86.69 155.23 77.87 148.87 71.14 C 145.10 67.37 140.38 64.03 134.91 63.61 C 130.86 63.29 126.97 66.02 125.69 69.84 M 126.72 102.62 C 126.82 104.04 126.98 105.74 128.53 106.33 C 135.07 110.23 141.70 113.97 148.31 117.77 C 151.25 119.44 154.06 121.43 157.34 122.43 C 157.49 118.79 153.47 117.80 151.02 116.15 C 142.81 111.85 135.22 106.32 126.72 102.62 M 131.96 115.02 C 131.39 115.93 131.01 117.18 132.07 117.95 C 135.50 120.70 139.67 122.33 143.35 124.71 C 146.23 126.21 148.82 128.49 152.02 129.23 C 153.64 129.14 152.28 126.90 151.58 126.44 C 145.15 122.45 138.50 118.81 131.96 115.02 Z" />
<path fill="#fefefe" opacity="1.00" d=" M 138.29 73.17 C 139.97 71.69 142.30 73.06 143.71 74.28 C 146.67 76.90 148.93 81.35 147.33 85.26 C 145.51 88.15 141.69 85.96 140.09 83.96 C 137.68 81.23 135.48 76.27 138.29 73.17 Z" />
<path fill="#fefefe" opacity="1.00" d=" M 130.92 90.12 C 133.20 89.37 135.50 87.88 137.99 88.63 C 145.60 90.53 150.73 97.28 153.98 104.02 C 153.58 104.34 152.78 105.00 152.38 105.33 C 148.22 106.26 143.91 105.04 140.61 102.43 C 136.48 99.21 132.63 95.17 130.92 90.12 Z" />
<path fill="#fefefe" opacity="1.00" d=" M 197.55 127.72 C 202.18 124.91 207.73 127.01 211.92 129.61 C 230.88 140.73 249.99 151.60 269.00 162.64 C 287.09 173.12 305.21 183.57 323.33 194.02 C 349.65 209.29 376.00 224.47 402.36 239.66 C 411.33 244.80 417.08 254.12 420.35 263.69 C 422.68 270.85 423.77 278.83 421.41 286.12 C 419.99 290.64 415.90 294.60 410.97 294.59 C 406.28 294.64 402.38 291.69 398.46 289.52 C 388.55 283.85 378.74 277.97 368.75 272.42 C 335.81 253.31 302.86 234.21 269.83 215.26 C 248.85 202.89 227.53 191.10 206.71 178.49 C 197.09 169.73 191.23 156.98 190.72 144.00 C 190.67 138.06 192.08 131.04 197.55 127.72 M 218.07 146.90 C 217.96 156.31 218.03 165.72 218.06 175.13 C 218.54 175.12 219.50 175.11 219.98 175.11 C 220.03 165.61 219.98 156.12 220.01 146.62 C 219.52 146.69 218.56 146.83 218.07 146.90 Z" />
<path fill="#fefefe" opacity="1.00" d=" M 304.14 128.16 C 307.19 126.50 310.84 127.84 313.48 129.69 C 318.19 133.05 321.39 138.35 322.57 143.97 C 323.07 147.57 323.36 151.84 320.74 154.74 C 318.12 157.97 313.12 157.28 310.04 155.11 C 303.29 150.54 299.07 142.02 300.30 133.85 C 300.65 131.52 302.04 129.30 304.14 128.16 Z" />
<path fill="#fefefe" opacity="1.00" d=" M 330.12 142.18 C 332.30 142.65 334.08 144.15 336.02 145.17 C 361.36 159.82 386.70 174.45 412.04 189.10 C 414.44 190.23 416.83 194.49 413.91 196.22 C 411.75 195.61 409.92 194.25 407.99 193.17 C 382.63 178.51 357.26 163.86 331.90 149.20 C 329.59 148.08 327.36 143.88 330.12 142.18 Z" />
<path fill="#fefefe" opacity="1.00" d=" M 333.51 163.44 C 330.31 162.18 327.43 158.45 329.79 155.12 C 342.97 162.09 355.64 170.01 368.66 177.29 C 371.32 178.65 374.52 180.60 374.22 184.07 C 374.42 185.47 372.62 186.28 371.63 185.40 C 358.87 178.19 346.26 170.68 333.51 163.44 Z" />
<path fill="#fefefe" opacity="1.00" d=" M 161.22 215.92 C 161.79 215.86 162.94 215.73 163.51 215.67 C 164.12 217.89 165.48 220.35 168.01 220.66 C 169.80 221.11 170.97 219.59 172.07 218.48 C 172.16 217.64 172.34 215.97 172.43 215.13 C 172.87 215.19 173.73 215.33 174.16 215.39 C 173.83 217.56 173.47 220.25 170.99 220.99 C 166.89 222.54 163.40 218.94 161.22 215.92 Z" />
<path fill="#fefefe" opacity="1.00" d=" M 189.92 229.48 C 190.40 230.14 190.85 230.82 191.27 231.53 C 190.09 233.90 188.42 235.97 186.38 237.66 C 186.35 237.28 186.29 236.52 186.26 236.14 C 187.99 234.23 189.27 231.99 189.92 229.48 Z" />
<path fill="#fefefe" opacity="1.00" d=" M 139.05 242.88 C 139.16 242.62 139.38 242.09 139.49 241.83 C 142.68 245.94 147.29 248.84 152.52 249.35 C 152.59 249.58 152.74 250.04 152.82 250.27 C 152.67 250.46 152.38 250.85 152.23 251.04 C 147.03 250.25 142.41 247.45 138.85 243.65 L 139.05 242.88 Z" />
<path fill="#fefefe" opacity="1.00" d=" M 202.84 249.01 C 203.53 247.21 205.02 245.84 207.04 245.87 C 206.23 247.60 204.88 249.01 202.84 249.01 Z" />
<path fill="#fefefe" opacity="1.00" d=" M 27.41 250.25 C 29.50 248.37 32.48 252.76 31.44 254.88 C 28.82 262.48 26.32 270.13 23.52 277.66 C 22.07 279.29 20.65 277.16 19.82 276.01 C 18.59 274.09 19.86 271.92 20.43 270.03 C 22.87 263.47 24.83 256.74 27.41 250.25 Z" />
<path fill="#fefefe" opacity="1.00" d=" M 35.23 259.90 C 37.25 258.17 39.75 262.02 39.40 263.98 C 36.75 272.07 33.95 280.13 31.06 288.14 C 28.24 287.80 26.14 284.60 27.49 281.95 C 30.10 274.62 32.43 267.16 35.23 259.90 Z" />
<path fill="#fefefe" opacity="1.00" d=" M 352.30 311.95 C 352.16 308.90 353.56 305.17 356.99 304.72 C 360.11 305.11 362.63 307.27 365.39 308.65 C 374.17 313.86 382.98 319.03 391.75 324.26 C 408.18 334.19 424.83 343.78 441.32 353.61 C 446.34 356.55 449.77 362.13 449.71 368.00 C 449.73 380.02 449.56 392.04 449.53 404.06 C 449.23 410.92 451.49 420.22 444.07 424.17 C 443.65 424.45 442.82 424.99 442.40 425.27 C 439.60 425.66 436.61 425.66 434.15 424.09 C 410.10 409.99 386.16 395.70 362.07 381.66 C 356.73 379.14 352.48 374.03 351.99 368.02 C 351.55 361.27 352.07 354.50 352.10 347.75 C 352.21 335.82 352.21 323.88 352.30 311.95 M 361.02 320.83 C 361.28 322.19 362.73 323.28 364.11 323.28 C 366.01 322.04 361.89 318.95 361.02 320.83 M 363.42 325.39 C 363.17 339.54 363.04 353.71 363.27 367.86 L 364.17 367.83 L 364.54 367.88 C 370.01 371.24 375.72 374.17 381.39 377.17 C 381.78 377.46 382.55 378.06 382.94 378.35 C 388.79 381.46 394.49 384.86 400.41 387.85 L 400.43 388.28 C 406.66 391.12 412.25 395.22 418.57 397.83 L 419.28 398.51 L 419.26 398.80 C 425.39 401.77 431.17 405.41 437.18 408.60 L 437.21 409.42 C 437.94 405.00 437.44 400.49 437.60 396.03 C 437.44 385.65 438.09 375.25 437.52 364.89 C 432.37 360.09 426.04 365.17 420.55 366.47 L 419.38 366.63 C 419.41 362.69 419.61 358.75 419.34 354.82 C 418.06 358.67 419.19 362.93 418.75 366.94 C 412.35 367.67 406.71 364.58 400.84 362.69 C 403.39 361.50 406.25 360.11 407.21 357.23 C 409.07 350.96 406.86 344.40 403.63 339.00 C 401.62 336.24 399.56 333.46 396.76 331.45 C 394.20 329.71 391.25 327.99 388.03 328.38 C 385.63 328.44 384.11 330.48 382.48 331.94 C 381.42 331.09 380.26 330.35 378.93 330.03 C 379.45 331.56 380.96 332.23 382.21 333.08 C 381.08 337.38 382.30 341.69 382.57 346.01 C 382.33 352.16 382.28 358.33 382.28 364.49 C 377.36 360.82 370.89 356.04 364.72 360.10 C 365.38 348.29 364.88 336.39 364.96 324.55 C 364.58 324.76 363.81 325.18 363.42 325.39 M 415.95 349.14 C 416.19 351.13 418.14 351.84 419.70 352.60 C 419.03 350.91 417.44 350.00 415.95 349.14 M 434.46 359.30 C 433.82 360.95 437.32 362.93 438.13 361.23 C 437.75 359.84 435.81 358.54 434.46 359.30 M 356.78 365.04 C 357.47 367.46 360.02 368.39 362.21 369.01 C 360.85 367.15 358.75 366.10 356.78 365.04 M 375.80 375.51 C 376.45 377.77 378.94 378.49 380.62 379.80 C 380.64 379.47 380.66 378.81 380.67 378.48 C 379.06 377.46 377.46 376.43 375.80 375.51 M 392.89 386.10 C 394.58 387.82 396.61 389.25 398.97 389.89 C 397.47 387.95 395.41 386.31 392.89 386.10 M 411.90 396.94 C 413.01 398.64 414.86 399.58 416.52 400.65 C 416.85 400.60 417.49 400.50 417.82 400.45 C 416.06 398.95 414.17 397.53 411.90 396.94 M 431.85 408.99 C 433.51 410.72 435.51 412.22 437.91 412.75 C 436.48 410.76 434.30 409.29 431.85 408.99 Z" />
<path fill="#fefefe" opacity="1.00" d=" M 255.76 311.97 C 257.09 310.67 258.79 309.87 260.50 309.18 L 262.97 309.20 C 261.65 311.96 258.57 313.03 255.76 311.97 Z" />
<path fill="#fefefe" opacity="1.00" d=" M 216.66 315.03 C 217.19 315.65 217.73 316.27 218.28 316.89 C 216.77 317.88 215.26 318.86 213.75 319.84 C 213.56 319.39 213.19 318.49 213.00 318.03 C 214.21 317.02 215.43 316.02 216.66 315.03 Z" />
<path fill="#fefefe" opacity="1.00" d=" M 399.27 341.16 C 399.64 341.15 400.38 341.12 400.74 341.10 C 400.43 341.76 400.13 342.42 399.83 343.08 C 397.62 345.76 396.60 349.76 393.59 351.56 C 391.97 348.79 390.44 345.98 389.03 343.11 C 389.25 342.89 389.70 342.46 389.93 342.24 C 391.32 344.75 392.68 347.29 394.03 349.83 C 395.92 347.02 397.45 344.00 399.27 341.16 Z" />
<path fill="#fefefe" opacity="1.00" d=" M 164.45 384.47 C 165.86 383.25 168.28 382.93 169.58 384.51 C 172.93 388.44 168.54 396.42 163.32 394.57 C 159.72 392.16 161.42 386.64 164.45 384.47 Z" />
</g>
<g id="#6bc4abff">
<path fill="#6bc4ab" opacity="1.00" d=" M 188.44 34.50 C 193.16 33.74 196.56 39.81 195.83 43.98 C 195.14 46.98 191.30 45.95 189.93 44.07 C 187.63 41.77 185.43 37.03 188.44 34.50 Z" />
</g>
<g id="#f0af40ff">
<path fill="#f0af40" opacity="1.00" d=" M 202.22 42.21 C 206.92 41.97 210.18 47.77 209.41 51.99 C 208.41 54.97 204.70 53.60 203.33 51.71 C 201.10 49.36 198.80 44.48 202.22 42.21 Z" />
</g>
<g id="#4163aeff">
<path fill="#4163ae" opacity="1.00" d=" M 163.19 45.35 C 183.24 57.17 203.50 68.64 223.57 80.42 C 221.83 80.76 220.12 80.30 218.66 79.35 C 211.53 75.16 204.20 71.35 197.05 67.20 C 197.48 69.66 197.74 72.17 198.62 74.52 C 200.07 76.97 202.58 78.66 203.73 81.32 C 205.50 85.30 205.11 89.77 205.11 94.01 C 204.94 100.02 205.17 106.03 205.02 112.04 C 205.38 116.81 200.57 119.18 198.23 122.67 C 203.22 124.58 209.02 124.92 213.07 128.78 L 211.92 129.61 C 207.73 127.01 202.18 124.91 197.55 127.72 C 192.08 131.04 190.67 138.06 190.72 144.00 C 191.23 156.98 197.09 169.73 206.71 178.49 C 202.63 179.47 201.02 174.47 198.57 172.18 C 198.33 172.69 197.84 173.72 197.60 174.23 C 197.28 174.35 196.64 174.59 196.32 174.70 C 196.34 176.10 196.36 177.49 196.38 178.89 C 197.22 178.01 198.07 177.13 198.91 176.26 C 198.91 177.46 198.92 178.67 198.93 179.88 C 198.39 180.55 197.86 181.21 197.32 181.88 C 199.22 184.12 199.69 187.19 197.74 189.57 C 198.11 190.10 198.49 190.63 198.88 191.16 C 198.70 192.12 198.53 193.08 198.36 194.05 C 198.77 194.70 199.18 195.36 199.59 196.02 C 199.16 198.30 198.59 200.64 199.03 202.97 C 199.78 207.40 199.54 211.94 200.53 216.34 C 201.56 220.85 202.93 225.28 203.90 229.81 C 204.95 229.71 205.99 229.61 207.04 229.51 C 206.86 231.69 205.72 233.51 204.38 235.17 C 207.67 236.70 210.84 234.30 213.86 233.22 C 214.33 233.38 215.27 233.71 215.74 233.87 C 209.31 237.37 202.73 240.58 196.23 243.97 C 194.77 241.05 193.15 238.23 191.44 235.46 C 191.49 234.15 191.43 232.83 191.27 231.53 C 190.85 230.82 190.40 230.14 189.92 229.48 C 188.10 227.06 186.69 224.36 185.43 221.61 C 183.92 217.80 181.32 214.59 178.48 211.69 C 179.19 209.94 179.80 208.15 180.42 206.36 C 182.08 205.44 183.92 204.76 185.40 203.55 C 186.12 200.60 186.97 195.35 182.47 195.43 C 180.46 194.93 178.47 194.38 176.54 193.66 C 174.12 192.65 171.68 191.60 169.04 191.35 C 169.24 184.27 169.61 177.16 169.36 170.08 C 169.31 166.34 166.24 163.84 163.47 161.87 C 163.82 161.52 164.53 160.84 164.89 160.50 C 169.66 160.52 174.51 163.24 179.18 161.21 C 183.05 160.01 185.31 155.95 185.08 152.03 C 185.10 139.68 185.04 127.32 184.99 114.97 C 184.76 113.22 186.03 111.99 186.99 110.72 C 191.11 112.94 194.91 115.82 199.28 117.54 C 201.66 117.65 203.21 115.22 203.08 113.03 C 203.40 105.02 203.09 96.98 203.24 88.96 C 203.38 84.01 201.67 78.49 197.16 75.87 C 185.88 69.30 174.53 62.84 163.22 56.32 C 163.21 52.66 163.19 49.01 163.19 45.35 Z" />
</g>
<g id="#b14d9bff">
<path fill="#b14d9b" opacity="1.00" d=" M 215.28 50.37 C 220.09 49.03 224.10 55.83 222.82 59.98 C 221.64 62.96 218.03 61.18 216.65 59.34 C 214.67 57.04 212.80 52.90 215.28 50.37 Z" />
<path fill="#b14d9b" opacity="1.00" d=" M 259.36 276.50 C 261.94 272.91 265.12 269.79 267.59 266.11 C 273.49 266.83 277.29 271.81 282.33 274.39 C 286.00 282.30 289.39 290.36 293.52 298.04 C 295.84 296.38 298.17 294.74 300.49 293.08 C 302.54 295.38 304.22 298.28 307.15 299.57 C 310.26 300.95 313.47 302.11 316.63 303.36 C 319.62 309.17 324.41 314.13 325.97 320.60 C 323.80 320.49 321.79 319.61 319.99 318.45 C 303.82 308.67 287.26 299.53 270.97 289.94 C 266.68 287.29 261.78 285.37 258.43 281.44 C 258.62 279.79 258.22 277.90 259.36 276.50 Z" />
<path fill="#b14d9b" opacity="1.00" d=" M 274.16 330.19 C 275.68 329.77 277.21 329.36 278.72 328.88 C 281.57 335.01 284.69 341.03 287.25 347.28 C 286.35 349.24 284.67 350.62 282.64 351.26 C 279.56 347.92 277.37 343.91 274.49 340.42 C 274.27 337.01 274.08 333.60 274.16 330.19 Z" />
<path fill="#b14d9b" opacity="1.00" d=" M 243.42 333.75 C 245.20 331.85 247.17 334.46 248.28 335.88 C 252.93 343.12 251.58 351.97 252.65 360.07 C 250.31 359.52 248.01 358.79 245.87 357.70 C 245.12 357.14 244.38 356.58 243.64 356.03 C 243.68 348.44 244.09 340.87 244.34 333.29 L 243.42 333.75 Z" />
</g>
<g id="#64646464">
<path fill="#646464" opacity="0.39" d=" M 149.76 55.46 C 150.85 53.89 151.59 51.20 153.96 51.35 C 157.32 52.44 160.16 54.63 163.22 56.32 C 163.21 58.63 163.19 60.94 163.18 63.25 C 158.79 60.50 154.24 58.04 149.76 55.46 Z" />
</g>
<g id="#89a0ceff">
<path fill="#89a0ce" opacity="1.00" d=" M 163.22 56.32 C 174.53 62.84 185.88 69.30 197.16 75.87 C 201.67 78.49 203.38 84.01 203.24 88.96 C 203.09 96.98 203.40 105.02 203.08 113.03 C 203.21 115.22 201.66 117.65 199.28 117.54 C 194.91 115.82 191.11 112.94 186.99 110.72 C 186.06 110.18 185.14 109.65 184.22 109.12 C 186.86 106.00 185.68 101.72 185.87 98.00 C 185.61 91.72 186.69 85.23 184.79 79.12 C 182.66 74.81 178.26 72.30 174.86 69.09 C 173.19 67.86 171.62 65.39 169.24 66.61 C 167.13 65.64 165.13 64.48 163.18 63.25 C 163.19 60.94 163.21 58.63 163.22 56.32 Z" />
</g>
<g id="#4f5da8ff">
<path fill="#4f5da8" opacity="1.00" d=" M 125.69 69.84 C 126.97 66.02 130.86 63.29 134.91 63.61 C 140.38 64.03 145.10 67.37 148.87 71.14 C 155.23 77.87 159.70 86.69 160.27 96.02 C 160.41 100.48 159.21 105.72 155.11 108.19 C 152.45 109.89 149.18 109.45 146.25 108.90 L 147.04 108.35 C 148.86 107.42 150.78 106.64 152.38 105.33 C 152.78 105.00 153.58 104.34 153.98 104.02 C 150.73 97.28 145.60 90.53 137.99 88.63 C 135.50 87.88 133.20 89.37 130.92 90.12 C 130.27 90.31 128.97 90.71 128.32 90.91 C 125.34 84.43 123.18 76.82 125.69 69.84 M 138.29 73.17 C 135.48 76.27 137.68 81.23 140.09 83.96 C 141.69 85.96 145.51 88.15 147.33 85.26 C 148.93 81.35 146.67 76.90 143.71 74.28 C 142.30 73.06 139.97 71.69 138.29 73.17 Z" />
<path fill="#4f5da8" opacity="1.00" d=" M 194.47 246.52 C 201.80 242.36 209.48 238.78 216.94 234.85 C 216.57 239.02 215.54 243.14 214.01 247.04 C 213.29 248.95 211.25 249.74 209.71 250.85 C 207.27 251.27 205.00 252.28 203.00 253.72 L 204.16 254.21 C 201.46 255.15 198.82 256.24 196.28 257.55 C 194.23 258.55 192.21 259.61 190.11 260.50 C 189.99 260.44 189.74 260.30 189.61 260.23 C 192.51 256.19 191.97 250.73 194.47 246.52 M 202.84 249.01 C 204.88 249.01 206.23 247.60 207.04 245.87 C 205.02 245.84 203.53 247.21 202.84 249.01 Z" />
<path fill="#4f5da8" opacity="1.00" d=" M 418.75 366.94 C 419.19 362.93 418.06 358.67 419.34 354.82 C 419.61 358.75 419.41 362.69 419.38 366.63 L 420.55 366.47 C 419.69 367.46 419.37 368.69 419.45 369.99 C 419.34 379.49 419.65 389.01 419.28 398.51 L 418.57 397.83 C 418.68 387.54 418.66 377.24 418.75 366.94 Z" />
</g>
<g id="#7a8bc0ff">
<path fill="#7a8bc0" opacity="1.00" d=" M 169.24 66.61 C 171.62 65.39 173.19 67.86 174.86 69.09 C 178.26 72.30 182.66 74.81 184.79 79.12 C 186.69 85.23 185.61 91.72 185.87 98.00 C 185.68 101.72 186.86 106.00 184.22 109.12 C 181.71 107.65 179.21 106.15 176.70 104.69 C 176.66 96.47 176.72 88.24 176.70 80.03 C 176.86 74.62 173.93 69.31 169.24 66.61 Z" />
</g>
<g id="#4371b7ff">
<path fill="#4371b7" opacity="1.00" d=" M 197.05 67.20 C 204.20 71.35 211.53 75.16 218.66 79.35 C 220.12 80.30 221.83 80.76 223.57 80.42 C 229.91 83.92 236.12 87.65 242.42 91.20 C 239.73 94.93 237.57 99.25 237.77 103.97 C 238.21 117.19 246.27 130.12 258.53 135.46 C 256.28 135.86 254.09 135.33 252.05 134.39 C 253.09 140.01 253.99 145.66 253.50 151.37 C 258.72 154.99 264.38 157.92 269.90 161.06 C 269.68 161.45 269.22 162.24 269.00 162.64 C 249.99 151.60 230.88 140.73 211.92 129.61 L 213.07 128.78 C 209.02 124.92 203.22 124.58 198.23 122.67 C 200.57 119.18 205.38 116.81 205.02 112.04 C 205.17 106.03 204.94 100.02 205.11 94.01 C 205.11 89.77 205.50 85.30 203.73 81.32 C 202.58 78.66 200.07 76.97 198.62 74.52 C 197.74 72.17 197.48 69.66 197.05 67.20 Z" />
</g>
<g id="#32313437">
<path fill="#323134" opacity="0.22" d=" M 111.44 86.40 C 111.65 84.09 112.09 81.82 112.66 79.58 C 113.06 90.05 112.61 100.52 112.83 110.99 C 112.94 115.87 115.04 121.03 119.27 123.74 C 118.80 124.36 117.87 125.59 117.41 126.21 C 121.80 129.81 126.92 132.34 131.66 135.44 C 142.34 141.30 152.16 148.67 163.20 153.86 C 163.20 155.85 163.18 157.85 163.19 159.85 C 148.41 150.53 133.34 141.65 118.37 132.61 C 114.95 130.64 112.94 126.99 111.96 123.28 C 110.04 115.65 109.30 107.80 108.82 99.97 C 108.90 95.45 109.79 90.99 110.20 86.50 C 110.51 86.47 111.13 86.42 111.44 86.40 Z" />
</g>
<g id="#794295ff">
<path fill="#794295" opacity="1.00" d=" M 254.30 90.11 C 262.09 86.33 270.47 91.84 275.37 97.77 L 275.04 99.13 C 273.13 97.64 271.19 96.20 269.16 94.88 C 271.01 98.89 272.91 102.87 274.94 106.78 C 273.46 106.13 270.93 106.28 271.10 104.05 C 271.03 101.29 269.37 99.24 267.06 97.94 C 266.32 98.73 265.60 99.52 264.87 100.31 C 263.94 99.04 263.04 97.76 262.12 96.49 C 260.20 93.61 256.93 92.19 254.30 90.11 Z" />
</g>
<g id="#2c50a1ff">
<path fill="#2c50a1" opacity="1.00" d=" M 128.32 90.91 C 128.97 90.71 130.27 90.31 130.92 90.12 C 132.63 95.17 136.48 99.21 140.61 102.43 C 143.91 105.04 148.22 106.26 152.38 105.33 C 150.78 106.64 148.86 107.42 147.04 108.35 L 146.11 108.77 C 138.06 105.43 132.25 98.48 128.32 90.91 Z" />
<path fill="#2c50a1" opacity="1.00" d=" M 174.16 215.39 C 175.76 214.36 177.25 213.15 178.48 211.69 C 181.32 214.59 183.92 217.80 185.43 221.61 C 185.57 226.46 185.95 231.30 186.26 236.14 C 186.29 236.52 186.35 237.28 186.38 237.66 C 184.91 238.99 185.21 241.01 186.07 242.61 C 187.65 244.58 189.38 246.44 191.22 248.18 C 191.37 248.51 191.68 249.16 191.83 249.49 L 190.14 249.03 C 190.18 249.71 190.26 251.08 190.30 251.76 C 189.47 251.00 188.64 250.24 187.80 249.50 C 185.31 251.12 182.72 252.55 180.13 253.98 C 182.60 255.81 185.21 257.42 187.78 259.11 C 187.29 258.83 186.30 258.28 185.81 258.01 C 186.51 261.29 186.97 264.69 186.00 267.99 C 183.45 272.31 178.80 274.62 174.09 275.77 C 173.40 275.80 172.04 275.88 171.36 275.92 C 166.38 275.99 161.32 275.41 156.77 273.30 C 155.98 262.44 156.60 251.54 156.01 240.69 C 154.47 243.40 153.20 246.30 152.52 249.35 C 147.29 248.84 142.68 245.94 139.49 241.83 C 142.47 235.53 144.85 228.81 149.33 223.36 C 152.42 219.67 157.37 218.57 161.22 215.92 C 163.40 218.94 166.89 222.54 170.99 220.99 C 173.47 220.25 173.83 217.56 174.16 215.39 Z" />
<path fill="#2c50a1" opacity="1.00" d=" M 365.39 308.65 C 368.44 308.08 370.93 310.19 373.42 311.59 C 379.98 315.71 386.84 319.37 393.20 323.81 L 391.75 324.26 C 382.98 319.03 374.17 313.86 365.39 308.65 Z" />
</g>
<g id="#9f81b9ff">
<path fill="#9f81b9" opacity="1.00" d=" M 249.83 95.52 C 251.02 93.49 252.52 91.65 254.30 90.11 C 256.93 92.19 260.20 93.61 262.12 96.49 C 261.22 96.55 259.43 96.68 258.54 96.74 C 258.64 98.57 258.76 100.40 258.89 102.23 C 257.61 101.87 256.32 101.52 255.04 101.17 C 253.69 104.22 255.28 106.92 257.34 109.14 C 256.40 110.85 254.79 112.83 256.15 114.78 C 256.85 116.93 259.11 117.54 261.01 118.18 C 261.17 121.09 262.31 123.74 264.30 125.87 C 261.84 126.00 260.43 123.83 258.93 122.26 C 259.37 124.39 259.80 126.53 260.22 128.66 C 251.52 120.43 246.15 107.35 249.83 95.52 Z" />
</g>
<g id="#8babd5ff">
<path fill="#8babd5" opacity="1.00" d=" M 242.42 91.20 C 244.90 92.63 247.36 94.09 249.83 95.52 C 246.15 107.35 251.52 120.43 260.22 128.66 C 262.51 130.99 265.44 132.50 268.36 133.89 L 268.07 134.32 C 264.93 135.04 261.74 135.47 258.53 135.46 C 246.27 130.12 238.21 117.19 237.77 103.97 C 237.57 99.25 239.73 94.93 242.42 91.20 Z" />
</g>
<g id="#8e4f9dff">
<path fill="#8e4f9d" opacity="1.00" d=" M 269.16 94.88 C 271.19 96.20 273.13 97.64 275.04 99.13 L 275.37 97.77 C 279.65 102.74 282.36 108.89 283.83 115.25 C 284.72 121.32 284.35 128.90 278.95 132.87 C 275.84 135.44 271.72 134.44 268.07 134.32 L 268.36 133.89 C 269.89 131.73 271.57 129.67 272.96 127.41 C 274.20 125.59 273.54 123.34 273.54 121.31 C 274.51 121.64 276.44 122.31 277.40 122.64 C 278.55 119.59 277.04 116.96 275.20 114.62 C 275.61 113.32 276.51 112.20 276.78 110.84 C 276.39 109.40 275.62 108.10 274.94 106.78 C 272.91 102.87 271.01 98.89 269.16 94.88 Z" />
</g>
<g id="#ffffffff">
<path fill="#ffffff" opacity="1.00" d=" M 258.54 96.74 C 259.43 96.68 261.22 96.55 262.12 96.49 C 263.04 97.76 263.94 99.04 264.87 100.31 C 265.60 99.52 266.32 98.73 267.06 97.94 C 269.37 99.24 271.03 101.29 271.10 104.05 C 270.93 106.28 273.46 106.13 274.94 106.78 C 275.62 108.10 276.39 109.40 276.78 110.84 C 276.51 112.20 275.61 113.32 275.20 114.62 C 277.04 116.96 278.55 119.59 277.40 122.64 C 276.44 122.31 274.51 121.64 273.54 121.31 C 273.54 123.34 274.20 125.59 272.96 127.41 C 270.40 127.53 269.28 124.98 267.89 123.31 C 266.70 124.17 265.51 125.04 264.30 125.87 C 262.31 123.74 261.17 121.09 261.01 118.18 C 259.11 117.54 256.85 116.93 256.15 114.78 C 254.79 112.83 256.40 110.85 257.34 109.14 C 255.28 106.92 253.69 104.22 255.04 101.17 C 256.32 101.52 257.61 101.87 258.89 102.23 C 258.76 100.40 258.64 98.57 258.54 96.74 M 262.12 104.93 C 258.89 107.84 260.63 112.97 262.89 115.97 C 264.64 118.46 268.69 121.16 271.14 118.02 C 273.05 113.91 271.10 108.91 267.87 106.05 C 266.36 104.76 263.94 103.49 262.12 104.93 Z" />
<path fill="#ffffff" opacity="1.00" d=" M 393.91 225.33 C 395.69 225.55 396.98 224.57 398.07 223.29 C 398.56 225.57 399.69 227.57 401.32 229.22 C 401.00 231.28 399.97 233.26 400.67 235.46 C 399.17 234.28 397.71 232.92 395.72 232.75 C 395.72 230.15 395.19 227.61 393.91 225.33 Z" />
<path fill="#ffffff" opacity="1.00" d=" M 402.64 229.90 C 404.33 230.14 405.42 228.98 406.48 227.90 C 407.07 230.32 408.17 232.61 410.24 234.09 C 409.76 235.03 409.27 235.96 408.78 236.90 C 408.85 237.76 408.97 239.48 409.03 240.33 C 408.20 239.53 407.38 238.73 406.57 237.91 C 405.96 237.83 404.73 237.67 404.12 237.58 C 404.02 234.95 403.58 232.36 402.64 229.90 Z" />
<path fill="#ffffff" opacity="1.00" d=" M 411.00 235.41 C 412.79 235.55 414.19 234.73 415.10 233.20 C 415.69 235.83 417.23 238.03 419.04 239.97 C 418.62 240.46 417.77 241.45 417.34 241.94 C 417.48 242.83 417.76 244.61 417.89 245.49 C 416.33 244.31 414.80 242.98 412.77 242.75 C 412.84 240.16 412.38 237.63 411.00 235.41 Z" />
<path fill="#ffffff" opacity="1.00" d=" M 419.81 240.43 C 421.44 240.41 422.76 239.53 424.00 238.56 C 424.41 241.08 425.89 243.15 427.69 244.89 C 427.29 245.45 426.51 246.56 426.11 247.12 C 426.23 248.00 426.46 249.76 426.57 250.64 C 425.07 249.31 423.35 248.32 421.49 247.60 C 421.44 245.09 420.97 242.66 419.81 240.43 Z" />
<path fill="#ffffff" opacity="1.00" d=" M 431.83 243.75 C 432.01 243.83 432.36 243.99 432.54 244.07 C 433.53 246.18 434.74 248.18 436.27 249.95 C 435.95 250.46 435.31 251.49 434.98 252.00 C 434.86 253.18 434.73 254.37 434.61 255.56 C 434.12 255.02 433.15 253.95 432.66 253.42 C 432.07 253.26 430.89 252.96 430.30 252.81 C 430.04 250.46 429.48 248.18 428.91 245.90 C 429.85 245.15 430.83 244.44 431.83 243.75 Z" />
<path fill="#ffffff" opacity="1.00" d=" M 300.49 293.08 C 302.61 291.63 305.34 289.09 307.95 291.12 C 312.09 294.11 314.00 299.14 316.63 303.36 C 313.47 302.11 310.26 300.95 307.15 299.57 C 304.22 298.28 302.54 295.38 300.49 293.08 Z" />
<path fill="#ffffff" opacity="1.00" d=" M 415.91 293.76 C 416.44 293.73 417.50 293.68 418.04 293.66 C 419.83 295.72 421.46 297.95 422.85 300.31 C 423.34 301.60 421.09 303.59 420.33 301.88 C 418.65 299.41 415.36 296.96 415.91 293.76 Z" />
<path fill="#ffffff" opacity="1.00" d=" M 172.62 342.27 C 174.77 342.85 176.99 342.74 179.16 342.34 L 179.11 342.59 C 179.16 343.12 179.27 344.19 179.32 344.72 C 177.02 345.83 173.80 346.62 172.33 343.87 C 172.40 343.47 172.55 342.67 172.62 342.27 Z" />
<path fill="#ffffff" opacity="1.00" d=" M 287.25 347.28 C 287.30 347.68 287.40 348.48 287.45 348.88 C 287.91 349.42 288.81 350.49 289.27 351.02 C 288.09 352.06 286.90 353.09 285.71 354.12 C 284.70 353.14 283.67 352.20 282.64 351.26 C 284.67 350.62 286.35 349.24 287.25 347.28 Z" />
<path fill="#ffffff" opacity="1.00" d=" M 152.27 350.77 C 154.32 351.77 156.61 351.81 158.85 351.67 C 158.58 353.13 158.63 354.61 159.09 356.04 C 156.86 356.63 154.54 356.72 152.32 356.08 C 152.41 354.31 152.37 352.53 152.27 350.77 Z" />
<path fill="#ffffff" opacity="1.00" d=" M 126.05 393.90 C 127.79 393.00 129.53 392.08 131.27 391.18 C 132.12 392.24 132.95 393.31 133.72 394.44 C 130.90 396.99 128.19 399.74 124.94 401.75 C 122.35 402.35 119.75 400.90 120.98 398.02 C 122.67 398.44 124.41 398.60 126.14 398.34 C 126.12 396.86 126.10 395.38 126.05 393.90 Z" />
<path fill="#ffffff" opacity="1.00" d=" M 64.85 427.76 C 65.03 429.67 65.29 431.57 65.59 433.47 C 65.83 437.42 70.16 437.27 72.67 435.52 C 72.76 435.93 72.94 436.76 73.04 437.17 C 74.91 441.75 67.70 444.72 65.54 440.49 C 64.16 436.44 65.04 431.98 64.85 427.76 Z" />
</g>
<g id="#d2d6ebff">
<path fill="#d2d6eb" opacity="1.00" d=" M 126.72 102.62 C 135.22 106.32 142.81 111.85 151.02 116.15 C 153.47 117.80 157.49 118.79 157.34 122.43 C 154.06 121.43 151.25 119.44 148.31 117.77 C 141.70 113.97 135.07 110.23 128.53 106.33 C 126.98 105.74 126.82 104.04 126.72 102.62 Z" />
</g>
<g id="#3955a2ff">
<path fill="#3955a2" opacity="1.00" d=" M 176.70 104.69 C 179.21 106.15 181.71 107.65 184.22 109.12 C 185.14 109.65 186.06 110.18 186.99 110.72 C 186.03 111.99 184.76 113.22 184.99 114.97 C 185.04 127.32 185.10 139.68 185.08 152.03 C 185.31 155.95 183.05 160.01 179.18 161.21 C 174.51 163.24 169.66 160.52 164.89 160.50 C 164.53 160.84 163.82 161.52 163.47 161.87 L 163.22 162.09 C 163.21 161.53 163.20 160.41 163.19 159.85 C 163.18 157.85 163.20 155.85 163.20 153.86 C 163.20 152.24 163.19 150.63 163.17 149.01 C 166.18 150.59 168.92 152.74 172.16 153.83 C 174.94 154.51 176.83 151.48 176.66 149.04 C 176.77 134.26 176.66 119.47 176.70 104.69 Z" />
</g>
<g id="#ad8abeff">
<path fill="#ad8abe" opacity="1.00" d=" M 262.12 104.93 C 263.94 103.49 266.36 104.76 267.87 106.05 C 271.10 108.91 273.05 113.91 271.14 118.02 C 268.69 121.16 264.64 118.46 262.89 115.97 C 260.63 112.97 258.89 107.84 262.12 104.93 Z" />
</g>
<g id="#6cc8ccff">
<path fill="#6cc8cc" opacity="1.00" d=" M 294.64 110.58 C 296.65 108.21 299.58 110.22 301.65 111.37 C 340.77 134.05 380.37 155.90 419.43 178.69 C 425.60 182.42 425.50 190.34 424.92 196.66 C 424.62 203.77 424.64 210.90 424.67 218.02 C 424.77 220.27 424.08 222.43 423.25 224.49 C 420.21 223.95 417.17 223.18 414.53 221.52 C 386.37 205.28 358.04 189.33 329.83 173.18 C 322.76 169.31 315.97 164.95 308.73 161.41 C 304.61 158.71 300.09 156.66 296.08 153.80 C 293.59 152.03 292.40 148.98 292.50 145.98 C 292.49 137.44 292.76 128.91 292.77 120.37 C 293.20 117.13 292.50 113.31 294.64 110.58 M 304.14 128.16 C 302.04 129.30 300.65 131.52 300.30 133.85 C 299.07 142.02 303.29 150.54 310.04 155.11 C 313.12 157.28 318.12 157.97 320.74 154.74 C 323.36 151.84 323.07 147.57 322.57 143.97 C 321.39 138.35 318.19 133.05 313.48 129.69 C 310.84 127.84 307.19 126.50 304.14 128.16 M 330.12 142.18 C 327.36 143.88 329.59 148.08 331.90 149.20 C 357.26 163.86 382.63 178.51 407.99 193.17 C 409.92 194.25 411.75 195.61 413.91 196.22 C 416.83 194.49 414.44 190.23 412.04 189.10 C 386.70 174.45 361.36 159.82 336.02 145.17 C 334.08 144.15 332.30 142.65 330.12 142.18 M 333.51 163.44 C 346.26 170.68 358.87 178.19 371.63 185.40 C 372.62 186.28 374.42 185.47 374.22 184.07 C 374.52 180.60 371.32 178.65 368.66 177.29 C 355.64 170.01 342.97 162.09 329.79 155.12 C 327.43 158.45 330.31 162.18 333.51 163.44 Z" />
<path fill="#6cc8cc" opacity="1.00" d=" M 364.72 360.10 C 370.89 356.04 377.36 360.82 382.28 364.49 C 381.61 368.68 381.72 372.94 381.39 377.17 C 375.72 374.17 370.01 371.24 364.54 367.88 C 365.60 365.70 365.21 363.27 364.46 361.08 C 364.53 360.83 364.66 360.34 364.72 360.10 Z" />
<path fill="#6cc8cc" opacity="1.00" d=" M 382.96 364.85 C 389.02 366.86 394.43 361.70 400.59 362.47 C 400.10 370.91 400.34 379.39 400.41 387.85 C 394.49 384.86 388.79 381.46 382.94 378.35 C 383.02 373.85 383.32 369.34 382.96 364.85 Z" />
<path fill="#6cc8cc" opacity="1.00" d=" M 400.84 362.69 C 406.71 364.58 412.35 367.67 418.75 366.94 C 418.66 377.24 418.68 387.54 418.57 397.83 C 412.25 395.22 406.66 391.12 400.43 388.28 C 401.09 379.76 400.33 371.21 400.84 362.69 Z" />
<path fill="#6cc8cc" opacity="1.00" d=" M 420.55 366.47 C 426.04 365.17 432.37 360.09 437.52 364.89 C 437.19 379.45 437.19 394.03 437.18 408.60 C 431.17 405.41 425.39 401.77 419.26 398.80 L 419.28 398.51 C 419.65 389.01 419.34 379.49 419.45 369.99 C 419.37 368.69 419.69 367.46 420.55 366.47 Z" />
<path fill="#6cc8cc" opacity="1.00" d=" M 164.68 378.67 C 171.14 374.52 179.98 375.41 185.91 380.12 C 189.95 384.11 192.11 390.04 190.40 395.63 C 189.32 400.24 184.85 402.71 182.68 406.67 C 181.62 408.13 183.00 409.63 183.44 411.05 C 183.41 411.73 183.37 413.10 183.35 413.78 C 177.76 417.72 169.66 417.86 164.59 412.97 C 164.92 411.24 165.42 409.54 165.99 407.88 C 164.10 403.09 158.93 400.41 157.77 395.24 C 155.97 388.93 159.17 382.00 164.68 378.67 M 164.45 384.47 C 161.42 386.64 159.72 392.16 163.32 394.57 C 168.54 396.42 172.93 388.44 169.58 384.51 C 168.28 382.93 165.86 383.25 164.45 384.47 Z" />
</g>
<g id="#d2d6ecff">
<path fill="#d2d6ec" opacity="1.00" d=" M 131.96 115.02 C 138.50 118.81 145.15 122.45 151.58 126.44 C 152.28 126.90 153.64 129.14 152.02 129.23 C 148.82 128.49 146.23 126.21 143.35 124.71 C 139.67 122.33 135.50 120.70 132.07 117.95 C 131.01 117.18 131.39 115.93 131.96 115.02 Z" />
</g>
<g id="#4680c2ff">
<path fill="#4680c2" opacity="1.00" d=" M 283.83 115.25 C 286.85 116.88 289.82 118.61 292.77 120.37 C 292.76 128.91 292.49 137.44 292.50 145.98 C 292.40 148.98 293.59 152.03 296.08 153.80 C 300.09 156.66 304.61 158.71 308.73 161.41 C 305.97 162.21 303.70 160.27 301.48 158.98 C 301.43 160.45 301.37 161.91 301.31 163.38 C 302.08 164.03 302.84 164.69 303.61 165.34 C 303.63 166.61 303.43 167.93 303.77 169.17 C 304.69 170.54 306.16 171.53 306.85 173.06 C 306.74 174.21 306.50 175.34 306.29 176.48 C 307.81 175.89 309.36 175.35 310.92 174.83 C 310.03 175.71 309.13 176.59 308.23 177.46 C 309.36 179.19 310.50 180.90 311.66 182.62 C 312.36 182.14 313.07 181.66 313.79 181.18 C 313.98 182.93 314.19 184.69 314.39 186.44 C 315.24 186.74 316.09 187.04 316.95 187.35 C 318.75 189.40 321.31 190.54 323.33 192.35 C 323.33 192.77 323.33 193.60 323.33 194.02 C 305.21 183.57 287.09 173.12 269.00 162.64 C 269.22 162.24 269.68 161.45 269.90 161.06 C 264.38 157.92 258.72 154.99 253.50 151.37 C 253.99 145.66 253.09 140.01 252.05 134.39 C 254.09 135.33 256.28 135.86 258.53 135.46 C 261.74 135.47 264.93 135.04 268.07 134.32 C 271.72 134.44 275.84 135.44 278.95 132.87 C 284.35 128.90 284.72 121.32 283.83 115.25 Z" />
</g>
<g id="#ae8bbeff">
<path fill="#ae8bbe" opacity="1.00" d=" M 258.93 122.26 C 260.43 123.83 261.84 126.00 264.30 125.87 C 265.51 125.04 266.70 124.17 267.89 123.31 C 269.28 124.98 270.40 127.53 272.96 127.41 C 271.57 129.67 269.89 131.73 268.36 133.89 C 265.44 132.50 262.51 130.99 260.22 128.66 C 259.80 126.53 259.37 124.39 258.93 122.26 Z" />
</g>
<g id="#4f4e5965">
<path fill="#4f4e59" opacity="0.40" d=" M 119.27 123.74 C 133.98 132.03 148.50 140.66 163.17 149.01 C 163.19 150.63 163.20 152.24 163.20 153.86 C 152.16 148.67 142.34 141.30 131.66 135.44 C 126.92 132.34 121.80 129.81 117.41 126.21 C 117.87 125.59 118.80 124.36 119.27 123.74 Z" />
</g>
<g id="#60606060">
<path fill="#606060" opacity="0.38" d=" M 114.52 140.08 C 114.39 137.92 116.60 135.15 118.85 136.71 C 133.71 145.03 148.47 153.56 163.22 162.09 C 163.15 173.27 163.19 184.45 163.19 195.62 C 148.24 187.40 133.50 178.80 118.64 170.42 C 115.88 169.04 113.75 166.27 113.94 163.07 C 114.22 155.41 114.25 147.74 114.52 140.08 Z" />
</g>
<g id="#9079b6ff">
<path fill="#9079b6" opacity="1.00" d=" M 218.07 146.90 C 218.56 146.83 219.52 146.69 220.01 146.62 C 219.98 156.12 220.03 165.61 219.98 175.11 C 219.50 175.11 218.54 175.12 218.06 175.13 C 218.03 165.72 217.96 156.31 218.07 146.90 Z" />
</g>
<g id="#488dcbff">
<path fill="#488dcb" opacity="1.00" d=" M 301.48 158.98 C 303.70 160.27 305.97 162.21 308.73 161.41 C 315.97 164.95 322.76 169.31 329.83 173.18 C 358.04 189.33 386.37 205.28 414.53 221.52 C 417.17 223.18 420.21 223.95 423.25 224.49 L 424.22 224.70 C 422.57 225.41 420.87 226.01 419.17 226.57 C 419.13 227.48 419.10 228.39 419.07 229.31 C 420.62 229.40 422.18 229.51 423.73 229.63 C 423.36 230.29 423.00 230.96 422.64 231.62 C 423.02 232.04 423.77 232.86 424.15 233.27 C 422.88 233.65 421.61 234.03 420.34 234.41 C 420.68 235.51 421.03 236.61 421.38 237.71 C 421.86 237.22 422.81 236.26 423.29 235.78 C 425.13 237.64 426.21 240.05 427.78 242.11 C 429.07 242.79 430.47 243.21 431.83 243.75 C 430.83 244.44 429.85 245.15 428.91 245.90 C 429.48 248.18 430.04 250.46 430.30 252.81 C 430.89 252.96 432.07 253.26 432.66 253.42 C 433.15 253.95 434.12 255.02 434.61 255.56 C 434.82 255.79 435.25 256.26 435.46 256.49 C 434.59 256.99 433.73 257.49 432.87 257.99 C 433.43 260.57 433.58 263.21 433.30 265.84 C 434.02 266.81 434.75 267.79 435.49 268.76 C 435.05 269.81 434.61 270.87 434.18 271.93 C 434.60 272.57 435.02 273.21 435.45 273.85 C 435.03 274.85 434.61 275.86 434.20 276.87 C 435.10 278.98 436.15 281.08 436.59 283.36 C 436.93 286.29 435.90 289.43 437.48 292.14 C 437.11 292.66 436.76 293.19 436.41 293.72 C 436.95 293.88 438.04 294.20 438.58 294.36 C 438.15 295.17 437.72 295.98 437.30 296.79 C 437.91 297.67 438.52 298.55 439.14 299.44 C 438.91 300.50 438.69 301.56 438.47 302.63 C 437.37 302.86 436.27 303.09 435.17 303.32 C 435.85 304.34 436.53 305.36 437.22 306.38 C 438.08 306.40 438.94 306.43 439.82 306.45 C 439.84 306.94 439.87 307.90 439.89 308.38 C 439.43 308.44 438.51 308.54 438.05 308.60 C 440.45 312.65 439.11 317.61 441.21 321.73 C 440.95 322.05 440.42 322.71 440.15 323.03 C 440.56 323.79 440.98 324.54 441.40 325.30 C 441.12 326.08 440.84 326.87 440.57 327.66 C 441.72 331.06 442.88 334.81 446.11 336.85 C 451.39 340.11 456.43 343.83 460.77 348.28 C 463.79 352.43 467.76 356.56 467.80 362.02 C 468.64 379.52 465.82 397.02 467.46 414.50 C 466.14 413.74 464.80 412.98 463.50 412.23 C 462.60 411.67 461.71 411.11 460.81 410.58 C 459.93 409.28 459.03 408.01 458.14 406.74 C 457.93 401.41 457.81 396.06 458.45 390.76 C 459.56 381.54 458.54 372.26 458.83 363.02 C 458.82 358.88 454.76 356.52 452.16 353.89 C 446.46 348.02 439.00 344.42 432.88 339.07 C 426.11 333.47 418.56 328.86 412.21 322.77 C 409.89 320.95 406.97 320.17 404.44 318.70 C 394.16 312.90 386.19 303.77 375.92 297.96 C 372.35 296.08 368.26 294.01 364.14 295.03 C 361.81 296.62 359.61 299.30 356.49 298.10 C 357.83 293.85 356.04 289.67 355.42 285.48 C 354.81 284.91 354.22 284.34 353.63 283.78 C 353.84 282.20 354.15 280.61 354.11 279.01 C 353.73 277.78 352.25 277.64 351.31 277.02 C 350.94 276.05 350.57 275.08 350.20 274.12 C 350.77 273.35 351.34 272.58 351.91 271.81 C 350.30 271.72 348.69 271.62 347.08 271.56 C 345.93 269.10 347.35 266.71 348.21 264.43 C 346.79 264.51 345.37 264.60 343.95 264.68 C 344.41 263.57 344.86 262.45 345.41 261.38 C 352.66 264.57 359.17 269.34 366.29 272.82 C 366.91 272.72 368.14 272.52 368.75 272.42 C 378.74 277.97 388.55 283.85 398.46 289.52 C 402.38 291.69 406.28 294.64 410.97 294.59 C 415.90 294.60 419.99 290.64 421.41 286.12 C 423.77 278.83 422.68 270.85 420.35 263.69 C 417.08 254.12 411.33 244.80 402.36 239.66 C 376.00 224.47 349.65 209.29 323.33 194.02 C 323.33 193.60 323.33 192.77 323.33 192.35 C 321.31 190.54 318.75 189.40 316.95 187.35 C 316.09 187.04 315.24 186.74 314.39 186.44 C 314.19 184.69 313.98 182.93 313.79 181.18 C 313.07 181.66 312.36 182.14 311.66 182.62 C 310.50 180.90 309.36 179.19 308.23 177.46 C 309.13 176.59 310.03 175.71 310.92 174.83 C 309.36 175.35 307.81 175.89 306.29 176.48 C 306.50 175.34 306.74 174.21 306.85 173.06 C 306.16 171.53 304.69 170.54 303.77 169.17 C 303.43 167.93 303.63 166.61 303.61 165.34 C 302.84 164.69 302.08 164.03 301.31 163.38 C 301.37 161.91 301.43 160.45 301.48 158.98 M 393.91 225.33 C 395.19 227.61 395.72 230.15 395.72 232.75 C 397.71 232.92 399.17 234.28 400.67 235.46 C 399.97 233.26 401.00 231.28 401.32 229.22 C 399.69 227.57 398.56 225.57 398.07 223.29 C 396.98 224.57 395.69 225.55 393.91 225.33 M 402.64 229.90 C 403.58 232.36 404.02 234.95 404.12 237.58 C 404.73 237.67 405.96 237.83 406.57 237.91 C 407.38 238.73 408.20 239.53 409.03 240.33 C 408.97 239.48 408.85 237.76 408.78 236.90 C 409.27 235.96 409.76 235.03 410.24 234.09 C 408.17 232.61 407.07 230.32 406.48 227.90 C 405.42 228.98 404.33 230.14 402.64 229.90 M 411.00 235.41 C 412.38 237.63 412.84 240.16 412.77 242.75 C 414.80 242.98 416.33 244.31 417.89 245.49 C 417.76 244.61 417.48 242.83 417.34 241.94 C 417.77 241.45 418.62 240.46 419.04 239.97 C 417.23 238.03 415.69 235.83 415.10 233.20 C 414.19 234.73 412.79 235.55 411.00 235.41 M 419.81 240.43 C 420.97 242.66 421.44 245.09 421.49 247.60 C 423.35 248.32 425.07 249.31 426.57 250.64 C 426.46 249.76 426.23 248.00 426.11 247.12 C 426.51 246.56 427.29 245.45 427.69 244.89 C 425.89 243.15 424.41 241.08 424.00 238.56 C 422.76 239.53 421.44 240.41 419.81 240.43 M 415.91 293.76 C 415.36 296.96 418.65 299.41 420.33 301.88 C 421.09 303.59 423.34 301.60 422.85 300.31 C 421.46 297.95 419.83 295.72 418.04 293.66 C 417.50 293.68 416.44 293.73 415.91 293.76 Z" />
</g>
<g id="#889ac9ff">
<path fill="#889ac9" opacity="1.00" d=" M 163.22 162.09 L 163.47 161.87 C 166.24 163.84 169.31 166.34 169.36 170.08 C 169.61 177.16 169.24 184.27 169.04 191.35 C 166.80 192.33 164.72 193.69 163.19 195.62 C 163.19 184.45 163.15 173.27 163.22 162.09 Z" />
</g>
<g id="#426bb3ff">
<path fill="#426bb3" opacity="1.00" d=" M 198.57 172.18 C 201.02 174.47 202.63 179.47 206.71 178.49 C 227.53 191.10 248.85 202.89 269.83 215.26 C 267.69 216.25 265.61 214.87 263.57 214.34 C 264.15 216.00 265.56 217.05 266.70 218.29 C 267.41 219.91 266.08 221.40 265.55 222.85 C 267.54 224.21 269.59 223.15 271.46 222.14 C 271.25 224.02 270.72 225.94 271.13 227.83 C 272.58 229.45 276.06 229.89 275.39 232.70 C 270.61 230.14 266.14 227.02 261.25 224.70 C 259.50 223.74 257.18 224.49 256.36 226.31 C 255.61 228.10 255.78 230.11 255.69 232.01 C 255.75 245.66 255.63 259.32 255.62 272.97 C 255.53 276.05 256.64 278.98 258.43 281.44 C 261.78 285.37 266.68 287.29 270.97 289.94 C 287.26 299.53 303.82 308.67 319.99 318.45 C 321.33 321.02 322.53 323.67 323.41 326.44 C 324.16 326.41 324.91 326.39 325.67 326.37 C 325.63 327.16 325.59 327.95 325.56 328.74 C 324.67 329.48 323.78 330.23 322.90 330.98 C 309.51 323.22 296.05 315.57 282.73 307.69 C 282.36 303.16 278.44 300.61 274.82 298.67 C 271.49 297.11 269.73 293.88 268.26 290.70 C 267.63 288.93 265.55 288.89 264.04 288.46 C 263.07 288.26 262.11 288.06 261.15 287.85 C 259.36 287.35 257.61 286.72 255.84 286.19 C 253.23 286.24 250.64 286.77 248.22 287.76 C 230.88 277.74 213.38 267.97 196.28 257.55 C 198.82 256.24 201.46 255.15 204.16 254.21 C 206.30 253.63 208.03 252.22 209.71 250.85 C 211.25 249.74 213.29 248.95 214.01 247.04 C 215.54 243.14 216.57 239.02 216.94 234.85 L 216.91 234.30 C 216.62 234.19 216.04 233.98 215.74 233.87 C 215.27 233.71 214.33 233.38 213.86 233.22 C 210.84 234.30 207.67 236.70 204.38 235.17 C 205.72 233.51 206.86 231.69 207.04 229.51 C 205.99 229.61 204.95 229.71 203.90 229.81 C 202.93 225.28 201.56 220.85 200.53 216.34 C 199.54 211.94 199.78 207.40 199.03 202.97 C 198.59 200.64 199.16 198.30 199.59 196.02 C 199.18 195.36 198.77 194.70 198.36 194.05 C 198.53 193.08 198.70 192.12 198.88 191.16 C 198.49 190.63 198.11 190.10 197.74 189.57 C 199.69 187.19 199.22 184.12 197.32 181.88 C 197.86 181.21 198.39 180.55 198.93 179.88 C 198.92 178.67 198.91 177.46 198.91 176.26 C 198.07 177.13 197.22 178.01 196.38 178.89 C 196.36 177.49 196.34 176.10 196.32 174.70 C 196.64 174.59 197.28 174.35 197.60 174.23 C 197.84 173.72 198.33 172.69 198.57 172.18 Z" />
</g>
<g id="#d67f59ff">
<path fill="#d67f59" opacity="1.00" d=" M 163.19 195.62 C 164.72 193.69 166.80 192.33 169.04 191.35 C 171.68 191.60 174.12 192.65 176.54 193.66 C 170.36 196.76 166.26 202.53 161.51 207.35 C 160.08 203.38 160.62 198.98 163.19 195.62 Z" />
</g>
<g id="#ce6c56ff">
<path fill="#ce6c56" opacity="1.00" d=" M 176.54 193.66 C 178.47 194.38 180.46 194.93 182.47 195.43 C 179.60 198.08 176.74 200.75 173.57 203.05 C 172.78 202.78 171.99 202.52 171.20 202.26 C 169.63 204.85 167.61 207.36 164.31 207.44 C 163.87 207.95 163.01 208.98 162.58 209.49 C 162.31 208.96 161.77 207.88 161.51 207.35 C 166.26 202.53 170.36 196.76 176.54 193.66 Z" />
</g>
<g id="#c55653ff">
<path fill="#c55653" opacity="1.00" d=" M 182.47 195.43 C 186.97 195.35 186.12 200.60 185.40 203.55 C 183.92 204.76 182.08 205.44 180.42 206.36 C 178.47 206.05 176.53 205.76 174.60 205.45 C 174.34 204.85 173.83 203.65 173.57 203.05 C 176.74 200.75 179.60 198.08 182.47 195.43 Z" />
</g>
<g id="#4c9fd8ff">
<path fill="#4c9fd8" opacity="1.00" d=" M 424.92 196.66 C 444.17 207.75 463.39 218.90 482.62 230.02 C 481.26 230.28 479.90 230.53 478.55 230.79 C 479.07 237.67 478.13 244.60 479.48 251.41 C 480.14 260.27 479.78 269.17 479.95 278.04 C 480.03 282.10 480.82 286.15 480.47 290.22 C 479.82 297.61 481.17 305.02 480.34 312.40 C 480.69 312.47 481.41 312.60 481.77 312.66 C 481.97 318.85 483.45 324.91 483.68 331.09 C 483.61 337.87 484.38 344.66 483.48 351.42 C 483.85 360.63 483.30 369.84 483.74 379.06 C 483.63 391.11 484.08 403.17 483.52 415.21 C 483.66 417.98 483.95 420.79 483.05 423.49 C 479.76 421.64 476.54 419.66 473.22 417.87 C 471.72 416.98 470.22 416.08 468.72 415.22 C 468.40 415.04 467.77 414.68 467.46 414.50 C 465.82 397.02 468.64 379.52 467.80 362.02 C 467.76 356.56 463.79 352.43 460.77 348.28 C 456.43 343.83 451.39 340.11 446.11 336.85 C 442.88 334.81 441.72 331.06 440.57 327.66 C 440.84 326.87 441.12 326.08 441.40 325.30 C 440.98 324.54 440.56 323.79 440.15 323.03 C 440.42 322.71 440.95 322.05 441.21 321.73 C 439.11 317.61 440.45 312.65 438.05 308.60 C 438.51 308.54 439.43 308.44 439.89 308.38 C 439.87 307.90 439.84 306.94 439.82 306.45 C 438.94 306.43 438.08 306.40 437.22 306.38 C 436.53 305.36 435.85 304.34 435.17 303.32 C 436.27 303.09 437.37 302.86 438.47 302.63 C 438.69 301.56 438.91 300.50 439.14 299.44 C 438.52 298.55 437.91 297.67 437.30 296.79 C 437.72 295.98 438.15 295.17 438.58 294.36 C 438.04 294.20 436.95 293.88 436.41 293.72 C 436.76 293.19 437.11 292.66 437.48 292.14 C 435.90 289.43 436.93 286.29 436.59 283.36 C 436.15 281.08 435.10 278.98 434.20 276.87 C 434.61 275.86 435.03 274.85 435.45 273.85 C 435.02 273.21 434.60 272.57 434.18 271.93 C 434.61 270.87 435.05 269.81 435.49 268.76 C 434.75 267.79 434.02 266.81 433.30 265.84 C 433.58 263.21 433.43 260.57 432.87 257.99 C 433.73 257.49 434.59 256.99 435.46 256.49 C 435.25 256.26 434.82 255.79 434.61 255.56 C 434.73 254.37 434.86 253.18 434.98 252.00 C 435.31 251.49 435.95 250.46 436.27 249.95 C 434.74 248.18 433.53 246.18 432.54 244.07 C 432.36 243.99 432.01 243.83 431.83 243.75 C 430.47 243.21 429.07 242.79 427.78 242.11 C 426.21 240.05 425.13 237.64 423.29 235.78 C 422.81 236.26 421.86 237.22 421.38 237.71 C 421.03 236.61 420.68 235.51 420.34 234.41 C 421.61 234.03 422.88 233.65 424.15 233.27 C 423.77 232.86 423.02 232.04 422.64 231.62 C 423.00 230.96 423.36 230.29 423.73 229.63 C 422.18 229.51 420.62 229.40 419.07 229.31 C 419.10 228.39 419.13 227.48 419.17 226.57 C 420.87 226.01 422.57 225.41 424.22 224.70 L 423.25 224.49 C 424.08 222.43 424.77 220.27 424.67 218.02 C 424.64 210.90 424.62 203.77 424.92 196.66 Z" />
</g>
<g id="#efc06bff">
<path fill="#efc06b" opacity="1.00" d=" M 171.20 202.26 C 171.99 202.52 172.78 202.78 173.57 203.05 C 173.83 203.65 174.34 204.85 174.60 205.45 C 176.53 205.76 178.47 206.05 180.42 206.36 C 179.80 208.15 179.19 209.94 178.48 211.69 C 177.25 213.15 175.76 214.36 174.16 215.39 C 173.73 215.33 172.87 215.19 172.43 215.13 C 170.45 214.50 168.50 213.77 166.53 213.09 C 168.05 215.20 169.98 216.95 172.07 218.48 C 170.97 219.59 169.80 221.11 168.01 220.66 C 165.48 220.35 164.12 217.89 163.51 215.67 C 163.45 214.16 163.40 212.65 163.35 211.14 C 163.72 211.23 164.48 211.41 164.86 211.50 C 164.30 211.13 163.75 210.76 163.21 210.38 L 162.58 209.49 C 163.01 208.98 163.87 207.95 164.31 207.44 C 167.61 207.36 169.63 204.85 171.20 202.26 Z" />
<path fill="#efc06b" opacity="1.00" d=" M 191.44 235.46 C 193.15 238.23 194.77 241.05 196.23 243.97 C 194.29 245.01 192.69 246.56 191.22 248.18 C 189.38 246.44 187.65 244.58 186.07 242.61 C 188.32 240.61 190.19 238.21 191.44 235.46 Z" />
<path fill="#efc06b" opacity="1.00" d=" M 140.68 249.67 C 143.46 251.49 146.51 252.89 149.63 254.04 L 149.42 254.27 C 146.42 258.20 144.23 262.95 143.99 267.94 C 143.51 273.68 142.44 279.40 142.92 285.17 C 142.92 287.53 139.47 286.95 137.86 287.12 C 136.06 284.53 136.43 281.11 136.70 278.14 C 137.95 268.64 137.15 258.75 140.68 249.67 Z" />
<path fill="#efc06b" opacity="1.00" d=" M 248.27 297.42 C 249.15 297.68 250.05 297.92 250.95 298.15 C 252.26 298.49 253.57 298.83 254.83 299.35 C 255.27 300.88 255.48 302.48 255.93 304.02 C 257.15 306.49 260.30 305.93 262.55 306.36 C 261.82 307.27 261.14 308.21 260.50 309.18 C 258.79 309.87 257.09 310.67 255.76 311.97 L 255.19 311.92 C 255.67 308.26 251.05 308.89 249.59 306.42 C 247.57 303.86 247.88 300.44 248.27 297.42 Z" />
<path fill="#efc06b" opacity="1.00" d=" M 209.27 314.09 C 210.54 310.73 215.24 312.72 216.66 315.03 C 215.43 316.02 214.21 317.02 213.00 318.03 C 211.38 317.34 208.26 316.49 209.27 314.09 Z" />
<path fill="#efc06b" opacity="1.00" d=" M 289.27 351.02 C 290.64 351.55 292.31 351.75 293.25 353.02 C 294.01 354.52 293.02 356.20 291.50 356.65 C 289.29 356.84 287.16 355.75 285.71 354.12 C 286.90 353.09 288.09 352.06 289.27 351.02 Z" />
</g>
<g id="#b47150ff">
<path fill="#b47150" opacity="1.00" d=" M 166.53 213.09 C 168.50 213.77 170.45 214.50 172.43 215.13 C 172.34 215.97 172.16 217.64 172.07 218.48 C 169.98 216.95 168.05 215.20 166.53 213.09 Z" />
</g>
<g id="#457cbfff">
<path fill="#457cbf" opacity="1.00" d=" M 263.57 214.34 C 265.61 214.87 267.69 216.25 269.83 215.26 C 302.86 234.21 335.81 253.31 368.75 272.42 C 368.14 272.52 366.91 272.72 366.29 272.82 C 359.17 269.34 352.66 264.57 345.41 261.38 C 344.86 262.45 344.41 263.57 343.95 264.68 C 345.37 264.60 346.79 264.51 348.21 264.43 C 347.35 266.71 345.93 269.10 347.08 271.56 C 348.69 271.62 350.30 271.72 351.91 271.81 C 351.34 272.58 350.77 273.35 350.20 274.12 C 350.57 275.08 350.94 276.05 351.31 277.02 C 352.25 277.64 353.73 277.78 354.11 279.01 C 354.15 280.61 353.84 282.20 353.63 283.78 C 354.22 284.34 354.81 284.91 355.42 285.48 C 356.04 289.67 357.83 293.85 356.49 298.10 C 359.61 299.30 361.81 296.62 364.14 295.03 C 368.26 294.01 372.35 296.08 375.92 297.96 C 386.19 303.77 394.16 312.90 404.44 318.70 C 406.97 320.17 409.89 320.95 412.21 322.77 C 418.56 328.86 426.11 333.47 432.88 339.07 C 439.00 344.42 446.46 348.02 452.16 353.89 C 454.76 356.52 458.82 358.88 458.83 363.02 C 458.54 372.26 459.56 381.54 458.45 390.76 C 457.81 396.06 457.93 401.41 458.14 406.74 C 459.03 408.01 459.93 409.28 460.81 410.58 C 460.27 410.27 459.20 409.66 458.66 409.35 C 456.44 408.11 454.21 406.90 452.03 405.60 C 451.19 405.09 450.35 404.57 449.53 404.06 C 449.56 392.04 449.73 380.02 449.71 368.00 C 449.77 362.13 446.34 356.55 441.32 353.61 C 424.83 343.78 408.18 334.19 391.75 324.26 L 393.20 323.81 C 386.84 319.37 379.98 315.71 373.42 311.59 C 370.93 310.19 368.44 308.08 365.39 308.65 C 362.63 307.27 360.11 305.11 356.99 304.72 C 353.56 305.17 352.16 308.90 352.30 311.95 C 352.21 323.88 352.21 335.82 352.10 347.75 C 342.30 342.28 332.66 336.53 322.90 330.98 C 323.78 330.23 324.67 329.48 325.56 328.74 C 325.59 327.95 325.63 327.16 325.67 326.37 C 324.91 326.39 324.16 326.41 323.41 326.44 C 322.53 323.67 321.33 321.02 319.99 318.45 C 321.79 319.61 323.80 320.49 325.97 320.60 C 329.21 319.45 328.81 315.80 328.87 313.03 C 328.79 299.37 329.29 285.71 329.21 272.05 C 329.27 267.34 326.80 262.70 322.79 260.21 C 307.08 250.90 291.05 242.10 275.39 232.70 C 276.06 229.89 272.58 229.45 271.13 227.83 C 270.72 225.94 271.25 224.02 271.46 222.14 C 269.59 223.15 267.54 224.21 265.55 222.85 C 266.08 221.40 267.41 219.91 266.70 218.29 C 265.56 217.05 264.15 216.00 263.57 214.34 Z" />
</g>
<g id="#263379ff">
<path fill="#263379" opacity="1.00" d=" M 186.26 236.14 C 185.95 231.30 185.57 226.46 185.43 221.61 C 186.69 224.36 188.10 227.06 189.92 229.48 C 189.27 231.99 187.99 234.23 186.26 236.14 Z" />
</g>
<g id="#6dabddff">
<path fill="#6dabdd" opacity="1.00" d=" M 256.36 226.31 C 257.18 224.49 259.50 223.74 261.25 224.70 C 266.14 227.02 270.61 230.14 275.39 232.70 C 291.05 242.10 307.08 250.90 322.79 260.21 C 326.80 262.70 329.27 267.34 329.21 272.05 C 329.29 285.71 328.79 299.37 328.87 313.03 C 328.81 315.80 329.21 319.45 325.97 320.60 C 324.41 314.13 319.62 309.17 316.63 303.36 C 314.00 299.14 312.09 294.11 307.95 291.12 C 305.34 289.09 302.61 291.63 300.49 293.08 C 298.17 294.74 295.84 296.38 293.52 298.04 C 289.39 290.36 286.00 282.30 282.33 274.39 C 280.26 270.02 279.01 264.92 275.42 261.52 C 271.92 258.46 269.48 263.84 267.59 266.11 C 265.12 269.79 261.94 272.91 259.36 276.50 C 258.22 277.90 258.62 279.79 258.43 281.44 C 256.64 278.98 255.53 276.05 255.62 272.97 C 255.63 259.32 255.75 245.66 255.69 232.01 C 255.78 230.11 255.61 228.10 256.36 226.31 M 311.22 261.20 C 307.88 264.21 311.22 269.60 314.43 271.39 C 316.65 272.72 318.89 270.08 318.21 267.91 C 317.50 264.70 315.06 260.53 311.22 261.20 Z" />
<path fill="#6dabdd" opacity="1.00" d=" M 74.47 368.88 C 81.82 368.84 90.19 366.81 93.93 359.80 C 93.74 364.06 93.71 368.33 93.69 372.60 C 93.33 393.04 92.75 413.47 92.42 433.91 C 92.63 437.13 88.59 437.39 86.27 437.69 C 85.37 436.57 84.79 435.31 84.54 433.92 C 81.65 416.00 78.94 398.05 75.98 380.15 C 75.45 376.40 74.84 372.65 74.47 368.88 Z" />
<path fill="#6dabdd" opacity="1.00" d=" M 59.22 362.55 C 63.28 365.91 68.04 368.47 73.39 368.82 C 71.10 380.41 69.67 392.18 69.66 404.01 C 69.73 413.73 69.65 423.45 69.84 433.17 C 69.09 433.24 67.60 433.38 66.86 433.45 L 65.59 433.47 C 65.29 431.57 65.03 429.67 64.85 427.76 C 64.22 412.05 61.60 396.51 60.17 380.87 C 59.55 374.78 59.41 368.66 59.22 362.55 Z" />
</g>
<g id="#4daadfff">
<path fill="#4daadf" opacity="1.00" d=" M 478.55 230.79 C 479.90 230.53 481.26 230.28 482.62 230.02 C 488.27 233.20 493.83 236.55 499.50 239.69 C 499.51 304.14 499.48 368.59 499.52 433.05 C 494.04 429.84 488.54 426.67 483.05 423.49 C 483.95 420.79 483.66 417.98 483.52 415.21 C 484.08 403.17 483.63 391.11 483.74 379.06 C 483.30 369.84 483.85 360.63 483.48 351.42 C 484.38 344.66 483.61 337.87 483.68 331.09 C 483.45 324.91 481.97 318.85 481.77 312.66 C 481.41 312.60 480.69 312.47 480.34 312.40 C 481.17 305.02 479.82 297.61 480.47 290.22 C 480.82 286.15 480.03 282.10 479.95 278.04 C 479.78 269.17 480.14 260.27 479.48 251.41 C 478.13 244.60 479.07 237.67 478.55 230.79 Z" />
</g>
<g id="#782982ff">
<path fill="#782982" opacity="1.00" d=" M 18.60 234.69 C 21.52 233.07 24.61 231.52 28.04 231.44 C 37.95 230.79 47.12 236.29 53.95 243.03 C 65.37 254.71 72.50 271.31 70.59 287.80 C 67.95 290.93 66.12 295.25 67.83 299.28 L 67.65 299.52 C 66.34 301.52 65.14 303.58 63.90 305.62 C 64.92 307.02 65.92 308.42 66.92 309.84 C 63.49 310.31 60.43 312.17 58.39 314.96 C 57.40 313.65 56.40 312.35 55.41 311.05 C 60.62 306.77 64.15 300.62 65.17 293.95 C 67.51 280.01 62.71 265.81 54.84 254.38 C 50.76 248.24 45.15 243.22 38.98 239.24 C 32.95 235.37 25.63 234.31 18.60 234.69 Z" />
</g>
<g id="#282671ff">
<path fill="#282671" opacity="1.00" d=" M 191.27 231.53 C 191.43 232.83 191.49 234.15 191.44 235.46 C 190.19 238.21 188.32 240.61 186.07 242.61 C 185.21 241.01 184.91 238.99 186.38 237.66 C 188.42 235.97 190.09 233.90 191.27 231.53 Z" />
<path fill="#282671" opacity="1.00" d=" M 110.37 350.88 C 123.78 346.88 137.57 343.95 151.56 343.02 C 151.57 345.60 151.44 348.27 152.27 350.77 C 150.90 352.84 149.36 354.86 148.47 357.21 C 148.68 359.25 149.80 361.06 150.60 362.93 C 150.86 362.40 151.40 361.33 151.67 360.80 C 152.28 364.10 152.56 367.48 153.45 370.73 C 154.83 373.28 158.21 372.73 159.48 370.39 C 159.77 370.44 160.34 370.54 160.62 370.59 C 160.83 369.96 161.24 368.71 161.44 368.09 C 166.45 367.68 171.47 367.86 176.47 368.33 C 172.74 369.54 168.78 369.33 164.92 369.47 C 167.21 369.78 169.50 370.06 171.80 370.34 C 171.64 371.42 171.48 372.50 171.32 373.59 C 177.13 373.75 183.47 375.13 187.35 379.82 L 185.91 380.12 C 179.98 375.41 171.14 374.52 164.68 378.67 C 159.17 382.00 155.97 388.93 157.77 395.24 C 158.93 400.41 164.10 403.09 165.99 407.88 C 165.42 409.54 164.92 411.24 164.59 412.97 C 164.97 414.80 164.93 417.19 166.92 418.10 C 171.34 420.92 176.76 419.85 181.53 418.71 C 181.47 419.11 181.34 419.92 181.27 420.32 C 176.57 422.10 171.45 422.05 166.81 420.08 C 163.83 421.69 160.51 423.75 159.47 427.18 C 159.48 430.08 161.48 432.70 164.02 433.97 C 168.69 436.51 174.21 436.05 179.33 435.98 C 179.88 438.24 180.19 440.60 178.81 442.64 C 180.54 447.16 179.24 451.97 179.60 456.64 C 179.82 460.79 179.55 464.94 179.70 469.09 C 179.82 470.64 179.17 472.08 178.68 473.52 C 179.80 477.03 179.99 480.72 179.57 484.37 C 181.13 484.86 182.69 485.38 184.27 485.83 C 166.60 487.09 148.78 485.68 131.39 482.39 C 132.56 473.82 132.74 465.08 132.03 456.46 C 132.99 451.81 131.98 447.04 132.46 442.34 C 132.01 431.34 132.74 420.34 132.33 409.34 C 131.69 405.89 131.68 402.38 132.09 398.91 C 132.77 398.04 133.41 397.14 134.02 396.23 C 133.94 395.78 133.79 394.88 133.72 394.44 C 132.95 393.31 132.12 392.24 131.27 391.18 C 129.53 392.08 127.79 393.00 126.05 393.90 C 126.00 393.14 125.91 391.62 125.86 390.86 C 124.39 390.86 122.91 390.86 121.44 390.87 L 121.46 390.46 C 122.92 390.24 124.38 390.08 125.84 389.91 C 125.52 389.58 124.88 388.91 124.56 388.57 C 125.46 386.73 126.50 384.93 127.00 382.94 C 126.79 381.38 125.92 380.04 125.18 378.70 C 120.05 371.89 115.30 364.78 109.89 358.19 C 110.69 357.13 111.70 356.20 112.18 354.95 C 111.86 353.48 111.11 352.17 110.37 350.88 Z" />
</g>
<g id="#dfe7f1ff">
<path fill="#dfe7f1" opacity="1.00" d=" M 196.23 243.97 C 202.73 240.58 209.31 237.37 215.74 233.87 C 216.04 233.98 216.62 234.19 216.91 234.30 L 216.94 234.85 C 209.48 238.78 201.80 242.36 194.47 246.52 C 191.97 250.73 192.51 256.19 189.61 260.23 C 189.16 259.95 188.24 259.39 187.78 259.11 C 185.21 257.42 182.60 255.81 180.13 253.98 C 182.72 252.55 185.31 251.12 187.80 249.50 C 188.64 250.24 189.47 251.00 190.30 251.76 C 190.26 251.08 190.18 249.71 190.14 249.03 L 191.83 249.49 C 191.68 249.16 191.37 248.51 191.22 248.18 C 192.69 246.56 194.29 245.01 196.23 243.97 Z" />
</g>
<g id="#6b3499ff">
<path fill="#6b3499" opacity="1.00" d=" M 5.89 243.86 C 8.74 239.22 13.70 236.65 18.60 234.69 C 25.63 234.31 32.95 235.37 38.98 239.24 C 38.08 240.77 37.19 242.31 36.31 243.86 C 38.94 246.82 43.52 248.42 44.65 252.47 C 38.44 246.59 30.09 241.63 21.22 243.21 C 14.91 244.35 10.86 250.40 9.18 256.18 C 6.51 266.07 9.51 276.38 13.85 285.32 C 12.17 287.99 11.69 291.11 11.56 294.22 C 6.38 286.63 2.76 277.93 1.40 268.82 C -0.30 260.37 1.28 251.16 5.89 243.86 Z" />
</g>
<g id="#81449cff">
<path fill="#81449c" opacity="1.00" d=" M 36.31 243.86 C 37.19 242.31 38.08 240.77 38.98 239.24 C 45.15 243.22 50.76 248.24 54.84 254.38 C 53.99 255.94 52.74 257.42 52.54 259.25 C 53.43 263.50 57.62 266.94 56.47 271.60 C 53.71 264.57 49.87 257.95 44.65 252.47 C 43.52 248.42 38.94 246.82 36.31 243.86 Z" />
</g>
<g id="#27367bff">
<path fill="#27367b" opacity="1.00" d=" M 152.52 249.35 C 153.20 246.30 154.47 243.40 156.01 240.69 C 156.60 251.54 155.98 262.44 156.77 273.30 C 153.98 271.83 151.90 269.41 150.13 266.87 C 149.93 262.67 149.60 258.47 149.42 254.27 L 149.63 254.04 C 150.53 253.06 151.41 252.07 152.23 251.04 C 152.38 250.85 152.67 250.46 152.82 250.27 C 152.74 250.04 152.59 249.58 152.52 249.35 Z" />
<path fill="#27367b" opacity="1.00" d=" M 437.52 364.89 C 438.09 375.25 437.44 385.65 437.60 396.03 C 437.44 400.49 437.94 405.00 437.21 409.42 L 437.18 408.60 C 437.19 394.03 437.19 379.45 437.52 364.89 Z" />
</g>
<g id="#782881ff">
<path fill="#782881" opacity="1.00" d=" M 9.18 256.18 C 10.86 250.40 14.91 244.35 21.22 243.21 C 14.11 248.40 11.51 257.67 12.35 266.13 C 13.85 282.99 24.56 299.34 40.50 305.78 C 36.29 306.16 32.61 303.97 29.08 302.02 C 22.72 297.82 17.47 292.02 13.85 285.32 C 9.51 276.38 6.51 266.07 9.18 256.18 Z" />
</g>
<g id="#424e5a66">
<path fill="#424e5a" opacity="0.40" d=" M 21.22 243.21 C 30.09 241.63 38.44 246.59 44.65 252.47 C 49.87 257.95 53.71 264.57 56.47 271.60 C 58.52 279.64 60.33 288.63 56.37 296.41 C 53.69 302.46 47.27 306.89 40.50 305.78 C 24.56 299.34 13.85 282.99 12.35 266.13 C 11.51 257.67 14.11 248.40 21.22 243.21 M 27.41 250.25 C 24.83 256.74 22.87 263.47 20.43 270.03 C 19.86 271.92 18.59 274.09 19.82 276.01 C 20.65 277.16 22.07 279.29 23.52 277.66 C 26.32 270.13 28.82 262.48 31.44 254.88 C 32.48 252.76 29.50 248.37 27.41 250.25 M 35.23 259.90 C 32.43 267.16 30.10 274.62 27.49 281.95 C 26.14 284.60 28.24 287.80 31.06 288.14 C 33.95 280.13 36.75 272.07 39.40 263.98 C 39.75 262.02 37.25 258.17 35.23 259.90 Z" />
</g>
<g id="#244ba2ff">
<path fill="#244ba2" opacity="1.00" d=" M 138.85 243.65 C 142.41 247.45 147.03 250.25 152.23 251.04 C 151.41 252.07 150.53 253.06 149.63 254.04 C 146.51 252.89 143.46 251.49 140.68 249.67 C 139.71 248.86 138.81 247.99 137.89 247.13 C 138.22 245.97 138.54 244.81 138.85 243.65 Z" />
</g>
<g id="#767b99ff">
<path fill="#767b99" opacity="1.00" d=" M 203.00 253.72 C 205.00 252.28 207.27 251.27 209.71 250.85 C 208.03 252.22 206.30 253.63 204.16 254.21 L 203.00 253.72 Z" />
</g>
<g id="#90509fff">
<path fill="#90509f" opacity="1.00" d=" M 52.54 259.25 C 52.74 257.42 53.99 255.94 54.84 254.38 C 62.71 265.81 67.51 280.01 65.17 293.95 C 64.15 300.62 60.62 306.77 55.41 311.05 C 46.65 316.35 35.55 314.70 27.20 309.42 C 27.53 307.69 27.91 305.97 28.34 304.27 C 28.01 303.54 27.68 302.81 27.35 302.09 C 27.78 302.07 28.65 302.04 29.08 302.02 C 32.61 303.97 36.29 306.16 40.50 305.78 C 47.27 306.89 53.69 302.46 56.37 296.41 C 60.33 288.63 58.52 279.64 56.47 271.60 C 57.62 266.94 53.43 263.50 52.54 259.25 Z" />
</g>
<g id="#fefffeff">
<path fill="#fefffe" opacity="1.00" d=" M 267.59 266.11 C 269.48 263.84 271.92 258.46 275.42 261.52 C 279.01 264.92 280.26 270.02 282.33 274.39 C 277.29 271.81 273.49 266.83 267.59 266.11 Z" />
</g>
<g id="#fffffeff">
<path fill="#fffffe" opacity="1.00" d=" M 311.22 261.20 C 315.06 260.53 317.50 264.70 318.21 267.91 C 318.89 270.08 316.65 272.72 314.43 271.39 C 311.22 269.60 307.88 264.21 311.22 261.20 Z" />
</g>
<g id="#4f98adff">
<path fill="#4f98ad" opacity="1.00" d=" M 150.13 266.87 C 151.90 269.41 153.98 271.83 156.77 273.30 C 161.32 275.41 166.38 275.99 171.36 275.92 C 170.69 278.74 169.84 281.51 169.25 284.35 C 166.43 303.04 163.94 321.80 160.76 340.43 C 160.54 340.50 160.12 340.64 159.90 340.71 C 161.08 344.40 159.87 348.12 158.85 351.67 C 156.61 351.81 154.32 351.77 152.27 350.77 C 151.44 348.27 151.57 345.60 151.56 343.02 C 151.26 317.63 150.54 292.25 150.13 266.87 Z" />
<path fill="#4f98ad" opacity="1.00" d=" M 174.09 275.77 C 178.80 274.62 183.45 272.31 186.00 267.99 C 185.79 286.02 185.09 304.07 182.66 321.96 C 181.63 328.77 181.06 335.70 179.16 342.34 C 176.99 342.74 174.77 342.85 172.62 342.27 L 171.98 341.26 C 173.46 324.04 171.84 306.79 170.21 289.65 C 172.59 285.39 173.37 280.53 174.09 275.77 Z" />
<path fill="#4f98ad" opacity="1.00" d=" M 74.00 309.38 C 75.59 309.35 77.19 309.38 78.78 309.50 C 79.90 309.71 81.02 309.95 82.12 310.24 C 87.16 312.76 93.16 314.63 96.24 319.72 C 100.46 326.01 103.22 333.12 105.69 340.24 C 105.51 340.71 105.14 341.64 104.96 342.11 C 102.26 343.99 99.31 345.44 96.33 346.81 C 95.94 347.08 95.15 347.60 94.76 347.86 C 94.12 351.80 94.34 355.83 93.93 359.80 C 90.19 366.81 81.82 368.84 74.47 368.88 C 74.20 368.86 73.66 368.83 73.39 368.82 C 68.04 368.47 63.28 365.91 59.22 362.55 C 58.88 359.62 58.24 356.66 58.86 353.72 C 59.46 350.37 59.73 346.97 59.81 343.58 C 57.34 342.64 54.89 341.63 52.55 340.39 C 50.98 339.31 49.54 338.07 48.11 336.81 C 50.93 329.27 53.68 321.57 58.39 314.96 C 60.43 312.17 63.49 310.31 66.92 309.84 C 69.27 309.62 71.63 309.47 74.00 309.38 Z" />
</g>
<g id="#3c799bff">
<path fill="#3c799b" opacity="1.00" d=" M 171.36 275.92 C 172.04 275.88 173.40 275.80 174.09 275.77 C 173.37 280.53 172.59 285.39 170.21 289.65 C 169.92 287.88 169.54 286.12 169.25 284.35 C 169.84 281.51 170.69 278.74 171.36 275.92 Z" />
</g>
<g id="#7e429cff">
<path fill="#7e429c" opacity="1.00" d=" M 11.56 294.22 C 11.69 291.11 12.17 287.99 13.85 285.32 C 17.47 292.02 22.72 297.82 29.08 302.02 C 28.65 302.04 27.78 302.07 27.35 302.09 C 27.68 302.81 28.01 303.54 28.34 304.27 C 27.91 305.97 27.53 307.69 27.20 309.42 C 20.97 305.55 15.75 300.22 11.56 294.22 Z" />
</g>
<g id="#d88259ff">
<path fill="#d88259" opacity="1.00" d=" M 70.59 287.80 C 73.14 285.79 76.36 285.97 79.35 286.63 C 75.96 291.25 71.41 294.82 67.83 299.28 C 66.12 295.25 67.95 290.93 70.59 287.80 Z" />
</g>
<g id="#ca6455ff">
<path fill="#ca6455" opacity="1.00" d=" M 79.35 286.63 C 81.79 287.15 84.42 287.28 86.64 288.51 C 88.95 289.95 87.80 293.06 86.83 294.97 C 82.75 299.00 83.23 305.61 78.78 309.50 C 77.19 309.38 75.59 309.35 74.00 309.38 C 70.99 306.72 69.62 302.90 67.65 299.52 L 67.83 299.28 C 71.41 294.82 75.96 291.25 79.35 286.63 Z" />
<path fill="#ca6455" opacity="1.00" d=" M 255.84 286.19 C 257.61 286.72 259.36 287.35 261.15 287.85 C 259.64 289.61 257.54 291.40 257.84 293.99 C 257.83 296.59 259.96 298.23 261.81 299.67 C 262.59 301.31 263.36 302.97 264.05 304.66 C 263.67 305.09 262.92 305.93 262.55 306.36 C 260.30 305.93 257.15 306.49 255.93 304.02 C 255.48 302.48 255.27 300.88 254.83 299.35 C 253.57 298.83 252.26 298.49 250.95 298.15 C 251.91 297.42 253.07 296.88 253.81 295.90 C 254.15 292.59 253.73 289.03 255.84 286.19 Z" />
</g>
<g id="#d57b59ff">
<path fill="#d57b59" opacity="1.00" d=" M 248.22 287.76 C 250.64 286.77 253.23 286.24 255.84 286.19 C 253.73 289.03 254.15 292.59 253.81 295.90 C 253.07 296.88 251.91 297.42 250.95 298.15 C 250.05 297.92 249.15 297.68 248.27 297.42 C 244.71 295.23 245.05 290.12 248.22 287.76 Z" />
</g>
<g id="#f17cb4ff">
<path fill="#f17cb4" opacity="1.00" d=" M 261.15 287.85 C 262.11 288.06 263.07 288.26 264.04 288.46 C 262.42 291.98 262.35 295.90 261.81 299.67 C 259.96 298.23 257.83 296.59 257.84 293.99 C 257.54 291.40 259.64 289.61 261.15 287.85 Z" />
</g>
<g id="#d37758ff">
<path fill="#d37758" opacity="1.00" d=" M 264.04 288.46 C 265.55 288.89 267.63 288.93 268.26 290.70 C 269.73 293.88 271.49 297.11 274.82 298.67 C 273.14 303.95 274.08 309.52 273.84 314.94 C 273.63 319.84 274.07 324.73 274.16 329.62 C 270.90 328.20 267.72 326.21 266.00 322.98 C 263.30 318.88 263.36 313.78 264.26 309.14 C 264.39 307.64 264.32 306.13 264.05 304.66 C 263.36 302.97 262.59 301.31 261.81 299.67 C 262.35 295.90 262.42 291.98 264.04 288.46 Z" />
</g>
<g id="#fdc6b3ff">
<path fill="#fdc6b3" opacity="1.00" d=" M 78.78 309.50 C 83.23 305.61 82.75 299.00 86.83 294.97 C 86.44 297.87 86.91 300.94 85.78 303.71 C 84.92 306.16 81.65 307.28 82.12 310.24 C 81.02 309.95 79.90 309.71 78.78 309.50 Z" />
</g>
<g id="#c65c53ff">
<path fill="#c65c53" opacity="1.00" d=" M 274.82 298.67 C 278.44 300.61 282.36 303.16 282.73 307.69 C 282.47 309.89 282.00 312.06 281.73 314.27 C 282.53 316.83 284.22 319.25 283.79 322.07 C 283.63 325.14 281.04 327.25 278.72 328.88 C 277.21 329.36 275.68 329.77 274.16 330.19 L 274.16 329.62 C 274.07 324.73 273.63 319.84 273.84 314.94 C 274.08 309.52 273.14 303.95 274.82 298.67 Z" />
</g>
<g id="#b85ba2ff">
<path fill="#b85ba2" opacity="1.00" d=" M 262.97 309.20 C 263.29 309.19 263.94 309.16 264.26 309.14 C 263.36 313.78 263.30 318.88 266.00 322.98 C 267.72 326.21 270.90 328.20 274.16 329.62 L 274.16 330.19 C 274.08 333.60 274.27 337.01 274.49 340.42 C 274.03 345.09 276.69 350.65 273.22 354.61 C 267.13 358.45 259.87 360.56 252.65 360.07 C 251.58 351.97 252.93 343.12 248.28 335.88 C 247.17 334.46 245.20 331.85 243.42 333.75 C 240.65 336.75 238.24 340.85 233.85 341.58 C 229.70 342.44 225.49 340.06 223.53 336.42 C 220.33 330.86 216.42 325.68 213.75 319.84 C 215.26 318.86 216.77 317.88 218.28 316.89 C 222.26 320.86 225.52 325.49 229.50 329.45 C 230.79 330.86 233.02 330.60 234.22 329.22 C 238.02 325.36 241.44 321.09 245.63 317.63 C 248.45 315.15 251.94 313.70 255.19 311.92 L 255.76 311.97 C 258.57 313.03 261.65 311.96 262.97 309.20 Z" />
</g>
<g id="#2d2d80ff">
<path fill="#2d2d80" opacity="1.00" d=" M 361.02 320.83 C 361.89 318.95 366.01 322.04 364.11 323.28 C 362.73 323.28 361.28 322.19 361.02 320.83 Z" />
<path fill="#2d2d80" opacity="1.00" d=" M 179.11 342.59 C 182.05 342.43 185.01 342.50 187.95 342.81 C 206.98 344.56 226.10 348.25 243.64 356.03 C 244.38 356.58 245.12 357.14 245.87 357.70 C 245.70 369.51 246.91 381.29 247.42 393.08 C 245.29 393.23 242.98 393.28 241.53 395.10 C 243.46 396.30 245.52 397.26 247.64 398.09 C 248.63 406.69 248.51 415.34 249.11 423.96 C 243.34 425.15 237.29 426.74 232.91 430.93 C 230.38 433.42 229.26 437.55 231.15 440.74 C 234.23 446.18 240.61 448.43 246.40 449.64 C 256.40 451.58 267.46 450.81 276.27 445.33 C 279.85 443.27 282.75 438.89 281.35 434.69 C 279.33 429.98 274.48 427.58 270.14 425.45 C 270.18 423.46 270.32 421.48 270.48 419.51 C 271.41 418.14 272.43 416.72 272.31 414.98 C 272.58 401.07 272.05 387.13 273.13 373.25 C 281.46 379.91 288.55 388.43 292.55 398.39 C 297.15 409.56 296.68 422.61 291.41 433.46 C 284.36 448.33 270.96 459.08 256.78 466.81 C 234.54 478.75 209.34 484.43 184.27 485.83 C 182.69 485.38 181.13 484.86 179.57 484.37 C 179.99 480.72 179.80 477.03 178.68 473.52 C 179.17 472.08 179.82 470.64 179.70 469.09 C 179.55 464.94 179.82 460.79 179.60 456.64 C 179.24 451.97 180.54 447.16 178.81 442.64 C 180.19 440.60 179.88 438.24 179.33 435.98 C 183.36 434.81 188.09 432.49 188.82 427.91 C 189.20 424.23 185.27 422.56 182.87 420.66 C 182.28 421.56 181.69 422.46 181.11 423.37 C 181.15 422.61 181.23 421.08 181.27 420.32 C 181.34 419.92 181.47 419.11 181.53 418.71 C 182.16 417.07 182.84 415.45 183.35 413.78 C 183.37 413.10 183.41 411.73 183.44 411.05 C 183.00 409.63 181.62 408.13 182.68 406.67 C 184.85 402.71 189.32 400.24 190.40 395.63 C 192.11 390.04 189.95 384.11 185.91 380.12 L 187.35 379.82 C 183.47 375.13 177.13 373.75 171.32 373.59 C 171.48 372.50 171.64 371.42 171.80 370.34 C 169.50 370.06 167.21 369.78 164.92 369.47 C 168.78 369.33 172.74 369.54 176.47 368.33 C 180.88 366.92 185.95 365.71 188.76 361.68 C 190.02 359.99 190.65 357.00 188.35 355.86 C 188.51 355.41 188.83 354.50 188.98 354.05 C 185.76 350.94 182.62 347.74 179.32 344.72 C 179.27 344.19 179.16 343.12 179.11 342.59 Z" />
<path fill="#2d2d80" opacity="1.00" d=" M 415.95 349.14 C 417.44 350.00 419.03 350.91 419.70 352.60 C 418.14 351.84 416.19 351.13 415.95 349.14 Z" />
<path fill="#2d2d80" opacity="1.00" d=" M 434.46 359.30 C 435.81 358.54 437.75 359.84 438.13 361.23 C 437.32 362.93 433.82 360.95 434.46 359.30 Z" />
<path fill="#2d2d80" opacity="1.00" d=" M 356.78 365.04 C 358.75 366.10 360.85 367.15 362.21 369.01 C 360.02 368.39 357.47 367.46 356.78 365.04 Z" />
<path fill="#2d2d80" opacity="1.00" d=" M 259.46 368.04 C 259.38 366.78 260.86 366.32 261.58 365.55 C 262.43 382.02 262.77 398.53 263.01 415.03 C 262.94 416.80 263.39 418.53 264.56 419.89 C 264.65 421.95 264.70 424.01 264.77 426.08 C 263.83 422.71 259.68 424.03 257.08 423.74 C 257.51 405.16 258.87 386.61 259.46 368.04 Z" />
<path fill="#2d2d80" opacity="1.00" d=" M 375.80 375.51 C 377.46 376.43 379.06 377.46 380.67 378.48 C 380.66 378.81 380.64 379.47 380.62 379.80 C 378.94 378.49 376.45 377.77 375.80 375.51 Z" />
<path fill="#2d2d80" opacity="1.00" d=" M 392.89 386.10 C 395.41 386.31 397.47 387.95 398.97 389.89 C 396.61 389.25 394.58 387.82 392.89 386.10 Z" />
<path fill="#2d2d80" opacity="1.00" d=" M 411.90 396.94 C 414.17 397.53 416.06 398.95 417.82 400.45 C 417.49 400.50 416.85 400.60 416.52 400.65 C 414.86 399.58 413.01 398.64 411.90 396.94 Z" />
<path fill="#2d2d80" opacity="1.00" d=" M 431.85 408.99 C 434.30 409.29 436.48 410.76 437.91 412.75 C 435.51 412.22 433.51 410.72 431.85 408.99 Z" />
</g>
<g id="#c6c6dcff">
<path fill="#c6c6dc" opacity="1.00" d=" M 363.42 325.39 C 363.81 325.18 364.58 324.76 364.96 324.55 C 364.88 336.39 365.38 348.29 364.72 360.10 C 364.66 360.34 364.53 360.83 364.46 361.08 C 363.59 363.23 363.39 365.62 364.17 367.83 L 363.27 367.86 C 363.04 353.71 363.17 339.54 363.42 325.39 Z" />
</g>
<g id="#6a3790ff">
<path fill="#6a3790" opacity="1.00" d=" M 382.48 331.94 C 384.11 330.48 385.63 328.44 388.03 328.38 C 391.25 327.99 394.20 329.71 396.76 331.45 C 395.18 331.48 393.59 331.47 392.01 331.46 C 391.93 334.51 391.85 337.56 391.73 340.61 C 391.28 341.02 390.38 341.83 389.93 342.24 C 389.70 342.46 389.25 342.89 389.03 343.11 C 390.44 345.98 391.97 348.79 393.59 351.56 C 392.71 351.59 391.83 351.62 390.96 351.63 C 391.36 353.69 391.71 355.80 391.28 357.89 C 387.58 354.61 385.39 350.12 383.04 345.87 C 382.57 351.70 383.02 357.55 382.48 363.38 L 382.28 364.49 C 382.28 358.33 382.33 352.16 382.57 346.01 C 382.30 341.69 381.08 337.38 382.21 333.08 C 380.96 332.23 379.45 331.56 378.93 330.03 C 380.26 330.35 381.42 331.09 382.48 331.94 Z" />
</g>
<g id="#7e4598ff">
<path fill="#7e4598" opacity="1.00" d=" M 392.01 331.46 C 393.59 331.47 395.18 331.48 396.76 331.45 C 399.56 333.46 401.62 336.24 403.63 339.00 C 402.05 339.41 400.13 339.52 399.27 341.16 C 397.45 344.00 395.92 347.02 394.03 349.83 C 392.68 347.29 391.32 344.75 389.93 342.24 C 390.38 341.83 391.28 341.02 391.73 340.61 C 391.85 337.56 391.93 334.51 392.01 331.46 Z" />
</g>
<g id="#8d4d9cff">
<path fill="#8d4d9c" opacity="1.00" d=" M 399.27 341.16 C 400.13 339.52 402.05 339.41 403.63 339.00 C 406.86 344.40 409.07 350.96 407.21 357.23 C 406.25 360.11 403.39 361.50 400.84 362.69 C 400.33 371.21 401.09 379.76 400.43 388.28 L 400.41 387.85 C 400.34 379.39 400.10 370.91 400.59 362.47 C 400.44 362.34 400.14 362.09 399.99 361.96 C 395.90 358.74 396.39 352.73 398.47 348.51 C 399.37 346.83 399.65 344.95 399.83 343.08 C 400.13 342.42 400.43 341.76 400.74 341.10 C 400.38 341.12 399.64 341.15 399.27 341.16 Z" />
</g>
<g id="#232067ff">
<path fill="#232067" opacity="1.00" d=" M 159.90 340.71 C 160.12 340.64 160.54 340.50 160.76 340.43 C 160.85 340.90 161.04 341.84 161.14 342.31 C 164.96 342.16 168.79 342.08 172.62 342.27 C 172.55 342.67 172.40 343.47 172.33 343.87 C 172.20 345.87 170.62 348.74 172.85 350.10 C 176.15 352.29 179.58 354.30 183.14 356.04 C 184.79 356.94 186.65 356.03 188.35 355.86 C 190.65 357.00 190.02 359.99 188.76 361.68 C 185.95 365.71 180.88 366.92 176.47 368.33 C 171.47 367.86 166.45 367.68 161.44 368.09 C 161.24 368.71 160.83 369.96 160.62 370.59 C 160.34 370.54 159.77 370.44 159.48 370.39 C 159.17 365.61 160.46 360.72 159.09 356.04 C 158.63 354.61 158.58 353.13 158.85 351.67 C 159.87 348.12 161.08 344.40 159.90 340.71 Z" />
</g>
<g id="#f9bfaeff">
<path fill="#f9bfae" opacity="1.00" d=" M 52.55 340.39 C 54.89 341.63 57.34 342.64 59.81 343.58 C 59.73 346.97 59.46 350.37 58.86 353.72 C 54.73 350.58 52.22 345.62 52.55 340.39 Z" />
<path fill="#f9bfae" opacity="1.00" d=" M 96.33 346.81 C 99.31 345.44 102.26 343.99 104.96 342.11 C 106.61 345.13 108.59 347.95 110.37 350.88 C 111.11 352.17 111.86 353.48 112.18 354.95 C 111.70 356.20 110.69 357.13 109.89 358.19 L 109.48 358.03 C 106.73 357.07 103.73 356.46 101.48 354.49 C 98.98 352.55 97.66 349.59 96.33 346.81 Z" />
</g>
<g id="#9bdaf7ff">
<path fill="#9bdaf7" opacity="1.00" d=" M 172.33 343.87 C 173.80 346.62 177.02 345.83 179.32 344.72 C 182.62 347.74 185.76 350.94 188.98 354.05 C 188.83 354.50 188.51 355.41 188.35 355.86 C 186.65 356.03 184.79 356.94 183.14 356.04 C 179.58 354.30 176.15 352.29 172.85 350.10 C 170.62 348.74 172.20 345.87 172.33 343.87 Z" />
</g>
<g id="#7d4497ff">
<path fill="#7d4497" opacity="1.00" d=" M 393.59 351.56 C 396.60 349.76 397.62 345.76 399.83 343.08 C 399.65 344.95 399.37 346.83 398.47 348.51 C 396.39 352.73 395.90 358.74 399.99 361.96 C 396.82 361.26 393.69 360.15 391.28 357.89 C 391.71 355.80 391.36 353.69 390.96 351.63 C 391.83 351.62 392.71 351.59 393.59 351.56 Z" />
</g>
<g id="#754699ff">
<path fill="#754699" opacity="1.00" d=" M 94.76 347.86 C 95.15 347.60 95.94 347.08 96.33 346.81 C 97.66 349.59 98.98 352.55 101.48 354.49 C 103.73 356.46 106.73 357.07 109.48 358.03 C 107.84 359.49 105.76 358.81 103.88 358.42 C 101.18 362.68 99.91 367.66 97.27 371.96 C 96.33 372.52 95.38 373.08 94.44 373.65 C 94.25 373.39 93.88 372.87 93.69 372.60 C 93.71 368.33 93.74 364.06 93.93 359.80 C 94.34 355.83 94.12 351.80 94.76 347.86 Z" />
</g>
<g id="#f7f4f9ff">
<path fill="#f7f4f9" opacity="1.00" d=" M 383.04 345.87 C 385.39 350.12 387.58 354.61 391.28 357.89 C 393.69 360.15 396.82 361.26 399.99 361.96 C 400.14 362.09 400.44 362.34 400.59 362.47 C 394.43 361.70 389.02 366.86 382.96 364.85 L 382.48 363.38 C 383.02 357.55 382.57 351.70 383.04 345.87 Z" />
</g>
<g id="#170a54ff">
<path fill="#170a54" opacity="1.00" d=" M 148.47 357.21 C 149.36 354.86 150.90 352.84 152.27 350.77 C 152.37 352.53 152.41 354.31 152.32 356.08 C 151.53 357.53 151.43 359.18 151.67 360.80 C 151.40 361.33 150.86 362.40 150.60 362.93 C 149.80 361.06 148.68 359.25 148.47 357.21 Z" />
</g>
<g id="#385ca9ff">
<path fill="#385ca9" opacity="1.00" d=" M 252.65 360.07 C 259.87 360.56 267.13 358.45 273.22 354.61 C 273.35 360.82 272.83 367.04 273.13 373.25 C 272.05 387.13 272.58 401.07 272.31 414.98 C 272.43 416.72 271.41 418.14 270.48 419.51 C 269.06 419.99 267.58 420.31 266.09 420.42 C 266.49 401.24 266.66 382.06 266.98 362.89 C 265.16 363.75 263.35 364.60 261.58 365.55 C 260.86 366.32 259.38 366.78 259.46 368.04 C 258.87 386.61 257.51 405.16 257.08 423.74 C 256.85 425.68 256.24 427.56 255.61 429.41 C 253.54 429.62 251.47 429.38 249.56 428.53 C 249.44 427.00 249.25 425.48 249.11 423.96 C 248.51 415.34 248.63 406.69 247.64 398.09 C 247.54 396.42 247.47 394.75 247.42 393.08 C 246.91 381.29 245.70 369.51 245.87 357.70 C 248.01 358.79 250.31 359.52 252.65 360.07 Z" />
</g>
<g id="#9cdaf7ff">
<path fill="#9cdaf7" opacity="1.00" d=" M 152.32 356.08 C 154.54 356.72 156.86 356.63 159.09 356.04 C 160.46 360.72 159.17 365.61 159.48 370.39 C 158.21 372.73 154.83 373.28 153.45 370.73 C 152.56 367.48 152.28 364.10 151.67 360.80 C 151.43 359.18 151.53 357.53 152.32 356.08 Z" />
</g>
<g id="#854d9cff">
<path fill="#854d9c" opacity="1.00" d=" M 103.88 358.42 C 105.76 358.81 107.84 359.49 109.48 358.03 L 109.89 358.19 C 115.30 364.78 120.05 371.89 125.18 378.70 C 116.94 376.95 109.16 383.82 107.65 391.66 C 102.99 385.85 99.02 379.52 94.44 373.65 C 95.38 373.08 96.33 372.52 97.27 371.96 C 99.91 367.66 101.18 362.68 103.88 358.42 Z" />
</g>
<g id="#5f9eb8ff">
<path fill="#5f9eb8" opacity="1.00" d=" M 364.46 361.08 C 365.21 363.27 365.60 365.70 364.54 367.88 L 364.17 367.83 C 363.39 365.62 363.59 363.23 364.46 361.08 Z" />
</g>
<g id="#282462ff">
<path fill="#282462" opacity="1.00" d=" M 261.58 365.55 C 263.35 364.60 265.16 363.75 266.98 362.89 C 266.66 382.06 266.49 401.24 266.09 420.42 L 264.56 419.89 C 263.39 418.53 262.94 416.80 263.01 415.03 C 262.77 398.53 262.43 382.02 261.58 365.55 Z" />
</g>
<g id="#6498b6ff">
<path fill="#6498b6" opacity="1.00" d=" M 382.28 364.49 L 382.48 363.38 L 382.96 364.85 C 383.32 369.34 383.02 373.85 382.94 378.35 C 382.55 378.06 381.78 377.46 381.39 377.17 C 381.72 372.94 381.61 368.68 382.28 364.49 Z" />
</g>
<g id="#375ba9ff">
<path fill="#375ba9" opacity="1.00" d=" M 73.39 368.82 C 73.66 368.83 74.20 368.86 74.47 368.88 C 74.84 372.65 75.45 376.40 75.98 380.15 C 73.99 392.12 74.77 404.35 73.63 416.42 C 73.73 423.35 72.54 430.26 73.04 437.17 C 72.94 436.76 72.76 435.93 72.67 435.52 C 72.56 435.00 72.32 433.98 72.21 433.46 C 70.42 433.47 68.64 433.46 66.86 433.45 C 67.60 433.38 69.09 433.24 69.84 433.17 C 69.65 423.45 69.73 413.73 69.66 404.01 C 69.67 392.18 71.10 380.41 73.39 368.82 Z" />
</g>
<g id="#242164ff">
<path fill="#242164" opacity="1.00" d=" M 92.42 433.91 C 92.75 413.47 93.33 393.04 93.69 372.60 C 93.88 372.87 94.25 373.39 94.44 373.65 C 99.02 379.52 102.99 385.85 107.65 391.66 C 109.16 383.82 116.94 376.95 125.18 378.70 C 125.92 380.04 126.79 381.38 127.00 382.94 C 126.50 384.93 125.46 386.73 124.56 388.57 C 124.88 388.91 125.52 389.58 125.84 389.91 C 124.38 390.08 122.92 390.24 121.46 390.46 L 121.44 390.87 C 121.40 393.26 121.30 395.64 120.98 398.02 C 119.75 400.90 122.35 402.35 124.94 401.75 C 128.19 399.74 130.90 396.99 133.72 394.44 C 133.79 394.88 133.94 395.78 134.02 396.23 C 133.41 397.14 132.77 398.04 132.09 398.91 C 129.77 400.70 127.34 402.39 124.67 403.63 C 121.04 405.31 116.94 404.98 113.05 405.09 C 113.99 410.48 112.86 415.93 113.28 421.36 C 112.84 427.12 114.98 433.07 112.95 438.68 C 113.79 440.97 114.11 443.45 112.81 445.66 C 113.02 446.02 113.43 446.73 113.64 447.09 C 113.48 451.41 114.20 455.72 113.84 460.04 C 113.44 465.94 114.29 471.94 112.92 477.76 C 96.72 472.75 80.99 465.39 67.94 454.42 C 68.01 454.00 68.14 453.14 68.20 452.71 C 67.32 450.07 67.32 447.28 67.47 444.54 C 69.80 444.25 72.46 444.07 73.91 441.94 C 76.08 439.98 74.80 437.00 74.78 434.51 C 75.00 425.52 75.43 416.54 76.46 407.60 C 76.97 407.49 77.99 407.27 78.50 407.16 C 80.12 416.75 81.23 426.44 83.17 435.97 C 83.22 437.65 85.05 437.61 86.27 437.69 C 88.59 437.39 92.63 437.13 92.42 433.91 Z" />
</g>
<g id="#211c5aff">
<path fill="#211c5a" opacity="1.00" d=" M 73.63 416.42 C 74.77 404.35 73.99 392.12 75.98 380.15 C 78.94 398.05 81.65 416.00 84.54 433.92 C 84.79 435.31 85.37 436.57 86.27 437.69 C 85.05 437.61 83.22 437.65 83.17 435.97 C 81.23 426.44 80.12 416.75 78.50 407.16 C 77.99 407.27 76.97 407.49 76.46 407.60 C 75.43 416.54 75.00 425.52 74.78 434.51 C 74.80 437.00 76.08 439.98 73.91 441.94 C 72.46 444.07 69.80 444.25 67.47 444.54 C 67.32 447.28 67.32 450.07 68.20 452.71 C 68.14 453.14 68.01 454.00 67.94 454.42 C 57.24 445.46 48.41 433.21 46.61 419.07 C 44.75 405.09 50.55 390.88 60.17 380.87 C 61.60 396.51 64.22 412.05 64.85 427.76 C 65.04 431.98 64.16 436.44 65.54 440.49 C 67.70 444.72 74.91 441.75 73.04 437.17 C 72.54 430.26 73.73 423.35 73.63 416.42 Z" />
</g>
<g id="#30303336">
<path fill="#303033" opacity="0.21" d=" M 362.07 381.66 C 386.16 395.70 410.10 409.99 434.15 424.09 C 436.61 425.66 439.60 425.66 442.40 425.27 C 441.68 426.02 440.98 426.80 440.30 427.59 C 446.09 431.43 452.79 435.13 460.00 433.92 C 463.79 433.50 466.70 430.41 467.88 426.92 C 469.54 423.22 468.80 419.12 468.72 415.22 C 470.22 416.08 471.72 416.98 473.22 417.87 L 472.27 417.59 C 473.67 424.02 471.33 431.19 465.68 434.84 C 461.56 438.06 455.96 438.08 451.06 437.10 C 447.06 435.80 443.89 432.88 440.16 431.04 C 433.36 427.62 426.83 423.69 420.27 419.83 C 402.93 409.87 385.69 399.74 368.24 389.98 C 365.39 388.50 363.02 386.31 360.87 383.97 C 361.17 383.39 361.77 382.23 362.07 381.66 Z" />
</g>
<g id="#f8c66bff">
<path fill="#f8c66b" opacity="1.00" d=" M 121.44 390.87 C 122.91 390.86 124.39 390.86 125.86 390.86 C 125.91 391.62 126.00 393.14 126.05 393.90 C 126.10 395.38 126.12 396.86 126.14 398.34 C 124.41 398.60 122.67 398.44 120.98 398.02 C 121.30 395.64 121.40 393.26 121.44 390.87 Z" />
</g>
<g id="#ca3665ff">
<path fill="#ca3665" opacity="1.00" d=" M 241.53 395.10 C 242.98 393.28 245.29 393.23 247.42 393.08 C 247.47 394.75 247.54 396.42 247.64 398.09 C 245.52 397.26 243.46 396.30 241.53 395.10 Z" />
</g>
<g id="#26246aff">
<path fill="#26246a" opacity="1.00" d=" M 124.67 403.63 C 127.34 402.39 129.77 400.70 132.09 398.91 C 131.68 402.38 131.69 405.89 132.33 409.34 C 132.74 420.34 132.01 431.34 132.46 442.34 C 131.98 447.04 132.99 451.81 132.03 456.46 C 132.74 465.08 132.56 473.82 131.39 482.39 C 125.16 481.15 118.98 479.63 112.92 477.76 C 114.29 471.94 113.44 465.94 113.84 460.04 C 114.20 455.72 113.48 451.41 113.64 447.09 C 113.43 446.73 113.02 446.02 112.81 445.66 C 114.11 443.45 113.79 440.97 112.95 438.68 C 114.98 433.07 112.84 427.12 113.28 421.36 C 112.86 415.93 113.99 410.48 113.05 405.09 C 116.94 404.98 121.04 405.31 124.67 403.63 Z" />
</g>
<g id="#54526170">
<path fill="#545261" opacity="0.44" d=" M 444.07 424.17 C 451.49 420.22 449.23 410.92 449.53 404.06 C 450.35 404.57 451.19 405.09 452.03 405.60 C 449.64 410.12 451.24 415.32 450.41 420.16 C 452.27 421.49 454.87 422.85 456.69 420.62 C 459.05 417.43 457.78 413.04 458.66 409.35 C 459.20 409.66 460.27 410.27 460.81 410.58 C 461.71 411.11 462.60 411.67 463.50 412.23 C 463.60 414.41 465.87 415.79 465.78 418.00 C 465.72 422.36 465.14 427.65 461.10 430.22 C 455.41 432.06 449.62 429.33 444.67 426.68 C 444.46 425.84 444.26 425.00 444.07 424.17 Z" />
</g>
<g id="#5c5a6f84">
<path fill="#5c5a6f" opacity="0.52" d=" M 452.03 405.60 C 454.21 406.90 456.44 408.11 458.66 409.35 C 457.78 413.04 459.05 417.43 456.69 420.62 C 454.87 422.85 452.27 421.49 450.41 420.16 C 451.24 415.32 449.64 410.12 452.03 405.60 Z" />
</g>
<g id="#2a4d9fff">
<path fill="#2a4d9f" opacity="1.00" d=" M 164.59 412.97 C 169.66 417.86 177.76 417.72 183.35 413.78 C 182.84 415.45 182.16 417.07 181.53 418.71 C 176.76 419.85 171.34 420.92 166.92 418.10 C 164.93 417.19 164.97 414.80 164.59 412.97 Z" />
</g>
<g id="#4240474e">
<path fill="#424047" opacity="0.31" d=" M 465.78 418.00 C 465.87 415.79 463.60 414.41 463.50 412.23 C 464.80 412.98 466.14 413.74 467.46 414.50 C 467.77 414.68 468.40 415.04 468.72 415.22 C 468.80 419.12 469.54 423.22 467.88 426.92 C 466.70 430.41 463.79 433.50 460.00 433.92 C 452.79 435.13 446.09 431.43 440.30 427.59 C 440.98 426.80 441.68 426.02 442.40 425.27 C 442.82 424.99 443.65 424.45 444.07 424.17 C 444.26 425.00 444.46 425.84 444.67 426.68 C 449.62 429.33 455.41 432.06 461.10 430.22 C 465.14 427.65 465.72 422.36 465.78 418.00 Z" />
</g>
<g id="#f6c66bff">
<path fill="#f6c66b" opacity="1.00" d=" M 266.09 420.42 C 267.58 420.31 269.06 419.99 270.48 419.51 C 270.32 421.48 270.18 423.46 270.14 425.45 C 270.16 427.08 270.31 428.70 270.48 430.33 C 268.06 431.30 264.62 430.83 264.85 427.52 L 264.77 426.08 C 264.70 424.01 264.65 421.95 264.56 419.89 L 266.09 420.42 Z" />
</g>
<g id="#232068ff">
<path fill="#232068" opacity="1.00" d=" M 159.47 427.18 C 160.51 423.75 163.83 421.69 166.81 420.08 C 167.36 422.05 167.06 424.77 169.25 425.82 C 172.96 427.84 179.13 427.74 181.11 423.37 C 181.69 422.46 182.28 421.56 182.87 420.66 C 185.27 422.56 189.20 424.23 188.82 427.91 C 188.09 432.49 183.36 434.81 179.33 435.98 C 174.21 436.05 168.69 436.51 164.02 433.97 C 161.48 432.70 159.48 430.08 159.47 427.18 Z" />
</g>
<g id="#2c50a2ff">
<path fill="#2c50a2" opacity="1.00" d=" M 166.81 420.08 C 171.45 422.05 176.57 422.10 181.27 420.32 C 181.23 421.08 181.15 422.61 181.11 423.37 C 179.13 427.74 172.96 427.84 169.25 425.82 C 167.06 424.77 167.36 422.05 166.81 420.08 Z" />
</g>
<g id="#1d1d56ff">
<path fill="#1d1d56" opacity="1.00" d=" M 232.91 430.93 C 237.29 426.74 243.34 425.15 249.11 423.96 C 249.25 425.48 249.44 427.00 249.56 428.53 C 249.79 431.33 249.64 434.16 249.98 436.96 C 250.33 438.79 253.19 440.43 254.44 438.45 C 255.29 435.51 255.02 432.39 255.61 429.41 C 256.24 427.56 256.85 425.68 257.08 423.74 C 259.68 424.03 263.83 422.71 264.77 426.08 L 264.85 427.52 C 262.26 426.32 258.93 424.42 257.05 427.74 C 260.38 430.10 263.14 433.55 267.04 434.94 C 270.07 435.68 271.36 432.85 270.48 430.33 C 270.31 428.70 270.16 427.08 270.14 425.45 C 274.48 427.58 279.33 429.98 281.35 434.69 C 282.75 438.89 279.85 443.27 276.27 445.33 C 267.46 450.81 256.40 451.58 246.40 449.64 C 240.61 448.43 234.23 446.18 231.15 440.74 C 229.26 437.55 230.38 433.42 232.91 430.93 Z" />
</g>
<g id="#bd3568ff">
<path fill="#bd3568" opacity="1.00" d=" M 257.05 427.74 C 258.93 424.42 262.26 426.32 264.85 427.52 C 264.62 430.83 268.06 431.30 270.48 430.33 C 271.36 432.85 270.07 435.68 267.04 434.94 C 263.14 433.55 260.38 430.10 257.05 427.74 Z" />
</g>
<g id="#f6c56cff">
<path fill="#f6c56c" opacity="1.00" d=" M 249.56 428.53 C 251.47 429.38 253.54 429.62 255.61 429.41 C 255.02 432.39 255.29 435.51 254.44 438.45 C 253.19 440.43 250.33 438.79 249.98 436.96 C 249.64 434.16 249.79 431.33 249.56 428.53 Z" />
</g>
<g id="#f5cd7cff">
<path fill="#f5cd7c" opacity="1.00" d=" M 65.59 433.47 L 66.86 433.45 C 68.64 433.46 70.42 433.47 72.21 433.46 C 72.32 433.98 72.56 435.00 72.67 435.52 C 70.16 437.27 65.83 437.42 65.59 433.47 Z" />
</g>
</svg>
