<?xml version="1.0" encoding="UTF-8" ?>
<!DOCTYPE svg PUBLIC "-//W3C//DTD SVG 1.1//EN" "http://www.w3.org/Graphics/SVG/1.1/DTD/svg11.dtd">
<svg width="512pt" height="512pt" viewBox="0 0 512 512" version="1.1" xmlns="http://www.w3.org/2000/svg">
<g id="#73f2c3ff">
<path fill="#73f2c3" opacity="1.00" d=" M 39.99 31.94 C 39.92 23.42 47.48 15.89 56.01 15.99 C 189.35 16.00 322.70 16.00 456.04 15.99 C 464.21 15.92 471.50 22.83 471.97 30.96 C 472.06 49.98 471.96 69.00 472.02 88.02 C 466.67 87.99 461.33 88.00 455.99 88.00 C 455.98 82.67 456.01 77.33 456.00 72.00 C 434.67 72.01 413.33 72.00 392.00 72.00 C 392.00 77.34 391.99 82.68 392.02 88.02 C 386.67 87.99 381.33 88.00 375.99 88.00 C 375.98 82.67 376.01 77.33 376.00 72.00 C 269.33 72.01 162.67 72.00 56.00 72.00 C 55.99 77.33 56.03 82.67 56.00 88.00 C 50.67 88.03 45.34 87.99 40.00 88.00 C 39.99 69.31 40.00 50.63 39.99 31.94 M 360.36 32.53 C 355.99 34.11 352.39 38.22 352.00 42.93 C 351.32 49.26 356.65 55.44 362.93 55.98 C 370.03 56.79 376.83 49.95 375.98 42.85 C 375.36 35.67 367.30 29.99 360.36 32.53 M 400.33 32.54 C 395.98 34.13 392.40 38.22 392.00 42.91 C 391.31 49.25 396.64 55.45 402.93 55.98 C 409.99 56.78 416.77 50.02 415.98 42.95 C 415.44 35.71 407.30 29.96 400.33 32.54 M 440.33 32.54 C 436.25 34.02 432.96 37.67 432.10 41.95 C 430.84 48.58 436.28 55.42 442.92 55.98 C 449.61 56.74 456.13 50.70 456.01 44.01 C 456.23 36.33 447.65 29.81 440.33 32.54 Z" />
<path fill="#73f2c3" opacity="1.00" d=" M 15.99 119.92 C 15.92 111.40 23.47 103.88 31.99 103.99 C 181.35 104.00 330.70 104.00 480.05 103.99 C 488.58 103.89 496.10 111.45 496.01 119.98 C 495.99 223.98 496.02 327.99 496.00 432.00 C 445.33 432.01 394.67 432.00 344.00 432.01 C 344.00 426.66 344.01 421.32 343.98 415.98 C 389.32 416.02 434.66 415.98 480.00 416.00 C 479.99 346.67 479.99 277.33 480.00 208.00 C 330.67 208.01 181.34 208.00 32.01 208.01 C 31.99 277.34 32.02 346.67 32.00 416.00 C 77.33 415.99 122.67 416.00 168.00 415.99 C 168.00 421.33 167.99 426.67 168.02 432.02 C 117.35 431.98 66.67 432.02 16.00 432.00 C 15.98 327.98 16.01 223.95 15.99 119.92 M 384.33 120.55 C 379.99 122.14 376.44 126.21 376.00 130.88 C 375.30 136.96 380.19 142.76 386.04 143.90 C 393.35 145.29 400.77 138.36 400.00 130.99 C 399.42 123.78 391.33 117.91 384.33 120.55 M 424.36 120.54 C 419.30 122.35 415.35 127.62 416.00 133.12 C 416.52 138.34 420.90 142.87 426.00 143.90 C 433.33 145.31 440.79 138.36 440.00 130.97 C 439.39 123.78 431.34 117.93 424.36 120.54 M 464.38 120.54 C 459.31 122.34 455.35 127.61 456.00 133.12 C 456.52 138.35 460.91 142.88 466.02 143.90 C 473.35 145.30 480.81 138.33 480.00 130.94 C 479.37 123.77 471.35 117.94 464.38 120.54 M 32.00 160.00 C 32.01 170.66 32.00 181.33 32.00 192.00 C 154.67 191.99 277.33 191.99 400.00 192.00 C 399.98 181.34 400.01 170.67 399.99 160.01 C 277.33 159.99 154.66 160.02 32.00 160.00 M 416.00 160.00 C 416.00 170.67 416.02 181.33 416.00 192.00 C 437.33 191.99 458.67 191.99 480.00 192.00 C 479.97 181.33 480.02 170.67 479.98 160.00 C 458.66 160.00 437.33 160.00 416.00 160.00 Z" />
<path fill="#73f2c3" opacity="1.00" d=" M 237.60 227.11 C 241.11 220.40 248.47 216.11 255.98 215.96 C 263.53 216.05 270.85 220.45 274.43 227.11 C 280.69 222.44 289.35 220.85 296.57 224.21 C 303.53 226.78 307.73 233.76 308.90 240.82 C 315.25 239.35 322.31 240.59 327.49 244.64 C 334.18 249.69 337.89 258.93 335.22 267.09 C 341.00 268.09 346.90 270.84 349.94 276.11 C 355.05 283.71 354.77 294.47 348.88 301.58 C 355.60 305.11 359.88 312.50 360.04 320.04 C 359.87 327.57 355.53 334.86 348.86 338.43 C 353.51 344.68 355.13 353.31 351.77 360.52 C 349.24 367.53 342.21 371.70 335.16 372.91 C 336.54 379.24 335.43 386.27 331.38 391.44 C 326.33 398.15 317.08 401.94 308.91 399.20 C 307.89 405.04 304.73 410.50 299.74 413.82 C 292.31 419.19 281.46 418.69 274.40 412.89 C 270.84 419.57 263.52 423.88 255.99 424.04 C 248.47 423.86 241.10 419.58 237.57 412.86 C 233.04 415.96 227.63 418.09 222.06 417.49 C 216.00 416.81 209.80 413.84 206.60 408.45 C 204.72 405.67 203.80 402.42 203.06 399.19 C 195.38 400.88 186.67 398.64 181.48 392.54 C 176.74 387.35 174.51 379.69 176.78 372.91 C 171.47 371.94 166.40 369.36 163.11 365.00 C 156.79 357.59 156.94 345.87 163.07 338.39 C 156.41 334.84 152.07 327.52 151.96 320.00 C 152.08 312.46 156.42 305.11 163.12 301.57 C 158.11 294.64 157.30 284.93 161.18 277.31 C 164.23 271.47 170.54 268.19 176.81 267.06 C 175.02 259.39 177.38 250.70 183.42 245.50 C 188.61 240.77 196.27 238.51 203.07 240.78 C 204.05 235.20 206.93 229.93 211.60 226.61 C 219.05 220.80 230.34 221.10 237.60 227.11 M 245.44 248.73 C 231.61 250.69 218.40 256.81 208.00 266.13 C 195.83 276.87 187.56 291.91 184.97 307.93 C 181.75 326.59 186.19 346.48 197.25 361.88 C 207.27 376.07 222.64 386.35 239.59 390.18 C 254.44 393.63 270.36 392.25 284.40 386.29 C 301.29 379.18 315.20 365.27 322.30 348.38 C 329.21 332.13 329.93 313.35 324.19 296.64 C 319.40 282.20 309.73 269.46 297.24 260.80 C 282.35 250.36 263.39 246.03 245.44 248.73 Z" />
<path fill="#73f2c3" opacity="1.00" d=" M 247.46 264.71 C 262.17 262.25 277.86 266.23 289.74 275.22 C 302.10 284.31 310.13 298.84 311.66 314.07 C 313.26 328.27 309.08 343.11 300.27 354.37 C 291.03 366.60 276.41 374.34 261.20 375.76 C 247.21 377.06 232.68 372.97 221.61 364.27 C 209.46 355.11 201.73 340.61 200.27 325.51 C 198.90 311.71 202.78 297.32 211.20 286.25 C 219.77 274.63 233.17 266.71 247.46 264.71 M 232.00 295.89 C 232.00 298.59 232.00 301.29 232.00 304.00 C 237.33 303.97 242.66 304.01 248.00 304.00 C 248.01 317.33 248.00 330.67 248.00 344.00 C 242.67 343.99 237.33 344.02 232.00 344.00 C 232.02 349.33 231.99 354.67 232.00 360.00 C 248.00 359.98 263.99 360.01 279.99 359.99 C 280.00 354.66 280.00 349.33 280.00 344.00 C 274.67 344.03 269.33 343.99 264.00 344.00 C 263.99 322.67 264.00 301.33 264.00 280.00 C 258.63 280.03 253.26 279.99 247.89 280.00 C 242.59 285.29 237.29 290.59 232.00 295.89 Z" />
<path fill="#73f2c3" opacity="1.00" d=" M 320.22 415.21 C 321.77 414.86 323.28 414.33 324.76 413.75 C 334.17 432.31 343.46 450.95 352.70 469.59 C 332.99 477.80 313.34 486.14 293.61 494.30 C 286.97 474.52 280.15 454.79 273.62 434.97 C 275.19 433.93 276.78 432.91 278.40 431.95 C 287.45 435.28 297.39 433.03 305.72 428.82 C 311.70 425.71 316.63 420.89 320.22 415.21 Z" />
<path fill="#73f2c3" opacity="1.00" d=" M 187.33 415.10 C 188.84 415.46 190.35 415.80 191.88 416.12 C 200.19 428.64 216.00 437.46 231.17 433.41 C 234.13 431.92 236.31 434.63 238.30 436.39 C 231.93 456.31 225.00 476.07 218.34 495.90 C 198.66 487.66 178.97 479.46 159.32 471.16 C 168.54 452.42 177.94 433.76 187.33 415.10 Z" />
</g>
</svg>
