<?xml version="1.0" encoding="UTF-8" ?>
<!DOCTYPE svg PUBLIC "-//W3C//DTD SVG 1.1//EN" "http://www.w3.org/Graphics/SVG/1.1/DTD/svg11.dtd">
<svg width="500pt" height="357pt" viewBox="0 0 500 357" version="1.1" xmlns="http://www.w3.org/2000/svg">
<g id="#7c7b87ff">
<path fill="#7c7b87" opacity="1.00" d=" M 132.54 70.69 C 157.29 56.07 182.42 42.10 207.19 27.51 C 209.19 28.56 211.18 29.63 213.16 30.74 C 188.13 44.77 163.33 59.22 138.37 73.37 C 136.42 72.48 134.47 71.59 132.54 70.69 Z" />
<path fill="#7c7b87" opacity="1.00" d=" M 143.55 141.04 C 166.81 127.89 189.88 114.41 213.12 101.24 C 216.66 103.34 220.25 105.33 223.76 107.47 C 222.67 108.09 221.58 108.71 220.50 109.33 C 218.47 108.20 216.55 106.67 214.22 106.21 C 211.81 107.06 209.72 108.59 207.58 109.94 C 209.45 111.14 211.34 112.33 213.23 113.52 C 212.35 114.01 211.47 114.51 210.60 115.01 C 208.52 113.84 206.52 112.39 204.16 111.86 C 201.73 112.64 199.69 114.23 197.59 115.62 C 199.47 116.83 201.35 118.03 203.25 119.24 C 202.39 119.72 201.54 120.20 200.70 120.68 C 198.83 119.34 197.01 117.83 194.83 117.03 C 192.14 117.67 189.94 119.47 187.66 120.95 C 189.75 122.17 191.86 123.37 193.97 124.56 C 192.82 125.22 191.67 125.86 190.53 126.52 C 188.70 125.25 186.93 123.80 184.82 123.04 C 182.00 123.42 179.82 125.45 177.53 126.94 C 179.62 128.12 181.72 129.27 183.84 130.40 C 182.70 131.05 181.56 131.69 180.43 132.33 C 178.36 131.17 176.36 129.81 174.06 129.13 C 171.63 129.94 169.57 131.53 167.45 132.92 C 169.34 134.12 171.25 135.31 173.16 136.50 C 172.25 137.01 171.34 137.52 170.44 138.03 C 168.28 136.82 166.13 135.61 163.98 134.39 C 161.71 135.64 159.51 137.04 157.44 138.60 C 159.63 140.06 161.83 141.50 164.03 142.96 C 163.02 144.35 162.07 145.79 161.10 147.23 C 160.55 146.92 159.44 146.30 158.89 145.99 C 159.73 145.28 160.57 144.58 161.42 143.88 C 159.31 142.56 157.27 141.04 154.89 140.23 C 153.30 140.65 151.89 141.54 150.43 142.27 C 148.20 141.55 145.87 141.25 143.55 141.04 Z" />
</g>
<g id="#5a5961ff">
<path fill="#5a5961" opacity="1.00" d=" M 138.37 73.37 C 163.33 59.22 188.13 44.77 213.16 30.74 C 213.09 54.24 213.15 77.74 213.12 101.24 C 189.88 114.41 166.81 127.89 143.55 141.04 C 141.91 141.78 140.25 142.52 138.64 143.33 C 138.61 140.69 138.40 138.06 138.22 135.43 C 140.45 131.22 142.80 127.09 145.23 122.99 C 145.42 125.06 145.57 127.14 145.72 129.22 C 146.29 128.88 146.86 128.55 147.44 128.21 C 167.12 117.10 186.51 105.46 205.96 93.96 C 205.67 77.68 206.05 61.39 205.78 45.11 L 205.75 44.68 C 185.65 56.05 165.80 67.85 145.72 79.25 C 145.73 80.99 145.77 82.74 145.76 84.49 C 144.55 89.94 140.77 94.31 138.38 99.25 C 138.36 90.63 138.28 82.00 138.37 73.37 Z" />
<path fill="#5a5961" opacity="1.00" d=" M 207.58 109.94 C 209.72 108.59 211.81 107.06 214.22 106.21 C 216.55 106.67 218.47 108.20 220.50 109.33 C 218.08 110.74 215.66 112.14 213.23 113.52 C 211.34 112.33 209.45 111.14 207.58 109.94 Z" />
<path fill="#5a5961" opacity="1.00" d=" M 197.59 115.62 C 199.69 114.23 201.73 112.64 204.16 111.86 C 206.52 112.39 208.52 113.84 210.60 115.01 C 208.15 116.42 205.70 117.84 203.25 119.24 C 201.35 118.03 199.47 116.83 197.59 115.62 Z" />
<path fill="#5a5961" opacity="1.00" d=" M 187.66 120.95 C 189.94 119.47 192.14 117.67 194.83 117.03 C 197.01 117.83 198.83 119.34 200.70 120.68 C 198.45 121.97 196.22 123.27 193.97 124.56 C 191.86 123.37 189.75 122.17 187.66 120.95 Z" />
<path fill="#5a5961" opacity="1.00" d=" M 177.53 126.94 C 179.82 125.45 182.00 123.42 184.82 123.04 C 186.93 123.80 188.70 125.25 190.53 126.52 C 188.29 127.80 186.07 129.11 183.84 130.40 C 181.72 129.27 179.62 128.12 177.53 126.94 Z" />
<path fill="#5a5961" opacity="1.00" d=" M 167.45 132.92 C 169.57 131.53 171.63 129.94 174.06 129.13 C 176.36 129.81 178.36 131.17 180.43 132.33 C 178.00 133.72 175.59 135.12 173.16 136.50 C 171.25 135.31 169.34 134.12 167.45 132.92 Z" />
<path fill="#5a5961" opacity="1.00" d=" M 157.44 138.60 C 159.51 137.04 161.71 135.64 163.98 134.39 C 166.13 135.61 168.28 136.82 170.44 138.03 C 168.88 138.92 167.32 139.81 165.82 140.80 C 165.20 141.50 164.60 142.21 164.03 142.96 C 161.83 141.50 159.63 140.06 157.44 138.60 Z" />
<path fill="#5a5961" opacity="1.00" d=" M 261.31 227.66 C 262.45 227.02 263.58 226.36 264.73 225.70 C 264.48 229.44 264.72 233.61 262.17 236.67 C 262.56 237.45 262.95 238.24 263.35 239.04 C 262.83 241.08 261.86 243.56 259.41 243.75 C 257.40 243.24 257.17 241.09 257.07 239.38 C 255.44 240.45 253.79 241.48 252.15 242.52 C 253.21 244.99 252.66 248.27 249.92 249.34 C 247.89 249.96 247.14 247.56 246.52 246.20 C 245.13 246.32 242.12 246.24 242.94 244.06 C 248.27 240.19 254.36 237.44 259.74 233.64 C 261.12 232.08 260.72 229.59 261.31 227.66 M 259.33 239.07 C 258.69 240.72 259.19 241.29 260.81 240.79 C 261.45 239.13 260.95 238.56 259.33 239.07 M 249.11 244.40 C 248.96 244.81 248.64 245.65 248.49 246.07 C 250.31 249.58 252.84 242.79 249.11 244.40 Z" />
</g>
<g id="#b71632ff">
<path fill="#b71632" opacity="1.00" d=" M 296.00 33.30 C 298.23 32.46 300.43 29.69 302.92 31.21 C 309.53 34.87 316.00 38.78 322.58 42.52 C 324.32 43.31 325.41 45.07 325.13 47.01 C 325.12 69.69 325.15 92.36 325.12 115.04 C 325.49 117.80 322.69 118.91 320.89 120.23 C 320.32 96.50 320.82 72.75 320.63 49.02 C 320.89 46.27 317.78 45.35 315.97 44.05 C 309.28 40.52 303.11 35.97 296.00 33.30 Z" />
<path fill="#b71632" opacity="1.00" d=" M 300.01 39.68 C 304.85 42.61 309.78 45.41 314.59 48.38 C 317.15 49.56 316.25 52.75 316.46 54.99 C 316.04 74.19 316.83 93.41 316.04 112.59 C 311.05 110.25 306.12 107.65 301.72 104.30 C 299.38 102.66 300.01 99.48 299.82 97.03 C 300.00 77.91 299.65 58.80 300.01 39.68 M 303.89 48.70 C 301.91 52.54 306.98 54.72 308.06 58.02 C 306.07 58.13 304.44 56.87 302.65 56.24 C 304.12 57.70 306.72 61.08 308.72 58.76 C 309.52 55.41 305.44 53.45 304.12 50.70 C 305.90 50.14 307.40 51.47 309.01 51.99 C 307.70 50.33 306.01 49.06 303.89 48.70 M 302.86 72.05 L 304.01 72.62 C 304.43 71.99 305.28 70.74 305.71 70.11 C 308.46 71.40 308.55 74.77 310.80 76.42 C 309.49 72.36 308.91 67.99 306.71 64.28 C 304.69 66.42 304.11 69.46 302.86 72.05 M 303.62 87.06 C 305.39 88.27 307.22 89.42 309.23 90.17 C 308.27 88.54 306.58 87.66 304.99 86.77 C 304.88 83.75 304.95 80.72 304.75 77.71 C 302.38 80.01 304.18 84.05 303.62 87.06 M 303.69 92.60 C 303.66 95.72 303.66 98.84 303.67 101.96 C 305.47 103.08 307.27 104.23 309.21 105.12 C 308.63 103.22 306.60 102.62 305.10 101.67 C 305.01 100.88 304.83 99.29 304.74 98.50 C 306.11 99.12 307.48 99.86 309.03 99.94 C 307.20 98.35 304.06 97.48 304.77 94.43 C 306.07 95.15 307.36 95.91 308.65 96.67 C 308.65 96.35 308.67 95.71 308.67 95.39 C 307.01 94.46 305.35 93.52 303.69 92.60 Z" />
</g>
<g id="#de2636ff">
<path fill="#de2636" opacity="1.00" d=" M 293.56 37.05 C 293.21 35.23 294.78 34.24 296.00 33.30 C 303.11 35.97 309.28 40.52 315.97 44.05 C 317.78 45.35 320.89 46.27 320.63 49.02 C 320.82 72.75 320.32 96.50 320.89 120.23 C 317.70 123.04 314.36 120.35 311.50 118.57 C 309.20 117.24 306.85 116.01 304.54 114.71 C 300.74 111.78 293.79 110.70 293.56 104.94 C 293.52 82.31 293.52 59.67 293.56 37.05 M 296.98 42.98 C 297.05 58.65 296.92 74.34 297.01 90.02 C 297.07 94.87 296.47 99.80 297.42 104.59 C 301.93 108.60 307.62 111.11 312.72 114.31 C 313.89 115.52 317.10 114.25 316.04 112.59 C 316.83 93.41 316.04 74.19 316.46 54.99 C 316.25 52.75 317.15 49.56 314.59 48.38 C 309.78 45.41 304.85 42.61 300.01 39.68 C 298.05 39.53 296.75 41.09 296.98 42.98 Z" />
</g>
<g id="#a31133ff">
<path fill="#a31133" opacity="1.00" d=" M 296.98 42.98 C 296.75 41.09 298.05 39.53 300.01 39.68 C 299.65 58.80 300.00 77.91 299.82 97.03 C 300.01 99.48 299.38 102.66 301.72 104.30 C 306.12 107.65 311.05 110.25 316.04 112.59 C 317.10 114.25 313.89 115.52 312.72 114.31 C 307.62 111.11 301.93 108.60 297.42 104.59 C 296.47 99.80 297.07 94.87 297.01 90.02 C 296.92 74.34 297.05 58.65 296.98 42.98 Z" />
<path fill="#a31133" opacity="1.00" d=" M 307.49 70.14 C 305.96 70.93 305.09 67.44 306.74 67.27 C 307.67 68.03 307.92 68.99 307.49 70.14 Z" />
</g>
<g id="#69c8d6ff">
<path fill="#69c8d6" opacity="1.00" d=" M 145.72 79.25 C 165.80 67.85 185.65 56.05 205.75 44.68 C 188.85 68.76 171.68 92.66 154.74 116.72 C 152.04 120.37 149.16 123.96 147.44 128.21 C 146.86 128.55 146.29 128.88 145.72 129.22 C 145.57 127.14 145.42 125.06 145.23 122.99 C 150.61 112.87 156.22 102.87 161.90 92.91 C 159.05 91.33 156.18 89.77 153.37 88.13 C 150.96 86.67 148.44 85.38 145.76 84.49 C 145.77 82.74 145.73 80.99 145.72 79.25 Z" />
</g>
<g id="#4abac4ff">
<path fill="#4abac4" opacity="1.00" d=" M 205.75 44.68 L 205.78 45.11 C 206.05 61.39 205.67 77.68 205.96 93.96 C 186.51 105.46 167.12 117.10 147.44 128.21 C 149.16 123.96 152.04 120.37 154.74 116.72 C 171.68 92.66 188.85 68.76 205.75 44.68 Z" />
</g>
<g id="#ffffffff">
<path fill="#ffffff" opacity="1.00" d=" M 303.89 48.70 C 306.01 49.06 307.70 50.33 309.01 51.99 C 307.40 51.47 305.90 50.14 304.12 50.70 C 305.44 53.45 309.52 55.41 308.72 58.76 C 306.72 61.08 304.12 57.70 302.65 56.24 C 304.44 56.87 306.07 58.13 308.06 58.02 C 306.98 54.72 301.91 52.54 303.89 48.70 Z" />
<path fill="#ffffff" opacity="1.00" d=" M 302.86 72.05 C 304.11 69.46 304.69 66.42 306.71 64.28 C 308.91 67.99 309.49 72.36 310.80 76.42 C 308.55 74.77 308.46 71.40 305.71 70.11 C 305.28 70.74 304.43 71.99 304.01 72.62 L 302.86 72.05 M 307.49 70.14 C 307.92 68.99 307.67 68.03 306.74 67.27 C 305.09 67.44 305.96 70.93 307.49 70.14 Z" />
<path fill="#ffffff" opacity="1.00" d=" M 303.62 87.06 C 304.18 84.05 302.38 80.01 304.75 77.71 C 304.95 80.72 304.88 83.75 304.99 86.77 C 306.58 87.66 308.27 88.54 309.23 90.17 C 307.22 89.42 305.39 88.27 303.62 87.06 Z" />
<path fill="#ffffff" opacity="1.00" d=" M 303.69 92.60 C 305.35 93.52 307.01 94.46 308.67 95.39 C 308.67 95.71 308.65 96.35 308.65 96.67 C 307.36 95.91 306.07 95.15 304.77 94.43 C 304.06 97.48 307.20 98.35 309.03 99.94 C 307.48 99.86 306.11 99.12 304.74 98.50 C 304.83 99.29 305.01 100.88 305.10 101.67 C 306.60 102.62 308.63 103.22 309.21 105.12 C 307.27 104.23 305.47 103.08 303.67 101.96 C 303.66 98.84 303.66 95.72 303.69 92.60 Z" />
<path fill="#ffffff" opacity="1.00" d=" M 240.87 130.98 C 244.34 128.72 248.13 127.01 251.73 124.97 C 251.73 127.16 251.73 129.36 251.72 131.56 C 249.35 132.84 246.83 133.89 244.68 135.52 C 244.46 138.25 244.62 140.99 244.58 143.73 C 246.44 142.68 248.30 141.63 250.18 140.61 C 250.17 142.70 250.16 144.79 250.15 146.88 C 248.33 147.84 246.44 148.71 244.75 149.91 C 244.30 152.73 244.62 155.61 244.67 158.46 C 246.97 157.14 249.27 155.82 251.57 154.51 C 251.57 156.71 252.08 159.06 251.30 161.18 C 247.83 163.31 244.12 165.00 240.57 166.99 C 240.75 154.99 240.34 142.95 240.87 130.98 Z" />
<path fill="#ffffff" opacity="1.00" d=" M 228.09 137.78 C 229.45 136.94 230.83 136.14 232.21 135.34 C 232.17 145.12 232.31 154.91 232.07 164.69 C 234.27 163.64 236.43 162.48 238.55 161.26 C 238.44 163.52 238.93 165.91 238.23 168.09 C 235.92 169.68 233.35 170.84 230.90 172.22 C 230.22 172.57 228.86 173.27 228.17 173.62 C 228.14 161.68 228.45 149.72 228.09 137.78 Z" />
<path fill="#ffffff" opacity="1.00" d=" M 215.80 145.52 C 215.99 143.32 218.64 142.90 220.13 141.75 C 221.51 148.27 222.74 154.82 224.19 161.32 C 225.08 165.70 225.85 170.10 226.94 174.43 C 225.60 175.05 224.27 175.69 222.88 176.18 C 221.94 173.95 221.76 171.50 221.37 169.14 C 219.18 170.36 216.84 171.37 214.86 172.94 C 214.17 175.43 214.20 178.07 213.47 180.56 C 212.72 182.27 210.64 182.80 209.30 183.88 C 209.83 180.56 210.52 177.27 210.98 173.94 C 211.26 172.01 211.54 170.07 211.88 168.14 C 213.29 160.62 214.56 153.07 215.80 145.52 M 217.85 151.88 C 217.17 156.77 216.74 161.70 215.64 166.51 C 217.21 165.62 218.78 164.74 220.37 163.88 C 219.27 159.94 219.72 155.56 217.85 151.88 Z" />
<path fill="#ffffff" opacity="1.00" d=" M 198.73 158.12 C 199.64 154.67 201.51 150.96 205.03 149.61 C 206.61 149.06 207.97 150.21 209.30 150.84 C 208.80 153.10 208.24 155.35 207.34 157.48 C 204.10 154.63 200.96 158.94 201.73 162.12 C 202.01 164.86 205.58 164.09 207.45 165.02 C 209.66 167.86 209.75 171.55 209.24 174.96 C 208.54 179.26 207.53 184.08 203.89 186.89 C 202.04 188.50 199.12 188.16 197.55 186.33 C 197.08 184.02 198.47 181.76 198.95 179.53 C 200.07 180.09 201.18 180.66 202.30 181.24 C 205.27 179.82 206.73 175.73 204.93 172.91 C 203.11 171.93 200.48 172.59 199.22 170.68 C 197.19 166.82 197.67 162.19 198.73 158.12 Z" />
<path fill="#ffffff" opacity="1.00" d=" M 397.04 230.12 C 401.66 227.26 406.34 224.45 411.20 222.02 C 413.83 222.69 416.03 224.43 418.39 225.72 C 412.63 229.02 406.93 232.43 401.27 235.90 C 399.76 235.10 398.23 234.34 396.69 233.62 C 396.10 232.51 395.62 230.85 397.04 230.12 Z" />
<path fill="#ffffff" opacity="1.00" d=" M 249.11 244.40 C 252.84 242.79 250.31 249.58 248.49 246.07 C 248.64 245.65 248.96 244.81 249.11 244.40 Z" />
<path fill="#ffffff" opacity="1.00" d=" M 207.48 280.22 C 207.90 280.21 208.74 280.20 209.16 280.19 C 208.52 280.77 207.88 281.34 207.22 281.90 C 205.44 283.03 203.42 283.69 201.38 284.19 C 201.85 283.86 202.77 283.20 203.24 282.88 C 204.61 281.93 206.02 281.03 207.48 280.22 Z" />
<path fill="#ffffff" opacity="1.00" d=" M 194.48 287.70 C 196.69 286.46 198.93 285.26 201.25 284.25 C 201.26 284.48 201.28 284.95 201.29 285.18 C 198.52 286.87 195.64 288.37 192.93 290.16 C 192.40 290.47 191.36 291.10 190.84 291.42 C 189.52 292.03 188.21 292.72 186.78 293.03 C 188.22 291.47 190.09 290.39 191.85 289.22 C 192.71 288.69 193.59 288.18 194.48 287.70 Z" />
<path fill="#ffffff" opacity="1.00" d=" M 183.09 294.24 C 184.20 293.79 185.33 293.41 186.50 293.11 C 184.83 295.02 182.50 296.17 180.36 297.44 C 180.02 297.34 179.36 297.12 179.03 297.01 C 180.37 296.08 181.71 295.13 183.09 294.24 Z" />
<path fill="#ffffff" opacity="1.00" d=" M 184.07 304.35 C 188.44 301.92 192.71 299.31 197.05 296.83 C 198.15 297.53 199.25 298.23 200.36 298.95 C 195.08 302.13 189.53 304.85 184.40 308.27 C 183.17 307.62 181.94 306.95 180.72 306.28 C 181.83 305.63 182.95 304.98 184.07 304.35 Z" />
</g>
<g id="#424247ff">
<path fill="#424247" opacity="1.00" d=" M 132.54 70.69 C 134.47 71.59 136.42 72.48 138.37 73.37 C 138.28 82.00 138.36 90.63 138.38 99.25 C 136.70 102.58 134.71 105.74 132.86 108.97 C 132.20 96.22 132.82 83.44 132.54 70.69 Z" />
</g>
<g id="#efa635ff">
<path fill="#efa635" opacity="1.00" d=" M 267.44 82.32 C 270.10 83.91 272.82 85.41 275.48 87.01 C 241.52 106.81 207.22 126.07 173.27 145.88 C 170.76 144.22 168.28 142.52 165.82 140.80 C 167.32 139.81 168.88 138.92 170.44 138.03 C 171.34 137.52 172.25 137.01 173.16 136.50 C 175.59 135.12 178.00 133.72 180.43 132.33 C 181.56 131.69 182.70 131.05 183.84 130.40 C 186.07 129.11 188.29 127.80 190.53 126.52 C 191.67 125.86 192.82 125.22 193.97 124.56 C 196.22 123.27 198.45 121.97 200.70 120.68 C 201.54 120.20 202.39 119.72 203.25 119.24 C 205.70 117.84 208.15 116.42 210.60 115.01 C 211.47 114.51 212.35 114.01 213.23 113.52 C 215.66 112.14 218.08 110.74 220.50 109.33 C 221.58 108.71 222.67 108.09 223.76 107.47 C 238.31 99.07 252.97 90.86 267.44 82.32 Z" />
</g>
<g id="#a24827ff">
<path fill="#a24827" opacity="1.00" d=" M 145.76 84.49 C 148.44 85.38 150.96 86.67 153.37 88.13 C 134.88 121.92 116.06 155.53 97.34 189.19 C 95.03 187.95 92.75 186.67 90.51 185.32 C 104.76 159.94 118.97 134.54 132.86 108.97 C 134.71 105.74 136.70 102.58 138.38 99.25 C 140.77 94.31 144.55 89.94 145.76 84.49 Z" />
</g>
<g id="#e2881cff">
<path fill="#e2881c" opacity="1.00" d=" M 275.48 87.01 L 275.62 86.92 C 275.61 114.81 275.60 142.70 275.63 170.59 C 270.76 173.48 265.75 176.11 260.96 179.14 L 260.51 178.83 C 260.17 178.59 259.47 178.11 259.13 177.88 C 258.46 178.74 257.79 179.59 257.11 180.45 C 256.15 180.03 255.19 179.61 254.24 179.18 C 253.49 178.83 252.75 178.48 252.01 178.13 C 252.53 175.92 253.19 173.51 251.08 171.88 C 249.30 175.00 248.46 178.55 248.16 182.12 C 246.85 183.00 245.60 183.96 244.36 184.92 C 245.66 185.71 246.96 186.49 248.26 187.28 C 248.29 189.46 248.46 191.65 248.89 193.79 C 248.41 193.53 247.45 192.99 246.96 192.72 C 246.70 192.58 246.19 192.30 245.93 192.16 C 245.70 190.69 245.47 189.24 245.24 187.78 C 244.08 188.43 242.92 189.08 241.77 189.74 C 241.36 189.49 240.55 188.99 240.14 188.74 C 233.95 192.41 227.74 196.05 221.43 199.50 C 221.41 200.07 221.39 200.65 221.37 201.22 C 219.50 202.35 217.63 203.48 215.81 204.70 C 201.79 213.19 187.43 221.10 173.23 229.28 C 159.83 221.00 146.21 213.06 132.75 204.87 C 146.08 185.09 159.67 165.48 173.27 145.88 C 207.22 126.07 241.52 106.81 275.48 87.01 M 183.46 151.74 C 183.19 171.42 183.48 191.11 183.32 210.80 C 210.42 195.04 237.55 179.34 264.68 163.64 C 264.93 144.00 264.61 124.36 264.82 104.73 C 237.60 120.22 210.56 136.04 183.46 151.74 M 153.02 192.86 L 152.91 193.50 C 149.71 194.55 148.84 198.60 149.54 201.54 L 149.30 201.84 C 150.42 205.06 154.39 208.32 157.60 205.64 C 163.17 202.02 160.13 191.44 153.02 192.86 Z" />
<path fill="#e2881c" opacity="1.00" d=" M 187.77 154.15 C 212.06 140.11 236.31 126.01 260.62 112.02 C 260.55 127.97 260.65 143.93 260.58 159.88 C 260.75 161.24 259.16 161.69 258.33 162.38 C 234.78 175.93 211.35 189.69 187.75 203.15 C 187.57 186.82 187.52 170.48 187.77 154.15 M 240.87 130.98 C 240.34 142.95 240.75 154.99 240.57 166.99 C 244.12 165.00 247.83 163.31 251.30 161.18 C 252.08 159.06 251.57 156.71 251.57 154.51 C 249.27 155.82 246.97 157.14 244.67 158.46 C 244.62 155.61 244.30 152.73 244.75 149.91 C 246.44 148.71 248.33 147.84 250.15 146.88 C 250.16 144.79 250.17 142.70 250.18 140.61 C 248.30 141.63 246.44 142.68 244.58 143.73 C 244.62 140.99 244.46 138.25 244.68 135.52 C 246.83 133.89 249.35 132.84 251.72 131.56 C 251.73 129.36 251.73 127.16 251.73 124.97 C 248.13 127.01 244.34 128.72 240.87 130.98 M 228.09 137.78 L 227.19 136.70 C 226.30 145.75 227.10 154.86 226.71 163.93 C 226.27 162.50 225.83 161.08 225.35 159.68 C 225.06 160.09 224.48 160.91 224.19 161.32 C 222.74 154.82 221.51 148.27 220.13 141.75 C 218.64 142.90 215.99 143.32 215.80 145.52 C 214.56 153.07 213.29 160.62 211.88 168.14 C 210.42 167.07 208.95 166.03 207.45 165.02 C 205.58 164.09 202.01 164.86 201.73 162.12 C 200.96 158.94 204.10 154.63 207.34 157.48 C 208.24 155.35 208.80 153.10 209.30 150.84 C 207.97 150.21 206.61 149.06 205.03 149.61 C 201.51 150.96 199.64 154.67 198.73 158.12 C 197.67 162.19 197.19 166.82 199.22 170.68 C 200.48 172.59 203.11 171.93 204.93 172.91 C 206.73 175.73 205.27 179.82 202.30 181.24 C 201.18 180.66 200.07 180.09 198.95 179.53 C 198.47 181.76 197.08 184.02 197.55 186.33 C 199.12 188.16 202.04 188.50 203.89 186.89 C 207.53 184.08 208.54 179.26 209.24 174.96 C 209.68 174.71 210.55 174.20 210.98 173.94 C 210.52 177.27 209.83 180.56 209.30 183.88 C 210.64 182.80 212.72 182.27 213.47 180.56 C 214.20 178.07 214.17 175.43 214.86 172.94 C 216.84 171.37 219.18 170.36 221.37 169.14 C 221.76 171.50 221.94 173.95 222.88 176.18 C 224.27 175.69 225.60 175.05 226.94 174.43 C 228.24 176.65 231.23 174.17 230.90 172.22 C 233.35 170.84 235.92 169.68 238.23 168.09 C 238.93 165.91 238.44 163.52 238.55 161.26 C 236.43 162.48 234.27 163.64 232.07 164.69 C 232.31 154.91 232.17 145.12 232.21 135.34 C 230.83 136.14 229.45 136.94 228.09 137.78 Z" />
</g>
<g id="#e55e3dff">
<path fill="#e55e3d" opacity="1.00" d=" M 153.37 88.13 C 156.18 89.77 159.05 91.33 161.90 92.91 C 156.22 102.87 150.61 112.87 145.23 122.99 C 142.80 127.09 140.45 131.22 138.22 135.43 C 136.97 137.68 135.67 139.91 134.42 142.16 C 124.81 159.42 115.38 176.78 105.57 193.93 C 102.86 192.28 100.09 190.75 97.34 189.19 C 116.06 155.53 134.88 121.92 153.37 88.13 Z" />
<path fill="#e55e3d" opacity="1.00" d=" M 96.17 99.15 C 98.66 94.74 103.35 92.37 108.14 91.32 C 112.94 92.76 117.54 95.50 119.84 100.14 C 124.10 107.95 124.32 117.74 120.89 125.89 C 118.78 130.81 114.62 135.42 109.05 136.09 C 105.49 136.62 102.27 134.77 99.10 133.46 C 96.47 129.36 93.56 125.21 92.76 120.29 C 91.55 113.15 92.16 105.36 96.17 99.15 M 104.74 101.98 L 104.84 102.21 C 100.52 108.11 100.37 116.01 102.73 122.72 L 102.58 122.84 C 104.31 124.54 106.03 128.14 108.94 126.87 C 112.82 124.35 113.97 119.33 114.27 115.00 C 114.41 110.24 113.36 104.81 109.55 101.61 C 108.06 100.28 106.30 101.58 104.74 101.98 Z" />
<path fill="#e55e3d" opacity="1.00" d=" M 142.19 150.30 C 144.71 146.43 149.20 144.88 153.39 143.57 C 155.22 144.38 157.09 145.11 158.89 145.99 C 159.44 146.30 160.55 146.92 161.10 147.23 C 159.54 149.55 157.95 151.85 156.35 154.14 C 152.89 152.39 149.17 154.17 147.94 157.75 C 146.87 161.26 146.19 164.92 146.43 168.61 C 144.29 171.73 142.11 174.83 139.94 177.93 C 136.00 169.21 136.73 158.22 142.19 150.30 Z" />
</g>
<g id="#a74929ff">
<path fill="#a74929" opacity="1.00" d=" M 87.16 99.08 C 89.14 94.54 92.79 90.29 97.83 89.24 C 101.42 88.09 104.88 90.05 108.14 91.32 C 103.35 92.37 98.66 94.74 96.17 99.15 C 92.16 105.36 91.55 113.15 92.76 120.29 C 93.56 125.21 96.47 129.36 99.10 133.46 C 91.74 131.77 86.93 125.02 85.47 117.93 C 83.36 111.69 84.72 104.99 87.16 99.08 Z" />
<path fill="#a74929" opacity="1.00" d=" M 104.74 101.98 C 106.30 101.58 108.06 100.28 109.55 101.61 C 113.36 104.81 114.41 110.24 114.27 115.00 C 113.97 119.33 112.82 124.35 108.94 126.87 C 106.03 128.14 104.31 124.54 102.58 122.84 L 102.73 122.72 C 102.98 122.51 103.48 122.09 103.73 121.88 C 107.44 116.10 107.77 108.39 104.84 102.21 L 104.74 101.98 Z" />
<path fill="#a74929" opacity="1.00" d=" M 138.64 143.33 C 140.25 142.52 141.91 141.78 143.55 141.04 C 145.87 141.25 148.20 141.55 150.43 142.27 C 151.41 142.70 152.40 143.13 153.39 143.57 C 149.20 144.88 144.71 146.43 142.19 150.30 C 136.73 158.22 136.00 169.21 139.94 177.93 C 138.99 179.31 138.06 180.70 137.13 182.09 C 127.23 171.98 127.35 153.17 138.16 143.77 C 138.28 143.66 138.52 143.44 138.64 143.33 Z" />
</g>
<g id="#f2b557ff">
<path fill="#f2b557" opacity="1.00" d=" M 183.46 151.74 C 210.56 136.04 237.60 120.22 264.82 104.73 C 264.61 124.36 264.93 144.00 264.68 163.64 C 237.55 179.34 210.42 195.04 183.32 210.80 C 183.48 191.11 183.19 171.42 183.46 151.74 M 187.77 154.15 C 187.52 170.48 187.57 186.82 187.75 203.15 C 211.35 189.69 234.78 175.93 258.33 162.38 C 259.16 161.69 260.75 161.24 260.58 159.88 C 260.65 143.93 260.55 127.97 260.62 112.02 C 236.31 126.01 212.06 140.11 187.77 154.15 Z" />
</g>
<g id="#b61632ff">
<path fill="#b61632" opacity="1.00" d=" M 304.54 114.71 C 306.85 116.01 309.20 117.24 311.50 118.57 C 311.46 119.18 311.37 120.39 311.33 121.00 C 309.02 121.00 306.72 121.00 304.42 121.00 C 304.43 118.90 304.46 116.80 304.54 114.71 Z" />
</g>
<g id="#da2536ff">
<path fill="#da2536" opacity="1.00" d=" M 304.42 121.00 C 306.72 121.00 309.02 121.00 311.33 121.00 C 311.31 128.34 311.52 135.70 311.26 143.04 C 310.94 146.84 304.88 146.76 304.55 142.94 C 304.24 135.64 304.56 128.31 304.42 121.00 Z" />
</g>
<g id="#3d3e43ef">
<path fill="#3d3e43" opacity="0.94" d=" M 138.22 135.43 C 138.40 138.06 138.61 140.69 138.64 143.33 C 138.52 143.44 138.28 143.66 138.16 143.77 C 136.91 143.22 135.67 142.69 134.42 142.16 C 135.67 139.91 136.97 137.68 138.22 135.43 Z" />
</g>
<g id="#e07f0eff">
<path fill="#e07f0e" opacity="1.00" d=" M 227.19 136.70 L 228.09 137.78 C 228.45 149.72 228.14 161.68 228.17 173.62 C 228.86 173.27 230.22 172.57 230.90 172.22 C 231.23 174.17 228.24 176.65 226.94 174.43 C 225.85 170.10 225.08 165.70 224.19 161.32 C 224.48 160.91 225.06 160.09 225.35 159.68 C 225.83 161.08 226.27 162.50 226.71 163.93 C 227.10 154.86 226.30 145.75 227.19 136.70 Z" />
</g>
<g id="#575a66ff">
<path fill="#575a66" opacity="1.00" d=" M 150.43 142.27 C 151.89 141.54 153.30 140.65 154.89 140.23 C 157.27 141.04 159.31 142.56 161.42 143.88 C 160.57 144.58 159.73 145.28 158.89 145.99 C 157.09 145.11 155.22 144.38 153.39 143.57 C 152.40 143.13 151.41 142.70 150.43 142.27 Z" />
</g>
<g id="#f7ce20ff">
<path fill="#f7ce20" opacity="1.00" d=" M 164.03 142.96 C 164.60 142.21 165.20 141.50 165.82 140.80 C 168.28 142.52 170.76 144.22 173.27 145.88 C 159.67 165.48 146.08 185.09 132.75 204.87 C 130.07 203.27 127.39 201.66 124.68 200.10 C 128.89 194.14 132.99 188.10 137.13 182.09 C 138.06 180.70 138.99 179.31 139.94 177.93 C 142.11 174.83 144.29 171.73 146.43 168.61 C 148.41 165.81 150.25 162.93 152.19 160.11 C 153.57 158.12 154.97 156.14 156.35 154.14 C 157.95 151.85 159.54 149.55 161.10 147.23 C 162.07 145.79 163.02 144.35 164.03 142.96 Z" />
<path fill="#f7ce20" opacity="1.00" d=" M 153.02 192.86 C 160.13 191.44 163.17 202.02 157.60 205.64 C 154.39 208.32 150.42 205.06 149.30 201.84 L 149.54 201.54 C 151.65 199.36 152.68 196.49 152.91 193.50 L 153.02 192.86 Z" />
</g>
<g id="#ec6d05ff">
<path fill="#ec6d05" opacity="1.00" d=" M 217.85 151.88 C 219.72 155.56 219.27 159.94 220.37 163.88 C 218.78 164.74 217.21 165.62 215.64 166.51 C 216.74 161.70 217.17 156.77 217.85 151.88 Z" />
<path fill="#ec6d05" opacity="1.00" d=" M 328.14 257.24 C 335.50 252.86 342.89 248.52 350.40 244.40 C 350.41 245.80 350.43 247.21 350.44 248.62 C 350.44 249.50 350.42 251.25 350.41 252.13 C 349.76 252.60 349.10 253.07 348.44 253.53 C 339.49 258.66 330.57 263.84 321.66 269.04 C 320.80 269.52 319.94 270.00 319.09 270.48 C 319.00 267.84 318.92 265.20 318.85 262.56 C 319.76 261.77 320.64 260.94 321.47 260.06 C 323.77 259.32 326.05 258.47 328.14 257.24 Z" />
<path fill="#ec6d05" opacity="1.00" d=" M 294.48 276.34 C 301.26 272.94 307.66 268.87 314.20 265.03 C 314.28 267.78 314.34 270.52 314.36 273.27 C 308.31 276.87 302.21 280.38 296.14 283.92 C 295.80 284.10 295.13 284.46 294.80 284.64 C 294.75 281.87 294.69 279.10 294.48 276.34 Z" />
<path fill="#ec6d05" opacity="1.00" d=" M 277.09 286.57 C 281.09 284.26 285.09 281.94 289.14 279.70 C 289.22 282.36 289.35 285.01 289.41 287.68 L 289.40 288.03 C 285.24 289.90 281.54 292.61 277.59 294.85 L 276.93 294.65 C 276.99 291.95 277.04 289.26 277.09 286.57 Z" />
</g>
<g id="#a84929ff">
<path fill="#a84929" opacity="1.00" d=" M 147.94 157.75 C 149.17 154.17 152.89 152.39 156.35 154.14 C 154.97 156.14 153.57 158.12 152.19 160.11 C 150.77 159.33 149.36 158.54 147.94 157.75 Z" />
</g>
<g id="#ffd454ff">
<path fill="#ffd454" opacity="1.00" d=" M 296.01 156.96 C 306.20 151.99 318.15 151.76 329.11 153.86 C 335.43 155.38 342.57 157.83 345.68 164.05 C 345.87 167.42 344.91 170.97 341.95 172.92 C 334.29 178.56 324.30 179.67 315.05 179.40 C 305.43 178.99 294.87 176.51 288.67 168.52 C 287.86 163.34 291.56 158.99 296.01 156.96 M 293.65 162.55 C 291.56 165.18 292.69 168.86 295.01 170.92 C 298.92 174.51 304.26 176.36 309.48 176.88 C 314.69 177.95 320.03 177.65 325.29 177.20 C 331.26 175.95 338.33 174.36 341.53 168.59 C 343.49 164.76 340.10 161.00 337.00 159.13 C 328.96 154.44 319.18 153.81 310.11 154.85 C 304.14 155.82 297.45 157.43 293.65 162.55 Z" />
<path fill="#ffd454" opacity="1.00" d=" M 288.71 178.85 C 293.10 185.55 301.02 188.79 308.52 190.57 C 317.31 191.67 326.76 191.88 334.91 187.86 C 338.98 186.14 342.41 183.33 345.78 180.53 C 344.77 183.07 343.26 185.47 340.84 186.89 C 332.92 191.96 323.11 193.12 313.89 192.62 C 304.63 192.03 294.67 189.33 288.72 181.69 C 288.72 180.98 288.71 179.56 288.71 178.85 Z" />
</g>
<g id="#a0680fff">
<path fill="#a0680f" opacity="1.00" d=" M 293.65 162.55 C 297.45 157.43 304.14 155.82 310.11 154.85 C 319.18 153.81 328.96 154.44 337.00 159.13 C 340.10 161.00 343.49 164.76 341.53 168.59 C 338.33 174.36 331.26 175.95 325.29 177.20 C 324.29 176.20 323.28 175.20 322.29 174.21 C 326.04 174.14 331.13 172.54 331.75 168.33 C 328.14 163.73 321.35 164.94 316.18 164.74 C 313.92 163.16 311.77 161.43 309.74 159.56 C 313.44 159.00 317.10 159.70 320.61 160.84 C 319.42 159.84 318.31 158.70 316.92 157.99 C 314.21 157.74 311.52 158.38 308.87 158.83 C 308.37 158.68 307.38 158.38 306.88 158.23 C 305.33 159.79 303.73 161.32 302.42 163.10 C 304.60 167.27 310.07 166.73 314.05 167.04 C 318.47 166.65 321.51 170.36 324.46 173.05 C 320.52 173.57 316.61 172.87 312.96 171.41 C 314.36 172.63 315.76 173.85 317.17 175.08 C 314.59 175.62 312.05 176.33 309.48 176.88 C 304.26 176.36 298.92 174.51 295.01 170.92 C 292.69 168.86 291.56 165.18 293.65 162.55 Z" />
</g>
<g id="#ffd755ff">
<path fill="#ffd755" opacity="1.00" d=" M 302.42 163.10 C 303.73 161.32 305.33 159.79 306.88 158.23 C 307.38 158.38 308.37 158.68 308.87 158.83 C 311.52 158.38 314.21 157.74 316.92 157.99 C 318.31 158.70 319.42 159.84 320.61 160.84 C 317.10 159.70 313.44 159.00 309.74 159.56 C 311.77 161.43 313.92 163.16 316.18 164.74 C 321.35 164.94 328.14 163.73 331.75 168.33 C 331.13 172.54 326.04 174.14 322.29 174.21 C 320.57 174.45 318.86 174.74 317.17 175.08 C 315.76 173.85 314.36 172.63 312.96 171.41 C 316.61 172.87 320.52 173.57 324.46 173.05 C 321.51 170.36 318.47 166.65 314.05 167.04 C 310.07 166.73 304.60 167.27 302.42 163.10 M 305.74 162.90 C 308.07 164.20 310.70 164.66 313.34 164.79 C 311.53 163.11 309.56 161.61 307.55 160.16 C 306.94 161.07 306.33 161.98 305.74 162.90 M 319.63 166.88 C 321.80 168.93 324.22 170.71 326.73 172.33 C 327.35 171.19 329.51 169.64 327.69 168.47 C 325.39 166.73 322.31 167.17 319.63 166.88 Z" />
</g>
<g id="#763703ff">
<path fill="#763703" opacity="1.00" d=" M 305.74 162.90 C 306.33 161.98 306.94 161.07 307.55 160.16 C 309.56 161.61 311.53 163.11 313.34 164.79 C 310.70 164.66 308.07 164.20 305.74 162.90 Z" />
<path fill="#763703" opacity="1.00" d=" M 250.41 234.37 C 250.71 234.59 250.71 234.59 250.41 234.37 Z" />
<path fill="#763703" opacity="1.00" d=" M 242.12 274.88 C 253.88 281.19 265.10 288.48 276.93 294.65 L 277.59 294.85 C 277.72 305.41 277.47 315.97 277.78 326.53 C 266.08 319.89 254.42 313.18 242.83 306.36 C 241.96 305.54 242.27 304.07 242.13 303.00 C 242.15 294.93 242.13 286.86 242.12 278.79 C 242.20 277.48 242.20 276.18 242.12 274.88 M 246.19 301.71 C 242.95 304.01 246.90 306.99 249.22 307.67 C 250.45 306.60 252.48 305.38 251.35 303.48 C 250.33 302.06 247.71 299.89 246.19 301.71 M 262.48 306.39 C 262.18 308.61 262.21 310.86 262.15 313.09 C 265.98 315.27 269.60 317.91 273.76 319.45 C 273.79 317.31 273.80 315.17 273.85 313.04 C 270.09 310.78 266.55 308.07 262.48 306.39 Z" />
</g>
<g id="#cc9a1dff">
<path fill="#cc9a1d" opacity="1.00" d=" M 345.68 164.05 C 345.95 173.32 345.95 182.62 345.72 191.90 C 342.77 199.46 333.83 201.74 326.62 202.97 C 321.00 201.40 314.92 201.37 309.32 203.01 C 301.67 201.95 292.55 199.55 288.92 191.97 C 288.85 191.13 288.71 189.45 288.65 188.60 C 295.29 197.20 306.80 199.46 317.07 199.60 C 325.91 199.59 335.46 198.24 342.56 192.55 C 343.87 191.21 346.08 189.11 345.23 187.20 C 340.36 191.72 334.72 195.75 328.07 197.04 C 314.29 199.93 297.80 197.45 288.74 185.67 C 288.73 184.34 288.72 183.01 288.72 181.69 C 294.67 189.33 304.63 192.03 313.89 192.62 C 323.11 193.12 332.92 191.96 340.84 186.89 C 343.26 185.47 344.77 183.07 345.78 180.53 C 342.41 183.33 338.98 186.14 334.91 187.86 C 326.76 191.88 317.31 191.67 308.52 190.57 C 301.02 188.79 293.10 185.55 288.71 178.85 C 288.72 178.01 288.72 176.33 288.72 175.49 C 295.81 183.95 307.48 186.18 317.98 186.24 C 326.43 186.04 335.48 184.68 342.33 179.35 C 344.25 178.03 345.01 175.79 345.72 173.69 C 339.13 180.16 330.21 184.27 320.92 184.47 C 309.23 185.35 296.32 182.05 288.72 172.58 C 288.71 171.23 288.70 169.87 288.67 168.52 C 294.87 176.51 305.43 178.99 315.05 179.40 C 324.30 179.67 334.29 178.56 341.95 172.92 C 344.91 170.97 345.87 167.42 345.68 164.05 Z" />
</g>
<g id="#d96300ff">
<path fill="#d96300" opacity="1.00" d=" M 207.45 165.02 C 208.95 166.03 210.42 167.07 211.88 168.14 C 211.54 170.07 211.26 172.01 210.98 173.94 C 210.55 174.20 209.68 174.71 209.24 174.96 C 209.75 171.55 209.66 167.86 207.45 165.02 Z" />
</g>
<g id="#9d650dff">
<path fill="#9d650d" opacity="1.00" d=" M 319.63 166.88 C 322.31 167.17 325.39 166.73 327.69 168.47 C 329.51 169.64 327.35 171.19 326.73 172.33 C 324.22 170.71 321.80 168.93 319.63 166.88 Z" />
</g>
<g id="#5a80c4ff">
<path fill="#5a80c4" opacity="1.00" d=" M 248.16 182.12 C 248.46 178.55 249.30 175.00 251.08 171.88 C 253.19 173.51 252.53 175.92 252.01 178.13 C 251.61 177.94 250.83 177.56 250.43 177.37 C 250.28 178.68 250.13 179.98 249.98 181.30 C 249.53 181.50 248.61 181.91 248.16 182.12 Z" />
<path fill="#5a80c4" opacity="1.00" d=" M 262.95 192.12 C 266.13 193.93 269.30 195.76 272.43 197.69 C 271.93 199.30 271.30 200.93 270.04 202.11 C 269.32 201.69 267.88 200.85 267.16 200.43 C 265.86 199.70 264.52 199.03 263.19 198.37 C 263.05 196.29 262.95 194.20 262.95 192.12 Z" />
<path fill="#5a80c4" opacity="1.00" d=" M 217.00 204.90 C 218.41 205.68 219.80 206.48 221.19 207.30 C 224.77 209.49 228.39 211.61 232.07 213.63 C 232.96 214.13 233.84 214.65 234.73 215.17 C 236.71 216.31 238.69 217.46 240.73 218.51 C 240.82 218.55 241.00 218.63 241.09 218.67 C 240.78 225.00 241.17 231.35 240.82 237.68 C 240.48 237.92 239.79 238.40 239.44 238.65 C 237.99 237.86 236.56 237.04 235.13 236.22 C 231.11 233.74 226.66 231.89 222.88 229.08 C 220.62 222.16 218.77 215.09 216.92 208.06 C 216.94 207.27 216.98 205.69 217.00 204.90 Z" />
</g>
<g id="#f8d354ff">
<path fill="#f8d354" opacity="1.00" d=" M 288.72 172.58 C 296.32 182.05 309.23 185.35 320.92 184.47 C 330.21 184.27 339.13 180.16 345.72 173.69 C 345.01 175.79 344.25 178.03 342.33 179.35 C 335.48 184.68 326.43 186.04 317.98 186.24 C 307.48 186.18 295.81 183.95 288.72 175.49 C 288.72 174.77 288.72 173.31 288.72 172.58 Z" />
</g>
<g id="#915704ff">
<path fill="#915704" opacity="1.00" d=" M 309.48 176.88 C 312.05 176.33 314.59 175.62 317.17 175.08 C 318.86 174.74 320.57 174.45 322.29 174.21 C 323.28 175.20 324.29 176.20 325.29 177.20 C 320.03 177.65 314.69 177.95 309.48 176.88 Z" />
</g>
<g id="#eadfd0ff">
<path fill="#eadfd0" opacity="1.00" d=" M 250.43 177.37 C 250.83 177.56 251.61 177.94 252.01 178.13 C 252.75 178.48 253.49 178.83 254.24 179.18 C 252.83 179.92 251.43 180.64 249.98 181.30 C 250.13 179.98 250.28 178.68 250.43 177.37 Z" />
<path fill="#eadfd0" opacity="1.00" d=" M 228.41 203.48 C 234.61 199.92 240.80 196.35 246.96 192.72 C 247.45 192.99 248.41 193.53 248.89 193.79 L 250.17 194.55 L 250.05 194.96 C 248.02 196.35 245.83 197.47 243.68 198.64 C 242.58 199.79 242.39 201.38 242.22 202.88 C 241.58 202.39 240.93 201.91 240.29 201.44 C 237.67 203.03 235.06 204.64 232.47 206.28 C 231.12 205.33 229.79 204.37 228.41 203.48 Z" />
</g>
<g id="#d85b36ff">
<path fill="#d85b36" opacity="1.00" d=" M 259.13 177.88 C 259.47 178.11 260.17 178.59 260.51 178.83 C 260.56 180.06 260.56 181.30 260.54 182.53 C 259.05 183.40 257.57 184.28 256.09 185.16 C 257.39 186.15 258.70 187.13 260.01 188.13 C 259.81 192.37 259.72 196.61 259.66 200.86 C 259.66 202.21 259.72 203.55 259.81 204.91 C 259.87 205.62 259.98 207.04 260.04 207.75 C 255.63 210.33 251.23 212.92 246.78 215.43 C 246.51 210.65 246.50 205.87 246.68 201.09 C 250.29 198.96 254.03 197.05 257.57 194.82 L 257.67 194.04 C 257.78 192.33 257.87 190.63 257.89 188.93 C 256.93 187.95 255.99 186.88 254.75 186.25 C 253.16 186.41 251.86 187.42 250.54 188.22 C 250.41 190.33 250.37 192.44 250.17 194.55 L 248.89 193.79 C 248.46 191.65 248.29 189.46 248.26 187.28 C 248.33 185.87 248.64 184.52 249.20 183.25 C 250.73 182.14 252.02 184.03 253.36 184.59 C 254.65 183.25 255.92 181.89 257.11 180.45 C 257.79 179.59 258.46 178.74 259.13 177.88 M 255.08 198.05 C 255.07 201.14 255.79 206.40 251.15 206.11 C 251.07 204.47 250.99 202.83 250.92 201.20 C 246.56 201.70 249.94 209.52 253.57 207.49 C 257.27 205.89 256.84 201.41 256.84 198.10 C 256.40 198.09 255.52 198.06 255.08 198.05 Z" />
</g>
<g id="#f3b958ff">
<path fill="#f3b958" opacity="1.00" d=" M 254.24 179.18 C 255.19 179.61 256.15 180.03 257.11 180.45 C 255.92 181.89 254.65 183.25 253.36 184.59 C 252.02 184.03 250.73 182.14 249.20 183.25 C 248.64 184.52 248.33 185.87 248.26 187.28 C 246.96 186.49 245.66 185.71 244.36 184.92 C 245.60 183.96 246.85 183.00 248.16 182.12 C 248.61 181.91 249.53 181.50 249.98 181.30 C 251.43 180.64 252.83 179.92 254.24 179.18 Z" />
</g>
<g id="#00a2a5ff">
<path fill="#00a2a5" opacity="1.00" d=" M 400.14 185.18 C 402.66 183.89 404.99 181.67 408.02 181.98 L 407.60 182.86 C 403.63 190.25 402.00 198.71 401.53 207.01 C 401.51 211.93 407.63 211.39 411.05 212.02 L 411.14 210.97 C 412.27 212.62 413.56 214.20 415.25 215.31 C 416.15 215.90 417.08 216.47 418.00 217.05 C 418.60 218.81 419.11 220.61 419.94 222.28 C 422.71 223.61 425.93 222.63 428.85 222.41 C 437.92 220.86 447.18 219.95 455.91 216.91 C 457.99 216.33 459.60 214.85 460.66 213.01 C 463.73 215.00 469.06 215.97 468.73 220.56 C 458.39 225.57 448.69 231.79 438.65 237.36 C 431.87 233.53 425.16 229.57 418.39 225.72 C 416.03 224.43 413.83 222.69 411.20 222.02 C 406.34 224.45 401.66 227.26 397.04 230.12 C 395.62 230.85 396.10 232.51 396.69 233.62 L 395.49 234.14 C 396.29 235.40 397.21 236.64 398.60 237.30 C 405.44 241.03 412.41 244.54 418.99 248.72 C 414.72 251.04 410.79 254.30 406.05 255.58 C 395.20 249.78 384.56 243.49 374.06 237.05 C 374.21 236.62 374.53 235.77 374.68 235.34 C 372.88 235.41 370.94 235.72 369.35 234.67 C 361.00 229.96 353.00 224.56 344.23 220.64 C 344.41 219.28 344.02 217.40 345.61 216.74 C 363.71 206.09 381.99 195.75 400.14 185.18 Z" />
</g>
<g id="#00d9dbff">
<path fill="#00d9db" opacity="1.00" d=" M 407.60 182.86 C 413.05 181.07 418.79 182.57 423.93 184.65 L 423.50 184.57 C 419.60 183.10 415.22 185.99 414.83 190.08 C 413.59 197.04 411.56 203.89 411.14 210.97 L 411.05 212.02 C 407.63 211.39 401.51 211.93 401.53 207.01 C 402.00 198.71 403.63 190.25 407.60 182.86 Z" />
<path fill="#00d9db" opacity="1.00" d=" M 451.90 201.00 C 455.52 204.39 459.46 207.99 460.66 213.01 C 459.60 214.85 457.99 216.33 455.91 216.91 C 447.18 219.95 437.92 220.86 428.85 222.41 C 425.93 222.63 422.71 223.61 419.94 222.28 C 419.11 220.61 418.60 218.81 418.00 217.05 C 417.08 216.47 416.15 215.90 415.25 215.31 C 419.17 215.79 423.04 214.67 426.91 214.20 C 433.94 213.09 441.03 212.35 448.02 211.06 C 452.44 210.08 453.81 204.70 451.90 201.00 Z" />
</g>
<g id="#f2b657ff">
<path fill="#f2b657" opacity="1.00" d=" M 256.09 185.16 C 257.57 184.28 259.05 183.40 260.54 182.53 C 261.63 183.20 262.73 183.86 263.83 184.52 C 262.58 185.74 261.30 186.94 260.01 188.13 C 258.70 187.13 257.39 186.15 256.09 185.16 Z" />
</g>
<g id="#f19b12ff">
<path fill="#f19b12" opacity="1.00" d=" M 263.83 184.52 C 264.03 184.66 264.45 184.93 264.65 185.07 L 264.57 185.32 C 264.07 186.76 263.58 188.21 263.04 189.64 C 263.02 190.26 262.97 191.50 262.95 192.12 C 262.95 194.20 263.05 196.29 263.19 198.37 C 262.02 199.21 260.83 200.03 259.66 200.86 C 259.72 196.61 259.81 192.37 260.01 188.13 C 261.30 186.94 262.58 185.74 263.83 184.52 Z" />
</g>
<g id="#001e1fff">
<path fill="#001e1f" opacity="1.00" d=" M 414.83 190.08 C 415.22 185.99 419.60 183.10 423.50 184.57 C 429.57 187.73 435.39 191.34 441.38 194.64 C 444.89 196.74 448.71 198.39 451.90 201.00 C 453.81 204.70 452.44 210.08 448.02 211.06 C 441.03 212.35 433.94 213.09 426.91 214.20 C 423.04 214.67 419.17 215.79 415.25 215.31 C 413.56 214.20 412.27 212.62 411.14 210.97 C 411.56 203.89 413.59 197.04 414.83 190.08 Z" />
<path fill="#001e1f" opacity="1.00" d=" M 138.04 234.51 C 138.38 234.08 139.06 233.21 139.40 232.78 C 140.35 233.02 141.30 233.29 142.24 233.60 C 143.91 234.56 145.56 235.56 147.21 236.56 C 146.49 237.25 145.77 237.94 145.05 238.64 C 142.72 237.26 140.38 235.88 138.04 234.51 Z" />
<path fill="#001e1f" opacity="1.00" d=" M 147.66 239.84 C 148.36 239.23 149.11 238.70 149.92 238.26 C 152.08 239.24 154.07 240.53 156.14 241.66 C 155.29 242.32 154.44 242.97 153.58 243.64 C 151.61 242.36 149.63 241.10 147.66 239.84 Z" />
<path fill="#001e1f" opacity="1.00" d=" M 155.26 244.27 C 155.96 243.94 157.37 243.27 158.07 242.94 C 159.55 243.86 161.01 244.84 162.39 245.93 C 159.84 247.51 157.28 245.87 155.26 244.27 Z" />
</g>
<g id="#f2b656ff">
<path fill="#f2b656" opacity="1.00" d=" M 250.54 188.22 C 251.86 187.42 253.16 186.41 254.75 186.25 C 255.99 186.88 256.93 187.95 257.89 188.93 C 256.89 189.52 255.86 190.06 254.81 190.54 C 253.27 190.00 251.93 189.05 250.54 188.22 Z" />
</g>
<g id="#c9c7cfff">
<path fill="#c9c7cf" opacity="1.00" d=" M 264.57 185.32 C 267.74 187.13 270.92 188.95 274.03 190.89 C 273.69 192.40 273.35 193.92 273.00 195.44 C 269.68 193.50 266.38 191.54 263.04 189.64 C 263.58 188.21 264.07 186.76 264.57 185.32 Z" />
</g>
<g id="#fad656ff">
<path fill="#fad656" opacity="1.00" d=" M 288.74 185.67 C 297.80 197.45 314.29 199.93 328.07 197.04 C 334.72 195.75 340.36 191.72 345.23 187.20 C 346.08 189.11 343.87 191.21 342.56 192.55 C 335.46 198.24 325.91 199.59 317.07 199.60 C 306.80 199.46 295.29 197.20 288.65 188.60 C 288.67 187.87 288.71 186.40 288.74 185.67 Z" />
</g>
<g id="#779fd6ff">
<path fill="#779fd6" opacity="1.00" d=" M 274.03 190.89 C 274.55 189.29 274.55 185.88 277.13 187.04 C 278.11 188.56 277.07 190.34 276.85 191.93 C 274.29 202.14 272.25 212.47 269.73 222.68 C 268.06 223.68 266.40 224.70 264.73 225.70 C 263.58 226.36 262.45 227.02 261.31 227.66 C 258.42 229.26 255.55 230.92 252.86 232.83 C 252.61 234.19 252.33 235.55 251.97 236.89 C 250.30 236.71 248.65 236.40 247.01 236.09 C 245.60 236.69 244.36 237.62 242.99 238.30 C 242.53 238.51 241.60 238.93 241.13 239.14 C 240.63 239.13 239.62 239.11 239.12 239.10 L 239.44 238.65 C 239.79 238.40 240.48 237.92 240.82 237.68 C 241.17 231.35 240.78 225.00 241.09 218.67 C 242.34 218.02 243.56 217.31 244.79 216.60 C 245.28 216.31 246.28 215.72 246.78 215.43 C 251.23 212.92 255.63 210.33 260.04 207.75 C 263.34 205.82 266.70 203.99 270.04 202.11 C 271.30 200.93 271.93 199.30 272.43 197.69 C 272.63 196.94 272.82 196.19 273.00 195.44 C 273.35 193.92 273.69 192.40 274.03 190.89 M 250.41 234.37 C 250.71 234.59 250.71 234.59 250.41 234.37 Z" />
</g>
<g id="#5c6ea6ff">
<path fill="#5c6ea6" opacity="1.00" d=" M 241.77 189.74 C 242.92 189.08 244.08 188.43 245.24 187.78 C 245.47 189.24 245.70 190.69 245.93 192.16 C 245.18 191.75 244.44 191.33 243.71 190.91 C 243.22 190.61 242.25 190.03 241.77 189.74 Z" />
</g>
<g id="#e5a320ff">
<path fill="#e5a320" opacity="1.00" d=" M 250.17 194.55 C 250.37 192.44 250.41 190.33 250.54 188.22 C 251.93 189.05 253.27 190.00 254.81 190.54 C 255.86 190.06 256.89 189.52 257.89 188.93 C 257.87 190.63 257.78 192.33 257.67 194.04 C 255.02 193.06 252.19 192.78 250.05 194.96 L 250.17 194.55 Z" />
</g>
<g id="#e9dfd1ff">
<path fill="#e9dfd1" opacity="1.00" d=" M 221.43 199.50 C 227.74 196.05 233.95 192.41 240.14 188.74 C 240.55 188.99 241.36 189.49 241.77 189.74 C 242.25 190.03 243.22 190.61 243.71 190.91 C 237.26 194.47 230.98 198.32 224.52 201.87 C 223.49 201.07 222.46 200.29 221.43 199.50 Z" />
</g>
<g id="#b59d7eff">
<path fill="#b59d7e" opacity="1.00" d=" M 243.71 190.91 C 244.44 191.33 245.18 191.75 245.93 192.16 C 246.19 192.30 246.70 192.58 246.96 192.72 C 240.80 196.35 234.61 199.92 228.41 203.48 L 228.02 203.27 C 226.86 202.77 225.70 202.31 224.52 201.87 C 230.98 198.32 237.26 194.47 243.71 190.91 Z" />
</g>
<g id="#0d313b45">
<path fill="#0d313b" opacity="0.27" d=" M 288.92 191.97 C 292.55 199.55 301.67 201.95 309.32 203.01 C 315.05 203.75 320.89 203.77 326.62 202.97 C 333.83 201.74 342.77 199.46 345.72 191.90 C 345.61 196.58 346.03 201.27 345.79 205.95 C 345.86 207.59 344.14 208.34 342.94 209.02 C 337.63 211.45 331.70 212.12 325.94 212.62 C 316.62 213.25 307.14 213.20 297.98 211.24 C 294.77 210.44 291.18 209.67 288.94 207.03 C 288.35 202.03 288.82 196.99 288.92 191.97 M 307.83 204.46 C 314.20 205.40 320.85 205.47 327.22 204.47 C 320.78 203.97 314.27 204.05 307.83 204.46 Z" />
</g>
<g id="#8f381fff">
<path fill="#8f381f" opacity="1.00" d=" M 250.05 194.96 C 252.19 192.78 255.02 193.06 257.67 194.04 L 257.57 194.82 C 254.03 197.05 250.29 198.96 246.68 201.09 C 246.50 205.87 246.51 210.65 246.78 215.43 C 246.28 215.72 245.28 216.31 244.79 216.60 C 244.16 210.63 245.53 204.45 243.68 198.64 C 245.83 197.47 248.02 196.35 250.05 194.96 Z" />
</g>
<g id="#f5d358ff">
<path fill="#f5d358" opacity="1.00" d=" M 255.08 198.05 C 255.52 198.06 256.40 198.09 256.84 198.10 C 256.84 201.41 257.27 205.89 253.57 207.49 C 249.94 209.52 246.56 201.70 250.92 201.20 C 250.99 202.83 251.07 204.47 251.15 206.11 C 255.79 206.40 255.07 201.14 255.08 198.05 Z" />
</g>
<g id="#e9e0d1ff">
<path fill="#e9e0d1" opacity="1.00" d=" M 263.19 198.37 C 264.52 199.03 265.86 199.70 267.16 200.43 C 264.70 201.90 262.24 203.39 259.81 204.91 C 259.72 203.55 259.66 202.21 259.66 200.86 C 260.83 200.03 262.02 199.21 263.19 198.37 Z" />
</g>
<g id="#c5b393ff">
<path fill="#c5b393" opacity="1.00" d=" M 221.37 201.22 C 221.39 200.65 221.41 200.07 221.43 199.50 C 222.46 200.29 223.49 201.07 224.52 201.87 C 224.50 204.59 225.69 206.85 228.04 208.22 C 228.04 206.57 228.04 204.92 228.02 203.27 L 228.41 203.48 C 229.79 204.37 231.12 205.33 232.47 206.28 C 232.37 208.73 232.23 211.18 232.07 213.63 C 228.39 211.61 224.77 209.49 221.19 207.30 C 221.25 205.27 221.31 203.25 221.37 201.22 Z" />
</g>
<g id="#e05a31ff">
<path fill="#e05a31" opacity="1.00" d=" M 242.22 202.88 C 242.39 201.38 242.58 199.79 243.68 198.64 C 245.53 204.45 244.16 210.63 244.79 216.60 C 243.56 217.31 242.34 218.02 241.09 218.67 C 241.00 218.63 240.82 218.55 240.73 218.51 C 241.35 215.46 241.63 212.35 241.79 209.25 C 241.92 207.12 242.04 205.00 242.22 202.88 Z" />
</g>
<g id="#dbcfbeff">
<path fill="#dbcfbe" opacity="1.00" d=" M 240.29 201.44 C 240.93 201.91 241.58 202.39 242.22 202.88 C 242.04 205.00 241.92 207.12 241.79 209.25 C 241.38 208.54 240.97 207.84 240.57 207.14 C 240.30 208.97 240.14 210.84 239.61 212.62 C 238.09 213.67 236.38 214.37 234.73 215.17 C 233.84 214.65 232.96 214.13 232.07 213.63 C 232.23 211.18 232.37 208.73 232.47 206.28 C 235.06 204.64 237.67 203.03 240.29 201.44 Z" />
</g>
<g id="#b69d7cff">
<path fill="#b69d7c" opacity="1.00" d=" M 259.81 204.91 C 262.24 203.39 264.70 201.90 267.16 200.43 C 267.88 200.85 269.32 201.69 270.04 202.11 C 266.70 203.99 263.34 205.82 260.04 207.75 C 259.98 207.04 259.87 205.62 259.81 204.91 Z" />
</g>
<g id="#4263aeec">
<path fill="#4263ae" opacity="0.93" d=" M 215.81 204.70 C 217.63 203.48 219.50 202.35 221.37 201.22 C 221.31 203.25 221.25 205.27 221.19 207.30 C 219.80 206.48 218.41 205.68 217.00 204.90 C 216.98 205.69 216.94 207.27 216.92 208.06 C 216.53 206.94 216.16 205.82 215.81 204.70 Z" />
</g>
<g id="#a58a64ff">
<path fill="#a58a64" opacity="1.00" d=" M 224.52 201.87 C 225.70 202.31 226.86 202.77 228.02 203.27 C 228.04 204.92 228.04 206.57 228.04 208.22 C 225.69 206.85 224.50 204.59 224.52 201.87 Z" />
</g>
<g id="#e69501ff">
<path fill="#e69501" opacity="1.00" d=" M 309.32 203.01 C 314.92 201.37 321.00 201.40 326.62 202.97 C 320.89 203.77 315.05 203.75 309.32 203.01 Z" />
</g>
<g id="#041e2729">
<path fill="#041e27" opacity="0.16" d=" M 307.83 204.46 C 314.27 204.05 320.78 203.97 327.22 204.47 C 320.85 205.47 314.20 205.40 307.83 204.46 Z" />
</g>
<g id="#ede3d5ff">
<path fill="#ede3d5" opacity="1.00" d=" M 240.57 207.14 C 240.97 207.84 241.38 208.54 241.79 209.25 C 241.63 212.35 241.35 215.46 240.73 218.51 C 238.69 217.46 236.71 216.31 234.73 215.17 C 236.38 214.37 238.09 213.67 239.61 212.62 C 240.14 210.84 240.30 208.97 240.57 207.14 Z" />
</g>
<g id="#009094ff">
<path fill="#009094" opacity="1.00" d=" M 344.23 220.64 C 353.00 224.56 361.00 229.96 369.35 234.67 C 370.94 235.72 372.88 235.41 374.68 235.34 C 374.53 235.77 374.21 236.62 374.06 237.05 C 384.56 243.49 395.20 249.78 406.05 255.58 C 410.79 254.30 414.72 251.04 418.99 248.72 C 412.41 244.54 405.44 241.03 398.60 237.30 C 397.21 236.64 396.29 235.40 395.49 234.14 L 396.69 233.62 C 398.23 234.34 399.76 235.10 401.27 235.90 C 410.90 241.20 420.50 246.54 430.18 251.74 C 435.15 248.95 440.13 246.20 445.19 243.58 C 445.29 245.73 445.42 247.90 445.06 250.04 C 440.43 253.46 435.09 255.79 430.06 258.55 C 427.27 257.16 424.49 255.74 421.74 254.26 C 416.89 256.91 412.25 259.93 407.35 262.46 C 406.05 263.22 404.72 261.88 403.54 261.44 C 384.17 250.07 364.54 239.11 345.25 227.62 C 343.45 225.96 344.67 222.87 344.23 220.64 Z" />
<path fill="#009094" opacity="1.00" d=" M 438.65 237.36 C 448.69 231.79 458.39 225.57 468.73 220.56 C 468.73 221.04 468.72 222.00 468.71 222.47 C 468.37 224.33 469.16 226.99 467.03 227.98 C 459.82 232.54 452.21 236.45 444.94 240.93 C 442.82 239.77 440.73 238.57 438.65 237.36 Z" />
</g>
<g id="#f08a37ff">
<path fill="#f08a37" opacity="1.00" d=" M 240.58 265.41 C 264.96 251.27 289.41 237.23 313.81 223.12 C 316.34 224.71 318.93 226.20 321.52 227.69 C 317.66 229.09 313.56 230.59 310.88 233.89 C 306.85 238.42 307.11 244.97 304.03 250.01 C 300.56 255.33 293.30 256.57 290.10 262.14 C 287.16 267.52 288.07 273.94 289.43 279.65 C 289.78 282.15 289.69 284.69 289.45 287.20 L 289.41 287.68 C 289.35 285.01 289.22 282.36 289.14 279.70 C 285.09 281.94 281.09 284.26 277.09 286.57 C 264.91 279.54 252.66 272.62 240.58 265.41 Z" />
<path fill="#f08a37" opacity="1.00" d=" M 314.25 236.37 C 317.13 232.60 321.83 231.05 326.36 230.44 C 327.93 231.39 329.52 232.31 331.14 233.19 L 331.01 233.26 C 328.79 234.49 326.43 235.83 325.22 238.18 C 322.59 242.30 322.67 247.31 321.93 251.97 C 321.25 256.16 318.73 259.72 316.27 263.07 C 313.75 265.80 314.94 269.75 314.63 273.10 L 314.36 273.27 C 314.34 270.52 314.28 267.78 314.20 265.03 C 307.66 268.87 301.26 272.94 294.48 276.34 C 294.45 275.98 294.40 275.24 294.38 274.87 C 294.22 271.22 293.95 267.28 295.90 264.00 C 299.04 258.78 305.74 257.16 308.94 252.00 C 311.59 247.09 310.50 240.78 314.25 236.37 Z" />
<path fill="#f08a37" opacity="1.00" d=" M 327.62 239.61 C 329.31 237.10 332.39 236.34 335.10 235.47 C 340.14 238.55 345.35 241.33 350.40 244.40 C 342.89 248.52 335.50 252.86 328.14 257.24 C 326.05 258.47 323.77 259.32 321.47 260.06 C 323.29 256.60 325.18 253.01 325.45 249.04 C 325.83 245.86 325.50 242.28 327.62 239.61 Z" />
</g>
<g id="#d1c55eff">
<path fill="#d1c55e" opacity="1.00" d=" M 468.71 222.47 C 470.40 225.53 469.38 229.30 469.44 232.64 C 462.00 237.90 453.63 241.82 445.88 246.66 C 446.24 249.76 446.19 252.89 446.15 256.01 C 441.11 258.74 436.28 261.97 430.97 264.13 C 428.04 263.12 425.38 261.50 422.68 260.02 C 417.41 262.73 412.58 266.46 407.05 268.55 C 386.89 257.25 366.99 245.48 346.94 234.00 C 344.37 232.91 345.57 229.75 345.25 227.62 C 364.54 239.11 384.17 250.07 403.54 261.44 C 404.72 261.88 406.05 263.22 407.35 262.46 C 412.25 259.93 416.89 256.91 421.74 254.26 C 424.49 255.74 427.27 257.16 430.06 258.55 C 435.09 255.79 440.43 253.46 445.06 250.04 C 445.42 247.90 445.29 245.73 445.19 243.58 C 445.13 242.92 445.01 241.59 444.94 240.93 C 452.21 236.45 459.82 232.54 467.03 227.98 C 469.16 226.99 468.37 224.33 468.71 222.47 Z" />
<path fill="#d1c55e" opacity="1.00" d=" M 114.79 240.89 C 128.84 249.11 142.97 257.21 157.08 265.34 C 164.37 261.21 171.56 256.93 178.88 252.86 C 180.71 251.85 182.41 250.61 183.81 249.06 C 184.12 251.21 185.21 254.50 182.64 255.66 C 174.40 260.45 166.12 265.17 157.88 269.95 C 143.46 261.77 129.11 253.48 114.81 245.10 C 114.79 243.69 114.79 242.29 114.79 240.89 Z" />
<path fill="#d1c55e" opacity="1.00" d=" M 350.44 248.62 C 351.31 251.86 352.22 256.24 349.52 258.80 C 349.38 268.86 349.58 278.91 349.43 288.97 C 349.57 291.67 346.32 292.25 344.59 293.57 C 322.47 306.21 300.46 319.01 278.39 331.73 C 267.27 325.10 255.97 318.78 244.78 312.27 C 242.36 311.32 242.96 308.39 242.83 306.36 C 254.42 313.18 266.08 319.89 277.78 326.53 C 289.96 319.30 302.32 312.38 314.53 305.18 C 316.18 304.25 317.87 303.38 319.52 302.45 C 326.20 298.39 333.06 294.64 339.77 290.64 C 341.33 289.72 342.91 288.83 344.49 287.94 C 346.38 286.80 349.08 285.71 348.59 282.98 C 348.55 273.17 348.71 263.34 348.44 253.53 C 349.10 253.07 349.76 252.60 350.41 252.13 C 350.42 251.25 350.44 249.50 350.44 248.62 Z" />
<path fill="#d1c55e" opacity="1.00" d=" M 230.06 286.86 L 230.61 286.29 C 230.69 288.81 231.55 292.31 228.58 293.54 C 214.70 301.52 200.87 309.58 186.97 317.52 C 185.60 318.49 183.93 318.41 182.57 317.50 C 174.06 312.66 165.61 307.72 157.15 302.82 C 154.83 301.95 155.31 299.28 155.16 297.31 C 161.38 301.38 168.01 304.78 174.39 308.59 C 177.58 310.34 180.55 312.59 184.03 313.74 C 187.07 312.84 189.65 310.93 192.39 309.39 C 203.60 302.91 214.83 296.45 226.06 290.00 C 227.52 289.14 228.90 288.11 230.06 286.86 Z" />
</g>
<g id="#97a4b2ff">
<path fill="#97a4b2" opacity="1.00" d=" M 124.09 229.06 C 128.59 226.19 133.63 224.24 138.96 223.74 C 139.10 226.41 139.39 229.11 140.24 231.67 C 139.96 232.03 139.68 232.41 139.40 232.78 C 139.06 233.21 138.38 234.08 138.04 234.51 C 140.38 235.88 142.72 237.26 145.05 238.64 C 145.77 237.94 146.49 237.25 147.21 236.56 C 145.56 235.56 143.91 234.56 142.24 233.60 C 143.78 233.57 145.31 233.58 146.85 233.59 C 146.90 230.60 146.94 227.61 146.96 224.62 C 147.95 224.94 148.94 225.26 149.93 225.58 C 150.18 228.06 149.32 231.28 151.79 232.89 C 151.29 232.94 150.30 233.04 149.80 233.08 C 150.51 233.67 151.23 234.25 151.96 234.81 C 151.36 234.89 150.14 235.06 149.54 235.14 C 151.81 237.62 154.74 239.32 157.72 240.82 C 158.17 240.46 159.06 239.74 159.51 239.37 C 160.69 239.73 161.90 239.72 163.09 239.34 C 161.55 238.34 159.99 237.38 158.40 236.47 C 158.50 234.43 158.59 232.39 158.66 230.36 C 161.19 231.73 163.68 233.17 166.16 234.63 C 165.75 241.44 165.27 248.34 167.04 255.01 C 164.62 252.91 161.58 251.74 158.92 249.99 C 155.95 248.15 152.93 246.41 149.82 244.82 C 149.40 244.63 148.54 244.26 148.12 244.07 C 145.34 241.98 142.38 240.15 139.32 238.50 C 137.11 237.27 134.92 236.03 132.74 234.74 C 129.94 233.04 127.06 231.45 124.31 229.66 L 124.09 229.06 M 147.66 239.84 C 149.63 241.10 151.61 242.36 153.58 243.64 C 154.44 242.97 155.29 242.32 156.14 241.66 C 154.07 240.53 152.08 239.24 149.92 238.26 C 149.11 238.70 148.36 239.23 147.66 239.84 M 155.26 244.27 C 157.28 245.87 159.84 247.51 162.39 245.93 C 161.01 244.84 159.55 243.86 158.07 242.94 C 157.37 243.27 155.96 243.94 155.26 244.27 Z" />
<path fill="#97a4b2" opacity="1.00" d=" M 171.35 237.59 C 175.31 240.12 179.74 241.97 183.40 244.93 C 183.38 245.33 183.33 246.13 183.31 246.53 C 179.26 248.78 175.28 251.15 171.28 253.49 C 171.23 248.19 171.26 242.89 171.35 237.59 Z" />
<path fill="#97a4b2" opacity="1.00" d=" M 131.02 246.57 C 131.29 244.54 131.54 242.51 131.80 240.48 C 134.10 241.80 136.40 243.13 138.70 244.45 C 139.53 244.93 140.35 245.41 141.18 245.89 C 140.77 246.31 139.96 247.16 139.55 247.58 C 139.46 248.87 139.38 250.15 139.29 251.44 C 136.52 249.84 133.79 248.16 131.02 246.57 Z" />
</g>
<g id="#8796a6ff">
<path fill="#8796a6" opacity="1.00" d=" M 138.96 223.74 C 141.64 223.83 144.32 224.13 146.96 224.62 C 146.94 227.61 146.90 230.60 146.85 233.59 C 145.31 233.58 143.78 233.57 142.24 233.60 C 141.30 233.29 140.35 233.02 139.40 232.78 C 139.68 232.41 139.96 232.03 140.24 231.67 C 139.39 229.11 139.10 226.41 138.96 223.74 Z" />
<path fill="#8796a6" opacity="1.00" d=" M 149.93 225.58 C 152.96 226.89 155.78 228.60 158.66 230.19 L 158.66 230.36 C 158.59 232.39 158.50 234.43 158.40 236.47 C 156.23 235.22 154.04 233.99 151.79 232.89 C 149.32 231.28 150.18 228.06 149.93 225.58 Z" />
<path fill="#8796a6" opacity="1.00" d=" M 114.02 236.82 C 113.50 234.28 116.51 233.70 118.09 232.56 C 119.39 233.32 120.69 234.08 122.02 234.82 L 121.31 235.16 C 120.86 236.85 120.48 238.57 120.10 240.29 C 118.07 239.13 116.00 238.04 114.02 236.82 Z" />
<path fill="#8796a6" opacity="1.00" d=" M 166.16 234.63 C 167.89 235.61 169.62 236.59 171.35 237.59 C 171.26 242.89 171.23 248.19 171.28 253.49 C 169.96 254.26 168.54 254.83 167.13 255.41 L 167.04 255.01 C 165.27 248.34 165.75 241.44 166.16 234.63 Z" />
<path fill="#8796a6" opacity="1.00" d=" M 148.12 244.07 C 148.54 244.26 149.40 244.63 149.82 244.82 C 148.26 245.88 149.10 247.31 149.86 248.65 C 149.58 248.99 149.02 249.67 148.74 250.01 C 148.22 250.02 147.19 250.02 146.68 250.03 C 146.56 251.81 146.42 253.59 146.27 255.37 C 143.95 254.04 141.60 252.77 139.29 251.44 C 139.38 250.15 139.46 248.87 139.55 247.58 C 139.96 247.16 140.77 246.31 141.18 245.89 C 143.14 247.05 145.05 248.29 146.93 249.58 C 148.52 248.33 148.65 246.81 147.23 245.26 C 147.45 244.97 147.89 244.37 148.12 244.07 Z" />
<path fill="#8796a6" opacity="1.00" d=" M 150.98 251.69 C 152.95 252.90 154.96 254.03 156.96 255.19 L 157.35 255.42 C 157.95 257.11 158.48 258.83 159.01 260.55 C 158.53 260.83 157.57 261.39 157.09 261.67 C 154.56 260.24 152.04 258.81 149.55 257.31 C 150.02 255.44 150.50 253.56 150.98 251.69 Z" />
</g>
<g id="#00caccff">
<path fill="#00cacc" opacity="1.00" d=" M 401.27 235.90 C 406.93 232.43 412.63 229.02 418.39 225.72 C 425.16 229.57 431.87 233.53 438.65 237.36 C 440.73 238.57 442.82 239.77 444.94 240.93 C 445.01 241.59 445.13 242.92 445.19 243.58 C 440.13 246.20 435.15 248.95 430.18 251.74 C 420.50 246.54 410.90 241.20 401.27 235.90 Z" />
</g>
<g id="#ffdb83ff">
<path fill="#ffdb83" opacity="1.00" d=" M 310.88 233.89 C 313.56 230.59 317.66 229.09 321.52 227.69 C 323.14 228.59 324.75 229.51 326.36 230.44 C 321.83 231.05 317.13 232.60 314.25 236.37 C 310.50 240.78 311.59 247.09 308.94 252.00 C 305.74 257.16 299.04 258.78 295.90 264.00 C 293.95 267.28 294.22 271.22 294.38 274.87 C 294.27 275.36 294.04 276.34 293.93 276.83 C 292.47 277.83 290.94 278.73 289.43 279.65 C 288.07 273.94 287.16 267.52 290.10 262.14 C 293.30 256.57 300.56 255.33 304.03 250.01 C 307.11 244.97 306.85 238.42 310.88 233.89 Z" />
</g>
<g id="#445056ff">
<path fill="#445056" opacity="1.00" d=" M 118.05 232.53 C 120.09 231.42 122.10 230.25 124.09 229.06 L 124.31 229.66 C 124.39 231.78 124.29 233.90 124.17 236.02 C 123.63 235.72 122.55 235.12 122.02 234.82 C 120.69 234.08 119.39 233.32 118.09 232.56 L 118.05 232.53 Z" />
</g>
<g id="#25323bff">
<path fill="#25323b" opacity="1.00" d=" M 124.31 229.66 C 127.06 231.45 129.94 233.04 132.74 234.74 C 132.35 236.61 131.95 238.47 131.57 240.34 C 129.60 239.21 127.64 238.05 125.68 236.90 C 125.30 236.68 124.55 236.24 124.17 236.02 C 124.29 233.90 124.39 231.78 124.31 229.66 Z" />
<path fill="#25323b" opacity="1.00" d=" M 139.32 238.50 C 142.38 240.15 145.34 241.98 148.12 244.07 C 147.89 244.37 147.45 244.97 147.23 245.26 C 148.65 246.81 148.52 248.33 146.93 249.58 C 145.05 248.29 143.14 247.05 141.18 245.89 C 140.35 245.41 139.53 244.93 138.70 244.45 C 138.91 242.47 139.11 240.48 139.32 238.50 Z" />
<path fill="#25323b" opacity="1.00" d=" M 149.86 248.65 C 149.10 247.31 148.26 245.88 149.82 244.82 C 152.93 246.41 155.95 248.15 158.92 249.99 C 158.75 251.64 158.58 253.29 158.34 254.94 C 158.00 255.00 157.31 255.12 156.96 255.19 C 154.96 254.03 152.95 252.90 150.98 251.69 C 150.21 251.16 149.46 250.60 148.74 250.01 C 149.02 249.67 149.58 248.99 149.86 248.65 Z" />
</g>
<g id="#f0f2f4ff">
<path fill="#f0f2f4" opacity="1.00" d=" M 149.80 233.08 C 150.30 233.04 151.29 232.94 151.79 232.89 C 154.04 233.99 156.23 235.22 158.40 236.47 C 159.99 237.38 161.55 238.34 163.09 239.34 C 161.90 239.72 160.69 239.73 159.51 239.37 C 157.01 237.82 154.52 236.27 151.96 234.81 C 151.23 234.25 150.51 233.67 149.80 233.08 Z" />
</g>
<g id="#ffe78eff">
<path fill="#ffe78e" opacity="1.00" d=" M 325.22 238.18 C 326.43 235.83 328.79 234.49 331.01 233.26 C 332.37 234.00 333.73 234.74 335.10 235.47 C 332.39 236.34 329.31 237.10 327.62 239.61 C 325.50 242.28 325.83 245.86 325.45 249.04 C 325.18 253.01 323.29 256.60 321.47 260.06 C 320.64 260.94 319.76 261.77 318.85 262.56 C 318.20 262.69 316.92 262.94 316.27 263.07 C 318.73 259.72 321.25 256.16 321.93 251.97 C 322.67 247.31 322.59 242.30 325.22 238.18 Z" />
</g>
<g id="#98a5b3ff">
<path fill="#98a5b3" opacity="1.00" d=" M 121.31 235.16 L 122.02 234.82 C 122.55 235.12 123.63 235.72 124.17 236.02 C 124.55 236.24 125.30 236.68 125.68 236.90 C 124.96 238.72 124.35 240.58 123.83 242.48 C 122.59 241.74 121.35 241.00 120.10 240.29 C 120.48 238.57 120.86 236.85 121.31 235.16 Z" />
</g>
<g id="#424e55ff">
<path fill="#424e55" opacity="1.00" d=" M 132.74 234.74 C 134.92 236.03 137.11 237.27 139.32 238.50 C 139.11 240.48 138.91 242.47 138.70 244.45 C 136.40 243.13 134.10 241.80 131.80 240.48 L 131.57 240.34 C 131.95 238.47 132.35 236.61 132.74 234.74 Z" />
<path fill="#424e55" opacity="1.00" d=" M 158.92 249.99 C 161.58 251.74 164.62 252.91 167.04 255.01 L 167.13 255.41 C 166.99 255.50 166.72 255.69 166.59 255.79 C 165.24 256.67 163.88 257.54 162.51 258.39 C 160.78 257.41 159.05 256.44 157.35 255.42 L 156.96 255.19 C 157.31 255.12 158.00 255.00 158.34 254.94 C 158.58 253.29 158.75 251.64 158.92 249.99 Z" />
</g>
<g id="#8191a2ff">
<path fill="#8191a2" opacity="1.00" d=" M 149.54 235.14 C 150.14 235.06 151.36 234.89 151.96 234.81 C 154.52 236.27 157.01 237.82 159.51 239.37 C 159.06 239.74 158.17 240.46 157.72 240.82 C 154.74 239.32 151.81 237.62 149.54 235.14 Z" />
</g>
<g id="#525157ef">
<path fill="#525157" opacity="0.94" d=" M 235.13 236.22 C 236.56 237.04 237.99 237.86 239.44 238.65 L 239.12 239.10 C 237.24 241.30 241.86 241.77 241.13 239.14 C 241.60 238.93 242.53 238.51 242.99 238.30 C 242.88 240.29 242.16 242.69 240.00 243.29 C 237.89 243.85 237.41 241.45 236.61 240.13 C 235.53 239.82 233.32 240.58 233.18 238.96 C 232.65 237.65 234.54 237.12 235.13 236.22 Z" />
</g>
<g id="#5c6572ff">
<path fill="#5c6572" opacity="1.00" d=" M 114.02 236.82 C 116.00 238.04 118.07 239.13 120.10 240.29 C 121.35 241.00 122.59 241.74 123.83 242.48 C 126.21 243.87 128.62 245.20 131.02 246.57 C 133.79 248.16 136.52 249.84 139.29 251.44 C 141.60 252.77 143.95 254.04 146.27 255.37 C 147.37 256.00 148.46 256.66 149.55 257.31 C 152.04 258.81 154.56 260.24 157.09 261.67 C 157.57 261.39 158.53 260.83 159.01 260.55 C 160.18 259.83 161.34 259.10 162.51 258.39 C 163.88 257.54 165.24 256.67 166.59 255.79 L 166.86 255.62 L 167.13 255.41 C 168.54 254.83 169.96 254.26 171.28 253.49 C 175.28 251.15 179.26 248.78 183.31 246.53 C 183.44 247.16 183.69 248.42 183.81 249.06 C 182.41 250.61 180.71 251.85 178.88 252.86 C 171.56 256.93 164.37 261.21 157.08 265.34 C 142.97 257.21 128.84 249.11 114.79 240.89 C 113.63 240.02 114.37 238.08 114.02 236.82 Z" />
</g>
<g id="#8695a5ff">
<path fill="#8695a5" opacity="1.00" d=" M 125.68 236.90 C 127.64 238.05 129.60 239.21 131.57 240.34 L 131.80 240.48 C 131.54 242.51 131.29 244.54 131.02 246.57 C 128.62 245.20 126.21 243.87 123.83 242.48 C 124.35 240.58 124.96 238.72 125.68 236.90 Z" />
</g>
<g id="#cecdd1ff">
<path fill="#cecdd1" opacity="1.00" d=" M 239.12 239.10 C 239.62 239.11 240.63 239.13 241.13 239.14 C 241.86 241.77 237.24 241.30 239.12 239.10 Z" />
</g>
<g id="#e3e1e5ff">
<path fill="#e3e1e5" opacity="1.00" d=" M 259.33 239.07 C 260.95 238.56 261.45 239.13 260.81 240.79 C 259.19 241.29 258.69 240.72 259.33 239.07 Z" />
</g>
<g id="#98a5b2ff">
<path fill="#98a5b2" opacity="1.00" d=" M 146.68 250.03 C 147.19 250.02 148.22 250.02 148.74 250.01 C 149.46 250.60 150.21 251.16 150.98 251.69 C 150.50 253.56 150.02 255.44 149.55 257.31 C 148.46 256.66 147.37 256.00 146.27 255.37 C 146.42 253.59 146.56 251.81 146.68 250.03 Z" />
</g>
<g id="#b15204ff">
<path fill="#b15204" opacity="1.00" d=" M 321.66 269.04 C 330.57 263.84 339.49 258.66 348.44 253.53 C 348.71 263.34 348.55 273.17 348.59 282.98 C 349.08 285.71 346.38 286.80 344.49 287.94 C 340.84 284.93 336.88 282.19 332.36 280.71 C 329.81 279.70 326.86 279.21 324.92 277.12 C 322.84 274.93 322.36 271.84 321.66 269.04 Z" />
<path fill="#b15204" opacity="1.00" d=" M 240.42 265.31 L 240.58 265.41 C 252.66 272.62 264.91 279.54 277.09 286.57 C 277.04 289.26 276.99 291.95 276.93 294.65 C 265.10 288.48 253.88 281.19 242.12 274.88 C 241.94 274.74 241.57 274.45 241.38 274.31 C 239.42 271.89 240.81 268.23 240.42 265.31 Z" />
<path fill="#b15204" opacity="1.00" d=" M 314.63 273.10 C 315.13 272.80 316.12 272.20 316.61 271.90 C 316.95 274.13 316.68 276.72 318.24 278.56 C 321.19 282.33 326.25 282.84 330.41 284.54 C 333.99 285.76 337.16 287.92 339.77 290.64 C 333.06 294.64 326.20 298.39 319.52 302.45 C 315.23 300.12 311.37 296.95 306.66 295.44 C 304.08 294.41 301.05 293.90 299.16 291.68 C 297.21 289.56 296.84 286.59 296.14 283.92 C 302.21 280.38 308.31 276.87 314.36 273.27 L 314.63 273.10 Z" />
<path fill="#b15204" opacity="1.00" d=" M 277.59 294.85 C 281.54 292.61 285.24 289.90 289.40 288.03 C 289.73 287.87 290.38 287.55 290.71 287.40 C 291.34 289.83 291.53 292.69 293.60 294.43 C 296.69 297.19 300.96 297.76 304.68 299.27 C 308.34 300.54 311.49 302.84 314.53 305.18 C 302.32 312.38 289.96 319.30 277.78 326.53 C 277.47 315.97 277.72 305.41 277.59 294.85 Z" />
</g>
<g id="#06131aff">
<path fill="#06131a" opacity="1.00" d=" M 166.59 255.79 C 166.72 255.69 166.99 255.50 167.13 255.41 L 166.86 255.62 L 166.59 255.79 Z" />
</g>
<g id="#9ba9b8ff">
<path fill="#9ba9b8" opacity="1.00" d=" M 157.35 255.42 C 159.05 256.44 160.78 257.41 162.51 258.39 C 161.34 259.10 160.18 259.83 159.01 260.55 C 158.48 258.83 157.95 257.11 157.35 255.42 Z" />
</g>
<g id="#d8ba72ff">
<path fill="#d8ba72" opacity="1.00" d=" M 314.63 273.10 C 314.94 269.75 313.75 265.80 316.27 263.07 C 316.92 262.94 318.20 262.69 318.85 262.56 C 318.92 265.20 319.00 267.84 319.09 270.48 C 318.26 270.94 317.43 271.42 316.61 271.90 C 316.12 272.20 315.13 272.80 314.63 273.10 Z" />
</g>
<g id="#00627dff">
<path fill="#00627d" opacity="1.00" d=" M 193.83 268.33 C 196.31 266.89 198.74 265.14 201.71 265.00 L 201.74 265.46 C 201.83 266.96 201.94 268.46 202.08 269.97 C 201.60 269.67 200.64 269.08 200.16 268.78 C 198.03 270.02 195.86 271.19 193.74 272.44 C 193.76 271.46 193.81 269.49 193.83 268.51 L 193.83 268.33 Z" />
<path fill="#00627d" opacity="1.00" d=" M 208.15 269.04 C 210.47 270.40 212.79 271.76 215.12 273.10 C 215.54 279.93 214.83 286.78 215.57 293.59 C 213.11 295.08 210.60 296.51 208.08 297.91 C 208.10 292.57 208.73 287.12 207.22 281.90 C 207.88 281.34 208.52 280.77 209.16 280.19 C 208.74 280.20 207.90 280.21 207.48 280.22 L 206.66 280.24 C 208.53 276.79 208.28 272.82 208.15 269.04 Z" />
<path fill="#00627d" opacity="1.00" d=" M 183.04 274.63 C 185.74 273.05 188.45 271.47 191.15 269.89 C 191.47 276.33 190.78 282.83 191.85 289.22 C 190.09 290.39 188.22 291.47 186.78 293.03 C 188.21 292.72 189.52 292.03 190.84 291.42 C 191.63 293.44 189.98 297.75 192.89 298.11 C 194.60 295.68 194.01 292.70 192.93 290.16 C 195.64 288.37 198.52 286.87 201.29 285.18 C 201.85 290.64 201.40 296.13 201.76 301.59 C 199.64 302.84 197.44 303.93 195.30 305.13 C 193.73 303.51 190.17 305.07 191.83 307.32 C 188.97 308.92 186.16 311.31 182.66 310.94 C 183.23 310.04 183.79 309.14 184.40 308.27 C 189.53 304.85 195.08 302.13 200.36 298.95 C 199.25 298.23 198.15 297.53 197.05 296.83 C 192.71 299.31 188.44 301.92 184.07 304.35 L 183.21 304.09 C 183.11 302.17 183.10 300.24 182.98 298.33 C 182.32 298.11 181.01 297.66 180.36 297.44 C 182.50 296.17 184.83 295.02 186.50 293.11 C 185.33 293.41 184.20 293.79 183.09 294.24 L 182.57 294.19 C 183.03 290.81 183.31 287.39 183.06 283.98 C 184.73 282.97 186.35 281.89 187.96 280.79 C 186.45 280.03 184.83 278.95 183.20 280.08 C 183.14 278.26 183.09 276.44 183.04 274.63 Z" />
<path fill="#00627d" opacity="1.00" d=" M 196.16 276.58 C 197.89 275.65 199.62 274.72 201.29 273.67 C 201.45 276.23 201.54 278.79 201.61 281.35 C 202.02 281.73 202.83 282.50 203.24 282.88 C 202.77 283.20 201.85 283.86 201.38 284.19 L 201.25 284.25 C 198.93 285.26 196.69 286.46 194.48 287.70 C 194.00 283.46 193.69 279.20 193.64 274.94 C 194.27 275.35 195.53 276.17 196.16 276.58 Z" />
<path fill="#00627d" opacity="1.00" d=" M 220.20 276.03 C 223.25 277.93 226.60 279.39 229.44 281.63 C 229.77 282.76 230.06 283.90 230.29 285.06 C 227.14 286.88 224.00 288.72 220.82 290.47 C 220.14 285.69 220.15 280.85 220.20 276.03 Z" />
<path fill="#00627d" opacity="1.00" d=" M 156.11 290.20 C 162.53 286.29 169.12 282.68 175.61 278.89 C 175.78 280.67 175.95 282.45 176.12 284.24 C 174.94 285.00 173.79 285.81 172.65 286.63 C 173.36 287.05 174.77 287.89 175.48 288.31 C 175.92 294.52 175.62 300.75 175.79 306.97 C 173.70 305.77 171.62 304.57 169.55 303.35 C 169.39 300.53 169.26 297.70 168.97 294.89 C 168.93 294.60 168.85 294.02 168.80 293.74 C 169.63 293.56 171.29 293.21 172.12 293.03 C 173.58 290.75 170.83 288.98 168.90 288.45 C 167.38 287.89 166.42 289.64 165.32 290.34 C 164.29 291.05 161.72 291.56 162.77 293.27 C 163.42 294.93 165.50 295.30 166.89 296.18 C 166.63 297.90 166.36 299.62 166.08 301.33 C 162.16 299.12 158.26 296.87 154.24 294.86 C 154.66 293.24 154.25 290.99 156.11 290.20 Z" />
</g>
<g id="#1c738bff">
<path fill="#1c738b" opacity="1.00" d=" M 201.74 265.46 C 203.91 266.60 206.03 267.82 208.15 269.04 C 208.28 272.82 208.53 276.79 206.66 280.24 L 207.48 280.22 C 206.02 281.03 204.61 281.93 203.24 282.88 C 202.83 282.50 202.02 281.73 201.61 281.35 C 201.54 278.79 201.45 276.23 201.29 273.67 C 202.06 273.12 202.82 272.57 203.58 272.01 C 203.21 271.50 202.46 270.48 202.08 269.97 C 201.94 268.46 201.83 266.96 201.74 265.46 Z" />
<path fill="#1c738b" opacity="1.00" d=" M 215.12 273.10 C 216.81 274.08 218.50 275.06 220.20 276.03 C 220.15 280.85 220.14 285.69 220.82 290.47 C 219.05 291.48 217.31 292.53 215.57 293.59 C 214.83 286.78 215.54 279.93 215.12 273.10 Z" />
<path fill="#1c738b" opacity="1.00" d=" M 175.61 278.89 C 178.08 277.46 180.55 276.04 183.04 274.63 C 183.09 276.44 183.14 278.26 183.20 280.08 C 180.82 281.43 178.45 282.80 176.12 284.24 C 175.95 282.45 175.78 280.67 175.61 278.89 Z" />
<path fill="#1c738b" opacity="1.00" d=" M 201.38 284.19 C 203.42 283.69 205.44 283.03 207.22 281.90 C 208.73 287.12 208.10 292.57 208.08 297.91 C 205.95 299.10 203.85 300.35 201.76 301.59 C 201.40 296.13 201.85 290.64 201.29 285.18 C 201.28 284.95 201.26 284.48 201.25 284.25 L 201.38 284.19 Z" />
<path fill="#1c738b" opacity="1.00" d=" M 175.48 288.31 C 178.00 286.86 180.56 285.46 183.06 283.98 C 183.31 287.39 183.03 290.81 182.57 294.19 L 183.09 294.24 C 181.71 295.13 180.37 296.08 179.03 297.01 C 179.36 297.12 180.02 297.34 180.36 297.44 C 181.01 297.66 182.32 298.11 182.98 298.33 C 183.10 300.24 183.11 302.17 183.21 304.09 L 184.07 304.35 C 182.95 304.98 181.83 305.63 180.72 306.28 C 181.94 306.95 183.17 307.62 184.40 308.27 C 183.79 309.14 183.23 310.04 182.66 310.94 C 180.34 309.67 178.08 308.28 175.79 306.97 C 175.62 300.75 175.92 294.52 175.48 288.31 Z" />
</g>
<g id="#21768dff">
<path fill="#21768d" opacity="1.00" d=" M 191.15 269.89 C 192.04 269.42 192.93 268.96 193.83 268.51 C 193.81 269.49 193.76 271.46 193.74 272.44 C 193.68 273.27 193.65 274.10 193.64 274.94 C 193.69 279.20 194.00 283.46 194.48 287.70 C 193.59 288.18 192.71 288.69 191.85 289.22 C 190.78 282.83 191.47 276.33 191.15 269.89 Z" />
<path fill="#21768d" opacity="1.00" d=" M 190.84 291.42 C 191.36 291.10 192.40 290.47 192.93 290.16 C 194.01 292.70 194.60 295.68 192.89 298.11 C 189.98 297.75 191.63 293.44 190.84 291.42 Z" />
</g>
<g id="#eb6d05ff">
<path fill="#eb6d05" opacity="1.00" d=" M 193.74 272.44 C 195.86 271.19 198.03 270.02 200.16 268.78 C 200.64 269.08 201.60 269.67 202.08 269.97 C 202.46 270.48 203.21 271.50 203.58 272.01 C 202.82 272.57 202.06 273.12 201.29 273.67 C 199.62 274.72 197.89 275.65 196.16 276.58 C 195.53 276.17 194.27 275.35 193.64 274.94 C 193.65 274.10 193.68 273.27 193.74 272.44 Z" />
</g>
<g id="#bf9d48ff">
<path fill="#bf9d48" opacity="1.00" d=" M 319.09 270.48 C 319.94 270.00 320.80 269.52 321.66 269.04 C 322.36 271.84 322.84 274.93 324.92 277.12 C 326.86 279.21 329.81 279.70 332.36 280.71 C 336.88 282.19 340.84 284.93 344.49 287.94 C 342.91 288.83 341.33 289.72 339.77 290.64 C 337.16 287.92 333.99 285.76 330.41 284.54 C 326.25 282.84 321.19 282.33 318.24 278.56 C 316.68 276.72 316.95 274.13 316.61 271.90 C 317.43 271.42 318.26 270.94 319.09 270.48 Z" />
<path fill="#bf9d48" opacity="1.00" d=" M 294.80 284.64 C 295.13 284.46 295.80 284.10 296.14 283.92 C 296.84 286.59 297.21 289.56 299.16 291.68 C 301.05 293.90 304.08 294.41 306.66 295.44 C 311.37 296.95 315.23 300.12 319.52 302.45 C 317.87 303.38 316.18 304.25 314.53 305.18 C 311.49 302.84 308.34 300.54 304.68 299.27 C 300.96 297.76 296.69 297.19 293.60 294.43 C 291.53 292.69 291.34 289.83 290.71 287.40 C 290.38 287.55 289.73 287.87 289.40 288.03 L 289.41 287.68 L 289.45 287.20 C 291.22 286.33 293.04 285.54 294.80 284.64 Z" />
</g>
<g id="#8c823dab">
<path fill="#8c823d" opacity="0.67" d=" M 241.38 274.31 C 241.57 274.45 241.94 274.74 242.12 274.88 C 242.20 276.18 242.20 277.48 242.12 278.79 C 240.34 278.71 240.51 275.43 241.38 274.31 Z" />
</g>
<g id="#d9ba6fff">
<path fill="#d9ba6f" opacity="1.00" d=" M 294.38 274.87 C 294.40 275.24 294.45 275.98 294.48 276.34 C 294.69 279.10 294.75 281.87 294.80 284.64 C 293.04 285.54 291.22 286.33 289.45 287.20 C 289.69 284.69 289.78 282.15 289.43 279.65 C 290.94 278.73 292.47 277.83 293.93 276.83 C 294.04 276.34 294.27 275.36 294.38 274.87 Z" />
</g>
<g id="#1cb5dfff">
<path fill="#1cb5df" opacity="1.00" d=" M 183.20 280.08 C 184.83 278.95 186.45 280.03 187.96 280.79 C 186.35 281.89 184.73 282.97 183.06 283.98 C 180.56 285.46 178.00 286.86 175.48 288.31 C 174.77 287.89 173.36 287.05 172.65 286.63 C 173.79 285.81 174.94 285.00 176.12 284.24 C 178.45 282.80 180.82 281.43 183.20 280.08 Z" />
</g>
<g id="#0b3d52ff">
<path fill="#0b3d52" opacity="1.00" d=" M 220.82 290.47 C 224.00 288.72 227.14 286.88 230.29 285.06 L 230.06 286.86 C 228.90 288.11 227.52 289.14 226.06 290.00 C 214.83 296.45 203.60 302.91 192.39 309.39 C 189.65 310.93 187.07 312.84 184.03 313.74 C 180.55 312.59 177.58 310.34 174.39 308.59 C 168.01 304.78 161.38 301.38 155.16 297.31 C 154.93 296.70 154.47 295.47 154.24 294.86 C 158.26 296.87 162.16 299.12 166.08 301.33 C 167.24 301.99 168.39 302.67 169.55 303.35 C 171.62 304.57 173.70 305.77 175.79 306.97 C 178.08 308.28 180.34 309.67 182.66 310.94 C 186.16 311.31 188.97 308.92 191.83 307.32 C 193.01 306.64 194.15 305.87 195.30 305.13 C 197.44 303.93 199.64 302.84 201.76 301.59 C 203.85 300.35 205.95 299.10 208.08 297.91 C 210.60 296.51 213.11 295.08 215.57 293.59 C 217.31 292.53 219.05 291.48 220.82 290.47 Z" />
</g>
<g id="#d3da50ff">
<path fill="#d3da50" opacity="1.00" d=" M 165.32 290.34 C 166.42 289.64 167.38 287.89 168.90 288.45 C 170.83 288.98 173.58 290.75 172.12 293.03 C 171.29 293.21 169.63 293.56 168.80 293.74 C 167.64 292.61 166.47 291.47 165.32 290.34 Z" />
</g>
<g id="#e3043eff">
<path fill="#e3043e" opacity="1.00" d=" M 162.77 293.27 C 161.72 291.56 164.29 291.05 165.32 290.34 C 166.47 291.47 167.64 292.61 168.80 293.74 C 168.85 294.02 168.93 294.60 168.97 294.89 C 168.45 295.21 167.41 295.86 166.89 296.18 C 165.50 295.30 163.42 294.93 162.77 293.27 Z" />
</g>
<g id="#1b738cff">
<path fill="#1b738c" opacity="1.00" d=" M 166.89 296.18 C 167.41 295.86 168.45 295.21 168.97 294.89 C 169.26 297.70 169.39 300.53 169.55 303.35 C 168.39 302.67 167.24 301.99 166.08 301.33 C 166.36 299.62 166.63 297.90 166.89 296.18 Z" />
</g>
<g id="#005487ff">
<path fill="#005487" opacity="1.00" d=" M 246.19 301.71 C 247.71 299.89 250.33 302.06 251.35 303.48 C 252.48 305.38 250.45 306.60 249.22 307.67 C 248.58 306.69 247.94 305.71 247.30 304.73 C 246.92 303.72 246.55 302.71 246.19 301.71 Z" />
</g>
<g id="#0f94d5ff">
<path fill="#0f94d5" opacity="1.00" d=" M 249.22 307.67 C 246.90 306.99 242.95 304.01 246.19 301.71 C 246.55 302.71 246.92 303.72 247.30 304.73 C 247.94 305.71 248.58 306.69 249.22 307.67 Z" />
</g>
<g id="#16728bff">
<path fill="#16728b" opacity="1.00" d=" M 191.83 307.32 C 190.17 305.07 193.73 303.51 195.30 305.13 C 194.15 305.87 193.01 306.64 191.83 307.32 Z" />
</g>
<g id="#fbe2cdff">
<path fill="#fbe2cd" opacity="1.00" d=" M 262.48 306.39 C 266.55 308.07 270.09 310.78 273.85 313.04 C 273.80 315.17 273.79 317.31 273.76 319.45 C 269.60 317.91 265.98 315.27 262.15 313.09 C 262.21 310.86 262.18 308.61 262.48 306.39 Z" />
</g>
</svg>
