<?xml version="1.0" encoding="UTF-8" ?>
<!DOCTYPE svg PUBLIC "-//W3C//DTD SVG 1.1//EN" "http://www.w3.org/Graphics/SVG/1.1/DTD/svg11.dtd">
<svg width="1500pt" height="457pt" viewBox="0 0 1500 457" version="1.1" xmlns="http://www.w3.org/2000/svg">
<g id="#ffffffff">
</g>
<g id="#003e7eff">
<path fill="#003e7e" opacity="1.00" d=" M 960.28 140.13 C 977.98 129.73 998.51 124.42 1019.01 124.37 C 1036.83 124.18 1054.99 126.40 1071.47 133.50 C 1084.05 138.79 1095.71 146.17 1106.10 155.00 C 1094.72 168.84 1083.14 182.50 1071.79 196.35 C 1061.08 187.49 1048.73 179.88 1034.82 177.60 C 1021.52 175.29 1007.07 176.10 995.31 183.27 C 980.20 191.88 970.22 208.13 967.81 225.19 C 966.07 238.84 968.01 253.22 974.84 265.31 C 983.60 281.16 1000.97 291.47 1018.92 292.69 C 1032.39 293.57 1046.66 291.69 1058.17 284.18 C 1058.15 275.71 1058.17 267.24 1058.16 258.77 C 1044.35 258.73 1030.54 258.75 1016.74 258.75 C 1016.72 244.50 1016.73 230.25 1016.73 216.00 C 1049.03 216.00 1081.33 215.99 1113.63 216.01 C 1113.62 247.58 1113.62 279.15 1113.62 310.71 C 1090.54 329.27 1061.92 341.62 1032.13 342.92 C 1004.35 344.86 975.47 338.74 952.43 322.66 C 937.82 312.61 925.90 298.70 918.25 282.71 C 908.95 264.07 906.18 242.69 908.11 222.09 C 911.33 188.63 931.08 157.00 960.28 140.13 Z" />
<path fill="#003e7e" opacity="1.00" d=" M 720.14 128.46 C 776.22 128.55 832.31 128.47 888.39 128.50 C 888.39 145.58 888.39 162.66 888.40 179.74 C 851.72 179.76 815.04 179.74 778.36 179.75 C 778.35 191.54 778.36 203.32 778.35 215.11 C 811.52 215.15 844.69 215.12 877.86 215.12 C 877.85 231.37 877.85 247.63 877.86 263.88 C 844.69 263.87 811.52 263.87 778.36 263.88 C 778.35 288.92 778.36 313.96 778.35 339.00 C 758.86 338.94 739.36 339.14 719.86 338.89 C 719.90 284.26 719.86 229.62 719.89 174.99 C 720.02 159.48 719.58 143.95 720.14 128.46 Z" />
<path fill="#003e7e" opacity="1.00" d=" M 1129.05 128.52 C 1150.84 128.48 1172.62 128.50 1194.41 128.51 C 1210.36 172.80 1226.18 217.15 1242.19 261.43 C 1258.07 217.12 1274.00 172.82 1289.89 128.51 C 1311.29 128.49 1332.68 128.49 1354.08 128.51 C 1325.64 198.66 1296.95 268.72 1268.59 338.90 C 1250.46 339.10 1232.32 338.99 1214.18 338.96 C 1185.88 268.78 1157.36 198.69 1129.05 128.52 Z" />
<path fill="#003e7e" opacity="1.00" d=" M 130.84 129.13 C 186.91 129.11 242.98 129.15 299.05 129.10 C 360.07 199.12 421.02 269.20 482.01 339.24 C 425.94 339.27 369.86 339.24 313.79 339.25 C 252.79 269.22 191.82 199.17 130.84 129.13 Z" />
</g>
<g id="#0595d5ff">
<path fill="#0595d5" opacity="1.00" d=" M 482.21 149.27 C 489.50 142.65 496.41 135.57 503.91 129.21 C 558.37 129.03 612.84 129.17 667.31 129.14 C 621.17 171.98 575.04 214.84 528.96 257.75 C 496.36 237.54 463.78 217.32 431.19 197.09 C 448.17 181.12 465.21 165.21 482.21 149.27 Z" />
</g>
</svg>
