<?xml version="1.0" encoding="UTF-8" ?>
<!DOCTYPE svg PUBLIC "-//W3C//DTD SVG 1.1//EN" "http://www.w3.org/Graphics/SVG/1.1/DTD/svg11.dtd">
<svg width="200pt" height="100pt" viewBox="0 0 200 100" version="1.1" xmlns="http://www.w3.org/2000/svg">
<g id="#ffffffff">
<path fill="#ffffff" opacity="1.00" d=" M 0.00 0.00 L 200.00 0.00 L 200.00 100.00 L 0.00 100.00 L 0.00 0.00 M 49.71 2.12 C 60.22 14.34 70.82 26.47 81.33 38.68 C 82.13 39.40 82.79 40.75 84.06 40.60 C 93.89 40.69 103.72 40.47 113.55 40.70 C 102.92 28.56 92.42 16.31 81.86 4.10 C 81.02 3.34 80.28 2.02 78.95 2.22 C 69.21 2.13 59.46 2.34 49.71 2.12 M 122.00 3.00 C 116.80 6.35 111.74 9.93 106.48 13.22 C 111.61 16.71 116.88 19.97 122.02 23.44 C 132.67 16.28 143.45 9.31 154.06 2.09 C 144.69 2.33 135.31 2.18 125.94 2.19 C 124.60 2.21 123.13 2.12 122.00 3.00 M 152.46 57.99 C 153.87 57.91 155.28 57.87 156.69 57.86 C 157.00 57.44 157.62 56.59 157.93 56.17 C 156.58 56.22 155.23 56.23 153.89 56.21 C 153.53 56.65 152.82 57.54 152.46 57.99 M 86.13 59.84 C 86.19 64.08 86.16 68.31 86.16 72.55 C 88.37 72.47 90.68 72.77 92.82 72.05 C 95.42 69.48 94.70 65.25 94.09 62.00 C 92.64 59.00 88.80 60.07 86.13 59.84 M 21.28 59.84 C 21.31 64.05 21.32 68.26 21.24 72.47 L 23.73 72.62 C 23.73 70.58 23.72 68.54 23.74 66.50 C 24.62 66.59 26.38 66.76 27.26 66.84 C 27.33 66.17 27.41 65.51 27.48 64.84 C 26.54 64.86 24.67 64.90 23.73 64.92 C 23.73 64.09 23.72 62.44 23.72 61.61 C 25.49 61.47 27.47 61.66 28.72 60.12 C 26.24 59.91 23.76 59.87 21.28 59.84 M 41.93 72.21 C 44.46 72.76 47.26 73.09 49.27 71.08 C 49.50 67.35 49.47 63.60 49.52 59.86 C 48.86 59.88 47.53 59.92 46.87 59.93 C 46.93 63.66 46.98 67.38 46.75 71.10 C 45.69 71.04 44.67 70.84 43.68 70.50 C 43.09 67.00 43.47 63.44 43.46 59.91 C 42.80 59.91 41.50 59.90 40.85 59.90 C 41.00 64.01 40.24 68.31 41.93 72.21 M 62.89 59.71 C 63.17 63.97 63.08 68.25 63.15 72.52 C 63.68 72.56 64.74 72.65 65.27 72.69 C 65.35 69.09 65.07 65.50 65.17 61.91 C 66.61 65.42 67.75 69.06 69.17 72.58 C 70.30 72.54 71.44 72.51 72.58 72.47 C 72.51 68.28 72.52 64.10 72.55 59.91 C 71.92 59.90 70.64 59.87 70.01 59.85 C 70.08 63.30 70.37 66.74 70.42 70.19 L 71.45 70.21 C 71.15 70.32 70.56 70.53 70.27 70.63 C 69.03 67.48 68.05 64.24 66.87 61.07 C 66.47 59.24 64.17 60.11 62.89 59.71 M 110.38 59.93 C 109.29 64.15 108.18 68.37 106.77 72.50 C 107.59 72.52 108.42 72.54 109.25 72.56 C 109.41 71.85 109.74 70.45 109.91 69.75 C 111.27 69.71 112.63 69.68 114.00 69.66 C 114.15 70.39 114.47 71.86 114.63 72.59 C 115.49 72.57 116.35 72.55 117.21 72.54 C 115.88 68.36 114.76 64.12 113.64 59.89 C 112.56 59.90 111.47 59.91 110.38 59.93 M 130.45 61.44 C 129.21 64.19 129.99 67.37 129.82 70.29 C 131.59 72.05 133.29 73.88 134.74 75.91 C 134.04 75.78 132.63 75.51 131.93 75.38 C 131.85 75.82 131.69 76.69 131.61 77.13 C 133.15 76.81 134.74 76.62 136.17 75.92 C 135.90 74.47 135.04 73.41 133.58 72.74 C 136.36 72.84 137.69 70.81 138.39 68.44 C 137.63 68.45 136.13 68.47 135.38 68.48 C 135.15 69.21 134.69 70.69 134.45 71.42 C 133.72 70.71 132.16 70.43 132.24 69.16 C 132.20 66.34 131.11 62.35 134.34 60.91 C 134.64 61.66 135.24 63.15 135.54 63.90 C 136.19 63.81 137.49 63.62 138.13 63.52 C 137.45 62.21 136.74 60.91 136.00 59.63 C 134.10 59.86 131.44 59.29 130.45 61.44 M 153.48 60.07 C 152.48 64.44 150.90 68.66 150.15 73.09 C 151.93 72.75 153.00 71.47 153.40 69.74 C 154.67 69.72 155.93 69.69 157.19 69.68 C 157.36 70.40 157.69 71.83 157.86 72.55 C 158.68 72.55 159.50 72.54 160.33 72.54 C 159.11 68.32 157.84 64.10 156.83 59.82 C 155.71 59.90 154.59 59.98 153.48 60.07 M 174.44 60.46 C 172.03 62.91 172.71 66.83 173.17 69.90 C 173.61 72.74 177.02 73.24 179.28 72.35 C 182.30 70.20 181.54 65.83 181.10 62.67 C 180.46 59.81 176.60 58.57 174.44 60.46 M 35.11 81.63 C 34.76 87.19 34.96 92.76 34.91 98.33 C 38.05 98.33 41.20 98.34 44.35 98.29 C 44.55 94.55 40.44 96.11 38.10 95.74 C 38.13 94.03 38.16 92.32 38.21 90.61 C 39.94 90.61 41.68 90.62 43.41 90.62 L 43.25 88.29 C 41.56 88.33 39.88 88.36 38.20 88.39 C 38.16 86.95 38.15 85.52 38.14 84.09 C 39.89 84.10 41.64 84.13 43.40 84.17 C 43.45 83.33 43.50 82.49 43.54 81.65 C 40.73 81.68 37.92 81.67 35.11 81.63 M 57.22 81.64 C 57.30 85.90 56.94 90.19 57.45 94.42 C 57.84 99.72 66.98 100.16 68.09 95.11 C 68.78 90.66 68.34 86.13 68.49 81.64 C 67.35 81.66 66.21 81.68 65.08 81.70 C 64.95 86.38 65.61 91.14 64.69 95.76 C 63.45 96.54 62.23 96.53 61.02 95.73 C 60.05 91.13 60.73 86.36 60.58 81.69 C 59.46 81.67 58.34 81.66 57.22 81.64 M 71.15 81.76 C 71.22 87.27 71.28 92.79 71.12 98.31 C 73.90 98.34 76.68 98.34 79.46 98.35 C 79.48 97.45 79.50 96.55 79.52 95.65 C 77.79 95.65 76.06 95.65 74.33 95.66 C 74.35 90.97 74.31 86.29 74.39 81.61 C 73.31 81.65 72.23 81.70 71.15 81.76 M 81.16 81.66 C 81.25 87.23 81.21 92.81 81.23 98.38 C 82.24 98.38 83.24 98.37 84.25 98.36 C 84.21 92.79 84.15 87.22 84.25 81.65 C 83.22 81.65 82.19 81.65 81.16 81.66 M 22.21 84.29 C 20.85 88.02 21.78 92.07 21.93 95.92 C 24.36 99.50 28.89 98.39 32.54 98.15 C 32.54 95.33 32.55 92.51 32.56 89.68 C 30.80 89.68 29.04 89.70 27.28 89.73 C 27.49 91.10 28.19 92.13 29.38 92.81 C 29.34 93.75 29.25 95.64 29.20 96.58 C 27.87 96.49 26.61 96.18 25.43 95.64 C 24.45 92.89 24.48 89.90 24.80 87.04 C 24.73 85.44 25.58 84.13 26.97 83.41 C 28.55 83.87 28.96 85.49 29.66 86.77 C 30.74 86.68 31.82 86.60 32.91 86.50 C 32.05 84.99 31.66 82.89 29.87 82.20 C 27.31 81.21 23.39 81.35 22.21 84.29 M 44.89 81.65 C 44.89 82.33 44.88 83.69 44.87 84.38 C 46.17 84.39 47.48 84.40 48.78 84.42 C 48.72 89.08 48.74 93.73 48.70 98.39 C 49.58 98.38 51.32 98.34 52.20 98.33 C 52.18 93.72 52.25 89.11 52.08 84.51 C 54.17 84.51 56.37 84.50 56.01 81.72 C 52.30 81.66 48.60 81.71 44.89 81.65 M 87.95 83.01 C 86.66 87.03 86.32 91.50 87.53 95.57 C 88.55 98.99 92.84 98.98 95.58 97.89 C 97.74 96.34 97.61 93.40 97.89 91.05 C 97.89 87.90 98.18 83.69 94.87 82.00 C 92.53 81.13 90.08 82.01 87.95 83.01 M 105.09 81.46 C 106.44 87.10 107.86 92.72 109.25 98.35 C 110.52 98.35 111.79 98.35 113.06 98.36 C 114.57 92.79 115.97 87.19 117.47 81.61 C 116.63 81.63 114.96 81.67 114.12 81.69 C 113.18 86.25 112.29 90.83 111.08 95.34 C 109.80 90.91 109.63 86.24 108.26 81.83 C 107.47 81.74 105.88 81.56 105.09 81.46 M 121.35 81.66 C 119.77 87.26 118.19 92.86 116.58 98.45 C 117.41 98.40 119.09 98.31 119.92 98.27 C 120.14 97.01 120.37 95.76 120.59 94.51 C 122.25 94.44 123.92 94.40 125.58 94.35 C 125.97 95.70 126.36 97.05 126.76 98.40 C 127.82 98.37 128.88 98.35 129.94 98.33 C 128.39 92.78 126.93 87.20 125.34 81.66 C 124.01 81.66 122.68 81.66 121.35 81.66 M 131.51 81.64 C 131.55 87.20 131.51 92.76 131.53 98.33 C 132.66 98.32 133.80 98.32 134.94 98.31 C 134.89 95.91 134.85 93.50 134.86 91.10 C 135.68 91.31 137.31 91.73 138.13 91.94 C 138.54 94.08 138.52 96.27 138.69 98.43 C 139.48 98.41 141.08 98.37 141.87 98.35 C 141.59 95.52 142.37 92.22 139.95 90.11 C 141.69 88.07 141.50 85.39 141.23 82.91 C 138.15 81.62 134.80 81.53 131.51 81.64 M 145.18 83.33 C 143.61 85.92 143.77 89.12 143.98 92.02 C 144.18 94.15 144.38 96.71 146.40 97.96 C 149.09 98.98 152.03 98.27 154.81 98.13 C 154.78 95.29 154.78 92.46 154.81 89.63 C 152.71 89.91 149.22 88.67 149.53 92.05 C 150.16 92.12 151.42 92.27 152.05 92.34 C 151.95 93.62 151.81 94.89 151.65 96.15 C 150.24 96.60 148.87 96.05 147.52 95.70 C 147.20 92.05 146.53 88.19 147.77 84.65 C 149.46 82.20 151.65 84.86 152.15 86.77 C 153.10 86.71 154.06 86.66 155.02 86.60 C 154.68 85.38 154.32 84.16 153.98 82.94 C 151.28 81.59 147.44 80.74 145.18 83.33 M 156.22 98.60 C 159.31 99.25 159.93 96.73 160.50 94.40 C 162.12 94.40 163.75 94.42 165.37 94.44 C 165.63 95.72 165.88 96.99 166.13 98.26 C 167.01 98.31 168.77 98.39 169.66 98.44 C 167.99 92.88 166.49 87.27 164.96 81.67 C 163.59 81.66 162.22 81.66 160.85 81.65 C 159.26 87.28 157.70 92.93 156.22 98.60 M 172.13 83.06 C 171.24 84.34 170.23 86.05 171.18 87.59 C 172.81 90.39 176.40 91.30 178.03 94.06 C 178.40 96.32 175.91 95.76 174.48 96.12 C 174.31 95.38 173.98 93.91 173.82 93.17 C 172.66 93.31 171.50 93.45 170.34 93.60 C 170.97 95.01 171.07 96.81 172.33 97.85 C 175.90 99.86 182.28 97.98 181.22 93.00 C 179.79 89.66 175.81 88.60 173.52 85.94 C 174.63 83.34 177.62 83.66 178.41 86.32 C 179.25 86.31 180.95 86.30 181.80 86.29 C 180.96 84.74 180.06 83.22 179.11 81.73 C 176.75 81.66 173.97 81.19 172.13 83.06 Z" />
<path fill="#ffffff" opacity="1.00" d=" M 88.59 61.13 C 89.73 61.74 91.54 61.63 92.06 63.02 C 92.72 65.52 92.24 68.13 91.74 70.61 C 90.63 70.59 89.52 70.57 88.42 70.55 C 88.50 67.41 88.47 64.27 88.59 61.13 Z" />
<path fill="#ffffff" opacity="1.00" d=" M 175.32 62.95 C 175.93 62.20 176.54 61.45 177.15 60.71 C 179.47 62.92 178.85 66.27 178.76 69.15 C 178.85 70.63 177.38 71.17 176.15 70.98 C 174.70 68.58 175.71 65.59 175.32 62.95 Z" />
<path fill="#ffffff" opacity="1.00" d=" M 110.20 67.79 C 110.80 65.80 111.37 63.80 112.05 61.83 C 112.64 63.82 113.07 65.84 113.54 67.86 C 112.42 67.84 111.31 67.81 110.20 67.79 Z" />
<path fill="#ffffff" opacity="1.00" d=" M 153.53 67.84 C 153.95 65.98 154.14 64.00 155.25 62.39 C 155.80 64.17 156.27 65.98 156.74 67.79 C 155.67 67.81 154.60 67.82 153.53 67.84 Z" />
<path fill="#ffffff" opacity="1.00" d=" M 90.45 85.29 C 90.98 83.83 92.75 84.26 93.93 84.01 C 94.75 87.60 95.16 91.44 94.13 95.03 C 93.80 96.78 91.68 96.08 90.63 95.54 C 89.78 92.20 90.24 88.68 90.45 85.29 Z" />
<path fill="#ffffff" opacity="1.00" d=" M 134.84 83.98 C 136.14 84.53 138.70 84.06 138.46 86.11 C 139.19 88.13 136.51 90.18 134.96 88.57 C 134.81 87.05 134.86 85.51 134.84 83.98 Z" />
<path fill="#ffffff" opacity="1.00" d=" M 121.16 92.33 C 121.83 89.85 122.37 87.34 123.20 84.91 C 124.00 87.31 124.66 89.76 125.29 92.21 C 123.91 92.25 122.53 92.29 121.16 92.33 Z" />
<path fill="#ffffff" opacity="1.00" d=" M 162.77 84.86 C 163.98 87.15 164.22 89.79 164.82 92.28 C 163.51 92.28 162.20 92.27 160.90 92.27 C 161.44 89.78 162.00 87.29 162.77 84.86 Z" />
</g>
<g id="#0c3468ff">
<path fill="#0c3468" opacity="1.00" d=" M 49.71 2.12 C 59.46 2.34 69.21 2.13 78.95 2.22 C 80.28 2.02 81.02 3.34 81.86 4.10 C 92.42 16.31 102.92 28.56 113.55 40.70 C 103.72 40.47 93.89 40.69 84.06 40.60 C 82.79 40.75 82.13 39.40 81.33 38.68 C 70.82 26.47 60.22 14.34 49.71 2.12 Z" />
<path fill="#0c3468" opacity="1.00" d=" M 122.00 3.00 C 123.13 2.12 124.60 2.21 125.94 2.19 C 135.31 2.18 144.69 2.33 154.06 2.09 C 143.45 9.31 132.67 16.28 122.02 23.44 C 116.88 19.97 111.61 16.71 106.48 13.22 C 111.74 9.93 116.80 6.35 122.00 3.00 Z" />
<path fill="#0c3468" opacity="1.00" d=" M 152.46 57.99 C 152.82 57.54 153.53 56.65 153.89 56.21 C 155.23 56.23 156.58 56.22 157.93 56.17 C 157.62 56.59 157.00 57.44 156.69 57.86 C 155.28 57.87 153.87 57.91 152.46 57.99 Z" />
<path fill="#0c3468" opacity="1.00" d=" M 86.13 59.84 C 88.80 60.07 92.64 59.00 94.09 62.00 C 94.70 65.25 95.42 69.48 92.82 72.05 C 90.68 72.77 88.37 72.47 86.16 72.55 C 86.16 68.31 86.19 64.08 86.13 59.84 M 88.59 61.13 C 88.47 64.27 88.50 67.41 88.42 70.55 C 89.52 70.57 90.63 70.59 91.74 70.61 C 92.24 68.13 92.72 65.52 92.06 63.02 C 91.54 61.63 89.73 61.74 88.59 61.13 Z" />
<path fill="#0c3468" opacity="1.00" d=" M 21.28 59.84 C 23.76 59.87 26.24 59.91 28.72 60.12 C 27.47 61.66 25.49 61.47 23.72 61.61 C 23.72 62.44 23.73 64.09 23.73 64.92 C 24.67 64.90 26.54 64.86 27.48 64.84 C 27.41 65.51 27.33 66.17 27.26 66.84 C 26.38 66.76 24.62 66.59 23.74 66.50 C 23.72 68.54 23.73 70.58 23.73 72.62 L 21.24 72.47 C 21.32 68.26 21.31 64.05 21.28 59.84 Z" />
<path fill="#0c3468" opacity="1.00" d=" M 41.93 72.21 C 40.24 68.31 41.00 64.01 40.85 59.90 C 41.50 59.90 42.80 59.91 43.46 59.91 C 43.47 63.44 43.09 67.00 43.68 70.50 C 44.67 70.84 45.69 71.04 46.75 71.10 C 46.98 67.38 46.93 63.66 46.87 59.93 C 47.53 59.92 48.86 59.88 49.52 59.86 C 49.47 63.60 49.50 67.35 49.27 71.08 C 47.26 73.09 44.46 72.76 41.93 72.21 Z" />
<path fill="#0c3468" opacity="1.00" d=" M 62.89 59.71 C 64.17 60.11 66.47 59.24 66.87 61.07 C 68.05 64.24 69.03 67.48 70.27 70.63 C 70.56 70.53 71.15 70.32 71.45 70.21 L 70.42 70.19 C 70.37 66.74 70.08 63.30 70.01 59.85 C 70.64 59.87 71.92 59.90 72.55 59.91 C 72.52 64.10 72.51 68.28 72.58 72.47 C 71.44 72.51 70.30 72.54 69.17 72.58 C 67.75 69.06 66.61 65.42 65.17 61.91 C 65.07 65.50 65.35 69.09 65.27 72.69 C 64.74 72.65 63.68 72.56 63.15 72.52 C 63.08 68.25 63.17 63.97 62.89 59.71 Z" />
<path fill="#0c3468" opacity="1.00" d=" M 110.38 59.93 C 111.47 59.91 112.56 59.90 113.64 59.89 C 114.76 64.12 115.88 68.36 117.21 72.54 C 116.35 72.55 115.49 72.57 114.63 72.59 C 114.47 71.86 114.15 70.39 114.00 69.66 C 112.63 69.68 111.27 69.71 109.91 69.75 C 109.74 70.45 109.41 71.85 109.25 72.56 C 108.42 72.54 107.59 72.52 106.77 72.50 C 108.18 68.37 109.29 64.15 110.38 59.93 M 110.20 67.79 C 111.31 67.81 112.42 67.84 113.54 67.86 C 113.07 65.84 112.64 63.82 112.05 61.83 C 111.37 63.80 110.80 65.80 110.20 67.79 Z" />
<path fill="#0c3468" opacity="1.00" d=" M 130.45 61.44 C 131.44 59.29 134.10 59.86 136.00 59.63 C 136.74 60.91 137.45 62.21 138.13 63.52 C 137.49 63.62 136.19 63.81 135.54 63.90 C 135.24 63.15 134.64 61.66 134.34 60.91 C 131.11 62.35 132.20 66.34 132.24 69.16 C 132.16 70.43 133.72 70.71 134.45 71.42 C 134.69 70.69 135.15 69.21 135.38 68.48 C 136.13 68.47 137.63 68.45 138.39 68.44 C 137.69 70.81 136.36 72.84 133.58 72.74 C 135.04 73.41 135.90 74.47 136.17 75.92 C 134.74 76.62 133.15 76.81 131.61 77.13 C 131.69 76.69 131.85 75.82 131.93 75.38 C 132.63 75.51 134.04 75.78 134.74 75.91 C 133.29 73.88 131.59 72.05 129.82 70.29 C 129.99 67.37 129.21 64.19 130.45 61.44 Z" />
<path fill="#0c3468" opacity="1.00" d=" M 153.48 60.07 C 154.59 59.98 155.71 59.90 156.83 59.82 C 157.84 64.10 159.11 68.32 160.33 72.54 C 159.50 72.54 158.68 72.55 157.86 72.55 C 157.69 71.83 157.36 70.40 157.19 69.68 C 155.93 69.69 154.67 69.72 153.40 69.74 C 153.00 71.47 151.93 72.75 150.15 73.09 C 150.90 68.66 152.48 64.44 153.48 60.07 M 153.53 67.84 C 154.60 67.82 155.67 67.81 156.74 67.79 C 156.27 65.98 155.80 64.17 155.25 62.39 C 154.14 64.00 153.95 65.98 153.53 67.84 Z" />
<path fill="#0c3468" opacity="1.00" d=" M 174.44 60.46 C 176.60 58.57 180.46 59.81 181.10 62.67 C 181.54 65.83 182.30 70.20 179.28 72.35 C 177.02 73.24 173.61 72.74 173.17 69.90 C 172.71 66.83 172.03 62.91 174.44 60.46 M 175.32 62.95 C 175.71 65.59 174.70 68.58 176.15 70.98 C 177.38 71.17 178.85 70.63 178.76 69.15 C 178.85 66.27 179.47 62.92 177.15 60.71 C 176.54 61.45 175.93 62.20 175.32 62.95 Z" />
<path fill="#0c3468" opacity="1.00" d=" M 35.11 81.63 C 37.92 81.67 40.73 81.68 43.54 81.65 C 43.50 82.49 43.45 83.33 43.40 84.17 C 41.64 84.13 39.89 84.10 38.14 84.09 C 38.15 85.52 38.16 86.95 38.20 88.39 C 39.88 88.36 41.56 88.33 43.25 88.29 L 43.41 90.62 C 41.68 90.62 39.94 90.61 38.21 90.61 C 38.16 92.32 38.13 94.03 38.10 95.74 C 40.44 96.11 44.55 94.55 44.35 98.29 C 41.20 98.34 38.05 98.33 34.91 98.33 C 34.96 92.76 34.76 87.19 35.11 81.63 Z" />
<path fill="#0c3468" opacity="1.00" d=" M 57.22 81.64 C 58.34 81.66 59.46 81.67 60.58 81.69 C 60.73 86.36 60.05 91.13 61.02 95.73 C 62.23 96.53 63.45 96.54 64.69 95.76 C 65.61 91.14 64.95 86.38 65.08 81.70 C 66.21 81.68 67.35 81.66 68.49 81.64 C 68.34 86.13 68.78 90.66 68.09 95.11 C 66.98 100.16 57.84 99.72 57.45 94.42 C 56.94 90.19 57.30 85.90 57.22 81.64 Z" />
<path fill="#0c3468" opacity="1.00" d=" M 71.15 81.76 C 72.23 81.70 73.31 81.65 74.39 81.61 C 74.31 86.29 74.35 90.97 74.33 95.66 C 76.06 95.65 77.79 95.65 79.52 95.65 C 79.50 96.55 79.48 97.45 79.46 98.35 C 76.68 98.34 73.90 98.34 71.12 98.31 C 71.28 92.79 71.22 87.27 71.15 81.76 Z" />
<path fill="#0c3468" opacity="1.00" d=" M 81.16 81.66 C 82.19 81.65 83.22 81.65 84.25 81.65 C 84.15 87.22 84.21 92.79 84.25 98.36 C 83.24 98.37 82.24 98.38 81.23 98.38 C 81.21 92.81 81.25 87.23 81.16 81.66 Z" />
<path fill="#0c3468" opacity="1.00" d=" M 22.21 84.29 C 23.39 81.35 27.31 81.21 29.87 82.20 C 31.66 82.89 32.05 84.99 32.91 86.50 C 31.82 86.60 30.74 86.68 29.66 86.77 C 28.96 85.49 28.55 83.87 26.97 83.41 C 25.58 84.13 24.73 85.44 24.80 87.04 C 24.48 89.90 24.45 92.89 25.43 95.64 C 26.61 96.18 27.87 96.49 29.20 96.58 C 29.25 95.64 29.34 93.75 29.38 92.81 C 28.19 92.13 27.49 91.10 27.28 89.73 C 29.04 89.70 30.80 89.68 32.56 89.68 C 32.55 92.51 32.54 95.33 32.54 98.15 C 28.89 98.39 24.36 99.50 21.93 95.92 C 21.78 92.07 20.85 88.02 22.21 84.29 Z" />
<path fill="#0c3468" opacity="1.00" d=" M 44.89 81.65 C 48.60 81.71 52.30 81.66 56.01 81.72 C 56.37 84.50 54.17 84.51 52.08 84.51 C 52.25 89.11 52.18 93.72 52.20 98.33 C 51.32 98.34 49.58 98.38 48.70 98.39 C 48.74 93.73 48.72 89.08 48.78 84.42 C 47.48 84.40 46.17 84.39 44.87 84.38 C 44.88 83.69 44.89 82.33 44.89 81.65 Z" />
<path fill="#0c3468" opacity="1.00" d=" M 87.95 83.01 C 90.08 82.01 92.53 81.13 94.87 82.00 C 98.18 83.69 97.89 87.90 97.89 91.05 C 97.61 93.40 97.74 96.34 95.58 97.89 C 92.84 98.98 88.55 98.99 87.53 95.57 C 86.32 91.50 86.66 87.03 87.95 83.01 M 90.45 85.29 C 90.24 88.68 89.78 92.20 90.63 95.54 C 91.68 96.08 93.80 96.78 94.13 95.03 C 95.16 91.44 94.75 87.60 93.93 84.01 C 92.75 84.26 90.98 83.83 90.45 85.29 Z" />
<path fill="#0c3468" opacity="1.00" d=" M 105.09 81.46 C 105.88 81.56 107.47 81.74 108.26 81.83 C 109.63 86.24 109.80 90.91 111.08 95.34 C 112.29 90.83 113.18 86.25 114.12 81.69 C 114.96 81.67 116.63 81.63 117.47 81.61 C 115.97 87.19 114.57 92.79 113.06 98.36 C 111.79 98.35 110.52 98.35 109.25 98.35 C 107.86 92.72 106.44 87.10 105.09 81.46 Z" />
<path fill="#0c3468" opacity="1.00" d=" M 121.35 81.66 C 122.68 81.66 124.01 81.66 125.34 81.66 C 126.93 87.20 128.39 92.78 129.94 98.33 C 128.88 98.35 127.82 98.37 126.76 98.40 C 126.36 97.05 125.97 95.70 125.58 94.35 C 123.92 94.40 122.25 94.44 120.59 94.51 C 120.37 95.76 120.14 97.01 119.92 98.27 C 119.09 98.31 117.41 98.40 116.58 98.45 C 118.19 92.86 119.77 87.26 121.35 81.66 M 121.16 92.33 C 122.53 92.29 123.91 92.25 125.29 92.21 C 124.66 89.76 124.00 87.31 123.20 84.91 C 122.37 87.34 121.83 89.85 121.16 92.33 Z" />
<path fill="#0c3468" opacity="1.00" d=" M 131.51 81.64 C 134.80 81.53 138.15 81.62 141.23 82.91 C 141.50 85.39 141.69 88.07 139.95 90.11 C 142.37 92.22 141.59 95.52 141.87 98.35 C 141.08 98.37 139.48 98.41 138.69 98.43 C 138.52 96.27 138.54 94.08 138.13 91.94 C 137.31 91.73 135.68 91.31 134.86 91.10 C 134.85 93.50 134.89 95.91 134.94 98.31 C 133.80 98.32 132.66 98.32 131.53 98.33 C 131.51 92.76 131.55 87.20 131.51 81.64 M 134.84 83.98 C 134.86 85.51 134.81 87.05 134.96 88.57 C 136.51 90.18 139.19 88.13 138.46 86.11 C 138.70 84.06 136.14 84.53 134.84 83.98 Z" />
<path fill="#0c3468" opacity="1.00" d=" M 145.18 83.33 C 147.44 80.74 151.28 81.59 153.98 82.94 C 154.32 84.16 154.68 85.38 155.02 86.60 C 154.06 86.66 153.10 86.71 152.15 86.77 C 151.65 84.86 149.46 82.20 147.77 84.65 C 146.53 88.19 147.20 92.05 147.52 95.70 C 148.87 96.05 150.24 96.60 151.65 96.15 C 151.81 94.89 151.95 93.62 152.05 92.34 C 151.42 92.27 150.16 92.12 149.53 92.05 C 149.22 88.67 152.71 89.91 154.81 89.63 C 154.78 92.46 154.78 95.29 154.81 98.13 C 152.03 98.27 149.09 98.98 146.40 97.96 C 144.38 96.71 144.18 94.15 143.98 92.02 C 143.77 89.12 143.61 85.92 145.18 83.33 Z" />
<path fill="#0c3468" opacity="1.00" d=" M 156.22 98.60 C 157.70 92.93 159.26 87.28 160.85 81.65 C 162.22 81.66 163.59 81.66 164.96 81.67 C 166.49 87.27 167.99 92.88 169.66 98.44 C 168.77 98.39 167.01 98.31 166.13 98.26 C 165.88 96.99 165.63 95.72 165.37 94.44 C 163.75 94.42 162.12 94.40 160.50 94.40 C 159.93 96.73 159.31 99.25 156.22 98.60 M 162.77 84.86 C 162.00 87.29 161.44 89.78 160.90 92.27 C 162.20 92.27 163.51 92.28 164.82 92.28 C 164.22 89.79 163.98 87.15 162.77 84.86 Z" />
<path fill="#0c3468" opacity="1.00" d=" M 172.13 83.06 C 173.97 81.19 176.75 81.66 179.11 81.73 C 180.06 83.22 180.96 84.74 181.80 86.29 C 180.95 86.30 179.25 86.31 178.41 86.32 C 177.62 83.66 174.63 83.34 173.52 85.94 C 175.81 88.60 179.79 89.66 181.22 93.00 C 182.28 97.98 175.90 99.86 172.33 97.85 C 171.07 96.81 170.97 95.01 170.34 93.60 C 171.50 93.45 172.66 93.31 173.82 93.17 C 173.98 93.91 174.31 95.38 174.48 96.12 C 175.91 95.76 178.40 96.32 178.03 94.06 C 176.40 91.30 172.81 90.39 171.18 87.59 C 170.23 86.05 171.24 84.34 172.13 83.06 Z" />
</g>
</svg>
