<?xml version="1.0" encoding="UTF-8" ?>
<!DOCTYPE svg PUBLIC "-//W3C//DTD SVG 1.1//EN" "http://www.w3.org/Graphics/SVG/1.1/DTD/svg11.dtd">
<svg width="200pt" height="100pt" viewBox="0 0 200 100" version="1.1" xmlns="http://www.w3.org/2000/svg">
<g id="#ffffffff">
<path fill="#ffffff" opacity="1.00" d=" M 0.00 0.00 L 127.82 0.00 L 126.56 0.39 C 124.14 1.17 121.70 1.85 119.26 2.54 C 119.09 2.58 118.75 2.67 118.58 2.72 C 118.15 2.84 117.27 3.08 116.83 3.20 C 116.57 3.34 116.03 3.62 115.77 3.76 C 115.31 3.86 114.39 4.05 113.93 4.15 C 103.02 8.70 92.51 14.75 84.00 23.04 C 93.14 16.72 103.05 11.16 113.93 8.53 C 117.91 7.73 121.99 7.12 126.05 7.60 C 131.27 8.30 136.81 10.68 139.18 15.69 C 142.24 21.66 140.76 28.57 139.25 34.76 C 138.71 34.60 137.63 34.28 137.09 34.13 C 130.94 32.90 124.62 33.47 118.40 33.36 C 116.73 38.64 114.59 43.77 113.09 49.10 C 112.25 51.69 114.09 54.98 116.93 55.08 C 120.22 55.37 123.53 55.19 126.83 55.21 C 129.10 55.13 131.50 55.24 133.59 54.20 C 135.67 53.08 136.41 50.65 137.39 48.68 C 137.70 50.21 138.13 51.72 138.54 53.23 C 142.69 56.02 148.00 56.59 152.83 55.66 C 156.28 54.71 160.63 53.86 162.16 50.15 C 163.99 45.92 165.70 41.55 166.41 36.98 C 166.32 34.85 164.06 34.27 162.45 33.63 C 164.13 26.04 164.52 17.57 160.22 10.73 C 156.67 4.57 149.80 1.51 143.14 0.00 L 200.00 0.00 L 200.00 100.00 L 0.00 100.00 L 0.00 0.00 M 35.12 30.00 C 33.16 35.67 31.17 41.34 29.23 47.03 C 28.57 49.07 28.01 51.69 29.55 53.49 C 31.54 56.05 35.13 54.96 37.92 55.22 C 39.21 51.66 40.41 48.07 41.67 44.51 C 44.12 44.49 46.57 44.48 49.02 44.47 C 49.54 42.98 50.04 41.49 50.53 39.99 C 48.10 39.98 45.68 39.97 43.25 39.96 C 43.83 38.30 44.41 36.63 45.01 34.97 C 47.72 34.96 50.43 34.96 53.14 34.99 C 53.78 33.32 54.39 31.65 55.02 29.98 C 48.39 29.99 41.76 29.97 35.12 30.00 M 55.21 33.30 C 53.00 39.49 50.62 45.64 48.99 52.01 C 50.82 55.63 55.57 55.41 59.02 55.84 C 63.44 55.63 68.68 55.27 71.77 51.66 C 74.18 47.13 75.21 42.04 77.25 37.36 C 78.80 37.39 80.34 37.41 81.88 37.44 C 80.84 42.34 77.58 46.86 78.06 51.98 C 79.11 55.38 82.93 55.35 85.85 55.26 C 87.97 49.31 89.81 43.25 92.16 37.38 C 93.79 37.38 95.42 37.37 97.04 37.35 C 96.90 43.19 89.99 50.31 96.10 55.05 C 100.38 55.29 104.66 55.23 108.95 55.24 C 109.43 53.85 109.91 52.45 110.37 51.06 C 107.87 51.04 105.37 51.04 102.87 51.03 C 103.38 49.39 103.91 47.74 104.40 46.09 C 106.59 46.02 108.78 46.00 110.97 46.01 C 111.45 44.69 111.92 43.36 112.38 42.03 C 110.22 41.99 108.07 41.97 105.92 41.93 C 106.46 40.43 107.00 38.94 107.53 37.44 C 109.91 37.44 112.29 37.41 114.67 37.24 C 115.03 35.90 115.41 34.57 115.80 33.24 C 100.04 33.48 84.27 33.30 68.51 33.33 C 66.17 39.47 64.54 45.89 61.76 51.85 C 61.03 51.92 59.57 52.07 58.84 52.15 C 60.56 45.76 63.13 39.64 65.08 33.32 C 61.79 33.35 58.50 33.37 55.21 33.30 M 171.19 33.29 C 169.25 38.09 167.63 43.03 166.01 47.94 C 164.96 50.57 165.94 53.40 168.16 55.03 C 172.03 55.28 175.92 55.26 179.80 55.23 C 180.27 53.83 180.76 52.45 181.23 51.06 C 179.12 51.04 177.01 51.03 174.91 51.01 C 176.99 45.12 179.03 39.21 181.03 33.29 C 177.75 33.37 174.47 33.38 171.19 33.29 M 22.26 57.98 C 20.44 63.77 18.31 69.47 16.37 75.22 C 15.69 77.34 15.26 80.22 17.21 81.83 C 19.24 83.94 22.50 82.85 25.09 83.18 C 28.23 74.83 30.89 66.32 33.95 57.94 C 30.06 57.95 26.16 57.92 22.26 57.98 M 37.04 57.97 C 35.50 62.29 34.03 66.63 32.50 70.96 C 31.78 73.11 31.11 75.57 32.24 77.71 C 33.43 79.59 35.73 79.92 37.74 80.15 C 38.92 76.71 39.73 73.10 41.59 69.96 C 42.16 73.27 42.83 76.56 43.29 79.89 C 46.23 80.02 49.18 80.02 52.13 80.04 C 54.38 74.11 56.32 68.07 58.40 62.08 C 60.00 62.07 61.61 62.07 63.21 62.08 C 62.07 66.45 60.00 70.55 59.20 75.01 C 59.21 79.11 63.68 80.56 67.11 80.06 C 69.21 74.08 71.27 68.09 73.33 62.10 C 75.08 62.07 76.82 62.04 78.57 62.02 C 77.53 66.10 75.63 69.93 74.77 74.06 C 74.12 76.82 76.11 79.65 78.93 79.90 C 82.66 80.17 86.40 79.94 90.13 79.99 C 90.60 78.62 91.05 77.24 91.51 75.86 C 89.01 75.86 86.51 75.85 84.01 75.79 C 84.56 74.08 85.05 72.34 85.77 70.69 C 87.90 70.25 90.09 70.54 92.25 70.51 C 92.68 69.25 93.11 67.99 93.53 66.73 C 91.40 66.72 89.28 66.71 87.15 66.66 C 87.68 65.11 88.21 63.56 88.77 62.02 C 91.09 62.06 93.41 62.06 95.74 62.02 C 96.16 60.65 96.62 59.29 97.08 57.94 C 81.85 58.04 66.61 57.76 51.38 58.09 C 50.33 61.41 49.40 64.80 47.82 67.93 C 46.96 64.69 46.25 61.42 45.62 58.14 C 42.76 57.90 39.90 57.90 37.04 57.97 M 99.36 58.04 C 97.80 63.38 95.63 68.53 94.09 73.87 C 93.33 76.44 95.19 79.02 97.54 79.91 C 95.78 80.69 94.19 81.80 92.63 82.93 C 88.36 84.33 84.21 86.19 79.85 87.43 C 77.83 87.62 75.85 88.09 73.87 88.50 C 66.76 89.54 58.66 88.02 54.05 82.05 C 55.60 87.30 58.61 92.56 63.63 95.13 C 67.26 97.41 71.60 98.96 75.89 98.99 C 78.30 98.83 80.66 99.24 82.99 99.82 C 85.77 100.54 88.35 98.87 90.90 98.02 C 100.37 96.68 109.32 92.40 117.49 87.52 L 117.75 87.60 C 121.30 85.33 124.97 83.20 128.08 80.34 C 129.31 79.58 130.52 78.79 131.75 78.02 L 132.33 77.57 C 136.02 81.04 141.41 80.27 146.03 80.06 C 149.48 79.59 153.47 78.37 155.21 75.08 C 157.11 70.86 158.68 66.46 159.65 61.93 C 158.99 57.70 153.59 57.87 150.29 57.46 C 144.56 57.01 136.94 58.55 135.42 65.07 L 135.07 65.09 C 134.26 66.96 133.48 68.84 132.72 70.73 L 132.56 71.89 C 132.18 71.65 131.44 71.16 131.06 70.91 C 131.18 70.29 131.43 69.04 131.55 68.42 L 132.03 69.03 C 132.43 67.32 132.81 65.61 133.18 63.89 C 133.82 61.86 134.49 59.83 135.17 57.81 C 131.73 57.91 128.30 57.96 124.87 57.98 C 124.79 58.60 124.65 59.84 124.57 60.46 L 124.16 60.13 C 123.14 63.19 121.95 66.19 121.05 69.29 C 120.72 69.76 120.06 70.70 119.73 71.18 L 119.74 72.11 C 119.46 72.25 118.89 72.52 118.60 72.66 C 118.31 71.69 118.02 70.72 117.73 69.74 C 116.47 69.26 115.21 68.77 113.96 68.28 C 114.47 67.99 115.50 67.40 116.01 67.10 C 117.62 65.31 119.66 63.83 120.83 61.69 C 120.62 58.90 117.34 58.31 115.10 58.10 C 109.86 57.89 104.61 57.89 99.36 58.04 M 164.10 57.95 C 162.50 62.40 161.00 66.88 159.43 71.33 C 158.68 73.54 158.05 76.41 159.80 78.32 C 161.52 80.25 164.28 80.03 166.63 79.93 C 167.60 76.55 168.78 73.22 170.03 69.93 C 170.78 70.00 172.28 70.15 173.03 70.22 C 172.43 73.60 171.11 76.80 169.95 80.01 C 173.02 79.99 176.09 79.99 179.17 80.05 C 180.46 76.81 181.71 73.53 182.22 70.06 C 180.78 69.48 179.32 68.98 177.84 68.55 C 179.96 68.00 182.56 67.85 183.86 65.81 C 185.21 64.18 184.97 62.00 185.13 60.03 C 183.55 59.14 181.92 58.18 180.06 58.13 C 174.75 57.83 169.42 57.99 164.10 57.95 Z" />
<path fill="#ffffff" opacity="1.00" d=" M 127.21 36.91 C 127.92 36.98 129.33 37.11 130.04 37.18 C 131.24 39.90 128.44 43.09 125.47 41.96 C 126.04 40.27 126.63 38.60 127.21 36.91 Z" />
<path fill="#ffffff" opacity="1.00" d=" M 108.43 61.34 C 109.37 61.53 110.31 61.72 111.26 61.92 C 111.44 64.62 109.57 67.56 106.54 66.54 C 107.14 64.80 107.78 63.07 108.43 61.34 Z" />
</g>
<g id="#bde3cdff">
<path fill="#bde3cd" opacity="1.00" d=" M 127.82 0.00 L 129.07 0.00 C 128.92 0.26 128.62 0.77 128.48 1.03 C 132.68 1.36 136.93 1.12 141.10 1.89 C 137.73 1.68 134.35 1.96 131.00 2.34 C 135.31 6.95 140.74 10.38 144.72 15.32 C 148.58 20.16 153.80 24.86 153.59 31.60 C 154.80 31.98 156.01 32.36 157.23 32.70 C 154.76 32.88 152.30 33.15 149.87 33.59 C 147.41 34.25 144.82 35.25 143.40 37.49 C 141.18 42.53 139.17 47.73 138.54 53.23 C 138.13 51.72 137.70 50.21 137.39 48.68 C 137.51 46.35 136.44 44.49 134.35 43.43 C 136.05 42.51 138.25 42.00 139.11 40.06 C 140.11 38.43 139.46 36.50 139.25 34.76 C 140.76 28.57 142.24 21.66 139.18 15.69 C 136.81 10.68 131.27 8.30 126.05 7.60 C 126.25 7.27 126.66 6.59 126.86 6.26 C 125.73 5.00 124.61 3.75 123.48 2.49 C 125.19 2.33 126.90 2.19 128.62 2.06 C 127.93 1.50 127.25 0.94 126.56 0.39 L 127.82 0.00 Z" />
</g>
<g id="#069444ff">
<path fill="#069444" opacity="1.00" d=" M 129.07 0.00 L 143.14 0.00 C 149.80 1.51 156.67 4.57 160.22 10.73 C 164.52 17.57 164.13 26.04 162.45 33.63 C 162.17 33.57 161.62 33.44 161.34 33.38 C 161.47 28.93 161.68 24.44 160.82 20.04 C 159.28 11.07 151.76 4.03 142.96 2.27 C 142.49 2.18 141.57 1.98 141.10 1.89 C 136.93 1.12 132.68 1.36 128.48 1.03 C 128.62 0.77 128.92 0.26 129.07 0.00 Z" />
<path fill="#069444" opacity="1.00" d=" M 119.26 2.54 C 121.70 1.85 124.14 1.17 126.56 0.39 C 127.25 0.94 127.93 1.50 128.62 2.06 C 126.90 2.19 125.19 2.33 123.48 2.49 C 122.08 2.61 120.67 2.67 119.26 2.54 Z" />
</g>
<g id="#91d0adff">
<path fill="#91d0ad" opacity="1.00" d=" M 118.58 2.72 C 118.75 2.67 119.09 2.58 119.26 2.54 C 120.67 2.67 122.08 2.61 123.48 2.49 C 124.61 3.75 125.73 5.00 126.86 6.26 C 126.66 6.59 126.25 7.27 126.05 7.60 C 121.99 7.12 117.91 7.73 113.93 8.53 C 113.92 7.34 113.91 6.15 113.93 4.97 C 114.39 4.67 115.31 4.06 115.77 3.76 C 116.03 3.62 116.57 3.34 116.83 3.20 C 117.64 4.51 118.22 4.35 118.58 2.72 Z" />
</g>
<g id="#dbf0e5ff">
<path fill="#dbf0e5" opacity="1.00" d=" M 131.00 2.34 C 134.35 1.96 137.73 1.68 141.10 1.89 C 141.57 1.98 142.49 2.18 142.96 2.27 C 144.69 6.23 148.36 8.72 151.20 11.82 C 154.27 14.71 156.72 18.51 160.82 20.04 C 161.68 24.44 161.47 28.93 161.34 33.38 L 160.67 33.26 C 159.81 33.12 158.09 32.84 157.23 32.70 C 156.01 32.36 154.80 31.98 153.59 31.60 C 153.80 24.86 148.58 20.16 144.72 15.32 C 140.74 10.38 135.31 6.95 131.00 2.34 Z" />
</g>
<g id="#2aa55eff">
<path fill="#2aa55e" opacity="1.00" d=" M 116.83 3.20 C 117.27 3.08 118.15 2.84 118.58 2.72 C 118.22 4.35 117.64 4.51 116.83 3.20 Z" />
</g>
<g id="#fefefeff">
<path fill="#fefefe" opacity="1.00" d=" M 142.96 2.27 C 151.76 4.03 159.28 11.07 160.82 20.04 C 156.72 18.51 154.27 14.71 151.20 11.82 C 148.36 8.72 144.69 6.23 142.96 2.27 Z" />
</g>
<g id="#76c397ff">
<path fill="#76c397" opacity="1.00" d=" M 84.00 23.04 C 92.51 14.75 103.02 8.70 113.93 4.15 L 113.93 4.97 C 113.91 6.15 113.92 7.34 113.93 8.53 C 103.05 11.16 93.14 16.72 84.00 23.04 Z" />
</g>
<g id="#34a968ff">
<path fill="#34a968" opacity="1.00" d=" M 113.93 4.15 C 114.39 4.05 115.31 3.86 115.77 3.76 C 115.31 4.06 114.39 4.67 113.93 4.97 L 113.93 4.15 Z" />
</g>
<g id="#014924ff">
<path fill="#014924" opacity="1.00" d=" M 35.12 30.00 C 41.76 29.97 48.39 29.99 55.02 29.98 C 54.39 31.65 53.78 33.32 53.14 34.99 C 50.43 34.96 47.72 34.96 45.01 34.97 C 44.41 36.63 43.83 38.30 43.25 39.96 C 45.68 39.97 48.10 39.98 50.53 39.99 C 50.04 41.49 49.54 42.98 49.02 44.47 C 46.57 44.48 44.12 44.49 41.67 44.51 C 40.41 48.07 39.21 51.66 37.92 55.22 C 35.13 54.96 31.54 56.05 29.55 53.49 C 28.01 51.69 28.57 49.07 29.23 47.03 C 31.17 41.34 33.16 35.67 35.12 30.00 Z" />
<path fill="#014924" opacity="1.00" d=" M 160.67 33.26 L 161.34 33.38 C 161.62 33.44 162.17 33.57 162.45 33.63 C 164.06 34.27 166.32 34.85 166.41 36.98 C 165.70 41.55 163.99 45.92 162.16 50.15 C 160.63 53.86 156.28 54.71 152.83 55.66 C 154.72 51.23 157.07 46.98 158.29 42.29 C 159.26 39.33 160.08 36.32 160.67 33.26 Z" />
</g>
<g id="#004924ff">
<path fill="#004924" opacity="1.00" d=" M 55.21 33.30 C 58.50 33.37 61.79 33.35 65.08 33.32 C 63.13 39.64 60.56 45.76 58.84 52.15 C 59.57 52.07 61.03 51.92 61.76 51.85 C 64.54 45.89 66.17 39.47 68.51 33.33 C 84.27 33.30 100.04 33.48 115.80 33.24 C 115.41 34.57 115.03 35.90 114.67 37.24 C 112.29 37.41 109.91 37.44 107.53 37.44 C 107.00 38.94 106.46 40.43 105.92 41.93 C 108.07 41.97 110.22 41.99 112.38 42.03 C 111.92 43.36 111.45 44.69 110.97 46.01 C 108.78 46.00 106.59 46.02 104.40 46.09 C 103.91 47.74 103.38 49.39 102.87 51.03 C 105.37 51.04 107.87 51.04 110.37 51.06 C 109.91 52.45 109.43 53.85 108.95 55.24 C 104.66 55.23 100.38 55.29 96.10 55.05 C 89.99 50.31 96.90 43.19 97.04 37.35 C 95.42 37.37 93.79 37.38 92.16 37.38 C 89.81 43.25 87.97 49.31 85.85 55.26 C 82.93 55.35 79.11 55.38 78.06 51.98 C 77.58 46.86 80.84 42.34 81.88 37.44 C 80.34 37.41 78.80 37.39 77.25 37.36 C 75.21 42.04 74.18 47.13 71.77 51.66 C 68.68 55.27 63.44 55.63 59.02 55.84 C 55.57 55.41 50.82 55.63 48.99 52.01 C 50.62 45.64 53.00 39.49 55.21 33.30 Z" />
<path fill="#004924" opacity="1.00" d=" M 118.40 33.36 C 124.62 33.47 130.94 32.90 137.09 34.13 C 136.50 37.41 135.00 40.36 133.33 43.18 C 132.74 47.92 129.69 51.61 126.83 55.21 C 123.53 55.19 120.22 55.37 116.93 55.08 C 114.09 54.98 112.25 51.69 113.09 49.10 C 114.59 43.77 116.73 38.64 118.40 33.36 M 127.21 36.91 C 126.63 38.60 126.04 40.27 125.47 41.96 C 128.44 43.09 131.24 39.90 130.04 37.18 C 129.33 37.11 127.92 36.98 127.21 36.91 M 124.44 45.05 C 123.61 47.33 122.81 49.62 122.08 51.94 C 125.83 52.62 127.09 48.96 127.81 46.04 C 126.70 45.67 125.57 45.34 124.44 45.05 Z" />
<path fill="#004924" opacity="1.00" d=" M 171.19 33.29 C 174.47 33.38 177.75 33.37 181.03 33.29 C 179.03 39.21 176.99 45.12 174.91 51.01 C 177.01 51.03 179.12 51.04 181.23 51.06 C 180.76 52.45 180.27 53.83 179.80 55.23 C 175.92 55.26 172.03 55.28 168.16 55.03 C 165.94 53.40 164.96 50.57 166.01 47.94 C 167.63 43.03 169.25 38.09 171.19 33.29 Z" />
<path fill="#004924" opacity="1.00" d=" M 22.26 57.98 C 26.16 57.92 30.06 57.95 33.95 57.94 C 30.89 66.32 28.23 74.83 25.09 83.18 C 22.50 82.85 19.24 83.94 17.21 81.83 C 15.26 80.22 15.69 77.34 16.37 75.22 C 18.31 69.47 20.44 63.77 22.26 57.98 Z" />
<path fill="#004924" opacity="1.00" d=" M 37.04 57.97 C 39.90 57.90 42.76 57.90 45.62 58.14 C 46.25 61.42 46.96 64.69 47.82 67.93 C 49.40 64.80 50.33 61.41 51.38 58.09 C 66.61 57.76 81.85 58.04 97.08 57.94 C 96.62 59.29 96.16 60.65 95.74 62.02 C 93.41 62.06 91.09 62.06 88.77 62.02 C 88.21 63.56 87.68 65.11 87.15 66.66 C 89.28 66.71 91.40 66.72 93.53 66.73 C 93.11 67.99 92.68 69.25 92.25 70.51 C 90.09 70.54 87.90 70.25 85.77 70.69 C 85.05 72.34 84.56 74.08 84.01 75.79 C 86.51 75.85 89.01 75.86 91.51 75.86 C 91.05 77.24 90.60 78.62 90.13 79.99 C 86.40 79.94 82.66 80.17 78.93 79.90 C 76.11 79.65 74.12 76.82 74.77 74.06 C 75.63 69.93 77.53 66.10 78.57 62.02 C 76.82 62.04 75.08 62.07 73.33 62.10 C 71.27 68.09 69.21 74.08 67.11 80.06 C 63.68 80.56 59.21 79.11 59.20 75.01 C 60.00 70.55 62.07 66.45 63.21 62.08 C 61.61 62.07 60.00 62.07 58.40 62.08 C 56.32 68.07 54.38 74.11 52.13 80.04 C 49.18 80.02 46.23 80.02 43.29 79.89 C 42.83 76.56 42.16 73.27 41.59 69.96 C 39.73 73.10 38.92 76.71 37.74 80.15 C 35.73 79.92 33.43 79.59 32.24 77.71 C 31.11 75.57 31.78 73.11 32.50 70.96 C 34.03 66.63 35.50 62.29 37.04 57.97 Z" />
<path fill="#004924" opacity="1.00" d=" M 99.36 58.04 C 104.61 57.89 109.86 57.89 115.10 58.10 C 117.34 58.31 120.62 58.90 120.83 61.69 C 119.66 63.83 117.62 65.31 116.01 67.10 C 115.50 67.40 114.47 67.99 113.96 68.28 C 111.88 69.81 109.90 71.48 107.94 73.15 C 108.01 72.36 108.15 70.78 108.22 69.98 C 107.48 69.99 105.99 70.00 105.25 70.01 C 104.73 71.67 104.22 73.34 103.77 75.02 C 102.50 77.51 100.11 79.01 97.54 79.91 C 95.19 79.02 93.33 76.44 94.09 73.87 C 95.63 68.53 97.80 63.38 99.36 58.04 M 108.43 61.34 C 107.78 63.07 107.14 64.80 106.54 66.54 C 109.57 67.56 111.44 64.62 111.26 61.92 C 110.31 61.72 109.37 61.53 108.43 61.34 Z" />
<path fill="#004924" opacity="1.00" d=" M 150.29 57.46 C 153.59 57.87 158.99 57.70 159.65 61.93 C 158.68 66.46 157.11 70.86 155.21 75.08 C 153.47 78.37 149.48 79.59 146.03 80.06 C 141.41 80.27 136.02 81.04 132.33 77.57 C 134.83 75.71 137.02 73.50 139.22 71.31 C 141.16 69.31 143.17 67.37 145.18 65.43 C 143.95 69.34 142.08 73.12 141.89 77.29 C 143.11 76.85 144.84 76.89 145.22 75.33 C 147.16 70.79 148.75 66.07 150.02 61.30 L 148.82 60.77 C 149.32 59.67 149.80 58.56 150.29 57.46 Z" />
<path fill="#004924" opacity="1.00" d=" M 164.10 57.95 C 169.42 57.99 174.75 57.83 180.06 58.13 C 181.92 58.18 183.55 59.14 185.13 60.03 C 184.97 62.00 185.21 64.18 183.86 65.81 C 182.56 67.85 179.96 68.00 177.84 68.55 C 179.32 68.98 180.78 69.48 182.22 70.06 C 181.71 73.53 180.46 76.81 179.17 80.05 C 176.09 79.99 173.02 79.99 169.95 80.01 C 171.11 76.80 172.43 73.60 173.03 70.22 C 172.28 70.15 170.78 70.00 170.03 69.93 C 168.78 73.22 167.60 76.55 166.63 79.93 C 164.28 80.03 161.52 80.25 159.80 78.32 C 158.05 76.41 158.68 73.54 159.43 71.33 C 161.00 66.88 162.50 62.40 164.10 57.95 M 173.11 61.23 C 172.32 63.06 171.68 64.95 171.13 66.87 C 174.12 67.20 175.75 64.80 176.10 62.14 C 175.10 61.84 174.11 61.53 173.11 61.23 Z" />
</g>
<g id="#b4cbbeff">
<path fill="#b4cbbe" opacity="1.00" d=" M 149.87 33.59 C 152.30 33.15 154.76 32.88 157.23 32.70 C 158.09 32.84 159.81 33.12 160.67 33.26 C 160.08 36.32 159.26 39.33 158.29 42.29 C 157.52 42.27 155.98 42.22 155.21 42.20 C 155.74 40.02 156.28 37.50 154.19 35.91 C 152.96 34.80 151.47 34.02 149.87 33.59 Z" />
</g>
<g id="#6b9681ff">
<path fill="#6b9681" opacity="1.00" d=" M 137.09 34.13 C 137.63 34.28 138.71 34.60 139.25 34.76 C 139.46 36.50 140.11 38.43 139.11 40.06 C 138.25 42.00 136.05 42.51 134.35 43.43 C 136.44 44.49 137.51 46.35 137.39 48.68 C 136.41 50.65 135.67 53.08 133.59 54.20 C 131.50 55.24 129.10 55.13 126.83 55.21 C 129.69 51.61 132.74 47.92 133.33 43.18 C 135.00 40.36 136.50 37.41 137.09 34.13 Z" />
</g>
<g id="#96b5a6ff">
<path fill="#96b5a6" opacity="1.00" d=" M 143.40 37.49 C 144.82 35.25 147.41 34.25 149.87 33.59 C 151.47 34.02 152.96 34.80 154.19 35.91 C 152.20 40.07 151.07 44.57 149.09 48.74 C 147.80 44.73 146.30 40.65 143.40 37.49 Z" />
</g>
<g id="#d3eedfff">
<path fill="#d3eedf" opacity="1.00" d=" M 149.09 48.74 C 151.07 44.57 152.20 40.07 154.19 35.91 C 156.28 37.50 155.74 40.02 155.21 42.20 C 153.59 45.82 153.55 51.75 148.79 52.58 C 148.88 51.30 148.98 50.02 149.09 48.74 Z" />
</g>
<g id="#83a594ff">
<path fill="#83a594" opacity="1.00" d=" M 143.40 37.49 C 146.30 40.65 147.80 44.73 149.09 48.74 C 148.98 50.02 148.88 51.30 148.79 52.58 C 153.55 51.75 153.59 45.82 155.21 42.20 C 155.98 42.22 157.52 42.27 158.29 42.29 C 157.07 46.98 154.72 51.23 152.83 55.66 C 148.00 56.59 142.69 56.02 138.54 53.23 C 139.17 47.73 141.18 42.53 143.40 37.49 Z" />
</g>
<g id="#fffeffff">
<path fill="#fffeff" opacity="1.00" d=" M 124.44 45.05 C 125.57 45.34 126.70 45.67 127.81 46.04 C 127.09 48.96 125.83 52.62 122.08 51.94 C 122.81 49.62 123.61 47.33 124.44 45.05 Z" />
<path fill="#fffeff" opacity="1.00" d=" M 173.11 61.23 C 174.11 61.53 175.10 61.84 176.10 62.14 C 175.75 64.80 174.12 67.20 171.13 66.87 C 171.68 64.95 172.32 63.06 173.11 61.23 Z" />
</g>
<g id="#81a593ff">
<path fill="#81a593" opacity="1.00" d=" M 124.87 57.98 C 128.30 57.96 131.73 57.91 135.17 57.81 C 134.49 59.83 133.82 61.86 133.18 63.89 C 130.29 62.85 126.99 62.50 124.57 60.46 C 124.65 59.84 124.79 58.60 124.87 57.98 Z" />
</g>
<g id="#81a78cff">
<path fill="#81a78c" opacity="1.00" d=" M 135.42 65.07 C 136.94 58.55 144.56 57.01 150.29 57.46 C 149.80 58.56 149.32 59.67 148.82 60.77 C 147.79 61.29 146.83 61.96 146.14 62.91 C 142.70 64.16 139.11 65.05 135.42 65.07 Z" />
</g>
<g id="#93b3a1ff">
<path fill="#93b3a1" opacity="1.00" d=" M 124.16 60.13 L 124.57 60.46 C 126.99 62.50 130.29 62.85 133.18 63.89 C 132.81 65.61 132.43 67.32 132.03 69.03 L 131.55 68.42 C 131.37 68.19 131.03 67.73 130.85 67.50 C 127.67 68.49 124.36 68.97 121.05 69.29 C 121.95 66.19 123.14 63.19 124.16 60.13 Z" />
</g>
<g id="#feffffff">
<path fill="#feffff" opacity="1.00" d=" M 146.14 62.91 C 146.83 61.96 147.79 61.29 148.82 60.77 L 150.02 61.30 C 148.75 66.07 147.16 70.79 145.22 75.33 C 144.84 76.89 143.11 76.85 141.89 77.29 C 142.08 73.12 143.95 69.34 145.18 65.43 C 145.50 64.59 145.82 63.75 146.14 62.91 Z" />
</g>
<g id="#8fb77aff">
<path fill="#8fb77a" opacity="1.00" d=" M 135.42 65.07 C 139.11 65.05 142.70 64.16 146.14 62.91 C 145.82 63.75 145.50 64.59 145.18 65.43 C 143.17 67.37 141.16 69.31 139.22 71.31 C 137.05 71.12 134.88 70.93 132.72 70.73 C 133.48 68.84 134.26 66.96 135.07 65.09 L 135.42 65.07 Z" />
</g>
<g id="#86af77ff">
<path fill="#86af77" opacity="1.00" d=" M 121.05 69.29 C 124.36 68.97 127.67 68.49 130.85 67.50 C 131.03 67.73 131.37 68.19 131.55 68.42 C 131.43 69.04 131.18 70.29 131.06 70.91 C 130.51 71.93 129.93 72.94 129.39 73.98 C 126.18 74.25 122.98 74.64 119.78 75.08 C 119.77 74.33 119.75 72.85 119.74 72.11 L 119.73 71.18 C 120.06 70.70 120.72 69.76 121.05 69.29 Z" />
</g>
<g id="#7ea685ff">
<path fill="#7ea685" opacity="1.00" d=" M 107.94 73.15 C 109.90 71.48 111.88 69.81 113.96 68.28 C 115.21 68.77 116.47 69.26 117.73 69.74 C 117.29 71.46 116.86 73.18 116.47 74.91 C 113.20 74.15 109.89 74.81 106.73 75.73 C 106.88 75.32 107.18 74.49 107.34 74.08 C 107.49 73.85 107.79 73.38 107.94 73.15 Z" />
</g>
<g id="#f0f5f2ff">
<path fill="#f0f5f2" opacity="1.00" d=" M 105.25 70.01 C 105.99 70.00 107.48 69.99 108.22 69.98 C 108.15 70.78 108.01 72.36 107.94 73.15 C 107.79 73.38 107.49 73.85 107.34 74.08 C 106.16 74.92 104.94 75.70 103.73 76.47 L 103.77 75.02 C 104.22 73.34 104.73 71.67 105.25 70.01 Z" />
</g>
<g id="#b1dc95ff">
<path fill="#b1dc95" opacity="1.00" d=" M 117.73 69.74 C 118.02 70.72 118.31 71.69 118.60 72.66 C 118.89 72.52 119.46 72.25 119.74 72.11 C 119.75 72.85 119.77 74.33 119.78 75.08 C 119.79 75.82 119.81 77.32 119.82 78.07 C 118.59 78.69 117.37 79.31 116.14 79.94 C 116.07 79.47 115.93 78.54 115.85 78.07 C 116.01 77.28 116.32 75.70 116.47 74.91 C 116.86 73.18 117.29 71.46 117.73 69.74 Z" />
</g>
<g id="#abd67fff">
<path fill="#abd67f" opacity="1.00" d=" M 129.39 73.98 C 129.93 72.94 130.51 71.93 131.06 70.91 C 131.44 71.16 132.18 71.65 132.56 71.89 C 132.27 73.93 131.99 75.97 131.75 78.02 C 130.52 78.79 129.31 79.58 128.08 80.34 C 128.39 78.19 128.77 76.06 129.39 73.98 Z" />
</g>
<g id="#85b762ff">
<path fill="#85b762" opacity="1.00" d=" M 132.72 70.73 C 134.88 70.93 137.05 71.12 139.22 71.31 C 137.02 73.50 134.83 75.71 132.33 77.57 L 131.75 78.02 C 131.99 75.97 132.27 73.93 132.56 71.89 L 132.72 70.73 Z" />
</g>
<g id="#98d18fff">
<path fill="#98d18f" opacity="1.00" d=" M 103.73 76.47 C 104.94 75.70 106.16 74.92 107.34 74.08 C 107.18 74.49 106.88 75.32 106.73 75.73 C 106.25 77.11 105.76 78.50 105.26 79.88 C 106.63 80.02 108.01 80.15 109.40 80.27 C 107.27 81.13 105.19 82.09 103.08 82.98 C 99.59 82.84 96.11 83.43 92.63 82.93 C 94.19 81.80 95.78 80.69 97.54 79.91 C 100.11 79.01 102.50 77.51 103.77 75.02 L 103.73 76.47 Z" />
</g>
<g id="#6ea060ff">
<path fill="#6ea060" opacity="1.00" d=" M 106.73 75.73 C 109.89 74.81 113.20 74.15 116.47 74.91 C 116.32 75.70 116.01 77.28 115.85 78.07 C 114.42 80.19 111.61 79.82 109.40 80.27 C 108.01 80.15 106.63 80.02 105.26 79.88 C 105.76 78.50 106.25 77.11 106.73 75.73 Z" />
</g>
<g id="#7baf55ff">
<path fill="#7baf55" opacity="1.00" d=" M 119.78 75.08 C 122.98 74.64 126.18 74.25 129.39 73.98 C 128.77 76.06 128.39 78.19 128.08 80.34 C 125.20 80.11 122.31 79.62 119.82 78.07 C 119.81 77.32 119.79 75.82 119.78 75.08 Z" />
</g>
<g id="#90cb62ff">
<path fill="#90cb62" opacity="1.00" d=" M 109.40 80.27 C 111.61 79.82 114.42 80.19 115.85 78.07 C 115.93 78.54 116.07 79.47 116.14 79.94 C 117.37 79.31 118.59 78.69 119.82 78.07 C 122.31 79.62 125.20 80.11 128.08 80.34 C 124.97 83.20 121.30 85.33 117.75 87.60 L 117.49 87.52 C 117.07 87.39 116.22 87.14 115.79 87.01 C 109.95 88.08 104.06 88.90 98.24 90.05 C 98.88 88.93 99.47 87.78 100.07 86.64 C 99.45 86.54 98.21 86.33 97.59 86.22 C 99.27 84.91 101.11 83.80 103.08 82.98 C 105.19 82.09 107.27 81.13 109.40 80.27 Z" />
</g>
<g id="#2ea652ff">
<path fill="#2ea652" opacity="1.00" d=" M 54.05 82.05 C 58.66 88.02 66.76 89.54 73.87 88.50 C 74.87 89.78 75.86 91.06 76.91 92.30 C 72.31 92.14 67.99 93.95 63.63 95.13 C 58.61 92.56 55.60 87.30 54.05 82.05 Z" />
</g>
<g id="#76c15cff">
<path fill="#76c15c" opacity="1.00" d=" M 92.63 82.93 C 96.11 83.43 99.59 82.84 103.08 82.98 C 101.11 83.80 99.27 84.91 97.59 86.22 C 98.21 86.33 99.45 86.54 100.07 86.64 C 99.47 87.78 98.88 88.93 98.24 90.05 C 96.47 91.34 94.59 92.57 92.36 92.82 C 88.88 93.38 85.33 93.46 81.93 92.44 C 83.57 91.47 85.17 90.42 86.77 89.37 C 84.48 88.68 82.18 87.98 79.85 87.43 C 84.21 86.19 88.36 84.33 92.63 82.93 Z" />
</g>
<g id="#7bc137ff">
<path fill="#7bc137" opacity="1.00" d=" M 98.24 90.05 C 104.06 88.90 109.95 88.08 115.79 87.01 C 116.22 87.14 117.07 87.39 117.49 87.52 C 109.32 92.40 100.37 96.68 90.90 98.02 C 90.48 98.00 89.62 97.94 89.20 97.92 C 91.29 96.97 92.13 95.02 92.36 92.82 C 94.59 92.57 96.47 91.34 98.24 90.05 Z" />
</g>
<g id="#5ab656ff">
<path fill="#5ab656" opacity="1.00" d=" M 73.87 88.50 C 75.85 88.09 77.83 87.62 79.85 87.43 C 82.18 87.98 84.48 88.68 86.77 89.37 C 85.17 90.42 83.57 91.47 81.93 92.44 C 81.55 92.61 80.79 92.95 80.41 93.12 C 79.24 92.87 78.07 92.59 76.91 92.30 C 75.86 91.06 74.87 89.78 73.87 88.50 Z" />
</g>
<g id="#49ad38ff">
<path fill="#49ad38" opacity="1.00" d=" M 63.63 95.13 C 67.99 93.95 72.31 92.14 76.91 92.30 C 78.07 92.59 79.24 92.87 80.41 93.12 C 80.63 96.01 78.28 97.89 75.89 98.99 C 71.60 98.96 67.26 97.41 63.63 95.13 Z" />
</g>
<g id="#66b835ff">
<path fill="#66b835" opacity="1.00" d=" M 80.41 93.12 C 80.79 92.95 81.55 92.61 81.93 92.44 C 85.33 93.46 88.88 93.38 92.36 92.82 C 92.13 95.02 91.29 96.97 89.20 97.92 C 89.62 97.94 90.48 98.00 90.90 98.02 C 88.35 98.87 85.77 100.54 82.99 99.82 C 80.66 99.24 78.30 98.83 75.89 98.99 C 78.28 97.89 80.63 96.01 80.41 93.12 Z" />
</g>
</svg>
