<?xml version="1.0" encoding="UTF-8" ?>
<!DOCTYPE svg PUBLIC "-//W3C//DTD SVG 1.1//EN" "http://www.w3.org/Graphics/SVG/1.1/DTD/svg11.dtd">
<svg width="600pt" height="451pt" viewBox="0 0 600 451" version="1.1" xmlns="http://www.w3.org/2000/svg">
<g id="#ffffffff">
</g>
<g id="#2f2e2aff">
<path fill="#2f2e2a" opacity="1.00" d=" M 21.09 69.38 C 28.28 69.55 36.15 68.36 42.59 72.33 C 48.55 75.97 50.36 83.47 50.39 90.00 C 50.39 111.53 50.41 133.07 50.38 154.61 C 58.11 139.94 71.92 127.55 88.85 125.44 C 104.64 123.98 121.48 126.16 135.02 134.94 C 145.32 141.55 152.61 152.12 156.50 163.61 C 160.39 174.95 161.65 187.05 161.53 198.99 C 161.52 232.05 161.53 265.11 161.53 298.17 C 154.25 298.05 146.38 298.86 139.77 295.17 C 134.46 292.21 132.51 285.77 132.58 280.04 C 132.53 252.02 132.64 224.00 132.53 195.99 C 132.21 184.61 130.32 172.33 122.60 163.45 C 115.56 155.33 104.38 152.52 94.02 152.35 C 82.72 151.79 71.45 156.49 63.49 164.44 C 54.09 173.66 49.78 187.04 49.74 200.01 C 49.72 232.72 49.73 265.44 49.74 298.15 C 42.46 298.01 34.52 299.01 27.98 295.10 C 22.85 292.04 21.07 285.72 21.14 280.07 C 21.09 209.84 21.19 139.61 21.09 69.38 Z" />
<path fill="#2f2e2a" opacity="1.00" d=" M 213.61 135.51 C 228.65 126.50 246.84 123.69 264.13 125.42 C 274.67 126.59 285.33 129.70 293.86 136.21 C 299.99 140.87 304.60 148.05 304.75 155.92 C 304.82 160.79 304.93 165.68 304.56 170.55 C 301.16 167.91 298.21 164.68 294.47 162.50 C 278.28 152.56 258.22 150.32 239.78 153.92 C 233.21 155.30 226.48 157.81 221.92 162.96 C 217.46 167.90 216.27 175.14 217.74 181.49 C 218.93 186.06 222.99 189.02 227.04 190.97 C 243.49 198.62 262.16 199.19 278.79 206.34 C 288.93 210.58 298.67 217.16 304.11 226.96 C 309.76 236.91 309.81 249.01 307.51 259.94 C 304.82 272.61 296.65 283.87 285.60 290.59 C 270.87 299.64 252.98 302.06 235.99 301.06 C 221.48 299.91 205.83 295.37 196.46 283.50 C 189.85 275.37 190.55 264.22 191.37 254.41 C 195.10 257.38 198.49 260.83 202.63 263.26 C 218.58 273.03 238.14 275.98 256.50 273.26 C 263.38 272.11 270.63 269.67 275.05 263.96 C 279.52 258.04 280.09 249.97 278.63 242.91 C 277.38 237.12 272.34 233.23 267.24 230.85 C 253.65 224.55 238.65 222.60 224.30 218.79 C 214.27 215.95 203.97 212.07 196.67 204.32 C 188.65 195.74 186.79 183.14 188.31 171.88 C 190.36 156.60 200.56 143.30 213.61 135.51 Z" />
<path fill="#2f2e2a" opacity="1.00" d=" M 397.04 125.30 C 411.39 123.91 426.67 126.10 438.82 134.30 C 446.84 139.57 452.97 147.25 457.55 155.60 C 467.31 139.52 484.30 127.78 503.08 125.44 C 516.87 123.95 531.36 125.69 543.86 131.93 C 557.39 138.65 566.78 151.79 571.03 166.06 C 577.21 185.09 575.44 205.33 575.70 225.01 C 575.70 249.39 575.70 273.77 575.71 298.16 C 568.30 297.97 559.86 299.37 553.65 294.33 C 547.23 289.36 546.00 280.64 546.41 273.04 C 546.43 253.02 546.41 233.01 546.42 213.00 C 546.45 198.63 547.04 183.53 540.81 170.19 C 537.13 162.01 529.69 155.62 520.91 153.59 C 512.40 151.63 503.37 151.97 494.93 154.14 C 487.68 156.07 481.05 160.63 477.24 167.17 C 471.57 176.72 470.50 188.14 470.30 199.02 C 470.27 232.07 470.30 265.11 470.28 298.16 C 462.86 297.89 454.58 299.35 448.05 294.95 C 442.28 290.99 441.00 283.49 440.96 276.98 C 440.86 250.99 440.99 225.01 440.89 199.02 C 440.62 186.49 437.85 173.23 429.45 163.51 C 422.72 155.69 412.19 151.96 402.02 152.34 C 391.96 152.29 381.24 155.61 374.79 163.73 C 366.88 173.60 365.25 186.78 364.83 199.01 C 364.75 232.06 364.82 265.11 364.80 298.16 C 357.38 298.04 349.02 299.16 342.71 294.33 C 337.08 290.14 335.36 282.67 335.51 275.99 C 335.53 249.67 335.48 223.34 335.53 197.01 C 335.68 178.41 341.80 159.41 354.56 145.59 C 365.42 133.68 381.05 126.60 397.04 125.30 Z" />
<path fill="#2f2e2a" opacity="1.00" d=" M 237.95 320.43 C 238.54 320.50 239.72 320.64 240.31 320.71 C 239.55 322.47 239.26 325.11 236.96 325.51 C 234.30 326.19 232.61 323.45 230.41 322.51 C 229.13 323.77 228.04 325.25 226.45 326.15 C 226.80 324.29 226.65 321.15 229.04 320.61 C 231.97 319.45 233.99 322.61 236.20 323.95 C 236.80 322.78 237.38 321.61 237.95 320.43 Z" />
<path fill="#2f2e2a" opacity="1.00" d=" M 122.50 331.45 C 127.45 326.11 136.39 325.75 142.26 329.73 C 144.32 331.02 144.10 333.66 144.45 335.76 C 143.71 335.84 142.22 335.99 141.48 336.07 C 141.41 335.23 141.26 333.56 141.19 332.72 C 136.76 329.26 129.99 328.84 125.65 332.66 C 118.94 338.32 120.55 350.70 128.69 354.22 C 133.64 356.56 139.29 354.43 143.16 351.04 C 143.60 351.61 144.47 352.75 144.91 353.32 C 139.56 358.41 130.72 359.88 124.58 355.37 C 117.13 350.04 116.10 337.99 122.50 331.45 Z" />
<path fill="#2f2e2a" opacity="1.00" d=" M 190.28 331.30 C 195.15 326.18 203.71 325.83 209.53 329.47 C 211.78 330.73 211.80 333.41 212.08 335.66 C 211.44 335.77 210.16 335.98 209.52 336.08 C 208.88 334.60 208.88 332.58 207.31 331.71 C 202.73 328.86 196.16 329.44 192.45 333.47 C 186.66 339.47 188.55 351.13 196.44 354.39 C 201.41 356.64 206.89 354.35 210.85 351.16 C 211.26 351.74 212.08 352.92 212.49 353.51 C 209.12 356.51 204.81 357.75 200.52 358.73 C 201.68 360.35 204.47 361.51 203.57 363.91 C 202.86 366.50 199.63 366.01 197.60 366.42 C 197.52 365.73 197.45 365.05 197.38 364.37 C 199.04 364.02 200.68 363.60 202.29 363.10 C 201.00 362.38 199.71 361.69 198.40 361.01 C 198.57 360.34 198.91 358.99 199.08 358.32 C 196.35 357.50 193.46 356.78 191.28 354.83 C 184.57 349.09 183.97 337.56 190.28 331.30 Z" />
<path fill="#2f2e2a" opacity="1.00" d=" M 264.41 327.64 C 272.28 325.21 281.48 330.04 283.48 338.11 C 286.17 346.67 280.10 356.84 271.05 357.89 C 262.93 359.42 254.73 353.06 253.71 344.97 C 252.30 337.57 257.08 329.59 264.41 327.64 M 264.49 330.74 C 258.53 332.91 255.29 340.06 257.19 346.04 C 258.69 352.22 265.58 356.68 271.81 354.78 C 278.11 353.16 281.97 346.16 280.65 339.91 C 279.57 332.73 271.24 327.85 264.49 330.74 Z" />
<path fill="#2f2e2a" opacity="1.00" d=" M 401.00 331.95 C 405.85 326.17 415.19 325.61 421.23 329.74 C 423.25 331.04 423.04 333.65 423.42 335.74 C 422.68 335.83 421.19 336.01 420.44 336.10 C 420.37 335.26 420.23 333.58 420.16 332.74 C 415.73 329.27 408.96 328.85 404.61 332.65 C 397.89 338.31 399.51 350.75 407.67 354.23 C 412.61 356.57 418.24 354.41 422.11 351.04 C 422.55 351.60 423.43 352.74 423.87 353.30 C 418.87 358.01 410.93 359.73 404.82 356.19 C 396.49 351.55 394.72 338.96 401.00 331.95 Z" />
<path fill="#2f2e2a" opacity="1.00" d=" M 17.82 327.60 C 24.26 327.78 30.74 327.23 37.16 327.89 C 37.58 329.63 37.65 331.42 37.81 333.20 C 37.07 333.22 35.58 333.25 34.84 333.26 C 34.80 332.53 34.71 331.06 34.67 330.33 C 31.00 330.26 27.33 330.28 23.66 330.28 C 23.68 333.90 23.68 337.51 23.69 341.13 C 27.42 341.13 31.16 341.11 34.89 341.14 C 34.90 341.79 34.91 343.08 34.92 343.73 C 31.17 343.74 27.42 343.73 23.67 343.74 C 23.68 347.42 23.66 351.10 23.73 354.79 C 27.61 354.84 31.50 354.80 35.38 354.85 C 35.81 353.00 36.66 351.50 38.79 351.45 C 38.75 353.37 38.81 355.34 38.31 357.23 C 32.59 357.58 26.68 357.98 21.03 357.03 C 20.25 348.17 20.88 339.20 20.72 330.30 C 19.99 330.29 18.54 330.28 17.81 330.28 C 17.81 329.61 17.82 328.27 17.82 327.60 Z" />
<path fill="#2f2e2a" opacity="1.00" d=" M 46.86 327.61 C 52.98 327.94 59.33 326.71 65.26 328.62 C 76.31 332.54 77.01 350.51 66.82 355.81 C 62.90 357.93 58.32 357.51 54.02 357.54 C 52.61 357.36 50.34 358.01 49.86 356.11 C 49.54 347.52 49.80 338.91 49.76 330.31 C 49.04 330.30 47.59 330.27 46.86 330.26 C 46.86 329.59 46.86 328.27 46.86 327.61 M 52.73 330.27 C 52.76 338.44 52.68 346.61 52.77 354.79 C 57.16 354.73 62.04 355.49 65.91 352.89 C 71.88 348.83 72.27 339.35 67.94 333.97 C 64.15 329.61 57.92 330.27 52.73 330.27 Z" />
<path fill="#2f2e2a" opacity="1.00" d=" M 82.27 327.47 C 84.10 327.95 87.04 326.73 87.94 329.00 C 88.62 335.95 87.53 343.01 88.47 349.93 C 89.99 355.85 98.81 356.97 102.41 352.40 C 103.63 350.92 103.97 348.96 104.09 347.11 C 104.37 341.09 103.85 335.04 104.28 329.04 C 104.85 326.64 108.08 327.99 109.87 327.51 C 109.87 328.09 109.88 329.25 109.88 329.83 C 109.21 330.06 107.88 330.53 107.21 330.76 C 106.71 337.42 107.86 344.21 106.63 350.80 C 104.51 358.88 92.60 360.49 87.48 354.45 C 86.22 352.96 85.36 351.10 85.23 349.15 C 84.82 343.02 85.48 336.85 84.92 330.73 C 84.25 330.50 82.89 330.02 82.21 329.78 C 82.22 329.21 82.25 328.05 82.27 327.47 Z" />
<path fill="#2f2e2a" opacity="1.00" d=" M 155.18 351.35 C 158.14 343.45 161.04 335.53 163.99 327.63 C 164.81 327.61 166.45 327.58 167.27 327.56 C 170.19 335.37 173.06 343.19 175.97 351.00 C 176.77 353.43 178.54 355.32 179.78 357.52 C 178.22 357.58 176.69 357.44 175.19 357.10 C 173.54 354.24 172.71 351.00 171.48 347.96 C 167.58 348.11 163.68 348.10 159.78 347.99 C 158.56 351.05 157.69 354.28 156.01 357.14 C 154.53 357.57 152.96 357.44 151.45 357.54 C 152.63 355.43 154.38 353.66 155.18 351.35 M 165.67 331.09 C 164.11 335.90 162.33 340.65 160.53 345.38 C 163.94 345.38 167.35 345.38 170.76 345.38 C 168.95 340.65 167.10 335.94 165.67 331.09 Z" />
<path fill="#2f2e2a" opacity="1.00" d=" M 222.90 351.11 C 225.82 343.25 228.71 335.39 231.64 327.54 C 232.47 327.57 234.11 327.62 234.93 327.65 C 238.21 336.54 241.52 345.42 244.82 354.31 C 245.35 354.60 246.42 355.18 246.95 355.48 C 246.82 356.07 246.56 357.27 246.43 357.87 C 244.95 357.37 242.75 357.72 242.17 355.89 C 240.96 353.38 240.16 350.70 239.19 348.10 C 235.24 347.91 231.28 347.87 227.33 348.10 C 226.29 350.82 225.46 353.64 224.13 356.25 C 223.29 358.22 220.68 357.14 219.12 357.50 C 220.34 355.34 222.10 353.49 222.90 351.11 M 233.19 331.00 C 231.80 335.89 229.95 340.63 228.14 345.38 C 231.55 345.39 234.96 345.38 238.38 345.39 C 236.54 340.63 234.73 335.86 233.19 331.00 Z" />
<path fill="#2f2e2a" opacity="1.00" d=" M 309.70 327.59 C 316.15 327.79 322.65 327.20 329.08 327.92 C 329.42 329.66 329.51 331.43 329.66 333.20 C 328.92 333.22 327.44 333.24 326.70 333.26 C 326.66 332.52 326.58 331.06 326.54 330.33 C 322.87 330.26 319.20 330.28 315.54 330.28 C 315.56 333.89 315.55 337.51 315.56 341.14 C 319.30 341.13 323.03 341.12 326.77 341.12 C 326.77 341.78 326.78 343.09 326.78 343.74 C 323.03 343.74 319.29 343.73 315.55 343.74 C 315.56 347.41 315.53 351.08 315.59 354.76 C 319.54 354.78 323.51 355.03 327.45 354.66 C 327.72 353.85 328.27 352.24 328.54 351.43 C 331.76 351.62 330.73 355.22 330.08 357.22 C 324.37 357.69 318.55 357.78 312.86 357.15 C 312.14 348.23 312.73 339.24 312.57 330.30 C 311.85 330.29 310.42 330.29 309.70 330.29 C 309.70 329.61 309.70 328.27 309.70 327.59 Z" />
<path fill="#2f2e2a" opacity="1.00" d=" M 337.73 327.34 C 339.47 327.78 341.89 327.27 342.87 329.19 C 345.21 332.56 347.11 336.20 349.13 339.77 C 351.27 336.08 353.19 332.22 355.75 328.79 C 357.02 326.87 359.65 327.97 361.49 327.70 C 357.04 331.67 354.14 336.86 351.09 341.93 C 354.36 347.10 357.47 352.37 360.75 357.53 C 359.86 357.53 358.07 357.51 357.17 357.51 C 354.46 353.00 351.70 348.52 349.07 343.97 C 346.60 348.60 343.78 353.04 341.09 357.54 C 339.90 357.53 338.71 357.52 337.52 357.52 C 340.80 352.36 343.92 347.10 347.14 341.91 C 343.97 337.87 342.72 331.79 337.67 329.63 C 337.68 329.06 337.71 327.91 337.73 327.34 Z" />
<path fill="#2f2e2a" opacity="1.00" d=" M 368.30 327.60 C 374.53 327.72 380.78 327.36 387.00 327.76 C 388.60 329.07 387.93 331.41 388.30 333.21 C 387.56 333.22 386.06 333.24 385.32 333.26 C 385.28 332.52 385.20 331.06 385.16 330.32 C 381.50 330.26 377.83 330.27 374.17 330.29 C 374.19 333.90 374.19 337.51 374.21 341.13 C 377.93 341.13 381.65 341.14 385.38 341.09 C 385.38 341.76 385.39 343.10 385.40 343.77 C 381.65 343.73 377.91 343.73 374.17 343.74 C 374.20 347.41 374.18 351.08 374.21 354.75 C 378.25 354.85 382.29 354.83 386.33 354.79 C 386.38 354.05 386.47 352.58 386.52 351.84 C 387.24 351.85 388.68 351.87 389.40 351.87 C 389.06 353.70 389.79 356.06 388.11 357.38 C 382.69 357.60 377.24 357.69 371.83 357.30 C 370.96 355.65 371.22 353.74 371.16 351.96 C 371.22 344.74 371.17 337.52 371.20 330.30 C 370.48 330.29 369.04 330.28 368.31 330.28 C 368.31 329.61 368.30 328.27 368.30 327.60 Z" />
<path fill="#2f2e2a" opacity="1.00" d=" M 431.94 327.52 C 433.76 328.01 437.03 326.61 437.68 329.01 C 438.34 335.95 437.18 343.01 438.27 349.90 C 439.99 357.00 451.78 356.90 453.49 349.84 C 454.44 342.91 453.42 335.87 454.00 328.91 C 455.06 326.82 457.81 327.90 459.66 327.46 C 459.67 328.05 459.71 329.22 459.72 329.81 C 459.04 330.04 457.69 330.50 457.01 330.73 C 456.42 337.29 457.42 343.95 456.52 350.49 C 454.68 358.74 442.63 360.59 437.39 354.57 C 435.50 352.55 434.84 349.71 434.84 347.02 C 434.79 341.50 434.86 335.98 434.85 330.46 C 434.12 330.40 432.67 330.26 431.94 330.19 C 431.94 329.52 431.94 328.19 431.94 327.52 Z" />
<path fill="#2f2e2a" opacity="1.00" d=" M 467.03 333.21 C 467.34 331.43 466.71 329.24 467.93 327.76 C 475.30 327.42 482.70 327.63 490.08 327.64 C 493.08 327.46 491.91 331.39 492.36 333.22 C 491.63 333.23 490.15 333.24 489.42 333.24 C 489.40 332.51 489.35 331.05 489.33 330.32 C 486.62 330.28 483.90 330.27 481.19 330.29 C 481.24 339.37 481.20 348.46 481.22 357.55 C 480.46 357.53 478.93 357.51 478.17 357.50 C 478.25 348.42 478.19 339.34 478.21 330.27 C 475.45 330.27 472.70 330.28 469.95 330.35 C 469.91 331.07 469.84 332.52 469.81 333.24 C 468.87 333.23 467.95 333.22 467.03 333.21 Z" />
<path fill="#2f2e2a" opacity="1.00" d=" M 499.88 327.61 C 502.80 327.60 505.72 327.59 508.64 327.60 C 508.64 328.27 508.63 329.61 508.63 330.28 C 507.90 330.29 506.43 330.29 505.69 330.30 C 505.72 338.47 505.70 346.65 505.71 354.82 C 506.43 354.82 507.88 354.81 508.60 354.81 C 508.61 355.49 508.64 356.85 508.66 357.53 C 505.73 357.52 502.81 357.51 499.89 357.50 C 499.90 356.83 499.91 355.51 499.91 354.84 C 500.64 354.83 502.10 354.80 502.83 354.79 C 502.79 346.63 502.78 338.48 502.84 330.32 C 502.11 330.31 500.64 330.27 499.91 330.25 C 499.90 329.59 499.89 328.27 499.88 327.61 Z" />
<path fill="#2f2e2a" opacity="1.00" d=" M 515.69 327.59 C 516.77 327.65 518.91 327.77 519.99 327.83 C 521.20 329.50 521.80 331.50 522.53 333.42 C 524.92 340.27 527.63 347.02 529.83 353.94 C 532.36 345.67 535.49 337.58 538.57 329.49 C 539.17 327.10 541.99 327.75 543.81 327.56 C 542.61 329.79 540.96 331.77 540.12 334.19 C 537.21 341.99 534.35 349.81 531.39 357.59 C 530.58 357.56 528.95 357.50 528.13 357.47 C 525.29 349.84 522.44 342.22 519.63 334.59 C 518.79 332.01 517.07 329.88 515.69 327.59 Z" />
<path fill="#2f2e2a" opacity="1.00" d=" M 551.19 351.36 C 554.14 343.45 557.06 335.53 559.99 327.62 C 560.81 327.60 562.45 327.58 563.27 327.57 C 566.20 335.40 569.08 343.24 572.00 351.08 C 572.82 353.47 574.55 355.34 575.79 357.51 C 574.21 357.59 572.67 357.44 571.17 357.07 C 569.54 354.19 568.70 350.97 567.46 347.92 C 563.57 348.09 559.67 348.12 555.78 347.99 C 554.53 351.07 553.70 354.35 551.96 357.21 C 550.83 357.29 548.56 357.45 547.43 357.53 C 548.62 355.43 550.37 353.66 551.19 351.36 M 561.67 331.08 C 560.12 335.91 558.33 340.65 556.53 345.39 C 559.94 345.38 563.35 345.38 566.77 345.38 C 564.95 340.66 563.10 335.94 561.67 331.08 Z" />
</g>
</svg>
