<?xml version="1.0" encoding="UTF-8" ?>
<!DOCTYPE svg PUBLIC "-//W3C//DTD SVG 1.1//EN" "http://www.w3.org/Graphics/SVG/1.1/DTD/svg11.dtd">
<svg width="600pt" height="451pt" viewBox="0 0 600 451" version="1.1" xmlns="http://www.w3.org/2000/svg">
<g id="#ffffffff">
<path fill="#ffffff" opacity="1.00" d=" M 21.38 69.61 C 27.80 69.83 34.55 68.92 40.60 71.65 C 43.99 72.98 46.32 75.94 48.08 79.00 C 49.30 82.55 49.99 86.27 50.15 90.02 C 50.22 111.17 50.07 132.33 50.23 153.49 C 51.94 152.86 52.76 151.23 53.69 149.80 C 58.90 141.46 66.25 134.39 75.06 129.94 C 81.31 127.15 88.06 125.23 94.95 125.36 C 105.10 125.05 115.32 126.52 124.86 130.06 C 137.13 134.72 147.29 144.18 153.03 155.97 C 154.05 158.34 155.05 160.73 156.02 163.12 C 159.44 173.07 160.87 183.58 161.26 194.05 C 161.29 228.64 161.21 263.23 161.29 297.82 C 154.84 298.18 148.26 297.84 142.01 296.08 C 135.63 293.47 132.72 286.55 132.83 280.01 C 132.77 252.02 132.86 224.02 132.79 196.03 C 132.81 188.47 131.64 180.92 129.19 173.77 C 126.41 166.81 121.64 160.61 115.06 156.87 C 102.06 150.65 85.87 150.04 72.98 156.87 C 64.55 161.59 57.90 169.08 53.85 177.82 C 50.85 185.16 49.29 193.08 49.43 201.02 C 49.47 233.29 49.38 265.57 49.47 297.84 C 42.35 297.68 34.61 298.55 28.16 294.86 C 23.12 291.85 21.43 285.59 21.45 280.07 C 21.39 209.91 21.54 139.76 21.38 69.61 Z" />
<path fill="#ffffff" opacity="1.00" d=" M 223.15 131.09 C 238.75 124.99 256.21 123.67 272.57 127.16 C 279.42 128.64 285.99 131.32 291.91 135.07 C 295.90 138.07 299.52 141.64 301.96 146.04 C 305.67 153.60 304.30 162.17 304.35 170.27 C 301.19 167.16 297.89 164.20 294.13 161.82 C 290.01 159.42 285.63 157.54 281.18 155.85 C 267.64 151.41 252.98 151.07 239.05 153.71 C 231.61 155.34 223.76 158.69 219.68 165.49 C 216.30 170.72 216.67 177.32 217.68 183.21 C 221.18 189.09 227.61 191.97 233.81 194.12 C 234.82 194.43 235.84 194.76 236.85 195.11 C 248.36 198.69 260.37 200.35 271.84 204.09 C 275.68 205.36 279.41 206.94 283.08 208.63 C 292.09 213.14 300.49 219.77 304.85 229.08 C 310.43 241.16 309.41 255.46 304.75 267.67 C 299.48 281.24 287.37 291.12 273.88 295.92 C 272.87 296.26 271.86 296.59 270.86 296.92 C 254.48 301.81 236.64 302.60 220.12 297.91 C 219.11 297.61 218.11 297.31 217.12 297.01 C 215.02 296.18 212.93 295.33 210.85 294.46 C 203.90 291.00 197.57 285.96 193.91 278.99 C 190.26 271.40 191.52 262.81 191.52 254.68 C 194.75 257.76 198.09 260.72 201.81 263.19 C 202.87 263.80 203.93 264.42 205.00 265.04 C 206.29 265.72 207.59 266.41 208.89 267.10 C 224.50 274.44 242.35 276.05 259.26 273.23 C 262.23 272.30 265.20 271.35 268.09 270.16 C 271.16 268.30 274.03 266.07 276.17 263.15 C 276.83 261.83 277.50 260.53 278.19 259.23 C 279.79 254.19 280.00 248.77 279.20 243.57 C 278.23 238.43 274.35 234.56 270.07 231.90 C 268.75 231.25 267.43 230.58 266.13 229.91 C 264.48 229.23 262.83 228.57 261.17 227.92 C 260.16 227.59 259.15 227.24 258.15 226.89 C 245.40 222.64 231.97 221.03 219.19 216.90 C 215.73 215.76 212.35 214.38 209.05 212.85 C 202.24 209.55 196.14 204.58 192.39 197.93 L 192.06 197.14 C 185.28 182.59 187.53 164.59 196.71 151.58 C 201.38 144.67 207.88 139.24 215.01 135.01 C 217.66 133.58 220.36 132.24 223.15 131.09 Z" />
<path fill="#ffffff" opacity="1.00" d=" M 373.17 132.12 C 389.12 124.57 407.90 123.27 424.83 128.06 C 425.84 128.39 426.86 128.72 427.88 129.06 C 432.50 130.86 436.89 133.21 440.93 136.09 C 445.90 140.12 450.35 144.80 453.92 150.12 C 455.00 151.88 456.04 153.67 456.96 155.53 L 458.06 155.58 C 464.05 145.25 473.34 137.06 483.92 131.61 C 500.94 123.13 521.37 123.66 538.98 130.03 C 547.21 133.44 554.83 138.65 560.27 145.78 C 564.00 150.37 566.68 155.68 568.99 161.10 C 574.67 176.03 575.79 192.19 575.41 208.02 C 575.44 237.95 575.34 267.87 575.46 297.79 C 569.60 298.11 563.48 298.33 557.87 296.39 C 553.89 294.91 550.96 291.58 548.89 287.98 C 547.64 284.43 546.67 280.73 546.69 276.94 C 546.68 250.94 546.72 224.93 546.67 198.93 C 546.70 190.77 545.53 182.63 543.16 174.82 C 542.30 172.81 541.44 170.79 540.45 168.85 C 540.41 168.63 540.34 168.20 540.30 167.98 C 537.14 163.13 533.26 158.66 528.10 155.89 C 526.47 155.21 524.86 154.51 523.26 153.81 C 517.01 151.89 510.39 151.95 503.93 152.29 C 495.95 152.74 487.87 155.35 481.90 160.82 C 478.97 163.72 476.70 167.16 474.84 170.81 C 471.14 179.71 470.06 189.42 470.09 198.98 C 470.07 231.92 470.08 264.86 470.09 297.79 C 464.43 298.32 458.73 297.80 453.12 297.09 C 448.57 295.60 444.73 292.46 442.92 287.96 C 440.79 281.50 441.48 274.66 441.38 267.98 C 441.39 245.98 441.36 223.98 441.40 201.99 C 441.15 193.12 440.24 184.18 437.17 175.79 C 435.98 173.08 434.64 170.42 433.19 167.84 C 430.23 163.50 426.50 159.74 422.10 156.88 C 420.76 156.20 419.44 155.52 418.13 154.82 C 407.22 150.72 394.57 151.11 383.93 155.86 C 381.00 157.53 378.31 159.56 375.90 161.91 C 374.02 164.09 372.35 166.45 370.87 168.92 C 365.57 179.43 364.40 191.43 364.49 203.04 C 364.52 234.62 364.42 266.21 364.54 297.80 C 358.66 298.08 352.50 298.26 346.87 296.28 C 342.91 294.85 339.92 291.63 337.91 288.02 C 336.69 284.44 335.76 280.72 335.77 276.92 C 335.78 250.28 335.76 223.64 335.77 197.00 C 335.97 188.23 337.36 179.49 340.08 171.14 C 345.48 154.50 357.28 139.77 373.17 132.12 Z" />
<path fill="#ffffff" opacity="1.00" d=" M 227.71 321.55 C 228.89 321.16 230.08 320.39 231.37 320.71 C 233.30 321.88 234.73 324.00 237.23 323.91 C 237.39 323.10 237.72 321.49 237.88 320.69 C 238.37 320.73 239.36 320.80 239.85 320.84 C 239.43 322.11 238.98 323.37 238.51 324.64 C 234.69 327.27 232.56 321.52 228.90 322.46 C 228.78 323.19 228.54 324.66 228.42 325.39 C 227.84 325.29 227.25 325.19 226.67 325.10 C 227.02 323.92 227.37 322.73 227.71 321.55 Z" />
<path fill="#ffffff" opacity="1.00" d=" M 82.61 327.66 C 84.29 327.84 85.96 328.06 87.62 328.37 C 87.71 334.66 87.59 340.96 87.67 347.25 C 87.65 349.42 88.80 351.35 89.69 353.26 C 92.98 355.78 97.41 356.27 101.10 354.26 C 101.79 353.50 102.50 352.76 103.22 352.03 C 103.73 350.61 104.43 349.20 104.42 347.66 C 104.57 341.22 104.35 334.77 104.51 328.32 C 106.30 328.03 108.11 327.83 109.92 327.73 C 110.04 329.85 108.31 330.23 106.63 330.56 C 106.50 337.66 107.17 344.82 106.18 351.87 C 102.29 360.19 87.85 359.59 85.69 350.29 C 85.10 343.68 85.60 337.01 85.45 330.37 C 84.69 330.23 83.18 329.96 82.42 329.82 C 82.47 329.28 82.56 328.20 82.61 327.66 Z" />
<path fill="#ffffff" opacity="1.00" d=" M 231.79 327.83 C 232.72 327.82 233.66 327.80 234.60 327.80 C 235.42 329.90 236.20 332.02 236.97 334.15 C 237.95 336.80 238.95 339.44 239.90 342.11 C 240.93 344.77 241.93 347.45 242.89 350.15 C 243.49 351.67 244.08 353.20 244.68 354.73 C 245.30 355.04 246.54 355.65 247.16 355.96 C 245.58 358.43 243.00 357.09 241.92 355.12 C 241.24 352.55 240.28 350.07 239.38 347.57 C 235.27 347.64 231.17 347.58 227.06 347.63 C 226.69 348.73 226.32 349.83 225.94 350.93 C 224.82 353.74 224.24 358.10 220.20 357.51 C 220.20 356.93 220.19 355.77 220.19 355.19 C 220.67 355.01 221.63 354.63 222.11 354.45 C 223.01 351.64 224.04 348.88 225.12 346.14 C 226.07 343.45 227.07 340.76 228.10 338.10 C 229.07 335.42 230.04 332.75 231.12 330.12 C 231.28 329.54 231.62 328.40 231.79 327.83 M 232.99 331.33 C 232.21 333.15 231.54 335.02 230.83 336.86 C 229.83 339.78 228.72 342.67 227.83 345.63 C 231.51 345.72 235.19 345.71 238.88 345.64 C 238.29 344.04 237.68 342.47 237.10 340.88 C 235.69 337.71 235.16 334.11 232.99 331.33 Z" />
<path fill="#ffffff" opacity="1.00" d=" M 264.08 327.90 C 268.06 327.06 272.19 327.34 275.94 328.95 C 283.22 333.01 285.65 342.57 282.05 349.92 C 279.12 354.70 273.83 358.20 268.06 357.65 C 258.64 357.77 251.68 347.28 254.34 338.53 C 255.37 333.48 259.48 329.79 264.08 327.90 M 258.06 335.52 L 257.90 335.40 C 257.51 336.54 257.08 337.65 256.60 338.75 C 255.97 342.81 256.38 346.98 258.68 350.47 C 259.62 351.43 260.57 352.39 261.53 353.35 C 266.11 356.60 272.02 355.95 276.66 353.20 L 276.23 352.67 C 276.60 352.32 277.34 351.63 277.71 351.29 L 278.16 351.65 C 278.68 350.58 279.21 349.52 279.74 348.47 L 280.34 348.71 C 281.03 344.78 281.29 340.75 280.39 336.83 C 279.56 335.72 278.77 334.61 278.03 333.45 L 277.84 333.65 C 277.45 333.29 276.67 332.56 276.28 332.19 L 276.62 331.82 C 274.13 330.89 271.73 329.35 268.99 329.49 C 264.61 329.41 260.38 331.83 258.06 335.52 Z" />
<path fill="#ffffff" opacity="1.00" d=" M 338.79 327.54 C 341.99 327.83 343.62 330.42 344.95 333.06 C 346.24 335.26 347.52 337.46 348.69 339.74 L 350.53 339.38 L 350.19 338.22 C 352.37 335.11 353.92 331.58 356.25 328.57 C 357.54 328.09 358.90 327.86 360.25 327.59 C 360.30 328.14 360.41 329.25 360.46 329.80 C 359.57 330.02 358.68 330.24 357.80 330.46 C 355.57 334.31 352.89 337.92 350.95 341.94 C 351.76 343.73 352.86 345.38 353.89 347.07 C 355.56 349.76 357.23 352.46 358.84 355.19 C 359.33 355.87 359.83 356.56 360.32 357.25 C 359.60 357.27 358.16 357.30 357.44 357.32 C 356.32 355.51 355.23 353.68 354.13 351.85 C 352.62 349.41 351.11 346.96 349.86 344.37 C 349.50 344.36 348.77 344.33 348.40 344.32 C 347.63 345.89 346.81 347.44 345.94 348.96 C 344.90 350.60 343.89 352.27 342.88 353.93 C 342.23 355.03 341.59 356.14 340.95 357.26 C 339.94 357.26 338.93 357.28 337.93 357.30 C 338.65 356.23 339.38 355.18 340.10 354.11 C 342.53 350.03 344.95 345.93 347.59 341.98 C 345.27 338.27 342.94 334.58 340.80 330.77 C 339.67 330.26 338.55 329.77 337.44 329.25 C 337.78 328.82 338.45 327.97 338.79 327.54 Z" />
<path fill="#ffffff" opacity="1.00" d=" M 405.03 328.91 C 408.78 327.26 412.92 327.13 416.91 327.88 C 418.81 328.90 421.27 329.45 422.38 331.49 C 422.72 332.80 422.92 334.15 423.16 335.48 C 422.57 335.55 421.37 335.69 420.77 335.76 C 421.36 331.48 416.57 329.99 413.20 329.61 C 409.70 329.06 406.53 330.85 403.77 332.77 C 400.02 336.66 399.64 342.25 400.67 347.30 C 402.84 351.61 406.78 355.62 411.94 355.52 C 414.90 355.82 417.55 354.40 420.11 353.14 C 420.70 352.49 421.29 351.85 421.88 351.22 C 422.41 351.91 422.94 352.60 423.48 353.29 C 418.73 357.56 411.82 358.89 405.86 356.52 C 400.58 353.70 397.28 347.87 397.55 341.89 C 397.57 336.59 400.62 331.72 405.03 328.91 Z" />
<path fill="#ffffff" opacity="1.00" d=" M 454.35 328.35 C 456.02 328.06 457.71 327.84 459.40 327.68 C 459.40 328.26 459.40 329.43 459.40 330.02 C 458.69 330.07 457.27 330.18 456.55 330.24 C 456.53 336.17 456.60 342.10 456.54 348.03 C 456.46 350.28 455.84 353.02 453.63 354.09 L 453.02 353.90 C 452.30 351.82 454.10 349.83 454.07 347.73 C 454.65 341.29 454.12 334.81 454.35 328.35 Z" />
<path fill="#ffffff" opacity="1.00" d=" M 18.18 327.81 C 24.54 328.16 31.00 327.20 37.29 328.40 C 37.32 330.08 37.33 331.76 37.30 333.45 C 35.35 333.31 34.87 331.67 34.47 330.05 C 30.78 330.11 27.08 330.06 23.39 330.08 C 23.37 333.88 23.40 337.68 23.38 341.48 C 27.15 341.41 30.92 341.47 34.70 341.39 L 34.65 343.49 C 30.89 343.41 27.13 343.45 23.37 343.42 C 23.41 347.25 23.35 351.09 23.45 354.92 C 27.71 354.94 31.99 355.23 36.23 354.76 C 36.29 354.10 36.40 352.77 36.45 352.11 L 38.52 352.21 C 38.48 353.33 38.41 355.56 38.37 356.68 C 32.82 357.84 27.06 357.08 21.43 357.17 C 20.33 348.22 21.16 339.16 20.90 330.16 C 20.25 330.14 18.93 330.09 18.27 330.06 C 18.25 329.50 18.20 328.37 18.18 327.81 Z" />
<path fill="#ffffff" opacity="1.00" d=" M 47.20 327.82 C 54.72 328.30 63.68 326.04 69.74 331.78 C 76.05 338.65 74.79 351.78 66.01 356.05 C 60.97 357.64 55.66 357.32 50.45 357.16 C 49.32 348.28 50.26 339.27 49.89 330.35 C 49.22 330.20 47.90 329.92 47.24 329.78 C 47.23 329.29 47.21 328.31 47.20 327.82 M 52.48 330.09 C 52.50 338.37 52.40 346.65 52.54 354.93 C 56.40 354.91 60.41 355.44 64.13 354.17 C 72.30 350.86 73.29 338.40 67.09 332.82 C 63.12 329.20 57.39 330.22 52.48 330.09 Z" />
<path fill="#ffffff" opacity="1.00" d=" M 126.77 328.57 C 130.32 327.28 134.13 327.21 137.83 327.83 C 139.76 328.83 142.11 329.44 143.38 331.35 C 143.83 332.68 144.01 334.09 144.27 335.48 C 143.66 335.54 142.46 335.67 141.85 335.74 C 141.76 333.88 141.17 332.18 139.63 331.05 L 139.49 330.82 C 135.68 329.57 131.55 329.00 127.76 330.69 C 126.78 331.43 125.80 332.16 124.81 332.89 C 121.06 336.69 120.66 342.24 121.69 347.24 C 123.44 350.31 125.59 353.55 129.11 354.74 C 132.38 356.22 136.05 355.41 139.30 354.27 C 140.65 353.26 141.97 352.21 143.29 351.17 C 143.47 351.85 143.81 353.19 143.98 353.86 C 139.19 357.51 132.51 359.03 126.91 356.36 C 119.29 352.85 116.50 342.58 120.21 335.30 C 121.50 332.32 124.14 330.30 126.77 328.57 Z" />
<path fill="#ffffff" opacity="1.00" d=" M 162.96 331.12 C 163.63 329.13 164.50 327.17 167.02 327.63 C 167.62 330.13 169.96 332.89 167.44 335.27 C 167.05 334.26 166.26 332.23 165.87 331.22 C 164.61 333.29 163.71 335.56 162.80 337.81 C 161.95 340.44 160.99 343.04 160.07 345.66 C 163.75 345.71 167.44 345.72 171.13 345.63 C 170.50 343.70 169.82 341.79 169.15 339.88 C 168.55 338.35 167.97 336.82 167.44 335.27 L 168.89 332.81 C 169.88 335.58 170.90 338.34 171.94 341.10 C 172.95 343.77 173.94 346.44 174.87 349.14 C 175.71 352.23 177.56 354.75 179.36 357.32 C 176.63 358.02 174.62 356.46 173.94 353.95 C 173.31 351.84 172.55 349.77 171.93 347.66 C 167.80 347.56 163.68 347.64 159.56 347.58 C 159.03 349.00 158.51 350.42 158.01 351.86 C 157.28 353.74 156.50 355.62 155.37 357.30 C 154.68 357.30 153.31 357.29 152.62 357.29 C 152.52 356.92 152.33 356.18 152.23 355.81 C 155.58 354.24 155.65 350.10 157.12 347.14 C 158.09 344.45 159.08 341.77 160.10 339.11 C 161.06 336.44 162.09 333.81 162.96 331.12 Z" />
<path fill="#ffffff" opacity="1.00" d=" M 196.15 327.85 C 200.78 327.06 205.96 327.21 209.87 330.10 C 211.65 331.38 211.48 333.69 211.68 335.62 C 211.16 335.65 210.11 335.70 209.59 335.73 C 209.26 334.38 208.85 333.06 208.43 331.74 C 205.11 330.11 201.31 328.76 197.62 330.01 C 194.79 330.70 192.64 332.74 190.70 334.79 C 188.13 339.63 188.23 345.37 190.74 350.21 C 191.97 351.46 193.23 352.68 194.57 353.83 L 194.54 354.15 C 198.54 355.97 203.15 356.03 207.16 354.20 C 208.39 353.28 209.60 352.34 210.80 351.38 C 211.20 352.08 211.60 352.77 212.01 353.47 C 208.89 356.05 205.11 357.67 201.05 357.93 C 200.85 358.36 200.45 359.23 200.25 359.66 C 201.36 360.30 202.40 361.04 203.38 361.88 C 203.62 363.18 202.88 364.32 202.43 365.49 C 200.52 365.83 198.37 366.40 196.92 364.68 C 198.52 364.50 200.11 364.36 201.71 364.26 C 202.13 361.92 200.66 361.16 198.61 360.99 C 198.98 359.92 199.33 358.84 199.69 357.78 C 195.45 357.56 191.56 355.34 188.98 352.01 C 188.30 350.62 187.61 349.23 186.91 347.85 C 186.06 343.83 186.01 339.56 187.50 335.67 C 187.58 335.58 187.73 335.39 187.81 335.30 C 189.43 331.71 192.66 329.41 196.15 327.85 Z" />
<path fill="#ffffff" opacity="1.00" d=" M 309.06 329.05 C 310.69 327.44 313.00 327.89 315.04 327.81 C 319.07 327.84 323.10 327.84 327.13 327.82 C 327.63 328.02 328.65 328.43 329.15 328.63 C 329.19 329.69 329.26 331.80 329.29 332.85 C 328.76 332.84 327.71 332.82 327.18 332.80 C 327.02 332.15 326.71 330.85 326.55 330.20 C 322.81 329.91 319.05 330.12 315.31 330.10 C 315.27 333.89 315.29 337.68 315.28 341.47 C 319.04 341.41 322.80 341.46 326.56 341.39 L 326.51 343.49 C 322.76 343.40 319.01 343.44 315.27 343.43 C 315.32 347.25 315.25 351.08 315.36 354.90 C 319.71 355.01 324.08 355.14 328.43 354.77 C 328.34 354.14 328.15 352.87 328.06 352.24 C 328.66 352.23 329.87 352.22 330.48 352.22 C 330.16 353.89 330.96 356.22 329.08 357.17 C 324.05 357.32 319.01 357.33 313.98 357.16 C 313.71 356.87 313.16 356.29 312.88 356.00 C 312.69 347.50 312.80 338.98 312.86 330.48 C 311.91 330.12 310.01 329.41 309.06 329.05 Z" />
<path fill="#ffffff" opacity="1.00" d=" M 368.58 327.82 C 374.92 328.07 381.32 327.32 387.61 328.32 C 387.65 329.90 387.68 331.48 387.70 333.07 L 385.60 333.03 C 385.57 332.30 385.51 330.86 385.48 330.14 C 381.67 330.04 377.86 330.04 374.05 330.13 C 374.00 333.89 374.01 337.66 374.04 341.43 C 377.75 341.45 381.47 341.46 385.19 341.39 L 385.17 343.47 C 381.45 343.43 377.74 343.42 374.02 343.46 C 374.03 347.26 373.98 351.07 374.09 354.88 C 378.22 354.99 382.36 355.17 386.49 354.84 C 386.58 354.17 386.78 352.83 386.87 352.15 C 387.46 352.21 388.64 352.31 389.24 352.36 C 389.00 353.97 388.75 355.57 388.46 357.17 C 382.83 357.09 377.10 357.80 371.55 356.71 C 371.45 347.83 371.53 338.96 371.50 330.09 C 370.78 330.08 369.34 330.08 368.62 330.07 C 368.61 329.51 368.59 328.39 368.58 327.82 Z" />
<path fill="#ffffff" opacity="1.00" d=" M 432.04 327.72 C 433.84 327.83 435.66 328.04 437.45 328.34 C 437.63 334.57 437.46 340.81 437.53 347.05 C 437.45 348.94 438.23 350.69 438.77 352.47 L 439.36 352.42 C 439.73 352.90 440.46 353.85 440.83 354.33 C 443.36 355.38 446.35 356.13 448.98 355.00 C 450.32 354.53 451.56 352.67 453.02 353.90 L 453.48 354.47 C 452.60 356.83 448.64 357.74 446.02 357.65 C 441.81 358.06 437.86 355.60 435.87 351.97 C 434.42 344.96 434.87 337.68 435.41 330.59 C 433.70 330.23 431.85 329.93 432.04 327.72 Z" />
<path fill="#ffffff" opacity="1.00" d=" M 467.52 328.25 C 475.47 327.38 483.51 328.00 491.50 327.88 C 491.75 329.46 491.98 331.05 492.19 332.65 C 491.60 332.73 490.41 332.89 489.82 332.97 C 489.73 332.28 489.56 330.89 489.47 330.20 C 486.67 329.94 483.85 330.10 481.05 330.14 C 480.91 339.19 481.26 348.26 480.85 357.31 C 480.26 357.30 479.07 357.28 478.47 357.27 C 478.57 348.21 478.51 339.14 478.51 330.08 C 475.52 330.06 472.53 330.06 469.55 330.16 C 469.55 330.89 469.55 332.33 469.54 333.06 L 467.47 333.03 C 467.48 331.43 467.49 329.84 467.52 328.25 Z" />
<path fill="#ffffff" opacity="1.00" d=" M 500.24 327.82 C 502.95 327.83 505.66 327.84 508.38 327.84 C 508.37 328.39 508.35 329.51 508.33 330.07 C 507.60 330.07 506.14 330.09 505.41 330.10 C 505.38 338.33 505.44 346.56 505.39 354.79 C 506.43 354.99 507.48 355.20 508.54 355.41 L 508.26 357.29 C 505.45 357.25 502.65 357.25 499.85 357.22 C 500.13 355.50 501.18 354.64 503.00 354.64 C 502.94 346.49 502.99 338.33 502.97 330.17 C 502.32 330.14 501.00 330.09 500.34 330.06 C 500.31 329.50 500.27 328.38 500.24 327.82 Z" />
<path fill="#ffffff" opacity="1.00" d=" M 516.13 327.75 C 518.13 327.45 520.06 328.12 521.06 329.91 C 522.08 333.75 523.65 337.40 524.97 341.14 C 525.93 343.81 526.96 346.46 527.81 349.17 C 528.42 350.72 529.04 352.28 529.99 353.68 C 530.78 351.70 531.47 349.67 532.16 347.65 L 532.97 349.02 C 534.44 351.69 531.83 354.63 531.07 357.24 C 527.19 358.45 527.40 353.25 526.04 350.88 C 525.04 348.21 524.04 345.54 523.07 342.87 C 522.04 340.21 521.04 337.54 520.16 334.83 C 519.28 332.21 517.60 330.04 516.13 327.75 Z" />
<path fill="#ffffff" opacity="1.00" d=" M 539.09 328.59 C 540.34 328.23 541.60 327.90 542.87 327.58 C 543.04 329.12 542.40 330.24 540.93 330.96 C 539.64 334.60 538.28 338.23 536.91 341.85 C 535.89 344.70 534.82 347.53 533.67 350.33 L 532.97 349.02 C 532.32 347.79 532.32 346.51 532.98 345.17 C 534.14 342.55 535.06 339.83 536.05 337.15 C 536.41 336.15 536.79 335.16 537.18 334.18 C 537.81 332.31 538.48 330.46 539.09 328.59 Z" />
<path fill="#ffffff" opacity="1.00" d=" M 556.11 339.11 C 557.60 335.42 558.54 331.47 560.50 328.01 C 561.12 327.92 562.36 327.73 562.98 327.64 C 563.22 328.27 563.72 329.51 563.96 330.14 C 564.86 331.94 564.70 333.66 563.47 335.29 C 563.07 334.27 562.27 332.23 561.87 331.21 C 560.59 333.29 559.71 335.57 558.81 337.83 C 557.94 340.46 556.97 343.05 556.06 345.66 C 559.74 345.72 563.43 345.72 567.13 345.64 C 566.50 343.69 565.82 341.76 565.16 339.83 C 564.56 338.32 563.98 336.82 563.47 335.29 L 564.90 332.81 C 565.88 335.59 566.90 338.36 567.97 341.12 C 568.95 343.79 569.93 346.46 570.89 349.15 C 571.74 352.22 573.55 354.77 575.39 357.32 C 572.62 358.01 570.63 356.44 569.95 353.92 C 569.29 351.82 568.55 349.75 567.92 347.65 C 563.81 347.57 559.70 347.64 555.59 347.57 C 555.04 348.99 554.49 350.42 553.96 351.86 C 553.47 354.67 550.80 359.82 547.75 355.94 C 548.40 355.61 549.69 354.96 550.33 354.63 C 551.24 352.12 552.15 349.62 553.14 347.14 C 554.10 344.45 555.07 341.77 556.11 339.11 Z" />
</g>
</svg>
