<?xml version="1.0" encoding="utf-8"?>
<!-- Generator: Adobe Illustrator 19.2.1, SVG Export Plug-In . SVG Version: 6.00 Build 0)  -->
<svg version="1.1" id="layer" xmlns="http://www.w3.org/2000/svg" xmlns:xlink="http://www.w3.org/1999/xlink" x="0px" y="0px"
	 viewBox="0 0 652 652" style="enable-background:new 0 0 652 652;" xml:space="preserve">
<style type="text/css">
	.st0{filter:url(#Adobe_OpacityMaskFilter);}
	.st1{fill:#FFFFFF;}
	.st2{mask:url(#mask-2_1_);fill:#0077C8;}
	.st3{fill:#FEFEFE;}
</style>
<g id="Page-1">
	<g id="StickyNav" transform="translate(-17.000000, -9.000000)">
		<g id="Logo_x2F_Search_x2F_Account_x2F_Bag" transform="translate(-21.000000, -10.000000)">
			<g id="Logo" transform="translate(38.000000, 19.000000)">
				<g id="Group-3" transform="translate(0.000000, 0.129797)">
					<g id="Clip-2">
					</g>
					<defs>
						<filter id="Adobe_OpacityMaskFilter" filterUnits="userSpaceOnUse" x="76.8" y="75.8" width="500" height="500">
							<feColorMatrix  type="matrix" values="1 0 0 0 0  0 1 0 0 0  0 0 1 0 0  0 0 0 1 0"/>
						</filter>
					</defs>
					<mask maskUnits="userSpaceOnUse" x="76.8" y="75.8" width="500" height="500" id="mask-2_1_">
						<g class="st0">
							<polygon id="path-1_1_" class="st1" points="576.7,75.8 76.8,75.8 76.8,575.8 576.7,575.8 							"/>
						</g>
					</mask>
					<path id="Fill-1" class="st2" d="M326.8,75.8c138.1,0,250,111.9,250,250c0,138.1-111.9,250-250,250c-138.1,0-250-111.9-250-250
						C76.8,187.7,188.7,75.8,326.8,75.8"/>
				</g>
				<polygon id="Fill-4" class="st3" points="246.6,392.9 246.6,267.9 243.9,267.9 221,267.9 221,315.8 143.8,315.8 143.8,267.9 
					118.3,267.9 118.3,392.9 143.8,392.9 143.8,339.8 221,339.8 221,392.9 				"/>
				<path id="Fill-6" class="st3" d="M390.8,357.2c2.1-35.7-42.4-39.8-66.2-41.7c-24.9-1.9-35-5.9-34.1-15.7
					c1-10.7,20.4-15.4,34.2-14.7c17.5,0.9,29.1,2.3,48.2,15c0,0,6.4-8.4,13.3-16.7c-23.5-17.5-47.7-19.5-61.7-19.7
					c-10.5-0.1-59,1.8-59.5,37.8c-0.5,32.9,43.4,36.4,59.3,38.5c11.6,1.5,40.6,2.2,40.6,15.5c0,12.3-23.3,17.8-40.2,16.6
					c-25.7-1.7-35.7-9.9-48.4-22.8c-6.5,6.9-16,16.5-16,16.5c14.3,16.4,39.7,29.1,64.1,30C338.2,396.5,388.7,393.4,390.8,357.2"/>
				<path id="Fill-8" class="st3" d="M513.4,392.5h22.1V268.1h-2.7h-22.7v83.2c-8.3-9.2-75.3-83.2-75.3-83.2H407v124.4h24.8v-91
					C440.2,310.9,513.4,392.5,513.4,392.5"/>
			</g>
		</g>
	</g>
</g>
</svg>
