<?xml version="1.0" encoding="UTF-8" ?>
<!DOCTYPE svg PUBLIC "-//W3C//DTD SVG 1.1//EN" "http://www.w3.org/Graphics/SVG/1.1/DTD/svg11.dtd">
<svg width="825pt" height="312pt" viewBox="0 0 825 312" version="1.1" xmlns="http://www.w3.org/2000/svg">
<g id="#660099ff">
<path fill="#660099" opacity="1.00" d=" M 292.40 1.72 C 304.90 -1.56 318.70 2.12 328.38 10.54 C 342.63 22.67 345.89 45.20 336.18 61.10 C 330.27 71.20 319.61 78.21 308.08 79.97 C 297.66 81.71 286.68 78.88 278.14 72.72 C 267.77 65.03 261.41 52.16 261.87 39.23 C 262.32 21.78 275.31 5.57 292.40 1.72 Z" />
<path fill="#660099" opacity="1.00" d=" M 30.43 106.13 C 38.75 101.99 49.52 102.10 57.07 107.88 C 64.55 113.48 68.01 122.52 72.29 130.49 C 85.90 157.29 99.50 184.08 112.83 211.01 C 114.32 214.15 115.96 217.20 117.74 220.19 C 132.84 189.84 148.12 159.59 163.48 129.37 C 167.38 122.47 170.27 114.67 176.37 109.31 C 180.83 105.16 186.95 102.93 193.04 103.28 C 200.55 103.14 207.06 107.30 213.56 110.47 C 217.89 112.78 222.48 114.63 226.52 117.44 C 234.54 123.22 237.48 134.68 233.75 143.74 C 231.67 148.42 228.73 152.65 226.32 157.16 C 200.90 202.09 175.43 247.00 149.83 291.83 C 144.99 300.76 134.76 305.15 124.98 305.60 C 114.33 305.97 102.73 306.59 93.34 300.62 C 87.77 297.32 85.14 291.18 82.00 285.84 C 55.95 239.69 29.62 193.71 3.49 147.61 C 1.63 144.54 0.47 141.09 0.00 137.54 L 0.00 132.99 C 0.94 126.13 4.61 119.44 10.80 116.04 C 17.25 112.57 23.84 109.35 30.43 106.13 Z" />
<path fill="#660099" opacity="1.00" d=" M 545.22 108.08 C 552.80 102.11 563.78 101.87 572.23 106.10 C 578.85 109.36 585.50 112.60 592.00 116.10 C 596.28 118.42 599.39 122.40 601.27 126.83 C 602.85 131.45 603.02 136.51 602.04 141.27 C 600.29 146.92 596.74 151.76 593.95 156.91 C 568.37 202.03 542.81 247.16 517.12 292.21 C 514.19 297.30 509.37 301.04 503.98 303.24 C 495.22 306.31 485.82 305.96 476.68 305.56 C 472.94 305.40 469.35 304.29 465.78 303.26 C 459.59 300.87 454.57 296.06 451.79 290.06 C 424.73 242.17 397.45 194.41 370.28 146.59 C 364.58 136.57 367.61 121.90 377.97 116.16 C 384.40 112.70 390.98 109.51 397.51 106.25 C 405.26 102.42 415.12 101.91 422.62 106.59 C 427.94 109.77 431.67 114.97 434.45 120.39 C 446.55 143.75 458.33 167.27 470.16 190.77 C 474.59 200.29 479.94 209.36 484.11 219.01 C 484.39 219.22 484.96 219.66 485.24 219.87 C 500.84 188.71 516.45 157.55 532.42 126.57 C 535.93 119.97 538.96 112.62 545.22 108.08 Z" />
<path fill="#660099" opacity="1.00" d=" M 629.95 153.99 C 647.77 125.32 680.26 106.34 714.03 105.14 C 720.30 104.22 726.58 105.32 732.84 105.71 C 762.05 109.10 789.51 125.49 806.32 149.62 C 817.98 165.72 824.18 185.47 825.00 205.26 L 825.00 211.68 C 824.24 227.85 819.90 243.91 811.96 258.04 C 803.74 272.51 792.08 285.01 778.15 294.13 C 745.46 316.08 700.42 317.27 666.44 297.48 C 652.29 289.22 639.88 277.86 630.98 264.06 C 609.12 231.83 608.70 186.62 629.95 153.99 M 709.74 168.17 C 701.92 170.09 694.62 174.27 689.22 180.28 C 680.51 189.67 676.69 203.30 679.12 215.87 C 681.05 226.07 686.81 235.66 695.41 241.61 C 704.11 248.02 715.37 250.86 726.05 249.08 C 738.52 247.02 749.97 239.01 755.86 227.78 C 761.92 216.91 762.54 203.22 757.44 191.87 C 754.46 185.25 749.98 179.14 744.01 174.92 C 734.31 167.83 721.42 165.15 709.74 168.17 Z" />
<path fill="#660099" opacity="1.00" d=" M 286.86 106.75 C 294.89 106.60 302.91 106.75 310.93 106.66 C 316.48 106.60 322.27 107.84 326.74 111.28 C 333.14 116.04 336.91 124.04 336.71 132.00 C 336.71 183.01 336.72 234.02 336.71 285.03 C 336.89 294.18 331.77 303.44 323.45 307.51 C 317.16 310.82 309.83 309.79 302.99 310.09 C 295.68 309.75 288.02 311.01 281.04 308.26 C 275.99 306.25 271.69 302.46 269.29 297.57 C 266.51 292.54 265.85 286.68 265.90 281.02 C 265.94 232.01 265.90 183.00 265.92 133.99 C 265.92 127.97 267.32 121.84 270.78 116.83 C 274.24 111.61 280.03 107.81 286.32 107.25 C 286.46 107.13 286.73 106.87 286.86 106.75 Z" />
</g>
</svg>
