<?xml version="1.0" encoding="UTF-8" ?>
<!DOCTYPE svg PUBLIC "-//W3C//DTD SVG 1.1//EN" "http://www.w3.org/Graphics/SVG/1.1/DTD/svg11.dtd">
<svg width="200pt" height="100pt" viewBox="0 0 200 100" version="1.1" xmlns="http://www.w3.org/2000/svg">
<g id="#ffffffff">
<path fill="#ffffff" opacity="1.00" d=" M 0.00 0.00 L 200.00 0.00 L 200.00 100.00 L 0.00 100.00 L 0.00 0.00 M 68.11 14.16 C 66.40 14.75 64.76 15.53 63.07 16.18 C 59.58 17.83 56.16 19.66 53.04 21.94 C 51.97 22.77 50.80 23.46 49.51 23.91 C 49.49 24.30 49.45 25.09 49.44 25.48 C 49.06 25.47 48.30 25.46 47.92 25.45 C 46.54 27.04 45.64 29.98 43.03 29.59 C 41.25 29.66 39.48 29.58 37.71 29.48 C 34.44 30.94 32.08 33.91 31.23 37.37 L 30.49 37.53 C 31.11 46.20 29.69 55.02 31.41 63.59 L 32.14 63.65 C 32.85 67.04 35.84 69.17 38.86 70.42 C 45.26 70.11 51.69 70.68 58.07 69.97 C 76.51 70.86 95.02 70.08 113.49 70.58 C 110.68 72.77 106.41 70.20 103.68 72.25 C 108.43 72.84 113.24 72.43 118.01 72.62 C 133.36 72.63 148.77 73.26 164.07 72.18 C 166.95 69.80 169.39 66.77 169.97 62.96 C 171.23 57.74 170.34 52.30 170.68 46.99 C 170.99 41.31 170.68 34.83 166.50 30.49 C 163.69 27.49 159.36 27.50 155.56 27.59 C 152.49 24.02 148.94 20.67 144.21 19.65 C 142.13 18.68 140.15 17.50 138.08 16.49 C 137.72 16.52 136.99 16.57 136.63 16.59 L 136.40 15.68 C 131.24 14.28 126.28 12.15 120.99 11.25 C 110.81 8.93 100.32 9.54 89.97 9.60 C 82.52 10.09 75.20 11.87 68.11 14.16 M 60.45 79.11 C 60.37 80.52 60.27 81.94 60.15 83.35 C 57.06 83.17 54.43 85.86 54.44 88.90 C 54.82 90.96 57.25 90.29 58.47 89.49 C 59.83 90.63 60.56 90.59 60.67 89.35 L 60.58 88.75 C 60.97 85.55 62.04 82.50 62.65 79.33 C 62.10 79.28 61.00 79.16 60.45 79.11 M 20.24 80.08 C 20.95 80.68 21.65 81.28 22.35 81.88 C 21.55 84.77 21.12 87.86 19.27 90.31 C 20.43 90.32 21.59 90.32 22.74 90.33 C 21.21 88.64 21.94 86.52 22.50 84.55 C 23.72 86.47 24.53 88.62 25.29 90.76 C 26.78 88.10 28.21 85.40 29.90 82.85 C 29.74 85.43 29.35 88.00 28.30 90.38 C 31.11 89.90 34.06 90.31 36.78 89.43 C 37.37 89.70 37.95 89.97 38.53 90.24 C 40.00 89.01 41.30 88.50 41.91 90.75 C 42.74 90.02 43.66 89.43 44.63 88.91 C 44.99 89.32 45.71 90.13 46.07 90.53 C 48.18 90.51 49.83 89.60 50.19 87.41 C 49.27 86.48 48.24 85.69 47.11 85.03 C 48.06 85.07 49.96 85.16 50.92 85.21 C 50.12 83.05 47.88 83.10 46.51 84.57 C 44.41 86.43 48.51 88.08 49.28 89.23 C 47.79 89.03 44.83 88.65 43.34 88.45 C 43.52 86.80 45.19 84.85 43.86 83.33 C 42.96 83.78 42.11 84.31 41.25 84.82 C 41.55 86.07 41.82 87.32 42.03 88.58 C 41.44 88.54 40.24 88.46 39.64 88.43 C 38.66 86.97 40.50 84.92 40.54 83.30 L 37.51 83.43 C 38.53 85.55 37.56 87.67 35.55 88.76 C 34.58 87.13 36.55 85.07 36.66 83.24 C 35.30 85.15 33.11 86.96 33.52 89.61 C 32.95 89.43 31.80 89.06 31.23 88.88 C 31.67 85.87 31.01 82.44 33.09 79.91 C 32.31 79.94 30.75 80.00 29.98 80.03 C 28.77 82.50 27.33 84.84 25.95 87.21 C 25.12 84.85 24.37 82.46 23.67 80.07 C 22.52 80.06 21.38 80.07 20.24 80.08 M 43.28 80.07 C 42.79 81.68 43.34 82.24 44.94 81.73 C 45.46 80.10 44.91 79.54 43.28 80.07 M 121.40 83.09 C 123.04 82.45 124.74 82.15 126.39 82.97 C 125.83 81.89 125.26 80.82 124.69 79.75 C 123.56 80.83 122.47 81.94 121.40 83.09 M 130.94 80.17 C 131.40 80.47 132.31 81.07 132.77 81.37 C 132.07 84.45 132.03 87.80 130.11 90.45 C 131.74 90.31 133.37 90.13 134.98 89.85 L 133.42 89.30 C 133.88 86.63 134.35 83.96 134.90 81.30 C 135.40 81.03 136.41 80.48 136.91 80.20 C 134.92 80.18 132.93 80.19 130.94 80.17 M 165.06 82.42 C 166.59 81.83 165.89 78.95 164.17 79.56 C 162.53 80.09 163.37 82.98 165.06 82.42 M 63.58 84.56 C 61.80 86.10 62.98 88.65 63.47 90.50 C 64.27 90.03 65.06 89.55 65.84 89.06 L 63.87 88.33 C 64.45 86.85 64.93 85.22 66.26 84.20 C 68.69 85.98 65.82 88.84 65.41 90.97 C 68.07 89.90 69.46 87.52 69.22 84.66 C 67.56 83.65 65.07 82.80 63.58 84.56 M 74.72 85.84 C 73.71 87.10 72.53 89.95 74.91 90.39 C 75.68 90.13 77.23 89.61 78.00 89.34 C 77.42 90.68 76.85 92.03 76.26 93.38 C 77.43 93.40 78.60 93.44 79.77 93.49 C 79.51 93.20 78.98 92.61 78.71 92.32 C 79.54 90.28 79.21 86.95 81.12 85.86 L 81.78 85.99 C 83.14 87.15 80.47 89.24 81.94 90.53 C 83.41 89.93 85.00 88.44 86.08 90.57 C 86.99 89.98 87.90 89.37 88.80 88.77 C 90.52 91.07 93.50 90.61 95.04 88.16 C 93.93 88.38 91.73 88.81 90.63 89.03 C 91.29 86.78 94.55 87.19 95.06 84.90 C 95.18 83.19 92.98 83.31 91.93 83.84 C 89.45 84.67 89.88 88.30 87.28 88.91 C 87.59 86.88 88.81 84.85 87.99 82.79 C 86.42 84.82 85.10 87.02 83.59 89.10 C 83.91 87.79 84.54 85.17 84.86 83.86 C 83.66 82.96 82.55 84.74 81.30 84.73 C 81.16 84.38 80.89 83.67 80.76 83.32 C 78.56 83.51 75.84 83.55 74.72 85.84 M 98.79 85.66 L 100.71 85.52 C 100.37 87.11 100.05 88.70 99.73 90.29 C 102.39 90.90 104.58 88.92 105.69 86.69 C 106.28 85.56 107.16 83.36 105.13 83.29 C 104.38 85.51 104.46 88.49 101.80 89.38 C 102.02 87.33 103.00 85.31 102.53 83.23 C 101.14 83.80 99.97 84.76 98.79 85.66 M 109.50 83.70 C 106.31 84.19 105.34 89.99 109.01 90.36 C 111.27 90.80 112.49 88.64 113.97 87.38 C 113.01 91.81 117.70 90.09 119.68 89.02 C 121.62 90.75 124.57 90.74 125.95 88.15 C 124.88 88.38 122.74 88.83 121.67 89.06 C 122.20 86.43 126.49 87.10 126.08 83.90 C 123.49 82.54 121.00 84.71 120.29 87.12 C 119.85 89.25 117.17 88.46 115.68 89.14 C 116.03 87.70 116.40 86.27 116.78 84.85 C 117.71 84.94 119.56 85.14 120.49 85.23 C 119.73 81.97 115.19 83.98 114.91 86.39 C 113.34 85.19 111.78 82.73 109.50 83.70 M 138.31 83.22 C 137.35 83.93 136.38 84.65 135.42 85.37 C 138.02 85.92 135.90 88.47 135.77 90.09 C 136.15 90.18 136.90 90.36 137.28 90.45 C 137.75 89.26 138.21 88.07 138.68 86.88 C 139.11 86.84 139.96 86.77 140.39 86.74 C 140.67 87.81 138.46 89.87 140.29 90.55 C 141.27 89.25 142.09 87.85 143.03 86.53 C 142.48 85.52 142.00 84.49 141.44 83.50 C 140.24 84.40 138.30 86.14 138.31 83.22 M 143.59 83.86 C 143.83 84.19 144.32 84.86 144.56 85.20 C 144.00 86.94 143.47 88.70 143.06 90.49 C 145.04 89.57 147.09 88.51 148.69 90.59 C 149.11 90.28 149.95 89.65 150.37 89.34 C 150.97 91.28 153.84 90.08 153.63 88.68 C 152.84 86.78 153.79 84.87 154.19 83.02 C 152.61 83.50 150.71 83.39 149.45 84.61 C 148.09 86.08 147.12 87.91 145.45 89.09 C 145.76 87.21 146.21 85.35 146.67 83.49 C 145.90 83.58 144.36 83.77 143.59 83.86 M 168.36 83.10 C 167.66 83.78 166.96 84.46 166.26 85.14 C 167.31 86.79 166.19 88.48 165.85 90.12 C 166.20 90.20 166.91 90.36 167.26 90.45 C 168.16 88.34 169.33 86.37 171.00 84.77 C 170.46 86.45 170.01 88.16 169.63 89.88 C 169.95 90.02 170.59 90.30 170.91 90.44 C 171.51 90.06 172.72 89.32 173.33 88.95 C 173.68 89.32 174.38 90.08 174.74 90.46 C 176.11 89.81 177.55 89.15 178.89 90.32 C 179.43 89.87 180.52 88.98 181.07 88.54 C 180.66 88.30 179.83 87.83 179.42 87.60 C 179.91 86.11 180.38 84.63 180.84 83.13 C 178.62 83.61 175.98 83.45 174.56 85.70 C 175.56 85.46 177.57 84.98 178.57 84.74 C 178.02 86.31 177.17 87.74 175.91 88.85 C 175.29 87.93 174.66 87.02 174.02 86.12 L 173.66 89.10 C 170.80 88.15 173.17 85.51 173.13 83.71 C 172.17 83.98 170.26 84.51 169.30 84.77 C 169.07 84.35 168.60 83.52 168.36 83.10 M 155.76 87.52 C 155.31 89.02 154.53 90.35 153.55 91.55 C 153.69 91.92 153.97 92.64 154.12 93.00 C 155.69 93.19 157.41 93.80 158.91 92.93 C 160.40 91.90 161.65 90.45 163.50 90.03 C 164.06 89.54 164.63 89.05 165.18 88.55 L 163.95 87.85 C 164.40 86.40 164.84 84.95 165.27 83.49 C 164.60 83.62 163.26 83.89 162.59 84.02 C 162.62 86.49 162.07 88.91 160.29 90.72 C 159.16 89.75 157.92 88.95 156.57 88.31 C 158.46 88.08 160.52 87.50 160.70 85.25 L 162.22 85.41 C 161.63 82.64 158.61 83.75 157.14 84.88 L 159.29 85.55 C 158.69 86.08 157.48 87.15 156.87 87.68 C 157.00 86.07 157.17 84.46 157.36 82.85 C 155.61 83.87 154.40 85.74 155.76 87.52 Z" />
<path fill="#ffffff" opacity="1.00" d=" M 91.81 15.68 C 96.74 15.95 98.64 20.95 99.78 24.98 C 99.35 25.33 98.51 26.03 98.08 26.39 C 97.08 26.00 96.12 25.54 95.18 25.02 C 94.19 22.26 93.20 19.50 92.15 16.76 L 91.81 15.68 Z" />
<path fill="#ffffff" opacity="1.00" d=" M 103.00 18.22 C 104.23 16.88 105.92 16.14 107.75 16.21 C 107.56 16.96 107.19 18.47 107.01 19.22 L 106.61 20.25 C 105.98 21.85 105.38 23.46 104.79 25.08 C 103.10 25.81 101.54 27.39 99.54 26.82 C 100.54 23.90 101.64 21.01 103.00 18.22 Z" />
<path fill="#ffffff" opacity="1.00" d=" M 90.61 25.14 C 91.74 25.69 92.87 26.23 94.01 26.77 L 93.17 27.56 C 91.47 29.97 88.63 30.26 85.93 30.46 C 87.51 28.71 89.09 26.94 90.61 25.14 Z" />
<path fill="#ffffff" opacity="1.00" d=" M 106.64 26.23 C 107.62 25.86 108.60 25.46 109.56 25.03 C 110.94 26.89 112.38 28.72 113.91 30.46 C 112.11 30.20 110.22 30.18 108.54 29.42 C 107.82 28.41 107.25 27.31 106.64 26.23 Z" />
<path fill="#ffffff" opacity="1.00" d=" M 96.41 29.64 C 97.88 26.85 101.59 27.77 104.16 26.95 C 103.79 28.06 103.41 29.15 103.02 30.25 C 100.77 30.24 98.51 30.17 96.27 30.05 L 96.41 29.64 Z" />
<path fill="#ffffff" opacity="1.00" d=" M 131.23 31.70 C 133.42 31.20 135.62 30.76 137.84 30.36 C 136.75 36.06 134.79 41.54 133.63 47.22 C 136.53 44.36 139.70 40.03 144.38 41.56 C 145.79 48.13 141.82 55.92 135.19 57.78 C 135.32 56.77 135.58 54.75 135.72 53.74 C 136.49 53.75 138.04 53.76 138.81 53.76 C 139.94 50.56 140.85 47.26 140.87 43.84 C 135.07 45.40 132.24 51.78 130.96 57.16 C 130.13 57.19 128.48 57.25 127.65 57.28 C 129.10 49.95 131.28 42.79 132.67 35.45 C 133.10 34.00 132.14 32.71 131.23 31.70 Z" />
<path fill="#ffffff" opacity="1.00" d=" M 121.13 31.74 C 123.38 31.27 125.64 30.83 127.90 30.43 C 126.14 38.35 123.84 46.14 122.07 54.06 C 123.45 53.34 124.82 52.61 126.19 51.87 C 124.90 54.74 122.28 57.73 118.87 57.49 C 117.66 56.02 118.33 54.19 118.65 52.54 C 120.23 46.29 121.67 40.01 123.35 33.79 C 122.80 33.28 121.69 32.25 121.13 31.74 Z" />
<path fill="#ffffff" opacity="1.00" d=" M 112.90 41.42 C 113.93 41.02 114.91 40.54 115.87 39.98 C 116.06 44.95 113.12 49.28 112.71 54.17 C 113.60 53.46 114.49 52.75 115.37 52.04 C 115.80 52.17 116.65 52.43 117.08 52.55 C 114.81 54.84 112.52 57.83 108.89 57.38 C 108.91 55.91 108.90 54.43 108.87 52.96 C 106.73 55.30 102.45 59.77 99.70 55.93 C 98.87 52.52 100.67 49.15 102.67 46.50 C 105.06 43.39 108.73 40.50 112.90 41.42 M 107.31 44.32 C 104.68 46.54 102.45 50.17 103.50 53.70 C 106.58 54.53 108.43 51.16 109.85 49.01 C 110.77 47.32 112.44 44.49 110.12 43.16 C 109.42 43.45 108.01 44.03 107.31 44.32 Z" />
<path fill="#ffffff" opacity="1.00" d=" M 43.99 41.78 C 44.89 41.20 46.76 40.55 47.24 41.98 C 47.26 43.78 46.80 45.54 46.49 47.30 C 46.94 47.21 47.84 47.02 48.28 46.92 L 47.45 48.51 C 45.89 51.40 44.78 54.49 43.49 57.50 C 42.69 57.38 41.10 57.16 40.30 57.04 C 41.22 54.01 42.09 50.96 42.90 47.90 C 43.10 47.14 43.51 45.64 43.71 44.88 C 42.29 45.58 40.86 46.28 39.43 46.96 C 40.64 45.00 41.87 42.88 43.99 41.78 Z" />
<path fill="#ffffff" opacity="1.00" d=" M 46.82 47.18 C 48.36 45.10 49.49 42.10 52.10 41.15 C 54.46 40.54 53.68 43.15 53.89 44.58 C 51.40 45.03 48.99 45.86 46.82 47.18 Z" />
<path fill="#ffffff" opacity="1.00" d=" M 63.38 41.63 C 65.79 41.05 68.25 40.78 70.70 40.45 C 70.45 41.32 69.96 43.05 69.71 43.91 C 68.64 47.23 67.58 50.57 66.82 53.98 C 68.28 53.14 69.75 52.31 71.26 51.58 C 69.88 54.38 67.40 57.59 63.91 57.24 C 62.29 56.23 63.48 53.96 63.73 52.49 C 63.39 51.96 63.05 51.43 62.72 50.90 C 64.58 48.84 65.49 46.22 65.72 43.48 C 62.35 42.71 59.71 45.52 58.42 48.32 C 57.66 50.06 56.75 52.23 58.00 53.98 C 58.78 53.63 60.32 52.93 61.09 52.58 C 61.58 53.09 62.07 53.60 62.55 54.12 C 60.20 55.50 57.20 59.08 54.40 56.56 C 52.74 53.52 54.59 49.92 56.27 47.30 C 58.10 44.87 60.36 42.47 63.38 41.63 Z" />
<path fill="#ffffff" opacity="1.00" d=" M 72.50 45.38 C 74.17 43.34 76.88 40.32 79.76 41.78 C 79.65 43.78 79.16 45.73 78.75 47.68 C 81.23 44.45 84.28 41.37 88.47 40.62 C 88.52 43.12 88.08 45.57 87.44 47.98 C 90.09 44.80 93.06 40.68 97.77 41.18 C 98.04 45.68 95.43 49.60 94.42 53.85 C 95.81 53.18 97.20 52.53 98.61 51.90 C 97.04 54.62 94.51 57.96 90.94 57.17 C 90.34 56.38 90.17 55.52 90.43 54.59 C 91.26 51.24 92.65 48.05 93.40 44.68 C 88.44 47.10 86.09 52.46 84.13 57.30 C 83.31 57.26 81.67 57.19 80.85 57.15 C 82.02 53.05 83.63 49.09 84.72 44.97 C 79.19 46.40 77.71 52.73 75.13 57.07 C 74.38 57.15 72.88 57.30 72.13 57.38 C 72.96 53.15 74.77 49.20 75.76 45.01 C 74.50 45.69 73.25 46.38 71.96 47.00 C 72.10 46.60 72.37 45.79 72.50 45.38 Z" />
<path fill="#ffffff" opacity="1.00" d=" M 152.42 41.58 C 155.52 40.73 159.94 40.99 161.33 44.44 C 164.47 51.15 157.35 60.00 150.08 57.06 C 143.23 54.26 145.95 43.24 152.42 41.58 M 153.44 43.49 C 150.81 46.24 149.69 50.37 150.21 54.09 C 150.77 56.48 154.26 56.35 155.50 54.60 C 157.73 51.29 158.25 47.14 157.77 43.25 C 156.33 43.07 154.65 42.26 153.44 43.49 Z" />
<path fill="#ffffff" opacity="1.00" d=" M 55.94 88.85 C 56.73 87.21 57.62 82.28 59.69 85.46 C 58.99 87.10 58.17 89.30 55.94 88.85 Z" />
<path fill="#ffffff" opacity="1.00" d=" M 77.51 85.15 C 79.60 85.44 77.25 89.01 75.78 88.69 C 75.09 87.42 76.31 85.66 77.51 85.15 Z" />
<path fill="#ffffff" opacity="1.00" d=" M 92.19 85.17 C 92.87 85.87 92.87 85.87 92.19 85.17 Z" />
<path fill="#ffffff" opacity="1.00" d=" M 108.24 87.76 C 108.86 86.16 109.68 84.64 111.46 84.10 C 111.69 86.17 110.98 88.09 110.11 89.92 C 109.64 89.38 108.71 88.30 108.24 87.76 Z" />
<path fill="#ffffff" opacity="1.00" d=" M 123.14 84.95 L 123.81 85.02 L 123.74 85.69 L 123.07 85.62 L 123.14 84.95 Z" />
<path fill="#ffffff" opacity="1.00" d=" M 149.10 89.10 C 148.60 86.86 149.75 84.75 152.24 84.79 C 151.51 86.45 150.40 87.86 149.10 89.10 Z" />
<path fill="#ffffff" opacity="1.00" d=" M 155.66 92.00 C 154.51 90.36 157.88 89.72 158.05 91.44 C 157.56 92.59 156.76 92.78 155.66 92.00 Z" />
</g>
<g id="#cc2433ff">
<path fill="#cc2433" opacity="1.00" d=" M 68.11 14.16 C 75.20 11.87 82.52 10.09 89.97 9.60 C 100.32 9.54 110.81 8.93 120.99 11.25 C 126.28 12.15 131.24 14.28 136.40 15.68 L 136.63 16.59 C 136.99 16.57 137.72 16.52 138.08 16.49 C 140.15 17.50 142.13 18.68 144.21 19.65 C 148.94 20.67 152.49 24.02 155.56 27.59 C 159.36 27.50 163.69 27.49 166.50 30.49 C 170.68 34.83 170.99 41.31 170.68 46.99 C 170.34 52.30 171.23 57.74 169.97 62.96 C 169.39 66.77 166.95 69.80 164.07 72.18 C 148.77 73.26 133.36 72.63 118.01 72.62 C 113.24 72.43 108.43 72.84 103.68 72.25 C 106.41 70.20 110.68 72.77 113.49 70.58 C 95.02 70.08 76.51 70.86 58.07 69.97 C 51.69 70.68 45.26 70.11 38.86 70.42 C 35.84 69.17 32.85 67.04 32.14 63.65 L 31.41 63.59 C 29.69 55.02 31.11 46.20 30.49 37.53 L 31.23 37.37 C 32.08 33.91 34.44 30.94 37.71 29.48 C 39.48 29.58 41.25 29.66 43.03 29.59 C 45.64 29.98 46.54 27.04 47.92 25.45 C 48.30 25.46 49.06 25.47 49.44 25.48 C 49.45 25.09 49.49 24.30 49.51 23.91 C 50.80 23.46 51.97 22.77 53.04 21.94 C 56.16 19.66 59.58 17.83 63.07 16.18 C 64.76 15.53 66.40 14.75 68.11 14.16 M 64.51 17.62 C 57.73 21.55 51.02 25.86 45.82 31.81 C 43.07 32.64 40.12 32.30 37.28 32.37 C 33.30 36.01 31.97 42.28 33.78 47.25 C 36.57 48.44 39.90 47.89 42.90 47.90 C 42.09 50.96 41.22 54.01 40.30 57.04 C 41.10 57.16 42.69 57.38 43.49 57.50 C 44.78 54.49 45.89 51.40 47.45 48.51 L 47.59 48.49 C 50.08 46.71 53.44 47.92 56.27 47.30 C 54.59 49.92 52.74 53.52 54.40 56.56 C 57.20 59.08 60.20 55.50 62.55 54.12 C 62.07 53.60 61.58 53.09 61.09 52.58 C 60.32 52.93 58.78 53.63 58.00 53.98 C 56.75 52.23 57.66 50.06 58.42 48.32 C 59.71 45.52 62.35 42.71 65.72 43.48 C 65.49 46.22 64.58 48.84 62.72 50.90 C 63.05 51.43 63.39 51.96 63.73 52.49 C 63.48 53.96 62.29 56.23 63.91 57.24 C 67.40 57.59 69.88 54.38 71.26 51.58 C 69.75 52.31 68.28 53.14 66.82 53.98 C 67.58 50.57 68.64 47.23 69.71 43.91 C 70.41 44.28 71.80 45.02 72.50 45.38 C 72.37 45.79 72.10 46.60 71.96 47.00 C 73.25 46.38 74.50 45.69 75.76 45.01 C 74.77 49.20 72.96 53.15 72.13 57.38 C 72.88 57.30 74.38 57.15 75.13 57.07 C 77.71 52.73 79.19 46.40 84.72 44.97 C 83.63 49.09 82.02 53.05 80.85 57.15 C 81.67 57.19 83.31 57.26 84.13 57.30 C 86.09 52.46 88.44 47.10 93.40 44.68 C 92.65 48.05 91.26 51.24 90.43 54.59 C 90.17 55.52 90.34 56.38 90.94 57.17 C 94.51 57.96 97.04 54.62 98.61 51.90 C 97.20 52.53 95.81 53.18 94.42 53.85 C 95.43 49.60 98.04 45.68 97.77 41.18 C 98.59 41.17 100.25 41.14 101.07 41.13 C 98.59 38.90 98.88 35.35 99.49 32.37 C 100.50 31.42 101.81 30.90 103.02 30.25 C 103.41 29.15 103.79 28.06 104.16 26.95 C 105.01 26.77 105.83 26.53 106.64 26.23 C 107.25 27.31 107.82 28.41 108.54 29.42 C 110.22 30.18 112.11 30.20 113.91 30.46 C 112.38 28.72 110.94 26.89 109.56 25.03 C 112.32 23.58 116.54 21.77 116.00 17.95 C 114.71 15.18 110.99 15.42 108.48 16.00 C 108.10 17.12 107.61 18.19 107.01 19.22 C 107.19 18.47 107.56 16.96 107.75 16.21 C 105.92 16.14 104.23 16.88 103.00 18.22 C 103.30 17.15 103.57 16.06 103.81 14.97 C 100.33 14.89 96.84 14.70 93.48 13.71 C 93.50 13.32 93.53 12.54 93.54 12.14 C 83.54 11.57 73.85 14.46 64.51 17.62 M 131.23 31.70 C 132.14 32.71 133.10 34.00 132.67 35.45 C 131.28 42.79 129.10 49.95 127.65 57.28 C 128.48 57.25 130.13 57.19 130.96 57.16 C 132.24 51.78 135.07 45.40 140.87 43.84 C 140.85 47.26 139.94 50.56 138.81 53.76 C 138.04 53.76 136.49 53.75 135.72 53.74 C 135.58 54.75 135.32 56.77 135.19 57.78 C 141.82 55.92 145.79 48.13 144.38 41.56 C 139.70 40.03 136.53 44.36 133.63 47.22 C 134.79 41.54 136.75 36.06 137.84 30.36 C 135.62 30.76 133.42 31.20 131.23 31.70 M 121.13 31.74 C 121.69 32.25 122.80 33.28 123.35 33.79 C 121.67 40.01 120.23 46.29 118.65 52.54 C 118.33 54.19 117.66 56.02 118.87 57.49 C 122.28 57.73 124.90 54.74 126.19 51.87 C 124.82 52.61 123.45 53.34 122.07 54.06 C 123.84 46.14 126.14 38.35 127.90 30.43 C 125.64 30.83 123.38 31.27 121.13 31.74 M 112.90 41.42 C 108.73 40.50 105.06 43.39 102.67 46.50 C 100.67 49.15 98.87 52.52 99.70 55.93 C 102.45 59.77 106.73 55.30 108.87 52.96 C 108.90 54.43 108.91 55.91 108.89 57.38 C 112.52 57.83 114.81 54.84 117.08 52.55 C 116.65 52.43 115.80 52.17 115.37 52.04 C 114.49 52.75 113.60 53.46 112.71 54.17 C 113.12 49.28 116.06 44.95 115.87 39.98 C 114.91 40.54 113.93 41.02 112.90 41.42 M 152.42 41.58 C 145.95 43.24 143.23 54.26 150.08 57.06 C 157.35 60.00 164.47 51.15 161.33 44.44 C 159.94 40.99 155.52 40.73 152.42 41.58 M 95.58 59.76 C 95.17 61.09 94.75 62.43 94.32 63.76 C 93.05 63.43 91.79 63.07 90.54 62.69 C 90.28 62.90 89.75 63.32 89.49 63.53 C 88.58 63.51 86.76 63.47 85.86 63.45 C 85.59 62.94 85.07 61.92 84.81 61.41 C 83.65 61.36 82.50 61.30 81.34 61.24 C 80.99 62.82 80.64 64.39 80.29 65.97 C 82.14 65.73 83.99 65.51 85.84 65.28 C 85.99 65.57 86.30 66.15 86.46 66.44 C 90.58 64.63 95.38 66.18 99.78 65.53 L 98.22 64.93 C 98.72 64.06 99.23 63.19 99.74 62.33 C 98.45 62.91 97.13 63.42 95.79 63.86 C 95.66 62.50 95.59 61.13 95.58 59.76 Z" />
<path fill="#cc2433" opacity="1.00" d=" M 92.15 16.76 C 93.20 19.50 94.19 22.26 95.18 25.02 C 92.97 23.94 90.94 22.50 89.42 20.55 C 90.36 20.65 92.24 20.83 93.18 20.92 C 92.92 19.88 92.41 17.80 92.15 16.76 Z" />
<path fill="#cc2433" opacity="1.00" d=" M 104.79 25.08 C 105.38 23.46 105.98 21.85 106.61 20.25 L 107.09 20.78 C 108.22 20.72 109.36 20.65 110.49 20.56 C 108.93 22.46 107.02 24.02 104.79 25.08 Z" />
<path fill="#cc2433" opacity="1.00" d=" M 153.44 43.49 C 154.65 42.26 156.33 43.07 157.77 43.25 C 158.25 47.14 157.73 51.29 155.50 54.60 C 154.26 56.35 150.77 56.48 150.21 54.09 C 149.69 50.37 150.81 46.24 153.44 43.49 Z" />
<path fill="#cc2433" opacity="1.00" d=" M 107.31 44.32 C 108.01 44.03 109.42 43.45 110.12 43.16 C 112.44 44.49 110.77 47.32 109.85 49.01 C 108.43 51.16 106.58 54.53 103.50 53.70 C 102.45 50.17 104.68 46.54 107.31 44.32 Z" />
<path fill="#cc2433" opacity="1.00" d=" M 82.31 62.29 C 83.90 60.93 85.07 63.87 83.65 64.75 C 82.06 66.12 80.92 63.17 82.31 62.29 Z" />
</g>
<g id="#e11f2aff">
<path fill="#e11f2a" opacity="1.00" d=" M 64.51 17.62 C 73.85 14.46 83.54 11.57 93.54 12.14 C 93.53 12.54 93.50 13.32 93.48 13.71 C 96.84 14.70 100.33 14.89 103.81 14.97 C 103.57 16.06 103.30 17.15 103.00 18.22 C 101.64 21.01 100.54 23.90 99.54 26.82 C 99.17 26.71 98.45 26.50 98.08 26.39 C 98.51 26.03 99.35 25.33 99.78 24.98 C 98.64 20.95 96.74 15.95 91.81 15.68 C 89.03 15.57 85.46 15.18 83.80 17.98 C 83.60 21.91 87.69 23.66 90.61 25.14 C 89.09 26.94 87.51 28.71 85.93 30.46 C 88.63 30.26 91.47 29.97 93.17 27.56 C 93.86 27.22 95.24 26.52 95.93 26.18 C 96.09 27.33 96.26 28.48 96.41 29.64 L 96.27 30.05 C 98.51 30.17 100.77 30.24 103.02 30.25 C 101.81 30.90 100.50 31.42 99.49 32.37 C 98.88 35.35 98.59 38.90 101.07 41.13 C 100.25 41.14 98.59 41.17 97.77 41.18 C 93.06 40.68 90.09 44.80 87.44 47.98 C 88.08 45.57 88.52 43.12 88.47 40.62 C 84.28 41.37 81.23 44.45 78.75 47.68 C 79.16 45.73 79.65 43.78 79.76 41.78 C 76.88 40.32 74.17 43.34 72.50 45.38 C 71.80 45.02 70.41 44.28 69.71 43.91 C 69.96 43.05 70.45 41.32 70.70 40.45 C 68.25 40.78 65.79 41.05 63.38 41.63 C 60.36 42.47 58.10 44.87 56.27 47.30 C 53.44 47.92 50.08 46.71 47.59 48.49 L 47.45 48.51 L 48.28 46.92 C 47.84 47.02 46.94 47.21 46.49 47.30 C 46.80 45.54 47.26 43.78 47.24 41.98 C 46.76 40.55 44.89 41.20 43.99 41.78 C 41.87 42.88 40.64 45.00 39.43 46.96 C 40.86 46.28 42.29 45.58 43.71 44.88 C 43.51 45.64 43.10 47.14 42.90 47.90 C 39.90 47.89 36.57 48.44 33.78 47.25 C 31.97 42.28 33.30 36.01 37.28 32.37 C 40.12 32.30 43.07 32.64 45.82 31.81 C 51.02 25.86 57.73 21.55 64.51 17.62 M 46.82 47.18 C 48.99 45.86 51.40 45.03 53.89 44.58 C 53.68 43.15 54.46 40.54 52.10 41.15 C 49.49 42.10 48.36 45.10 46.82 47.18 Z" />
</g>
<g id="#0d090cff">
<path fill="#0d090c" opacity="1.00" d=" M 83.80 17.98 C 85.46 15.18 89.03 15.57 91.81 15.68 L 92.15 16.76 C 92.41 17.80 92.92 19.88 93.18 20.92 C 92.24 20.83 90.36 20.65 89.42 20.55 C 90.94 22.50 92.97 23.94 95.18 25.02 C 96.12 25.54 97.08 26.00 98.08 26.39 C 98.45 26.50 99.17 26.71 99.54 26.82 C 101.54 27.39 103.10 25.81 104.79 25.08 C 107.02 24.02 108.93 22.46 110.49 20.56 C 109.36 20.65 108.22 20.72 107.09 20.78 L 106.61 20.25 L 107.01 19.22 C 107.61 18.19 108.10 17.12 108.48 16.00 C 110.99 15.42 114.71 15.18 116.00 17.95 C 116.54 21.77 112.32 23.58 109.56 25.03 C 108.60 25.46 107.62 25.86 106.64 26.23 C 105.83 26.53 105.01 26.77 104.16 26.95 C 101.59 27.77 97.88 26.85 96.41 29.64 C 96.26 28.48 96.09 27.33 95.93 26.18 C 95.24 26.52 93.86 27.22 93.17 27.56 L 94.01 26.77 C 92.87 26.23 91.74 25.69 90.61 25.14 C 87.69 23.66 83.60 21.91 83.80 17.98 Z" />
<path fill="#0d090c" opacity="1.00" d=" M 95.58 59.76 C 95.59 61.13 95.66 62.50 95.79 63.86 C 97.13 63.42 98.45 62.91 99.74 62.33 C 99.23 63.19 98.72 64.06 98.22 64.93 L 99.78 65.53 C 95.38 66.18 90.58 64.63 86.46 66.44 C 86.30 66.15 85.99 65.57 85.84 65.28 C 83.99 65.51 82.14 65.73 80.29 65.97 C 80.64 64.39 80.99 62.82 81.34 61.24 C 82.50 61.30 83.65 61.36 84.81 61.41 C 85.07 61.92 85.59 62.94 85.86 63.45 C 86.76 63.47 88.58 63.51 89.49 63.53 C 89.75 63.32 90.28 62.90 90.54 62.69 C 91.79 63.07 93.05 63.43 94.32 63.76 C 94.75 62.43 95.17 61.09 95.58 59.76 M 82.31 62.29 C 80.92 63.17 82.06 66.12 83.65 64.75 C 85.07 63.87 83.90 60.93 82.31 62.29 Z" />
<path fill="#0d090c" opacity="1.00" d=" M 60.45 79.11 C 61.00 79.16 62.10 79.28 62.65 79.33 C 62.04 82.50 60.97 85.55 60.58 88.75 L 60.67 89.35 C 60.56 90.59 59.83 90.63 58.47 89.49 C 57.25 90.29 54.82 90.96 54.44 88.90 C 54.43 85.86 57.06 83.17 60.15 83.35 C 60.27 81.94 60.37 80.52 60.45 79.11 M 55.94 88.85 C 58.17 89.30 58.99 87.10 59.69 85.46 C 57.62 82.28 56.73 87.21 55.94 88.85 Z" />
<path fill="#0d090c" opacity="1.00" d=" M 20.24 80.08 C 21.38 80.07 22.52 80.06 23.67 80.07 C 24.37 82.46 25.12 84.85 25.95 87.21 C 27.33 84.84 28.77 82.50 29.98 80.03 C 30.75 80.00 32.31 79.94 33.09 79.91 C 31.01 82.44 31.67 85.87 31.23 88.88 C 31.80 89.06 32.95 89.43 33.52 89.61 C 33.11 86.96 35.30 85.15 36.66 83.24 C 36.55 85.07 34.58 87.13 35.55 88.76 C 37.56 87.67 38.53 85.55 37.51 83.43 L 40.54 83.30 C 40.50 84.92 38.66 86.97 39.64 88.43 C 40.24 88.46 41.44 88.54 42.03 88.58 C 41.82 87.32 41.55 86.07 41.25 84.82 C 42.11 84.31 42.96 83.78 43.86 83.33 C 45.19 84.85 43.52 86.80 43.34 88.45 C 44.83 88.65 47.79 89.03 49.28 89.23 C 48.51 88.08 44.41 86.43 46.51 84.57 C 47.88 83.10 50.12 83.05 50.92 85.21 C 49.96 85.16 48.06 85.07 47.11 85.03 C 48.24 85.69 49.27 86.48 50.19 87.41 C 49.83 89.60 48.18 90.51 46.07 90.53 C 45.71 90.13 44.99 89.32 44.63 88.91 C 43.66 89.43 42.74 90.02 41.91 90.75 C 41.30 88.50 40.00 89.01 38.53 90.24 C 37.95 89.97 37.37 89.70 36.78 89.43 C 34.06 90.31 31.11 89.90 28.30 90.38 C 29.35 88.00 29.74 85.43 29.90 82.85 C 28.21 85.40 26.78 88.10 25.29 90.76 C 24.53 88.62 23.72 86.47 22.50 84.55 C 21.94 86.52 21.21 88.64 22.74 90.33 C 21.59 90.32 20.43 90.32 19.27 90.31 C 21.12 87.86 21.55 84.77 22.35 81.88 C 21.65 81.28 20.95 80.68 20.24 80.08 Z" />
<path fill="#0d090c" opacity="1.00" d=" M 43.28 80.07 C 44.91 79.54 45.46 80.10 44.94 81.73 C 43.34 82.24 42.79 81.68 43.28 80.07 Z" />
<path fill="#0d090c" opacity="1.00" d=" M 121.40 83.09 C 122.47 81.94 123.56 80.83 124.69 79.75 C 125.26 80.82 125.83 81.89 126.39 82.97 C 124.74 82.15 123.04 82.45 121.40 83.09 Z" />
<path fill="#0d090c" opacity="1.00" d=" M 130.94 80.17 C 132.93 80.19 134.92 80.18 136.91 80.20 C 136.41 80.48 135.40 81.03 134.90 81.30 C 134.35 83.96 133.88 86.63 133.42 89.30 L 134.98 89.85 C 133.37 90.13 131.74 90.31 130.11 90.45 C 132.03 87.80 132.07 84.45 132.77 81.37 C 132.31 81.07 131.40 80.47 130.94 80.17 Z" />
<path fill="#0d090c" opacity="1.00" d=" M 165.06 82.42 C 163.37 82.98 162.53 80.09 164.17 79.56 C 165.89 78.95 166.59 81.83 165.06 82.42 Z" />
<path fill="#0d090c" opacity="1.00" d=" M 63.58 84.56 C 65.07 82.80 67.56 83.65 69.22 84.66 C 69.46 87.52 68.07 89.90 65.41 90.97 C 65.82 88.84 68.69 85.98 66.26 84.20 C 64.93 85.22 64.45 86.85 63.87 88.33 L 65.84 89.06 C 65.06 89.55 64.27 90.03 63.47 90.50 C 62.98 88.65 61.80 86.10 63.58 84.56 Z" />
<path fill="#0d090c" opacity="1.00" d=" M 74.72 85.84 C 75.84 83.55 78.56 83.51 80.76 83.32 C 80.89 83.67 81.16 84.38 81.30 84.73 C 82.55 84.74 83.66 82.96 84.86 83.86 C 84.54 85.17 83.91 87.79 83.59 89.10 C 85.10 87.02 86.42 84.82 87.99 82.79 C 88.81 84.85 87.59 86.88 87.28 88.91 C 89.88 88.30 89.45 84.67 91.93 83.84 C 92.98 83.31 95.18 83.19 95.06 84.90 C 94.55 87.19 91.29 86.78 90.63 89.03 C 91.73 88.81 93.93 88.38 95.04 88.16 C 93.50 90.61 90.52 91.07 88.80 88.77 C 87.90 89.37 86.99 89.98 86.08 90.57 C 85.00 88.44 83.41 89.93 81.94 90.53 C 80.47 89.24 83.14 87.15 81.78 85.99 L 81.12 85.86 C 79.21 86.95 79.54 90.28 78.71 92.32 C 78.98 92.61 79.51 93.20 79.77 93.49 C 78.60 93.44 77.43 93.40 76.26 93.38 C 76.85 92.03 77.42 90.68 78.00 89.34 C 77.23 89.61 75.68 90.13 74.91 90.39 C 72.53 89.95 73.71 87.10 74.72 85.84 M 77.51 85.15 C 76.31 85.66 75.09 87.42 75.78 88.69 C 77.25 89.01 79.60 85.44 77.51 85.15 M 92.19 85.17 C 92.87 85.87 92.87 85.87 92.19 85.17 Z" />
<path fill="#0d090c" opacity="1.00" d=" M 98.79 85.66 C 99.97 84.76 101.14 83.80 102.53 83.23 C 103.00 85.31 102.02 87.33 101.80 89.38 C 104.46 88.49 104.38 85.51 105.13 83.29 C 107.16 83.36 106.28 85.56 105.69 86.69 C 104.58 88.92 102.39 90.90 99.73 90.29 C 100.05 88.70 100.37 87.11 100.71 85.52 L 98.79 85.66 Z" />
<path fill="#0d090c" opacity="1.00" d=" M 109.50 83.70 C 111.78 82.73 113.34 85.19 114.91 86.39 C 115.19 83.98 119.73 81.97 120.49 85.23 C 119.56 85.14 117.71 84.94 116.78 84.85 C 116.40 86.27 116.03 87.70 115.68 89.14 C 117.17 88.46 119.85 89.25 120.29 87.12 C 121.00 84.71 123.49 82.54 126.08 83.90 C 126.49 87.10 122.20 86.43 121.67 89.06 C 122.74 88.83 124.88 88.38 125.95 88.15 C 124.57 90.74 121.62 90.75 119.68 89.02 C 117.70 90.09 113.01 91.81 113.97 87.38 C 112.49 88.64 111.27 90.80 109.01 90.36 C 105.34 89.99 106.31 84.19 109.50 83.70 M 108.24 87.76 C 108.71 88.30 109.64 89.38 110.11 89.92 C 110.98 88.09 111.69 86.17 111.46 84.10 C 109.68 84.64 108.86 86.16 108.24 87.76 M 123.14 84.95 L 123.07 85.62 L 123.74 85.69 L 123.81 85.02 L 123.14 84.95 Z" />
<path fill="#0d090c" opacity="1.00" d=" M 138.31 83.22 C 138.30 86.14 140.24 84.40 141.44 83.50 C 142.00 84.49 142.48 85.52 143.03 86.53 C 142.09 87.85 141.27 89.25 140.29 90.55 C 138.46 89.87 140.67 87.81 140.39 86.74 C 139.96 86.77 139.11 86.84 138.68 86.88 C 138.21 88.07 137.75 89.26 137.28 90.45 C 136.90 90.36 136.15 90.18 135.77 90.09 C 135.90 88.47 138.02 85.92 135.42 85.37 C 136.38 84.65 137.35 83.93 138.31 83.22 Z" />
<path fill="#0d090c" opacity="1.00" d=" M 143.59 83.86 C 144.36 83.77 145.90 83.58 146.67 83.49 C 146.21 85.35 145.76 87.21 145.45 89.09 C 147.12 87.91 148.09 86.08 149.45 84.61 C 150.71 83.39 152.61 83.50 154.19 83.02 C 153.79 84.87 152.84 86.78 153.63 88.68 C 153.84 90.08 150.97 91.28 150.37 89.34 C 149.95 89.65 149.11 90.28 148.69 90.59 C 147.09 88.51 145.04 89.57 143.06 90.49 C 143.47 88.70 144.00 86.94 144.56 85.20 C 144.32 84.86 143.83 84.19 143.59 83.86 M 149.10 89.10 C 150.40 87.86 151.51 86.45 152.24 84.79 C 149.75 84.75 148.60 86.86 149.10 89.10 Z" />
<path fill="#0d090c" opacity="1.00" d=" M 168.36 83.10 C 168.60 83.52 169.07 84.35 169.30 84.77 C 170.26 84.51 172.17 83.98 173.13 83.71 C 173.17 85.51 170.80 88.15 173.66 89.10 L 174.02 86.12 C 174.66 87.02 175.29 87.93 175.91 88.85 C 177.17 87.74 178.02 86.31 178.57 84.74 C 177.57 84.98 175.56 85.46 174.56 85.70 C 175.98 83.45 178.62 83.61 180.84 83.13 C 180.38 84.63 179.91 86.11 179.42 87.60 C 179.83 87.83 180.66 88.30 181.07 88.54 C 180.52 88.98 179.43 89.87 178.89 90.32 C 177.55 89.15 176.11 89.81 174.74 90.46 C 174.38 90.08 173.68 89.32 173.33 88.95 C 172.72 89.32 171.51 90.06 170.91 90.44 C 170.59 90.30 169.95 90.02 169.63 89.88 C 170.01 88.16 170.46 86.45 171.00 84.77 C 169.33 86.37 168.16 88.34 167.26 90.45 C 166.91 90.36 166.20 90.20 165.85 90.12 C 166.19 88.48 167.31 86.79 166.26 85.14 C 166.96 84.46 167.66 83.78 168.36 83.10 Z" />
<path fill="#0d090c" opacity="1.00" d=" M 155.76 87.52 C 154.40 85.74 155.61 83.87 157.36 82.85 C 157.17 84.46 157.00 86.07 156.87 87.68 C 157.48 87.15 158.69 86.08 159.29 85.55 L 157.14 84.88 C 158.61 83.75 161.63 82.64 162.22 85.41 L 160.70 85.25 C 160.52 87.50 158.46 88.08 156.57 88.31 C 157.92 88.95 159.16 89.75 160.29 90.72 C 162.07 88.91 162.62 86.49 162.59 84.02 C 163.26 83.89 164.60 83.62 165.27 83.49 C 164.84 84.95 164.40 86.40 163.95 87.85 L 165.18 88.55 C 164.63 89.05 164.06 89.54 163.50 90.03 C 161.65 90.45 160.40 91.90 158.91 92.93 C 157.41 93.80 155.69 93.19 154.12 93.00 C 153.97 92.64 153.69 91.92 153.55 91.55 C 154.53 90.35 155.31 89.02 155.76 87.52 M 155.66 92.00 C 156.76 92.78 157.56 92.59 158.05 91.44 C 157.88 89.72 154.51 90.36 155.66 92.00 Z" />
</g>
</svg>
