<?xml version="1.0" encoding="UTF-8" ?>
<!DOCTYPE svg PUBLIC "-//W3C//DTD SVG 1.1//EN" "http://www.w3.org/Graphics/SVG/1.1/DTD/svg11.dtd">
<svg width="569pt" height="204pt" viewBox="0 0 569 204" version="1.1" xmlns="http://www.w3.org/2000/svg">
<g id="#ffffffff">
<path fill="#ffffff" opacity="1.00" d=" M 68.04 18.54 C 89.83 18.53 111.63 18.53 133.42 18.53 C 131.50 24.04 129.58 29.55 127.67 35.07 C 118.75 35.07 109.83 35.07 100.91 35.07 C 99.11 40.27 97.30 45.46 95.49 50.66 C 103.43 50.67 111.37 50.66 119.30 50.67 C 117.49 55.89 115.67 61.11 113.85 66.33 C 105.92 66.33 97.98 66.33 90.05 66.33 C 86.03 77.87 82.03 89.40 78.01 100.93 C 71.19 100.62 64.24 101.65 57.51 100.25 C 48.59 97.93 44.20 87.34 47.10 78.96 C 53.96 58.78 61.08 38.68 68.04 18.54 Z" />
<path fill="#ffffff" opacity="1.00" d=" M 429.94 34.26 C 436.35 30.74 443.68 29.49 450.85 28.56 C 462.87 27.42 475.39 27.70 486.76 32.20 C 491.16 34.20 495.19 38.77 494.18 43.91 C 492.79 51.30 489.95 58.30 487.58 65.41 C 484.84 72.89 482.65 80.67 478.67 87.61 C 472.93 95.58 463.04 99.07 453.77 100.90 C 450.80 100.18 448.00 101.87 445.03 101.64 C 433.71 102.46 421.66 102.59 411.13 97.76 C 410.13 97.25 409.13 96.74 408.14 96.23 L 408.84 96.00 C 407.00 95.54 405.95 94.02 405.06 92.48 C 404.95 92.41 404.72 92.27 404.61 92.20 C 402.92 88.59 403.86 84.75 405.11 81.18 C 406.03 77.23 407.62 73.48 408.69 69.58 C 408.87 69.62 409.25 69.69 409.44 69.73 C 409.43 68.94 409.40 67.35 409.39 66.56 L 410.19 66.77 C 410.40 65.55 410.65 64.34 410.94 63.14 C 411.37 62.16 411.80 61.17 412.22 60.19 C 412.65 58.59 413.18 57.01 413.65 55.42 L 414.20 55.79 C 414.33 54.53 414.60 53.30 414.99 52.10 C 416.54 47.92 417.93 43.43 421.23 40.24 C 423.52 37.81 426.38 36.05 429.21 34.33 L 429.94 34.26 M 452.40 40.72 L 452.76 41.71 L 451.91 41.44 C 451.22 42.88 450.58 44.35 449.87 45.78 C 449.53 46.76 449.18 47.74 448.83 48.71 C 447.97 51.28 447.05 53.82 446.26 56.41 L 445.88 56.37 C 445.64 57.55 445.37 58.72 445.08 59.88 C 444.68 60.87 444.29 61.86 443.91 62.85 C 443.59 63.85 443.26 64.85 442.92 65.84 C 442.57 66.85 442.21 67.85 441.84 68.85 C 440.24 73.77 438.42 78.61 436.84 83.53 C 436.32 85.56 435.71 87.73 436.34 89.81 C 438.52 91.16 441.19 90.36 443.60 90.40 C 445.09 88.90 446.33 87.18 447.27 85.28 C 447.80 83.55 448.47 81.87 449.16 80.20 C 450.36 76.66 451.64 73.15 452.76 69.59 L 453.12 69.62 C 453.36 68.45 453.63 67.28 453.94 66.12 C 454.34 65.13 454.74 64.14 455.14 63.15 C 456.28 59.63 457.60 56.16 458.69 52.62 C 458.80 52.62 459.03 52.62 459.15 52.62 C 459.34 51.43 459.58 50.26 459.85 49.09 C 460.30 48.10 460.77 47.11 461.24 46.12 C 461.42 44.39 461.83 42.64 461.65 40.89 C 459.40 38.25 455.26 39.97 452.40 40.72 Z" />
<path fill="#ffffff" opacity="1.00" d=" M 132.79 29.20 C 143.99 29.20 155.20 29.20 166.41 29.20 C 160.21 47.04 154.01 64.88 147.80 82.72 C 147.18 84.76 146.35 86.81 146.44 88.99 C 147.47 90.93 150.19 90.39 152.00 90.17 C 155.24 89.57 156.07 85.95 157.19 83.37 C 163.57 65.34 169.75 47.25 176.07 29.20 C 227.56 29.23 279.08 29.17 330.59 29.20 C 328.91 34.00 327.25 38.80 325.58 43.60 C 318.10 43.60 310.62 43.60 303.13 43.60 C 301.56 48.13 299.98 52.67 298.41 57.20 C 305.41 57.20 312.41 57.20 319.41 57.20 C 317.83 61.76 316.24 66.31 314.66 70.86 C 307.66 70.87 300.66 70.87 293.66 70.87 C 291.82 76.13 290.00 81.40 288.16 86.66 C 296.39 86.67 304.62 86.66 312.84 86.67 C 311.18 91.47 309.51 96.27 307.84 101.07 C 295.53 101.04 283.23 101.18 270.93 100.85 C 265.12 100.48 259.73 96.58 257.64 91.14 C 255.81 86.64 256.21 81.55 257.84 77.06 C 261.72 65.91 265.61 54.76 269.48 43.60 C 263.97 43.60 258.46 43.60 252.96 43.60 C 246.29 62.76 239.63 81.93 232.97 101.09 C 226.30 100.49 218.78 102.32 212.97 98.08 C 206.66 93.81 204.87 85.09 207.34 78.17 C 211.27 66.63 215.34 55.13 219.33 43.60 C 214.45 43.60 209.58 43.60 204.71 43.60 C 200.46 55.74 196.31 67.91 192.01 80.02 C 190.33 84.31 188.77 89.00 185.04 91.98 C 176.12 99.40 164.22 101.72 152.93 102.38 C 142.41 102.80 131.52 102.47 121.63 98.51 C 117.59 96.92 113.52 93.67 113.18 89.04 C 113.30 85.76 114.48 82.66 115.42 79.55 C 120.99 62.70 127.02 45.99 132.79 29.20 Z" />
<path fill="#ffffff" opacity="1.00" d=" M 337.72 29.20 C 353.85 29.34 369.99 28.85 386.11 29.65 C 392.55 30.18 399.73 30.51 404.88 34.91 C 409.60 39.37 407.67 46.44 405.33 51.61 L 404.88 51.29 C 404.54 54.39 401.96 56.63 399.37 58.01 C 399.33 58.22 399.24 58.65 399.20 58.87 L 398.07 58.53 C 396.83 59.24 395.51 59.68 394.10 59.86 L 394.78 60.29 C 391.43 61.21 388.02 61.85 384.58 62.26 C 388.56 62.63 392.34 63.85 395.91 65.60 C 396.99 66.41 398.13 67.14 399.21 67.96 C 399.83 70.76 399.68 73.63 399.48 76.46 L 398.81 76.24 C 398.60 77.45 398.35 78.65 398.05 79.83 C 397.64 80.85 397.22 81.87 396.79 82.87 C 396.36 84.38 395.80 85.84 395.32 87.33 C 395.06 87.38 394.56 87.49 394.30 87.54 C 394.43 87.95 394.69 88.76 394.81 89.17 L 393.96 89.37 C 393.31 90.59 392.56 91.76 391.70 92.84 L 391.34 93.58 L 390.15 93.40 L 390.70 94.09 C 388.67 95.77 386.34 96.98 383.93 98.00 C 382.83 98.36 381.72 98.65 380.60 98.90 C 368.53 101.13 356.14 101.13 343.88 101.03 C 338.15 100.69 331.79 101.89 326.78 98.34 C 320.24 94.27 318.20 85.43 320.64 78.40 C 326.28 61.99 332.03 45.60 337.72 29.20 M 367.11 41.48 C 365.24 46.82 363.38 52.16 361.54 57.51 C 364.93 57.27 368.74 57.91 371.76 55.99 C 373.94 53.76 374.89 50.66 375.91 47.78 C 376.52 45.92 377.10 43.19 374.84 42.20 C 372.34 41.46 369.69 41.62 367.11 41.48 M 357.68 68.61 C 355.33 75.32 353.00 82.04 350.67 88.76 C 355.00 88.39 361.14 89.16 363.11 84.16 C 364.63 79.58 367.60 74.88 366.87 69.94 C 364.02 68.58 360.74 68.89 357.68 68.61 Z" />
<path fill="#ffffff" opacity="1.00" d=" M 507.95 29.21 C 519.17 29.20 530.39 29.20 541.61 29.20 C 534.84 48.47 528.32 67.82 521.39 87.03 C 528.24 86.24 535.19 86.87 542.09 86.67 C 540.41 91.47 538.75 96.27 537.07 101.07 C 526.34 101.06 515.60 101.13 504.87 100.87 C 499.84 100.65 494.91 97.91 492.33 93.53 C 489.47 88.91 489.28 83.03 491.02 77.96 C 496.63 61.70 502.31 45.46 507.95 29.21 Z" />
<path fill="#ffffff" opacity="1.00" d=" M 421.34 109.13 C 431.54 106.84 442.08 107.14 452.45 107.75 C 459.23 108.89 467.09 110.64 471.03 116.87 C 473.78 121.30 471.36 126.48 470.18 131.01 C 466.60 141.69 463.15 152.44 458.78 162.83 C 455.83 170.50 448.24 174.98 440.86 177.65 C 428.43 181.89 414.96 182.46 401.99 181.00 C 395.06 179.90 386.87 178.42 382.98 171.87 C 379.81 167.31 382.94 161.93 384.10 157.21 C 384.39 156.19 384.70 155.17 385.04 154.17 C 385.35 153.16 385.69 152.16 386.06 151.17 C 386.36 150.16 386.69 149.17 387.06 148.18 C 387.40 147.16 387.76 146.15 388.13 145.15 C 388.43 144.17 388.75 143.20 389.10 142.23 C 389.44 141.25 389.80 140.29 390.19 139.33 C 390.65 137.70 391.21 136.09 391.68 134.47 L 392.19 134.78 C 392.39 133.53 392.64 132.29 392.94 131.06 C 393.75 129.36 394.56 127.65 395.48 126.00 C 395.41 125.70 395.28 125.09 395.21 124.79 L 396.69 124.47 L 396.21 122.88 C 396.41 122.80 396.81 122.65 397.02 122.57 C 400.25 117.42 405.81 113.77 411.61 112.17 L 411.56 111.66 C 413.43 111.18 415.27 110.58 417.15 110.09 C 418.52 109.65 419.93 109.41 421.34 109.13 M 429.98 119.87 C 429.17 121.23 428.69 122.76 428.11 124.22 C 428.00 124.23 427.79 124.25 427.68 124.25 C 426.57 128.76 424.51 133.00 423.76 137.61 C 421.03 146.11 417.85 154.46 415.08 162.95 C 414.62 164.81 413.73 166.80 414.38 168.71 C 417.29 170.24 421.87 169.95 423.64 166.83 C 425.07 164.41 425.97 161.73 426.92 159.10 C 430.55 148.64 434.20 138.18 437.82 127.72 C 438.66 124.72 440.36 121.64 439.21 118.49 C 436.06 118.34 432.87 118.45 429.98 119.87 Z" />
<path fill="#ffffff" opacity="1.00" d=" M 26.74 108.40 C 39.62 108.40 52.49 108.40 65.36 108.40 C 55.82 135.87 46.27 163.33 36.72 190.80 C 31.11 190.75 25.50 190.91 19.90 190.73 C 14.69 190.49 9.65 187.52 7.13 182.91 C 4.40 178.15 4.47 172.23 6.32 167.17 C 13.12 147.58 19.94 127.99 26.74 108.40 Z" />
<path fill="#ffffff" opacity="1.00" d=" M 74.24 108.40 C 83.61 108.40 92.98 108.40 102.35 108.40 C 104.89 119.19 107.44 129.97 109.98 140.75 C 113.73 129.97 117.48 119.18 121.23 108.40 C 170.75 108.41 220.27 108.39 269.79 108.40 C 268.12 113.20 266.45 118.00 264.79 122.80 C 257.30 122.80 249.82 122.80 242.34 122.80 C 240.77 127.34 239.19 131.86 237.62 136.40 C 244.61 136.40 251.61 136.40 258.61 136.40 C 257.03 140.96 255.44 145.51 253.86 150.07 C 246.86 150.07 239.86 150.07 232.87 150.07 C 231.03 155.33 229.20 160.60 227.37 165.87 C 235.59 165.86 243.82 165.87 252.05 165.87 C 250.39 170.64 248.73 175.42 247.07 180.20 C 235.04 180.17 223.00 180.26 210.97 180.16 C 205.06 180.07 199.36 176.39 197.05 170.92 C 195.11 166.56 195.25 161.50 196.80 157.05 C 200.73 145.62 204.73 134.22 208.69 122.80 C 203.33 122.80 197.98 122.80 192.62 122.80 C 185.96 141.93 179.31 161.06 172.67 180.20 C 165.98 179.86 158.45 181.55 152.62 177.34 C 146.42 173.17 144.54 164.62 146.87 157.77 C 150.84 146.09 154.97 134.46 158.99 122.80 C 154.11 122.80 149.23 122.80 144.35 122.80 C 137.68 141.93 131.04 161.07 124.38 180.20 C 114.56 180.20 104.73 180.20 94.90 180.20 C 92.84 169.33 90.80 158.45 88.73 147.58 C 84.96 158.45 81.18 169.33 77.39 180.21 C 72.41 180.32 66.95 180.44 62.77 177.27 C 56.44 172.92 54.75 164.13 57.30 157.18 C 62.91 140.91 68.60 124.66 74.24 108.40 Z" />
<path fill="#ffffff" opacity="1.00" d=" M 276.47 108.40 C 293.98 108.52 311.53 108.02 329.02 109.13 C 334.82 109.53 341.59 110.75 345.04 115.96 C 347.41 119.89 345.14 124.37 344.25 128.39 L 343.62 128.28 C 343.24 129.85 342.81 131.41 342.40 132.97 C 340.35 136.07 337.83 139.23 334.10 140.31 C 329.90 141.59 325.54 142.39 321.17 142.80 C 323.03 143.06 324.94 143.29 326.71 144.00 C 330.43 144.77 333.72 146.70 335.85 149.90 C 335.43 153.66 334.26 157.29 332.90 160.80 C 332.57 161.84 332.23 162.88 331.89 163.92 C 330.06 169.20 328.12 174.45 326.46 179.79 C 316.25 179.62 306.04 179.70 295.83 179.72 C 297.30 176.10 298.57 172.41 299.72 168.68 C 299.80 168.66 299.98 168.63 300.07 168.61 C 300.38 167.42 300.75 166.24 301.19 165.09 C 301.47 159.63 305.70 154.79 304.62 149.25 C 302.25 147.61 299.15 148.09 296.45 147.78 C 292.90 157.45 289.90 167.33 285.77 176.78 C 285.55 177.75 285.34 178.72 285.12 179.70 C 280.80 179.83 276.44 179.34 272.16 180.03 C 267.87 179.46 263.80 177.20 261.35 173.59 C 257.88 168.79 257.69 162.29 259.63 156.84 C 265.24 140.69 270.86 124.55 276.47 108.40 M 300.30 136.73 C 304.03 136.29 309.27 137.22 311.36 133.21 C 312.90 130.03 314.58 126.58 314.52 122.99 C 312.79 120.16 308.70 121.08 305.87 120.62 C 304.02 125.99 302.11 131.34 300.30 136.73 Z" />
<path fill="#ffffff" opacity="1.00" d=" M 485.50 108.40 C 502.33 108.49 519.18 108.10 536.00 108.98 C 541.83 109.33 548.33 109.95 552.74 114.24 C 556.06 117.39 555.47 122.53 554.27 126.52 C 552.67 131.49 550.38 136.86 545.61 139.55 C 540.87 141.99 535.41 142.33 530.19 142.75 C 534.99 143.70 540.80 143.97 544.00 148.23 C 545.83 150.23 544.76 153.00 544.17 155.28 C 541.54 163.65 538.48 171.89 535.64 180.20 C 525.24 180.20 514.83 180.20 504.43 180.20 C 507.23 172.06 510.12 163.94 512.89 155.79 C 513.48 153.67 514.39 151.41 513.65 149.22 C 511.23 147.68 508.19 148.05 505.48 147.77 C 501.70 158.58 497.96 169.39 494.20 180.20 C 488.74 179.93 483.07 180.94 477.78 179.22 C 472.48 177.40 468.51 172.47 467.68 166.95 C 466.93 163.02 467.82 159.02 469.18 155.33 C 474.63 139.69 480.06 124.04 485.50 108.40 M 509.33 136.73 C 513.01 136.29 518.09 137.20 520.30 133.41 C 521.92 130.18 523.55 126.65 523.59 122.98 C 521.73 120.18 517.77 121.08 514.91 120.62 C 513.05 125.99 511.15 131.34 509.33 136.73 Z" />
<path fill="#ffffff" opacity="1.00" d=" M 358.97 108.55 C 370.17 108.98 381.39 108.67 392.60 108.65 C 391.70 110.88 390.91 113.15 390.24 115.46 L 389.82 115.23 C 389.60 116.44 389.33 117.64 389.03 118.83 C 388.62 119.84 388.21 120.86 387.81 121.87 C 387.52 122.81 387.20 123.75 386.86 124.67 C 385.98 127.28 385.04 129.88 384.28 132.53 L 383.56 132.20 C 383.58 133.01 383.61 134.62 383.63 135.42 C 383.42 135.39 383.01 135.33 382.80 135.30 C 382.59 136.49 382.34 137.67 382.04 138.85 C 381.64 139.85 381.24 140.86 380.86 141.87 C 380.53 142.79 380.20 143.70 379.84 144.61 C 379.37 146.28 378.81 147.92 378.35 149.59 L 377.54 149.20 C 377.58 150.03 377.65 151.69 377.69 152.52 L 376.79 152.20 C 376.68 153.48 376.41 154.74 375.99 155.95 C 374.01 161.96 372.10 167.99 369.86 173.91 C 369.53 174.81 369.18 175.71 368.81 176.60 C 368.64 177.38 368.30 178.93 368.12 179.71 C 359.48 180.68 348.34 180.77 343.54 172.00 C 342.02 168.20 340.91 163.97 342.07 159.90 C 346.49 144.48 353.13 129.83 357.89 114.54 L 358.58 115.06 C 358.63 112.88 358.75 110.71 358.97 108.55 Z" />
</g>
</svg>
