<?xml version="1.0" encoding="UTF-8" ?>
<!DOCTYPE svg PUBLIC "-//W3C//DTD SVG 1.1//EN" "http://www.w3.org/Graphics/SVG/1.1/DTD/svg11.dtd">
<svg width="200pt" height="100pt" viewBox="0 0 200 100" version="1.1" xmlns="http://www.w3.org/2000/svg">
<g id="#ffffffff">
<path fill="#ffffff" opacity="1.00" d=" M 0.00 0.00 L 200.00 0.00 L 200.00 100.00 L 0.00 100.00 L 0.00 0.00 M 15.02 19.40 C 15.11 31.29 15.00 43.17 15.08 55.05 C 23.47 55.06 31.87 55.04 40.26 55.05 C 40.26 53.02 40.27 50.99 40.26 48.95 C 34.21 48.93 28.16 48.98 22.11 48.92 C 22.10 39.08 22.09 29.23 22.13 19.38 C 19.76 19.37 17.39 19.38 15.02 19.40 M 73.21 29.35 C 68.88 38.36 73.38 50.44 82.66 54.24 C 89.88 57.32 99.05 54.06 102.86 47.23 C 100.97 46.10 99.06 44.99 97.15 43.89 C 95.60 46.05 93.79 48.30 91.05 48.88 C 85.96 50.55 80.74 46.53 79.34 41.74 C 77.23 36.06 79.34 28.32 85.26 25.87 C 89.70 24.27 94.96 26.36 96.94 30.69 C 98.72 29.34 100.54 28.06 102.36 26.76 C 99.67 23.01 95.88 19.73 91.10 19.31 C 83.72 18.04 76.01 22.44 73.21 29.35 M 43.56 31.53 C 44.26 32.99 44.96 34.46 45.64 35.93 C 49.07 33.65 53.47 32.06 57.51 33.71 C 59.64 34.93 59.82 37.57 60.28 39.72 C 55.33 38.49 49.57 37.85 45.24 41.16 C 41.14 44.01 41.31 50.76 45.32 53.62 C 49.96 57.29 56.91 55.56 60.57 51.31 C 60.98 52.25 61.34 53.21 61.85 54.11 C 63.47 56.07 66.23 55.26 68.42 55.37 C 68.44 53.62 68.44 51.86 68.49 50.11 C 65.46 47.96 66.88 44.07 66.61 40.96 C 66.87 37.04 66.07 32.38 62.35 30.25 C 56.56 26.70 49.11 28.25 43.56 31.53 M 106.10 31.53 C 106.86 32.99 107.62 34.44 108.38 35.90 C 111.79 33.70 116.19 31.97 120.15 33.77 C 122.34 34.90 122.28 37.61 123.03 39.64 C 119.01 38.94 114.71 37.94 110.77 39.61 C 107.21 40.71 104.23 44.29 104.82 48.15 C 105.27 52.59 109.71 55.86 114.05 55.61 C 117.76 55.76 120.91 53.51 123.55 51.15 C 123.71 51.94 124.04 53.52 124.20 54.30 C 126.31 55.47 128.70 55.55 131.05 55.33 C 131.06 53.46 131.07 51.59 131.09 49.72 C 130.62 49.38 129.68 48.70 129.21 48.36 C 129.23 44.88 129.35 41.40 129.23 37.92 C 129.05 34.36 126.98 30.80 123.56 29.47 C 117.85 26.93 111.33 28.61 106.10 31.53 M 138.91 29.86 C 134.92 31.73 133.08 37.84 136.38 41.11 C 140.41 44.50 146.37 43.64 150.45 46.91 C 150.93 49.05 148.91 50.61 146.95 50.65 C 143.03 51.11 139.41 49.29 136.05 47.52 C 135.15 49.11 134.25 50.69 133.33 52.27 C 139.25 55.14 146.54 57.14 152.78 54.10 C 157.04 52.14 158.74 45.29 154.59 42.36 C 150.33 39.59 144.96 39.49 140.54 37.02 C 140.94 35.97 141.37 34.93 141.84 33.90 C 145.70 32.02 150.02 33.70 153.47 35.68 C 154.41 34.24 155.37 32.80 156.32 31.36 C 151.07 28.64 144.39 26.64 138.91 29.86 M 160.64 31.54 C 161.36 33.00 162.10 34.45 162.81 35.92 C 166.25 33.66 170.57 32.10 174.62 33.67 C 176.79 34.89 176.89 37.59 177.34 39.75 C 172.36 38.39 166.49 37.89 162.20 41.30 C 157.99 44.34 158.61 51.44 163.00 54.04 C 167.70 57.25 174.04 55.22 177.73 51.40 C 178.14 55.11 181.84 55.87 184.94 55.44 C 184.96 53.63 184.96 51.81 184.96 49.99 C 182.69 46.72 184.03 42.59 183.69 38.90 C 183.97 34.64 181.29 30.28 177.11 29.06 C 171.56 27.14 165.58 28.75 160.64 31.54 M 65.72 70.20 C 65.74 73.38 65.73 76.56 65.73 79.73 L 67.85 79.60 C 67.79 78.41 67.73 77.23 67.66 76.04 C 69.27 75.86 70.88 75.64 72.48 75.37 C 71.10 74.21 69.32 73.97 67.62 73.64 C 67.64 73.21 67.69 72.34 67.71 71.90 C 69.21 71.89 70.71 71.88 72.21 71.88 C 72.20 71.39 72.19 70.42 72.18 69.94 C 70.03 70.00 67.88 70.09 65.72 70.20 M 78.23 70.23 C 78.29 73.40 78.29 76.58 78.25 79.75 C 78.74 79.72 79.71 79.67 80.20 79.64 C 80.19 76.49 80.19 73.33 80.20 70.17 C 79.70 70.18 78.72 70.21 78.23 70.23 M 86.98 70.17 C 86.97 73.35 86.98 76.53 87.07 79.71 C 89.66 79.80 92.27 79.81 94.83 79.37 C 93.31 77.61 90.96 78.02 88.90 77.86 C 88.94 75.34 88.95 72.83 89.03 70.31 C 88.52 70.27 87.49 70.20 86.98 70.17 M 99.68 70.17 C 99.69 73.39 99.71 76.61 99.71 79.83 C 100.24 79.75 101.30 79.59 101.83 79.51 C 101.70 77.54 101.59 75.57 101.54 73.60 C 102.58 75.26 103.56 76.97 104.64 78.62 C 105.71 76.98 106.62 75.25 107.55 73.53 C 107.57 75.57 107.48 77.60 107.43 79.64 L 109.52 79.66 C 109.46 76.31 109.52 72.95 109.34 69.60 C 106.54 70.28 105.96 73.33 104.59 75.43 C 103.62 73.68 102.67 71.92 101.69 70.17 C 101.19 70.17 100.19 70.17 99.68 70.17 M 116.20 70.25 C 116.21 73.39 116.20 76.52 116.18 79.66 C 118.71 79.43 122.03 80.90 123.73 78.33 C 121.82 78.09 119.91 77.97 118.00 77.86 C 118.01 77.36 118.03 76.35 118.03 75.85 C 119.71 75.72 121.38 75.53 123.04 75.30 C 121.68 73.91 119.76 73.95 117.97 73.78 C 117.99 73.31 118.03 72.37 118.04 71.90 C 119.61 71.89 121.18 71.90 122.75 71.90 C 122.73 71.40 122.69 70.40 122.67 69.89 C 120.51 69.99 118.35 70.10 116.20 70.25 M 130.51 70.36 C 129.65 71.23 128.85 72.16 128.10 73.14 C 129.72 75.56 132.90 75.79 134.82 77.88 C 132.50 77.87 130.18 77.73 127.88 77.45 C 129.29 81.14 136.79 80.71 136.03 76.14 C 134.48 74.20 131.79 73.94 129.75 72.77 C 131.50 72.02 133.31 71.88 135.18 72.35 C 135.27 71.92 135.45 71.05 135.54 70.62 C 133.90 70.45 132.11 69.55 130.51 70.36 Z" />
<path fill="#ffffff" opacity="1.00" d=" M 49.98 43.91 C 52.94 41.61 56.87 42.68 60.15 43.51 C 60.99 48.46 55.46 51.93 51.09 50.22 C 48.50 49.38 47.68 45.51 49.98 43.91 Z" />
<path fill="#ffffff" opacity="1.00" d=" M 111.74 44.91 C 114.30 41.43 119.13 42.53 122.70 43.44 C 123.46 47.43 120.04 50.79 116.13 50.61 C 113.18 51.14 109.77 47.69 111.74 44.91 Z" />
<path fill="#ffffff" opacity="1.00" d=" M 166.28 48.59 C 164.46 46.34 166.74 43.48 169.05 42.89 C 171.69 42.04 174.43 42.83 177.04 43.40 C 177.03 44.39 177.03 46.38 177.02 47.37 C 174.48 50.39 169.03 52.35 166.28 48.59 Z" />
</g>
<g id="#010101ff">
<path fill="#010101" opacity="1.00" d=" M 15.02 19.40 C 17.39 19.38 19.76 19.37 22.13 19.38 C 22.09 29.23 22.10 39.08 22.11 48.92 C 28.16 48.98 34.21 48.93 40.26 48.95 C 40.27 50.99 40.26 53.02 40.26 55.05 C 31.87 55.04 23.47 55.06 15.08 55.05 C 15.00 43.17 15.11 31.29 15.02 19.40 Z" />
<path fill="#010101" opacity="1.00" d=" M 73.21 29.35 C 76.01 22.44 83.72 18.04 91.10 19.31 C 95.88 19.73 99.67 23.01 102.36 26.76 C 100.54 28.06 98.72 29.34 96.94 30.69 C 94.96 26.36 89.70 24.27 85.26 25.87 C 79.34 28.32 77.23 36.06 79.34 41.74 C 80.74 46.53 85.96 50.55 91.05 48.88 C 93.79 48.30 95.60 46.05 97.15 43.89 C 99.06 44.99 100.97 46.10 102.86 47.23 C 99.05 54.06 89.88 57.32 82.66 54.24 C 73.38 50.44 68.88 38.36 73.21 29.35 Z" />
<path fill="#010101" opacity="1.00" d=" M 43.56 31.53 C 49.11 28.25 56.56 26.70 62.35 30.25 C 66.07 32.38 66.87 37.04 66.61 40.96 C 66.88 44.07 65.46 47.96 68.49 50.11 C 68.44 51.86 68.44 53.62 68.42 55.37 C 66.23 55.26 63.47 56.07 61.85 54.11 C 61.34 53.21 60.98 52.25 60.57 51.31 C 56.91 55.56 49.96 57.29 45.32 53.62 C 41.31 50.76 41.14 44.01 45.24 41.16 C 49.57 37.85 55.33 38.49 60.28 39.72 C 59.82 37.57 59.64 34.93 57.51 33.71 C 53.47 32.06 49.07 33.65 45.64 35.93 C 44.96 34.46 44.26 32.99 43.56 31.53 M 49.98 43.91 C 47.68 45.51 48.50 49.38 51.09 50.22 C 55.46 51.93 60.99 48.46 60.15 43.51 C 56.87 42.68 52.94 41.61 49.98 43.91 Z" />
<path fill="#010101" opacity="1.00" d=" M 106.10 31.53 C 111.33 28.61 117.85 26.93 123.56 29.47 C 126.98 30.80 129.05 34.36 129.23 37.92 C 129.35 41.40 129.23 44.88 129.21 48.36 C 129.68 48.70 130.62 49.38 131.09 49.72 C 131.07 51.59 131.06 53.46 131.05 55.33 C 128.70 55.55 126.31 55.47 124.20 54.30 C 124.04 53.52 123.71 51.94 123.55 51.15 C 120.91 53.51 117.76 55.76 114.05 55.61 C 109.71 55.86 105.27 52.59 104.82 48.15 C 104.23 44.29 107.21 40.71 110.77 39.61 C 114.71 37.94 119.01 38.94 123.03 39.64 C 122.28 37.61 122.34 34.90 120.15 33.77 C 116.19 31.97 111.79 33.70 108.38 35.90 C 107.62 34.44 106.86 32.99 106.10 31.53 M 111.74 44.91 C 109.77 47.69 113.18 51.14 116.13 50.61 C 120.04 50.79 123.46 47.43 122.70 43.44 C 119.13 42.53 114.30 41.43 111.74 44.91 Z" />
<path fill="#010101" opacity="1.00" d=" M 138.91 29.86 C 144.39 26.64 151.07 28.64 156.32 31.36 C 155.37 32.80 154.41 34.24 153.47 35.68 C 150.02 33.70 145.70 32.02 141.84 33.90 C 141.37 34.93 140.94 35.97 140.54 37.02 C 144.96 39.49 150.33 39.59 154.59 42.36 C 158.74 45.29 157.04 52.14 152.78 54.10 C 146.54 57.14 139.25 55.14 133.33 52.27 C 134.25 50.69 135.15 49.11 136.05 47.52 C 139.41 49.29 143.03 51.11 146.95 50.65 C 148.91 50.61 150.93 49.05 150.45 46.91 C 146.37 43.64 140.41 44.50 136.38 41.11 C 133.08 37.84 134.92 31.73 138.91 29.86 Z" />
<path fill="#010101" opacity="1.00" d=" M 160.64 31.54 C 165.58 28.75 171.56 27.14 177.11 29.06 C 181.29 30.28 183.97 34.64 183.69 38.90 C 184.03 42.59 182.69 46.72 184.96 49.99 C 184.96 51.81 184.96 53.63 184.94 55.44 C 181.84 55.87 178.14 55.11 177.73 51.40 C 174.04 55.22 167.70 57.25 163.00 54.04 C 158.61 51.44 157.99 44.34 162.20 41.30 C 166.49 37.89 172.36 38.39 177.34 39.75 C 176.89 37.59 176.79 34.89 174.62 33.67 C 170.57 32.10 166.25 33.66 162.81 35.92 C 162.10 34.45 161.36 33.00 160.64 31.54 M 166.28 48.59 C 169.03 52.35 174.48 50.39 177.02 47.37 C 177.03 46.38 177.03 44.39 177.04 43.40 C 174.43 42.83 171.69 42.04 169.05 42.89 C 166.74 43.48 164.46 46.34 166.28 48.59 Z" />
<path fill="#010101" opacity="1.00" d=" M 65.72 70.20 C 67.88 70.09 70.03 70.00 72.18 69.94 C 72.19 70.42 72.20 71.39 72.21 71.88 C 70.71 71.88 69.21 71.89 67.71 71.90 C 67.69 72.34 67.64 73.21 67.62 73.64 C 69.32 73.97 71.10 74.21 72.48 75.37 C 70.88 75.64 69.27 75.86 67.66 76.04 C 67.73 77.23 67.79 78.41 67.85 79.60 L 65.73 79.73 C 65.73 76.56 65.74 73.38 65.72 70.20 Z" />
<path fill="#010101" opacity="1.00" d=" M 78.23 70.23 C 78.72 70.21 79.70 70.18 80.20 70.17 C 80.19 73.33 80.19 76.49 80.20 79.64 C 79.71 79.67 78.74 79.72 78.25 79.75 C 78.29 76.58 78.29 73.40 78.23 70.23 Z" />
<path fill="#010101" opacity="1.00" d=" M 86.98 70.17 C 87.49 70.20 88.52 70.27 89.03 70.31 C 88.95 72.83 88.94 75.34 88.90 77.86 C 90.96 78.02 93.31 77.61 94.83 79.37 C 92.27 79.81 89.66 79.80 87.07 79.71 C 86.98 76.53 86.97 73.35 86.98 70.17 Z" />
<path fill="#010101" opacity="1.00" d=" M 99.68 70.17 C 100.19 70.17 101.19 70.17 101.69 70.17 C 102.67 71.92 103.62 73.68 104.59 75.43 C 105.96 73.33 106.54 70.28 109.34 69.60 C 109.52 72.95 109.46 76.31 109.52 79.66 L 107.43 79.64 C 107.48 77.60 107.57 75.57 107.55 73.53 C 106.62 75.25 105.71 76.98 104.64 78.62 C 103.56 76.97 102.58 75.26 101.54 73.60 C 101.59 75.57 101.70 77.54 101.83 79.51 C 101.30 79.59 100.24 79.75 99.71 79.83 C 99.71 76.61 99.69 73.39 99.68 70.17 Z" />
<path fill="#010101" opacity="1.00" d=" M 116.20 70.25 C 118.35 70.10 120.51 69.99 122.67 69.89 C 122.69 70.40 122.73 71.40 122.75 71.90 C 121.18 71.90 119.61 71.89 118.04 71.90 C 118.03 72.37 117.99 73.31 117.97 73.78 C 119.76 73.95 121.68 73.91 123.04 75.30 C 121.38 75.53 119.71 75.72 118.03 75.85 C 118.03 76.35 118.01 77.36 118.00 77.86 C 119.91 77.97 121.82 78.09 123.73 78.33 C 122.03 80.90 118.71 79.43 116.18 79.66 C 116.20 76.52 116.21 73.39 116.20 70.25 Z" />
<path fill="#010101" opacity="1.00" d=" M 130.51 70.36 C 132.11 69.55 133.90 70.45 135.54 70.62 C 135.45 71.05 135.27 71.92 135.18 72.35 C 133.31 71.88 131.50 72.02 129.75 72.77 C 131.79 73.94 134.48 74.20 136.03 76.14 C 136.79 80.71 129.29 81.14 127.88 77.45 C 130.18 77.73 132.50 77.87 134.82 77.88 C 132.90 75.79 129.72 75.56 128.10 73.14 C 128.85 72.16 129.65 71.23 130.51 70.36 Z" />
</g>
</svg>
