<?xml version="1.0" encoding="UTF-8" ?>
<!DOCTYPE svg PUBLIC "-//W3C//DTD SVG 1.1//EN" "http://www.w3.org/Graphics/SVG/1.1/DTD/svg11.dtd">
<svg width="200pt" height="100pt" viewBox="0 0 200 100" version="1.1" xmlns="http://www.w3.org/2000/svg">
<g id="#ffffffff">
<path fill="#ffffff" opacity="1.00" d=" M 0.00 0.00 L 200.00 0.00 L 200.00 100.00 L 0.00 100.00 L 0.00 0.00 M 13.78 35.16 C 11.63 36.76 9.90 38.85 8.16 40.87 C 6.33 42.34 4.76 44.10 3.13 45.78 C 10.03 45.23 17.09 46.20 23.89 44.88 C 25.27 43.36 26.67 41.87 28.09 40.39 C 36.28 40.03 44.55 40.97 52.69 39.84 C 54.81 38.42 56.88 36.89 58.49 34.88 C 59.10 33.80 59.71 32.73 60.33 31.66 C 45.86 31.66 31.39 31.54 16.93 31.65 C 15.89 32.83 14.84 34.00 13.78 35.16 M 98.32 32.67 C 98.41 39.23 98.29 45.78 98.39 52.34 C 101.89 52.27 105.38 52.27 108.88 52.34 C 108.94 51.00 109.01 49.65 109.08 48.30 C 107.48 48.29 105.89 48.28 104.29 48.27 C 104.29 47.29 104.29 45.32 104.29 44.34 C 105.66 44.32 107.04 44.29 108.41 44.27 C 108.41 43.33 108.42 41.46 108.42 40.52 C 107.02 40.50 105.62 40.48 104.22 40.47 C 104.25 39.53 104.30 37.65 104.33 36.70 C 105.85 36.70 107.37 36.70 108.89 36.70 C 109.00 35.37 109.12 34.04 109.23 32.71 C 105.59 32.72 101.96 32.71 98.32 32.67 M 64.93 33.38 C 64.82 39.68 64.91 45.98 64.85 52.28 C 66.81 52.28 68.77 52.29 70.73 52.30 C 70.71 50.07 70.68 47.85 70.64 45.62 C 73.02 45.30 75.74 45.34 77.61 43.56 C 80.96 40.81 80.11 34.40 75.84 33.05 C 72.30 31.84 68.48 32.62 64.93 33.38 M 81.14 33.38 C 81.28 39.68 81.23 45.99 81.17 52.29 C 83.04 52.28 84.91 52.28 86.78 52.28 C 86.71 49.60 86.63 46.91 86.72 44.23 C 88.00 46.89 89.15 49.61 90.33 52.31 C 92.49 52.30 94.64 52.30 96.79 52.30 C 95.31 49.47 93.81 46.65 92.22 43.88 C 93.24 43.00 94.33 42.19 95.22 41.16 C 96.85 38.49 95.62 34.44 92.62 33.32 C 88.98 31.78 84.85 32.46 81.14 33.38 M 110.97 52.32 C 112.55 52.31 114.13 52.30 115.72 52.30 C 115.85 48.74 116.02 45.16 116.72 41.66 C 117.77 45.19 118.58 48.79 119.70 52.30 C 120.45 52.29 121.95 52.26 122.70 52.25 C 123.69 48.55 124.74 44.86 126.08 41.26 C 126.19 44.94 126.35 48.62 126.59 52.30 C 128.41 52.31 130.23 52.32 132.05 52.34 C 131.57 45.78 130.72 39.26 130.23 32.71 C 128.37 32.70 126.51 32.69 124.66 32.68 C 123.58 36.31 122.55 39.95 121.26 43.51 C 120.40 39.88 119.46 36.26 118.34 32.70 C 116.48 32.70 114.62 32.70 112.76 32.71 C 112.26 39.25 111.44 45.77 110.97 52.32 M 137.15 33.27 C 133.80 35.16 132.96 39.45 133.09 43.00 C 133.13 46.53 134.38 50.92 138.13 52.11 C 141.11 52.96 145.03 52.84 146.97 50.04 C 149.82 45.83 149.87 39.92 147.36 35.54 C 145.36 32.10 140.47 31.68 137.15 33.27 M 148.54 52.28 C 150.41 52.29 152.29 52.30 154.16 52.30 C 154.25 51.51 154.44 49.91 154.53 49.11 C 156.37 49.01 158.22 48.98 160.07 49.02 C 160.33 50.11 160.59 51.19 160.86 52.28 C 162.90 52.29 164.93 52.30 166.98 52.32 C 164.77 45.81 162.82 39.22 160.65 32.70 C 158.74 32.70 156.83 32.69 154.92 32.68 C 152.81 39.22 150.89 45.82 148.54 52.28 M 168.69 34.68 C 164.38 40.24 165.42 50.86 173.05 52.98 C 171.04 53.51 168.49 53.16 167.26 55.24 C 170.52 55.42 174.84 56.06 176.71 52.63 C 177.26 52.36 178.36 51.81 178.91 51.53 C 178.52 50.30 178.12 49.08 177.73 47.85 C 176.23 47.65 174.06 48.53 173.21 46.79 C 171.89 44.17 171.84 40.82 173.08 38.16 C 173.89 36.34 176.16 36.89 177.74 36.77 C 178.16 35.59 178.58 34.40 178.99 33.21 C 175.60 32.34 171.21 31.59 168.69 34.68 M 182.44 33.59 C 178.18 37.18 178.06 43.91 180.19 48.70 C 182.23 53.08 188.43 53.67 192.03 50.98 C 194.73 48.43 195.03 44.39 194.81 40.90 C 194.66 37.67 193.27 33.93 189.92 32.83 C 187.48 32.22 184.61 32.12 182.44 33.59 M 51.95 41.66 C 44.95 41.69 37.95 41.69 30.96 41.68 C 29.61 41.63 28.41 42.03 27.34 42.89 C 26.00 44.01 24.87 45.35 23.72 46.66 C 20.24 46.78 16.75 46.71 13.27 46.96 C 11.97 46.75 10.65 46.78 9.33 46.74 C 7.25 48.93 5.09 51.05 3.03 53.26 C 9.57 52.53 16.16 53.14 22.71 52.73 C 25.08 51.52 26.39 48.71 28.95 47.86 C 34.29 47.50 39.66 47.78 45.02 47.73 C 47.85 47.61 51.01 48.31 53.49 46.55 C 56.67 44.87 58.89 41.96 60.40 38.77 C 57.26 38.55 54.19 39.37 51.95 41.66 M 48.99 48.85 C 42.35 48.99 35.69 48.53 29.07 48.99 C 26.93 50.25 25.33 52.20 23.57 53.90 C 19.04 53.78 14.51 53.81 9.98 53.76 C 7.60 55.85 5.28 58.02 3.10 60.31 C 9.71 60.32 16.33 60.22 22.95 60.31 C 24.72 58.59 26.49 56.88 28.27 55.17 C 35.54 55.12 42.81 55.29 50.07 55.15 C 54.72 54.27 58.38 50.45 60.31 46.26 C 56.08 45.21 53.06 49.13 48.99 48.85 M 50.03 56.31 C 43.08 56.43 36.12 56.48 29.17 56.22 C 27.13 57.88 25.16 59.64 23.27 61.48 C 18.50 61.60 13.74 61.56 8.97 61.54 C 6.81 63.55 4.76 65.66 2.84 67.89 C 8.90 67.85 14.96 67.87 21.02 67.85 C 24.68 68.24 26.02 63.95 29.04 62.80 C 36.54 62.29 44.11 63.26 51.60 62.47 C 55.81 60.96 59.11 57.31 60.48 53.07 C 56.63 52.88 53.62 55.60 50.03 56.31 M 64.87 57.71 C 64.95 60.07 64.90 62.53 66.10 64.66 C 67.15 62.47 67.07 60.03 67.13 57.67 C 66.37 57.69 65.62 57.70 64.87 57.71 M 113.03 64.47 C 117.21 63.51 115.35 58.95 115.23 55.96 C 112.75 58.17 114.19 61.68 113.03 64.47 M 133.71 57.33 C 133.70 59.10 133.48 60.86 132.89 62.53 C 134.21 63.63 135.89 63.71 137.52 63.64 C 137.86 62.23 138.21 60.82 138.56 59.41 C 137.25 58.03 135.81 56.41 133.71 57.33 M 141.54 57.48 C 139.30 58.29 140.14 61.07 139.82 62.89 C 141.07 63.43 142.35 64.09 143.77 63.73 C 142.91 62.42 141.81 61.29 140.95 59.99 C 142.07 59.20 143.18 58.40 144.28 57.58 C 143.36 57.47 142.45 57.44 141.54 57.48 M 68.84 58.75 C 68.90 60.66 68.96 62.57 69.16 64.47 C 69.90 63.06 70.09 61.49 70.25 59.93 L 71.28 60.01 C 71.41 61.58 71.21 63.41 72.79 64.37 C 72.79 62.70 73.49 60.82 72.64 59.26 C 71.55 58.38 70.10 58.78 68.84 58.75 M 74.82 58.89 C 74.81 60.25 74.78 61.62 74.98 62.98 C 75.98 63.51 77.03 63.91 78.14 64.17 C 77.42 63.09 76.64 62.04 76.00 60.92 C 76.56 60.38 77.69 59.31 78.26 58.77 C 77.11 58.79 75.96 58.83 74.82 58.89 M 79.34 61.25 C 79.48 62.78 80.98 63.55 81.93 64.55 C 82.73 63.22 84.56 62.02 83.92 60.24 C 83.23 59.46 82.51 58.71 81.77 57.99 C 80.84 58.97 79.44 59.76 79.34 61.25 M 85.33 59.27 C 85.49 61.06 85.66 62.85 85.98 64.62 C 86.88 62.57 87.41 60.40 87.97 58.25 C 87.09 58.59 86.21 58.93 85.33 59.27 M 89.79 59.10 C 89.82 61.39 89.86 63.69 89.99 65.99 C 91.75 64.26 94.07 62.77 94.37 60.09 C 93.51 59.51 92.64 58.93 91.78 58.35 C 91.28 58.54 90.29 58.91 89.79 59.10 M 95.82 59.21 C 95.00 61.11 96.17 65.27 98.66 63.52 C 101.08 62.20 99.90 59.40 98.00 58.25 C 97.46 58.49 96.37 58.97 95.82 59.21 M 101.33 59.35 C 101.52 61.11 101.71 62.86 101.99 64.60 C 102.90 62.56 103.42 60.38 104.09 58.26 C 103.17 58.63 102.25 58.99 101.33 59.35 M 119.39 57.94 C 117.59 59.50 116.24 61.62 118.01 63.89 C 118.83 62.75 119.13 61.36 119.29 59.99 L 119.71 59.82 C 119.80 61.27 120.09 62.75 121.07 63.87 C 122.42 61.45 121.36 59.42 119.39 57.94 M 123.13 59.23 C 123.32 60.97 122.62 63.28 124.59 64.25 C 124.99 62.27 125.35 60.29 125.75 58.31 C 124.87 58.61 124.00 58.92 123.13 59.23 M 127.61 58.69 C 128.08 59.15 129.02 60.08 129.49 60.54 C 129.62 61.14 129.89 62.33 130.02 62.92 L 129.26 63.19 C 129.13 62.45 128.89 60.99 128.77 60.25 C 128.09 61.01 127.45 61.80 126.84 62.61 C 128.10 63.90 129.86 63.82 131.49 63.55 C 131.37 61.98 131.25 60.42 131.12 58.85 C 129.95 58.79 128.78 58.72 127.61 58.69 M 147.05 58.24 C 146.11 59.27 144.42 60.20 145.08 61.87 C 145.72 62.80 146.41 63.69 147.14 64.55 C 148.86 63.21 150.32 61.36 149.10 59.15 C 148.59 58.92 147.57 58.47 147.05 58.24 M 151.09 58.84 C 150.95 60.80 150.96 62.80 151.95 64.57 C 152.61 62.82 153.11 61.02 153.71 59.25 C 153.89 60.97 154.07 62.68 154.27 64.40 C 155.62 62.94 155.64 60.91 155.02 59.12 C 153.80 58.40 152.39 58.73 151.09 58.84 M 157.01 60.55 C 157.47 60.94 158.39 61.74 158.84 62.14 C 158.32 62.58 157.28 63.45 156.77 63.88 C 159.00 64.41 161.92 62.28 159.21 60.42 C 159.43 59.65 159.65 58.88 159.87 58.11 C 158.88 58.79 156.73 58.91 157.01 60.55 M 162.09 57.41 C 162.12 59.24 162.18 61.07 162.25 62.90 C 162.96 63.32 163.67 63.73 164.38 64.15 C 163.78 61.85 165.54 57.75 162.09 57.41 M 166.08 59.34 C 166.15 61.11 165.85 63.12 167.41 64.36 C 167.91 62.33 168.33 60.29 168.79 58.26 C 167.89 58.62 166.98 58.98 166.08 59.34 M 176.80 63.18 C 177.37 63.44 178.53 63.97 179.11 64.23 C 178.76 63.20 178.43 62.17 178.10 61.14 C 178.45 59.88 179.05 58.50 177.86 57.46 C 175.52 58.33 177.07 61.31 176.80 63.18 M 180.89 63.83 C 182.01 62.61 182.25 60.93 182.64 59.38 C 183.16 60.99 182.79 62.67 182.72 64.31 C 183.30 63.71 184.46 62.50 185.04 61.90 C 185.41 60.16 183.74 59.15 182.80 58.00 C 180.65 59.28 179.99 61.47 180.89 63.83 M 186.52 59.27 C 186.47 60.54 186.41 61.82 186.35 63.09 C 186.68 63.34 187.35 63.83 187.68 64.08 C 188.02 62.13 188.43 60.19 189.00 58.29 C 188.17 58.62 187.35 58.95 186.52 59.27 M 106.80 57.86 C 107.26 59.76 107.71 61.66 108.13 63.56 C 107.70 62.77 106.85 61.17 106.42 60.38 C 106.03 61.38 105.65 62.39 105.28 63.40 C 106.89 63.69 108.53 63.69 110.10 63.15 C 109.79 60.91 109.37 58.59 106.80 57.86 M 112.79 62.96 C 113.25 61.76 113.26 60.54 112.82 59.33 C 110.71 58.34 110.63 64.01 112.79 62.96 M 170.58 63.13 C 171.23 63.43 172.52 64.03 173.17 64.33 C 174.94 62.88 175.60 59.51 173.25 58.30 C 173.10 59.52 172.82 61.96 172.67 63.17 C 172.30 61.56 171.95 59.94 171.63 58.32 C 169.98 59.45 170.56 61.45 170.58 63.13 M 192.24 57.84 C 192.43 59.57 192.63 61.31 192.86 63.03 L 192.13 63.05 C 192.04 62.35 191.87 60.96 191.78 60.27 C 191.42 60.74 190.69 61.69 190.32 62.17 C 190.92 63.97 192.94 64.15 194.46 63.44 C 195.11 61.24 194.59 58.78 192.24 57.84 Z" />
</g>
<g id="#e3170aff">
<path fill="#e3170a" opacity="1.00" d=" M 13.78 35.16 C 14.84 34.00 15.89 32.83 16.93 31.65 C 31.39 31.54 45.86 31.66 60.33 31.66 C 59.71 32.73 59.10 33.80 58.49 34.88 C 54.43 32.73 49.75 33.07 45.31 33.03 C 45.01 33.95 44.72 34.87 44.37 35.78 C 44.01 35.46 43.29 34.83 42.93 34.51 C 39.17 34.60 35.41 34.67 31.66 34.33 C 26.02 31.68 19.35 32.93 13.78 35.16 Z" />
<path fill="#e3170a" opacity="1.00" d=" M 8.16 40.87 C 8.64 40.76 9.60 40.53 10.08 40.41 C 9.46 41.56 8.84 42.70 8.21 43.85 C 13.45 43.71 18.81 43.28 23.89 44.88 C 17.09 46.20 10.03 45.23 3.13 45.78 C 4.76 44.10 6.33 42.34 8.16 40.87 Z" />
</g>
<g id="#9c2929ff">
<path fill="#9c2929" opacity="1.00" d=" M 98.32 32.67 C 101.96 32.71 105.59 32.72 109.23 32.71 C 109.12 34.04 109.00 35.37 108.89 36.70 C 107.37 36.70 105.85 36.70 104.33 36.70 C 104.30 37.65 104.25 39.53 104.22 40.47 C 105.62 40.48 107.02 40.50 108.42 40.52 C 108.42 41.46 108.41 43.33 108.41 44.27 C 107.04 44.29 105.66 44.32 104.29 44.34 C 104.29 45.32 104.29 47.29 104.29 48.27 C 105.89 48.28 107.48 48.29 109.08 48.30 C 109.01 49.65 108.94 51.00 108.88 52.34 C 105.38 52.27 101.89 52.27 98.39 52.34 C 98.29 45.78 98.41 39.23 98.32 32.67 Z" />
</g>
<g id="#e33328ff">
<path fill="#e33328" opacity="1.00" d=" M 13.78 35.16 C 19.35 32.93 26.02 31.68 31.66 34.33 C 30.14 35.43 28.63 36.55 27.14 37.68 C 32.13 37.79 37.13 37.76 42.12 37.80 C 37.95 38.82 33.63 38.76 29.37 39.15 C 29.05 39.46 28.41 40.08 28.09 40.39 C 26.67 41.87 25.27 43.36 23.89 44.88 C 18.81 43.28 13.45 43.71 8.21 43.85 C 8.84 42.70 9.46 41.56 10.08 40.41 C 9.60 40.53 8.64 40.76 8.16 40.87 C 9.90 38.85 11.63 36.76 13.78 35.16 Z" />
</g>
<g id="#df2923ff">
<path fill="#df2923" opacity="1.00" d=" M 45.31 33.03 C 49.75 33.07 54.43 32.73 58.49 34.88 C 56.88 36.89 54.81 38.42 52.69 39.84 C 49.17 39.24 45.65 38.68 42.19 37.79 C 42.79 37.35 44.01 36.46 44.61 36.02 L 44.37 35.78 C 44.72 34.87 45.01 33.95 45.31 33.03 Z" />
</g>
<g id="#9f282aff">
<path fill="#9f282a" opacity="1.00" d=" M 64.93 33.38 C 68.48 32.62 72.30 31.84 75.84 33.05 C 80.11 34.40 80.96 40.81 77.61 43.56 C 75.74 45.34 73.02 45.30 70.64 45.62 C 70.68 47.85 70.71 50.07 70.73 52.30 C 68.77 52.29 66.81 52.28 64.85 52.28 C 64.91 45.98 64.82 39.68 64.93 33.38 M 70.74 35.39 C 70.68 37.67 70.67 39.96 70.67 42.24 C 72.33 41.83 74.39 41.19 74.19 39.04 C 74.78 36.72 72.51 35.81 70.74 35.39 Z" />
</g>
<g id="#9f292aff">
<path fill="#9f292a" opacity="1.00" d=" M 81.14 33.38 C 84.85 32.46 88.98 31.78 92.62 33.32 C 95.62 34.44 96.85 38.49 95.22 41.16 C 94.33 42.19 93.24 43.00 92.22 43.88 C 93.81 46.65 95.31 49.47 96.79 52.30 C 94.64 52.30 92.49 52.30 90.33 52.31 C 89.15 49.61 88.00 46.89 86.72 44.23 C 86.63 46.91 86.71 49.60 86.78 52.28 C 84.91 52.28 83.04 52.28 81.17 52.29 C 81.23 45.99 81.28 39.68 81.14 33.38 M 86.76 35.41 C 86.71 37.82 86.69 40.23 86.74 42.65 C 88.61 42.34 90.49 41.18 90.21 39.02 C 90.72 36.78 88.56 35.75 86.76 35.41 Z" />
</g>
<g id="#a61e21ff">
<path fill="#a61e21" opacity="1.00" d=" M 110.97 52.32 C 111.44 45.77 112.26 39.25 112.76 32.71 C 114.62 32.70 116.48 32.70 118.34 32.70 C 119.46 36.26 120.40 39.88 121.26 43.51 C 122.55 39.95 123.58 36.31 124.66 32.68 C 126.51 32.69 128.37 32.70 130.23 32.71 C 130.72 39.26 131.57 45.78 132.05 52.34 C 130.23 52.32 128.41 52.31 126.59 52.30 C 126.35 48.62 126.19 44.94 126.08 41.26 C 124.74 44.86 123.69 48.55 122.70 52.25 C 121.95 52.26 120.45 52.29 119.70 52.30 C 118.58 48.79 117.77 45.19 116.72 41.66 C 116.02 45.16 115.85 48.74 115.72 52.30 C 114.13 52.30 112.55 52.31 110.97 52.32 Z" />
<path fill="#a61e21" opacity="1.00" d=" M 133.71 57.33 C 134.73 58.69 135.90 59.93 137.36 60.83 C 137.40 61.54 137.48 62.94 137.52 63.64 C 135.89 63.71 134.21 63.63 132.89 62.53 C 133.48 60.86 133.70 59.10 133.71 57.33 M 135.38 61.39 C 135.64 61.65 135.64 61.65 135.38 61.39 Z" />
</g>
<g id="#a81e20ff">
<path fill="#a81e20" opacity="1.00" d=" M 137.15 33.27 C 140.47 31.68 145.36 32.10 147.36 35.54 C 149.87 39.92 149.82 45.83 146.97 50.04 C 145.03 52.84 141.11 52.96 138.13 52.11 C 134.38 50.92 133.13 46.53 133.09 43.00 C 132.96 39.45 133.80 35.16 137.15 33.27 M 140.38 36.46 C 138.79 37.74 139.31 40.19 139.08 41.99 C 139.20 44.25 138.69 47.27 141.00 48.63 C 143.93 46.95 143.05 42.82 143.10 39.97 C 143.14 38.57 142.22 35.24 140.38 36.46 Z" />
</g>
<g id="#a81e21ff">
<path fill="#a81e21" opacity="1.00" d=" M 148.54 52.28 C 150.89 45.82 152.81 39.22 154.92 32.68 C 156.83 32.69 158.74 32.70 160.65 32.70 C 162.82 39.22 164.77 45.81 166.98 52.32 C 164.93 52.30 162.90 52.29 160.86 52.28 C 160.59 51.19 160.33 50.11 160.07 49.02 C 158.22 48.98 156.37 49.01 154.53 49.11 C 154.44 49.91 154.25 51.51 154.16 52.30 C 152.29 52.30 150.41 52.29 148.54 52.28 M 155.55 45.62 C 156.84 45.59 158.12 45.56 159.41 45.51 C 158.79 43.33 158.20 41.14 157.59 38.96 C 156.87 41.17 156.21 43.40 155.55 45.62 Z" />
</g>
<g id="#a02929ff">
<path fill="#a02929" opacity="1.00" d=" M 168.69 34.68 C 171.21 31.59 175.60 32.34 178.99 33.21 C 178.58 34.40 178.16 35.59 177.74 36.77 C 176.16 36.89 173.89 36.34 173.08 38.16 C 171.84 40.82 171.89 44.17 173.21 46.79 C 174.06 48.53 176.23 47.65 177.73 47.85 C 178.12 49.08 178.52 50.30 178.91 51.53 C 178.36 51.81 177.26 52.36 176.71 52.63 C 174.84 56.06 170.52 55.42 167.26 55.24 C 168.49 53.16 171.04 53.51 173.05 52.98 C 165.42 50.86 164.38 40.24 168.69 34.68 Z" />
</g>
<g id="#a71e20ff">
<path fill="#a71e20" opacity="1.00" d=" M 182.44 33.59 C 184.61 32.12 187.48 32.22 189.92 32.83 C 193.27 33.93 194.66 37.67 194.81 40.90 C 195.03 44.39 194.73 48.43 192.03 50.98 C 188.43 53.67 182.23 53.08 180.19 48.70 C 178.06 43.91 178.18 37.18 182.44 33.59 M 186.32 36.30 C 183.89 39.70 184.55 44.54 185.91 48.26 C 186.43 48.24 187.47 48.19 187.99 48.17 C 189.24 44.95 189.38 41.35 188.55 38.01 C 188.38 37.01 187.50 35.70 186.32 36.30 Z" />
</g>
<g id="#fcffffff">
<path fill="#fcffff" opacity="1.00" d=" M 27.14 37.68 C 28.63 36.55 30.14 35.43 31.66 34.33 C 35.41 34.67 39.17 34.60 42.93 34.51 C 43.29 34.83 44.01 35.46 44.37 35.78 L 44.61 36.02 C 44.01 36.46 42.79 37.35 42.19 37.79 L 42.12 37.80 C 37.13 37.76 32.13 37.79 27.14 37.68 Z" />
</g>
<g id="#f9fdffff">
<path fill="#f9fdff" opacity="1.00" d=" M 70.74 35.39 C 72.51 35.81 74.78 36.72 74.19 39.04 C 74.39 41.19 72.33 41.83 70.67 42.24 C 70.67 39.96 70.68 37.67 70.74 35.39 Z" />
</g>
<g id="#fffefdff">
<path fill="#fffefd" opacity="1.00" d=" M 86.76 35.41 C 88.56 35.75 90.72 36.78 90.21 39.02 C 90.49 41.18 88.61 42.34 86.74 42.65 C 86.69 40.23 86.71 37.82 86.76 35.41 Z" />
<path fill="#fffefd" opacity="1.00" d=" M 81.21 60.42 C 84.49 60.74 79.59 63.39 81.21 60.42 Z" />
<path fill="#fffefd" opacity="1.00" d=" M 91.24 60.45 C 94.57 60.58 89.80 63.51 91.24 60.45 Z" />
<path fill="#fffefd" opacity="1.00" d=" M 97.20 60.45 C 100.49 60.61 95.72 63.50 97.20 60.45 Z" />
<path fill="#fffefd" opacity="1.00" d=" M 147.03 60.42 C 150.31 60.68 145.42 63.42 147.03 60.42 Z" />
</g>
<g id="#fbffffff">
<path fill="#fbffff" opacity="1.00" d=" M 140.38 36.46 C 142.22 35.24 143.14 38.57 143.10 39.97 C 143.05 42.82 143.93 46.95 141.00 48.63 C 138.69 47.27 139.20 44.25 139.08 41.99 C 139.31 40.19 138.79 37.74 140.38 36.46 Z" />
</g>
<g id="#fbfcffff">
<path fill="#fbfcff" opacity="1.00" d=" M 186.32 36.30 C 187.50 35.70 188.38 37.01 188.55 38.01 C 189.38 41.35 189.24 44.95 187.99 48.17 C 187.47 48.19 186.43 48.24 185.91 48.26 C 184.55 44.54 183.89 39.70 186.32 36.30 Z" />
</g>
<g id="#e41003ff">
<path fill="#e41003" opacity="1.00" d=" M 42.12 37.80 L 42.19 37.79 C 45.65 38.68 49.17 39.24 52.69 39.84 C 44.55 40.97 36.28 40.03 28.09 40.39 C 28.41 40.08 29.05 39.46 29.37 39.15 C 33.63 38.76 37.95 38.82 42.12 37.80 Z" />
</g>
<g id="#6a6d72ff">
<path fill="#6a6d72" opacity="1.00" d=" M 51.95 41.66 C 54.19 39.37 57.26 38.55 60.40 38.77 C 58.89 41.96 56.67 44.87 53.49 46.55 C 51.01 48.31 47.85 47.61 45.02 47.73 C 39.66 47.78 34.29 47.50 28.95 47.86 C 26.39 48.71 25.08 51.52 22.71 52.73 C 16.16 53.14 9.57 52.53 3.03 53.26 C 5.09 51.05 7.25 48.93 9.33 46.74 C 10.65 46.78 11.97 46.75 13.27 46.96 C 16.33 47.65 19.46 48.32 22.61 47.90 C 22.88 47.59 23.44 46.97 23.72 46.66 C 24.87 45.35 26.00 44.01 27.34 42.89 C 35.08 42.73 42.84 43.33 50.57 42.71 C 50.91 42.44 51.60 41.92 51.95 41.66 Z" />
<path fill="#6a6d72" opacity="1.00" d=" M 64.87 57.71 C 65.62 57.70 66.37 57.69 67.13 57.67 C 67.07 60.03 67.15 62.47 66.10 64.66 C 64.90 62.53 64.95 60.07 64.87 57.71 Z" />
<path fill="#6a6d72" opacity="1.00" d=" M 113.03 64.47 C 114.19 61.68 112.75 58.17 115.23 55.96 C 115.35 58.95 117.21 63.51 113.03 64.47 Z" />
<path fill="#6a6d72" opacity="1.00" d=" M 141.54 57.48 C 142.45 57.44 143.36 57.47 144.28 57.58 C 143.18 58.40 142.07 59.20 140.95 59.99 C 141.81 61.29 142.91 62.42 143.77 63.73 C 142.35 64.09 141.07 63.43 139.82 62.89 C 140.14 61.07 139.30 58.29 141.54 57.48 Z" />
<path fill="#6a6d72" opacity="1.00" d=" M 68.84 58.75 C 70.10 58.78 71.55 58.38 72.64 59.26 C 73.49 60.82 72.79 62.70 72.79 64.37 C 71.21 63.41 71.41 61.58 71.28 60.01 L 70.25 59.93 C 70.09 61.49 69.90 63.06 69.16 64.47 C 68.96 62.57 68.90 60.66 68.84 58.75 Z" />
<path fill="#6a6d72" opacity="1.00" d=" M 74.82 58.89 C 75.96 58.83 77.11 58.79 78.26 58.77 C 77.69 59.31 76.56 60.38 76.00 60.92 C 76.64 62.04 77.42 63.09 78.14 64.17 C 77.03 63.91 75.98 63.51 74.98 62.98 C 74.78 61.62 74.81 60.25 74.82 58.89 Z" />
<path fill="#6a6d72" opacity="1.00" d=" M 79.34 61.25 C 79.44 59.76 80.84 58.97 81.77 57.99 C 82.51 58.71 83.23 59.46 83.92 60.24 C 84.56 62.02 82.73 63.22 81.93 64.55 C 80.98 63.55 79.48 62.78 79.34 61.25 M 81.21 60.42 C 79.59 63.39 84.49 60.74 81.21 60.42 Z" />
<path fill="#6a6d72" opacity="1.00" d=" M 85.33 59.27 C 86.21 58.93 87.09 58.59 87.97 58.25 C 87.41 60.40 86.88 62.57 85.98 64.62 C 85.66 62.85 85.49 61.06 85.33 59.27 Z" />
<path fill="#6a6d72" opacity="1.00" d=" M 89.79 59.10 C 90.29 58.91 91.28 58.54 91.78 58.35 C 92.64 58.93 93.51 59.51 94.37 60.09 C 94.07 62.77 91.75 64.26 89.99 65.99 C 89.86 63.69 89.82 61.39 89.79 59.10 M 91.24 60.45 C 89.80 63.51 94.57 60.58 91.24 60.45 Z" />
<path fill="#6a6d72" opacity="1.00" d=" M 95.82 59.21 C 96.37 58.97 97.46 58.49 98.00 58.25 C 99.90 59.40 101.08 62.20 98.66 63.52 C 96.17 65.27 95.00 61.11 95.82 59.21 M 97.20 60.45 C 95.72 63.50 100.49 60.61 97.20 60.45 Z" />
<path fill="#6a6d72" opacity="1.00" d=" M 101.33 59.35 C 102.25 58.99 103.17 58.63 104.09 58.26 C 103.42 60.38 102.90 62.56 101.99 64.60 C 101.71 62.86 101.52 61.11 101.33 59.35 Z" />
<path fill="#6a6d72" opacity="1.00" d=" M 119.39 57.94 C 121.36 59.42 122.42 61.45 121.07 63.87 C 120.09 62.75 119.80 61.27 119.71 59.82 L 119.29 59.99 C 119.13 61.36 118.83 62.75 118.01 63.89 C 116.24 61.62 117.59 59.50 119.39 57.94 Z" />
<path fill="#6a6d72" opacity="1.00" d=" M 123.13 59.23 C 124.00 58.92 124.87 58.61 125.75 58.31 C 125.35 60.29 124.99 62.27 124.59 64.25 C 122.62 63.28 123.32 60.97 123.13 59.23 Z" />
<path fill="#6a6d72" opacity="1.00" d=" M 127.61 58.69 C 128.78 58.72 129.95 58.79 131.12 58.85 C 131.25 60.42 131.37 61.98 131.49 63.55 C 129.86 63.82 128.10 63.90 126.84 62.61 C 127.45 61.80 128.09 61.01 128.77 60.25 C 128.89 60.99 129.13 62.45 129.26 63.19 L 130.02 62.92 C 129.89 62.33 129.62 61.14 129.49 60.54 C 129.02 60.08 128.08 59.15 127.61 58.69 Z" />
<path fill="#6a6d72" opacity="1.00" d=" M 147.05 58.24 C 147.57 58.47 148.59 58.92 149.10 59.15 C 150.32 61.36 148.86 63.21 147.14 64.55 C 146.41 63.69 145.72 62.80 145.08 61.87 C 144.42 60.20 146.11 59.27 147.05 58.24 M 147.03 60.42 C 145.42 63.42 150.31 60.68 147.03 60.42 Z" />
<path fill="#6a6d72" opacity="1.00" d=" M 151.09 58.84 C 152.39 58.73 153.80 58.40 155.02 59.12 C 155.64 60.91 155.62 62.94 154.27 64.40 C 154.07 62.68 153.89 60.97 153.71 59.25 C 153.11 61.02 152.61 62.82 151.95 64.57 C 150.96 62.80 150.95 60.80 151.09 58.84 Z" />
<path fill="#6a6d72" opacity="1.00" d=" M 157.01 60.55 C 156.73 58.91 158.88 58.79 159.87 58.11 C 159.65 58.88 159.43 59.65 159.21 60.42 C 161.92 62.28 159.00 64.41 156.77 63.88 C 157.28 63.45 158.32 62.58 158.84 62.14 C 158.39 61.74 157.47 60.94 157.01 60.55 Z" />
<path fill="#6a6d72" opacity="1.00" d=" M 162.09 57.41 C 165.54 57.75 163.78 61.85 164.38 64.15 C 163.67 63.73 162.96 63.32 162.25 62.90 C 162.18 61.07 162.12 59.24 162.09 57.41 Z" />
<path fill="#6a6d72" opacity="1.00" d=" M 166.08 59.34 C 166.98 58.98 167.89 58.62 168.79 58.26 C 168.33 60.29 167.91 62.33 167.41 64.36 C 165.85 63.12 166.15 61.11 166.08 59.34 Z" />
<path fill="#6a6d72" opacity="1.00" d=" M 176.80 63.18 C 177.07 61.31 175.52 58.33 177.86 57.46 C 179.05 58.50 178.45 59.88 178.10 61.14 C 178.43 62.17 178.76 63.20 179.11 64.23 C 178.53 63.97 177.37 63.44 176.80 63.18 Z" />
<path fill="#6a6d72" opacity="1.00" d=" M 180.89 63.83 C 179.99 61.47 180.65 59.28 182.80 58.00 C 183.74 59.15 185.41 60.16 185.04 61.90 C 184.46 62.50 183.30 63.71 182.72 64.31 C 182.79 62.67 183.16 60.99 182.64 59.38 C 182.25 60.93 182.01 62.61 180.89 63.83 Z" />
<path fill="#6a6d72" opacity="1.00" d=" M 186.52 59.27 C 187.35 58.95 188.17 58.62 189.00 58.29 C 188.43 60.19 188.02 62.13 187.68 64.08 C 187.35 63.83 186.68 63.34 186.35 63.09 C 186.41 61.82 186.47 60.54 186.52 59.27 Z" />
<path fill="#6a6d72" opacity="1.00" d=" M 106.80 57.86 C 109.37 58.59 109.79 60.91 110.10 63.15 C 108.53 63.69 106.89 63.69 105.28 63.40 C 105.65 62.39 106.03 61.38 106.42 60.38 C 106.85 61.17 107.70 62.77 108.13 63.56 C 107.71 61.66 107.26 59.76 106.80 57.86 Z" />
<path fill="#6a6d72" opacity="1.00" d=" M 170.58 63.13 C 170.56 61.45 169.98 59.45 171.63 58.32 C 171.95 59.94 172.30 61.56 172.67 63.17 C 172.82 61.96 173.10 59.52 173.25 58.30 C 175.60 59.51 174.94 62.88 173.17 64.33 C 172.52 64.03 171.23 63.43 170.58 63.13 Z" />
<path fill="#6a6d72" opacity="1.00" d=" M 192.24 57.84 C 194.59 58.78 195.11 61.24 194.46 63.44 C 192.94 64.15 190.92 63.97 190.32 62.17 C 190.69 61.69 191.42 60.74 191.78 60.27 C 191.87 60.96 192.04 62.35 192.13 63.05 L 192.86 63.03 C 192.63 61.31 192.43 59.57 192.24 57.84 Z" />
</g>
<g id="#fff6f2ff">
<path fill="#fff6f2" opacity="1.00" d=" M 155.55 45.62 C 156.21 43.40 156.87 41.17 157.59 38.96 C 158.20 41.14 158.79 43.33 159.41 45.51 C 158.12 45.56 156.84 45.59 155.55 45.62 Z" />
<path fill="#fff6f2" opacity="1.00" d=" M 135.38 61.39 C 135.64 61.65 135.64 61.65 135.38 61.39 Z" />
</g>
<g id="#52545dff">
<path fill="#52545d" opacity="1.00" d=" M 27.34 42.89 C 28.41 42.03 29.61 41.63 30.96 41.68 C 37.95 41.69 44.95 41.69 51.95 41.66 C 51.60 41.92 50.91 42.44 50.57 42.71 C 42.84 43.33 35.08 42.73 27.34 42.89 Z" />
</g>
<g id="#939498ff">
<path fill="#939498" opacity="1.00" d=" M 48.99 48.85 C 53.06 49.13 56.08 45.21 60.31 46.26 C 58.38 50.45 54.72 54.27 50.07 55.15 C 42.81 55.29 35.54 55.12 28.27 55.17 C 26.49 56.88 24.72 58.59 22.95 60.31 C 16.33 60.22 9.71 60.32 3.10 60.31 C 5.28 58.02 7.60 55.85 9.98 53.76 C 14.51 53.81 19.04 53.78 23.57 53.90 C 25.33 52.20 26.93 50.25 29.07 48.99 C 35.69 48.53 42.35 48.99 48.99 48.85 Z" />
</g>
<g id="#565d5fff">
<path fill="#565d5f" opacity="1.00" d=" M 13.27 46.96 C 16.75 46.71 20.24 46.78 23.72 46.66 C 23.44 46.97 22.88 47.59 22.61 47.90 C 19.46 48.32 16.33 47.65 13.27 46.96 Z" />
</g>
<g id="#bbbcbfff">
<path fill="#bbbcbf" opacity="1.00" d=" M 50.03 56.31 C 53.62 55.60 56.63 52.88 60.48 53.07 C 59.11 57.31 55.81 60.96 51.60 62.47 C 44.11 63.26 36.54 62.29 29.04 62.80 C 26.02 63.95 24.68 68.24 21.02 67.85 C 14.96 67.87 8.90 67.85 2.84 67.89 C 4.76 65.66 6.81 63.55 8.97 61.54 C 13.74 61.56 18.50 61.60 23.27 61.48 C 25.16 59.64 27.13 57.88 29.17 56.22 C 36.12 56.48 43.08 56.43 50.03 56.31 Z" />
</g>
<g id="#c88887ff">
<path fill="#c88887" opacity="1.00" d=" M 133.71 57.33 C 135.81 56.41 137.25 58.03 138.56 59.41 C 138.21 60.82 137.86 62.23 137.52 63.64 C 137.48 62.94 137.40 61.54 137.36 60.83 C 135.90 59.93 134.73 58.69 133.71 57.33 Z" />
</g>
<g id="#686868ff">
<path fill="#686868" opacity="1.00" d=" M 112.79 62.96 C 110.63 64.01 110.71 58.34 112.82 59.33 C 113.26 60.54 113.25 61.76 112.79 62.96 Z" />
</g>
</svg>
