<?xml version="1.0" encoding="UTF-8" ?>
<!DOCTYPE svg PUBLIC "-//W3C//DTD SVG 1.1//EN" "http://www.w3.org/Graphics/SVG/1.1/DTD/svg11.dtd">
<svg width="200pt" height="100pt" viewBox="0 0 200 100" version="1.1" xmlns="http://www.w3.org/2000/svg">
<g id="#ffffffff">
<path fill="#ffffff" opacity="1.00" d=" M 0.00 0.00 L 200.00 0.00 L 200.00 100.00 L 0.00 100.00 L 0.00 0.00 M 1.07 12.07 C 1.01 33.54 0.96 55.00 1.04 76.47 C 20.47 76.45 39.89 76.57 59.31 76.46 C 59.30 80.21 59.28 83.96 59.28 87.72 C 105.85 87.57 152.43 87.70 199.00 87.65 C 198.98 80.21 198.98 72.77 199.00 65.33 C 193.19 65.31 187.37 65.30 181.56 65.31 C 181.67 47.59 181.55 29.86 181.63 12.14 C 121.45 11.98 61.26 12.10 1.07 12.07 Z" />
<path fill="#ffffff" opacity="1.00" d=" M 85.55 69.08 C 86.31 68.82 87.07 68.56 87.83 68.29 C 88.34 72.61 87.66 77.04 88.83 81.27 C 85.29 81.16 81.69 81.40 78.23 80.53 C 76.33 79.72 74.57 81.17 72.74 81.55 C 72.17 81.21 71.03 80.54 70.46 80.20 C 70.53 79.47 70.60 78.74 70.67 78.02 C 71.66 78.65 72.35 80.66 73.75 79.76 C 74.99 77.81 71.41 76.97 70.42 75.61 C 70.45 75.06 70.50 73.95 70.53 73.40 C 72.75 72.33 75.58 72.23 76.44 75.10 C 74.95 74.49 73.47 73.87 72.00 73.25 C 72.76 76.41 76.13 78.87 79.40 77.72 C 78.85 76.66 78.15 75.69 77.55 74.67 C 78.36 72.24 81.11 72.79 83.09 72.67 C 83.28 75.35 83.07 78.10 83.84 80.71 C 84.41 80.59 85.55 80.35 86.11 80.23 C 86.56 76.52 86.53 72.71 85.55 69.08 M 79.65 74.19 C 79.87 74.75 80.32 75.88 80.54 76.44 C 82.75 76.34 81.21 72.46 79.65 74.19 M 79.59 77.94 C 79.00 79.58 79.54 80.10 81.18 79.51 C 81.76 77.85 81.23 77.33 79.59 77.94 Z" />
<path fill="#ffffff" opacity="1.00" d=" M 112.10 68.89 C 112.99 68.75 113.88 68.61 114.77 68.48 C 114.84 72.66 114.48 76.90 115.42 81.02 L 112.98 81.57 C 112.85 78.86 113.10 76.09 112.32 73.46 C 107.90 72.38 107.92 81.38 112.60 79.68 C 112.33 80.17 111.81 81.17 111.54 81.67 C 109.22 81.22 106.70 79.67 107.23 76.93 C 107.26 73.72 110.59 72.40 113.33 72.37 C 112.92 71.21 112.51 70.05 112.10 68.89 Z" />
<path fill="#ffffff" opacity="1.00" d=" M 154.20 68.95 C 154.86 68.83 156.19 68.61 156.85 68.50 C 156.83 72.63 156.41 76.86 157.61 80.88 C 155.55 81.07 153.48 81.23 151.42 81.41 C 149.53 79.68 148.44 76.54 150.37 74.43 C 151.48 72.71 153.66 72.71 155.44 72.35 C 155.03 71.21 154.61 70.08 154.20 68.95 M 151.88 73.93 C 151.07 75.85 150.61 78.81 152.91 79.94 C 156.91 80.63 155.66 71.25 151.88 73.93 Z" />
<path fill="#ffffff" opacity="1.00" d=" M 93.48 72.64 C 95.70 72.66 97.86 73.30 99.99 73.87 C 101.35 72.18 103.37 72.73 105.08 73.33 C 105.04 76.04 105.30 78.74 105.61 81.42 C 104.74 81.18 103.87 80.91 103.01 80.61 C 102.40 80.88 101.18 81.42 100.57 81.69 C 100.01 80.82 99.45 79.96 98.98 79.04 C 99.81 77.47 101.62 76.76 102.90 75.64 C 102.14 77.19 101.42 78.76 100.73 80.35 C 104.86 79.98 103.40 75.21 102.27 72.73 C 101.63 73.83 101.00 74.93 100.38 76.05 C 99.50 75.47 98.63 74.90 97.75 74.34 C 97.15 76.19 96.00 77.70 94.48 78.89 C 94.73 76.83 96.59 72.59 92.75 73.68 C 92.63 75.39 93.22 77.03 93.53 78.69 C 92.42 77.83 91.36 76.90 90.29 75.99 C 91.07 74.69 91.53 72.53 93.48 72.64 Z" />
<path fill="#ffffff" opacity="1.00" d=" M 118.51 73.36 C 120.41 71.71 123.59 72.98 124.08 75.42 C 125.36 74.37 126.51 73.00 128.14 72.50 C 129.76 72.24 130.77 73.63 131.70 74.69 C 130.47 74.38 128.00 73.77 126.77 73.46 C 128.04 75.16 129.79 76.41 131.23 77.95 C 132.24 79.41 130.55 80.64 129.44 81.34 C 127.22 81.76 125.67 79.83 124.08 78.65 C 123.12 82.22 119.34 81.55 117.12 79.83 C 116.91 77.68 116.20 74.65 118.51 73.36 M 119.32 73.85 C 118.43 75.90 118.19 78.56 119.97 80.24 C 124.34 81.88 123.20 71.55 119.32 73.85 M 123.18 76.95 C 124.30 77.61 125.43 78.24 126.58 78.85 C 127.51 79.54 128.50 80.14 129.55 80.65 C 130.50 78.21 127.31 77.24 126.30 75.50 C 125.24 75.94 124.20 76.42 123.18 76.95 Z" />
<path fill="#ffffff" opacity="1.00" d=" M 139.03 80.90 C 135.52 79.17 136.51 73.43 140.20 72.56 C 142.35 72.32 143.50 74.37 144.26 76.03 C 142.21 76.13 140.15 76.24 138.11 76.40 C 138.61 77.17 139.61 78.73 140.11 79.50 C 141.56 79.49 143.02 79.44 144.47 79.36 C 142.83 80.20 140.96 82.27 139.03 80.90 M 139.62 74.11 C 139.72 77.46 142.71 72.61 139.62 74.11 Z" />
<path fill="#ffffff" opacity="1.00" d=" M 159.98 73.89 C 162.58 70.62 167.79 74.12 166.69 77.84 C 166.63 80.67 163.65 81.36 161.41 81.62 C 159.36 79.64 157.57 76.35 159.98 73.89 M 161.38 73.74 C 160.08 76.20 160.53 81.15 164.32 80.46 C 165.19 78.07 165.32 72.53 161.38 73.74 Z" />
<path fill="#ffffff" opacity="1.00" d=" M 170.94 72.82 C 173.09 71.77 174.67 74.12 175.91 75.52 C 176.70 74.27 177.69 72.40 179.46 72.54 C 180.88 72.86 181.86 74.08 183.02 74.88 C 184.14 74.09 184.92 72.03 186.56 72.55 C 188.07 72.54 188.73 73.96 189.47 75.02 C 187.94 74.40 186.42 73.78 184.90 73.16 C 185.76 75.72 188.29 77.05 189.97 79.01 C 188.77 79.81 187.86 81.50 186.22 81.38 C 184.77 81.45 184.01 79.93 182.99 79.18 C 181.13 81.78 177.09 82.20 175.93 78.66 C 174.33 79.94 172.26 82.35 170.07 80.94 C 166.69 79.36 167.27 73.68 170.94 72.82 M 169.83 77.92 C 170.50 80.17 172.75 79.32 174.47 79.23 C 175.92 76.60 173.53 74.77 171.79 73.17 C 170.47 74.31 168.61 76.01 169.83 77.92 M 178.30 73.98 C 178.52 77.32 181.30 72.38 178.30 73.98 M 177.15 76.17 C 177.52 77.49 178.13 78.71 178.71 79.94 C 180.50 79.50 182.29 79.04 184.07 78.56 C 185.17 79.49 186.39 80.20 187.75 80.69 C 187.54 78.13 185.03 77.02 183.44 75.40 C 181.35 75.69 179.22 75.69 177.15 76.17 Z" />
<path fill="#ffffff" opacity="1.00" d=" M 89.96 83.28 C 90.47 81.55 91.02 79.82 91.59 78.10 C 93.48 79.81 98.66 78.48 97.85 81.98 C 96.67 85.23 92.37 85.06 89.96 83.28 M 92.10 81.36 L 91.11 81.69 C 91.99 84.04 97.63 84.07 96.32 80.89 C 94.88 80.77 93.47 80.92 92.10 81.36 Z" />
</g>
<g id="#ffcc01ff">
<path fill="#ffcc01" opacity="1.00" d=" M 1.07 12.07 C 61.26 12.10 121.45 11.98 181.63 12.14 C 181.55 29.86 181.67 47.59 181.56 65.31 C 140.81 65.30 100.06 65.22 59.31 65.34 C 59.31 69.04 59.33 72.75 59.31 76.46 C 39.89 76.57 20.47 76.45 1.04 76.47 C 0.96 55.00 1.01 33.54 1.07 12.07 M 8.31 29.86 C 7.07 33.77 9.63 38.16 13.39 39.47 C 15.60 39.92 17.86 39.33 20.07 39.11 C 16.94 38.62 12.88 39.22 11.03 36.04 C 7.74 32.01 10.80 25.12 16.00 24.85 C 20.77 24.91 24.44 28.41 27.53 31.65 C 25.67 32.89 23.81 34.12 21.93 35.32 C 22.61 35.44 23.97 35.69 24.65 35.81 C 24.70 40.55 24.57 45.30 24.68 50.04 C 24.79 53.14 25.87 56.51 28.68 58.18 C 30.07 56.19 31.38 54.09 33.40 52.66 C 32.23 51.93 30.13 51.76 30.33 49.94 C 30.39 45.13 29.85 40.09 31.51 35.47 C 35.89 36.32 40.66 37.86 44.98 35.98 C 48.28 34.66 50.55 30.45 48.61 27.15 C 47.60 24.50 44.82 23.37 42.51 22.11 C 42.55 22.29 42.62 22.66 42.66 22.84 C 44.43 23.92 46.49 24.87 47.45 26.84 C 49.32 29.30 47.11 32.58 44.75 33.77 C 41.31 35.48 37.68 33.12 34.88 31.22 C 29.97 28.05 26.93 22.14 20.97 20.65 C 15.00 19.13 9.58 24.36 8.31 29.86 M 165.23 29.35 C 163.83 31.44 162.34 34.35 164.22 36.65 C 165.67 39.15 169.06 39.25 171.48 38.33 C 174.00 36.91 174.38 33.31 173.06 30.97 C 171.38 28.30 167.82 29.66 165.23 29.35 M 72.72 45.04 C 73.24 45.18 74.28 45.47 74.80 45.62 C 74.54 49.03 75.49 52.83 73.53 55.90 C 74.98 56.99 76.40 58.13 77.82 59.27 C 79.80 57.69 81.81 56.13 83.86 54.62 C 82.53 54.70 81.20 54.77 79.87 54.84 C 79.77 51.62 79.75 48.41 79.75 45.20 C 81.00 45.24 82.26 45.28 83.51 45.32 C 83.52 44.44 83.53 43.57 83.54 42.69 C 82.29 42.72 81.05 42.75 79.81 42.77 C 79.87 40.10 79.90 37.43 79.84 34.77 C 78.16 38.63 75.99 42.30 72.72 45.04 M 124.82 44.91 C 123.92 47.53 124.32 50.41 124.57 53.12 C 124.70 56.32 127.90 57.86 130.04 59.67 C 132.68 57.85 135.33 56.03 137.93 54.16 C 136.48 54.54 135.03 54.95 133.59 55.37 C 131.96 54.41 130.41 53.29 129.11 51.90 C 131.68 49.91 134.52 48.30 137.29 46.61 C 135.97 44.46 134.60 42.34 133.22 40.22 C 130.40 41.71 127.00 42.45 124.82 44.91 M 147.99 44.07 C 148.98 45.70 149.98 47.33 150.98 48.96 C 152.27 47.67 153.55 46.38 154.84 45.10 C 153.78 43.49 152.73 41.89 151.68 40.28 C 150.44 41.54 149.21 42.80 147.99 44.07 M 36.90 45.96 C 36.11 50.65 35.62 56.33 39.66 59.74 C 40.81 58.80 41.95 57.85 43.10 56.91 C 41.00 52.76 41.95 48.01 41.85 43.55 C 46.39 46.14 44.43 51.76 44.44 56.00 C 45.57 57.25 46.72 58.49 47.88 59.71 C 49.13 58.63 50.38 57.55 51.64 56.47 C 48.89 53.25 49.06 48.05 51.44 44.67 C 49.50 43.58 47.69 42.28 45.74 41.19 C 42.69 42.53 39.49 43.81 36.90 45.96 M 54.05 44.79 C 54.81 44.79 56.31 44.80 57.07 44.81 C 57.22 47.87 57.25 50.94 57.20 54.01 C 56.56 54.44 55.92 54.87 55.27 55.30 C 57.40 56.52 59.43 57.91 61.40 59.37 C 63.78 57.45 66.13 55.51 68.45 53.51 C 66.64 54.36 64.71 54.92 62.70 54.64 C 62.07 49.70 64.62 43.06 59.31 40.02 C 57.57 41.62 55.83 43.22 54.05 44.79 M 63.27 44.13 C 64.26 45.68 65.22 47.24 66.19 48.81 C 67.54 47.59 68.87 46.34 70.18 45.07 C 69.11 43.45 68.05 41.82 67.00 40.20 C 65.76 41.51 64.52 42.82 63.27 44.13 M 86.70 45.74 C 86.11 50.48 85.07 56.46 89.54 59.68 C 91.03 58.35 92.53 57.03 94.02 55.71 C 95.19 57.05 96.39 58.37 97.63 59.65 C 98.97 58.49 100.32 57.34 101.67 56.18 C 98.24 54.47 100.03 49.90 99.57 46.83 C 100.06 46.13 100.54 45.42 101.03 44.72 C 99.11 43.57 97.24 42.33 95.44 41.00 C 92.56 42.64 89.38 43.78 86.70 45.74 M 104.18 43.90 C 104.72 44.18 105.80 44.76 106.34 45.05 C 106.79 48.82 107.10 52.85 105.62 56.45 C 106.75 57.40 107.87 58.36 108.99 59.33 C 110.17 58.39 111.37 57.46 112.57 56.54 C 111.94 52.51 111.95 48.41 112.45 44.37 C 111.36 42.92 110.24 41.51 109.08 40.12 C 107.45 41.38 105.82 42.64 104.18 43.90 M 113.27 43.50 C 116.92 48.16 112.44 55.22 116.88 59.72 C 118.74 58.39 120.61 57.05 122.53 55.80 C 122.01 55.51 120.97 54.93 120.44 54.64 C 119.92 50.98 120.13 47.23 120.83 43.62 C 119.63 42.55 118.43 41.49 117.22 40.42 C 115.91 41.46 114.59 42.48 113.27 43.50 M 138.97 44.33 C 139.89 44.63 140.80 44.92 141.72 45.22 C 141.79 48.14 141.80 51.06 141.78 53.98 C 141.21 54.44 140.65 54.89 140.09 55.35 C 142.20 56.56 144.21 57.94 146.14 59.43 C 148.48 57.48 150.76 55.48 153.07 53.49 C 151.30 54.24 149.44 54.77 147.52 54.86 C 147.21 51.24 147.44 47.61 147.34 43.99 C 146.79 42.37 145.34 41.30 144.27 40.04 C 142.52 41.49 140.76 42.93 138.97 44.33 M 156.67 43.66 C 156.73 47.63 156.80 51.61 156.27 55.56 C 158.30 56.57 160.26 57.71 162.17 58.94 C 164.41 57.12 167.57 56.56 169.63 54.64 C 171.04 49.96 171.03 44.06 167.16 40.48 C 163.99 42.44 160.39 43.51 156.67 43.66 M 12.41 68.10 C 10.20 68.33 10.03 70.36 9.89 72.13 C 11.39 72.53 12.93 72.69 14.45 72.91 C 13.83 70.66 15.23 67.35 13.21 65.74 C 13.01 66.33 12.61 67.51 12.41 68.10 M 22.37 70.91 C 22.04 70.31 21.36 69.09 21.03 68.49 C 19.17 68.80 16.85 67.98 15.30 69.24 C 15.33 70.46 15.49 71.66 15.68 72.86 C 18.16 72.55 20.65 72.29 23.14 72.05 C 24.66 72.42 26.21 72.62 27.78 72.65 C 27.20 71.90 26.62 71.16 26.02 70.43 L 24.67 72.29 C 24.79 71.52 25.04 69.99 25.16 69.22 C 26.00 69.57 26.82 69.97 27.61 70.42 C 27.58 69.15 27.50 66.60 27.47 65.33 C 25.75 67.18 23.81 68.82 22.37 70.91 M 36.39 72.77 C 36.89 72.79 37.88 72.82 38.37 72.83 C 37.93 70.32 37.63 67.77 37.13 65.27 C 36.35 67.69 36.52 70.26 36.39 72.77 M 43.62 67.22 C 43.28 68.58 42.50 69.30 41.26 69.37 C 41.25 68.35 41.22 66.32 41.20 65.30 C 39.83 67.17 39.58 69.50 41.81 70.75 C 41.30 71.62 40.79 72.50 40.30 73.38 C 41.90 72.22 43.34 70.86 44.61 69.35 C 45.43 69.53 46.25 69.72 47.07 69.90 C 46.42 71.02 45.77 72.15 45.14 73.28 C 46.41 72.35 47.64 71.35 48.95 70.47 C 50.41 70.44 51.20 71.87 52.33 72.56 C 52.66 72.12 53.31 71.23 53.64 70.78 C 53.17 69.07 52.74 67.35 52.29 65.63 C 51.44 67.18 50.64 68.76 49.84 70.33 C 49.28 68.93 48.72 67.53 48.17 66.12 C 46.64 66.44 45.12 66.80 43.62 67.22 M 28.71 68.45 C 28.63 69.82 28.56 71.19 28.49 72.57 C 29.72 72.64 30.94 72.71 32.17 72.79 C 31.16 71.78 30.14 70.78 29.14 69.76 C 30.12 69.69 32.07 69.53 33.05 69.45 C 31.73 68.65 30.21 68.53 28.71 68.45 Z" />
<path fill="#ffcc01" opacity="1.00" d=" M 165.77 30.70 C 167.47 29.29 169.71 29.92 171.68 30.13 C 169.96 30.48 168.23 30.80 166.50 31.09 C 166.49 32.99 166.49 34.89 166.52 36.78 C 167.06 36.18 168.13 34.97 168.67 34.36 C 169.07 35.02 169.88 36.35 170.28 37.02 C 170.66 34.71 171.13 32.41 171.68 30.13 C 172.62 32.18 173.87 34.85 171.75 36.65 C 169.73 39.66 166.19 37.43 164.15 35.68 C 164.52 34.00 164.09 31.78 165.77 30.70 Z" />
<path fill="#ffcc01" opacity="1.00" d=" M 168.11 32.09 C 171.12 30.59 168.19 35.47 168.11 32.09 Z" />
<path fill="#ffcc01" opacity="1.00" d=" M 129.32 43.32 C 130.52 45.10 131.59 46.97 132.64 48.85 C 131.82 49.28 130.19 50.12 129.38 50.54 C 129.30 48.14 129.25 45.73 129.32 43.32 Z" />
<path fill="#ffcc01" opacity="1.00" d=" M 162.22 43.07 C 166.21 45.83 164.75 51.22 165.09 55.32 C 159.91 53.56 162.27 47.13 162.22 43.07 Z" />
<path fill="#ffcc01" opacity="1.00" d=" M 91.62 43.58 C 95.95 46.10 94.29 51.47 94.23 55.56 C 93.63 55.57 92.45 55.59 91.86 55.60 C 91.37 51.61 91.51 47.58 91.62 43.58 Z" />
<path fill="#ffcc01" opacity="1.00" d=" M 46.02 67.35 C 47.42 66.92 47.91 67.41 47.49 68.82 C 46.09 69.26 45.61 68.77 46.02 67.35 Z" />
<path fill="#ffcc01" opacity="1.00" d=" M 11.74 69.68 C 15.08 69.82 10.23 72.77 11.74 69.68 Z" />
<path fill="#ffcc01" opacity="1.00" d=" M 17.46 70.36 C 18.68 69.47 19.34 69.74 19.44 71.16 C 18.21 72.03 17.55 71.77 17.46 70.36 Z" />
</g>
<g id="#271f1dff">
<path fill="#271f1d" opacity="1.00" d=" M 8.31 29.86 C 9.58 24.36 15.00 19.13 20.97 20.65 C 26.93 22.14 29.97 28.05 34.88 31.22 C 37.68 33.12 41.31 35.48 44.75 33.77 C 47.11 32.58 49.32 29.30 47.45 26.84 C 46.49 24.87 44.43 23.92 42.66 22.84 C 42.62 22.66 42.55 22.29 42.51 22.11 C 44.82 23.37 47.60 24.50 48.61 27.15 C 50.55 30.45 48.28 34.66 44.98 35.98 C 40.66 37.86 35.89 36.32 31.51 35.47 C 29.85 40.09 30.39 45.13 30.33 49.94 C 30.13 51.76 32.23 51.93 33.40 52.66 C 31.38 54.09 30.07 56.19 28.68 58.18 C 25.87 56.51 24.79 53.14 24.68 50.04 C 24.57 45.30 24.70 40.55 24.65 35.81 C 23.97 35.69 22.61 35.44 21.93 35.32 C 23.81 34.12 25.67 32.89 27.53 31.65 C 24.44 28.41 20.77 24.91 16.00 24.85 C 10.80 25.12 7.74 32.01 11.03 36.04 C 12.88 39.22 16.94 38.62 20.07 39.11 C 17.86 39.33 15.60 39.92 13.39 39.47 C 9.63 38.16 7.07 33.77 8.31 29.86 Z" />
<path fill="#271f1d" opacity="1.00" d=" M 165.23 29.35 C 167.82 29.66 171.38 28.30 173.06 30.97 C 174.38 33.31 174.00 36.91 171.48 38.33 C 169.06 39.25 165.67 39.15 164.22 36.65 C 162.34 34.35 163.83 31.44 165.23 29.35 M 165.77 30.70 C 164.09 31.78 164.52 34.00 164.15 35.68 C 166.19 37.43 169.73 39.66 171.75 36.65 C 173.87 34.85 172.62 32.18 171.68 30.13 C 169.71 29.92 167.47 29.29 165.77 30.70 Z" />
<path fill="#271f1d" opacity="1.00" d=" M 166.50 31.09 C 168.23 30.80 169.96 30.48 171.68 30.13 C 171.13 32.41 170.66 34.71 170.28 37.02 C 169.88 36.35 169.07 35.02 168.67 34.36 C 168.13 34.97 167.06 36.18 166.52 36.78 C 166.49 34.89 166.49 32.99 166.50 31.09 M 168.11 32.09 C 168.19 35.47 171.12 30.59 168.11 32.09 Z" />
<path fill="#271f1d" opacity="1.00" d=" M 72.72 45.04 C 75.99 42.30 78.16 38.63 79.84 34.77 C 79.90 37.43 79.87 40.10 79.81 42.77 C 81.05 42.75 82.29 42.72 83.54 42.69 C 83.53 43.57 83.52 44.44 83.51 45.32 C 82.26 45.28 81.00 45.24 79.75 45.20 C 79.75 48.41 79.77 51.62 79.87 54.84 C 81.20 54.77 82.53 54.70 83.86 54.62 C 81.81 56.13 79.80 57.69 77.82 59.27 C 76.40 58.13 74.98 56.99 73.53 55.90 C 75.49 52.83 74.54 49.03 74.80 45.62 C 74.28 45.47 73.24 45.18 72.72 45.04 Z" />
<path fill="#271f1d" opacity="1.00" d=" M 124.82 44.91 C 127.00 42.45 130.40 41.71 133.22 40.22 C 134.60 42.34 135.97 44.46 137.29 46.61 C 134.52 48.30 131.68 49.91 129.11 51.90 C 130.41 53.29 131.96 54.41 133.59 55.37 C 135.03 54.95 136.48 54.54 137.93 54.16 C 135.33 56.03 132.68 57.85 130.04 59.67 C 127.90 57.86 124.70 56.32 124.57 53.12 C 124.32 50.41 123.92 47.53 124.82 44.91 M 129.32 43.32 C 129.25 45.73 129.30 48.14 129.38 50.54 C 130.19 50.12 131.82 49.28 132.64 48.85 C 131.59 46.97 130.52 45.10 129.32 43.32 Z" />
<path fill="#271f1d" opacity="1.00" d=" M 147.99 44.07 C 149.21 42.80 150.44 41.54 151.68 40.28 C 152.73 41.89 153.78 43.49 154.84 45.10 C 153.55 46.38 152.27 47.67 150.98 48.96 C 149.98 47.33 148.98 45.70 147.99 44.07 Z" />
<path fill="#271f1d" opacity="1.00" d=" M 36.90 45.96 C 39.49 43.81 42.69 42.53 45.74 41.19 C 47.69 42.28 49.50 43.58 51.44 44.67 C 49.06 48.05 48.89 53.25 51.64 56.47 C 50.38 57.55 49.13 58.63 47.88 59.71 C 46.72 58.49 45.57 57.25 44.44 56.00 C 44.43 51.76 46.39 46.14 41.85 43.55 C 41.95 48.01 41.00 52.76 43.10 56.91 C 41.95 57.85 40.81 58.80 39.66 59.74 C 35.62 56.33 36.11 50.65 36.90 45.96 Z" />
<path fill="#271f1d" opacity="1.00" d=" M 54.05 44.79 C 55.83 43.22 57.57 41.62 59.31 40.02 C 64.62 43.06 62.07 49.70 62.70 54.64 C 64.71 54.92 66.64 54.36 68.45 53.51 C 66.13 55.51 63.78 57.45 61.40 59.37 C 59.43 57.91 57.40 56.52 55.27 55.30 C 55.92 54.87 56.56 54.44 57.20 54.01 C 57.25 50.94 57.22 47.87 57.07 44.81 C 56.31 44.80 54.81 44.79 54.05 44.79 Z" />
<path fill="#271f1d" opacity="1.00" d=" M 63.27 44.13 C 64.52 42.82 65.76 41.51 67.00 40.20 C 68.05 41.82 69.11 43.45 70.18 45.07 C 68.87 46.34 67.54 47.59 66.19 48.81 C 65.22 47.24 64.26 45.68 63.27 44.13 Z" />
<path fill="#271f1d" opacity="1.00" d=" M 86.70 45.74 C 89.38 43.78 92.56 42.64 95.44 41.00 C 97.24 42.33 99.11 43.57 101.03 44.72 C 100.54 45.42 100.06 46.13 99.57 46.83 C 100.03 49.90 98.24 54.47 101.67 56.18 C 100.32 57.34 98.97 58.49 97.63 59.65 C 96.39 58.37 95.19 57.05 94.02 55.71 C 92.53 57.03 91.03 58.35 89.54 59.68 C 85.07 56.46 86.11 50.48 86.70 45.74 M 91.62 43.58 C 91.51 47.58 91.37 51.61 91.86 55.60 C 92.45 55.59 93.63 55.57 94.23 55.56 C 94.29 51.47 95.95 46.10 91.62 43.58 Z" />
<path fill="#271f1d" opacity="1.00" d=" M 104.18 43.90 C 105.82 42.64 107.45 41.38 109.08 40.12 C 110.24 41.51 111.36 42.92 112.45 44.37 C 111.95 48.41 111.94 52.51 112.57 56.54 C 111.37 57.46 110.17 58.39 108.99 59.33 C 107.87 58.36 106.75 57.40 105.62 56.45 C 107.10 52.85 106.79 48.82 106.34 45.05 C 105.80 44.76 104.72 44.18 104.18 43.90 Z" />
<path fill="#271f1d" opacity="1.00" d=" M 113.27 43.50 C 114.59 42.48 115.91 41.46 117.22 40.42 C 118.43 41.49 119.63 42.55 120.83 43.62 C 120.13 47.23 119.92 50.98 120.44 54.64 C 120.97 54.93 122.01 55.51 122.53 55.80 C 120.61 57.05 118.74 58.39 116.88 59.72 C 112.44 55.22 116.92 48.16 113.27 43.50 Z" />
<path fill="#271f1d" opacity="1.00" d=" M 138.97 44.33 C 140.76 42.93 142.52 41.49 144.27 40.04 C 145.34 41.30 146.79 42.37 147.34 43.99 C 147.44 47.61 147.21 51.24 147.52 54.86 C 149.44 54.77 151.30 54.24 153.07 53.49 C 150.76 55.48 148.48 57.48 146.14 59.43 C 144.21 57.94 142.20 56.56 140.09 55.35 C 140.65 54.89 141.21 54.44 141.78 53.98 C 141.80 51.06 141.79 48.14 141.72 45.22 C 140.80 44.92 139.89 44.63 138.97 44.33 Z" />
<path fill="#271f1d" opacity="1.00" d=" M 156.67 43.66 C 160.39 43.51 163.99 42.44 167.16 40.48 C 171.03 44.06 171.04 49.96 169.63 54.64 C 167.57 56.56 164.41 57.12 162.17 58.94 C 160.26 57.71 158.30 56.57 156.27 55.56 C 156.80 51.61 156.73 47.63 156.67 43.66 M 162.22 43.07 C 162.27 47.13 159.91 53.56 165.09 55.32 C 164.75 51.22 166.21 45.83 162.22 43.07 Z" />
<path fill="#271f1d" opacity="1.00" d=" M 12.41 68.10 C 12.61 67.51 13.01 66.33 13.21 65.74 C 15.23 67.35 13.83 70.66 14.45 72.91 C 12.93 72.69 11.39 72.53 9.89 72.13 C 10.03 70.36 10.20 68.33 12.41 68.10 M 11.74 69.68 C 10.23 72.77 15.08 69.82 11.74 69.68 Z" />
<path fill="#271f1d" opacity="1.00" d=" M 22.37 70.91 C 23.81 68.82 25.75 67.18 27.47 65.33 C 27.50 66.60 27.58 69.15 27.61 70.42 C 26.82 69.97 26.00 69.57 25.16 69.22 C 25.04 69.99 24.79 71.52 24.67 72.29 L 26.02 70.43 C 26.62 71.16 27.20 71.90 27.78 72.65 C 26.21 72.62 24.66 72.42 23.14 72.05 C 20.65 72.29 18.16 72.55 15.68 72.86 C 15.49 71.66 15.33 70.46 15.30 69.24 C 16.85 67.98 19.17 68.80 21.03 68.49 C 21.36 69.09 22.04 70.31 22.37 70.91 M 17.46 70.36 C 17.55 71.77 18.21 72.03 19.44 71.16 C 19.34 69.74 18.68 69.47 17.46 70.36 Z" />
<path fill="#271f1d" opacity="1.00" d=" M 36.39 72.77 C 36.52 70.26 36.35 67.69 37.13 65.27 C 37.63 67.77 37.93 70.32 38.37 72.83 C 37.88 72.82 36.89 72.79 36.39 72.77 Z" />
<path fill="#271f1d" opacity="1.00" d=" M 43.62 67.22 C 45.12 66.80 46.64 66.44 48.17 66.12 C 48.72 67.53 49.28 68.93 49.84 70.33 C 50.64 68.76 51.44 67.18 52.29 65.63 C 52.74 67.35 53.17 69.07 53.64 70.78 C 53.31 71.23 52.66 72.12 52.33 72.56 C 51.20 71.87 50.41 70.44 48.95 70.47 C 47.64 71.35 46.41 72.35 45.14 73.28 C 45.77 72.15 46.42 71.02 47.07 69.90 C 46.25 69.72 45.43 69.53 44.61 69.35 C 43.34 70.86 41.90 72.22 40.30 73.38 C 40.79 72.50 41.30 71.62 41.81 70.75 C 39.58 69.50 39.83 67.17 41.20 65.30 C 41.22 66.32 41.25 68.35 41.26 69.37 C 42.50 69.30 43.28 68.58 43.62 67.22 M 46.02 67.35 C 45.61 68.77 46.09 69.26 47.49 68.82 C 47.91 67.41 47.42 66.92 46.02 67.35 Z" />
<path fill="#271f1d" opacity="1.00" d=" M 28.71 68.45 C 30.21 68.53 31.73 68.65 33.05 69.45 C 32.07 69.53 30.12 69.69 29.14 69.76 C 30.14 70.78 31.16 71.78 32.17 72.79 C 30.94 72.71 29.72 72.64 28.49 72.57 C 28.56 71.19 28.63 69.82 28.71 68.45 Z" />
</g>
<g id="#fe161fff">
<path fill="#fe161f" opacity="1.00" d=" M 59.31 65.34 C 100.06 65.22 140.81 65.30 181.56 65.31 C 187.37 65.30 193.19 65.31 199.00 65.33 C 198.98 72.77 198.98 80.21 199.00 87.65 C 152.43 87.70 105.85 87.57 59.28 87.72 C 59.28 83.96 59.30 80.21 59.31 76.46 C 59.33 72.75 59.31 69.04 59.31 65.34 M 85.55 69.08 C 86.53 72.71 86.56 76.52 86.11 80.23 C 85.55 80.35 84.41 80.59 83.84 80.71 C 83.07 78.10 83.28 75.35 83.09 72.67 C 81.11 72.79 78.36 72.24 77.55 74.67 C 78.15 75.69 78.85 76.66 79.40 77.72 C 76.13 78.87 72.76 76.41 72.00 73.25 C 73.47 73.87 74.95 74.49 76.44 75.10 C 75.58 72.23 72.75 72.33 70.53 73.40 C 70.50 73.95 70.45 75.06 70.42 75.61 C 71.41 76.97 74.99 77.81 73.75 79.76 C 72.35 80.66 71.66 78.65 70.67 78.02 C 70.60 78.74 70.53 79.47 70.46 80.20 C 71.03 80.54 72.17 81.21 72.74 81.55 C 74.57 81.17 76.33 79.72 78.23 80.53 C 81.69 81.40 85.29 81.16 88.83 81.27 C 87.66 77.04 88.34 72.61 87.83 68.29 C 87.07 68.56 86.31 68.82 85.55 69.08 M 112.10 68.89 C 112.51 70.05 112.92 71.21 113.33 72.37 C 110.59 72.40 107.26 73.72 107.23 76.93 C 106.70 79.67 109.22 81.22 111.54 81.67 C 111.81 81.17 112.33 80.17 112.60 79.68 C 107.92 81.38 107.90 72.38 112.32 73.46 C 113.10 76.09 112.85 78.86 112.98 81.57 L 115.42 81.02 C 114.48 76.90 114.84 72.66 114.77 68.48 C 113.88 68.61 112.99 68.75 112.10 68.89 M 154.20 68.95 C 154.61 70.08 155.03 71.21 155.44 72.35 C 153.66 72.71 151.48 72.71 150.37 74.43 C 148.44 76.54 149.53 79.68 151.42 81.41 C 153.48 81.23 155.55 81.07 157.61 80.88 C 156.41 76.86 156.83 72.63 156.85 68.50 C 156.19 68.61 154.86 68.83 154.20 68.95 M 93.48 72.64 C 91.53 72.53 91.07 74.69 90.29 75.99 C 91.36 76.90 92.42 77.83 93.53 78.69 C 93.22 77.03 92.63 75.39 92.75 73.68 C 96.59 72.59 94.73 76.83 94.48 78.89 C 96.00 77.70 97.15 76.19 97.75 74.34 C 98.63 74.90 99.50 75.47 100.38 76.05 C 101.00 74.93 101.63 73.83 102.27 72.73 C 103.40 75.21 104.86 79.98 100.73 80.35 C 101.42 78.76 102.14 77.19 102.90 75.64 C 101.62 76.76 99.81 77.47 98.98 79.04 C 99.45 79.96 100.01 80.82 100.57 81.69 C 101.18 81.42 102.40 80.88 103.01 80.61 C 103.87 80.91 104.74 81.18 105.61 81.42 C 105.30 78.74 105.04 76.04 105.08 73.33 C 103.37 72.73 101.35 72.18 99.99 73.87 C 97.86 73.30 95.70 72.66 93.48 72.64 M 118.51 73.36 C 116.20 74.65 116.91 77.68 117.12 79.83 C 119.34 81.55 123.12 82.22 124.08 78.65 C 125.67 79.83 127.22 81.76 129.44 81.34 C 130.55 80.64 132.24 79.41 131.23 77.95 C 129.79 76.41 128.04 75.16 126.77 73.46 C 128.00 73.77 130.47 74.38 131.70 74.69 C 130.77 73.63 129.76 72.24 128.14 72.50 C 126.51 73.00 125.36 74.37 124.08 75.42 C 123.59 72.98 120.41 71.71 118.51 73.36 M 139.03 80.90 C 140.96 82.27 142.83 80.20 144.47 79.36 C 143.02 79.44 141.56 79.49 140.11 79.50 C 139.61 78.73 138.61 77.17 138.11 76.40 C 140.15 76.24 142.21 76.13 144.26 76.03 C 143.50 74.37 142.35 72.32 140.20 72.56 C 136.51 73.43 135.52 79.17 139.03 80.90 M 159.98 73.89 C 157.57 76.35 159.36 79.64 161.41 81.62 C 163.65 81.36 166.63 80.67 166.69 77.84 C 167.79 74.12 162.58 70.62 159.98 73.89 M 170.94 72.82 C 167.27 73.68 166.69 79.36 170.07 80.94 C 172.26 82.35 174.33 79.94 175.93 78.66 C 177.09 82.20 181.13 81.78 182.99 79.18 C 184.01 79.93 184.77 81.45 186.22 81.38 C 187.86 81.50 188.77 79.81 189.97 79.01 C 188.29 77.05 185.76 75.72 184.90 73.16 C 186.42 73.78 187.94 74.40 189.47 75.02 C 188.73 73.96 188.07 72.54 186.56 72.55 C 184.92 72.03 184.14 74.09 183.02 74.88 C 181.86 74.08 180.88 72.86 179.46 72.54 C 177.69 72.40 176.70 74.27 175.91 75.52 C 174.67 74.12 173.09 71.77 170.94 72.82 M 89.96 83.28 C 92.37 85.06 96.67 85.23 97.85 81.98 C 98.66 78.48 93.48 79.81 91.59 78.10 C 91.02 79.82 90.47 81.55 89.96 83.28 Z" />
<path fill="#fe161f" opacity="1.00" d=" M 79.65 74.19 C 81.21 72.46 82.75 76.34 80.54 76.44 C 80.32 75.88 79.87 74.75 79.65 74.19 Z" />
<path fill="#fe161f" opacity="1.00" d=" M 119.32 73.85 C 123.20 71.55 124.34 81.88 119.97 80.24 C 118.19 78.56 118.43 75.90 119.32 73.85 Z" />
<path fill="#fe161f" opacity="1.00" d=" M 139.62 74.11 C 142.71 72.61 139.72 77.46 139.62 74.11 Z" />
<path fill="#fe161f" opacity="1.00" d=" M 151.88 73.93 C 155.66 71.25 156.91 80.63 152.91 79.94 C 150.61 78.81 151.07 75.85 151.88 73.93 Z" />
<path fill="#fe161f" opacity="1.00" d=" M 161.38 73.74 C 165.32 72.53 165.19 78.07 164.32 80.46 C 160.53 81.15 160.08 76.20 161.38 73.74 Z" />
<path fill="#fe161f" opacity="1.00" d=" M 169.83 77.92 C 168.61 76.01 170.47 74.31 171.79 73.17 C 173.53 74.77 175.92 76.60 174.47 79.23 C 172.75 79.32 170.50 80.17 169.83 77.92 Z" />
<path fill="#fe161f" opacity="1.00" d=" M 178.30 73.98 C 181.30 72.38 178.52 77.32 178.30 73.98 Z" />
<path fill="#fe161f" opacity="1.00" d=" M 123.18 76.95 C 124.20 76.42 125.24 75.94 126.30 75.50 C 127.31 77.24 130.50 78.21 129.55 80.65 C 128.50 80.14 127.51 79.54 126.58 78.85 C 125.43 78.24 124.30 77.61 123.18 76.95 Z" />
<path fill="#fe161f" opacity="1.00" d=" M 177.15 76.17 C 179.22 75.69 181.35 75.69 183.44 75.40 C 185.03 77.02 187.54 78.13 187.75 80.69 C 186.39 80.20 185.17 79.49 184.07 78.56 C 182.29 79.04 180.50 79.50 178.71 79.94 C 178.13 78.71 177.52 77.49 177.15 76.17 Z" />
<path fill="#fe161f" opacity="1.00" d=" M 79.59 77.94 C 81.23 77.33 81.76 77.85 81.18 79.51 C 79.54 80.10 79.00 79.58 79.59 77.94 Z" />
<path fill="#fe161f" opacity="1.00" d=" M 92.10 81.36 C 93.47 80.92 94.88 80.77 96.32 80.89 C 97.63 84.07 91.99 84.04 91.11 81.69 L 92.10 81.36 Z" />
</g>
</svg>
