<?xml version="1.0" encoding="UTF-8" ?>
<!DOCTYPE svg PUBLIC "-//W3C//DTD SVG 1.1//EN" "http://www.w3.org/Graphics/SVG/1.1/DTD/svg11.dtd">
<svg width="119pt" height="120pt" viewBox="0 0 119 120" version="1.1" xmlns="http://www.w3.org/2000/svg">
<g id="#7f42d7ff">
<path fill="#7f42d7" opacity="1.00" d=" M 0.00 0.00 L 119.00 0.00 L 119.00 120.00 L 0.00 120.00 L 0.00 0.00 M 7.77 6.59 C 20.11 42.37 32.18 78.25 44.37 114.08 C 53.58 114.28 62.79 114.11 72.01 114.17 C 84.51 78.33 96.53 42.32 109.23 6.55 C 100.65 6.48 92.08 6.51 83.50 6.53 C 77.24 27.85 70.79 49.10 64.51 70.41 C 62.33 77.73 59.75 85.00 58.97 92.65 C 58.22 88.65 57.51 84.64 56.30 80.74 C 48.97 56.00 41.45 31.31 34.19 6.54 C 25.38 6.53 16.57 6.44 7.77 6.59 Z" />
</g>
<g id="#ffffffff">
<path fill="#ffffff" opacity="1.00" d=" M 7.77 6.59 C 16.57 6.44 25.38 6.53 34.19 6.54 C 41.45 31.31 48.97 56.00 56.30 80.74 C 57.51 84.64 58.22 88.65 58.97 92.65 C 59.75 85.00 62.33 77.73 64.51 70.41 C 70.79 49.10 77.24 27.85 83.50 6.53 C 92.08 6.51 100.65 6.48 109.23 6.55 C 96.53 42.32 84.51 78.33 72.01 114.17 C 62.79 114.11 53.58 114.28 44.37 114.08 C 32.18 78.25 20.11 42.37 7.77 6.59 Z" />
</g>
</svg>
