<?xml version="1.0" encoding="UTF-8" ?>
<!DOCTYPE svg PUBLIC "-//W3C//DTD SVG 1.1//EN" "http://www.w3.org/Graphics/SVG/1.1/DTD/svg11.dtd">
<svg width="119pt" height="120pt" viewBox="0 0 119 120" version="1.1" xmlns="http://www.w3.org/2000/svg">
<g id="#7f42d7ff">
<path fill="#7f42d7" opacity="1.00" d=" M 0.00 0.00 L 119.00 0.00 L 119.00 120.00 L 0.00 120.00 L 0.00 0.00 M 7.75 6.57 C 20.10 42.34 32.19 78.20 44.34 114.05 C 53.55 114.33 62.78 114.09 72.01 114.17 C 84.41 78.31 96.72 42.41 109.06 6.53 C 100.54 6.50 92.02 6.50 83.50 6.53 C 77.25 27.86 70.78 49.11 64.51 70.43 C 62.33 77.65 59.86 84.83 58.96 92.35 C 58.15 88.48 57.50 84.57 56.32 80.78 C 48.98 56.03 41.44 31.33 34.20 6.55 C 25.38 6.50 16.57 6.47 7.75 6.57 Z" />
</g>
<g id="#ffffffff">
<path fill="#ffffff" opacity="1.00" d=" M 7.75 6.57 C 16.57 6.47 25.38 6.50 34.20 6.55 C 41.44 31.33 48.98 56.03 56.32 80.78 C 57.50 84.57 58.15 88.48 58.96 92.35 C 59.86 84.83 62.33 77.65 64.51 70.43 C 70.78 49.11 77.25 27.86 83.50 6.53 C 92.02 6.50 100.54 6.50 109.06 6.53 C 96.72 42.41 84.41 78.31 72.01 114.17 C 62.78 114.09 53.55 114.33 44.34 114.05 C 32.19 78.20 20.10 42.34 7.75 6.57 Z" />
</g>
</svg>
