<?xml version="1.0" encoding="UTF-8" ?>
<!DOCTYPE svg PUBLIC "-//W3C//DTD SVG 1.1//EN" "http://www.w3.org/Graphics/SVG/1.1/DTD/svg11.dtd">
<svg width="960pt" height="960pt" viewBox="0 0 960 960" version="1.1" xmlns="http://www.w3.org/2000/svg">
<g id="#ffffffff">
<path fill="#ffffff" opacity="1.00" d=" M 156.24 391.22 C 183.22 382.83 211.79 380.32 239.92 381.96 C 260.57 383.32 281.12 387.18 300.59 394.26 C 316.61 400.13 332.11 408.69 343.52 421.60 C 346.48 425.03 348.89 428.91 350.80 433.00 C 354.75 441.72 355.19 451.85 351.80 460.82 C 346.09 475.51 333.09 485.86 319.68 493.29 C 299.38 504.17 276.76 510.48 253.91 512.88 C 250.38 513.82 246.66 513.31 243.11 514.16 C 204.58 516.47 164.50 512.20 129.78 494.25 C 117.17 487.54 105.11 478.51 98.17 465.73 C 93.23 456.94 92.09 446.09 95.50 436.56 C 98.55 427.82 104.51 420.42 111.44 414.42 C 120.44 406.55 131.06 400.73 142.07 396.21 C 143.74 395.54 145.41 394.89 147.10 394.28 C 148.36 393.81 149.63 393.38 150.89 392.90 C 152.67 392.33 154.45 391.76 156.24 391.22 M 161.84 395.40 C 144.42 400.20 127.34 407.65 113.69 419.72 C 106.03 426.78 99.89 436.36 99.51 447.03 C 99.10 456.95 103.95 466.33 110.61 473.40 C 121.89 485.23 136.98 492.56 152.26 497.78 C 181.88 508.01 213.71 510.37 244.82 508.13 C 265.90 506.29 286.90 501.90 306.43 493.61 C 319.30 488.08 331.77 480.53 340.51 469.38 C 347.04 461.16 350.18 450.02 347.26 439.75 C 343.42 427.05 333.01 417.75 322.17 410.83 C 301.13 397.71 276.45 391.91 252.09 388.96 C 221.96 385.65 191.14 387.46 161.84 395.40 Z" />
<path fill="#ffffff" opacity="1.00" d=" M 214.03 392.52 C 233.40 390.54 252.98 391.67 272.17 394.80 L 272.85 395.22 C 290.73 398.18 308.34 404.34 323.46 414.49 C 333.02 421.17 342.14 430.21 344.53 442.06 C 347.07 452.62 342.51 463.59 335.43 471.38 C 324.69 483.16 310.00 490.51 295.03 495.40 C 268.02 504.27 239.05 506.47 210.86 503.45 C 190.64 501.09 170.38 496.21 152.39 486.43 C 142.26 480.75 132.56 473.25 127.01 462.82 C 122.41 454.41 122.06 443.86 126.16 435.18 C 130.86 424.85 139.96 417.33 149.47 411.56 C 168.95 399.85 191.62 394.69 214.03 392.52 M 139.10 429.28 C 135.16 433.06 138.80 440.63 143.99 440.69 C 148.00 441.18 150.36 437.00 154.07 436.26 C 156.60 435.17 160.10 435.64 161.26 438.43 C 166.41 449.18 169.14 460.92 174.43 471.60 C 176.84 475.96 179.60 480.45 183.96 483.11 C 187.81 485.62 193.13 485.43 196.95 482.95 C 203.06 479.33 206.84 472.99 209.82 466.75 C 213.23 459.45 216.69 452.18 219.69 444.71 C 213.84 446.33 207.82 447.67 202.34 450.31 C 199.13 456.10 197.09 462.67 192.63 467.70 C 191.77 469.14 189.43 468.96 188.64 467.56 C 180.29 455.25 180.93 438.51 170.64 427.32 C 162.38 418.03 146.92 420.88 139.10 429.28 M 199.88 428.09 C 197.57 429.11 194.80 429.95 193.53 432.33 C 191.81 435.39 193.12 439.31 195.59 441.53 C 197.33 443.28 199.99 442.49 202.17 442.41 C 208.45 439.65 215.19 438.09 221.91 436.77 C 229.72 435.42 238.14 434.29 245.67 437.50 C 247.95 438.49 250.27 440.56 250.28 443.22 C 249.66 446.79 246.02 448.06 243.11 449.27 C 240.00 449.28 236.86 449.45 233.82 448.73 C 230.70 449.29 227.57 451.29 227.53 454.80 C 227.24 463.93 227.31 473.08 227.55 482.21 C 230.31 487.48 239.79 487.28 241.02 480.98 C 241.55 475.19 241.06 469.36 241.22 463.56 C 247.35 462.54 254.07 461.27 258.53 456.55 C 264.83 450.36 265.92 439.54 260.69 432.36 C 256.39 426.26 249.05 423.43 242.07 421.71 C 227.77 420.53 213.15 422.54 199.88 428.09 M 274.47 423.45 C 270.67 426.69 272.07 434.18 277.03 435.48 C 282.86 435.88 288.71 435.51 294.55 435.64 C 294.52 444.44 294.57 453.24 294.54 462.04 C 294.58 464.91 293.78 467.89 291.80 470.03 C 289.79 472.05 286.69 471.74 284.09 471.70 C 280.02 471.72 277.38 467.78 276.77 464.14 C 276.71 462.23 276.89 460.27 276.35 458.43 C 274.12 454.53 268.08 453.73 264.94 456.95 C 262.95 459.13 263.11 462.28 263.00 465.03 C 262.92 471.22 266.11 477.28 271.18 480.80 C 279.69 486.75 291.99 486.37 300.34 480.33 C 305.80 476.38 308.28 469.51 308.32 462.95 C 308.42 453.84 308.33 444.73 308.36 435.63 C 312.75 435.47 317.20 436.02 321.55 435.35 C 327.63 433.36 327.06 423.56 321.22 421.54 C 306.42 421.62 291.61 421.61 276.81 421.55 C 276.00 422.14 275.22 422.78 274.47 423.45 M 309.64 475.77 C 310.79 474.87 312.15 473.65 313.75 474.20 C 313.78 475.62 313.56 477.02 313.09 478.40 C 312.88 477.22 312.69 476.03 312.52 474.85 C 309.44 475.81 311.30 480.83 312.72 482.41 C 310.70 481.25 309.62 479.52 309.49 477.20 C 309.16 478.36 309.28 479.57 309.13 480.77 C 310.81 481.88 312.87 483.30 314.90 482.06 C 318.33 480.71 318.62 475.22 315.31 473.62 C 314.80 473.50 313.76 473.28 313.24 473.16 C 311.20 471.99 305.95 478.83 309.64 475.77 Z" />
<path fill="#ffffff" opacity="1.00" d=" M 315.77 479.87 C 314.32 479.12 314.34 475.98 315.65 475.24 C 316.94 476.16 317.38 479.15 315.77 479.87 Z" />
<path fill="#ffffff" opacity="1.00" d=" M 312.35 479.68 C 314.04 479.22 314.71 479.77 314.37 481.33 C 312.69 481.79 312.01 481.24 312.35 479.68 Z" />
</g>
<g id="#b11116ff">
<path fill="#b11116" opacity="1.00" d=" M 70.77 364.19 C 160.19 364.20 249.61 364.19 339.02 364.19 C 351.76 364.28 364.50 364.00 377.23 364.34 C 377.15 416.58 377.22 468.83 377.19 521.07 C 377.15 524.87 377.47 528.71 376.73 532.48 C 274.75 532.30 172.77 532.45 70.79 532.41 C 70.75 476.33 70.78 420.26 70.77 364.19 M 202.25 380.38 C 176.73 382.64 151.18 388.60 128.39 400.55 C 114.27 408.29 100.54 418.98 94.26 434.28 C 89.50 445.60 91.24 458.97 97.91 469.16 C 107.77 484.60 124.07 494.45 140.60 501.42 C 161.29 510.24 183.64 514.50 205.98 516.19 C 239.50 518.09 273.93 514.97 305.24 502.21 C 320.62 495.91 335.66 487.36 346.25 474.27 C 353.42 465.30 357.74 453.41 355.54 441.89 C 353.48 430.03 345.89 419.85 336.76 412.33 C 325.97 403.18 313.15 396.76 299.91 391.98 C 268.75 380.85 235.11 377.64 202.25 380.38 Z" />
<path fill="#b11116" opacity="1.00" d=" M 161.84 395.40 C 191.14 387.46 221.96 385.65 252.09 388.96 C 276.45 391.91 301.13 397.71 322.17 410.83 C 333.01 417.75 343.42 427.05 347.26 439.75 C 350.18 450.02 347.04 461.16 340.51 469.38 C 331.77 480.53 319.30 488.08 306.43 493.61 C 286.90 501.90 265.90 506.29 244.82 508.13 C 213.71 510.37 181.88 508.01 152.26 497.78 C 136.98 492.56 121.89 485.23 110.61 473.40 C 103.95 466.33 99.10 456.95 99.51 447.03 C 99.89 436.36 106.03 426.78 113.69 419.72 C 127.34 407.65 144.42 400.20 161.84 395.40 M 214.03 392.52 C 191.62 394.69 168.95 399.85 149.47 411.56 C 139.96 417.33 130.86 424.85 126.16 435.18 C 122.06 443.86 122.41 454.41 127.01 462.82 C 132.56 473.25 142.26 480.75 152.39 486.43 C 170.38 496.21 190.64 501.09 210.86 503.45 C 239.05 506.47 268.02 504.27 295.03 495.40 C 310.00 490.51 324.69 483.16 335.43 471.38 C 342.51 463.59 347.07 452.62 344.53 442.06 C 342.14 430.21 333.02 421.17 323.46 414.49 C 308.34 404.34 290.73 398.18 272.85 395.22 L 272.17 394.80 C 252.98 391.67 233.40 390.54 214.03 392.52 Z" />
<path fill="#b11116" opacity="1.00" d=" M 452.20 410.22 C 452.61 410.21 453.44 410.17 453.85 410.16 C 459.78 421.16 464.96 432.56 470.40 443.81 C 474.74 453.24 479.52 462.45 483.97 471.82 C 485.38 474.71 486.50 477.88 488.80 480.23 C 491.18 482.30 494.49 482.56 497.40 483.40 C 497.07 484.34 496.74 485.28 496.41 486.23 C 489.62 486.23 482.84 485.67 476.04 485.82 C 471.30 485.76 466.56 486.47 461.82 486.08 C 461.40 485.15 461.03 484.20 460.71 483.24 C 463.81 482.95 466.92 482.48 469.82 481.30 C 470.20 474.71 465.71 469.43 463.24 463.67 C 452.38 463.67 441.53 463.69 430.68 463.66 C 428.86 469.03 425.06 474.02 425.24 479.86 C 426.86 483.00 431.06 482.64 434.05 483.18 C 433.97 483.94 433.83 485.45 433.76 486.21 C 425.90 486.01 418.04 486.11 410.18 486.15 C 410.11 485.41 409.96 483.94 409.89 483.21 C 412.54 482.22 415.41 481.43 417.56 479.48 C 420.53 476.83 422.01 473.04 423.60 469.50 C 428.34 458.53 433.54 447.77 438.28 436.80 C 439.42 434.12 440.62 431.47 441.78 428.81 C 443.54 426.06 444.25 422.83 442.27 419.99 C 446.09 417.28 449.11 413.69 452.20 410.22 M 445.95 428.82 C 441.22 439.27 436.55 449.74 431.83 460.20 C 441.55 460.20 451.27 460.22 460.99 460.18 C 456.12 449.67 451.23 439.13 445.95 428.82 Z" />
<path fill="#b11116" opacity="1.00" d=" M 531.52 422.52 C 527.49 418.49 530.38 410.59 536.15 410.41 C 539.91 409.76 542.88 412.66 544.29 415.84 C 544.28 416.95 544.28 418.07 544.31 419.20 C 543.25 421.22 542.17 423.62 539.83 424.41 C 536.99 424.94 533.37 425.22 531.52 422.52 Z" />
<path fill="#b11116" opacity="1.00" d=" M 499.12 414.72 C 505.03 413.64 510.84 412.07 516.58 410.31 L 516.58 411.10 C 516.60 434.12 516.55 457.14 516.64 480.16 C 516.50 483.81 521.16 483.05 523.58 483.65 C 523.60 484.21 523.64 485.32 523.66 485.88 C 515.37 486.24 507.08 485.92 498.80 486.05 C 498.53 485.48 498.01 484.32 497.75 483.74 C 500.07 483.36 502.41 483.01 504.73 482.63 C 505.10 479.76 505.29 476.88 505.26 473.99 C 505.17 462.15 505.32 450.31 505.18 438.48 C 504.85 431.94 506.09 425.21 504.32 418.83 C 503.74 418.61 502.57 418.17 501.98 417.95 C 500.07 417.77 499.02 416.69 499.12 414.72 Z" />
<path fill="#b11116" opacity="1.00" d=" M 139.10 429.28 C 146.92 420.88 162.38 418.03 170.64 427.32 C 180.93 438.51 180.29 455.25 188.64 467.56 C 189.43 468.96 191.77 469.14 192.63 467.70 C 197.09 462.67 199.13 456.10 202.34 450.31 C 207.82 447.67 213.84 446.33 219.69 444.71 C 216.69 452.18 213.23 459.45 209.82 466.75 C 206.84 472.99 203.06 479.33 196.95 482.95 C 193.13 485.43 187.81 485.62 183.96 483.11 C 179.60 480.45 176.84 475.96 174.43 471.60 C 169.14 460.92 166.41 449.18 161.26 438.43 C 160.10 435.64 156.60 435.17 154.07 436.26 C 150.36 437.00 148.00 441.18 143.99 440.69 C 138.80 440.63 135.16 433.06 139.10 429.28 Z" />
<path fill="#b11116" opacity="1.00" d=" M 199.88 428.09 C 213.15 422.54 227.77 420.53 242.07 421.71 C 249.05 423.43 256.39 426.26 260.69 432.36 C 265.92 439.54 264.83 450.36 258.53 456.55 C 254.07 461.27 247.35 462.54 241.22 463.56 C 241.06 469.36 241.55 475.19 241.02 480.98 C 239.79 487.28 230.31 487.48 227.55 482.21 C 227.31 473.08 227.24 463.93 227.53 454.80 C 227.57 451.29 230.70 449.29 233.82 448.73 C 236.86 449.45 240.00 449.28 243.11 449.27 C 246.02 448.06 249.66 446.79 250.28 443.22 C 250.27 440.56 247.95 438.49 245.67 437.50 C 238.14 434.29 229.72 435.42 221.91 436.77 C 215.19 438.09 208.45 439.65 202.17 442.41 C 199.99 442.49 197.33 443.28 195.59 441.53 C 193.12 439.31 191.81 435.39 193.53 432.33 C 194.80 429.95 197.57 429.11 199.88 428.09 Z" />
<path fill="#b11116" opacity="1.00" d=" M 274.47 423.45 C 275.22 422.78 276.00 422.14 276.81 421.55 C 291.61 421.61 306.42 421.62 321.22 421.54 C 327.06 423.56 327.63 433.36 321.55 435.35 C 317.20 436.02 312.75 435.47 308.36 435.63 C 308.33 444.73 308.42 453.84 308.32 462.95 C 308.28 469.51 305.80 476.38 300.34 480.33 C 291.99 486.37 279.69 486.75 271.18 480.80 C 266.11 477.28 262.92 471.22 263.00 465.03 C 263.11 462.28 262.95 459.13 264.94 456.95 C 268.08 453.73 274.12 454.53 276.35 458.43 C 276.89 460.27 276.71 462.23 276.77 464.14 C 277.38 467.78 280.02 471.72 284.09 471.70 C 286.69 471.74 289.79 472.05 291.80 470.03 C 293.78 467.89 294.58 464.91 294.54 462.04 C 294.57 453.24 294.52 444.44 294.55 435.64 C 288.71 435.51 282.86 435.88 277.03 435.48 C 272.07 434.18 270.67 426.69 274.47 423.45 Z" />
<path fill="#b11116" opacity="1.00" d=" M 743.75 433.82 C 747.27 430.47 749.90 425.97 754.31 423.71 C 754.31 429.28 754.40 434.86 754.27 440.43 C 759.25 440.58 764.23 440.45 769.21 440.54 C 768.57 441.52 767.97 442.53 767.27 443.47 C 763.02 444.17 758.66 443.61 754.37 443.72 C 754.10 454.50 754.25 465.29 754.29 476.07 C 753.95 478.73 755.78 481.16 758.43 481.59 C 762.65 482.47 765.91 479.00 768.96 476.67 C 768.64 478.54 769.12 480.95 767.35 482.24 C 762.28 486.50 754.85 489.11 748.46 486.37 C 745.00 485.10 742.20 481.81 742.32 478.00 C 742.23 466.73 742.36 455.46 742.32 444.19 C 740.31 444.17 738.32 444.17 736.32 444.16 C 736.71 439.59 741.25 437.21 743.75 433.82 Z" />
<path fill="#b11116" opacity="1.00" d=" M 526.95 443.64 C 532.32 442.58 537.47 440.72 542.66 439.02 C 542.72 451.70 542.71 464.37 542.68 477.05 C 542.63 478.98 542.99 480.88 543.41 482.77 C 545.12 483.05 546.84 483.33 548.56 483.59 C 548.59 484.15 548.65 485.28 548.67 485.84 C 540.93 486.19 533.17 485.53 525.46 486.30 C 525.29 485.39 525.13 484.49 524.98 483.60 C 526.98 483.36 528.98 483.07 530.97 482.74 C 531.98 472.19 531.20 461.53 531.44 450.93 C 531.96 446.94 526.89 447.12 524.29 446.36 C 524.42 444.66 525.31 443.75 526.95 443.64 Z" />
<path fill="#b11116" opacity="1.00" d=" M 550.71 444.54 C 556.64 442.99 562.45 441.05 568.20 438.94 C 568.24 441.53 568.29 444.13 568.40 446.73 C 572.72 442.83 577.82 438.90 583.97 439.13 C 590.01 438.52 595.13 442.40 598.99 446.58 C 603.75 442.57 609.48 438.74 615.99 439.13 C 621.99 439.19 628.53 442.57 630.54 448.51 C 631.56 459.87 629.77 471.44 631.50 482.73 C 633.53 483.09 635.55 483.38 637.60 483.68 C 637.90 486.49 634.72 486.15 632.95 486.13 C 626.38 485.87 619.78 486.58 613.23 485.84 C 613.25 485.28 613.30 484.15 613.32 483.58 C 615.08 483.27 616.84 482.95 618.60 482.62 C 619.85 472.80 618.90 462.83 619.19 452.96 C 619.49 447.61 613.71 444.05 608.88 444.66 C 605.25 445.58 601.66 447.68 599.58 450.83 C 599.33 457.54 599.58 464.26 599.50 470.98 C 599.59 474.90 599.08 478.91 600.16 482.75 C 602.28 483.11 604.42 483.38 606.57 483.59 C 606.58 484.13 606.60 485.21 606.60 485.75 C 598.58 486.32 590.52 485.44 582.49 486.28 C 582.32 485.40 582.15 484.54 582.00 483.68 C 583.86 483.35 585.73 482.98 587.59 482.56 C 587.71 472.35 587.66 462.13 587.67 451.92 C 588.03 448.48 584.61 446.21 581.80 445.13 C 576.77 443.17 571.73 446.82 568.43 450.32 C 568.16 461.03 568.22 471.78 568.47 482.50 C 570.61 483.08 572.81 483.43 575.04 483.54 C 574.99 484.21 574.89 485.53 574.84 486.19 C 571.87 486.20 568.89 486.19 565.94 485.97 C 560.76 485.49 555.56 486.78 550.42 485.79 C 550.46 485.24 550.55 484.14 550.59 483.59 C 552.70 483.14 556.38 483.71 556.50 480.68 C 556.80 471.78 556.52 462.87 556.66 453.96 C 556.53 452.17 556.88 450.03 555.49 448.63 C 554.14 447.66 552.46 447.41 550.92 446.96 C 550.84 446.15 550.77 445.34 550.71 444.54 Z" />
<path fill="#b11116" opacity="1.00" d=" M 643.46 445.36 C 649.68 439.31 659.43 437.52 667.54 440.41 C 675.12 443.17 681.04 450.64 680.74 458.90 C 669.55 458.88 658.37 458.89 647.19 458.90 C 647.64 464.30 648.95 470.07 653.05 473.93 C 657.46 478.16 664.29 478.74 669.90 476.88 C 673.90 475.52 676.84 472.36 679.49 469.22 C 680.22 470.14 681.15 471.37 680.33 472.57 C 677.87 477.64 674.16 482.32 669.30 485.26 C 661.89 488.75 652.77 488.16 645.61 484.32 C 638.75 480.56 635.41 472.58 635.50 465.01 C 635.19 457.73 637.98 450.26 643.46 445.36 M 653.21 443.17 C 648.94 445.47 647.99 450.63 647.44 455.01 C 654.27 454.89 661.12 455.28 667.94 454.84 C 669.88 452.47 667.78 448.81 666.57 446.41 C 664.18 441.50 657.61 440.14 653.21 443.17 Z" />
<path fill="#b11116" opacity="1.00" d=" M 682.54 443.89 C 688.33 443.29 693.59 440.67 699.14 439.09 C 699.14 441.69 699.16 444.29 699.26 446.89 C 704.05 442.98 709.51 438.90 716.03 439.13 C 721.06 438.75 726.59 440.12 729.68 444.42 C 734.00 449.64 732.47 456.83 732.75 463.05 C 733.07 469.58 731.99 476.25 733.48 482.67 C 735.19 483.00 736.90 483.32 738.63 483.61 C 738.65 484.18 738.68 485.32 738.69 485.89 C 730.96 486.56 723.20 485.49 715.49 486.30 C 715.29 485.40 715.11 484.50 714.94 483.62 C 716.84 483.35 718.80 483.24 720.65 482.61 C 721.79 480.96 721.40 478.86 721.50 476.99 C 721.40 469.35 721.56 461.71 721.46 454.07 C 721.43 448.75 716.35 443.84 710.95 444.60 C 706.59 445.10 702.45 447.25 699.33 450.30 C 698.91 458.51 699.33 466.77 699.17 475.00 C 699.26 477.41 698.85 479.94 699.71 482.26 C 701.40 483.60 703.69 483.27 705.71 483.55 C 705.73 484.12 705.77 485.27 705.79 485.84 C 697.77 486.47 689.73 485.77 681.69 486.18 C 681.66 485.54 681.59 484.28 681.56 483.65 C 683.53 483.42 685.47 482.97 687.35 482.30 C 687.67 472.18 687.55 462.06 687.49 451.94 C 687.86 448.87 684.58 447.61 682.16 447.06 C 682.26 445.99 682.39 444.94 682.54 443.89 Z" />
<path fill="#b11116" opacity="1.00" d=" M 783.29 440.23 C 792.36 437.71 803.09 439.06 810.07 445.81 C 818.74 453.70 819.99 468.35 812.53 477.46 C 804.40 488.07 787.89 490.72 776.86 483.17 C 768.84 477.77 764.70 467.26 766.87 457.84 C 768.66 449.59 775.28 442.73 783.29 440.23 M 789.05 441.90 C 784.46 442.83 781.77 447.33 780.79 451.58 C 778.94 460.56 779.07 470.17 782.23 478.85 C 784.88 486.19 796.40 486.75 800.51 480.45 C 804.10 475.39 803.51 468.88 804.22 463.03 C 803.64 457.36 803.99 451.15 800.78 446.17 C 798.40 442.32 793.31 440.77 789.05 441.90 Z" />
<path fill="#b11116" opacity="1.00" d=" M 823.59 444.60 C 827.49 440.44 833.45 438.83 839.02 439.11 C 844.49 438.88 849.66 440.86 854.72 442.67 C 854.66 447.36 854.73 452.05 854.65 456.75 C 854.03 456.61 852.78 456.34 852.15 456.20 C 849.73 449.49 845.01 441.76 837.03 441.56 C 833.09 441.19 830.74 444.93 829.38 448.06 C 831.48 452.62 836.45 454.36 840.57 456.58 C 845.13 459.18 850.40 460.97 853.98 464.98 C 857.25 468.53 857.17 473.85 855.97 478.23 C 854.50 483.10 849.55 485.61 844.94 486.69 C 837.13 488.74 829.05 486.62 821.64 484.08 C 821.41 479.03 820.65 473.98 820.77 468.93 C 821.09 468.45 821.71 467.49 822.02 467.01 C 824.52 470.23 824.70 474.60 827.18 477.85 C 829.94 482.07 834.90 484.95 840.00 484.69 C 843.51 484.72 846.40 481.40 846.57 478.04 C 846.87 475.21 844.54 473.13 842.49 471.61 C 836.19 467.43 828.18 465.82 822.98 460.02 C 819.14 455.72 819.74 448.69 823.59 444.60 Z" />
</g>
<g id="#000000ff">
<path fill="#000000" opacity="1.00" d=" M 202.25 380.38 C 235.11 377.64 268.75 380.85 299.91 391.98 C 313.15 396.76 325.97 403.18 336.76 412.33 C 345.89 419.85 353.48 430.03 355.54 441.89 C 357.74 453.41 353.42 465.30 346.25 474.27 C 335.66 487.36 320.62 495.91 305.24 502.21 C 273.93 514.97 239.50 518.09 205.98 516.19 C 183.64 514.50 161.29 510.24 140.60 501.42 C 124.07 494.45 107.77 484.60 97.91 469.16 C 91.24 458.97 89.50 445.60 94.26 434.28 C 100.54 418.98 114.27 408.29 128.39 400.55 C 151.18 388.60 176.73 382.64 202.25 380.38 M 156.24 391.22 C 154.45 391.76 152.67 392.33 150.89 392.90 C 149.63 393.38 148.36 393.81 147.10 394.28 C 145.41 394.89 143.74 395.54 142.07 396.21 C 131.06 400.73 120.44 406.55 111.44 414.42 C 104.51 420.42 98.55 427.82 95.50 436.56 C 92.09 446.09 93.23 456.94 98.17 465.73 C 105.11 478.51 117.17 487.54 129.78 494.25 C 164.50 512.20 204.58 516.47 243.11 514.16 C 246.66 513.31 250.38 513.82 253.91 512.88 C 276.76 510.48 299.38 504.17 319.68 493.29 C 333.09 485.86 346.09 475.51 351.80 460.82 C 355.19 451.85 354.75 441.72 350.80 433.00 C 348.89 428.91 346.48 425.03 343.52 421.60 C 332.11 408.69 316.61 400.13 300.59 394.26 C 281.12 387.18 260.57 383.32 239.92 381.96 C 211.79 380.32 183.22 382.83 156.24 391.22 Z" />
<path fill="#000000" opacity="1.00" d=" M 309.64 475.77 C 305.95 478.83 311.20 471.99 313.24 473.16 C 313.76 473.28 314.80 473.50 315.31 473.62 C 318.62 475.22 318.33 480.71 314.90 482.06 C 312.87 483.30 310.81 481.88 309.13 480.77 C 309.28 479.57 309.16 478.36 309.49 477.20 C 309.62 479.52 310.70 481.25 312.72 482.41 C 311.30 480.83 309.44 475.81 312.52 474.85 C 312.69 476.03 312.88 477.22 313.09 478.40 C 313.56 477.02 313.78 475.62 313.75 474.20 C 312.15 473.65 310.79 474.87 309.64 475.77 M 315.77 479.87 C 317.38 479.15 316.94 476.16 315.65 475.24 C 314.34 475.98 314.32 479.12 315.77 479.87 M 312.35 479.68 C 312.01 481.24 312.69 481.79 314.37 481.33 C 314.71 479.77 314.04 479.22 312.35 479.68 Z" />
<path fill="#000000" opacity="1.00" d=" M 562.84 547.87 C 566.10 546.29 569.51 545.05 572.97 543.96 C 572.71 551.97 572.81 559.99 572.79 568.01 C 572.83 571.94 572.46 575.94 573.59 579.78 C 574.41 579.64 576.05 579.36 576.87 579.22 C 576.89 579.80 576.94 580.96 576.96 581.54 C 573.41 582.03 569.87 582.66 566.46 583.79 C 566.23 583.09 565.75 581.68 565.51 580.97 C 561.84 583.66 555.97 583.77 552.75 580.29 C 547.67 575.49 548.87 566.30 554.56 562.48 C 557.64 559.89 561.85 560.29 565.60 560.34 C 565.78 556.89 565.83 553.43 565.51 550.00 C 564.84 549.47 563.51 548.40 562.84 547.87 M 561.70 562.60 C 556.74 565.38 556.20 572.47 559.03 576.96 C 560.37 579.24 563.43 579.92 565.65 578.49 C 565.71 574.29 565.87 570.09 565.62 565.90 C 565.85 564.29 564.20 563.57 563.26 562.66 C 562.87 562.64 562.09 562.61 561.70 562.60 Z" />
<path fill="#000000" opacity="1.00" d=" M 391.68 547.38 C 400.13 547.00 408.78 545.93 417.09 548.02 C 422.85 549.45 427.71 554.12 429.13 559.91 C 430.21 564.86 429.54 570.32 426.62 574.55 C 423.63 579.22 418.15 581.64 412.81 582.36 C 405.63 583.22 398.41 581.85 391.21 582.62 C 391.19 582.12 391.14 581.11 391.12 580.61 C 392.52 580.16 393.93 579.71 395.33 579.26 C 395.69 569.70 395.52 560.12 395.43 550.56 C 394.19 550.09 392.95 549.63 391.71 549.22 L 391.68 547.38 M 403.38 550.22 C 403.52 559.02 403.15 567.85 403.55 576.65 C 404.26 580.44 409.02 580.21 411.93 579.58 C 416.40 578.54 418.99 574.34 420.38 570.28 C 420.80 566.22 420.93 562.10 420.06 558.09 C 417.57 551.69 409.90 547.94 403.38 550.22 Z" />
<path fill="#000000" opacity="1.00" d=" M 472.23 547.66 C 477.43 546.81 482.72 546.67 487.98 546.86 C 491.97 547.12 496.31 547.82 499.27 550.77 C 502.62 554.37 502.80 560.68 499.31 564.25 C 497.89 565.66 495.99 566.41 494.24 567.32 C 492.23 567.43 490.23 567.53 488.23 567.61 C 488.25 567.19 488.31 566.35 488.33 565.93 C 493.40 564.36 494.24 558.56 493.09 554.07 C 491.95 551.16 487.22 547.51 484.89 550.78 C 485.02 560.36 484.17 570.04 485.42 579.56 C 486.83 579.94 488.25 580.30 489.68 580.66 L 489.51 582.61 C 483.86 582.27 478.21 582.33 472.56 582.57 L 472.45 580.67 C 473.79 580.30 475.15 579.93 476.50 579.54 C 477.53 574.08 476.97 568.51 477.10 562.99 C 476.98 558.80 477.51 554.52 476.52 550.41 C 475.07 549.45 472.63 549.81 472.23 547.66 Z" />
<path fill="#000000" opacity="1.00" d=" M 785.87 547.96 C 791.02 545.59 797.00 547.38 802.50 546.80 C 802.58 547.30 802.75 548.31 802.83 548.81 C 802.11 549.01 800.67 549.39 799.94 549.59 C 800.37 552.10 801.27 554.50 802.29 556.84 C 802.90 558.51 803.55 560.18 804.21 561.86 C 804.84 563.52 805.49 565.18 806.17 566.84 C 806.77 568.55 807.39 570.26 807.99 571.99 C 811.46 564.84 814.19 557.35 816.90 549.88 C 815.18 549.29 812.50 549.43 813.01 546.85 C 816.38 546.82 819.76 546.76 823.15 546.82 C 824.51 546.46 825.62 547.29 826.01 548.55 C 823.72 549.16 821.08 549.69 820.19 552.22 C 815.57 561.86 811.53 571.80 807.73 581.80 C 807.36 583.65 805.33 583.28 803.96 583.25 C 803.36 581.18 802.64 579.14 801.87 577.14 C 798.55 568.80 795.38 560.39 791.84 552.15 C 791.00 549.50 787.91 549.25 785.87 547.96 Z" />
<path fill="#000000" opacity="1.00" d=" M 872.37 558.56 C 874.06 554.17 876.57 550.16 879.00 546.15 C 882.87 549.19 884.38 554.28 886.68 558.49 C 883.21 559.37 882.13 554.97 879.89 553.23 C 876.58 553.51 876.27 559.49 872.37 558.56 Z" />
<path fill="#000000" opacity="1.00" d=" M 606.47 562.07 C 610.65 561.04 612.81 556.88 616.45 555.23 C 616.48 557.05 616.49 558.88 616.49 560.71 C 618.49 560.73 620.49 560.73 622.51 560.74 C 622.62 561.61 622.73 562.50 622.85 563.39 C 620.77 565.03 618.32 562.95 616.41 564.51 C 616.93 569.13 615.51 574.10 617.57 578.45 C 618.16 578.66 619.34 579.09 619.93 579.31 C 621.03 578.95 622.14 578.61 623.27 578.28 C 623.51 581.09 620.33 582.40 618.02 582.73 C 615.57 582.71 612.37 583.56 610.65 581.31 C 609.95 580.29 609.47 579.12 609.49 577.89 C 609.35 573.37 609.48 568.85 609.47 564.34 C 608.74 564.30 607.29 564.23 606.57 564.19 C 606.52 563.48 606.49 562.77 606.47 562.07 Z" />
<path fill="#000000" opacity="1.00" d=" M 510.03 560.27 C 510.91 559.91 511.81 559.58 512.71 559.27 C 512.72 560.17 512.72 561.98 512.73 562.88 C 514.88 561.00 517.47 559.85 520.36 560.38 C 520.72 561.82 521.95 563.48 521.03 564.97 C 520.33 566.11 519.06 566.68 518.04 567.47 C 516.48 566.30 514.85 565.06 512.77 565.32 C 512.71 569.66 512.77 574.00 512.71 578.34 C 513.00 578.79 513.58 579.68 513.88 580.13 C 514.58 580.22 516.00 580.41 516.71 580.51 C 516.66 581.04 516.55 582.09 516.50 582.62 C 511.89 582.30 507.27 582.26 502.67 582.60 C 502.61 582.08 502.49 581.03 502.43 580.51 C 503.14 580.42 504.56 580.26 505.27 580.17 C 506.09 575.46 505.64 570.63 505.59 565.88 C 504.83 564.91 504.09 563.93 503.38 562.94 C 505.63 562.13 507.85 561.26 510.03 560.27 Z" />
<path fill="#000000" opacity="1.00" d=" M 439.74 561.06 C 444.32 559.62 450.09 559.79 453.68 563.40 C 459.41 568.83 457.32 580.13 449.46 582.40 C 444.73 583.22 438.88 583.55 435.38 579.58 C 430.04 574.05 432.46 563.64 439.74 561.06 M 440.65 566.78 C 440.46 569.60 440.49 572.44 440.68 575.28 C 441.51 577.52 442.77 579.59 444.92 580.80 C 446.44 579.96 448.25 578.96 448.42 577.00 C 449.45 572.64 449.34 567.32 446.49 563.68 C 444.11 560.96 441.40 564.51 440.65 566.78 Z" />
<path fill="#000000" opacity="1.00" d=" M 526.51 562.74 C 530.08 559.71 534.98 560.14 539.31 560.64 C 542.00 562.11 544.81 563.95 545.81 567.03 C 547.16 571.40 546.80 576.94 543.09 580.11 C 539.46 583.57 533.94 583.15 529.39 582.38 C 521.10 579.94 519.74 567.60 526.51 562.74 M 530.40 567.92 C 529.97 572.16 529.92 577.76 533.95 580.37 C 536.84 581.01 538.74 577.66 538.58 575.13 C 538.93 570.52 538.95 564.51 534.01 562.28 C 532.13 563.64 530.50 565.48 530.40 567.92 Z" />
<path fill="#000000" opacity="1.00" d=" M 583.12 561.24 C 584.59 560.81 586.09 560.45 587.60 560.12 C 587.69 565.52 587.64 570.92 587.63 576.33 C 587.95 576.88 588.58 577.98 588.90 578.52 C 590.73 578.89 593.36 579.40 594.35 577.32 C 594.49 573.15 594.50 568.97 594.33 564.80 C 593.40 564.10 592.38 563.57 591.27 563.21 C 591.32 562.80 591.41 561.98 591.45 561.57 C 593.58 561.46 595.72 561.35 597.81 560.84 C 599.16 560.62 600.52 560.43 601.90 560.25 C 601.64 566.14 601.56 572.06 601.82 577.95 C 601.63 580.33 604.31 579.31 605.66 579.36 C 605.62 579.91 605.56 581.01 605.53 581.55 C 601.80 581.94 598.14 582.74 594.55 583.78 C 594.50 582.96 594.39 581.31 594.34 580.49 C 591.27 582.94 587.18 583.35 583.46 582.50 C 581.83 581.71 580.76 579.80 580.69 578.03 C 580.44 573.65 580.73 569.27 580.54 564.90 C 579.22 564.13 577.89 563.29 578.07 561.57 C 579.75 561.45 581.43 561.36 583.12 561.24 Z" />
<path fill="#000000" opacity="1.00" d=" M 627.48 563.49 C 631.24 559.65 637.14 559.77 641.99 561.05 C 649.21 564.14 650.66 574.80 645.05 580.05 C 641.46 583.56 635.97 583.10 631.42 582.46 C 623.49 580.17 621.59 568.83 627.48 563.49 M 633.22 577.60 C 633.69 579.47 635.69 580.01 637.21 580.80 C 638.31 579.67 639.35 578.47 640.32 577.21 C 640.49 574.09 640.50 570.96 640.26 567.85 C 639.59 566.48 638.93 565.11 638.24 563.77 C 637.45 563.30 636.66 562.83 635.89 562.37 C 630.69 565.48 631.39 572.67 633.22 577.60 Z" />
<path fill="#000000" opacity="1.00" d=" M 654.83 561.84 C 656.99 560.97 659.13 560.04 661.33 559.26 C 661.37 560.17 661.45 561.98 661.49 562.89 C 663.53 561.10 666.33 559.21 669.07 560.84 C 670.11 562.44 670.03 564.53 669.01 566.13 C 667.80 566.90 666.32 566.59 664.98 566.63 C 664.02 565.69 662.78 565.33 661.54 565.01 C 661.34 569.84 661.48 574.68 661.42 579.52 C 662.69 579.89 663.99 580.27 665.30 580.64 C 665.28 581.12 665.25 582.09 665.24 582.58 C 660.62 582.36 655.98 582.21 651.37 582.63 C 651.25 582.18 651.01 581.26 650.89 580.80 C 652.05 580.31 653.22 579.81 654.38 579.29 C 654.30 574.89 654.43 570.49 654.27 566.10 C 653.39 565.10 652.56 564.07 652.07 562.83 C 652.76 562.59 654.14 562.09 654.83 561.84 Z" />
<path fill="#000000" opacity="1.00" d=" M 684.21 562.80 C 687.17 561.41 690.22 560.21 693.27 559.00 C 693.33 559.79 693.45 561.37 693.50 562.15 C 694.60 561.66 695.71 561.19 696.80 560.67 C 699.29 560.22 701.81 560.29 704.32 560.56 C 706.49 562.19 708.37 564.21 709.38 566.78 C 709.55 569.25 709.54 571.74 709.37 574.23 C 707.84 578.07 704.92 581.60 700.74 582.56 C 698.25 582.86 695.73 582.78 693.30 583.39 C 693.31 586.72 693.24 590.06 693.66 593.38 C 694.88 593.50 696.11 593.62 697.35 593.74 C 697.39 594.25 697.47 595.28 697.51 595.79 C 692.38 595.58 687.13 596.42 682.10 595.20 C 683.41 594.33 684.78 593.59 686.23 592.97 C 686.55 584.64 686.34 576.30 686.38 567.97 C 686.71 565.87 684.68 564.64 684.21 562.80 M 693.72 564.80 C 693.16 568.53 693.25 572.32 693.37 576.08 C 693.24 579.11 697.20 582.06 699.64 579.45 C 703.91 574.84 702.98 565.11 696.02 563.57 C 695.25 563.98 694.48 564.39 693.72 564.80 Z" />
<path fill="#000000" opacity="1.00" d=" M 741.86 560.92 C 743.27 560.33 744.68 559.76 746.14 559.27 C 746.12 560.17 746.07 561.96 746.05 562.86 C 747.93 561.75 749.68 559.81 752.09 560.31 C 755.19 560.31 755.38 565.04 753.21 566.44 C 750.77 567.45 748.59 565.64 746.35 564.99 C 746.18 569.61 746.07 574.26 746.31 578.88 C 746.39 580.60 748.76 580.12 749.91 580.62 C 749.87 581.12 749.78 582.12 749.74 582.63 C 746.03 582.40 742.31 582.24 738.60 582.48 C 737.35 582.42 735.58 582.93 735.12 581.23 C 731.83 583.66 727.52 583.13 724.21 581.12 C 721.97 581.99 719.66 583.86 717.15 582.95 C 713.14 582.42 710.97 576.89 713.87 573.98 C 716.78 571.48 720.79 570.98 724.37 569.97 C 724.90 567.64 724.46 565.33 723.31 563.28 C 722.21 563.44 720.86 563.00 719.98 563.81 C 719.19 565.19 718.74 566.74 717.89 568.08 C 716.13 568.81 714.19 568.78 712.35 568.54 C 712.86 564.53 716.51 562.33 719.80 560.68 C 722.52 560.41 725.37 559.89 728.06 560.75 C 729.74 561.52 730.46 563.31 731.41 564.78 C 731.39 567.88 731.35 570.98 731.12 574.08 C 730.43 575.70 730.84 577.64 732.08 578.89 C 733.79 579.62 736.21 578.51 737.11 580.82 C 737.50 580.32 738.30 579.31 738.70 578.80 C 738.98 574.53 738.81 570.25 738.73 565.98 C 738.03 564.96 737.38 563.92 736.78 562.87 C 738.46 562.22 740.17 561.60 741.86 560.92 M 720.37 574.28 C 718.65 576.31 720.45 579.88 723.17 579.50 C 724.96 577.58 724.26 574.79 724.42 572.42 C 723.04 572.96 721.47 573.23 720.37 574.28 Z" />
<path fill="#000000" opacity="1.00" d=" M 762.09 561.25 C 764.98 559.90 768.25 560.33 771.34 560.51 C 776.71 564.37 773.60 571.46 774.32 576.91 C 774.24 579.85 777.96 579.11 779.89 579.63 C 777.98 581.55 775.62 582.83 772.98 583.40 C 771.01 582.82 769.23 581.83 767.36 581.07 C 764.31 583.09 759.40 584.07 756.82 580.86 C 755.85 578.81 755.86 576.24 756.76 574.17 C 759.72 571.41 764.03 571.38 767.50 569.63 C 768.56 566.94 767.07 564.12 765.01 562.41 C 762.78 563.63 761.97 566.00 761.12 568.24 C 759.47 568.49 757.81 568.72 756.15 568.89 C 755.52 565.03 758.97 562.58 762.09 561.25 M 762.47 575.98 C 763.08 577.28 763.55 578.77 764.96 579.47 C 768.71 579.76 766.95 574.67 767.55 572.35 C 765.43 572.92 763.46 573.94 762.47 575.98 Z" />
<path fill="#000000" opacity="1.00" d=" M 852.16 562.18 C 856.11 559.58 861.04 560.30 865.50 560.61 C 867.46 562.66 867.20 565.70 865.24 567.66 C 863.62 565.44 861.59 563.55 859.05 562.44 C 858.03 562.94 857.02 563.45 856.02 563.95 C 855.68 564.43 855.01 565.38 854.67 565.85 C 852.40 570.61 854.50 577.39 860.06 578.54 C 862.87 579.57 864.68 576.69 867.03 575.96 C 868.73 577.23 866.52 578.74 865.86 579.87 C 860.93 585.01 850.63 583.78 847.64 577.04 C 845.29 571.86 847.14 565.05 852.16 562.18 Z" />
<path fill="#000000" opacity="1.00" d=" M 874.43 561.70 C 877.34 559.75 880.98 560.31 884.28 560.55 C 887.18 562.24 890.46 566.29 888.32 569.47 C 884.03 569.92 879.70 569.51 875.40 569.68 C 875.12 573.75 877.89 577.89 882.12 578.35 C 884.70 578.85 886.69 576.95 888.30 575.22 C 888.62 575.64 889.25 576.49 889.57 576.91 C 887.60 580.27 884.27 583.43 880.05 582.85 C 875.71 583.47 871.31 580.91 869.73 576.84 C 867.46 571.55 869.30 564.61 874.43 561.70 M 876.21 567.22 C 877.95 567.24 879.71 567.26 881.47 567.34 C 882.60 566.48 882.56 565.17 882.47 563.91 C 881.62 563.41 880.78 562.91 879.96 562.41 C 877.83 563.33 875.83 564.60 876.21 567.22 Z" />
<path fill="#000000" opacity="1.00" d=" M 821.35 578.67 C 817.05 572.63 819.83 563.26 826.86 560.70 C 831.08 560.16 835.95 559.65 839.50 562.54 C 846.01 567.31 844.83 579.20 837.07 582.06 C 831.83 583.74 824.84 583.56 821.35 578.67 M 830.91 562.31 C 829.72 563.35 828.61 564.47 827.60 565.68 C 827.44 569.16 827.04 572.69 827.77 576.13 C 828.46 578.30 830.13 581.27 832.90 580.26 C 835.79 578.63 835.61 574.85 835.63 572.00 C 835.72 568.28 834.80 563.78 830.91 562.31 Z" />
</g>
<g id="#dddedfff">
<path fill="#dddedf" opacity="1.00" d=" M 516.58 411.10 L 517.78 411.13 C 518.04 421.46 518.15 431.79 518.57 442.11 C 518.99 436.24 518.11 430.03 520.74 424.56 C 523.48 424.58 526.25 424.42 528.98 424.87 C 532.08 425.35 534.51 428.36 537.84 427.60 C 541.53 426.52 544.94 423.89 549.00 424.65 C 553.31 425.45 557.64 424.86 561.97 424.60 C 589.64 424.68 617.31 424.58 644.98 424.59 C 649.00 424.71 653.01 425.69 657.03 424.89 C 661.35 424.04 665.68 425.06 670.01 425.15 C 677.97 424.17 686.00 424.78 694.01 424.60 C 705.66 424.75 717.35 424.25 728.97 425.15 C 735.32 424.48 741.75 424.23 748.11 425.02 C 746.92 428.07 742.67 430.22 743.75 433.82 C 741.25 437.21 736.71 439.59 736.32 444.16 C 738.32 444.17 740.31 444.17 742.32 444.19 C 742.36 455.46 742.23 466.73 742.32 478.00 C 742.20 481.81 745.00 485.10 748.46 486.37 C 754.85 489.11 762.28 486.50 767.35 482.24 C 769.12 480.95 768.64 478.54 768.96 476.67 C 765.91 479.00 762.65 482.47 758.43 481.59 C 755.78 481.16 753.95 478.73 754.29 476.07 C 754.25 465.29 754.10 454.50 754.37 443.72 C 758.66 443.61 763.02 444.17 767.27 443.47 C 767.97 442.53 768.57 441.52 769.21 440.54 C 764.23 440.45 759.25 440.58 754.27 440.43 C 755.23 439.21 756.46 438.63 757.97 438.71 C 761.69 438.68 765.42 438.88 769.14 438.53 C 764.85 438.15 760.54 438.40 756.27 437.94 C 756.31 434.43 756.48 430.88 757.70 427.56 C 788.80 427.58 819.91 427.56 851.02 427.57 C 863.56 427.78 876.12 427.16 888.63 427.89 C 888.42 446.60 889.34 465.30 889.19 484.01 C 889.24 500.15 889.39 516.29 889.24 532.43 C 785.51 532.58 681.77 532.45 578.03 532.50 C 515.27 532.43 452.51 532.60 389.75 532.42 C 389.59 511.28 389.83 490.14 389.81 469.00 C 390.34 453.32 390.40 437.64 390.36 421.96 C 390.81 422.83 391.25 423.72 391.71 424.60 C 398.46 424.80 405.26 424.13 411.97 425.16 C 416.64 425.92 421.29 423.89 425.95 424.90 C 430.60 426.12 435.31 423.97 439.95 425.21 C 439.96 429.21 436.16 432.91 438.28 436.80 C 433.54 447.77 428.34 458.53 423.60 469.50 C 422.01 473.04 420.53 476.83 417.56 479.48 C 415.41 481.43 412.54 482.22 409.89 483.21 C 409.96 483.94 410.11 485.41 410.18 486.15 C 418.04 486.11 425.90 486.01 433.76 486.21 C 433.83 485.45 433.97 483.94 434.05 483.18 C 431.06 482.64 426.86 483.00 425.24 479.86 C 425.06 474.02 428.86 469.03 430.68 463.66 C 441.53 463.69 452.38 463.67 463.24 463.67 C 465.71 469.43 470.20 474.71 469.82 481.30 C 466.92 482.48 463.81 482.95 460.71 483.24 C 461.03 484.20 461.40 485.15 461.82 486.08 C 466.56 486.47 471.30 485.76 476.04 485.82 C 482.84 485.67 489.62 486.23 496.41 486.23 C 496.74 485.28 497.07 484.34 497.40 483.40 C 494.49 482.56 491.18 482.30 488.80 480.23 C 486.50 477.88 485.38 474.71 483.97 471.82 C 479.52 462.45 474.74 453.24 470.40 443.81 C 472.50 440.83 469.75 437.69 469.05 434.73 C 480.15 434.20 491.28 434.66 502.40 434.47 C 502.93 435.91 503.49 437.38 503.38 438.96 C 503.32 445.32 503.26 451.68 503.49 458.04 C 504.01 453.01 503.67 447.96 503.76 442.93 C 503.65 441.30 504.21 439.76 505.18 438.48 C 505.32 450.31 505.17 462.15 505.26 473.99 C 505.29 476.88 505.10 479.76 504.73 482.63 C 502.41 483.01 500.07 483.36 497.75 483.74 C 498.01 484.32 498.53 485.48 498.80 486.05 C 507.08 485.92 515.37 486.24 523.66 485.88 C 523.64 485.32 523.60 484.21 523.58 483.65 C 521.16 483.05 516.50 483.81 516.64 480.16 C 516.55 457.14 516.60 434.12 516.58 411.10 M 526.95 443.64 C 525.31 443.75 524.42 444.66 524.29 446.36 C 526.89 447.12 531.96 446.94 531.44 450.93 C 531.20 461.53 531.98 472.19 530.97 482.74 C 528.98 483.07 526.98 483.36 524.98 483.60 C 525.13 484.49 525.29 485.39 525.46 486.30 C 533.17 485.53 540.93 486.19 548.67 485.84 C 548.65 485.28 548.59 484.15 548.56 483.59 C 546.84 483.33 545.12 483.05 543.41 482.77 C 542.99 480.88 542.63 478.98 542.68 477.05 C 542.71 464.37 542.72 451.70 542.66 439.02 C 537.47 440.72 532.32 442.58 526.95 443.64 M 550.71 444.54 C 550.77 445.34 550.84 446.15 550.92 446.96 C 552.46 447.41 554.14 447.66 555.49 448.63 C 556.88 450.03 556.53 452.17 556.66 453.96 C 556.52 462.87 556.80 471.78 556.50 480.68 C 556.38 483.71 552.70 483.14 550.59 483.59 C 550.55 484.14 550.46 485.24 550.42 485.79 C 555.56 486.78 560.76 485.49 565.94 485.97 C 568.89 486.19 571.87 486.20 574.84 486.19 C 574.89 485.53 574.99 484.21 575.04 483.54 C 572.81 483.43 570.61 483.08 568.47 482.50 C 568.22 471.78 568.16 461.03 568.43 450.32 C 571.73 446.82 576.77 443.17 581.80 445.13 C 584.61 446.21 588.03 448.48 587.67 451.92 C 587.66 462.13 587.71 472.35 587.59 482.56 C 585.73 482.98 583.86 483.35 582.00 483.68 C 582.15 484.54 582.32 485.40 582.49 486.28 C 590.52 485.44 598.58 486.32 606.60 485.75 C 606.60 485.21 606.58 484.13 606.57 483.59 C 604.42 483.38 602.28 483.11 600.16 482.75 C 599.08 478.91 599.59 474.90 599.50 470.98 C 599.58 464.26 599.33 457.54 599.58 450.83 C 601.66 447.68 605.25 445.58 608.88 444.66 C 613.71 444.05 619.49 447.61 619.19 452.96 C 618.90 462.83 619.85 472.80 618.60 482.62 C 616.84 482.95 615.08 483.27 613.32 483.58 C 613.30 484.15 613.25 485.28 613.23 485.84 C 619.78 486.58 626.38 485.87 632.95 486.13 C 634.72 486.15 637.90 486.49 637.60 483.68 C 635.55 483.38 633.53 483.09 631.50 482.73 C 629.77 471.44 631.56 459.87 630.54 448.51 C 628.53 442.57 621.99 439.19 615.99 439.13 C 609.48 438.74 603.75 442.57 598.99 446.58 C 595.13 442.40 590.01 438.52 583.97 439.13 C 577.82 438.90 572.72 442.83 568.40 446.73 C 568.29 444.13 568.24 441.53 568.20 438.94 C 562.45 441.05 556.64 442.99 550.71 444.54 M 643.46 445.36 C 637.98 450.26 635.19 457.73 635.50 465.01 C 635.41 472.58 638.75 480.56 645.61 484.32 C 652.77 488.16 661.89 488.75 669.30 485.26 C 674.16 482.32 677.87 477.64 680.33 472.57 C 681.15 471.37 680.22 470.14 679.49 469.22 C 676.84 472.36 673.90 475.52 669.90 476.88 C 664.29 478.74 657.46 478.16 653.05 473.93 C 648.95 470.07 647.64 464.30 647.19 458.90 C 658.37 458.89 669.55 458.88 680.74 458.90 C 681.04 450.64 675.12 443.17 667.54 440.41 C 659.43 437.52 649.68 439.31 643.46 445.36 M 682.54 443.89 C 682.39 444.94 682.26 445.99 682.16 447.06 C 684.58 447.61 687.86 448.87 687.49 451.94 C 687.55 462.06 687.67 472.18 687.35 482.30 C 685.47 482.97 683.53 483.42 681.56 483.65 C 681.59 484.28 681.66 485.54 681.69 486.18 C 689.73 485.77 697.77 486.47 705.79 485.84 C 705.77 485.27 705.73 484.12 705.71 483.55 C 703.69 483.27 701.40 483.60 699.71 482.26 C 698.85 479.94 699.26 477.41 699.17 475.00 C 699.33 466.77 698.91 458.51 699.33 450.30 C 702.45 447.25 706.59 445.10 710.95 444.60 C 716.35 443.84 721.43 448.75 721.46 454.07 C 721.56 461.71 721.40 469.35 721.50 476.99 C 721.40 478.86 721.79 480.96 720.65 482.61 C 718.80 483.24 716.84 483.35 714.94 483.62 C 715.11 484.50 715.29 485.40 715.49 486.30 C 723.20 485.49 730.96 486.56 738.69 485.89 C 738.68 485.32 738.65 484.18 738.63 483.61 C 736.90 483.32 735.19 483.00 733.48 482.67 C 731.99 476.25 733.07 469.58 732.75 463.05 C 732.47 456.83 734.00 449.64 729.68 444.42 C 726.59 440.12 721.06 438.75 716.03 439.13 C 709.51 438.90 704.05 442.98 699.26 446.89 C 699.16 444.29 699.14 441.69 699.14 439.09 C 693.59 440.67 688.33 443.29 682.54 443.89 M 783.29 440.23 C 775.28 442.73 768.66 449.59 766.87 457.84 C 764.70 467.26 768.84 477.77 776.86 483.17 C 787.89 490.72 804.40 488.07 812.53 477.46 C 819.99 468.35 818.74 453.70 810.07 445.81 C 803.09 439.06 792.36 437.71 783.29 440.23 M 823.59 444.60 C 819.74 448.69 819.14 455.72 822.98 460.02 C 828.18 465.82 836.19 467.43 842.49 471.61 C 844.54 473.13 846.87 475.21 846.57 478.04 C 846.40 481.40 843.51 484.72 840.00 484.69 C 834.90 484.95 829.94 482.07 827.18 477.85 C 824.70 474.60 824.52 470.23 822.02 467.01 C 821.71 467.49 821.09 468.45 820.77 468.93 C 820.65 473.98 821.41 479.03 821.64 484.08 C 829.05 486.62 837.13 488.74 844.94 486.69 C 849.55 485.61 854.50 483.10 855.97 478.23 C 857.17 473.85 857.25 468.53 853.98 464.98 C 850.40 460.97 845.13 459.18 840.57 456.58 C 836.45 454.36 831.48 452.62 829.38 448.06 C 830.74 444.93 833.09 441.19 837.03 441.56 C 845.01 441.76 849.73 449.49 852.15 456.20 C 852.78 456.34 854.03 456.61 854.65 456.75 C 854.73 452.05 854.66 447.36 854.72 442.67 C 849.66 440.86 844.49 438.88 839.02 439.11 C 833.45 438.83 827.49 440.44 823.59 444.60 Z" />
<path fill="#dddedf" opacity="1.00" d=" M 445.95 428.82 C 451.23 439.13 456.12 449.67 460.99 460.18 C 451.27 460.22 441.55 460.20 431.83 460.20 C 436.55 449.74 441.22 439.27 445.95 428.82 Z" />
<path fill="#dddedf" opacity="1.00" d=" M 653.21 443.17 C 657.61 440.14 664.18 441.50 666.57 446.41 C 667.78 448.81 669.88 452.47 667.94 454.84 C 661.12 455.28 654.27 454.89 647.44 455.01 C 647.99 450.63 648.94 445.47 653.21 443.17 Z" />
<path fill="#dddedf" opacity="1.00" d=" M 789.05 441.90 C 793.31 440.77 798.40 442.32 800.78 446.17 C 803.99 451.15 803.64 457.36 804.22 463.03 C 803.51 468.88 804.10 475.39 800.51 480.45 C 796.40 486.75 784.88 486.19 782.23 478.85 C 779.07 470.17 778.94 460.56 780.79 451.58 C 781.77 447.33 784.46 442.83 789.05 441.90 Z" />
</g>
</svg>
